<svg xmlns="http://www.w3.org/2000/svg" xmlns:xlink="http://www.w3.org/1999/xlink" width="81" height="81" viewBox="0 0 81 81">
  <defs>
    <filter id="Trazado_900409" x="0" y="0" width="81" height="81" filterUnits="userSpaceOnUse">
      <feOffset dy="3" input="SourceAlpha"/>
      <feGaussianBlur stdDeviation="3" result="blur"/>
      <feFlood flood-opacity="0.161"/>
      <feComposite operator="in" in2="blur"/>
      <feComposite in="SourceGraphic"/>
    </filter>
  </defs>
  <g id="Grupo_1113047" data-name="Grupo 1113047" transform="translate(9 6)">
    <g transform="matrix(1, 0, 0, 1, -9, -6)" filter="url(#Trazado_900409)">
      <path id="Trazado_900409-2" data-name="Trazado 900409" d="M31.5,0A31.5,31.5,0,1,1,0,31.5,31.5,31.5,0,0,1,31.5,0Z" transform="translate(9 6)" fill="#fd9826" opacity="0.859"/>
    </g>
    <g id="dolar_1_" data-name="dolar (1)" transform="translate(9.98 9.98)">
      <g id="Grupo_1111360" data-name="Grupo 1111360" transform="translate(0.63 0.624)">
        <g id="Grupo_1111357" data-name="Grupo 1111357" transform="translate(0 11.767)">
          <g id="Grupo_1111356" data-name="Grupo 1111356">
            <g id="Grupo_1111354" data-name="Grupo 1111354">
              <path id="Trazado_900410" data-name="Trazado 900410" d="M26.541,177.429H18.867a23.344,23.344,0,0,1,0-4.185A74.456,74.456,0,0,1,7.5,163.188a83.237,83.237,0,0,0,.014-15.559c-.005-.071-.009-.144-.014-.217,4.548,0,4.55,2.859,4.55,12.335l2.33,2.126h0c2.708-2.023,4.918.44,12.112,6.7A56.033,56.033,0,0,1,26.541,177.429Z" transform="translate(-7.5 -147.412)" fill="#ffe6c7"/>
              <path id="Trazado_900411" data-name="Trazado 900411" d="M89.456,327.456H87.131a65.853,65.853,0,0,0-.214-7.866c-4.557-5.142-7.341-6.98-10.726-6.658L77.3,311.9h0c2.708-2.023,4.918.44,12.112,6.7a56.035,56.035,0,0,1,.047,8.853Z" transform="translate(-70.416 -297.439)" fill="#ffd5b0"/>
              <path id="Trazado_900412" data-name="Trazado 900412" d="M41.173,191.116c.266-4.908,1.089-11.318-3.555-11.318H36v11.3Z" transform="translate(-33.606 -177.076)" fill="#ffe6c7"/>
              <path id="Trazado_900413" data-name="Trazado 900413" d="M14.38,161.873c-5.265.393-4.5-3.517-4.5-6.1,0-4.929-.544-7.355-2.371-8.146-.005-.071-.009-.144-.014-.217,4.548,0,4.55,2.859,4.55,12.335Z" transform="translate(-7.5 -147.412)" fill="#ffd5b0"/>
            </g>
            <g id="Grupo_1111355" data-name="Grupo 1111355" transform="translate(22.587)">
              <path id="Trazado_900414" data-name="Trazado 900414" d="M276.344,177.429h7.674a23.341,23.341,0,0,0,0-4.185,74.46,74.46,0,0,0,11.367-10.056,83.236,83.236,0,0,1-.014-15.559c.005-.071.009-.144.014-.217-4.548,0-4.55,2.859-4.55,12.335l-2.33,2.126h0c-2.708-2.023-4.918.44-12.112,6.7A56.035,56.035,0,0,0,276.344,177.429Z" transform="translate(-276.193 -147.412)" fill="#ffe6c7"/>
              <path id="Trazado_900415" data-name="Trazado 900415" d="M276.344,327.456h2.326a65.854,65.854,0,0,1,.214-7.866c4.557-5.142,7.341-6.98,10.726-6.658L288.5,311.9h0c-2.708-2.023-4.918.44-12.112,6.7a56.036,56.036,0,0,0-.047,8.853Z" transform="translate(-276.193 -297.439)" fill="#ffd5b0"/>
              <path id="Trazado_900416" data-name="Trazado 900416" d="M411.984,191.116c-.266-4.908-1.089-11.318,3.555-11.318h1.616v11.3Z" transform="translate(-400.359 -177.076)" fill="#ffe6c7"/>
              <path id="Trazado_900417" data-name="Trazado 900417" d="M422.647,161.873c5.265.393,4.5-3.517,4.5-6.1,0-4.929.544-7.355,2.371-8.146.005-.071.009-.144.014-.217-4.548,0-4.55,2.859-4.55,12.335Z" transform="translate(-410.336 -147.412)" fill="#ffd5b0"/>
            </g>
          </g>
        </g>
        <g id="Grupo_1111359" data-name="Grupo 1111359" transform="translate(9.344)">
          <g id="Grupo_1111358" data-name="Grupo 1111358">
            <path id="Trazado_900418" data-name="Trazado 900418" d="M141.83,19.011a11.584,11.584,0,0,1-11.585,11.583q-.531,0-1.051-.047a11.584,11.584,0,0,1,0-23.072q.519-.047,1.051-.047A11.584,11.584,0,0,1,141.83,19.011Z" transform="translate(-118.659 -7.427)" fill="#fff18d"/>
            <path id="Trazado_900419" data-name="Trazado 900419" d="M256.615,19.011A11.584,11.584,0,0,1,245.03,30.593q-.531,0-1.051-.047a11.584,11.584,0,0,0,0-23.072q.52-.047,1.051-.047A11.584,11.584,0,0,1,256.615,19.011Z" transform="translate(-233.444 -7.427)" fill="#ffd366"/>
          </g>
          <path id="Trazado_900420" data-name="Trazado 900420" d="M176.328,56.995a8.1,8.1,0,1,1-8.1-8.1A8.1,8.1,0,0,1,176.328,56.995Z" transform="translate(-156.643 -45.411)" fill="#ffd366"/>
          <path id="Trazado_900421" data-name="Trazado 900421" d="M251.3,56.995A8.1,8.1,0,0,1,241.979,65a8.1,8.1,0,0,0,0-16.012,8.1,8.1,0,0,1,9.318,8.006Z" transform="translate(-231.613 -45.411)" fill="#ffaf5f"/>
        </g>
      </g>
      <g id="Grupo_1111361" data-name="Grupo 1111361">
        <path id="Trazado_900422" data-name="Trazado 900422" d="M364.376,426.621c-.781.608-1.566,1.189-2.333,1.729a.631.631,0,0,0-.264.578,22.722,22.722,0,0,1,0,4.048.63.63,0,0,0,.557.7.644.644,0,0,0,.071,0,.631.631,0,0,0,.626-.561,23.029,23.029,0,0,0,.032-3.944c.688-.491,1.389-1.013,2.086-1.556a.63.63,0,1,0-.774-1Z" transform="translate(-331.365 -390.637)"/>
        <path id="Trazado_900423" data-name="Trazado 900423" d="M289.135,156.711a142.393,142.393,0,0,1,0-15.676.63.63,0,0,0-.629-.672c-2.438,0-3.8.824-4.48,2.739a3.686,3.686,0,0,0-2.443,1.135c-1.838,1.955-1.589,6.009-1.369,9.586q.01.16.02.319a3.8,3.8,0,0,0-2.035.316c-1.7.705-3.686,2.45-6.978,5.34-.669.587-1.361,1.2-2.122,1.856a.631.631,0,0,0-.214.412,55.984,55.984,0,0,0-.049,8.954.63.63,0,0,0,.628.583l.049,0a.631.631,0,0,0,.581-.677,56.611,56.611,0,0,1,.024-8.485c.688-.6,1.321-1.155,1.935-1.693,6.143-5.393,7.534-6.49,9.772-4.313-.875.777-2.833,2.495-5.053,4.295a.63.63,0,0,0,.794.98c3.022-2.45,5.565-4.75,5.591-4.773a.63.63,0,0,0,.042-.892q-.313-.342-.614-.622l1.8-1.641a.63.63,0,0,0,.205-.466c0-4.647,0-7.717.543-9.528a2.645,2.645,0,0,1,2.709-2.137,145.166,145.166,0,0,0,.023,14.873,75.438,75.438,0,0,1-6.44,6.146.63.63,0,1,0,.816.961,74.867,74.867,0,0,0,6.741-6.461.63.63,0,0,0,.158-.457Zm-5.81-3.676-1.758,1.6-.042-.025c-.017-.286-.034-.576-.052-.869-.2-3.322-.436-7.088,1.029-8.645a2.306,2.306,0,0,1,1.183-.671A55.693,55.693,0,0,0,283.325,153.035Z" transform="translate(-246.097 -128.564)"/>
        <path id="Trazado_900424" data-name="Trazado 900424" d="M178.63,349.735c-.76-.661-1.452-1.268-2.121-1.856-.833-.731-1.619-1.421-2.32-2.023a.631.631,0,0,0-.821.957c.7.6,1.443,1.253,2.309,2.013.614.539,1.246,1.094,1.934,1.693a56.613,56.613,0,0,1,.024,8.485.631.631,0,0,0,.581.677l.049,0a.631.631,0,0,0,.628-.583,55.966,55.966,0,0,0-.049-8.954.631.631,0,0,0-.214-.412Z" transform="translate(-158.593 -316.644)"/>
        <path id="Trazado_900425" data-name="Trazado 900425" d="M13.113,155.762c-1.7-1.254-3.016-1.8-4.233-1.616l.022-.353c.222-3.568.473-7.612-1.358-9.56A3.673,3.673,0,0,0,5.11,143.1c-.683-1.916-2.042-2.74-4.48-2.74a.63.63,0,0,0-.63.63c0,.014,0,.028,0,.042A83.249,83.249,0,0,1,0,156.71a.631.631,0,0,0,.158.457,76,76,0,0,0,11.18,9.931,23.028,23.028,0,0,0,.032,3.944A.631.631,0,0,0,12,171.6a.647.647,0,0,0,.071,0,.63.63,0,0,0,.557-.7,22.774,22.774,0,0,1,0-4.048.631.631,0,0,0-.264-.578,74.819,74.819,0,0,1-11.085-9.755,80.947,80.947,0,0,0,.029-14.873,2.643,2.643,0,0,1,2.7,2.136c.543,1.811.543,4.881.543,9.528a.631.631,0,0,0,.205.466l1.8,1.64q-.3.281-.614.622a.63.63,0,0,0,.042.892c.025.023,2.568,2.323,5.591,4.773a.63.63,0,1,0,.794-.979c-2.219-1.8-4.177-3.516-5.052-4.294a3.034,3.034,0,0,1,2-1.059,5.454,5.454,0,0,1,3.048,1.4.63.63,0,0,0,.748-1.015Zm-5.469-2.047q-.029.46-.055.91l-.02.012-1.756-1.6a55.686,55.686,0,0,0-.36-8.6,2.292,2.292,0,0,1,1.174.667C8.083,146.648,7.849,150.4,7.643,153.715Z" transform="translate(0 -128.563)"/>
        <path id="Trazado_900426" data-name="Trazado 900426" d="M154.4,52.868a.63.63,0,0,0-1.175.457,8.728,8.728,0,1,0-.589-3.156.63.63,0,0,0,1.261,0,7.445,7.445,0,1,1,.5,2.7Z" transform="translate(-139.803 -37.961)"/>
        <path id="Trazado_900427" data-name="Trazado 900427" d="M135.591,12.208a12.114,12.114,0,0,0-2.309-7.143.63.63,0,1,0-1.022.739,10.957,10.957,0,1,1-8.885-4.542,10.974,10.974,0,0,1,6.991,2.519.631.631,0,0,0,.8-.971,12.207,12.207,0,1,0,4.42,9.4Z" transform="translate(-101.815 0)"/>
        <path id="Trazado_900428" data-name="Trazado 900428" d="M229.089,85.092a1.254,1.254,0,0,1-1.253-1.252.63.63,0,1,0-1.261,0,2.517,2.517,0,0,0,1.883,2.433v.861a.63.63,0,0,0,1.261,0v-.861a2.513,2.513,0,0,0-.63-4.945,1.252,1.252,0,1,1,1.253-1.252.63.63,0,1,0,1.261,0,2.517,2.517,0,0,0-1.883-2.433v-.861a.63.63,0,0,0-1.261,0v.861a2.513,2.513,0,0,0,.63,4.945,1.252,1.252,0,1,1,0,2.5Z" transform="translate(-207.529 -69.751)"/>
      </g>
    </g>
  </g>
</svg>
