<svg xmlns="http://www.w3.org/2000/svg" xmlns:xlink="http://www.w3.org/1999/xlink" width="93.722" height="93.723" viewBox="0 0 93.722 93.723">
  <defs>
    <filter id="Trazado_874925" x="0" y="0" width="93.722" height="93.723" filterUnits="userSpaceOnUse">
      <feOffset dy="3" input="SourceAlpha"/>
      <feGaussianBlur stdDeviation="3" result="blur"/>
      <feFlood flood-opacity="0.161"/>
      <feComposite operator="in" in2="blur"/>
      <feComposite in="SourceGraphic"/>
    </filter>
  </defs>
  <g id="Grupo_1114885" data-name="Grupo 1114885" transform="translate(-306.051 -8311)">
    <g id="Grupo_1112927" data-name="Grupo 1112927" transform="translate(315.051 8317)">
      <g id="Grupo_1109835" data-name="Grupo 1109835" transform="translate(0 0)">
        <g id="Grupo_1107913" data-name="Grupo 1107913" transform="translate(0 0)">
          <g transform="matrix(1, 0, 0, 1, -9, -6)" filter="url(#Trazado_874925)">
            <g id="Trazado_874925-2" data-name="Trazado 874925" transform="translate(9 6)" fill="#e2dacc" opacity="0.859">
              <path d="M 37.86101913452148 74.2225341796875 C 32.95165252685547 74.2225341796875 28.1899299621582 73.26136779785156 23.7081298828125 71.36572265625 C 19.37846374511719 69.534423828125 15.48970794677734 66.91244506835938 12.1498966217041 63.57263565063477 C 8.810074806213379 60.23281097412109 6.188107967376709 56.34405517578125 4.356808185577393 52.01438903808594 C 2.461163520812988 47.53257751464844 1.499996900558472 42.77085494995117 1.499996900558472 37.86148834228516 C 1.499996900558472 32.95167922973633 2.461163520812988 28.18995666503906 4.356808185577393 23.70814514160156 C 6.188107967376709 19.37847900390625 8.810074806213379 15.48972225189209 12.1498966217041 12.14990043640137 C 15.48970794677734 8.810089111328125 19.37846374511719 6.188111305236816 23.7081298828125 4.3568115234375 C 28.1899299621582 2.461167097091675 32.95165252685547 1.500000476837158 37.86101913452148 1.500000476837158 C 42.7703857421875 1.500000476837158 47.53210830688477 2.461167097091675 52.01390838623047 4.3568115234375 C 56.34357452392578 6.188111305236816 60.23233032226562 8.810089111328125 63.57213973999023 12.14990043640137 C 66.91196441650391 15.48972225189209 69.53392791748047 19.37847900390625 71.36522674560547 23.70814514160156 C 73.26087188720703 28.18995666503906 74.22203826904297 32.95167922973633 74.22203826904297 37.86104583740234 C 74.22203826904297 42.77085494995117 73.26087188720703 47.53257751464844 71.36522674560547 52.01438903808594 C 69.53392791748047 56.34405517578125 66.91196441650391 60.23281097412109 63.57213973999023 63.57263565063477 C 60.23233032226562 66.91244506835938 56.34357452392578 69.534423828125 52.01390838623047 71.36572265625 C 47.53210830688477 73.26136779785156 42.7703857421875 74.2225341796875 37.86101913452148 74.2225341796875 Z" stroke="none"/>
              <path d="M 37.86101913452148 3.000007629394531 C 33.15349578857422 3.000007629394531 28.5883674621582 3.921302795410156 24.29245758056641 5.738327026367188 C 20.14159393310547 7.493995666503906 16.41309356689453 10.00801849365234 13.21055603027344 13.21056747436523 C 10.00800323486328 16.41310501098633 7.493980407714844 20.14160537719727 5.738319396972656 24.29246520996094 C 3.921295166015625 28.58837890625 2.999992370605469 33.15350341796875 2.999992370605469 37.86148071289062 C 2.999992370605469 42.56901550292969 3.921295166015625 47.13414001464844 5.738319396972656 51.4300537109375 C 7.493980407714844 55.58092880249023 10.00800323486328 59.30941772460938 13.21055603027344 62.51196670532227 C 16.41309356689453 65.71451568603516 20.14159393310547 68.22854614257812 24.29245758056641 69.98420715332031 C 28.5883674621582 71.80123138427734 33.15349578857422 72.72252655029297 37.86101913452148 72.72252655029297 C 42.56854248046875 72.72252655029297 47.1336669921875 71.80123138427734 51.42958068847656 69.98420715332031 C 55.5804443359375 68.22854614257812 59.30892944335938 65.71451568603516 62.51148223876953 62.51196670532227 C 65.71401977539062 59.30941772460938 68.22804260253906 55.58092880249023 69.98370361328125 51.4300537109375 C 71.80073547363281 47.13414001464844 72.72203063964844 42.56901550292969 72.72203063964844 37.86104202270508 C 72.72203063964844 33.15350341796875 71.80073547363281 28.58837890625 69.98370361328125 24.29246520996094 C 68.22804260253906 20.14160537719727 65.71401977539062 16.41310501098633 62.51148223876953 13.21056747436523 C 59.30892944335938 10.00801849365234 55.5804443359375 7.493995666503906 51.42958068847656 5.738327026367188 C 47.1336669921875 3.921302795410156 42.56854248046875 3.000007629394531 37.86101913452148 3.000007629394531 M 37.86101913452148 7.62939453125e-06 C 58.77108001708984 7.62939453125e-06 75.72203063964844 16.95096588134766 75.72203063964844 37.86104202270508 L 75.72203063964844 37.86148071289062 C 75.72203063964844 58.77156829833984 58.77108001708984 75.72252655029297 37.86101913452148 75.72252655029297 C 16.95095825195312 75.72252655029297 -7.62939453125e-06 58.77156829833984 -7.62939453125e-06 37.86148071289062 L -7.62939453125e-06 37.86104202270508 C -7.62939453125e-06 16.95096588134766 16.95095825195312 7.62939453125e-06 37.86101913452148 7.62939453125e-06 Z" stroke="none" fill="#fff"/>
            </g>
          </g>
          <g id="Trazado_874923" data-name="Trazado 874923" transform="translate(0 0)" fill="none">
            <path d="M37.861,0A37.861,37.861,0,0,1,75.722,37.861h0A37.861,37.861,0,1,1,0,37.861H0A37.861,37.861,0,0,1,37.861,0Z" stroke="none"/>
            <path d="M 37.86101913452148 3.000007629394531 C 33.15349578857422 3.000007629394531 28.5883674621582 3.921302795410156 24.29245758056641 5.738327026367188 C 20.14159393310547 7.493995666503906 16.41309356689453 10.00801849365234 13.21055603027344 13.21056747436523 C 10.00800323486328 16.41310501098633 7.493980407714844 20.14160537719727 5.738319396972656 24.29246520996094 C 3.921295166015625 28.58837890625 2.999992370605469 33.15350341796875 2.999992370605469 37.86148071289062 C 2.999992370605469 42.56901550292969 3.921295166015625 47.13414001464844 5.738319396972656 51.4300537109375 C 7.493980407714844 55.58092880249023 10.00800323486328 59.30941772460938 13.21055603027344 62.51196670532227 C 16.41309356689453 65.71451568603516 20.14159393310547 68.22854614257812 24.29245758056641 69.98420715332031 C 28.5883674621582 71.80123138427734 33.15349578857422 72.72252655029297 37.86101913452148 72.72252655029297 C 42.56854248046875 72.72252655029297 47.1336669921875 71.80123138427734 51.42958068847656 69.98420715332031 C 55.5804443359375 68.22854614257812 59.30892944335938 65.71451568603516 62.51148223876953 62.51196670532227 C 65.71401977539062 59.30941772460938 68.22804260253906 55.58092880249023 69.98370361328125 51.4300537109375 C 71.80073547363281 47.13414001464844 72.72203063964844 42.56901550292969 72.72203063964844 37.86104202270508 C 72.72203063964844 33.15350341796875 71.80073547363281 28.58837890625 69.98370361328125 24.29246520996094 C 68.22804260253906 20.14160537719727 65.71401977539062 16.41310501098633 62.51148223876953 13.21056747436523 C 59.30892944335938 10.00801849365234 55.5804443359375 7.493995666503906 51.42958068847656 5.738327026367188 C 47.1336669921875 3.921302795410156 42.56854248046875 3.000007629394531 37.86101913452148 3.000007629394531 M 37.86101913452148 7.62939453125e-06 C 58.77108001708984 7.62939453125e-06 75.72203063964844 16.95096588134766 75.72203063964844 37.86104202270508 L 75.72203063964844 37.86148071289062 C 75.72203063964844 58.77156829833984 58.77108001708984 75.72252655029297 37.86101913452148 75.72252655029297 C 16.95095825195312 75.72252655029297 -7.62939453125e-06 58.77156829833984 -7.62939453125e-06 37.86148071289062 L -7.62939453125e-06 37.86104202270508 C -7.62939453125e-06 16.95096588134766 16.95095825195312 7.62939453125e-06 37.86101913452148 7.62939453125e-06 Z" stroke="none" fill="#fff"/>
          </g>
        </g>
      </g>
    </g>
    <g id="Grupo_1114884" data-name="Grupo 1114884" transform="translate(329.051 8332.879)">
      <path id="Trazado_908235" data-name="Trazado 908235" d="M8,12.073,31.152,9.527l4.587,24.2-23.151,4Zm0,0" transform="translate(-7.232 -8.503)" fill="#fff"/>
      <path id="Trazado_908236" data-name="Trazado 908236" d="M5.355,31.256a.767.767,0,0,1-.755-.632L.012,4.974a.768.768,0,0,1,.672-.9L23.835,1.53a.767.767,0,0,1,.839.62l4.587,24.2a.768.768,0,0,1-.624.9l-23.152,4A.819.819,0,0,1,5.355,31.256ZM1.669,5.512,5.977,29.6l21.63-3.736L23.3,3.134Zm0,0" transform="translate(0 -1.269)" fill="#173851"/>
      <path id="Trazado_908237" data-name="Trazado 908237" d="M46.074,73.8l4.152-.7.723,4.022-4.153.7Zm0,0" transform="translate(-41.652 -65.976)" fill="#45c9a5"/>
      <path id="Trazado_908238" data-name="Trazado 908238" d="M39.565,71.361a.768.768,0,0,1-.755-.632l-.723-4.022a.768.768,0,0,1,.628-.893l4.152-.7a.767.767,0,0,1,.884.621l.723,4.022a.769.769,0,0,1-.628.893l-4.152.7A.786.786,0,0,1,39.565,71.361Zm.171-4.162.451,2.511,2.638-.445-.451-2.511Zm0,0" transform="translate(-34.42 -58.745)" fill="#173851"/>
      <path id="Trazado_908239" data-name="Trazado 908239" d="M62.3,124.088l17.2-2.971.261,1.514-17.2,2.971Zm0,0" transform="translate(-56.324 -109.383)" fill="#173851"/>
      <path id="Trazado_908240" data-name="Trazado 908240" d="M223.985,11.589,200.834,9.527l-4.588,24.2,23.151,4Zm0,0" transform="translate(-177.41 -8.503)" fill="#fff"/>
      <path id="Trazado_908241" data-name="Trazado 908241" d="M212.165,31.256a.831.831,0,0,1-.132-.011l-23.151-4a.767.767,0,0,1-.624-.9l4.587-24.2a.769.769,0,0,1,.823-.622L216.82,3.59a.768.768,0,0,1,.688.9L212.92,30.621A.768.768,0,0,1,212.165,31.256Zm-22.252-5.391L211.54,29.6l4.311-24.556L194.225,3.12Zm0,0" transform="translate(-170.177 -1.269)" fill="#173851"/>
      <path id="Trazado_908242" data-name="Trazado 908242" d="M400.351,72.151l-4.335-.749-.755,4.3,4.335.749Zm0,0" transform="translate(-357.324 -64.44)" fill="#45c9a5"/>
      <path id="Trazado_908243" data-name="Trazado 908243" d="M392.364,69.986a.79.79,0,0,1-.132-.012l-4.335-.749a.768.768,0,0,1-.625-.889l.755-4.3a.767.767,0,0,1,.887-.624l4.335.749a.767.767,0,0,1,.625.889l-.755,4.3A.768.768,0,0,1,392.364,69.986Zm-3.446-2.142,2.822.487.489-2.787-2.822-.488Zm0,0" transform="translate(-350.09 -57.206)" fill="#173851"/>
      <path id="Trazado_908244" data-name="Trazado 908244" d="M249.023,122.642l.262-1.513,17.2,2.971-.261,1.514Zm0,0" transform="translate(-225.122 -109.393)" fill="#173851"/>
      <path id="Trazado_908245" data-name="Trazado 908245" d="M126.75,8.121h23.5V34.649h-23.5Zm0,0" transform="translate(-114.584 -7.232)" fill="#fff"/>
      <path id="Trazado_908246" data-name="Trazado 908246" d="M143.017,28.185h-23.5a.768.768,0,0,1-.768-.768V.889a.768.768,0,0,1,.768-.768h23.5a.768.768,0,0,1,.768.768V27.417A.768.768,0,0,1,143.017,28.185Zm-22.732-1.536h21.964V1.657H120.286Zm0,0" transform="translate(-107.352)" fill="#173851"/>
      <path id="Trazado_908247" data-name="Trazado 908247" d="M160.867,42.391h8.483v8.415h-8.483Zm0,0" transform="translate(-145.427 -38.212)" fill="#f86252"/>
      <path id="Trazado_908248" data-name="Trazado 908248" d="M162.117,44.341h-8.482a.768.768,0,0,1-.768-.768V35.158a.768.768,0,0,1,.768-.768h8.482a.768.768,0,0,1,.768.768v8.415A.768.768,0,0,1,162.117,44.341ZM154.4,42.805h6.947V35.926H154.4Zm0,0" transform="translate(-138.195 -30.98)" fill="#173851"/>
      <path id="Trazado_908249" data-name="Trazado 908249" d="M176.867,58.387h5.411V63.73h-5.411Zm0,0" transform="translate(-159.891 -52.673)" fill="#fff"/>
      <g id="Grupo_1114883" data-name="Grupo 1114883" transform="translate(15.085 4.998)">
        <path id="Trazado_908250" data-name="Trazado 908250" d="M287.773,50.934h5.642v1.536h-5.642Zm0,0" transform="translate(-275.237 -50.934)" fill="#173851"/>
        <path id="Trazado_908251" data-name="Trazado 908251" d="M287.773,93.992h5.642v1.536h-5.642Zm0,0" transform="translate(-275.237 -89.859)" fill="#173851"/>
        <path id="Trazado_908252" data-name="Trazado 908252" d="M157.16,167.473h9.334v1.536H157.16Zm0,0" transform="translate(-157.16 -156.287)" fill="#173851"/>
      </g>
      <path id="Trazado_908253" data-name="Trazado 908253" d="M70.185,177.953H54.9a1.961,1.961,0,0,0-1.341.529l-4.085,3.83H28.757a.486.486,0,0,0-.488.512l1.409,19.835a.487.487,0,0,0,.488.456h38.6a.486.486,0,0,0,.487-.46l1.417-24.195A.487.487,0,0,0,70.185,177.953Zm0,0" transform="translate(-25.555 -160.763)" fill="#fff"/>
      <path id="Trazado_908254" data-name="Trazado 908254" d="M61.54,196.656h-38.6a1.255,1.255,0,0,1-1.254-1.18l-1.408-19.825a1.254,1.254,0,0,1,1.254-1.334H41.938l3.864-3.623a2.719,2.719,0,0,1,1.867-.737H62.957a1.255,1.255,0,0,1,1.255,1.315l-1.417,24.2A1.251,1.251,0,0,1,61.54,196.656Zm-.279-1.271v.005Zm-38.045-.014v.007S23.216,195.373,23.216,195.371Zm-.018-.25H61.277l1.384-23.628H47.668a1.187,1.187,0,0,0-.817.322l-4.306,4.038H21.83Zm0,0" transform="translate(-18.328 -153.535)" fill="#173851"/>
      <path id="Trazado_908255" data-name="Trazado 908255" d="M46.334,216.045l-1.259-17.732H65.269l4.528-4.246a.426.426,0,0,1,.291-.114H84.267l-1.294,22.092Zm0,0" transform="translate(-40.748 -175.228)" fill="#f8bc5c"/>
      <path id="Trazado_908256" data-name="Trazado 908256" d="M182.939,294.664H168.284c-.125,0-.223.152-.211.328l.384,5.789c.01.154.1.273.211.273h13.886c.109,0,.2-.118.211-.273l.384-5.789C183.162,294.816,183.064,294.664,182.939,294.664Zm0,0" transform="translate(-151.94 -266.272)" fill="#fff"/>
      <path id="Trazado_908257" data-name="Trazado 908257" d="M175.328,294.589H161.442a1.01,1.01,0,0,1-.977-.989l-.384-5.789a1.125,1.125,0,0,1,.289-.844.936.936,0,0,1,.688-.3h14.655a.934.934,0,0,1,.688.3,1.125,1.125,0,0,1,.289.844L176.3,293.6A1.009,1.009,0,0,1,175.328,294.589Zm-13.361-1.536H174.8l.322-4.854H161.645Zm0,0" transform="translate(-144.713 -259.04)" fill="#173851"/>
      <path id="Trazado_908258" data-name="Trazado 908258" d="M198.953,319.949H208.1v1.536h-9.151Zm0,0" transform="translate(-179.857 -289.13)" fill="#173851"/>
    </g>
  </g>
</svg>
