<svg xmlns="http://www.w3.org/2000/svg" xmlns:xlink="http://www.w3.org/1999/xlink" width="93.722" height="93.723" viewBox="0 0 93.722 93.723">
  <defs>
    <filter id="Trazado_874925" x="0" y="0" width="93.722" height="93.723" filterUnits="userSpaceOnUse">
      <feOffset dy="3" input="SourceAlpha"/>
      <feGaussianBlur stdDeviation="3" result="blur"/>
      <feFlood flood-opacity="0.161"/>
      <feComposite operator="in" in2="blur"/>
      <feComposite in="SourceGraphic"/>
    </filter>
  </defs>
  <g id="Grupo_1114891" data-name="Grupo 1114891" transform="translate(-936.051 -8311)">
    <g id="Grupo_1113066" data-name="Grupo 1113066" transform="translate(945.051 8317)">
      <g id="Grupo_1109835" data-name="Grupo 1109835" transform="translate(0 0)">
        <g id="Grupo_1107913" data-name="Grupo 1107913" transform="translate(0 0)">
          <g transform="matrix(1, 0, 0, 1, -9, -6)" filter="url(#Trazado_874925)">
            <g id="Trazado_874925-2" data-name="Trazado 874925" transform="translate(9 6)" fill="#e2dacc" opacity="0.859">
              <path d="M 37.86101913452148 74.2225341796875 C 32.95165252685547 74.2225341796875 28.1899299621582 73.26136779785156 23.7081298828125 71.36572265625 C 19.37846374511719 69.534423828125 15.48970794677734 66.91244506835938 12.1498966217041 63.57263565063477 C 8.810074806213379 60.23281097412109 6.188107967376709 56.34405517578125 4.356808185577393 52.01438903808594 C 2.461163520812988 47.53257751464844 1.499996900558472 42.77085494995117 1.499996900558472 37.86148834228516 C 1.499996900558472 32.95167922973633 2.461163520812988 28.18995666503906 4.356808185577393 23.70814514160156 C 6.188107967376709 19.37847900390625 8.810074806213379 15.48972225189209 12.1498966217041 12.14990043640137 C 15.48970794677734 8.810089111328125 19.37846374511719 6.188111305236816 23.7081298828125 4.3568115234375 C 28.1899299621582 2.461167097091675 32.95165252685547 1.500000476837158 37.86101913452148 1.500000476837158 C 42.7703857421875 1.500000476837158 47.53210830688477 2.461167097091675 52.01390838623047 4.3568115234375 C 56.34357452392578 6.188111305236816 60.23233032226562 8.810089111328125 63.57213973999023 12.14990043640137 C 66.91196441650391 15.48972225189209 69.53392791748047 19.37847900390625 71.36522674560547 23.70814514160156 C 73.26087188720703 28.18995666503906 74.22203826904297 32.95167922973633 74.22203826904297 37.86104583740234 C 74.22203826904297 42.77085494995117 73.26087188720703 47.53257751464844 71.36522674560547 52.01438903808594 C 69.53392791748047 56.34405517578125 66.91196441650391 60.23281097412109 63.57213973999023 63.57263565063477 C 60.23233032226562 66.91244506835938 56.34357452392578 69.534423828125 52.01390838623047 71.36572265625 C 47.53210830688477 73.26136779785156 42.7703857421875 74.2225341796875 37.86101913452148 74.2225341796875 Z" stroke="none"/>
              <path d="M 37.86101913452148 3.000007629394531 C 33.15349578857422 3.000007629394531 28.5883674621582 3.921302795410156 24.29245758056641 5.738327026367188 C 20.14159393310547 7.493995666503906 16.41309356689453 10.00801849365234 13.21055603027344 13.21056747436523 C 10.00800323486328 16.41310501098633 7.493980407714844 20.14160537719727 5.738319396972656 24.29246520996094 C 3.921295166015625 28.58837890625 2.999992370605469 33.15350341796875 2.999992370605469 37.86148071289062 C 2.999992370605469 42.56901550292969 3.921295166015625 47.13414001464844 5.738319396972656 51.4300537109375 C 7.493980407714844 55.58092880249023 10.00800323486328 59.30941772460938 13.21055603027344 62.51196670532227 C 16.41309356689453 65.71451568603516 20.14159393310547 68.22854614257812 24.29245758056641 69.98420715332031 C 28.5883674621582 71.80123138427734 33.15349578857422 72.72252655029297 37.86101913452148 72.72252655029297 C 42.56854248046875 72.72252655029297 47.1336669921875 71.80123138427734 51.42958068847656 69.98420715332031 C 55.5804443359375 68.22854614257812 59.30892944335938 65.71451568603516 62.51148223876953 62.51196670532227 C 65.71401977539062 59.30941772460938 68.22804260253906 55.58092880249023 69.98370361328125 51.4300537109375 C 71.80073547363281 47.13414001464844 72.72203063964844 42.56901550292969 72.72203063964844 37.86104202270508 C 72.72203063964844 33.15350341796875 71.80073547363281 28.58837890625 69.98370361328125 24.29246520996094 C 68.22804260253906 20.14160537719727 65.71401977539062 16.41310501098633 62.51148223876953 13.21056747436523 C 59.30892944335938 10.00801849365234 55.5804443359375 7.493995666503906 51.42958068847656 5.738327026367188 C 47.1336669921875 3.921302795410156 42.56854248046875 3.000007629394531 37.86101913452148 3.000007629394531 M 37.86101913452148 7.62939453125e-06 C 58.77108001708984 7.62939453125e-06 75.72203063964844 16.95096588134766 75.72203063964844 37.86104202270508 L 75.72203063964844 37.86148071289062 C 75.72203063964844 58.77156829833984 58.77108001708984 75.72252655029297 37.86101913452148 75.72252655029297 C 16.95095825195312 75.72252655029297 -7.62939453125e-06 58.77156829833984 -7.62939453125e-06 37.86148071289062 L -7.62939453125e-06 37.86104202270508 C -7.62939453125e-06 16.95096588134766 16.95095825195312 7.62939453125e-06 37.86101913452148 7.62939453125e-06 Z" stroke="none" fill="#fff"/>
            </g>
          </g>
          <g id="Trazado_874923" data-name="Trazado 874923" transform="translate(0 0)" fill="none">
            <path d="M37.861,0A37.861,37.861,0,0,1,75.722,37.861h0A37.861,37.861,0,1,1,0,37.861H0A37.861,37.861,0,0,1,37.861,0Z" stroke="none"/>
            <path d="M 37.86101913452148 3.000007629394531 C 33.15349578857422 3.000007629394531 28.5883674621582 3.921302795410156 24.29245758056641 5.738327026367188 C 20.14159393310547 7.493995666503906 16.41309356689453 10.00801849365234 13.21055603027344 13.21056747436523 C 10.00800323486328 16.41310501098633 7.493980407714844 20.14160537719727 5.738319396972656 24.29246520996094 C 3.921295166015625 28.58837890625 2.999992370605469 33.15350341796875 2.999992370605469 37.86148071289062 C 2.999992370605469 42.56901550292969 3.921295166015625 47.13414001464844 5.738319396972656 51.4300537109375 C 7.493980407714844 55.58092880249023 10.00800323486328 59.30941772460938 13.21055603027344 62.51196670532227 C 16.41309356689453 65.71451568603516 20.14159393310547 68.22854614257812 24.29245758056641 69.98420715332031 C 28.5883674621582 71.80123138427734 33.15349578857422 72.72252655029297 37.86101913452148 72.72252655029297 C 42.56854248046875 72.72252655029297 47.1336669921875 71.80123138427734 51.42958068847656 69.98420715332031 C 55.5804443359375 68.22854614257812 59.30892944335938 65.71451568603516 62.51148223876953 62.51196670532227 C 65.71401977539062 59.30941772460938 68.22804260253906 55.58092880249023 69.98370361328125 51.4300537109375 C 71.80073547363281 47.13414001464844 72.72203063964844 42.56901550292969 72.72203063964844 37.86104202270508 C 72.72203063964844 33.15350341796875 71.80073547363281 28.58837890625 69.98370361328125 24.29246520996094 C 68.22804260253906 20.14160537719727 65.71401977539062 16.41310501098633 62.51148223876953 13.21056747436523 C 59.30892944335938 10.00801849365234 55.5804443359375 7.493995666503906 51.42958068847656 5.738327026367188 C 47.1336669921875 3.921302795410156 42.56854248046875 3.000007629394531 37.86101913452148 3.000007629394531 M 37.86101913452148 7.62939453125e-06 C 58.77108001708984 7.62939453125e-06 75.72203063964844 16.95096588134766 75.72203063964844 37.86104202270508 L 75.72203063964844 37.86148071289062 C 75.72203063964844 58.77156829833984 58.77108001708984 75.72252655029297 37.86101913452148 75.72252655029297 C 16.95095825195312 75.72252655029297 -7.62939453125e-06 58.77156829833984 -7.62939453125e-06 37.86148071289062 L -7.62939453125e-06 37.86104202270508 C -7.62939453125e-06 16.95096588134766 16.95095825195312 7.62939453125e-06 37.86101913452148 7.62939453125e-06 Z" stroke="none" fill="#fff"/>
          </g>
        </g>
      </g>
    </g>
    <g id="Grupo_1114890" data-name="Grupo 1114890" transform="translate(955.051 8327)">
      <g id="Ikon" transform="translate(2.855 4.855)">
        <path id="Trazado_908281" data-name="Trazado 908281" d="M37.677,53.984H24L27.328,48h7.021Z" transform="translate(-6.049 -11.244)" fill="#616161"/>
        <path id="Trazado_908282" data-name="Trazado 908282" d="M52.578,14.5a1.613,1.613,0,0,0-1.71-1.5H4.71A1.613,1.613,0,0,0,3,14.5V36.079H52.578Z" transform="translate(-3 -6.161)" fill="#1e88e5"/>
        <path id="Trazado_908283" data-name="Trazado 908283" d="M3,40v5.342a1.613,1.613,0,0,0,1.71,1.5H50.869a1.613,1.613,0,0,0,1.71-1.5V40Z" transform="translate(-3 -10.082)" fill="#424242"/>
        <rect id="Rectángulo_406663" data-name="Rectángulo 406663" width="19" height="3" rx="1.5" transform="translate(15.433 43.014)" fill="#424242"/>
        <path id="Trazado_908284" data-name="Trazado 908284" d="M12.71,5h7.415a1.71,1.71,0,0,1,1.136.432l3.833,3.41a1.71,1.71,0,0,0,1.136.432h16.4a1.71,1.71,0,0,1,1.71,1.71v19.66H12.71A1.71,1.71,0,0,1,11,28.934V6.71A1.71,1.71,0,0,1,12.71,5Z" transform="translate(-4.162 -5)" fill="#f57c00"/>
        <path id="Trazado_908285" data-name="Trazado 908285" d="M46.035,17H15.222a1.71,1.71,0,0,0-1.669,1.337L10.42,32.386H43.366a1.71,1.71,0,0,0,1.669-1.337L47.7,19.082A1.71,1.71,0,0,0,46.035,17Z" transform="translate(-4.077 -6.742)" fill="#ffa000"/>
        <path id="Trazado_908286" data-name="Trazado 908286" d="M16.71,13h23.08a1.71,1.71,0,0,1,1.71,1.71v2.564H15V14.71A1.71,1.71,0,0,1,16.71,13Z" transform="translate(-4.742 -6.162)" fill="#e0e0e0"/>
      </g>
      <g id="line" transform="translate(2 4)">
        <path id="Trazado_908287" data-name="Trazado 908287" d="M29.354,38.192a1.71,1.71,0,1,1-1.71-1.71A1.71,1.71,0,0,1,29.354,38.192Zm21.37-27.354H43.885a2.572,2.572,0,0,0-2.564-2.564h-16.4a.88.88,0,0,1-.573-.214L20.523,4.65A2.566,2.566,0,0,0,18.814,4H11.4A2.572,2.572,0,0,0,8.838,6.564v4.274H4.564A2.467,2.467,0,0,0,2,13.189V40.115a2.467,2.467,0,0,0,2.564,2.351H22.68L20.3,46.74h-.352a2.564,2.564,0,0,0,0,5.129H35.337a2.564,2.564,0,0,0,0-5.129h-.352l-2.377-4.274H50.723a2.467,2.467,0,0,0,2.564-2.351V13.189A2.467,2.467,0,0,0,50.723,10.838ZM10.548,6.564A.857.857,0,0,1,11.4,5.71h7.411a.863.863,0,0,1,.573.214l3.829,3.411a2.566,2.566,0,0,0,1.71.65h16.4a.857.857,0,0,1,.855.855v3.419h-1.71V13.4A2.564,2.564,0,0,0,37.9,10.838H14.822A2.564,2.564,0,0,0,12.258,13.4v1.543a2.558,2.558,0,0,0-.761,1.321l-.949,4.248ZM13.967,13.4a.855.855,0,0,1,.855-.855H37.9a.855.855,0,0,1,.855.855v.855H14C13.922,14.331,13.988,13.4,13.967,13.4ZM10.548,28.379l2.616-11.745A.859.859,0,0,1,14,15.967H44.808a.858.858,0,0,1,.838,1.043L42.979,28.977a.863.863,0,0,1-.8.667H11.4c-.685.009-.937-.681-.855-1.265ZM4.564,12.548H8.838V28.789A2.572,2.572,0,0,0,11.4,31.354H42.141a2.551,2.551,0,0,0,2.5-2.009l2.667-11.967a2.577,2.577,0,0,0-2.5-3.12h-.923v-1.71h6.838c.463,0,.855.294.855.641V33.918H3.71V13.189c0-.347.391-.641.855-.641ZM36.192,49.3a.855.855,0,0,1-.855.855H19.951a.855.855,0,0,1,0-1.71H35.337A.855.855,0,0,1,36.192,49.3ZM33.029,46.74H22.259l2.377-4.274h6.015Zm17.694-5.984H4.564c-.463,0-.855-.294-.855-.641V35.627H51.578v4.488C51.578,40.462,51.187,40.756,50.723,40.756Z" transform="translate(-2 -4)"/>
      </g>
    </g>
  </g>
</svg>
