<svg xmlns="http://www.w3.org/2000/svg" xmlns:xlink="http://www.w3.org/1999/xlink" width="93.722" height="93.723" viewBox="0 0 93.722 93.723">
  <defs>
    <filter id="Trazado_874925" x="0" y="0" width="93.722" height="93.723" filterUnits="userSpaceOnUse">
      <feOffset dy="3" input="SourceAlpha"/>
      <feGaussianBlur stdDeviation="3" result="blur"/>
      <feFlood flood-opacity="0.161"/>
      <feComposite operator="in" in2="blur"/>
      <feComposite in="SourceGraphic"/>
    </filter>
  </defs>
  <g id="Grupo_1114882" data-name="Grupo 1114882" transform="translate(-306.051 -8425)">
    <g id="Grupo_1113068" data-name="Grupo 1113068" transform="translate(315.051 8431)">
      <g id="Grupo_1109835" data-name="Grupo 1109835" transform="translate(0 0)">
        <g id="Grupo_1107913" data-name="Grupo 1107913" transform="translate(0 0)">
          <g transform="matrix(1, 0, 0, 1, -9, -6)" filter="url(#Trazado_874925)">
            <g id="Trazado_874925-2" data-name="Trazado 874925" transform="translate(9 6)" fill="#e2dacc" opacity="0.859">
              <path d="M 37.86101913452148 74.2225341796875 C 32.95165252685547 74.2225341796875 28.1899299621582 73.26136779785156 23.7081298828125 71.36572265625 C 19.37846374511719 69.534423828125 15.48970794677734 66.91244506835938 12.1498966217041 63.57263565063477 C 8.810074806213379 60.23281097412109 6.188107967376709 56.34405517578125 4.356808185577393 52.01438903808594 C 2.461163520812988 47.53257751464844 1.499996900558472 42.77085494995117 1.499996900558472 37.86148834228516 C 1.499996900558472 32.95167922973633 2.461163520812988 28.18995666503906 4.356808185577393 23.70814514160156 C 6.188107967376709 19.37847900390625 8.810074806213379 15.48972225189209 12.1498966217041 12.14990043640137 C 15.48970794677734 8.810089111328125 19.37846374511719 6.188111305236816 23.7081298828125 4.3568115234375 C 28.1899299621582 2.461167097091675 32.95165252685547 1.500000476837158 37.86101913452148 1.500000476837158 C 42.7703857421875 1.500000476837158 47.53210830688477 2.461167097091675 52.01390838623047 4.3568115234375 C 56.34357452392578 6.188111305236816 60.23233032226562 8.810089111328125 63.57213973999023 12.14990043640137 C 66.91196441650391 15.48972225189209 69.53392791748047 19.37847900390625 71.36522674560547 23.70814514160156 C 73.26087188720703 28.18995666503906 74.22203826904297 32.95167922973633 74.22203826904297 37.86104583740234 C 74.22203826904297 42.77085494995117 73.26087188720703 47.53257751464844 71.36522674560547 52.01438903808594 C 69.53392791748047 56.34405517578125 66.91196441650391 60.23281097412109 63.57213973999023 63.57263565063477 C 60.23233032226562 66.91244506835938 56.34357452392578 69.534423828125 52.01390838623047 71.36572265625 C 47.53210830688477 73.26136779785156 42.7703857421875 74.2225341796875 37.86101913452148 74.2225341796875 Z" stroke="none"/>
              <path d="M 37.86101913452148 3.000007629394531 C 33.15349578857422 3.000007629394531 28.5883674621582 3.921302795410156 24.29245758056641 5.738327026367188 C 20.14159393310547 7.493995666503906 16.41309356689453 10.00801849365234 13.21055603027344 13.21056747436523 C 10.00800323486328 16.41310501098633 7.493980407714844 20.14160537719727 5.738319396972656 24.29246520996094 C 3.921295166015625 28.58837890625 2.999992370605469 33.15350341796875 2.999992370605469 37.86148071289062 C 2.999992370605469 42.56901550292969 3.921295166015625 47.13414001464844 5.738319396972656 51.4300537109375 C 7.493980407714844 55.58092880249023 10.00800323486328 59.30941772460938 13.21055603027344 62.51196670532227 C 16.41309356689453 65.71451568603516 20.14159393310547 68.22854614257812 24.29245758056641 69.98420715332031 C 28.5883674621582 71.80123138427734 33.15349578857422 72.72252655029297 37.86101913452148 72.72252655029297 C 42.56854248046875 72.72252655029297 47.1336669921875 71.80123138427734 51.42958068847656 69.98420715332031 C 55.5804443359375 68.22854614257812 59.30892944335938 65.71451568603516 62.51148223876953 62.51196670532227 C 65.71401977539062 59.30941772460938 68.22804260253906 55.58092880249023 69.98370361328125 51.4300537109375 C 71.80073547363281 47.13414001464844 72.72203063964844 42.56901550292969 72.72203063964844 37.86104202270508 C 72.72203063964844 33.15350341796875 71.80073547363281 28.58837890625 69.98370361328125 24.29246520996094 C 68.22804260253906 20.14160537719727 65.71401977539062 16.41310501098633 62.51148223876953 13.21056747436523 C 59.30892944335938 10.00801849365234 55.5804443359375 7.493995666503906 51.42958068847656 5.738327026367188 C 47.1336669921875 3.921302795410156 42.56854248046875 3.000007629394531 37.86101913452148 3.000007629394531 M 37.86101913452148 7.62939453125e-06 C 58.77108001708984 7.62939453125e-06 75.72203063964844 16.95096588134766 75.72203063964844 37.86104202270508 L 75.72203063964844 37.86148071289062 C 75.72203063964844 58.77156829833984 58.77108001708984 75.72252655029297 37.86101913452148 75.72252655029297 C 16.95095825195312 75.72252655029297 -7.62939453125e-06 58.77156829833984 -7.62939453125e-06 37.86148071289062 L -7.62939453125e-06 37.86104202270508 C -7.62939453125e-06 16.95096588134766 16.95095825195312 7.62939453125e-06 37.86101913452148 7.62939453125e-06 Z" stroke="none" fill="#fff"/>
            </g>
          </g>
          <g id="Trazado_874923" data-name="Trazado 874923" transform="translate(0 0)" fill="none">
            <path d="M37.861,0A37.861,37.861,0,0,1,75.722,37.861h0A37.861,37.861,0,1,1,0,37.861H0A37.861,37.861,0,0,1,37.861,0Z" stroke="none"/>
            <path d="M 37.86101913452148 3.000007629394531 C 33.15349578857422 3.000007629394531 28.5883674621582 3.921302795410156 24.29245758056641 5.738327026367188 C 20.14159393310547 7.493995666503906 16.41309356689453 10.00801849365234 13.21055603027344 13.21056747436523 C 10.00800323486328 16.41310501098633 7.493980407714844 20.14160537719727 5.738319396972656 24.29246520996094 C 3.921295166015625 28.58837890625 2.999992370605469 33.15350341796875 2.999992370605469 37.86148071289062 C 2.999992370605469 42.56901550292969 3.921295166015625 47.13414001464844 5.738319396972656 51.4300537109375 C 7.493980407714844 55.58092880249023 10.00800323486328 59.30941772460938 13.21055603027344 62.51196670532227 C 16.41309356689453 65.71451568603516 20.14159393310547 68.22854614257812 24.29245758056641 69.98420715332031 C 28.5883674621582 71.80123138427734 33.15349578857422 72.72252655029297 37.86101913452148 72.72252655029297 C 42.56854248046875 72.72252655029297 47.1336669921875 71.80123138427734 51.42958068847656 69.98420715332031 C 55.5804443359375 68.22854614257812 59.30892944335938 65.71451568603516 62.51148223876953 62.51196670532227 C 65.71401977539062 59.30941772460938 68.22804260253906 55.58092880249023 69.98370361328125 51.4300537109375 C 71.80073547363281 47.13414001464844 72.72203063964844 42.56901550292969 72.72203063964844 37.86104202270508 C 72.72203063964844 33.15350341796875 71.80073547363281 28.58837890625 69.98370361328125 24.29246520996094 C 68.22804260253906 20.14160537719727 65.71401977539062 16.41310501098633 62.51148223876953 13.21056747436523 C 59.30892944335938 10.00801849365234 55.5804443359375 7.493995666503906 51.42958068847656 5.738327026367188 C 47.1336669921875 3.921302795410156 42.56854248046875 3.000007629394531 37.86101913452148 3.000007629394531 M 37.86101913452148 7.62939453125e-06 C 58.77108001708984 7.62939453125e-06 75.72203063964844 16.95096588134766 75.72203063964844 37.86104202270508 L 75.72203063964844 37.86148071289062 C 75.72203063964844 58.77156829833984 58.77108001708984 75.72252655029297 37.86101913452148 75.72252655029297 C 16.95095825195312 75.72252655029297 -7.62939453125e-06 58.77156829833984 -7.62939453125e-06 37.86148071289062 L -7.62939453125e-06 37.86104202270508 C -7.62939453125e-06 16.95096588134766 16.95095825195312 7.62939453125e-06 37.86101913452148 7.62939453125e-06 Z" stroke="none" fill="#fff"/>
          </g>
        </g>
      </g>
    </g>
    <g id="Grupo_1114881" data-name="Grupo 1114881" transform="translate(327.051 8442.525)">
      <g id="Grupo_1114878" data-name="Grupo 1114878" transform="translate(0.763 1.238)">
        <path id="Trazado_908212" data-name="Trazado 908212" d="M116.71,52.132H84.5a1.487,1.487,0,0,1-1.487-1.487V9.464A1.487,1.487,0,0,1,84.5,7.977H116.71A1.487,1.487,0,0,1,118.2,9.464V50.646A1.487,1.487,0,0,1,116.71,52.132Z" transform="translate(-75.331 -7.977)" fill="#f2fbff"/>
        <path id="Trazado_908213" data-name="Trazado 908213" d="M388.9,9.462V50.643a1.487,1.487,0,0,1-1.487,1.487H384.36a1.487,1.487,0,0,0,1.487-1.487V9.462a1.487,1.487,0,0,0-1.487-1.487h3.052A1.487,1.487,0,0,1,388.9,9.462Z" transform="translate(-346.033 -7.975)" fill="#dff6fd"/>
        <g id="Grupo_1114873" data-name="Grupo 1114873" transform="translate(13.206 7.015)">
          <path id="Trazado_908214" data-name="Trazado 908214" d="M206.872,90.453a1.576,1.576,0,0,1-1.576-1.576V78.526a1.576,1.576,0,1,1,3.152,0V88.877A1.576,1.576,0,0,1,206.872,90.453Z" transform="translate(-198.386 -76.95)" fill="#8ac9fe"/>
          <path id="Trazado_908215" data-name="Trazado 908215" d="M276.05,148.7a1.576,1.576,0,0,1-1.576-1.576v-3.756a1.576,1.576,0,1,1,3.152,0v3.756A1.576,1.576,0,0,1,276.05,148.7Z" transform="translate(-260.529 -135.201)" fill="#978ecb"/>
          <path id="Trazado_908216" data-name="Trazado 908216" d="M138.928,117.888a1.576,1.576,0,0,1-1.576-1.576v-7.245a1.576,1.576,0,0,1,3.152,0v7.245A1.576,1.576,0,0,1,138.928,117.888Z" transform="translate(-137.352 -104.385)" fill="#fe76a8"/>
          <path id="Trazado_908217" data-name="Trazado 908217" d="M345.228,117.888a1.576,1.576,0,0,1-1.576-1.576v-7.245a1.576,1.576,0,1,1,3.152,0v7.245A1.576,1.576,0,0,1,345.228,117.888Z" transform="translate(-322.671 -104.385)" fill="#97da7b"/>
        </g>
        <path id="Trazado_908218" data-name="Trazado 908218" d="M56.438,365.885H9.107a1.607,1.607,0,1,1,0-3.214H56.438a1.607,1.607,0,0,1,0,3.214Z" transform="translate(-7.5 -326.598)" fill="#e19974"/>
        <path id="Trazado_908219" data-name="Trazado 908219" d="M193.679,394h3.532a2.447,2.447,0,0,1,2.312,1.648l2.706,7.831a1.29,1.29,0,0,1-1.219,1.711H189.88a1.29,1.29,0,0,1-1.219-1.711l2.706-7.831A2.446,2.446,0,0,1,193.679,394Z" transform="translate(-170.173 -354.743)" fill="#dc8758"/>
        <g id="Grupo_1114874" data-name="Grupo 1114874" transform="translate(1.083 22.915)">
          <circle id="Elipse_12841" data-name="Elipse 12841" cx="6.596" cy="6.596" r="6.596" fill="#ffe177"/>
        </g>
        <g id="Grupo_1114875" data-name="Grupo 1114875" transform="translate(36.27 22.915)">
          <circle id="Elipse_12842" data-name="Elipse 12842" cx="6.596" cy="6.596" r="6.596" fill="#ffe177"/>
        </g>
        <path id="Trazado_908220" data-name="Trazado 908220" d="M246.758,394.031h-3.052a2.432,2.432,0,0,0-.356-.026H246.4A2.408,2.408,0,0,1,246.758,394.031Z" transform="translate(-219.364 -354.746)" fill="#dc8758"/>
        <path id="Trazado_908221" data-name="Trazado 908221" d="M463.349,364.272a1.608,1.608,0,0,1-1.607,1.607H458.69a1.607,1.607,0,0,0,0-3.214h3.052A1.607,1.607,0,0,1,463.349,364.272Z" transform="translate(-412.804 -326.593)" fill="#dc8758"/>
        <path id="Trazado_908222" data-name="Trazado 908222" d="M250.2,405.194h-3.053a1.29,1.29,0,0,0,1.219-1.712l-2.705-7.83a2.452,2.452,0,0,0-2.313-1.648H246.4a2.408,2.408,0,0,1,.355.026,2.444,2.444,0,0,1,1.957,1.621l2.706,7.83A1.291,1.291,0,0,1,250.2,405.194Z" transform="translate(-219.364 -354.746)" fill="#d77f4a"/>
        <g id="Grupo_1114876" data-name="Grupo 1114876" transform="translate(5.797 22.915)">
          <path id="Trazado_908223" data-name="Trazado 908223" d="M72.979,239.891a6.6,6.6,0,0,1-8.479,6.324,6.6,6.6,0,0,0,0-12.647,6.6,6.6,0,0,1,8.479,6.324Z" transform="translate(-64.5 -233.295)" fill="#ffd15b"/>
        </g>
        <g id="Grupo_1114877" data-name="Grupo 1114877" transform="translate(40.983 22.915)">
          <path id="Trazado_908224" data-name="Trazado 908224" d="M418.959,239.891a6.6,6.6,0,0,1-8.479,6.324,6.6,6.6,0,0,0,0-12.647,6.6,6.6,0,0,1,8.479,6.324Z" transform="translate(-410.48 -233.295)" fill="#ffd15b"/>
        </g>
        <path id="Trazado_908225" data-name="Trazado 908225" d="M246.758,394.031h-3.052a2.432,2.432,0,0,0-.356-.026H246.4A2.408,2.408,0,0,1,246.758,394.031Z" transform="translate(-219.364 -354.746)" fill="#dc8758"/>
      </g>
      <g id="Grupo_1114880" data-name="Grupo 1114880" transform="translate(0 0.475)">
        <path id="Trazado_908226" data-name="Trazado 908226" d="M204.178,264.832a.763.763,0,0,0-.763-.763H191.709a.763.763,0,1,0,0,1.526h11.706A.763.763,0,0,0,204.178,264.832Z" transform="translate(-171.527 -237.261)"/>
        <path id="Trazado_908227" data-name="Trazado 908227" d="M225.439,291.172a.763.763,0,1,0,0,1.526h4.846a.763.763,0,1,0,0-1.526Z" transform="translate(-201.826 -261.608)"/>
        <path id="Trazado_908228" data-name="Trazado 908228" d="M197.795,71.789V82.14a2.339,2.339,0,0,0,4.678,0V71.789a2.339,2.339,0,0,0-4.678,0Zm1.526,0a.813.813,0,0,1,1.627,0V82.14a.813.813,0,0,1-1.627,0Z" transform="translate(-177.679 -62.435)"/>
        <path id="Trazado_908229" data-name="Trazado 908229" d="M266.974,136.635v3.756a2.339,2.339,0,1,0,4.678,0v-3.756a2.339,2.339,0,1,0-4.678,0Zm3.152,0v3.756a.813.813,0,1,1-1.627,0v-3.756a.813.813,0,1,1,1.627,0Z" transform="translate(-239.823 -120.686)"/>
        <path id="Trazado_908230" data-name="Trazado 908230" d="M132.191,111.915a2.342,2.342,0,0,0,2.339-2.339v-7.245a2.339,2.339,0,0,0-4.678,0v7.245A2.342,2.342,0,0,0,132.191,111.915Zm-.814-9.584a.813.813,0,0,1,1.627,0v7.245a.813.813,0,0,1-1.627,0Z" transform="translate(-116.646 -89.871)"/>
        <path id="Trazado_908231" data-name="Trazado 908231" d="M338.49,111.915a2.341,2.341,0,0,0,2.339-2.339v-7.245a2.339,2.339,0,1,0-4.678,0v7.245A2.342,2.342,0,0,0,338.49,111.915Zm-.813-9.584a.813.813,0,1,1,1.627,0v7.245a.813.813,0,1,1-1.627,0Z" transform="translate(-301.964 -89.871)"/>
        <path id="Trazado_908232" data-name="Trazado 908232" d="M49.7,36.548h-1.55a7.359,7.359,0,1,0-9.045,0H12.965A7.354,7.354,0,0,0,9.2,23.43V2.725A.725.725,0,0,1,9.929,2H42.142a.725.725,0,0,1,.724.724V20.558a.763.763,0,0,0,1.526,0V2.725a2.252,2.252,0,0,0-2.25-2.25H9.929a2.252,2.252,0,0,0-2.25,2.25V23.43A7.354,7.354,0,0,0,3.92,36.548H2.37a2.37,2.37,0,1,0,0,4.739h5.31v2.619a2.252,2.252,0,0,0,2.25,2.25h9.835l-1.234,3.57a2.053,2.053,0,0,0,1.94,2.723H31.6a2.053,2.053,0,0,0,1.94-2.723l-1.234-3.57h9.835a2.252,2.252,0,0,0,2.25-2.25V41.287H49.7a2.37,2.37,0,0,0,0-4.739ZM37.8,30.749a5.833,5.833,0,1,1,6.464,5.8H43A5.841,5.841,0,0,1,37.8,30.749Zm-35.186,0a5.833,5.833,0,1,1,6.464,5.8H7.811a5.841,5.841,0,0,1-5.2-5.8ZM32.029,50.7a.521.521,0,0,1-.429.221H20.471a.527.527,0,0,1-.5-.7l2.706-7.831a1.684,1.684,0,0,1,1.3-1.107H28.1a1.684,1.684,0,0,1,1.3,1.107L32.1,50.224A.521.521,0,0,1,32.029,50.7Zm10.836-6.8a.725.725,0,0,1-.724.724H31.78L30.835,41.9a3.2,3.2,0,0,0-.287-.608H42.866ZM49.7,39.761H16.023a.763.763,0,0,0,0,1.526h5.5a3.2,3.2,0,0,0-.287.608l-.945,2.735H9.929a.725.725,0,0,1-.724-.724v-2.62h3.247a.763.763,0,1,0,0-1.526H2.37a.844.844,0,0,1,0-1.688H49.7a.844.844,0,1,1,0,1.688Z" transform="translate(0 -0.475)"/>
        <path id="Trazado_908233" data-name="Trazado 908233" d="M63.854,263.691v-.141a2.323,2.323,0,0,0,1.492-1.783,2.059,2.059,0,0,0-1.4-2.331,5.369,5.369,0,0,1-1.342-.619.308.308,0,0,1-.036-.256.448.448,0,0,1,.287-.355.931.931,0,0,1,.859.127l.037.031a.757.757,0,1,0,.948-1.179,2.4,2.4,0,0,0-.847-.457v-.046a.784.784,0,0,0-.739-.794.763.763,0,0,0-.786.762v.124a1.962,1.962,0,0,0-1.257,1.5,1.767,1.767,0,0,0,.594,1.739,6.433,6.433,0,0,0,1.775.857.535.535,0,0,1,.4.64.761.761,0,0,1-.756.642,1.384,1.384,0,0,1-1.005-.25.786.786,0,0,0-1.066.181.763.763,0,0,0,.206,1.078,2.8,2.8,0,0,0,1.108.468v.089a.763.763,0,0,0,.786.762A.784.784,0,0,0,63.854,263.691Z" transform="translate(-54.684 -229.914)"/>
        <path id="Trazado_908234" data-name="Trazado 908234" d="M409.831,263.69v-.141a2.323,2.323,0,0,0,1.492-1.783,2.059,2.059,0,0,0-1.4-2.331,5.36,5.36,0,0,1-1.342-.619.308.308,0,0,1-.036-.256.448.448,0,0,1,.287-.355.931.931,0,0,1,.859.127l.044.037a.756.756,0,1,0,.951-1.176,2.406,2.406,0,0,0-.857-.466v-.046a.784.784,0,0,0-.739-.794.763.763,0,0,0-.786.762v.124a1.962,1.962,0,0,0-1.257,1.5,1.767,1.767,0,0,0,.594,1.739,6.436,6.436,0,0,0,1.775.857.535.535,0,0,1,.4.64.762.762,0,0,1-.756.642,1.385,1.385,0,0,1-1.005-.25.785.785,0,0,0-1.066.181.763.763,0,0,0,.206,1.078,2.8,2.8,0,0,0,1.108.468v.089a.763.763,0,0,0,.786.762.784.784,0,0,0,.739-.794Z" transform="translate(-365.475 -229.912)"/>
        <g id="Grupo_1114879" data-name="Grupo 1114879" transform="translate(12.539 3.372)">
          <circle id="Elipse_12843" data-name="Elipse 12843" cx="0.763" cy="0.763" r="0.763"/>
          <circle id="Elipse_12844" data-name="Elipse 12844" cx="0.763" cy="0.763" r="0.763" transform="translate(4.244)"/>
          <circle id="Elipse_12845" data-name="Elipse 12845" cx="0.763" cy="0.763" r="0.763" transform="translate(8.488)"/>
          <circle id="Elipse_12846" data-name="Elipse 12846" cx="0.763" cy="0.763" r="0.763" transform="translate(12.732)"/>
          <circle id="Elipse_12847" data-name="Elipse 12847" cx="0.763" cy="0.763" r="0.763" transform="translate(16.976)"/>
          <circle id="Elipse_12848" data-name="Elipse 12848" cx="0.763" cy="0.763" r="0.763" transform="translate(21.22)"/>
          <circle id="Elipse_12849" data-name="Elipse 12849" cx="0.763" cy="0.763" r="0.763" transform="translate(25.464)"/>
        </g>
      </g>
    </g>
  </g>
</svg>
