<svg xmlns="http://www.w3.org/2000/svg" xmlns:xlink="http://www.w3.org/1999/xlink" width="295" height="529.069" viewBox="0 0 295 529.069">
  <defs>
    <clipPath id="clip-path">
      <rect id="Rectángulo_406562" data-name="Rectángulo 406562" width="95.184" height="83.655" fill="#fd9826"/>
    </clipPath>
    <clipPath id="clip-path-4">
      <rect id="Rectángulo_406563" data-name="Rectángulo 406563" width="27.753" height="27.754" transform="translate(0 0)" fill="#fd9826"/>
    </clipPath>
    <clipPath id="clip-path-5">
      <rect id="Rectángulo_406561" data-name="Rectángulo 406561" width="279.909" height="375.069" fill="none"/>
    </clipPath>
    <clipPath id="clip-path-7">
      <rect id="Rectángulo_406535" data-name="Rectángulo 406535" width="39.538" height="337.991" fill="none"/>
    </clipPath>
    <clipPath id="clip-path-9">
      <rect id="Rectángulo_406539" data-name="Rectángulo 406539" width="38.411" height="6.497" fill="none"/>
    </clipPath>
    <clipPath id="clip-path-10">
      <rect id="Rectángulo_406541" data-name="Rectángulo 406541" width="82.245" height="63.905" fill="none"/>
    </clipPath>
    <clipPath id="clip-path-11">
      <rect id="Rectángulo_406542" data-name="Rectángulo 406542" width="59.562" height="46.569" fill="none"/>
    </clipPath>
    <clipPath id="clip-path-12">
      <rect id="Rectángulo_406545" data-name="Rectángulo 406545" width="59.853" height="51.599" fill="none"/>
    </clipPath>
    <clipPath id="clip-path-13">
      <rect id="Rectángulo_406548" data-name="Rectángulo 406548" width="43.776" height="6.496" fill="none"/>
    </clipPath>
    <clipPath id="clip-path-14">
      <rect id="Rectángulo_406550" data-name="Rectángulo 406550" width="39.916" height="6.497" fill="none"/>
    </clipPath>
    <clipPath id="clip-path-17">
      <rect id="Rectángulo_406554" data-name="Rectángulo 406554" width="7.631" height="27.456" fill="none"/>
    </clipPath>
    <clipPath id="clip-path-18">
      <rect id="Rectángulo_406555" data-name="Rectángulo 406555" width="39.465" height="25.525" fill="none"/>
    </clipPath>
    <clipPath id="clip-path-19">
      <rect id="Rectángulo_406556" data-name="Rectángulo 406556" width="45.124" height="4.6" fill="none"/>
    </clipPath>
    <clipPath id="clip-path-20">
      <rect id="Rectángulo_406557" data-name="Rectángulo 406557" width="50.359" height="24.111" fill="none"/>
    </clipPath>
    <clipPath id="clip-path-21">
      <rect id="Rectángulo_406558" data-name="Rectángulo 406558" width="27.832" height="31.705" fill="none"/>
    </clipPath>
    <clipPath id="clip-path-22">
      <rect id="Rectángulo_406559" data-name="Rectángulo 406559" width="29.642" height="9.991" fill="none"/>
    </clipPath>
  </defs>
  <g id="Grupo_1114551" data-name="Grupo 1114551" transform="translate(-180.051 -1636)">
    <rect id="Rectángulo_405786" data-name="Rectángulo 405786" width="279.229" height="418.568" rx="8" transform="translate(195.822 1636)" fill="#412976"/>
    <g id="Grupo_1114546" data-name="Grupo 1114546" transform="translate(336.59 1743.34)">
      <g id="Grupo_1114545" data-name="Grupo 1114545" transform="translate(0 0)" clip-path="url(#clip-path)">
        <path id="Trazado_907061" data-name="Trazado 907061" d="M60.722,16.412,43.06,12.106,42.2,8.772a6.274,6.274,0,0,0-4.647-4.429L20.275.172a5.554,5.554,0,0,0-6.826,3.869l-.486,2.015L.161,59.064a6.31,6.31,0,0,0,4.895,7.45L75.218,83.459a6.309,6.309,0,0,0,7.755-4.4L95.067,28.987A4.16,4.16,0,0,0,92,23.966Z" transform="translate(0 0.001)" fill="#fd9826"/>
      </g>
    </g>
    <g id="Grupo_1114548" data-name="Grupo 1114548" transform="translate(207.961 1697.505) rotate(-22)">
      <g id="Grupo_1114545-2" data-name="Grupo 1114545" transform="translate(0 0)" clip-path="url(#clip-path)">
        <path id="Trazado_907061-2" data-name="Trazado 907061" d="M60.722,16.412,43.06,12.106,42.2,8.772a6.274,6.274,0,0,0-4.647-4.429L20.275.172a5.554,5.554,0,0,0-6.826,3.869l-.486,2.015L.161,59.064a6.31,6.31,0,0,0,4.895,7.45L75.218,83.459a6.309,6.309,0,0,0,7.755-4.4L95.067,28.987A4.16,4.16,0,0,0,92,23.966Z" transform="translate(0 0.001)" fill="#fd9826"/>
      </g>
    </g>
    <g id="Grupo_1114547" data-name="Grupo 1114547" transform="matrix(0.848, -0.53, 0.53, 0.848, 195.822, 1814.895)">
      <g id="Grupo_1114545-3" data-name="Grupo 1114545" transform="translate(0 0)" clip-path="url(#clip-path)">
        <path id="Trazado_907061-3" data-name="Trazado 907061" d="M60.722,16.412,43.06,12.106,42.2,8.772a6.274,6.274,0,0,0-4.647-4.429L20.275.172a5.554,5.554,0,0,0-6.826,3.869l-.486,2.015L.161,59.064a6.31,6.31,0,0,0,4.895,7.45L75.218,83.459a6.309,6.309,0,0,0,7.755-4.4L95.067,28.987A4.16,4.16,0,0,0,92,23.966Z" transform="translate(0 0.001)" fill="#fd9826"/>
      </g>
    </g>
    <g id="Grupo_1114550" data-name="Grupo 1114550" transform="translate(339.037 1690.704)">
      <g id="Grupo_1114549" data-name="Grupo 1114549" clip-path="url(#clip-path-4)">
        <path id="Trazado_907062" data-name="Trazado 907062" d="M9.178,3.516a11.345,11.345,0,0,1,2.882-.869L12.944,0l4.594.46.343,2.769a11.329,11.329,0,0,1,2.653,1.422l2.5-1.245,2.924,3.573-1.716,2.2a11.281,11.281,0,0,1,.869,2.882l2.646.884-.459,4.594-2.77.343A11.255,11.255,0,0,1,23.1,20.535l1.246,2.5-3.573,2.923-2.2-1.715a11.279,11.279,0,0,1-2.882.868l-.884,2.647-4.594-.46-.343-2.769A11.3,11.3,0,0,1,7.22,23.1l-2.5,1.246L1.8,20.775l1.715-2.2a11.3,11.3,0,0,1-.868-2.882L0,14.809l.459-4.593,2.77-.343A11.329,11.329,0,0,1,4.651,7.22L3.4,4.724,6.979,1.8Zm1.725,6.4a4.953,4.953,0,1,0,6.969.7,4.953,4.953,0,0,0-6.969-.7" fill="#fd9826"/>
      </g>
    </g>
    <g id="Grupo_1114544" data-name="Grupo 1114544" transform="translate(180.051 1790)">
      <g id="Grupo_1114543" data-name="Grupo 1114543" clip-path="url(#clip-path-5)">
        <rect id="Rectángulo_406533" data-name="Rectángulo 406533" width="144.625" height="337.991" transform="translate(0 37.077)" fill="#455a64"/>
        <g id="Grupo_1114499" data-name="Grupo 1114499">
          <g id="Grupo_1114498" data-name="Grupo 1114498" clip-path="url(#clip-path-5)">
            <g id="Grupo_1114497" data-name="Grupo 1114497" transform="translate(0 37.077)" opacity="0.3">
              <g id="Grupo_1114496" data-name="Grupo 1114496">
                <g id="Grupo_1114495" data-name="Grupo 1114495" clip-path="url(#clip-path-7)">
                  <rect id="Rectángulo_406534" data-name="Rectángulo 406534" width="39.538" height="337.991"/>
                </g>
              </g>
            </g>
          </g>
        </g>
        <path id="Trazado_906963" data-name="Trazado 906963" d="M83.221,53.7l-.015-2.7-1.312,2.2h-.64l-1.3-2.129V53.7H78.615V48.6H79.8L81.6,51.54,83.345,48.6h1.189l.014,5.1Z" transform="translate(-3.803 -2.351)" fill="#fff"/>
        <path id="Trazado_906964" data-name="Trazado 906964" d="M88.62,51.868V53.7H87.177V51.846L85.231,48.6h1.524l1.21,2.026,1.21-2.026h1.4Z" transform="translate(-4.123 -2.351)" fill="#fff"/>
        <path id="Trazado_906965" data-name="Trazado 906965" d="M94.9,49.711v1.123h2.252v1.115H94.9V53.7H93.455V48.6h4v1.115Z" transform="translate(-4.521 -2.351)" fill="#fff"/>
        <rect id="Rectángulo_406537" data-name="Rectángulo 406537" width="1.444" height="5.103" transform="translate(93.613 46.244)" fill="#fff"/>
        <path id="Trazado_906966" data-name="Trazado 906966" d="M100.968,48.6h1.444v3.958h2.434V53.7h-3.878Z" transform="translate(-4.884 -2.351)" fill="#fff"/>
        <path id="Trazado_906967" data-name="Trazado 906967" d="M109.737,52.583V53.7h-4.1V48.6h4v1.115h-2.573v.86h2.268V51.65h-2.268v.933Z" transform="translate(-5.11 -2.351)" fill="#fff"/>
        <g id="Grupo_1114522" data-name="Grupo 1114522">
          <g id="Grupo_1114521" data-name="Grupo 1114521" clip-path="url(#clip-path-5)">
            <path id="Trazado_906968" data-name="Trazado 906968" d="M110.41,53.234l.474-1.065a3.211,3.211,0,0,0,1.684.5c.6,0,.831-.167.831-.415,0-.81-2.9-.219-2.9-2.115,0-.912.744-1.655,2.26-1.655a3.822,3.822,0,0,1,1.851.444L114.164,50a3.022,3.022,0,0,0-1.414-.393c-.605,0-.824.2-.824.459,0,.78,2.894.2,2.894,2.077,0,.89-.743,1.648-2.259,1.648a4.024,4.024,0,0,1-2.151-.561" transform="translate(-5.341 -2.346)" fill="#fff"/>
            <path id="Trazado_906969" data-name="Trazado 906969" d="M141.709,130.108s-.014-.425-.022-1.231-.012-2.007-.023-3.557c-.011-3.122-.029-7.688-.051-13.524-.025-11.669-.061-28.405-.1-48.736l.2.2-94.344.047h-.008l.247-.247c-.009,24-.016,46.779-.023,67.049l-.225-.226,68.016.111,19.387.061,5.156.027,1.332.013c.3,0,.46.013.46.013s-.142.009-.434.013l-1.308.013-5.11.027-19.337.061-68.163.111h-.226v-.226c-.007-20.27-.014-43.046-.023-67.049v-.248h.256l94.344.048h.2v.2c-.044,20.383-.08,37.162-.1,48.86-.023,5.817-.04,10.368-.051,13.48-.01,1.534-.018,2.711-.023,3.519-.008.793-.022,1.19-.022,1.19" transform="translate(-2.279 -3.039)" fill="#263238"/>
            <g id="Grupo_1114502" data-name="Grupo 1114502" transform="translate(73.936 101.236)" opacity="0.3">
              <g id="Grupo_1114501" data-name="Grupo 1114501">
                <g id="Grupo_1114500" data-name="Grupo 1114500" clip-path="url(#clip-path-9)">
                  <rect id="Rectángulo_406538" data-name="Rectángulo 406538" width="38.41" height="6.497" transform="translate(0.001)"/>
                </g>
              </g>
            </g>
            <path id="Trazado_906970" data-name="Trazado 906970" d="M109.5,94.8H89.709a2.372,2.372,0,0,1-2.372-2.372V78.366A2.372,2.372,0,0,1,89.709,76H109.5a2.372,2.372,0,0,1,2.372,2.371V92.428A2.372,2.372,0,0,1,109.5,94.8" transform="translate(-4.225 -3.676)" fill="#fff"/>
            <path id="Trazado_906971" data-name="Trazado 906971" d="M110.364,92.364a6.216,6.216,0,0,1-.885-.924c-.6-.7-1.361-1.583-2.272-2.639q-.721-.854-1.548-1.837c-.139-.164-.278-.33-.421-.5a.45.45,0,0,0-.417-.139c-.16.024-.249.14-.425.34l-.48.536-1,1.11a1.074,1.074,0,0,1-.8.469.9.9,0,0,1-.506-.14.982.982,0,0,1-.2-.174l-.129-.148-2.14-2.476q-.547-.637-1.083-1.258l-.529-.617a.419.419,0,0,0-.462-.145.411.411,0,0,0-.2.139l-.239.306-.472.609-.916,1.178c-1.184,1.507-2.26,2.877-3.188,4.06l-2.183,2.71a6.441,6.441,0,0,1-.855.953,6.286,6.286,0,0,1,.7-1.071L91.77,89.9l3.105-4.124c.293-.387.6-.783.9-1.188.155-.2.309-.406.466-.613l.24-.313a.907.907,0,0,1,1.415-.015l.533.615q.535.62,1.084,1.256L101.647,88c.29.412.623.4.922-.008l1.009-1.1.488-.529a1.176,1.176,0,0,1,.679-.467.877.877,0,0,1,.811.286c.144.175.283.348.421.518.534.668,1.036,1.294,1.5,1.876l2.15,2.739a6.266,6.266,0,0,1,.737,1.047" transform="translate(-4.306 -4.03)" fill="#263238"/>
            <path id="Trazado_906972" data-name="Trazado 906972" d="M104.68,81.56c-.04,0-.056-.181-.157-.473a2.043,2.043,0,0,0-.753-1,1.871,1.871,0,0,0-1.739-.218,1.812,1.812,0,0,0,0,3.39,1.873,1.873,0,0,0,1.74-.218,2.046,2.046,0,0,0,.752-1c.1-.292.117-.474.157-.473s.08.183.03.52a2.023,2.023,0,0,1-.726,1.236,2.194,2.194,0,0,1-2.107.368,2.249,2.249,0,0,1,0-4.248,2.194,2.194,0,0,1,2.107.368,2.028,2.028,0,0,1,.726,1.236c.05.337,0,.521-.03.52" transform="translate(-4.855 -3.837)" fill="#263238"/>
            <g id="Grupo_1114505" data-name="Grupo 1114505" transform="translate(43.979 132.112)" opacity="0.4">
              <g id="Grupo_1114504" data-name="Grupo 1114504">
                <g id="Grupo_1114503" data-name="Grupo 1114503" clip-path="url(#clip-path-10)">
                  <rect id="Rectángulo_406540" data-name="Rectángulo 406540" width="82.244" height="63.905" transform="translate(0)"/>
                </g>
              </g>
            </g>
            <path id="Trazado_906973" data-name="Trazado 906973" d="M94.726,141.217H79.1l-.918-1.57a3.434,3.434,0,0,0-2.964-1.7H63.683a3.433,3.433,0,0,0-3.43,3.271h-4.1a3.215,3.215,0,0,0-3.216,3.216V152.4H97.942v-7.969a3.216,3.216,0,0,0-3.216-3.216" transform="translate(-2.561 -6.673)" fill="#e0e0e0"/>
            <path id="Trazado_906974" data-name="Trazado 906974" d="M103.4,141.217H87.771l-.918-1.57a3.434,3.434,0,0,0-2.964-1.7H72.357a3.435,3.435,0,0,0-3.431,3.271h-4.1a3.215,3.215,0,0,0-3.215,3.216V152.4h45.009v-7.969a3.216,3.216,0,0,0-3.216-3.216" transform="translate(-2.98 -6.673)" fill="#ebebeb"/>
            <path id="Trazado_906975" data-name="Trazado 906975" d="M114.672,141.217H99.043l-.918-1.57a3.434,3.434,0,0,0-2.964-1.7H83.629a3.435,3.435,0,0,0-3.431,3.271h-4.1a3.215,3.215,0,0,0-3.215,3.216V152.4h45.009v-7.969a3.216,3.216,0,0,0-3.216-3.216" transform="translate(-3.526 -6.673)" fill="#f5f5f5"/>
            <path id="Trazado_906976" data-name="Trazado 906976" d="M78.688,182.7V144.386a3.319,3.319,0,0,1,3.454-3.166h3.3a3.486,3.486,0,0,0,3.136-1.839l.71-1.408a3.485,3.485,0,0,1,3.137-1.839H108.1a3.526,3.526,0,0,1,2.974,1.555l.77,1.194a3.527,3.527,0,0,0,2.974,1.555H134.8a3.32,3.32,0,0,1,3.454,3.166v39.1Z" transform="translate(-3.807 -6.585)" fill="#ff725e"/>
            <g id="Grupo_1114508" data-name="Grupo 1114508" transform="translate(74.881 129.547)" opacity="0.3">
              <g id="Grupo_1114507" data-name="Grupo 1114507">
                <g id="Grupo_1114506" data-name="Grupo 1114506" clip-path="url(#clip-path-11)">
                  <path id="Trazado_906977" data-name="Trazado 906977" d="M78.688,182.7V144.386a3.319,3.319,0,0,1,3.454-3.166h3.3a3.486,3.486,0,0,0,3.136-1.839l.71-1.408a3.485,3.485,0,0,1,3.137-1.839H108.1a3.526,3.526,0,0,1,2.974,1.555l.77,1.194a3.527,3.527,0,0,0,2.974,1.555H134.8a3.32,3.32,0,0,1,3.454,3.166v39.1Z" transform="translate(-78.688 -136.132)"/>
                </g>
              </g>
            </g>
            <path id="Trazado_906978" data-name="Trazado 906978" d="M91.84,150.5V120.227a4.517,4.517,0,0,1,4.516-4.516h48.206a4.517,4.517,0,0,1,4.516,4.516v29.438Z" transform="translate(-4.443 -5.598)" fill="#fff"/>
            <path id="Trazado_906979" data-name="Trazado 906979" d="M93.822,159.183V120.868a3.319,3.319,0,0,1,3.454-3.166h3.3a3.486,3.486,0,0,0,3.136-1.839l.71-1.409a3.486,3.486,0,0,1,3.137-1.839h15.672a3.526,3.526,0,0,1,2.974,1.555l.77,1.194a3.527,3.527,0,0,0,2.974,1.555H149.93a3.32,3.32,0,0,1,3.454,3.166v39.1Z" transform="translate(-4.539 -5.448)" fill="#ff725e"/>
            <path id="Trazado_906980" data-name="Trazado 906980" d="M93.812,159.171a2.684,2.684,0,0,1,.3-.013l.846-.013,3.263-.027,12.248-.061,42.91-.111-.226.226c0-6.411-.01-13.218-.016-20.322q0-5.327,0-10.865,0-2.765,0-5.575V121a10.636,10.636,0,0,0-.041-1.368,2.9,2.9,0,0,0-1.488-2.043,3.387,3.387,0,0,0-1.155-.393,9.425,9.425,0,0,0-1.276-.043h-7.8l-10.128,0H130a4.07,4.07,0,0,1-1.292-.2,3.666,3.666,0,0,1-2.016-1.584l-.66-1.026a3.039,3.039,0,0,0-.757-.827,3.433,3.433,0,0,0-2.108-.677l-9.372-.008-4.517-.006c-.73.013-1.511-.031-2.185.028a3.39,3.39,0,0,0-1.836.837c-1,.866-1.111,2.617-2.424,3.488a3.821,3.821,0,0,1-2.056.714l-2.063,0a19.644,19.644,0,0,0-1.984.04,3.327,3.327,0,0,0-1.683.755,2.914,2.914,0,0,0-.958,1.514,9.75,9.75,0,0,0-.085,1.85q-.01,3.764-.018,7.218c-.04,9.2-.072,16.654-.1,21.827-.018,2.575-.031,4.581-.042,5.965-.008.671-.013,1.19-.018,1.562-.006.354-.018.544-.018.544s-.012-.167-.018-.509q-.007-.544-.018-1.528c-.01-1.374-.024-3.365-.042-5.92-.023-5.186-.055-12.658-.1-21.883q-.009-3.473-.018-7.268a9.831,9.831,0,0,1,.088-1.951,3.3,3.3,0,0,1,1.079-1.723,3.727,3.727,0,0,1,1.88-.853,19.5,19.5,0,0,1,2.045-.051l2.041-.01a3.407,3.407,0,0,0,1.829-.64c1.162-.737,1.209-2.359,2.377-3.466a3.83,3.83,0,0,1,2.074-.954c.788-.069,1.486-.02,2.242-.036l4.517,0,9.372-.009a3.9,3.9,0,0,1,2.394.769,3.516,3.516,0,0,1,.874.949l.661,1.024a3.17,3.17,0,0,0,1.762,1.386,3.55,3.55,0,0,0,1.143.172h1.242l10.128,0h7.8a9.622,9.622,0,0,1,1.349.048,3.871,3.871,0,0,1,1.325.451,3.4,3.4,0,0,1,1.735,2.394,10.8,10.8,0,0,1,.047,1.449v1.407q0,2.808,0,5.575,0,5.53,0,10.865c-.006,7.1-.011,13.911-.016,20.322v.226h-.226l-43.057-.112-12.2-.06L94.9,159.2l-.82-.013a1.91,1.91,0,0,1-.269-.013" transform="translate(-4.529 -5.436)" fill="#263238"/>
            <path id="Trazado_906981" data-name="Trazado 906981" d="M121.8,116.234a40.613,40.613,0,0,1-6.327.247,40.613,40.613,0,0,1-6.327-.247,40.612,40.612,0,0,1,6.327-.247,40.612,40.612,0,0,1,6.327.247" transform="translate(-5.28 -5.611)" fill="#fff"/>
            <path id="Trazado_906982" data-name="Trazado 906982" d="M113.306,176.1V137.786c0-1.749,1.748-3.166,3.9-3.166h3.732a4.046,4.046,0,0,0,3.545-1.839l.8-1.408a4.044,4.044,0,0,1,3.545-1.839h17.714a4.153,4.153,0,0,1,3.361,1.555l.87,1.194a4.153,4.153,0,0,0,3.361,1.555h22.58c2.156,0,3.9,1.418,3.9,3.166v39.1Z" transform="translate(-5.481 -6.266)" fill="#ff725e"/>
            <path id="Trazado_906983" data-name="Trazado 906983" d="M113.3,176.089s.118-.01.335-.013l.962-.013,3.71-.029,13.9-.062,48.41-.111-.228.228c0-6.486-.01-13.293-.014-20.349q0-5.292,0-10.76,0-2.732,0-5.5c-.008-.911.017-1.878-.016-2.75a2.838,2.838,0,0,0-1.412-2.043,4.5,4.5,0,0,0-2.578-.611h-8.371l-10.875,0H154.45a5.009,5.009,0,0,1-2.659-.6,3.879,3.879,0,0,1-1.074-.878c-.288-.368-.521-.708-.783-1.061a3.616,3.616,0,0,0-1.869-1.505,6.359,6.359,0,0,0-2.444-.27l-2.53,0-4.973,0-9.561,0a4.246,4.246,0,0,0-2.07.66,3.229,3.229,0,0,0-.791.716,8.928,8.928,0,0,0-.574.94c-.192.33-.359.645-.571.984a3.475,3.475,0,0,1-.809.858,4.514,4.514,0,0,1-2.117.858c-1.508.1-2.9.023-4.319.043a3.944,3.944,0,0,0-3.412,1.621,2.9,2.9,0,0,0-.41,1.819q0,.991,0,1.959-.006,1.938-.01,3.79c-.04,9.881-.073,17.882-.1,23.433-.018,2.765-.032,4.92-.042,6.4-.009.723-.014,1.279-.019,1.675-.006.38-.018.583-.018.583s-.012-.18-.018-.547c0-.389-.01-.934-.019-1.643-.01-1.472-.024-3.612-.042-6.359-.022-5.567-.055-13.592-.1-23.5q0-1.864-.009-3.816,0-.975,0-1.972a3.3,3.3,0,0,1,.462-2.028,4.33,4.33,0,0,1,3.735-1.812c1.391-.023,2.867.041,4.262-.053a4.1,4.1,0,0,0,1.92-.782,4.84,4.84,0,0,0,1.266-1.721,9.237,9.237,0,0,1,.605-.993,3.661,3.661,0,0,1,.892-.813,4.673,4.673,0,0,1,2.281-.736l9.586-.019,4.973,0,2.53,0a6.816,6.816,0,0,1,2.606.3,4.1,4.1,0,0,1,2.092,1.669c.254.342.516.718.764,1.034a3.387,3.387,0,0,0,.943.767,4.521,4.521,0,0,0,2.424.531h2.662l10.875,0h8.371a4.994,4.994,0,0,1,2.839.684,3.333,3.333,0,0,1,1.643,2.409c.039.984.01,1.871.019,2.806q0,2.771,0,5.5,0,5.464,0,10.76c-.006,7.055-.01,13.862-.014,20.349v.229h-.229l-48.561-.111-13.846-.062-3.664-.028-.936-.014a2.294,2.294,0,0,1-.308-.013" transform="translate(-5.471 -6.254)" fill="#263238"/>
            <path id="Trazado_906984" data-name="Trazado 906984" d="M146.575,133.7a70.711,70.711,0,0,1-8.358.247,70.7,70.7,0,0,1-8.358-.247,70.7,70.7,0,0,1,8.358-.247,70.711,70.711,0,0,1,8.358.247" transform="translate(-6.282 -6.456)" fill="#fff"/>
            <rect id="Rectángulo_406543" data-name="Rectángulo 406543" width="59.853" height="51.599" transform="translate(43.978 144.89)" fill="#455a64"/>
            <g id="Grupo_1114511" data-name="Grupo 1114511" transform="translate(43.979 144.89)" opacity="0.3">
              <g id="Grupo_1114510" data-name="Grupo 1114510">
                <g id="Grupo_1114509" data-name="Grupo 1114509" clip-path="url(#clip-path-12)">
                  <rect id="Rectángulo_406544" data-name="Rectángulo 406544" width="59.853" height="51.599" transform="translate(0)"/>
                </g>
              </g>
            </g>
            <rect id="Rectángulo_406546" data-name="Rectángulo 406546" width="94.352" height="67.049" transform="translate(103.833 131.273)" fill="#455a64"/>
            <path id="Trazado_906985" data-name="Trazado 906985" d="M203.45,204.983s-.014-.425-.022-1.231-.012-2.007-.023-3.557c-.011-3.122-.029-7.688-.051-13.524-.025-11.669-.061-28.405-.1-48.736l.2.2-94.345.047H109.1l.247-.247c-.009,24-.016,46.779-.023,67.049l-.225-.226,68.015.112,19.388.06,5.156.027,1.332.013c.3,0,.46.013.46.013s-.142.009-.434.013l-1.308.013-5.11.027-19.337.061-68.163.111h-.226v-.226c-.008-20.27-.014-43.046-.023-67.049v-.248h.255l94.345.048h.2v.2c-.044,20.383-.08,37.162-.1,48.86-.023,5.817-.04,10.368-.051,13.48-.01,1.534-.018,2.711-.023,3.519-.008.793-.022,1.19-.022,1.19" transform="translate(-5.266 -6.661)" fill="#263238"/>
            <g id="Grupo_1114514" data-name="Grupo 1114514" transform="translate(134.216 175.443)" opacity="0.3">
              <g id="Grupo_1114513" data-name="Grupo 1114513">
                <g id="Grupo_1114512" data-name="Grupo 1114512" clip-path="url(#clip-path-13)">
                  <rect id="Rectángulo_406547" data-name="Rectángulo 406547" width="43.776" height="6.497" transform="translate(0 -0.001)"/>
                </g>
              </g>
            </g>
            <path id="Trazado_906986" data-name="Trazado 906986" d="M171.807,176.734H152.013a2.372,2.372,0,0,1-2.372-2.372V160.3a2.372,2.372,0,0,1,2.372-2.371h19.794a2.372,2.372,0,0,1,2.372,2.371v14.061a2.372,2.372,0,0,1-2.372,2.372" transform="translate(-7.239 -7.64)" fill="#fff"/>
            <path id="Trazado_906987" data-name="Trazado 906987" d="M155.109,163.784h5.02l.009,1.682H159.9a1.527,1.527,0,0,0-.676-1.221,2.075,2.075,0,0,0-.936-.191v4.392a.849.849,0,0,0,.161.611,1.032,1.032,0,0,0,.67.151v.211h-2.972v-.211a.98.98,0,0,0,.649-.153.847.847,0,0,0,.161-.609v-4.392a2.128,2.128,0,0,0-.936.191,1.416,1.416,0,0,0-.676,1.221h-.24Z" transform="translate(-7.503 -7.923)" fill="#263238"/>
            <path id="Trazado_906988" data-name="Trazado 906988" d="M169.793,164.236a15.846,15.846,0,0,1-3.936.247,15.84,15.84,0,0,1-3.936-.247,15.843,15.843,0,0,1,3.936-.247,15.849,15.849,0,0,1,3.936.247" transform="translate(-7.833 -7.933)" fill="#263238"/>
            <path id="Trazado_906989" data-name="Trazado 906989" d="M169.959,167.934a15.849,15.849,0,0,1-3.936.247,15.843,15.843,0,0,1-3.936-.247,15.84,15.84,0,0,1,3.936-.247,15.846,15.846,0,0,1,3.936.247" transform="translate(-7.841 -8.112)" fill="#263238"/>
            <path id="Trazado_906990" data-name="Trazado 906990" d="M170.714,171.633a54.527,54.527,0,0,1-7.336.247,54.515,54.515,0,0,1-7.336-.247,54.512,54.512,0,0,1,7.336-.247,54.524,54.524,0,0,1,7.336.247" transform="translate(-7.549 -8.291)" fill="#263238"/>
            <path id="Trazado_906991" data-name="Trazado 906991" d="M141.709,283.455s-.014-.425-.022-1.231-.012-2.007-.023-3.557c-.011-3.122-.029-7.688-.051-13.525-.025-11.669-.061-28.405-.1-48.736l.2.2-94.344.047h-.008l.247-.247c-.009,24-.016,46.779-.023,67.049l-.225-.226,68.016.112,19.387.06,5.156.027,1.332.013c.3,0,.46.013.46.013s-.142.009-.434.013l-1.308.013-5.11.027-19.337.061-68.163.111h-.226v-.226c-.007-20.27-.014-43.046-.023-67.049v-.248h.256l94.344.048h.2v.2c-.044,20.383-.08,37.162-.1,48.86-.023,5.817-.04,10.368-.051,13.48-.01,1.534-.018,2.711-.023,3.519-.008.793-.022,1.19-.022,1.19" transform="translate(-2.279 -10.457)" fill="#263238"/>
            <g id="Grupo_1114517" data-name="Grupo 1114517" transform="translate(73.936 247.165)" opacity="0.3">
              <g id="Grupo_1114516" data-name="Grupo 1114516">
                <g id="Grupo_1114515" data-name="Grupo 1114515" clip-path="url(#clip-path-14)">
                  <rect id="Rectángulo_406549" data-name="Rectángulo 406549" width="39.915" height="6.497" transform="translate(0.001)"/>
                </g>
              </g>
            </g>
            <path id="Trazado_906992" data-name="Trazado 906992" d="M108.661,251.987H88.867a2.372,2.372,0,0,1-2.372-2.372V235.553a2.372,2.372,0,0,1,2.372-2.371h19.794a2.372,2.372,0,0,1,2.372,2.371v14.061a2.372,2.372,0,0,1-2.372,2.372" transform="translate(-4.184 -11.28)" fill="#fff"/>
            <path id="Trazado_906993" data-name="Trazado 906993" d="M97.454,245.9a1.449,1.449,0,1,1-.62-1.953,1.448,1.448,0,0,1,.62,1.953" transform="translate(-4.582 -11.793)" fill="#263238"/>
            <path id="Trazado_906994" data-name="Trazado 906994" d="M97.606,245.118a8.217,8.217,0,0,1-.479-3.351,13.8,13.8,0,0,1,.164-3.369,9.822,9.822,0,0,1,.339,3.359,19.161,19.161,0,0,1-.024,3.36" transform="translate(-4.698 -11.533)" fill="#263238"/>
            <path id="Trazado_906995" data-name="Trazado 906995" d="M101.912,239.252a4.021,4.021,0,0,1-4.22-.1c-.391-.3-.5-.605-.444-.634.064-.046.252.152.636.334a4.591,4.591,0,0,0,1.594.423c1.308.129,2.391-.174,2.434-.022" transform="translate(-4.704 -11.538)" fill="#263238"/>
            <path id="Trazado_906996" data-name="Trazado 906996" d="M102.3,246.8a1.449,1.449,0,1,1-.62-1.953,1.448,1.448,0,0,1,.62,1.953" transform="translate(-4.817 -11.836)" fill="#263238"/>
            <path id="Trazado_906997" data-name="Trazado 906997" d="M102.457,246.009a8.217,8.217,0,0,1-.479-3.351,13.8,13.8,0,0,1,.164-3.369,9.822,9.822,0,0,1,.339,3.359,19.163,19.163,0,0,1-.024,3.36" transform="translate(-4.933 -11.576)" fill="#263238"/>
            <path id="Trazado_906998" data-name="Trazado 906998" d="M101.978,240.315a3.78,3.78,0,0,1-4.511-.242c.07-.129,1.008.311,2.242.366,1.232.077,2.213-.261,2.269-.125" transform="translate(-4.715 -11.612)" fill="#263238"/>
            <path id="Trazado_906999" data-name="Trazado 906999" d="M141.709,360.139s-.014-.425-.022-1.231-.012-2.007-.023-3.557c-.011-3.123-.029-7.688-.051-13.525-.025-11.669-.061-28.405-.1-48.736l.2.2-94.344.047h-.008l.247-.247c-.009,24-.016,46.779-.023,67.049l-.225-.226,68.016.112,19.387.06,5.156.027,1.332.013c.3,0,.46.013.46.013s-.142.009-.434.013l-1.308.013-5.11.027-19.337.061-68.163.111h-.226v-.226c-.007-20.27-.014-43.046-.023-67.049v-.248h.256l94.344.048h.2v.2c-.044,20.383-.08,37.162-.1,48.86-.023,5.817-.04,10.368-.051,13.48-.01,1.534-.018,2.711-.023,3.519-.008.793-.022,1.19-.022,1.19" transform="translate(-2.279 -14.166)" fill="#263238"/>
            <g id="Grupo_1114520" data-name="Grupo 1114520" transform="translate(73.936 320.139)" opacity="0.3">
              <g id="Grupo_1114519" data-name="Grupo 1114519">
                <g id="Grupo_1114518" data-name="Grupo 1114518" clip-path="url(#clip-path-14)">
                  <rect id="Rectángulo_406551" data-name="Rectángulo 406551" width="39.915" height="6.497" transform="translate(0.001 -0.001)"/>
                </g>
              </g>
            </g>
            <path id="Trazado_907000" data-name="Trazado 907000" d="M108.661,328.413H88.867a2.372,2.372,0,0,1-2.372-2.372V311.98a2.372,2.372,0,0,1,2.372-2.372h19.794a2.372,2.372,0,0,1,2.372,2.372v14.06a2.372,2.372,0,0,1-2.372,2.372" transform="translate(-4.184 -14.977)" fill="#fff"/>
            <path id="Trazado_907001" data-name="Trazado 907001" d="M100.63,317.259l1.938,1.126a.566.566,0,0,1,.011.973l-1.944,1.192-1.894,1.161a.566.566,0,0,1-.862-.482l0-2.281,0-2.3a.566.566,0,0,1,.851-.491Z" transform="translate(-4.735 -15.29)" fill="#263238"/>
          </g>
        </g>
        <g id="Grupo_1114542" data-name="Grupo 1114542">
          <g id="Grupo_1114541" data-name="Grupo 1114541" clip-path="url(#clip-path-5)">
            <path id="Trazado_907002" data-name="Trazado 907002" d="M287.692,90.609c-1.426-25.485-12.81-37.337-16.149-57.256-1.678-10-1.251-20.237-8.341-27.482C260.648,3.26,255.892.578,252.27.123a14.511,14.511,0,0,0-6.865.68c-3.356-.5-4.867-.66-7.229,0-2.8.782-6.678,2.935-8.518,5.181-5.053,6.167-6.1,14.651-6.175,22.624a132.654,132.654,0,0,0,5.32,38.124,5.379,5.379,0,0,0,1.774,3.127,5.312,5.312,0,0,0,3.842.394A76.337,76.337,0,0,0,248.8,66.5a4.774,4.774,0,0,0,1.824-1.006c1.288-1.312.745-3.479.156-5.222L263.7,49.23c-.859,7.682-3.331,15.1-4.425,22.753a64.377,64.377,0,0,0,2.036,27.42,41.8,41.8,0,0,1,15.231-.343c1.218.2,3.183,9.777,4.259,9.177,1.855-1.033,7.011-15.51,6.894-17.63" transform="translate(-10.811 0)" fill="#263238"/>
            <path id="Trazado_907003" data-name="Trazado 907003" d="M242.075,6.577l3.665-.408,13.993,5.639a3.907,3.907,0,0,1,3.688,3.782L263.3,61.182a12.783,12.783,0,0,1-2.469,8.233l-1.966,2.6a10.32,10.32,0,0,1-17.245-1.09,4.91,4.91,0,0,1-.495-1.179,9.215,9.215,0,0,1-.208-1.019,32.71,32.71,0,0,1-.441-6.849c-.249-4.027-.331-5.68-.332-5.642,0,0-8.57-.985-10.888-11.987-1.152-5.471-1.328-14.528-1.233-21.943.087-6.674,5.813-15.736,14.054-15.726" transform="translate(-11.03 -0.298)" fill="#ffbe9d"/>
            <path id="Trazado_907004" data-name="Trazado 907004" d="M230.816,32.161a1.425,1.425,0,0,0,1.444,1.367,1.363,1.363,0,0,0,1.4-1.356A1.423,1.423,0,0,0,232.22,30.8a1.362,1.362,0,0,0-1.4,1.356" transform="translate(-11.166 -1.49)" fill="#263238"/>
            <path id="Trazado_907005" data-name="Trazado 907005" d="M245.774,31.226a1.425,1.425,0,0,0,1.444,1.367,1.363,1.363,0,0,0,1.4-1.356,1.425,1.425,0,0,0-1.442-1.367,1.362,1.362,0,0,0-1.4,1.356" transform="translate(-11.889 -1.445)" fill="#263238"/>
            <path id="Trazado_907006" data-name="Trazado 907006" d="M230.259,27.848c.186.177,1.223-.675,2.754-.748,1.527-.094,2.69.637,2.847.442.077-.088-.12-.413-.626-.745a3.911,3.911,0,0,0-2.291-.582,3.75,3.75,0,0,0-2.18.827c-.453.384-.6.728-.5.807" transform="translate(-11.138 -1.268)" fill="#263238"/>
            <path id="Trazado_907007" data-name="Trazado 907007" d="M245.518,27.015c.191.171,1.2-.71,2.732-.827,1.524-.139,2.707.558,2.858.358.075-.089-.128-.409-.647-.726a3.91,3.91,0,0,0-2.307-.516,3.757,3.757,0,0,0-2.155.89c-.44.4-.573.745-.481.821" transform="translate(-11.876 -1.223)" fill="#263238"/>
            <path id="Trazado_907008" data-name="Trazado 907008" d="M240.761,38.995a10.143,10.143,0,0,0-2.508-.324c-.392-.021-.766-.08-.846-.344a1.992,1.992,0,0,1,.2-1.171l1.006-3.034c1.393-4.318,2.38-7.859,2.206-7.914s-1.445,3.4-2.838,7.718q-.5,1.6-.956,3.049a2.269,2.269,0,0,0-.127,1.544.984.984,0,0,0,.672.539,2.657,2.657,0,0,0,.668.059,9.953,9.953,0,0,0,2.52-.123" transform="translate(-11.455 -1.268)" fill="#263238"/>
            <path id="Trazado_907009" data-name="Trazado 907009" d="M240.8,58.493a28.254,28.254,0,0,0,14.653-4.706s-3.349,7.864-14.5,7.383Z" transform="translate(-11.649 -2.602)" fill="#eb996e"/>
            <path id="Trazado_907010" data-name="Trazado 907010" d="M241.829,43.428a2.762,2.762,0,0,1,2.421-1.149,2.525,2.525,0,0,1,1.785.846,1.6,1.6,0,0,1,.213,1.818,1.852,1.852,0,0,1-1.981.608,5.819,5.819,0,0,1-2.015-1.069,1.7,1.7,0,0,1-.46-.431.512.512,0,0,1-.027-.57" transform="translate(-11.692 -2.045)" fill="#eb996e"/>
            <path id="Trazado_907011" data-name="Trazado 907011" d="M245.512,40.521c-.249,0-.169,1.66-1.532,2.91s-3.14,1.156-3.141,1.388c-.018.106.41.3,1.158.286a4.15,4.15,0,0,0,2.627-1.066,3.6,3.6,0,0,0,1.178-2.434c.029-.7-.177-1.1-.29-1.085" transform="translate(-11.651 -1.96)" fill="#263238"/>
            <path id="Trazado_907012" data-name="Trazado 907012" d="M245.516,21.17c.229.373,1.5-.143,3.107-.311,1.6-.206,2.976,0,3.094-.414.049-.2-.263-.523-.864-.792a4.831,4.831,0,0,0-2.449-.333,4.638,4.638,0,0,0-2.274.886c-.507.4-.716.786-.613.964" transform="translate(-11.876 -0.933)" fill="#263238"/>
            <path id="Trazado_907013" data-name="Trazado 907013" d="M229.91,21.747c.286.334,1.323-.079,2.589-.16,1.265-.126,2.353.116,2.582-.26.1-.183-.087-.521-.572-.828a3.759,3.759,0,0,0-4.167.339c-.43.38-.56.745-.432.909" transform="translate(-11.12 -0.969)" fill="#263238"/>
            <path id="Trazado_907014" data-name="Trazado 907014" d="M262.943,35.553c-.039-.826.817-2.821,1.627-2.989,2.16-.448,6.1-.47,6.409,5.059.428,7.559-7.249,6.43-7.274,6.214-.02-.168-.626-5.432-.762-8.284" transform="translate(-12.72 -1.567)" fill="#ffbe9d"/>
            <path id="Trazado_907015" data-name="Trazado 907015" d="M266,40.964c.031-.026.136.085.364.174a1.318,1.318,0,0,0,.985-.036c.783-.338,1.383-1.643,1.342-3.008a4.33,4.33,0,0,0-.476-1.865,1.518,1.518,0,0,0-1.047-.954.672.672,0,0,0-.758.4c-.089.217-.032.365-.071.381-.02.02-.168-.117-.127-.433a.854.854,0,0,1,.27-.491,1,1,0,0,1,.718-.233A1.851,1.851,0,0,1,268.642,36a4.476,4.476,0,0,1,.577,2.081c.037,1.525-.66,3-1.735,3.374a1.417,1.417,0,0,1-1.217-.132c-.244-.173-.293-.34-.267-.355" transform="translate(-12.868 -1.688)" fill="#eb996e"/>
            <path id="Trazado_907016" data-name="Trazado 907016" d="M265.169,22.81c.526-3.009-.6-7.24-1.386-10.182a11.064,11.064,0,0,0-4.531-5.942,18.43,18.43,0,0,0-11.4-3.448l-1.511.5c-2.235-.181-4.626.289-5.855,2.095l-.048.052V3.809c-4.065.5-7.62,3.2-9.98,6.547a35.088,35.088,0,0,0-4.735,11.272c5-4.477,10.411-9.414,14.579-14.685,4.369,5.739,10.833,9.381,16.734,13.657a21.931,21.931,0,0,1,1.3,8.68c-.033,7.418,1.574,14.128,2.154,21.542.333,4.268.3,7.923,4.672,7.551.571-13.679-2.351-22.113,0-35.562" transform="translate(-10.919 -0.156)" fill="#263238"/>
            <path id="Trazado_907017" data-name="Trazado 907017" d="M271.671,23.088a7.014,7.014,0,0,1-2.1.378,20.452,20.452,0,0,1-5.141-.2,23.6,23.6,0,0,1-4.94-1.425,7.546,7.546,0,0,1-1.9-.955c.064-.168,3.023,1.217,6.923,1.892a44.232,44.232,0,0,0,7.154.313" transform="translate(-12.461 -1.01)" fill="#455a64"/>
            <path id="Trazado_907018" data-name="Trazado 907018" d="M269.747,18.356a5.622,5.622,0,0,1-1.209-.075c-.776-.074-1.891-.239-3.26-.494a55.7,55.7,0,0,1-10.434-3.078,55.586,55.586,0,0,1-9.631-5.06c-1.161-.771-2.075-1.429-2.684-1.917a5.612,5.612,0,0,1-.919-.788,5.638,5.638,0,0,1,1.032.631c.64.438,1.583,1.05,2.76,1.778a65.3,65.3,0,0,0,9.63,4.9,65.324,65.324,0,0,0,10.318,3.194c1.352.3,2.454.515,3.218.646a5.649,5.649,0,0,1,1.18.266" transform="translate(-11.688 -0.336)" fill="#455a64"/>
            <path id="Trazado_907019" data-name="Trazado 907019" d="M227.775,19.859a7.386,7.386,0,0,1-1.741,2.032,7.37,7.37,0,0,1-2.085,1.677,7.377,7.377,0,0,1,1.741-2.033,7.377,7.377,0,0,1,2.085-1.676" transform="translate(-10.833 -0.96)" fill="#455a64"/>
            <path id="Trazado_907020" data-name="Trazado 907020" d="M236.845,72.214c.841-1.472.2-7.507.2-7.507l-1.954,3.532c-4.145,1.611-9.838,3.9-11.439,5.026C221.262,74.941,218.032,82,218.032,82l-19.937,25.3-37.408-6.544-3.52,18.757,12.626,2.615L191.979,125c6.231,1.343,12.3,1.842,17.182-2.254l.335-.643c-1.762,25.217.664,53.02,1.494,78.284a13.586,13.586,0,0,0,1.053,5.782c1.269,2.494,5.99,3.8,8.765,3.438s1.9-2.141,2.486-4.877c.322-1.494-1.074-3.568-1.262-5.085q-4.077-32.918-8.153-65.836c-.09-1.352-.182-2.606-.273-3.721-.957-11.6-1.1-14.737-.586-20.048.794-8.221,18.13-27.862,23.825-37.828" transform="translate(-7.603 -3.13)" fill="#ff725e"/>
            <path id="Trazado_907021" data-name="Trazado 907021" d="M218.553,89.821a6.228,6.228,0,0,1-.569,1.139c-.4.71-.946,1.759-1.578,3.07A51.879,51.879,0,0,0,211.26,116c-.017,1.456.006,2.637.049,3.452a6.311,6.311,0,0,1,0,1.272,6.235,6.235,0,0,1-.2-1.258A34.539,34.539,0,0,1,210.91,116a46.921,46.921,0,0,1,5.183-22.124,34.492,34.492,0,0,1,1.725-3.012,6.34,6.34,0,0,1,.735-1.041" transform="translate(-10.202 -4.345)" fill="#263238"/>
            <g id="Grupo_1114525" data-name="Grupo 1114525" transform="translate(198.077 89.846)" opacity="0.3">
              <g id="Grupo_1114524" data-name="Grupo 1114524">
                <g id="Grupo_1114523" data-name="Grupo 1114523" clip-path="url(#clip-path-17)">
                  <path id="Trazado_907022" data-name="Trazado 907022" d="M215.777,94.413c-2.918,4.215-5.614,8.746-6.9,13.728s-.473,7.812-.589,13.052l3,.676c-.669-9.386-.353-15.583,4.483-27.456" transform="translate(-208.146 -94.413)"/>
                </g>
              </g>
            </g>
            <path id="Trazado_907023" data-name="Trazado 907023" d="M215.013,106.884a1.813,1.813,0,0,1,.038-.492c.052-.318.086-.8.23-1.4a38.621,38.621,0,0,1,1.525-4.977,146.742,146.742,0,0,1,7.1-15.6c.876-1.695,1.743-3.335,2.6-4.891l.067-.122.139,0,3.15-.061-.206.326a3.154,3.154,0,0,0-1.224-1.386l-.222-.134.166-.2a74.087,74.087,0,0,1,6.759-7.092c.878-.8,1.592-1.415,2.087-1.823a5.137,5.137,0,0,1,.788-.594,5.33,5.33,0,0,1-.695.7l-2,1.91a87.512,87.512,0,0,0-6.6,7.184l-.056-.332a3.591,3.591,0,0,1,1.415,1.575l.147.318-.351.01-3.149.081.206-.125c-.844,1.553-1.707,3.195-2.582,4.886-3.057,5.941-5.632,11.423-7.214,15.5a47.312,47.312,0,0,0-1.665,4.9c-.294,1.183-.411,1.852-.456,1.846" transform="translate(-10.401 -3.31)" fill="#263238"/>
            <path id="Trazado_907024" data-name="Trazado 907024" d="M254.764,346.336l12.269,19.75s-15.954,19.1-14.042,22.975l39.149-22.414L274.285,335.09Z" transform="translate(-12.231 -16.21)" fill="#ff725e"/>
            <path id="Trazado_907025" data-name="Trazado 907025" d="M279.389,358.593a1.842,1.842,0,0,1,2.15,1.191,1.771,1.771,0,0,1-1.162,2.141,1.943,1.943,0,0,1-2.271-1.273,1.838,1.838,0,0,1,1.456-2.094" transform="translate(-13.452 -17.345)" fill="#e0e0e0"/>
            <g id="Grupo_1114528" data-name="Grupo 1114528" transform="translate(240.444 347.326)" opacity="0.6">
              <g id="Grupo_1114527" data-name="Grupo 1114527">
                <g id="Grupo_1114526" data-name="Grupo 1114526" clip-path="url(#clip-path-18)">
                  <path id="Trazado_907026" data-name="Trazado 907026" d="M292.132,368.093l-1.924-3.111-36.816,22.653s-1.308,1.757-.408,2.872Z" transform="translate(-252.667 -364.983)" fill="#fff"/>
                </g>
              </g>
            </g>
            <path id="Trazado_907027" data-name="Trazado 907027" d="M266.967,367.785c.116.187,1.121-.273,2.413-.2,1.3.043,2.254.593,2.387.417.155-.138-.784-1.118-2.351-1.183s-2.59.812-2.449.963" transform="translate(-12.914 -17.745)" fill="#263238"/>
            <path id="Trazado_907028" data-name="Trazado 907028" d="M263.675,372.067c.062.21,1.076.062,2.189.5,1.125.4,1.789,1.184,1.975,1.067.2-.072-.311-1.269-1.705-1.784s-2.558.034-2.458.219" transform="translate(-12.755 -17.978)" fill="#263238"/>
            <path id="Trazado_907029" data-name="Trazado 907029" d="M264.009,378.528c.2-.059-.084-1.166-1.174-1.932s-2.223-.671-2.212-.465c-.018.219.884.448,1.77,1.091.9.621,1.416,1.4,1.617,1.307" transform="translate(-12.608 -18.188)" fill="#263238"/>
            <path id="Trazado_907030" data-name="Trazado 907030" d="M264.553,362.661c.18.128.906-.638,2.029-1.183,1.111-.568,2.159-.686,2.166-.908.03-.2-1.2-.439-2.508.222s-1.866,1.773-1.686,1.869" transform="translate(-12.796 -17.432)" fill="#263238"/>
            <path id="Trazado_907031" data-name="Trazado 907031" d="M255.532,355.407l1.323,23.213s-23.151,9.141-23.324,13.455l45.1-.949-.578-36.254Z" transform="translate(-11.297 -17.167)" fill="#ff725e"/>
            <path id="Trazado_907032" data-name="Trazado 907032" d="M272.542,377.462a1.842,1.842,0,0,1,1.318,2.076,1.771,1.771,0,0,1-2.046,1.324,1.943,1.943,0,0,1-1.384-2.2,1.837,1.837,0,0,1,2.28-1.141" transform="translate(-13.079 -18.257)" fill="#e0e0e0"/>
            <g id="Grupo_1114531" data-name="Grupo 1114531" transform="translate(222.21 370.307)" opacity="0.6">
              <g id="Grupo_1114530" data-name="Grupo 1114530">
                <g id="Grupo_1114529" data-name="Grupo 1114529" clip-path="url(#clip-path-19)">
                  <path id="Trazado_907033" data-name="Trazado 907033" d="M278.63,392.783l-.2-3.652-43.167,2.275s-1.99.915-1.733,2.326Z" transform="translate(-233.506 -389.131)" fill="#fff"/>
                </g>
              </g>
            </g>
            <path id="Trazado_907034" data-name="Trazado 907034" d="M257.267,379.591c.011.22,1.115.3,2.213.982,1.116.657,1.695,1.6,1.9,1.507.2-.048-.153-1.357-1.5-2.163s-2.664-.527-2.611-.326" transform="translate(-12.445 -18.352)" fill="#263238"/>
            <path id="Trazado_907035" data-name="Trazado 907035" d="M252.339,381.758c-.046.214.915.569,1.683,1.485.795.894,1,1.9,1.224,1.882.207.03.333-1.263-.643-2.383s-2.263-1.194-2.264-.984" transform="translate(-12.207 -18.463)" fill="#263238"/>
            <path id="Trazado_907036" data-name="Trazado 907036" d="M249.547,387.58c.2.043.484-1.064-.107-2.258s-1.631-1.653-1.72-1.467c-.121.184.561.817,1.032,1.805.493.976.576,1.9.795,1.92" transform="translate(-11.983 -18.567)" fill="#263238"/>
            <path id="Trazado_907037" data-name="Trazado 907037" d="M257.567,373.965c.1.2,1.1-.127,2.347-.068,1.249.032,2.226.43,2.336.239.125-.162-.838-.957-2.308-1s-2.488.663-2.375.834" transform="translate(-12.459 -18.05)" fill="#263238"/>
            <path id="Trazado_907038" data-name="Trazado 907038" d="M221.258,173.2s-2.072,98.789-.206,105.628S261.1,355.59,261.1,355.59l23.039-11.313-30.553-73.829,6.743-94.926Z" transform="translate(-10.656 -8.379)" fill="#263238"/>
            <path id="Trazado_907039" data-name="Trazado 907039" d="M271.841,167.4s13.246,21.626,10.9,34.6c-.96,5.321-8.209,17.1-8.209,17.1l-.007,63.339,5.591,84.544H253.263l-11.524-74.553s-4.041-6.838-5.595-12.744-6.6-75.7-6.6-75.7L221.508,175.6Z" transform="translate(-10.716 -8.098)" fill="#263238"/>
            <path id="Trazado_907040" data-name="Trazado 907040" d="M280.344,330.209a10.94,10.94,0,0,0,0,1.78c.036,1.144.117,2.8.233,4.841.231,4.085.635,9.723,1.108,15.944s.879,11.858,1.144,15.939c.13,1.968.238,3.6.32,4.832a10.735,10.735,0,0,0,.182,1.771,10.866,10.866,0,0,0,.035-1.78c-.01-1.145-.059-2.8-.143-4.845-.164-4.089-.509-9.733-.981-15.96-.493-6.174-.938-11.761-1.27-15.93-.167-1.965-.305-3.591-.41-4.827a10.878,10.878,0,0,0-.22-1.766" transform="translate(-13.56 -15.974)" fill="#455a64"/>
            <path id="Trazado_907041" data-name="Trazado 907041" d="M270.116,179.025a3.927,3.927,0,0,1-.718.816,16.158,16.158,0,0,1-2.3,1.865,18.346,18.346,0,0,1-18.722,1.1,16.12,16.12,0,0,1-2.508-1.583,3.94,3.94,0,0,1-.809-.727c.058-.08,1.242.932,3.473,1.991a18.948,18.948,0,0,0,18.371-1.077c2.094-1.313,3.151-2.456,3.217-2.384" transform="translate(-11.855 -8.66)" fill="#455a64"/>
            <path id="Trazado_907042" data-name="Trazado 907042" d="M230.193,199.913a1.772,1.772,0,0,1,.047.348c.022.256.05.595.087,1.024.069.932.166,2.254.288,3.943.237,3.454.577,8.4,1,14.5.859,12.243,1.939,29.167,3.572,47.816.225,2.541.478,5.046.769,7.5.159,1.225.29,2.45.556,3.6a30.575,30.575,0,0,0,1.122,3.409c1.66,4.462,3.429,8.674,5.12,12.614l.012.028,0,.03c1.787,11.482,3.3,21.2,4.37,28.069.555,3.4,1,6.088,1.3,7.964q.238,1.347.373,2.1c.1.468.166.712.152.719a6.458,6.458,0,0,1-.226-.7c-.106-.473-.27-1.175-.442-2.095-.364-1.836-.843-4.531-1.429-7.947-1.17-6.829-2.745-16.542-4.551-28.043l.016.056c-1.708-3.943-3.489-8.15-5.163-12.626a31.1,31.1,0,0,1-1.139-3.447c-.285-1.222-.412-2.441-.574-3.673q-.443-3.7-.774-7.516c-1.634-18.662-2.658-35.589-3.427-47.839-.351-6.1-.637-11.056-.836-14.513-.083-1.69-.148-3.015-.194-3.947-.015-.431-.028-.771-.037-1.028a1.8,1.8,0,0,1,0-.351" transform="translate(-11.135 -9.671)" fill="#455a64"/>
            <path id="Trazado_907043" data-name="Trazado 907043" d="M239.812,68.891s-.285,4.336,3.232,4.336c4.949,0,15.33-9.553,15.33-9.553l-20.01,47.694v57.714l-16.921,1.784s-1.982-.285-2.387-3.141c-.792-5.588-.678-15.773-1.326-19.968-2.014-13.033-5.974-20.136-5.415-30.462.832-15.349,22.43-41.829,22.43-41.829Z" transform="translate(-10.268 -3.08)" fill="#fff"/>
            <path id="Trazado_907044" data-name="Trazado 907044" d="M261.115,57.4a129.84,129.84,0,0,1-8.358,13.53c-4.315,6.006-31.685,47.93-31.685,47.93l10.937,85.055,1.213,7.206a3.607,3.607,0,0,0,4.3,2.93l48.343-8.5a4.384,4.384,0,0,0,3.432-5.6L267.719,139.3l13.94-53.836s-.513-7.837-9-15.791c-1.614-1.513-8.29-7.048-9.386-8.545Z" transform="translate(-10.694 -2.777)" fill="#ff725e"/>
            <g id="Grupo_1114534" data-name="Grupo 1114534" transform="translate(213.006 136.519)" opacity="0.3">
              <g id="Grupo_1114533" data-name="Grupo 1114533">
                <g id="Grupo_1114532" data-name="Grupo 1114532" clip-path="url(#clip-path-20)">
                  <path id="Trazado_907045" data-name="Trazado 907045" d="M224.644,149.755S246.9,167.4,257.731,167.568s16.462-9.011,16.462-9.011l-21.787.6L223.834,143.46Z" transform="translate(-223.834 -143.459)"/>
                </g>
              </g>
            </g>
            <path id="Trazado_907046" data-name="Trazado 907046" d="M207.321,129.691s20.082,13.264,23.784,15.78,21.228,12.685,23.514,13.419,16.456.835,19.07-3.986,4.356-15.093,4.356-15.093l3.415-48.1A19.348,19.348,0,0,0,278,79.128c-2.076-2.934-4.818-5.577-7.785-5.135-6.327.943-19.937,16.245-19.284,24.1s.674,29.753.674,29.753l-35.849-11.868Z" transform="translate(-10.029 -3.577)" fill="#ff725e"/>
            <path id="Trazado_907047" data-name="Trazado 907047" d="M277.986,79.363a11.2,11.2,0,0,1,.652.923A17.21,17.21,0,0,1,280.16,83.2a19,19,0,0,1,1.315,5.138,39.314,39.314,0,0,1-.164,7.167c-.743,10.716-1.8,25.976-3.068,44.226v.011l0,.01q-.547,3.075-1.319,6.226A54.422,54.422,0,0,1,275,152.316a13.219,13.219,0,0,1-1.519,3.08,7.67,7.67,0,0,1-2.745,2.183,21.5,21.5,0,0,1-6.786,2.009,28.946,28.946,0,0,1-7.262.193,10.056,10.056,0,0,1-3.609-.976c-1.11-.56-2.19-1.165-3.283-1.766-4.355-2.43-8.75-4.987-13.189-7.627-5.313-3.084-10.252-6.57-15.162-9.78l-14.275-9.481-.19-.127.118-.194q4.389-7.236,8.449-13.927l.093-.153.168.058,35.829,12.152-.211.142c.732-8.94,1.314-16.054,1.716-20.951.208-2.426.37-4.3.481-5.589.058-.622.1-1.1.135-1.441.032-.324.061-.487.061-.487s0,.167-.016.492c-.021.342-.051.82-.09,1.444-.091,1.289-.225,3.168-.4,5.6-.366,4.9-.9,12.015-1.568,20.958l-.015.207-.2-.067L215.67,116.231l.262-.1-8.426,13.941-.071-.32,14.288,9.47c4.925,3.215,9.841,6.683,15.143,9.761,4.434,2.637,8.828,5.195,13.173,7.623,1.089.6,2.171,1.207,3.263,1.758a9.535,9.535,0,0,0,3.446.931,28.47,28.47,0,0,0,7.136-.185,21.026,21.026,0,0,0,6.637-1.952,7.2,7.2,0,0,0,2.589-2.042,12.852,12.852,0,0,0,1.464-2.969,54.068,54.068,0,0,0,1.913-6.278c.521-2.088.96-4.159,1.326-6.19l0,.021c1.339-18.245,2.46-33.5,3.246-44.213a39.693,39.693,0,0,0,.223-7.128,19.212,19.212,0,0,0-1.245-5.108,18.455,18.455,0,0,0-1.455-2.932c-.185-.323-.35-.552-.448-.714a1.759,1.759,0,0,1-.146-.246" transform="translate(-10.013 -3.839)" fill="#263238"/>
            <path id="Trazado_907048" data-name="Trazado 907048" d="M227.481,109.618a3.447,3.447,0,0,1,.433-.509l1.3-1.4c1.167-1.261,2.788-3.016,4.778-5.168,2.044-2.184,4.462-4.77,7.143-7.636,2.736-2.837,5.66-6.028,9.111-9.059l-.028.358-.29-.323-2.411-2.672-.4-.442.595.03,4.475.234-.222.121c3.6-6.268,6.737-11.725,9-15.671l2.667-4.552c.3-.5.542-.9.734-1.21a2.174,2.174,0,0,1,.278-.4,2.045,2.045,0,0,1-.2.446l-.663,1.249c-.621,1.129-1.48,2.689-2.544,4.621l-8.852,15.758-.072.128-.149-.007-4.476-.223.2-.411q1.185,1.313,2.412,2.67l.291.323.168.187-.2.171c-3.394,2.98-6.351,6.178-9.1,8.989l-7.218,7.561c-2.054,2.151-3.723,3.883-4.893,5.062-.587.588-1.045,1.044-1.367,1.341a3.386,3.386,0,0,1-.5.44" transform="translate(-11.004 -2.966)" fill="#263238"/>
            <g id="Grupo_1114537" data-name="Grupo 1114537" transform="translate(214.868 77.608)" opacity="0.3">
              <g id="Grupo_1114536" data-name="Grupo 1114536">
                <g id="Grupo_1114535" data-name="Grupo 1114535" clip-path="url(#clip-path-21)">
                  <path id="Trazado_907049" data-name="Trazado 907049" d="M225.792,113.258l27.224-25.666L250.7,85.056h2.316l.608-3.5-1.531,2.695-4.476-.227,2.643,2.424-22.616,23.91Z" transform="translate(-225.791 -81.553)"/>
                </g>
              </g>
            </g>
            <path id="Trazado_907050" data-name="Trazado 907050" d="M243.856,184.886a2.784,2.784,0,0,1,.454-.117l1.384-.3,5.257-1.1,18.344-3.731.162-.032.088.142,5.056,8.23.188.305-.352.068-.6.114-26.756,5.022-.136.026-.047-.128c-.96-2.646-1.731-4.771-2.282-6.287l-.584-1.654a4.08,4.08,0,0,1-.176-.554,6.241,6.241,0,0,1,.258.594c.17.421.393.973.672,1.663l2.417,6.123-.183-.1,26.724-5.189.6-.113-.165.372-5.039-8.24.248.108-18.216,3.468-5.341.985-1.447.256a4.359,4.359,0,0,1-.525.076" transform="translate(-11.797 -8.688)" fill="#263238"/>
            <g id="Grupo_1114540" data-name="Grupo 1114540" transform="translate(232.362 176.998)" opacity="0.3">
              <g id="Grupo_1114539" data-name="Grupo 1114539">
                <g id="Grupo_1114538" data-name="Grupo 1114538" clip-path="url(#clip-path-22)">
                  <path id="Trazado_907051" data-name="Trazado 907051" d="M244.174,186l1.929,9.991,27.713-5-.777-2.318-25.974,4.96Z" transform="translate(-244.174 -185.996)"/>
                </g>
              </g>
            </g>
            <path id="Trazado_907052" data-name="Trazado 907052" d="M260.83,138.978c-.136.071-1.29-2.214-3.361-4.547-2.053-2.351-4.174-3.783-4.085-3.909a16.715,16.715,0,0,1,7.446,8.456" transform="translate(-12.257 -6.314)" fill="#263238"/>
            <path id="Trazado_907053" data-name="Trazado 907053" d="M155.105,106.511s-6.942-4.165-9.719-6.827c0,0-4.05-1.272-5.9,1.273,0,0-4.281,1.186-4.86,1.981s-4.165,6.349-4.165,6.349,1.923,6.613,2.082,6.942c.348.722,1.124,1.489,1.78.693a1.449,1.449,0,0,0,.309-.948l-.007-.439,1.041-.731s.463,2.57,1.852,2.172a23.872,23.872,0,0,0,4.513-2.714s4.4,2.5,6.711,2.756a73.593,73.593,0,0,1,7.594,1.709l2.363-12.591Z" transform="translate(-6.311 -4.807)" fill="#ffbe9d"/>
            <path id="Trazado_907054" data-name="Trazado 907054" d="M134.551,116.305c.019.017-.167.179-.55.1a1.409,1.409,0,0,1-.993-1.142,20.682,20.682,0,0,1,.024-4.829,45.686,45.686,0,0,1,.759-4.737,7.781,7.781,0,0,1,.521-1.918c.164.027-.38,3.015-.787,6.705a29.41,29.41,0,0,0-.172,4.711,1.231,1.231,0,0,0,.705,1.027c.29.118.482.043.493.084" transform="translate(-6.428 -5.02)" fill="#eb996e"/>
            <path id="Trazado_907055" data-name="Trazado 907055" d="M142.973,105.543a5.573,5.573,0,0,1-3.284,1.522l.2-.186c-.018.078-.038.162-.059.246a15.074,15.074,0,0,1-1.143,3.674,15.172,15.172,0,0,1,.661-3.791c.021-.084.041-.167.06-.246l.039-.161.161-.026a25.514,25.514,0,0,0,3.366-1.033" transform="translate(-6.707 -5.105)" fill="#eb996e"/>
            <path id="Trazado_907056" data-name="Trazado 907056" d="M148.462,106.4a3.4,3.4,0,0,0-3.812-.78l-.73.926-5.479,4.574a8.392,8.392,0,0,0-2.454,2.763,2.867,2.867,0,0,0,.573,3.406c1.117.86,2.787.374,3.883-.514s1.887-2.115,3.023-2.949c1.768-1.3,4.34-1.652,5.427-3.558a3.4,3.4,0,0,0-.431-3.867" transform="translate(-6.564 -5.096)" fill="#ffbe9d"/>
            <path id="Trazado_907057" data-name="Trazado 907057" d="M144.235,104.643a3.043,3.043,0,0,1-.485,1.99,7.208,7.208,0,0,1-1.379,1.771,16.842,16.842,0,0,1-2.146,1.669,13.554,13.554,0,0,0-3.624,3.109,11.96,11.96,0,0,0-.93,1.751,3.183,3.183,0,0,1,.639-1.946,7.887,7.887,0,0,1,1.465-1.7,21.707,21.707,0,0,1,2.169-1.626,20.374,20.374,0,0,0,2.115-1.595,7.8,7.8,0,0,0,1.387-1.613,10.083,10.083,0,0,0,.789-1.814" transform="translate(-6.562 -5.062)" fill="#eb996e"/>
            <path id="Trazado_907058" data-name="Trazado 907058" d="M173.645,127.061s.192-6.822,1.922-8.841,11.818-4.613,11.818-4.613l25.353,5.883-5.891,9.534-1.781-1.676s-7.976,2.4-11.915,1.538a44.532,44.532,0,0,1-6.918-2.115l-4.132.288s-2.979,3.075-3.94,3.075-2.018-.864-1.538-1.825l-.865-1.442s-1.729,1.057-2.114.192" transform="translate(-8.4 -5.496)" fill="#ffbe9d"/>
            <path id="Trazado_907059" data-name="Trazado 907059" d="M187.106,122.752a4.3,4.3,0,0,1-1.811.613,31.466,31.466,0,0,0-4.427.871,6.135,6.135,0,0,0-3.175,2.911,10.655,10.655,0,0,1-.958,1.63,5.542,5.542,0,0,1,.65-1.8,7.666,7.666,0,0,1,1.153-1.756,5.361,5.361,0,0,1,2.157-1.454,21,21,0,0,1,4.545-.752c1.151-.128,1.839-.339,1.865-.267" transform="translate(-8.549 -5.937)" fill="#eb996e"/>
            <path id="Trazado_907060" data-name="Trazado 907060" d="M185.04,117.435c.008.074-.805.208-2.056.647a23.036,23.036,0,0,0-2.156.871,10.819,10.819,0,0,0-2.4,1.425,5.511,5.511,0,0,0-.813,1.152c-.245.406-.463.809-.654,1.2a11.725,11.725,0,0,0-.822,2.151c-.335,1.273-.28,2.11-.367,2.111a4.382,4.382,0,0,1,.026-2.189,10.129,10.129,0,0,1,.751-2.268,13.789,13.789,0,0,1,.648-1.25,5.6,5.6,0,0,1,.9-1.272,10.07,10.07,0,0,1,2.548-1.475,16.891,16.891,0,0,1,2.238-.788,5.413,5.413,0,0,1,2.16-.313" transform="translate(-8.498 -5.68)" fill="#eb996e"/>
          </g>
        </g>
      </g>
    </g>
  </g>
</svg>
