<svg xmlns="http://www.w3.org/2000/svg" xmlns:xlink="http://www.w3.org/1999/xlink" width="115.455" height="115.456" viewBox="0 0 115.455 115.456">
  <defs>
    <filter id="Trazado_874925" x="0" y="0" width="115.455" height="115.456" filterUnits="userSpaceOnUse">
      <feOffset dy="3" input="SourceAlpha"/>
      <feGaussianBlur stdDeviation="3" result="blur"/>
      <feFlood flood-opacity="0.161"/>
      <feComposite operator="in" in2="blur"/>
      <feComposite in="SourceGraphic"/>
    </filter>
  </defs>
  <g id="Grupo_1114872" data-name="Grupo 1114872" transform="translate(-609.051 -2737.229)">
    <g id="Grupo_1113032" data-name="Grupo 1113032" transform="translate(618.051 2743.229)">
      <g id="Grupo_1109835" data-name="Grupo 1109835" transform="translate(0 0)">
        <g id="Grupo_1107913" data-name="Grupo 1107913" transform="translate(0 0)" style="isolation: isolate">
          <g transform="matrix(1, 0, 0, 1, -9, -6)" filter="url(#Trazado_874925)">
            <g id="Trazado_874925-2" data-name="Trazado 874925" transform="translate(9 6)" fill="#5ab4f9">
              <path d="M 48.72756576538086 95.95578002929688 C 42.35121917724609 95.95578002929688 36.16640472412109 94.70729827880859 30.34492492675781 92.24501800537109 C 24.72128486633301 89.86640930175781 19.67041969299316 86.46091461181641 15.33263206481934 82.12313842773438 C 10.99485874176025 77.78535461425781 7.58936595916748 72.73447418212891 5.210765838623047 67.11081695556641 C 2.748485803604126 61.28934097290039 1.500005722045898 55.10451126098633 1.500005722045898 48.72816467285156 C 1.500005722045898 42.35126113891602 2.748485803604126 36.16643142700195 5.210765838623047 30.3449535369873 C 7.58936595916748 24.72130012512207 10.99485874176025 19.67043304443359 15.33263206481934 15.33264636993408 C 19.67041969299316 10.99485969543457 24.72128486633301 7.589366436004639 30.34492492675781 5.210766315460205 C 36.16640472412109 2.748486280441284 42.35121917724609 1.500006198883057 48.72756576538086 1.500006198883057 C 55.10391235351562 1.500006198883057 61.28872680664062 2.748486280441284 67.11022186279297 5.210766315460205 C 72.73385620117188 7.589366436004639 77.78472900390625 10.99485969543457 82.12251281738281 15.33264636993408 C 86.46028900146484 19.67043304443359 89.86577606201172 24.72130012512207 92.24437713623047 30.3449535369873 C 94.70665740966797 36.16643142700195 95.95513916015625 42.35126113891602 95.95513916015625 48.72760772705078 C 95.95513916015625 55.10451126098633 94.70665740966797 61.28934097290039 92.24437713623047 67.11081695556641 C 89.86577606201172 72.73447418212891 86.46028900146484 77.78535461425781 82.12251281738281 82.12313842773438 C 77.78472900390625 86.46091461181641 72.73385620117188 89.86640930175781 67.11022186279297 92.24501800537109 C 61.28872680664062 94.70729827880859 55.10391235351562 95.95578002929688 48.72756576538086 95.95578002929688 Z" stroke="none"/>
              <path d="M 48.72756576538086 2.999992370605469 C 42.55305862426758 2.999992370605469 36.56484222412109 4.208610534667969 30.92926025390625 6.592269897460938 C 25.48441314697266 8.895240783691406 20.59379577636719 12.19279479980469 16.39328765869141 16.39330291748047 C 12.19277954101562 20.59381103515625 8.895240783691406 25.48442840576172 6.592254638671875 30.92926788330078 C 4.208610534667969 36.56486892700195 3 42.5531005859375 3 48.72816467285156 C 3 54.90267181396484 4.208610534667969 60.89090347290039 6.592254638671875 66.52650451660156 C 8.895240783691406 71.97134399414062 12.19277954101562 76.86194610595703 16.39328765869141 81.06246948242188 C 20.59379577636719 85.26297760009766 25.48441314697266 88.56051635742188 30.92926025390625 90.86350250244141 C 36.56484222412109 93.24714660644531 42.55305862426758 94.45576477050781 48.72756576538086 94.45576477050781 C 54.90207290649414 94.45576477050781 60.89028930664062 93.24714660644531 66.52588653564453 90.86350250244141 C 71.97073364257812 88.56051635742188 76.86133575439453 85.26297760009766 81.06184387207031 81.06246948242188 C 85.26235198974609 76.86194610595703 88.55989074707031 71.97134399414062 90.86287689208984 66.52650451660156 C 93.24652099609375 60.89090347290039 94.45513153076172 54.90267181396484 94.45513153076172 48.72760772705078 C 94.45513153076172 42.5531005859375 93.24652099609375 36.56486892700195 90.86287689208984 30.92926788330078 C 88.55989074707031 25.48442840576172 85.26235198974609 20.59381103515625 81.06184387207031 16.39330291748047 C 76.86133575439453 12.19279479980469 71.97073364257812 8.895240783691406 66.52588653564453 6.592269897460938 C 60.89028930664062 4.208610534667969 54.90207290649414 2.999992370605469 48.72756576538086 2.999992370605469 M 48.72756576538086 -7.62939453125e-06 C 75.63907623291016 -7.62939453125e-06 97.45513153076172 21.81608581542969 97.45513153076172 48.72760772705078 L 97.45513153076172 48.72816467285156 C 97.45513153076172 75.63968658447266 75.63907623291016 97.45576477050781 48.72756576538086 97.45576477050781 C 21.81607055664062 97.45576477050781 0 75.63968658447266 0 48.72816467285156 L 0 48.72760772705078 C 0 21.81608581542969 21.81607055664062 -7.62939453125e-06 48.72756576538086 -7.62939453125e-06 Z" stroke="none" fill="#fff"/>
            </g>
          </g>
          <g id="Trazado_874923" data-name="Trazado 874923" transform="translate(0 0)" fill="none">
            <path d="M48.728,0A48.728,48.728,0,0,1,97.455,48.728h0A48.728,48.728,0,1,1,0,48.728H0A48.728,48.728,0,0,1,48.728,0Z" stroke="none"/>
            <path d="M 48.72756576538086 2.999992370605469 C 42.55305862426758 2.999992370605469 36.56484222412109 4.208610534667969 30.92926025390625 6.592269897460938 C 25.48441314697266 8.895240783691406 20.59379577636719 12.19279479980469 16.39328765869141 16.39330291748047 C 12.19277954101562 20.59381103515625 8.895240783691406 25.48442840576172 6.592254638671875 30.92926788330078 C 4.208610534667969 36.56486892700195 3 42.5531005859375 3 48.72816467285156 C 3 54.90267181396484 4.208610534667969 60.89090347290039 6.592254638671875 66.52650451660156 C 8.895240783691406 71.97134399414062 12.19277954101562 76.86194610595703 16.39328765869141 81.06246948242188 C 20.59379577636719 85.26297760009766 25.48441314697266 88.56051635742188 30.92926025390625 90.86350250244141 C 36.56484222412109 93.24714660644531 42.55305862426758 94.45576477050781 48.72756576538086 94.45576477050781 C 54.90207290649414 94.45576477050781 60.89028930664062 93.24714660644531 66.52588653564453 90.86350250244141 C 71.97073364257812 88.56051635742188 76.86133575439453 85.26297760009766 81.06184387207031 81.06246948242188 C 85.26235198974609 76.86194610595703 88.55989074707031 71.97134399414062 90.86287689208984 66.52650451660156 C 93.24652099609375 60.89090347290039 94.45513153076172 54.90267181396484 94.45513153076172 48.72760772705078 C 94.45513153076172 42.5531005859375 93.24652099609375 36.56486892700195 90.86287689208984 30.92926788330078 C 88.55989074707031 25.48442840576172 85.26235198974609 20.59381103515625 81.06184387207031 16.39330291748047 C 76.86133575439453 12.19279479980469 71.97073364257812 8.895240783691406 66.52588653564453 6.592269897460938 C 60.89028930664062 4.208610534667969 54.90207290649414 2.999992370605469 48.72756576538086 2.999992370605469 M 48.72756576538086 -7.62939453125e-06 C 75.63907623291016 -7.62939453125e-06 97.45513153076172 21.81608581542969 97.45513153076172 48.72760772705078 L 97.45513153076172 48.72816467285156 C 97.45513153076172 75.63968658447266 75.63907623291016 97.45576477050781 48.72756576538086 97.45576477050781 C 21.81607055664062 97.45576477050781 0 75.63968658447266 0 48.72816467285156 L 0 48.72760772705078 C 0 21.81608581542969 21.81607055664062 -7.62939453125e-06 48.72756576538086 -7.62939453125e-06 Z" stroke="none" fill="#fff"/>
          </g>
        </g>
      </g>
    </g>
    <g id="Grupo_1114871" data-name="Grupo 1114871" transform="translate(636.051 2742.834)">
      <g id="Grupo_1114869" data-name="Grupo 1114869" transform="translate(0.913 20.769)">
        <path id="Trazado_908185" data-name="Trazado 908185" d="M66.151,437.983H9.319A1.819,1.819,0,0,1,7.5,436.164v-2.825a1.819,1.819,0,0,1,1.819-1.819H66.151a1.819,1.819,0,0,1,1.819,1.819v2.825A1.819,1.819,0,0,1,66.151,437.983Z" transform="translate(-7.5 -382.345)" fill="#9c9c9c"/>
        <g id="Grupo_1114865" data-name="Grupo 1114865" transform="translate(19.596 49.174)">
          <path id="Trazado_908186" data-name="Trazado 908186" d="M459.674,431.519h-4.138a1.819,1.819,0,0,1,1.819,1.819v2.825a1.819,1.819,0,0,1-1.819,1.819h4.138a1.819,1.819,0,0,0,1.819-1.819v-2.825A1.819,1.819,0,0,0,459.674,431.519Z" transform="translate(-420.619 -431.519)" fill="#838383"/>
          <path id="Trazado_908187" data-name="Trazado 908187" d="M186.581,434.808H171.845a3.29,3.29,0,0,1-3.29-3.29h21.317A3.29,3.29,0,0,1,186.581,434.808Z" transform="translate(-168.555 -431.518)" fill="#838383"/>
          <path id="Trazado_908188" data-name="Trazado 908188" d="M186.581,434.808H171.845a3.29,3.29,0,0,1-3.29-3.29h21.317A3.29,3.29,0,0,1,186.581,434.808Z" transform="translate(-168.555 -431.518)" fill="#838383"/>
          <path id="Trazado_908189" data-name="Trazado 908189" d="M186.581,434.808H171.845a3.29,3.29,0,0,1-3.29-3.29h21.317A3.29,3.29,0,0,1,186.581,434.808Z" transform="translate(-168.555 -431.518)" fill="#838383"/>
        </g>
        <path id="Trazado_908190" data-name="Trazado 908190" d="M91.037,227.974h-53.1v-26.1a2.093,2.093,0,0,1,2.093-2.093H88.944a2.093,2.093,0,0,1,2.093,2.093v26.1Z" transform="translate(-34.232 -178.799)" fill="#60b7ff"/>
        <path id="Trazado_908191" data-name="Trazado 908191" d="M427.3,199.778h-4.138a2.093,2.093,0,0,1,2.093,2.093v26.1H429.4v-26.1A2.093,2.093,0,0,0,427.3,199.778Z" transform="translate(-372.592 -178.799)" fill="#26a6fe"/>
        <g id="Grupo_1114867" data-name="Grupo 1114867" transform="translate(9.936 12.458)">
          <path id="Trazado_908192" data-name="Trazado 908192" d="M89.166,129.745H129.8v36.717H89.166Z" transform="translate(-89.166 -129.745)" fill="#f2fbff"/>
          <path id="Trazado_908193" data-name="Trazado 908193" d="M393.133,129.745h3.652v36.717h-3.652Z" transform="translate(-356.149 -129.745)" fill="#dff6fd"/>
          <g id="Grupo_1114866" data-name="Grupo 1114866" transform="translate(5.882 4.712)">
            <path id="Trazado_908194" data-name="Trazado 908194" d="M207.338,184.63a1.886,1.886,0,0,1-1.886-1.886V170.361a1.886,1.886,0,1,1,3.771,0v12.384A1.886,1.886,0,0,1,207.338,184.63Z" transform="translate(-197.185 -168.475)" fill="#8ac9fe"/>
            <path id="Trazado_908195" data-name="Trazado 908195" d="M276.516,241.586a1.886,1.886,0,0,1-1.886-1.886v-4.494a1.886,1.886,0,1,1,3.771,0V239.7A1.886,1.886,0,0,1,276.516,241.586Z" transform="translate(-257.946 -225.431)" fill="#978ecb"/>
            <path id="Trazado_908196" data-name="Trazado 908196" d="M139.394,211.455a1.886,1.886,0,0,1-1.886-1.886V200.9a1.886,1.886,0,1,1,3.771,0v8.668A1.885,1.885,0,0,1,139.394,211.455Z" transform="translate(-137.508 -195.3)" fill="#fe76a8"/>
            <path id="Trazado_908197" data-name="Trazado 908197" d="M345.693,211.455a1.886,1.886,0,0,1-1.886-1.886V200.9a1.886,1.886,0,1,1,3.771,0v8.668A1.885,1.885,0,0,1,345.693,211.455Z" transform="translate(-318.707 -195.3)" fill="#97da7b"/>
          </g>
        </g>
        <g id="Grupo_1114868" data-name="Grupo 1114868" transform="translate(9.936 7.642)">
          <path id="Trazado_908198" data-name="Trazado 908198" d="M127.939,90.167H91.03a1.863,1.863,0,0,0-1.863,1.863v2.952H129.8V92.03A1.863,1.863,0,0,0,127.939,90.167Z" transform="translate(-89.167 -90.167)" fill="#9c9c9c"/>
        </g>
        <circle id="Elipse_12838" data-name="Elipse 12838" cx="3.997" cy="3.997" r="3.997" transform="translate(14.733 44.317) rotate(-75.117)" fill="#8ac9fe"/>
        <circle id="Elipse_12839" data-name="Elipse 12839" cx="7.891" cy="7.891" r="7.891" transform="translate(44.682 0)" fill="#ffe177"/>
        <path id="Trazado_908199" data-name="Trazado 908199" d="M431.238,35.25A7.893,7.893,0,0,1,421.1,42.815a7.892,7.892,0,0,0,0-15.127,7.893,7.893,0,0,1,10.142,7.563Z" transform="translate(-370.774 -27.36)" fill="#ffd15b"/>
        <circle id="Elipse_12840" data-name="Elipse 12840" cx="3.997" cy="3.997" r="3.997" transform="translate(26.745 43.913) rotate(-70.678)" fill="#8ac9fe"/>
        <path id="Trazado_908200" data-name="Trazado 908200" d="M273.063,339.384h-4v-4A4,4,0,0,1,273.063,339.384Z" transform="translate(-237.241 -297.909)" fill="#978ecb"/>
        <path id="Trazado_908201" data-name="Trazado 908201" d="M172.553,339.384a4,4,0,0,1-4,4v-7.994a4,4,0,0,1,4,4Z" transform="translate(-148.96 -297.909)" fill="#fe76a8"/>
      </g>
      <g id="Grupo_1114870" data-name="Grupo 1114870" transform="translate(0 19.856)">
        <path id="Trazado_908202" data-name="Trazado 908202" d="M59.563,69.03H58.63V43.84a3.009,3.009,0,0,0-3.005-3.005H52.4V37.394a8.8,8.8,0,1,0-7.714-8.734,8.747,8.747,0,0,0,.8,3.654H11.761V30.274a.951.951,0,0,1,.95-.95H41.325a.913.913,0,1,0,0-1.825H12.712a2.778,2.778,0,0,0-2.775,2.775V40.835H6.708A3.009,3.009,0,0,0,3.7,43.84V69.03H2.732A2.735,2.735,0,0,0,0,71.762v2.825a2.735,2.735,0,0,0,2.732,2.732H59.563a2.735,2.735,0,0,0,2.732-2.732V71.762A2.735,2.735,0,0,0,59.563,69.03ZM55.625,42.66a1.181,1.181,0,0,1,1.18,1.18V69.03H52.4V42.66ZM40.73,70.856a2.382,2.382,0,0,1-2.2,1.465H23.8a2.382,2.382,0,0,1-2.2-1.465ZM53.486,21.681a6.979,6.979,0,1,1-6.979,6.979A6.987,6.987,0,0,1,53.486,21.681ZM5.528,43.84a1.181,1.181,0,0,1,1.18-1.18h4.14a.912.912,0,0,0,.913-.913V34.139H46.6a8.838,8.838,0,0,0,3.969,2.826V69.03H11.761V46.016a.913.913,0,0,0-1.825,0V69.03H5.528ZM60.47,74.588a.908.908,0,0,1-.907.907H2.732a.908.908,0,0,1-.907-.907V71.762a.908.908,0,0,1,.907-.907H19.7a4.209,4.209,0,0,0,4.1,3.29H38.535a4.209,4.209,0,0,0,4.1-3.29H59.563a.908.908,0,0,1,.907.907Z" transform="translate(0 -19.856)"/>
        <path id="Trazado_908203" data-name="Trazado 908203" d="M200.75,178.956a2.8,2.8,0,0,0,2.8-2.8V163.774a2.8,2.8,0,0,0-5.6,0v12.383A2.8,2.8,0,0,0,200.75,178.956Zm-.973-15.182a.973.973,0,0,1,1.946,0v12.383a.973.973,0,1,1-1.946,0Z" transform="translate(-173.867 -143.806)"/>
        <path id="Trazado_908204" data-name="Trazado 908204" d="M269.927,235.911a2.8,2.8,0,0,0,2.8-2.8v-4.494a2.8,2.8,0,0,0-5.6,0v4.494A2.8,2.8,0,0,0,269.927,235.911Zm-.973-7.292a.973.973,0,0,1,1.946,0v4.494a.973.973,0,1,1-1.946,0Z" transform="translate(-234.627 -200.761)"/>
        <path id="Trazado_908205" data-name="Trazado 908205" d="M132.805,205.781a2.8,2.8,0,0,0,2.8-2.8v-8.668a2.8,2.8,0,0,0-5.6,0v8.668A2.8,2.8,0,0,0,132.805,205.781Zm-.973-11.466a.973.973,0,0,1,1.946,0v8.668a.973.973,0,1,1-1.946,0Z" transform="translate(-114.189 -170.631)"/>
        <path id="Trazado_908206" data-name="Trazado 908206" d="M339.106,205.781a2.8,2.8,0,0,0,2.8-2.8v-8.668a2.8,2.8,0,1,0-5.6,0v8.668A2.8,2.8,0,0,0,339.106,205.781Zm-.973-11.466a.973.973,0,1,1,1.946,0v8.668a.973.973,0,1,1-1.946,0Z" transform="translate(-295.389 -170.631)"/>
        <path id="Trazado_908207" data-name="Trazado 908207" d="M417.934,58.678a3.312,3.312,0,0,0,1.292.538v.068a.938.938,0,0,0,.885.95.913.913,0,0,0,.94-.912v-.207a2.779,2.779,0,0,0,1.785-2.133,2.463,2.463,0,0,0-1.671-2.788,6.421,6.421,0,0,1-1.606-.741.368.368,0,0,1-.043-.306.536.536,0,0,1,.343-.424,1.115,1.115,0,0,1,1.027.152l.089.063a.912.912,0,1,0,1.034-1.5,3.17,3.17,0,0,0-.959-.479V50.9a.938.938,0,0,0-.884-.95.913.913,0,0,0-.941.912v.149a2.347,2.347,0,0,0-1.5,1.8,2.114,2.114,0,0,0,.71,2.081,7.705,7.705,0,0,0,2.124,1.025.64.64,0,0,1,.48.765.911.911,0,0,1-.9.768,1.665,1.665,0,0,1-1.233-.319.912.912,0,0,0-1.317.359A.935.935,0,0,0,417.934,58.678Z" transform="translate(-366.693 -46.288)"/>
        <path id="Trazado_908208" data-name="Trazado 908208" d="M133.115,337.7a4.909,4.909,0,1,0-4.909-4.909A4.915,4.915,0,0,0,133.115,337.7Zm3.075-4.679a3.1,3.1,0,0,1-2.162,2.716v-5.893A3.1,3.1,0,0,1,136.19,333.026Zm-3.987-3.177v5.893a3.085,3.085,0,0,1,0-5.893Z" transform="translate(-112.607 -290.408)"/>
        <path id="Trazado_908209" data-name="Trazado 908209" d="M325.79,349.759h2.581a.913.913,0,1,0,0-1.825H325.79a.913.913,0,0,0,0,1.825Z" transform="translate(-285.35 -308.017)"/>
        <path id="Trazado_908210" data-name="Trazado 908210" d="M325.79,378.479h5.162a.913.913,0,0,0,0-1.825H325.79a.913.913,0,0,0,0,1.825Z" transform="translate(-285.35 -333.242)"/>
        <path id="Trazado_908211" data-name="Trazado 908211" d="M233.624,327.887a4.909,4.909,0,1,0,4.909,4.909A4.915,4.915,0,0,0,233.624,327.887Zm.913,1.963a3.111,3.111,0,0,1,2.034,2.034h-2.034Zm-.913,6.031a3.085,3.085,0,0,1-.913-6.031V332.8a.912.912,0,0,0,.913.913h2.946A3.09,3.09,0,0,1,233.624,335.881Z" transform="translate(-200.887 -290.409)"/>
      </g>
    </g>
  </g>
</svg>
