<svg xmlns="http://www.w3.org/2000/svg" xmlns:xlink="http://www.w3.org/1999/xlink" width="93.722" height="93.723" viewBox="0 0 93.722 93.723">
  <defs>
    <filter id="Trazado_874925" x="0" y="0" width="93.722" height="93.723" filterUnits="userSpaceOnUse">
      <feOffset dy="3" input="SourceAlpha"/>
      <feGaussianBlur stdDeviation="3" result="blur"/>
      <feFlood flood-opacity="0.161"/>
      <feComposite operator="in" in2="blur"/>
      <feComposite in="SourceGraphic"/>
    </filter>
  </defs>
  <g id="Grupo_1114735" data-name="Grupo 1114735" transform="translate(-988.051 -2537)">
    <g id="Grupo_1112902" data-name="Grupo 1112902" transform="translate(997.051 2543)">
      <g id="Grupo_1109835" data-name="Grupo 1109835" transform="translate(0 0)">
        <g id="Grupo_1107913" data-name="Grupo 1107913" transform="translate(0 0)">
          <g transform="matrix(1, 0, 0, 1, -9, -6)" filter="url(#Trazado_874925)">
            <g id="Trazado_874925-2" data-name="Trazado 874925" transform="translate(9 6)" fill="#e2dacc" opacity="0.859">
              <path d="M 37.86101913452148 74.2225341796875 C 32.95165252685547 74.2225341796875 28.1899299621582 73.26136779785156 23.7081298828125 71.36572265625 C 19.37846374511719 69.534423828125 15.48970794677734 66.91244506835938 12.1498966217041 63.57263565063477 C 8.810074806213379 60.23281097412109 6.188107967376709 56.34405517578125 4.356808185577393 52.01438903808594 C 2.461163520812988 47.53257751464844 1.499996900558472 42.77085494995117 1.499996900558472 37.86148834228516 C 1.499996900558472 32.95167922973633 2.461163520812988 28.18995666503906 4.356808185577393 23.70814514160156 C 6.188107967376709 19.37847900390625 8.810074806213379 15.48972225189209 12.1498966217041 12.14990043640137 C 15.48970794677734 8.810089111328125 19.37846374511719 6.188111305236816 23.7081298828125 4.3568115234375 C 28.1899299621582 2.461167097091675 32.95165252685547 1.500000476837158 37.86101913452148 1.500000476837158 C 42.7703857421875 1.500000476837158 47.53210830688477 2.461167097091675 52.01390838623047 4.3568115234375 C 56.34357452392578 6.188111305236816 60.23233032226562 8.810089111328125 63.57213973999023 12.14990043640137 C 66.91196441650391 15.48972225189209 69.53392791748047 19.37847900390625 71.36522674560547 23.70814514160156 C 73.26087188720703 28.18995666503906 74.22203826904297 32.95167922973633 74.22203826904297 37.86104583740234 C 74.22203826904297 42.77085494995117 73.26087188720703 47.53257751464844 71.36522674560547 52.01438903808594 C 69.53392791748047 56.34405517578125 66.91196441650391 60.23281097412109 63.57213973999023 63.57263565063477 C 60.23233032226562 66.91244506835938 56.34357452392578 69.534423828125 52.01390838623047 71.36572265625 C 47.53210830688477 73.26136779785156 42.7703857421875 74.2225341796875 37.86101913452148 74.2225341796875 Z" stroke="none"/>
              <path d="M 37.86101913452148 3.000007629394531 C 33.15349578857422 3.000007629394531 28.5883674621582 3.921302795410156 24.29245758056641 5.738327026367188 C 20.14159393310547 7.493995666503906 16.41309356689453 10.00801849365234 13.21055603027344 13.21056747436523 C 10.00800323486328 16.41310501098633 7.493980407714844 20.14160537719727 5.738319396972656 24.29246520996094 C 3.921295166015625 28.58837890625 2.999992370605469 33.15350341796875 2.999992370605469 37.86148071289062 C 2.999992370605469 42.56901550292969 3.921295166015625 47.13414001464844 5.738319396972656 51.4300537109375 C 7.493980407714844 55.58092880249023 10.00800323486328 59.30941772460938 13.21055603027344 62.51196670532227 C 16.41309356689453 65.71451568603516 20.14159393310547 68.22854614257812 24.29245758056641 69.98420715332031 C 28.5883674621582 71.80123138427734 33.15349578857422 72.72252655029297 37.86101913452148 72.72252655029297 C 42.56854248046875 72.72252655029297 47.1336669921875 71.80123138427734 51.42958068847656 69.98420715332031 C 55.5804443359375 68.22854614257812 59.30892944335938 65.71451568603516 62.51148223876953 62.51196670532227 C 65.71401977539062 59.30941772460938 68.22804260253906 55.58092880249023 69.98370361328125 51.4300537109375 C 71.80073547363281 47.13414001464844 72.72203063964844 42.56901550292969 72.72203063964844 37.86104202270508 C 72.72203063964844 33.15350341796875 71.80073547363281 28.58837890625 69.98370361328125 24.29246520996094 C 68.22804260253906 20.14160537719727 65.71401977539062 16.41310501098633 62.51148223876953 13.21056747436523 C 59.30892944335938 10.00801849365234 55.5804443359375 7.493995666503906 51.42958068847656 5.738327026367188 C 47.1336669921875 3.921302795410156 42.56854248046875 3.000007629394531 37.86101913452148 3.000007629394531 M 37.86101913452148 7.62939453125e-06 C 58.77108001708984 7.62939453125e-06 75.72203063964844 16.95096588134766 75.72203063964844 37.86104202270508 L 75.72203063964844 37.86148071289062 C 75.72203063964844 58.77156829833984 58.77108001708984 75.72252655029297 37.86101913452148 75.72252655029297 C 16.95095825195312 75.72252655029297 -7.62939453125e-06 58.77156829833984 -7.62939453125e-06 37.86148071289062 L -7.62939453125e-06 37.86104202270508 C -7.62939453125e-06 16.95096588134766 16.95095825195312 7.62939453125e-06 37.86101913452148 7.62939453125e-06 Z" stroke="none" fill="#fff"/>
            </g>
          </g>
          <g id="Trazado_874923" data-name="Trazado 874923" transform="translate(0 0)" fill="none">
            <path d="M37.861,0A37.861,37.861,0,0,1,75.722,37.861h0A37.861,37.861,0,1,1,0,37.861H0A37.861,37.861,0,0,1,37.861,0Z" stroke="none"/>
            <path d="M 37.86101913452148 3.000007629394531 C 33.15349578857422 3.000007629394531 28.5883674621582 3.921302795410156 24.29245758056641 5.738327026367188 C 20.14159393310547 7.493995666503906 16.41309356689453 10.00801849365234 13.21055603027344 13.21056747436523 C 10.00800323486328 16.41310501098633 7.493980407714844 20.14160537719727 5.738319396972656 24.29246520996094 C 3.921295166015625 28.58837890625 2.999992370605469 33.15350341796875 2.999992370605469 37.86148071289062 C 2.999992370605469 42.56901550292969 3.921295166015625 47.13414001464844 5.738319396972656 51.4300537109375 C 7.493980407714844 55.58092880249023 10.00800323486328 59.30941772460938 13.21055603027344 62.51196670532227 C 16.41309356689453 65.71451568603516 20.14159393310547 68.22854614257812 24.29245758056641 69.98420715332031 C 28.5883674621582 71.80123138427734 33.15349578857422 72.72252655029297 37.86101913452148 72.72252655029297 C 42.56854248046875 72.72252655029297 47.1336669921875 71.80123138427734 51.42958068847656 69.98420715332031 C 55.5804443359375 68.22854614257812 59.30892944335938 65.71451568603516 62.51148223876953 62.51196670532227 C 65.71401977539062 59.30941772460938 68.22804260253906 55.58092880249023 69.98370361328125 51.4300537109375 C 71.80073547363281 47.13414001464844 72.72203063964844 42.56901550292969 72.72203063964844 37.86104202270508 C 72.72203063964844 33.15350341796875 71.80073547363281 28.58837890625 69.98370361328125 24.29246520996094 C 68.22804260253906 20.14160537719727 65.71401977539062 16.41310501098633 62.51148223876953 13.21056747436523 C 59.30892944335938 10.00801849365234 55.5804443359375 7.493995666503906 51.42958068847656 5.738327026367188 C 47.1336669921875 3.921302795410156 42.56854248046875 3.000007629394531 37.86101913452148 3.000007629394531 M 37.86101913452148 7.62939453125e-06 C 58.77108001708984 7.62939453125e-06 75.72203063964844 16.95096588134766 75.72203063964844 37.86104202270508 L 75.72203063964844 37.86148071289062 C 75.72203063964844 58.77156829833984 58.77108001708984 75.72252655029297 37.86101913452148 75.72252655029297 C 16.95095825195312 75.72252655029297 -7.62939453125e-06 58.77156829833984 -7.62939453125e-06 37.86148071289062 L -7.62939453125e-06 37.86104202270508 C -7.62939453125e-06 16.95096588134766 16.95095825195312 7.62939453125e-06 37.86101913452148 7.62939453125e-06 Z" stroke="none" fill="#fff"/>
          </g>
        </g>
      </g>
    </g>
    <g id="Grupo_1114734" data-name="Grupo 1114734" transform="translate(1009.051 2516.54)">
      <path id="Trazado_907651" data-name="Trazado 907651" d="M104.083,158.11H92.576c-15.588,0-15.588,28.985-1.208,28.985H116.05a5.459,5.459,0,0,0,5.459-5.459V163.569a5.432,5.432,0,0,0-.677-2.635Z" transform="translate(-72.962 -102.065)" fill="#e9efff"/>
      <path id="Trazado_907652" data-name="Trazado 907652" d="M284.876,158.845c-5.953-.379-11.1-.709-11.562-.735h-3.143l-2.762,2.762a9.857,9.857,0,0,0-2.906,7.016v.718a2.415,2.415,0,0,0,2.415,2.415h.718a9.858,9.858,0,0,0,7.016-2.907l3.928-3.928a1.593,1.593,0,0,1,1.9-.252,4.407,4.407,0,0,0,2.127.55h0a4.387,4.387,0,0,0,4.311-3.549A5.486,5.486,0,0,0,284.876,158.845Z" transform="translate(-239.05 -102.065)" fill="#cfdaf9"/>
      <path id="Trazado_907653" data-name="Trazado 907653" d="M26.394,158.11H12.96A5.459,5.459,0,0,0,7.5,163.569v18.068A5.459,5.459,0,0,0,12.96,187.1H25.186a22.639,22.639,0,0,1,1.208-28.985Z" transform="translate(-6.779 -102.065)" fill="#cfdaf9"/>
      <path id="Trazado_907654" data-name="Trazado 907654" d="M436.533,100.747a2.8,2.8,0,0,1,0,3.962l-1.917,1.917a.63.63,0,0,0-.164.618,2.174,2.174,0,0,1-3.68,2.088,2.209,2.209,0,0,1,.092-3.054c-2.086-2.3,3.59-7.359,5.6-5.6Z" transform="translate(-388.805 -49.83)" fill="#4c485d"/>
      <path id="Trazado_907655" data-name="Trazado 907655" d="M399.847,101.57l2.562-2.562c.99-.99.24-2.646-.945-3.666-1.537-1.537-6.8,3.724-5.261,5.261,1.021,1.184,2.67,1.941,3.644.967Z" transform="translate(-357.825 -45.086)" fill="#ffe49e"/>
      <path id="Trazado_907656" data-name="Trazado 907656" d="M395.621,89.584c-1-.863-2.317-1.27-3.154-.433l-2.561,2.561c-.824.824-.409,2.131.454,3.133Z" transform="translate(-351.982 -39.328)" fill="#ffcf6b"/>
      <path id="Trazado_907657" data-name="Trazado 907657" d="M307.79,191c2.27-2.27-.328-3.923-1.534-4.922l-2.513,2.513c-1.219,1.219-2.431,4.3-1.273,5.423a7.7,7.7,0,0,0,4.5-2.2Z" transform="translate(-272.941 -127.342)" fill="#e59b70"/>
      <path id="Trazado_907658" data-name="Trazado 907658" d="M294.16,188.471a2.5,2.5,0,0,0-3.488-.1l-.819.819a7.7,7.7,0,0,0-2.255,5.444v.91h.91a7.692,7.692,0,0,0,.944-.06,7.7,7.7,0,0,1,2.195-4.5Z" transform="translate(-259.923 -128.813)" fill="#dc7f57"/>
      <path id="Trazado_907659" data-name="Trazado 907659" d="M442.51,66.758a2.9,2.9,0,0,0,.69-3,2.728,2.728,0,0,0-3.946-.259l-2.361,2.361.237,1.664,2.306,2.305Z" transform="translate(-394.851 -15.91)" fill="#e08fab"/>
      <path id="Trazado_907660" data-name="Trazado 907660" d="M425.581,55.329a2.9,2.9,0,0,1,3-.691,2.9,2.9,0,0,0-4.789-1.1l-3.074,3.074,1.794,1.793Z" transform="translate(-380.228 -6.786)" fill="#db5f87"/>
      <path id="Trazado_907661" data-name="Trazado 907661" d="M345.212,138.573l-2.305-2.306c-1.708-1.708-8.882,5.466-7.174,7.174l2.306,2.306Z" transform="translate(-303.19 -82.089)" fill="#66637c"/>
      <path id="Trazado_907662" data-name="Trazado 907662" d="M328.513,121.871l-1.793-1.794-7.174,7.174,1.793,1.793Z" transform="translate(-288.796 -67.692)" fill="#4c485d"/>
      <path id="Trazado_907663" data-name="Trazado 907663" d="M277.38,317.7a1.45,1.45,0,0,0-1.449-1.449H260.784c-2.151,0-2.776.651-2.776,1.449s.314,1.449,2.776,1.449h15.147A1.451,1.451,0,0,0,277.38,317.7Z" transform="translate(-233.18 -244.984)" fill="#95dcfd"/>
      <path id="Trazado_907664" data-name="Trazado 907664" d="M243.908,317.7a1.451,1.451,0,0,1,1.449-1.449h-2.969a1.449,1.449,0,1,0,0,2.9h2.969A1.45,1.45,0,0,1,243.908,317.7Z" transform="translate(-217.754 -244.984)" fill="#76cafa"/>
      <path id="Trazado_907665" data-name="Trazado 907665" d="M91.53,207.1a7.249,7.249,0,0,0-4.767-6.811,6.778,6.778,0,0,0-7.132,6.811,6.848,6.848,0,0,0,7.132,6.811A7.249,7.249,0,0,0,91.53,207.1Z" transform="translate(-71.968 -140.184)" fill="#ffe49e"/>
      <path id="Trazado_907666" data-name="Trazado 907666" d="M57.641,203.008a7.249,7.249,0,0,1,4.767-6.811,7.246,7.246,0,1,0,0,13.622A7.249,7.249,0,0,1,57.641,203.008Z" transform="translate(-47.612 -136.094)" fill="#ffcf6b"/>
      <path id="Trazado_907667" data-name="Trazado 907667" d="M107.6,221.276h1.449a.722.722,0,1,0,0-1.443h-.728V219.1a.722.722,0,1,0-1.443,0v.851a2.171,2.171,0,0,0,.722,4.218.721.721,0,0,1,.515.215.728.728,0,0,1-.515,1.24h-1.449a.722.722,0,0,0,0,1.443h.728v.728a.722.722,0,1,0,1.443,0v-.853a2.17,2.17,0,0,0-.722-4.217.728.728,0,1,1,0-1.455Z" transform="translate(-95.279 -156.538)"/>
      <path id="Trazado_907668" data-name="Trazado 907668" d="M53.149,188.262a7.968,7.968,0,1,0,7.968,7.968A7.977,7.977,0,0,0,53.149,188.262Zm0,14.493a6.525,6.525,0,1,1,6.525-6.525A6.532,6.532,0,0,1,53.149,202.755Z" transform="translate(-40.833 -129.316)"/>
      <path id="Trazado_907669" data-name="Trazado 907669" d="M32,295.284H6.181a4.743,4.743,0,0,1-4.737-4.737V279.338a.722.722,0,1,0-1.443,0v11.209a6.188,6.188,0,0,0,6.181,6.181H32a.722.722,0,0,0,0-1.444Z" transform="translate(0 -210.975)"/>
      <path id="Trazado_907670" data-name="Trazado 907670" d="M46.948,56.678l1.289-1.289a3.53,3.53,0,0,0,.365-4.554,3.621,3.621,0,0,0-5.554-4.6l-9.084,9.084H6.181A6.188,6.188,0,0,0,0,61.5v3.477a.722.722,0,0,0,1.443,0V61.5a4.743,4.743,0,0,1,4.737-4.737H32.521l-3.1,3.1a8.367,8.367,0,0,0-2.466,5.955v.91a.722.722,0,0,0,.722.722h.91a8.366,8.366,0,0,0,5.955-2.467c1.044-1.043-.19.192,6.223-6.223a2.893,2.893,0,0,0,5.687-.6A4.755,4.755,0,0,1,47.826,61.5V79.571a4.743,4.743,0,0,1-4.737,4.737H35.384a.722.722,0,1,0,0,1.443h7.705a6.188,6.188,0,0,0,6.181-6.181V61.5a6.206,6.206,0,0,0-2.321-4.825ZM44.07,47.26a2.177,2.177,0,0,1,3.079,3.077L44.584,52.9l-3.079-3.078ZM34.849,62.637l-3.078-3.078,6.153-6.153L41,56.485Zm7.173-7.174-3.078-3.079,1.541-1.541,3.079,3.078ZM28.586,66.011H28.4v-.188a6.932,6.932,0,0,1,2.044-4.934l.309-.309,3.078,3.078A7.091,7.091,0,0,1,28.586,66.011ZM44.87,57.4A1.453,1.453,0,0,1,42.5,59.01a1.493,1.493,0,0,1,.073-2.051l5.023-5.023a2.084,2.084,0,0,1-.374,2.432l-2.206,2.206A.722.722,0,0,0,44.87,57.4Z" transform="translate(0 0)"/>
      <path id="Trazado_907671" data-name="Trazado 907671" d="M253.726,313.087a2.171,2.171,0,0,0,0-4.342H235.61a2.171,2.171,0,1,0,0,4.342Zm-18.844-2.171a.728.728,0,0,1,.728-.728h18.116a.728.728,0,0,1,0,1.455H235.61A.729.729,0,0,1,234.882,310.916Z" transform="translate(-210.975 -238.205)"/>
      <path id="Trazado_907672" data-name="Trazado 907672" d="M316.2,378.2l.534-.4a.3.3,0,0,1,.463.143l.044.133a1.741,1.741,0,0,0,1.654,1.192h4.336a.722.722,0,1,0,0-1.443H318.9a.3.3,0,0,1-.284-.2l-.044-.133a1.744,1.744,0,0,0-2.7-.843l-.533.4a.3.3,0,0,1-.471-.167,1.744,1.744,0,0,0-2.658-1.028l-3.142,2.095a.722.722,0,1,0,.8,1.2l3.142-2.095a.3.3,0,0,1,.457.175A1.744,1.744,0,0,0,316.2,378.2Z" transform="translate(-279.032 -298.586)"/>
      <path id="Trazado_907673" data-name="Trazado 907673" d="M73.28,377.242a.722.722,0,0,0-.722-.722H60.964a.722.722,0,1,0,0,1.443H72.558A.722.722,0,0,0,73.28,377.242Z" transform="translate(-54.445 -299.458)"/>
      <path id="Trazado_907674" data-name="Trazado 907674" d="M60.964,414.171a.722.722,0,1,0,0,1.443h7a.722.722,0,1,0,0-1.443Z" transform="translate(-54.445 -333.486)"/>
    </g>
  </g>
</svg>
