<svg xmlns="http://www.w3.org/2000/svg" xmlns:xlink="http://www.w3.org/1999/xlink" width="108.914" height="108.914" viewBox="0 0 108.914 108.914">
  <defs>
    <filter id="Trazado_874925" x="0" y="0" width="108.914" height="108.914" filterUnits="userSpaceOnUse">
      <feOffset dy="3" input="SourceAlpha"/>
      <feGaussianBlur stdDeviation="3" result="blur"/>
      <feFlood flood-opacity="0.161"/>
      <feComposite operator="in" in2="blur"/>
      <feComposite in="SourceGraphic"/>
    </filter>
  </defs>
  <g id="Grupo_1114750" data-name="Grupo 1114750" transform="translate(-800.051 -6276)">
    <g id="Grupo_1111316" data-name="Grupo 1111316" transform="translate(0.551 4329.789)">
      <g id="Grupo_1109835" data-name="Grupo 1109835">
        <g id="Grupo_1107913" data-name="Grupo 1107913" transform="translate(808.5 1952.211)">
          <g transform="matrix(1, 0, 0, 1, -9, -6)" filter="url(#Trazado_874925)">
            <g id="Trazado_874925-2" data-name="Trazado 874925" transform="translate(9 6)" fill="#fd9826" opacity="0.859">
              <path d="M 45.45676803588867 89.41407012939453 C 39.52198028564453 89.41407012939453 33.76551818847656 88.25206756591797 28.34726715087891 85.96034240722656 C 23.11311721801758 83.74648284912109 18.41204261779785 80.57682800292969 14.37464332580566 76.5394287109375 C 10.33724308013916 72.50202941894531 7.167593002319336 67.80095672607422 4.953730583190918 62.56679534912109 C 2.662005424499512 57.14855575561523 1.500005483627319 51.39208221435547 1.500005483627319 45.45729446411133 C 1.500005483627319 39.52198028564453 2.662005424499512 33.76551818847656 4.953730583190918 28.34726905822754 C 7.167593002319336 23.11310577392578 10.33724308013916 18.41203117370605 14.37464332580566 14.37464332580566 C 18.41204261779785 10.33724403381348 23.11311721801758 7.167593955993652 28.34726715087891 4.953731060028076 C 33.76551818847656 2.662006139755249 39.52198028564453 1.500006198883057 45.45676803588867 1.500006198883057 C 51.39155578613281 1.500006198883057 57.14802932739258 2.662006139755249 62.56626892089844 4.953731060028076 C 67.80043029785156 7.167593955993652 72.50150299072266 10.33724403381348 76.53890228271484 14.37464332580566 C 80.57630920410156 18.41203117370605 83.74595642089844 23.11310577392578 85.95981597900391 28.34726905822754 C 88.25154113769531 33.76551818847656 89.41354370117188 39.52198028564453 89.41354370117188 45.45676803588867 C 89.41354370117188 51.39208221435547 88.25154113769531 57.14855575561523 85.95981597900391 62.56679534912109 C 83.74595642089844 67.80095672607422 80.57630920410156 72.50202941894531 76.53890228271484 76.5394287109375 C 72.50150299072266 80.57682800292969 67.80043029785156 83.74648284912109 62.56626892089844 85.96034240722656 C 57.14802932739258 88.25206756591797 51.39155578613281 89.41407012939453 45.45676803588867 89.41407012939453 Z" stroke="none"/>
              <path d="M 45.45676803588867 3 C 39.72381210327148 3 34.1639404296875 4.12213134765625 28.93159484863281 6.335227966308594 C 23.87622833251953 8.473472595214844 19.33542633056641 11.53517150878906 15.43529510498047 15.435302734375 C 11.53517150878906 19.33543395996094 8.473464965820312 23.87622833251953 6.335227966308594 28.93160247802734 C 4.122123718261719 34.16394424438477 3 39.72381591796875 3 45.4572868347168 C 3 51.19024658203125 4.122123718261719 56.75011825561523 6.335227966308594 61.98246002197266 C 8.473464965820312 67.03782653808594 11.53517150878906 71.57862854003906 15.43529510498047 75.478759765625 C 19.33542633056641 79.37889099121094 23.87622833251953 82.44058990478516 28.93159484863281 84.57883453369141 C 34.1639404296875 86.79193115234375 39.72381210327148 87.9140625 45.45676803588867 87.9140625 C 51.18972396850586 87.9140625 56.74959564208984 86.79193115234375 61.98194122314453 84.57883453369141 C 67.03730773925781 82.44058990478516 71.57810974121094 79.37889099121094 75.47824096679688 75.478759765625 C 79.37837219238281 71.57862854003906 82.44007110595703 67.03782653808594 84.57830810546875 61.98246002197266 C 86.79141235351562 56.75011825561523 87.91353607177734 51.19024658203125 87.91353607177734 45.4567756652832 C 87.91353607177734 39.72381591796875 86.79141235351562 34.16394424438477 84.57830810546875 28.93160247802734 C 82.44007110595703 23.87622833251953 79.37837219238281 19.33543395996094 75.47824096679688 15.435302734375 C 71.57810974121094 11.53517150878906 67.03730773925781 8.473472595214844 61.98194122314453 6.335227966308594 C 56.74959564208984 4.12213134765625 51.18972396850586 3 45.45676803588867 3 M 45.45676803588867 0 C 70.56185150146484 0 90.91353607177734 20.35169219970703 90.91353607177734 45.4567756652832 L 90.91353607177734 45.4572868347168 C 90.91353607177734 70.5623779296875 70.56185150146484 90.9140625 45.45676803588867 90.9140625 C 20.3516845703125 90.9140625 0 70.5623779296875 0 45.4572868347168 L 0 45.4567756652832 C 0 20.35169219970703 20.3516845703125 0 45.45676803588867 0 Z" stroke="none" fill="#fff"/>
            </g>
          </g>
          <g id="Trazado_874923" data-name="Trazado 874923" transform="translate(0 0)" fill="none">
            <path d="M45.457,0A45.457,45.457,0,0,1,90.914,45.457h0A45.457,45.457,0,0,1,0,45.457H0A45.457,45.457,0,0,1,45.457,0Z" stroke="none"/>
            <path d="M 45.45676803588867 3 C 39.72381210327148 3 34.1639404296875 4.12213134765625 28.93159484863281 6.335227966308594 C 23.87622833251953 8.473472595214844 19.33542633056641 11.53517150878906 15.43529510498047 15.435302734375 C 11.53517150878906 19.33543395996094 8.473464965820312 23.87622833251953 6.335227966308594 28.93160247802734 C 4.122123718261719 34.16394424438477 3 39.72381591796875 3 45.4572868347168 C 3 51.19024658203125 4.122123718261719 56.75011825561523 6.335227966308594 61.98246002197266 C 8.473464965820312 67.03782653808594 11.53517150878906 71.57862854003906 15.43529510498047 75.478759765625 C 19.33542633056641 79.37889099121094 23.87622833251953 82.44058990478516 28.93159484863281 84.57883453369141 C 34.1639404296875 86.79193115234375 39.72381210327148 87.9140625 45.45676803588867 87.9140625 C 51.18972396850586 87.9140625 56.74959564208984 86.79193115234375 61.98194122314453 84.57883453369141 C 67.03730773925781 82.44058990478516 71.57810974121094 79.37889099121094 75.47824096679688 75.478759765625 C 79.37837219238281 71.57862854003906 82.44007110595703 67.03782653808594 84.57830810546875 61.98246002197266 C 86.79141235351562 56.75011825561523 87.91353607177734 51.19024658203125 87.91353607177734 45.4567756652832 C 87.91353607177734 39.72381591796875 86.79141235351562 34.16394424438477 84.57830810546875 28.93160247802734 C 82.44007110595703 23.87622833251953 79.37837219238281 19.33543395996094 75.47824096679688 15.435302734375 C 71.57810974121094 11.53517150878906 67.03730773925781 8.473472595214844 61.98194122314453 6.335227966308594 C 56.74959564208984 4.12213134765625 51.18972396850586 3 45.45676803588867 3 M 45.45676803588867 0 C 70.56185150146484 0 90.91353607177734 20.35169219970703 90.91353607177734 45.4567756652832 L 90.91353607177734 45.4572868347168 C 90.91353607177734 70.5623779296875 70.56185150146484 90.9140625 45.45676803588867 90.9140625 C 20.3516845703125 90.9140625 0 70.5623779296875 0 45.4572868347168 L 0 45.4567756652832 C 0 20.35169219970703 20.3516845703125 0 45.45676803588867 0 Z" stroke="none" fill="#fff"/>
          </g>
        </g>
      </g>
    </g>
    <g id="Grupo_1114749" data-name="Grupo 1114749" transform="translate(827.051 6299.995)">
      <g id="Grupo_1114747" data-name="Grupo 1114747" transform="translate(0.806 0.811)">
        <g id="Grupo_1114740" data-name="Grupo 1114740" transform="translate(0)">
          <circle id="Elipse_12825" data-name="Elipse 12825" cx="26.714" cy="26.714" r="26.714" fill="#8993da"/>
          <path id="Trazado_907687" data-name="Trazado 907687" d="M40.293,60.237a26.713,26.713,0,1,1,0-52.041,26.722,26.722,0,0,0,0,52.041Z" transform="translate(-7.504 -7.503)" fill="#707dd3"/>
        </g>
        <g id="Grupo_1114746" data-name="Grupo 1114746" transform="translate(0 15.249)">
          <path id="Trazado_907688" data-name="Trazado 907688" d="M408.67,149.359h10.3v14.433h-10.3Z" transform="translate(-365.543 -149.358)" fill="#365e7d"/>
          <path id="Trazado_907689" data-name="Trazado 907689" d="M408.67,246.229h10.3v4.02h-10.3Z" transform="translate(-365.543 -235.814)" fill="#2b4d66"/>
          <path id="Trazado_907690" data-name="Trazado 907690" d="M7.5,149.359H19.067v14.433H7.5Z" transform="translate(-7.5 -149.358)" fill="#ffd064"/>
          <path id="Trazado_907691" data-name="Trazado 907691" d="M7.5,249.821H19.067v3.634H7.5Z" transform="translate(-7.5 -239.02)" fill="#ffc250"/>
          <path id="Trazado_907692" data-name="Trazado 907692" d="M77.033,167.734a3.086,3.086,0,0,1-3.086-3.086V149.356H80.12v15.292A3.086,3.086,0,0,1,77.033,167.734Z" transform="translate(-66.804 -149.355)" fill="#ffd064"/>
          <path id="Trazado_907693" data-name="Trazado 907693" d="M369.659,167.734a3.086,3.086,0,0,1-3.086-3.086V149.356h6.173v15.292A3.086,3.086,0,0,1,369.659,167.734Z" transform="translate(-327.972 -149.355)" fill="#365e7d"/>
          <path id="Trazado_907694" data-name="Trazado 907694" d="M80.122,226.4v7.01a3.086,3.086,0,0,1-6.173,0V226.4a3.086,3.086,0,1,0,6.173,0Z" transform="translate(-66.806 -218.12)" fill="#ffc250"/>
          <path id="Trazado_907695" data-name="Trazado 907695" d="M372.749,226.4v7.01a3.086,3.086,0,0,1-6.173,0V226.4a3.086,3.086,0,1,0,6.173,0Z" transform="translate(-327.975 -218.12)" fill="#2b4d66"/>
          <g id="Grupo_1114741" data-name="Grupo 1114741" transform="translate(11.567)">
            <path id="Trazado_907696" data-name="Trazado 907696" d="M142.134,149.351v16.133l-3.311,3.31-6.443,6.444a2.314,2.314,0,0,1-3.29-3.256l-1.58,1.58a2.314,2.314,0,0,1-3.285-3.261l-1.126,1.126a2.314,2.314,0,0,1-3.286-3.26l-.762.762a2.315,2.315,0,0,1-3.273-3.273l12.631-12.631-5.52-2.183a5.094,5.094,0,0,1,3.6-1.492h15.644Z" transform="translate(-115.1 -149.351)" fill="#ffece4"/>
          </g>
          <path id="Trazado_907697" data-name="Trazado 907697" d="M125.733,208.433,127,209.768l-9.92,9.92a2.312,2.312,0,0,0-.516,2.488,2.315,2.315,0,0,1-.786-3.789Z" transform="translate(-103.533 -202.082)" fill="#ffddce"/>
          <g id="Grupo_1114742" data-name="Grupo 1114742" transform="translate(27.2 15.595)">
            <path id="Trazado_907698" data-name="Trazado 907698" d="M334.673,295l.753.753a1.971,1.971,0,0,1-2.788,2.788l-.753-.753A1.971,1.971,0,0,1,334.673,295Z" transform="translate(-323.698 -294.421)" fill="#e2a770"/>
            <path id="Trazado_907699" data-name="Trazado 907699" d="M300.214,312.406l1.67,1.67a1.971,1.971,0,0,1-2.788,2.788l-1.67-1.67a1.971,1.971,0,0,1,2.788-2.788Z" transform="translate(-292.944 -309.957)" fill="#e2a770"/>
            <path id="Trazado_907700" data-name="Trazado 907700" d="M282.808,346.864l.753.753a1.971,1.971,0,1,1-2.788,2.788l-.753-.753a1.971,1.971,0,0,1,2.788-2.788Z" transform="translate(-277.409 -340.711)" fill="#e2a770"/>
            <path id="Trazado_907701" data-name="Trazado 907701" d="M263.884,379.806a1.971,1.971,0,1,1-2.788,0A1.971,1.971,0,0,1,263.884,379.806Z" transform="translate(-260.519 -370.111)" fill="#e2a770"/>
          </g>
          <g id="Grupo_1114743" data-name="Grupo 1114743" transform="translate(27.2 15.776)">
            <path id="Trazado_907702" data-name="Trazado 907702" d="M335.825,299.477a1.971,1.971,0,0,1-3.182.564l-.754-.754a1.973,1.973,0,0,1,.566-3.184,1.97,1.97,0,0,0,.4,2.224l.754.753a1.975,1.975,0,0,0,2.221.4Z" transform="translate(-323.702 -296.104)" fill="#d5985c"/>
            <path id="Trazado_907703" data-name="Trazado 907703" d="M302.281,317.815a1.971,1.971,0,0,1-3.182.564l-1.67-1.67a1.972,1.972,0,0,1,.564-3.182,1.974,1.974,0,0,0,.4,2.222l1.67,1.67a1.974,1.974,0,0,0,2.222.4Z" transform="translate(-292.946 -311.654)" fill="#d5985c"/>
            <path id="Trazado_907704" data-name="Trazado 907704" d="M283.956,351.341a1.971,1.971,0,0,1-3.182.564l-.754-.753a1.974,1.974,0,0,1,.566-3.184,1.971,1.971,0,0,0,.394,2.224l.754.754a1.973,1.973,0,0,0,2.222.4Z" transform="translate(-277.408 -342.393)" fill="#d5985c"/>
            <path id="Trazado_907705" data-name="Trazado 907705" d="M264.279,383.529a1.972,1.972,0,1,1-2.617-2.619,1.973,1.973,0,0,0,2.617,2.619Z" transform="translate(-260.518 -371.793)" fill="#d5985c"/>
          </g>
          <path id="Trazado_907706" data-name="Trazado 907706" d="M148.956,160.406a3,3,0,0,1-4.24,0l-3.036-3.036-1.664-1.664-8.912,8.912.009-4.764.02-10.5h9.641a3.309,3.309,0,0,1,2.339.969l5.843,5.843A3,3,0,0,1,148.956,160.406Z" transform="translate(-117.815 -149.354)" fill="#e2a770"/>
          <path id="Trazado_907707" data-name="Trazado 907707" d="M148.117,195.277A2.99,2.99,0,0,1,146,194.4L140.9,189.3a1.452,1.452,0,0,0-2.053,0l-.255.255-4.129,4.129a4.927,4.927,0,0,1-3.353,1.441l-.009,4.764,8.912-8.912,1.664,1.664h0l3.035,3.036a3,3,0,0,0,4.784-.74,3,3,0,0,1-1.381.336Z" transform="translate(-117.815 -184.629)" fill="#d5985c"/>
          <g id="Grupo_1114744" data-name="Grupo 1114744" transform="translate(15.615 14.585)">
            <path id="Trazado_907708" data-name="Trazado 907708" d="M157.653,285.027l.208.219a1.58,1.58,0,0,1-.029,2.2l-3.1,3.1a2.312,2.312,0,0,0-.516,2.488,2.315,2.315,0,0,1-.786-3.789Z" transform="translate(-152.757 -285.027)" fill="#ffddce"/>
            <path id="Trazado_907709" data-name="Trazado 907709" d="M198.683,304.885l.208.219a1.58,1.58,0,0,1-.029,2.2l-3.1,3.1a2.312,2.312,0,0,0-.516,2.488,2.315,2.315,0,0,1-.786-3.789Z" transform="translate(-189.376 -302.75)" fill="#ffddce"/>
            <path id="Trazado_907710" data-name="Trazado 907710" d="M243.986,320.471l.208.219a1.58,1.58,0,0,1-.029,2.2l-3.1,3.1a2.312,2.312,0,0,0-.516,2.488,2.315,2.315,0,0,1-.786-3.789Z" transform="translate(-229.809 -316.661)" fill="#ffddce"/>
          </g>
          <g id="Grupo_1114745" data-name="Grupo 1114745" transform="translate(8.82 2.475)">
            <circle id="Elipse_12826" data-name="Elipse 12826" cx="1.409" cy="1.409" r="1.409" transform="translate(31.488)" fill="#f9f6f9"/>
            <circle id="Elipse_12827" data-name="Elipse 12827" cx="1.409" cy="1.409" r="1.409" fill="#f9f6f9"/>
          </g>
        </g>
      </g>
      <g id="Grupo_1114748" data-name="Grupo 1114748" transform="translate(0 0.005)">
        <path id="Trazado_907711" data-name="Trazado 907711" d="M377.17,169.308a2.215,2.215,0,1,0-2.215-2.215A2.218,2.218,0,0,0,377.17,169.308Zm0-2.818a.6.6,0,1,1-.6.6A.6.6,0,0,1,377.17,166.49Z" transform="translate(-334.647 -147.153)"/>
        <path id="Trazado_907712" data-name="Trazado 907712" d="M86.482,167.092a2.215,2.215,0,1,0-2.215,2.215A2.218,2.218,0,0,0,86.482,167.092Zm-2.818,0a.6.6,0,1,1,.6.6A.6.6,0,0,1,83.663,167.092Z" transform="translate(-73.23 -147.153)"/>
        <path id="Trazado_907713" data-name="Trazado 907713" d="M54.235,29.688H46.386V16.868h7.849a.806.806,0,0,0,0-1.613H52.159a27.527,27.527,0,0,0-49.278,0H.806a.806.806,0,0,0,0,1.613H7.143V29.688H.806a.806.806,0,0,0-.579,1.366A27.182,27.182,0,0,0,4.106,41.993a.806.806,0,1,0,1.371-.849A25.572,25.572,0,0,1,1.887,31.3H7.143v.052a3.9,3.9,0,0,0,3.892,3.892c.06,0,.12,0,.18,0a37.838,37.838,0,0,0,1.827,6.689,27.6,27.6,0,0,0-4.377,3.362q-.732-.778-1.407-1.623A.806.806,0,0,0,6,44.675,27.522,27.522,0,0,0,54.815,31.053a.806.806,0,0,0-.581-1.365ZM53.153,31.3a25.826,25.826,0,0,1-6.778,13.99A27.62,27.62,0,0,0,42,41.932a37.933,37.933,0,0,0,1.872-6.939,3.9,3.9,0,0,0,2.515-3.64V31.3ZM17.669,35.434l4.218-4.218a.806.806,0,1,0-1.14-1.14l-4.993,4.993a1.508,1.508,0,0,1-2.133-2.133l9.384-9.384,4.129,4.13a3.8,3.8,0,1,0,5.381-5.38l-.459-.458a.806.806,0,1,0-1.139,1.142l.458.457a2.192,2.192,0,1,1-3.1,3.1l-4.7-4.7a.806.806,0,0,0-1.129-.011l-.025.025-7.493,7.493V16.868h8.835a2.485,2.485,0,0,1,1.769.732l3.1,3.1a.806.806,0,1,0,1.14-1.14l-2.7-2.7H38.6V31.04a2.776,2.776,0,0,0-3.7,1.876,2.777,2.777,0,0,0-3.6,3.6,2.773,2.773,0,0,0-1.937,3.518,2.779,2.779,0,0,0-1.957,1.653,1.508,1.508,0,0,1-.466-2.435L30.9,35.3a.806.806,0,1,0-1.14-1.14L24.213,39.7a1.508,1.508,0,1,1-2.133-2.133l4.192-4.192a.806.806,0,0,0-1.14-1.14l-5.33,5.33a1.508,1.508,0,0,1-2.133-2.132Zm27.1-4.081a2.28,2.28,0,0,1-4.56,0V16.868h4.56Zm-8.4,6.639a1.166,1.166,0,0,1-1.648,0l-1.67-1.67a1.165,1.165,0,0,1,1.647-1.648l1.67,1.67A1.167,1.167,0,0,1,36.377,37.992ZM33.93,39.956a1.165,1.165,0,0,1-1.989.824l-.753-.753a1.165,1.165,0,0,1,1.647-1.648l.754.754a1.158,1.158,0,0,1,.341.824Zm-2.788,2.788a1.164,1.164,0,1,1-.342-.825h0a1.157,1.157,0,0,1,.341.823Zm5.621-8.293A1.165,1.165,0,1,1,38.411,32.8h0l.753.753A1.165,1.165,0,1,1,37.517,35.2Zm1.039-19.2a27.172,27.172,0,0,0,2.79-1.309q.236.643.45,1.31Zm-5.909,0H28.327V1.653a11.626,11.626,0,0,1,7.356,3.953,23.367,23.367,0,0,1,4.31,6.827,25.678,25.678,0,0,1-8.1,2.821Zm-5.18,0H23.152a25.675,25.675,0,0,1-8.1-2.821,23.361,23.361,0,0,1,4.31-6.828,11.626,11.626,0,0,1,7.356-3.953Zm-9.474,0H14q.214-.666.45-1.309a27.128,27.128,0,0,0,2.792,1.31Zm3.316,25.121a3.154,3.154,0,0,0,.384.465,3.121,3.121,0,0,0,4.068.3,3.128,3.128,0,0,0,1.706,2.008V53.4c-3.092-.27-6.02-2.091-8.512-5.31a25.034,25.034,0,0,1-3.146-5.466,25.75,25.75,0,0,1,5.5-2.243Zm7.77,4.6a2.776,2.776,0,0,0,4.427-2.246h.012a2.777,2.777,0,0,0,2.686-2.066,25.787,25.787,0,0,1,4.533,1.955A25.027,25.027,0,0,1,36.828,48.1c-2.49,3.211-5.414,5.028-8.5,5.3Zm8.718-5.467a2.769,2.769,0,0,0,1.284-2.354h.012a2.771,2.771,0,0,0,2.713-2.188,3.861,3.861,0,0,0,1.135.264,36.245,36.245,0,0,1-1.6,5.88,27.462,27.462,0,0,0-3.54-1.6Zm5.688-24.256q-.335-1.094-.726-2.131a27.632,27.632,0,0,0,4.37-3.367,25.939,25.939,0,0,1,3.966,5.5Zm-1.2-9.523a26.073,26.073,0,0,1,3.7,2.886,26.022,26.022,0,0,1-3.843,2.987,24.848,24.848,0,0,0-4.533-7.1,17.051,17.051,0,0,0-2.011-1.834A25.763,25.763,0,0,1,41.536,5.733Zm-28.032,0A25.756,25.756,0,0,1,20.193,2.67,17.055,17.055,0,0,0,18.183,4.5a24.837,24.837,0,0,0-4.533,7.1A26.036,26.036,0,0,1,9.807,8.619,26.073,26.073,0,0,1,13.5,5.733ZM4.7,15.255a25.936,25.936,0,0,1,3.966-5.5,27.629,27.629,0,0,0,4.371,3.367q-.391,1.036-.726,2.13Zm4.058,16.1V16.867h4.56V30.961l-.835.835a3.1,3.1,0,0,0-.881,1.766,2.28,2.28,0,0,1-2.844-2.209Zm4.4,5.37a3.125,3.125,0,0,0,2.49.246,3.125,3.125,0,0,0,2.31,2.554,27.39,27.39,0,0,0-3.5,1.587,35.524,35.524,0,0,1-1.3-4.387ZM9.806,46.432a26.005,26.005,0,0,1,3.852-2.986,26.493,26.493,0,0,0,3.27,5.626A18.428,18.428,0,0,0,20.18,52.38,25.72,25.72,0,0,1,9.806,46.432Zm25.069,5.936A18.43,18.43,0,0,0,38.1,49.086a26.485,26.485,0,0,0,3.28-5.638,26.009,26.009,0,0,1,3.851,2.982c-.124.116-.249.232-.375.346a25.849,25.849,0,0,1-9.983,5.592Z" transform="translate(0 -0.005)"/>
      </g>
    </g>
  </g>
</svg>
