<svg xmlns="http://www.w3.org/2000/svg" xmlns:xlink="http://www.w3.org/1999/xlink" width="108.914" height="108.914" viewBox="0 0 108.914 108.914">
  <defs>
    <filter id="Trazado_874925" x="0" y="0" width="108.914" height="108.914" filterUnits="userSpaceOnUse">
      <feOffset dy="3" input="SourceAlpha"/>
      <feGaussianBlur stdDeviation="3" result="blur"/>
      <feFlood flood-opacity="0.161"/>
      <feComposite operator="in" in2="blur"/>
      <feComposite in="SourceGraphic"/>
    </filter>
  </defs>
  <g id="Grupo_1114752" data-name="Grupo 1114752" transform="translate(-1114.051 -6332)">
    <g id="Grupo_1111317" data-name="Grupo 1111317" transform="translate(314.551 4385.789)">
      <g id="Grupo_1109835" data-name="Grupo 1109835">
        <g id="Grupo_1107913" data-name="Grupo 1107913" transform="translate(808.5 1952.211)">
          <g transform="matrix(1, 0, 0, 1, -9, -6)" filter="url(#Trazado_874925)">
            <g id="Trazado_874925-2" data-name="Trazado 874925" transform="translate(9 6)" fill="#fd9826" opacity="0.859">
              <path d="M 45.45676803588867 89.41407012939453 C 39.52198028564453 89.41407012939453 33.76551818847656 88.25206756591797 28.34726715087891 85.96034240722656 C 23.11311721801758 83.74648284912109 18.41204261779785 80.57682800292969 14.37464332580566 76.5394287109375 C 10.33724308013916 72.50202941894531 7.167593002319336 67.80095672607422 4.953730583190918 62.56679534912109 C 2.662005424499512 57.14855575561523 1.500005483627319 51.39208221435547 1.500005483627319 45.45729446411133 C 1.500005483627319 39.52198028564453 2.662005424499512 33.76551818847656 4.953730583190918 28.34726905822754 C 7.167593002319336 23.11310577392578 10.33724308013916 18.41203117370605 14.37464332580566 14.37464332580566 C 18.41204261779785 10.33724403381348 23.11311721801758 7.167593955993652 28.34726715087891 4.953731060028076 C 33.76551818847656 2.662006139755249 39.52198028564453 1.500006198883057 45.45676803588867 1.500006198883057 C 51.39155578613281 1.500006198883057 57.14802932739258 2.662006139755249 62.56626892089844 4.953731060028076 C 67.80043029785156 7.167593955993652 72.50150299072266 10.33724403381348 76.53890228271484 14.37464332580566 C 80.57630920410156 18.41203117370605 83.74595642089844 23.11310577392578 85.95981597900391 28.34726905822754 C 88.25154113769531 33.76551818847656 89.41354370117188 39.52198028564453 89.41354370117188 45.45676803588867 C 89.41354370117188 51.39208221435547 88.25154113769531 57.14855575561523 85.95981597900391 62.56679534912109 C 83.74595642089844 67.80095672607422 80.57630920410156 72.50202941894531 76.53890228271484 76.5394287109375 C 72.50150299072266 80.57682800292969 67.80043029785156 83.74648284912109 62.56626892089844 85.96034240722656 C 57.14802932739258 88.25206756591797 51.39155578613281 89.41407012939453 45.45676803588867 89.41407012939453 Z" stroke="none"/>
              <path d="M 45.45676803588867 3 C 39.72381210327148 3 34.1639404296875 4.12213134765625 28.93159484863281 6.335227966308594 C 23.87622833251953 8.473472595214844 19.33542633056641 11.53517150878906 15.43529510498047 15.435302734375 C 11.53517150878906 19.33543395996094 8.473464965820312 23.87622833251953 6.335227966308594 28.93160247802734 C 4.122123718261719 34.16394424438477 3 39.72381591796875 3 45.4572868347168 C 3 51.19024658203125 4.122123718261719 56.75011825561523 6.335227966308594 61.98246002197266 C 8.473464965820312 67.03782653808594 11.53517150878906 71.57862854003906 15.43529510498047 75.478759765625 C 19.33542633056641 79.37889099121094 23.87622833251953 82.44058990478516 28.93159484863281 84.57883453369141 C 34.1639404296875 86.79193115234375 39.72381210327148 87.9140625 45.45676803588867 87.9140625 C 51.18972396850586 87.9140625 56.74959564208984 86.79193115234375 61.98194122314453 84.57883453369141 C 67.03730773925781 82.44058990478516 71.57810974121094 79.37889099121094 75.47824096679688 75.478759765625 C 79.37837219238281 71.57862854003906 82.44007110595703 67.03782653808594 84.57830810546875 61.98246002197266 C 86.79141235351562 56.75011825561523 87.91353607177734 51.19024658203125 87.91353607177734 45.4567756652832 C 87.91353607177734 39.72381591796875 86.79141235351562 34.16394424438477 84.57830810546875 28.93160247802734 C 82.44007110595703 23.87622833251953 79.37837219238281 19.33543395996094 75.47824096679688 15.435302734375 C 71.57810974121094 11.53517150878906 67.03730773925781 8.473472595214844 61.98194122314453 6.335227966308594 C 56.74959564208984 4.12213134765625 51.18972396850586 3 45.45676803588867 3 M 45.45676803588867 0 C 70.56185150146484 0 90.91353607177734 20.35169219970703 90.91353607177734 45.4567756652832 L 90.91353607177734 45.4572868347168 C 90.91353607177734 70.5623779296875 70.56185150146484 90.9140625 45.45676803588867 90.9140625 C 20.3516845703125 90.9140625 0 70.5623779296875 0 45.4572868347168 L 0 45.4567756652832 C 0 20.35169219970703 20.3516845703125 0 45.45676803588867 0 Z" stroke="none" fill="#fff"/>
            </g>
          </g>
          <g id="Trazado_874923" data-name="Trazado 874923" transform="translate(0 0)" fill="none">
            <path d="M45.457,0A45.457,45.457,0,0,1,90.914,45.457h0A45.457,45.457,0,0,1,0,45.457H0A45.457,45.457,0,0,1,45.457,0Z" stroke="none"/>
            <path d="M 45.45676803588867 3 C 39.72381210327148 3 34.1639404296875 4.12213134765625 28.93159484863281 6.335227966308594 C 23.87622833251953 8.473472595214844 19.33542633056641 11.53517150878906 15.43529510498047 15.435302734375 C 11.53517150878906 19.33543395996094 8.473464965820312 23.87622833251953 6.335227966308594 28.93160247802734 C 4.122123718261719 34.16394424438477 3 39.72381591796875 3 45.4572868347168 C 3 51.19024658203125 4.122123718261719 56.75011825561523 6.335227966308594 61.98246002197266 C 8.473464965820312 67.03782653808594 11.53517150878906 71.57862854003906 15.43529510498047 75.478759765625 C 19.33542633056641 79.37889099121094 23.87622833251953 82.44058990478516 28.93159484863281 84.57883453369141 C 34.1639404296875 86.79193115234375 39.72381210327148 87.9140625 45.45676803588867 87.9140625 C 51.18972396850586 87.9140625 56.74959564208984 86.79193115234375 61.98194122314453 84.57883453369141 C 67.03730773925781 82.44058990478516 71.57810974121094 79.37889099121094 75.47824096679688 75.478759765625 C 79.37837219238281 71.57862854003906 82.44007110595703 67.03782653808594 84.57830810546875 61.98246002197266 C 86.79141235351562 56.75011825561523 87.91353607177734 51.19024658203125 87.91353607177734 45.4567756652832 C 87.91353607177734 39.72381591796875 86.79141235351562 34.16394424438477 84.57830810546875 28.93160247802734 C 82.44007110595703 23.87622833251953 79.37837219238281 19.33543395996094 75.47824096679688 15.435302734375 C 71.57810974121094 11.53517150878906 67.03730773925781 8.473472595214844 61.98194122314453 6.335227966308594 C 56.74959564208984 4.12213134765625 51.18972396850586 3 45.45676803588867 3 M 45.45676803588867 0 C 70.56185150146484 0 90.91353607177734 20.35169219970703 90.91353607177734 45.4567756652832 L 90.91353607177734 45.4572868347168 C 90.91353607177734 70.5623779296875 70.56185150146484 90.9140625 45.45676803588867 90.9140625 C 20.3516845703125 90.9140625 0 70.5623779296875 0 45.4572868347168 L 0 45.4567756652832 C 0 20.35169219970703 20.3516845703125 0 45.45676803588867 0 Z" stroke="none" fill="#fff"/>
          </g>
        </g>
      </g>
    </g>
    <g id="Grupo_1114751" data-name="Grupo 1114751" transform="translate(1142.051 6357)">
      <rect id="Rectángulo_406654" data-name="Rectángulo 406654" width="13" height="7" rx="2" transform="translate(2.586 25.586)" fill="#62b5e8"/>
      <path id="Trazado_907714" data-name="Trazado 907714" d="M4.662,34.323V31A1.662,1.662,0,0,0,3,32.662v3.323a1.662,1.662,0,0,0,1.662,1.662h9.97a1.662,1.662,0,0,0,1.662-1.662H6.323A1.662,1.662,0,0,1,4.662,34.323Z" transform="translate(-0.508 -5.245)" fill="#44a7d8"/>
      <path id="Trazado_907715" data-name="Trazado 907715" d="M32,15H51.939V38.263H32Z" transform="translate(-5.414 -2.538)" fill="#7a838b"/>
      <path id="Trazado_907716" data-name="Trazado 907716" d="M32,15h2.492V38.263H32Z" transform="translate(-5.414 -2.538)" fill="#5d6972"/>
      <path id="Trazado_907717" data-name="Trazado 907717" d="M51.446,37.118l-9-2.118H39.124l-9,2.118A6.646,6.646,0,0,0,25,43.587v4.706h4.985v9.97h21.6v-9.97h4.985V43.587a6.646,6.646,0,0,0-5.124-6.469Z" transform="translate(-4.23 -5.922)" fill="#f96464"/>
      <path id="Trazado_907718" data-name="Trazado 907718" d="M32.617,37.118l9-2.118H39.124l-9,2.118A6.646,6.646,0,0,0,25,43.587v4.706h2.492V43.587a6.646,6.646,0,0,1,5.124-6.469Z" transform="translate(-4.23 -5.922)" fill="#ea5050"/>
      <path id="Trazado_907719" data-name="Trazado 907719" d="M45.323,33.985l-.487.487a1.662,1.662,0,0,1-2.35,0L42,33.985V29h3.323Z" transform="translate(-7.106 -4.907)" fill="#f4b19f"/>
      <path id="Trazado_907720" data-name="Trazado 907720" d="M42.477,27.616A7.477,7.477,0,0,1,35,20.139V11H49.955v9.139A7.477,7.477,0,0,1,42.477,27.616Z" transform="translate(-5.922 -1.861)" fill="#f7d1c6"/>
      <path id="Trazado_907721" data-name="Trazado 907721" d="M37.492,20.139V11H35v9.139A7.437,7.437,0,0,0,43.723,27.5a7.473,7.473,0,0,1-6.231-7.365Z" transform="translate(-5.922 -1.861)" fill="#f4b19f"/>
      <path id="Trazado_907722" data-name="Trazado 907722" d="M33.662,17h1.662v4.985h-.831A2.492,2.492,0,0,1,32,19.492v-.831A1.662,1.662,0,0,1,33.662,17Z" transform="translate(-5.414 -2.876)" fill="#f4b19f"/>
      <path id="Trazado_907723" data-name="Trazado 907723" d="M2.492,0h.831V4.985H1.662A1.662,1.662,0,0,1,0,3.323V2.492A2.492,2.492,0,0,1,2.492,0Z" transform="translate(46.525 19.109) rotate(180)" fill="#f7d1c6"/>
      <path id="Trazado_907724" data-name="Trazado 907724" d="M49.278,43H34.323L31,59.616H52.6Z" transform="translate(-5.245 -7.275)" fill="#ffb743"/>
      <path id="Trazado_907725" data-name="Trazado 907725" d="M34.78,45.951a1.652,1.652,0,0,0-.814-.781L31,59.983h6.646V51.675Z" transform="translate(-5.245 -7.642)" fill="#f4a83b"/>
      <path id="Trazado_907726" data-name="Trazado 907726" d="M1,53H30.909v8.308H1Z" transform="translate(-0.169 -8.967)" fill="#62b5e8"/>
      <path id="Trazado_907727" data-name="Trazado 907727" d="M26.559,45H5.35a1.662,1.662,0,0,0-1.486.919L1,51.646H30.909l-2.864-5.728A1.662,1.662,0,0,0,26.559,45Z" transform="translate(-0.169 -7.614)" fill="#62b5e8"/>
      <path id="Trazado_907728" data-name="Trazado 907728" d="M1,53H3.492v8.308H1Z" transform="translate(-0.169 -8.967)" fill="#44a7d8"/>
      <path id="Trazado_907729" data-name="Trazado 907729" d="M7.846,45a1.662,1.662,0,0,0-1.487.922L3.492,51.646H1l2.866-5.724A1.662,1.662,0,0,1,5.353,45Z" transform="translate(-0.169 -7.614)" fill="#44a7d8"/>
      <path id="Trazado_907730" data-name="Trazado 907730" d="M10.662,35a1.662,1.662,0,0,1,1.662,1.662v6.646H9V36.662A1.662,1.662,0,0,1,10.662,35Z" transform="translate(-1.523 -5.922)" fill="#7a838b"/>
      <path id="Trazado_907731" data-name="Trazado 907731" d="M57,51h4.985v9.97H57Z" transform="translate(-9.644 -8.629)" fill="#f7d1c6"/>
      <path id="Trazado_907732" data-name="Trazado 907732" d="M51.939,10.97v3.323a4.034,4.034,0,0,1-3.607-2.229L46.955,9.308l-4.486,2.448a20.77,20.77,0,0,1-9.949,2.536H32V10.97a9.97,9.97,0,0,1,19.939,0Z" transform="translate(-5.414 -0.169)" fill="#7a838b"/>
      <path id="Trazado_907733" data-name="Trazado 907733" d="M34.492,10.969a9.965,9.965,0,0,1,8.723-9.887A9.909,9.909,0,0,0,32,10.969v3.323h.519c.665,0,1.318-.042,1.973-.1Z" transform="translate(-5.414 -0.168)" fill="#5d6972"/>
      <path id="Trazado_907734" data-name="Trazado 907734" d="M47.408,30.387l-.052-.012V10.8a10.8,10.8,0,1,0-21.6,0V30.375l-.052.012a7.428,7.428,0,0,0-5.681,6.169H11.631V33.232h2.492a2.492,2.492,0,0,0,2.492-2.492V27.417a2.492,2.492,0,0,0-2.492-2.492H4.154a2.492,2.492,0,0,0-2.492,2.492V30.74a2.492,2.492,0,0,0,2.492,2.492H6.646v3.323H5.181a2.48,2.48,0,0,0-2.229,1.377L.087,43.662A.831.831,0,0,0,0,44.033v8.308a.831.831,0,0,0,.831.831h51.51a.831.831,0,0,0,.831-.831V37.666a7.451,7.451,0,0,0-5.764-7.279ZM27.417,10.8a9.139,9.139,0,0,1,18.278,0v2.384a3.182,3.182,0,0,1-2.033-1.662L42.288,8.768a.831.831,0,0,0-1.142-.358L36.66,10.858a20,20,0,0,1-9.244,2.435Zm9.139,14.124a6.654,6.654,0,0,1-6.646-6.646v-3.51a21.664,21.664,0,0,0,7.54-2.451l3.734-2.036,1,1.986A4.866,4.866,0,0,0,43.2,13.632v4.646A6.654,6.654,0,0,1,36.556,24.924Zm.831,1.619v2.191l-.243.243a.831.831,0,0,1-1.175,0l-.243-.243V26.544a8.166,8.166,0,0,0,1.662,0Zm-2.593,3.609a2.492,2.492,0,0,0,3.524,0l.16-.16L43.2,31.106v3.788H29.909V31.106l4.725-1.113Zm4.255-1.732V26.2a8.333,8.333,0,0,0,5.659-6.332,3.3,3.3,0,0,0,.988-.393V29.984Zm5.816-10.366v-3.1a.831.831,0,0,1,.831.831v.831A1.662,1.662,0,0,1,44.864,18.054ZM27.417,15.785a.831.831,0,0,1,.831-.831v3.1a1.662,1.662,0,0,1-.831-1.438Zm0,3.692a3.3,3.3,0,0,0,.988.393A8.333,8.333,0,0,0,34.063,26.2V28.42l-6.646,1.564ZM26.087,32l2.16-.508v4.146l-.293,1.466a2.477,2.477,0,0,0-1.564-.552H21.719A5.767,5.767,0,0,1,26.087,32ZM4.154,31.571a.831.831,0,0,1-.831-.831V27.417a.831.831,0,0,1,.831-.831h9.97a.831.831,0,0,1,.831.831V30.74a.831.831,0,0,1-.831.831H11.631V30.74a2.492,2.492,0,0,0-4.985,0v.831ZM9.97,30.74v5.816H8.308V30.74a.831.831,0,0,1,1.662,0ZM4.438,38.677a.825.825,0,0,1,.743-.459H26.39a.825.825,0,0,1,.743.459L29.4,43.2H2.175ZM29.909,51.51H1.662V44.864H29.909Zm1.662,0V44.033a.831.831,0,0,0-.083-.371l-2.243-4.493.515-2.613H43.352L46.343,51.51Zm19.939,0H48.187V43.2H51.51Zm0-9.97H47.356a.831.831,0,0,0-.831.831V43.95l-1.662-8.308V31.5l2.16.508a5.8,5.8,0,0,1,4.486,5.661Z" transform="translate(0 0)"/>
      <path id="Trazado_907735" data-name="Trazado 907735" d="M38.831,18a.831.831,0,0,0-.831.831v.831a.831.831,0,0,0,1.662,0v-.831A.831.831,0,0,0,38.831,18Z" transform="translate(-6.429 -3.045)"/>
      <path id="Trazado_907736" data-name="Trazado 907736" d="M49.662,19.662v-.831a.831.831,0,0,0-1.662,0v.831a.831.831,0,0,0,1.662,0Z" transform="translate(-8.121 -3.045)"/>
      <path id="Trazado_907737" data-name="Trazado 907737" d="M44.567,26.243a1.521,1.521,0,0,1-2.148,0,.831.831,0,1,0-1.175,1.175,3.183,3.183,0,0,0,4.5,0,.831.831,0,1,0-1.175-1.175Z" transform="translate(-6.937 -4.399)"/>
    </g>
  </g>
</svg>
