<svg xmlns="http://www.w3.org/2000/svg" xmlns:xlink="http://www.w3.org/1999/xlink" width="108.914" height="108.914" viewBox="0 0 108.914 108.914">
  <defs>
    <filter id="Trazado_874925" x="0" y="0" width="108.914" height="108.914" filterUnits="userSpaceOnUse">
      <feOffset dy="3" input="SourceAlpha"/>
      <feGaussianBlur stdDeviation="3" result="blur"/>
      <feFlood flood-opacity="0.161"/>
      <feComposite operator="in" in2="blur"/>
      <feComposite in="SourceGraphic"/>
    </filter>
  </defs>
  <g id="Grupo_1114763" data-name="Grupo 1114763" transform="translate(6925 5304)">
    <g id="Grupo_1112878" data-name="Grupo 1112878" transform="translate(-7724.5 -7250.211)">
      <g id="Grupo_1109835" data-name="Grupo 1109835">
        <g id="Grupo_1107913" data-name="Grupo 1107913" transform="translate(808.5 1952.211)">
          <g transform="matrix(1, 0, 0, 1, -9, -6)" filter="url(#Trazado_874925)">
            <g id="Trazado_874925-2" data-name="Trazado 874925" transform="translate(9 6)" fill="#fd9826" opacity="0.859">
              <path d="M 45.45676803588867 89.41407012939453 C 39.52198028564453 89.41407012939453 33.76551818847656 88.25206756591797 28.34726715087891 85.96034240722656 C 23.11311721801758 83.74648284912109 18.41204261779785 80.57682800292969 14.37464332580566 76.5394287109375 C 10.33724308013916 72.50202941894531 7.167593002319336 67.80095672607422 4.953730583190918 62.56679534912109 C 2.662005424499512 57.14855575561523 1.500005483627319 51.39208221435547 1.500005483627319 45.45729446411133 C 1.500005483627319 39.52198028564453 2.662005424499512 33.76551818847656 4.953730583190918 28.34726905822754 C 7.167593002319336 23.11310577392578 10.33724308013916 18.41203117370605 14.37464332580566 14.37464332580566 C 18.41204261779785 10.33724403381348 23.11311721801758 7.167593955993652 28.34726715087891 4.953731060028076 C 33.76551818847656 2.662006139755249 39.52198028564453 1.500006198883057 45.45676803588867 1.500006198883057 C 51.39155578613281 1.500006198883057 57.14802932739258 2.662006139755249 62.56626892089844 4.953731060028076 C 67.80043029785156 7.167593955993652 72.50150299072266 10.33724403381348 76.53890228271484 14.37464332580566 C 80.57630920410156 18.41203117370605 83.74595642089844 23.11310577392578 85.95981597900391 28.34726905822754 C 88.25154113769531 33.76551818847656 89.41354370117188 39.52198028564453 89.41354370117188 45.45676803588867 C 89.41354370117188 51.39208221435547 88.25154113769531 57.14855575561523 85.95981597900391 62.56679534912109 C 83.74595642089844 67.80095672607422 80.57630920410156 72.50202941894531 76.53890228271484 76.5394287109375 C 72.50150299072266 80.57682800292969 67.80043029785156 83.74648284912109 62.56626892089844 85.96034240722656 C 57.14802932739258 88.25206756591797 51.39155578613281 89.41407012939453 45.45676803588867 89.41407012939453 Z" stroke="none"/>
              <path d="M 45.45676803588867 3 C 39.72381210327148 3 34.1639404296875 4.12213134765625 28.93159484863281 6.335227966308594 C 23.87622833251953 8.473472595214844 19.33542633056641 11.53517150878906 15.43529510498047 15.435302734375 C 11.53517150878906 19.33543395996094 8.473464965820312 23.87622833251953 6.335227966308594 28.93160247802734 C 4.122123718261719 34.16394424438477 3 39.72381591796875 3 45.4572868347168 C 3 51.19024658203125 4.122123718261719 56.75011825561523 6.335227966308594 61.98246002197266 C 8.473464965820312 67.03782653808594 11.53517150878906 71.57862854003906 15.43529510498047 75.478759765625 C 19.33542633056641 79.37889099121094 23.87622833251953 82.44058990478516 28.93159484863281 84.57883453369141 C 34.1639404296875 86.79193115234375 39.72381210327148 87.9140625 45.45676803588867 87.9140625 C 51.18972396850586 87.9140625 56.74959564208984 86.79193115234375 61.98194122314453 84.57883453369141 C 67.03730773925781 82.44058990478516 71.57810974121094 79.37889099121094 75.47824096679688 75.478759765625 C 79.37837219238281 71.57862854003906 82.44007110595703 67.03782653808594 84.57830810546875 61.98246002197266 C 86.79141235351562 56.75011825561523 87.91353607177734 51.19024658203125 87.91353607177734 45.4567756652832 C 87.91353607177734 39.72381591796875 86.79141235351562 34.16394424438477 84.57830810546875 28.93160247802734 C 82.44007110595703 23.87622833251953 79.37837219238281 19.33543395996094 75.47824096679688 15.435302734375 C 71.57810974121094 11.53517150878906 67.03730773925781 8.473472595214844 61.98194122314453 6.335227966308594 C 56.74959564208984 4.12213134765625 51.18972396850586 3 45.45676803588867 3 M 45.45676803588867 0 C 70.56185150146484 0 90.91353607177734 20.35169219970703 90.91353607177734 45.4567756652832 L 90.91353607177734 45.4572868347168 C 90.91353607177734 70.5623779296875 70.56185150146484 90.9140625 45.45676803588867 90.9140625 C 20.3516845703125 90.9140625 0 70.5623779296875 0 45.4572868347168 L 0 45.4567756652832 C 0 20.35169219970703 20.3516845703125 0 45.45676803588867 0 Z" stroke="none" fill="#fff"/>
            </g>
          </g>
          <g id="Trazado_874923" data-name="Trazado 874923" transform="translate(0 0)" fill="none">
            <path d="M45.457,0A45.457,45.457,0,0,1,90.914,45.457h0A45.457,45.457,0,0,1,0,45.457H0A45.457,45.457,0,0,1,45.457,0Z" stroke="none"/>
            <path d="M 45.45676803588867 3 C 39.72381210327148 3 34.1639404296875 4.12213134765625 28.93159484863281 6.335227966308594 C 23.87622833251953 8.473472595214844 19.33542633056641 11.53517150878906 15.43529510498047 15.435302734375 C 11.53517150878906 19.33543395996094 8.473464965820312 23.87622833251953 6.335227966308594 28.93160247802734 C 4.122123718261719 34.16394424438477 3 39.72381591796875 3 45.4572868347168 C 3 51.19024658203125 4.122123718261719 56.75011825561523 6.335227966308594 61.98246002197266 C 8.473464965820312 67.03782653808594 11.53517150878906 71.57862854003906 15.43529510498047 75.478759765625 C 19.33542633056641 79.37889099121094 23.87622833251953 82.44058990478516 28.93159484863281 84.57883453369141 C 34.1639404296875 86.79193115234375 39.72381210327148 87.9140625 45.45676803588867 87.9140625 C 51.18972396850586 87.9140625 56.74959564208984 86.79193115234375 61.98194122314453 84.57883453369141 C 67.03730773925781 82.44058990478516 71.57810974121094 79.37889099121094 75.47824096679688 75.478759765625 C 79.37837219238281 71.57862854003906 82.44007110595703 67.03782653808594 84.57830810546875 61.98246002197266 C 86.79141235351562 56.75011825561523 87.91353607177734 51.19024658203125 87.91353607177734 45.4567756652832 C 87.91353607177734 39.72381591796875 86.79141235351562 34.16394424438477 84.57830810546875 28.93160247802734 C 82.44007110595703 23.87622833251953 79.37837219238281 19.33543395996094 75.47824096679688 15.435302734375 C 71.57810974121094 11.53517150878906 67.03730773925781 8.473472595214844 61.98194122314453 6.335227966308594 C 56.74959564208984 4.12213134765625 51.18972396850586 3 45.45676803588867 3 M 45.45676803588867 0 C 70.56185150146484 0 90.91353607177734 20.35169219970703 90.91353607177734 45.4567756652832 L 90.91353607177734 45.4572868347168 C 90.91353607177734 70.5623779296875 70.56185150146484 90.9140625 45.45676803588867 90.9140625 C 20.3516845703125 90.9140625 0 70.5623779296875 0 45.4572868347168 L 0 45.4567756652832 C 0 20.35169219970703 20.3516845703125 0 45.45676803588867 0 Z" stroke="none" fill="#fff"/>
          </g>
        </g>
      </g>
    </g>
    <g id="Grupo_1114762" data-name="Grupo 1114762" transform="translate(-6936.922 -5281)">
      <g id="Grupo_1114760" data-name="Grupo 1114760" transform="translate(43.752 0.83)">
        <path id="Trazado_907738" data-name="Trazado 907738" d="M95.853,351.275,94.2,341.251a8.193,8.193,0,0,0-4.88-6.206l-6.591-2.8H63.561l-6.591,2.8a8.193,8.193,0,0,0-4.88,6.206l-1.655,10.024Z" transform="translate(-50.435 -296.371)" fill="#d6f3ff"/>
        <g id="Grupo_1114759" data-name="Grupo 1114759" transform="translate(0)">
          <path id="Trazado_907739" data-name="Trazado 907739" d="M395.242,453.03l-1.789-3.909,4.048-2.484,3.459,6.393Z" transform="translate(-355.56 -398.126)" fill="#9ee3ff"/>
          <g id="Grupo_1114758" data-name="Grupo 1114758">
            <g id="Grupo_1114754" data-name="Grupo 1114754" transform="translate(9.428)">
              <path id="Trazado_907740" data-name="Trazado 907740" d="M160.756,18.221l1.222-2.753a3.778,3.778,0,0,0-2.377-5.16l-8.593-2.52a6.987,6.987,0,0,0-3.934,0l-8.593,2.52a3.778,3.778,0,0,0-2.377,5.16l1.222,2.753,12.12,1.639Z" transform="translate(-135.777 -7.506)" fill="#344db3"/>
              <g id="Grupo_1114753" data-name="Grupo 1114753" transform="translate(3.698 32.066)">
                <path id="Trazado_907741" data-name="Trazado 907741" d="M172.007,297.775l-2.751,3.808,7.1,4.255,2.463-5.98Z" transform="translate(-169.256 -297.775)" fill="#9ee3ff"/>
                <path id="Trazado_907742" data-name="Trazado 907742" d="M262.669,297.775l2.751,3.808-7.1,4.255-2.463-5.98Z" transform="translate(-246.287 -297.775)" fill="#9ee3ff"/>
              </g>
              <path id="Trazado_907743" data-name="Trazado 907743" d="M168.785,152.083l-4.89,1.822a6.794,6.794,0,0,1-4.746,0l-4.89-1.822a6.857,6.857,0,0,1-4.452-6.43V134.177h23.43v11.476A6.857,6.857,0,0,1,168.785,152.083Z" transform="translate(-148.257 -120.184)" fill="#fdcfa4"/>
              <path id="Trazado_907744" data-name="Trazado 907744" d="M245.36,134.177v11.476a6.857,6.857,0,0,1-4.452,6.43l-4.89,1.822c-.054.02-.109.038-.164.057a6.792,6.792,0,0,0,4.583-.057l4.89-1.822a6.857,6.857,0,0,0,4.452-6.43V134.177Z" transform="translate(-224.798 -120.184)" fill="#fdc590"/>
              <path id="Trazado_907745" data-name="Trazado 907745" d="M149.807,120.978a4.286,4.286,0,0,0,4.276,4.3h14.878a4.287,4.287,0,0,0,4.276-4.3l-11.715-1.639Z" transform="translate(-148.257 -106.985)" fill="#344db3"/>
              <path id="Trazado_907746" data-name="Trazado 907746" d="M238.062,119.339l-2.209.309,9.506,1.33a4.286,4.286,0,0,1-4.276,4.3H245.5a4.286,4.286,0,0,0,4.276-4.3Z" transform="translate(-224.798 -106.985)" fill="#1c37a6"/>
              <path id="Trazado_907747" data-name="Trazado 907747" d="M149.807,104.5h23.43v3.278h-23.43Z" transform="translate(-148.257 -93.786)" fill="#ffbe00"/>
              <path id="Trazado_907748" data-name="Trazado 907748" d="M248.622,10.309l-8.593-2.52a6.987,6.987,0,0,0-3.934,0l-.243.071,8.351,2.449a3.778,3.778,0,0,1,2.377,5.16l-1.222,2.753h4.419L251,15.469A3.778,3.778,0,0,0,248.622,10.309Z" transform="translate(-224.798 -7.506)" fill="#1c37a6"/>
              <path id="Trazado_907749" data-name="Trazado 907749" d="M321.9,104.5h4.419v3.278H321.9Z" transform="translate(-301.339 -93.786)" fill="#f0b300"/>
              <path id="Trazado_907750" data-name="Trazado 907750" d="M233.556,322.616l2.463-5.98,2.463,5.98-.917,2.538h-2.9Z" transform="translate(-222.754 -282.486)" fill="#ffbe00"/>
            </g>
            <g id="Grupo_1114757" data-name="Grupo 1114757" transform="translate(0 41.074)">
              <path id="Trazado_907751" data-name="Trazado 907751" d="M56.151,453.03l1.789-3.909-4.048-2.484-3.459,6.393Z" transform="translate(-50.434 -439.201)" fill="#9ee3ff"/>
              <path id="Trazado_907752" data-name="Trazado 907752" d="M78.837,430.113l-.928,1.9a2.366,2.366,0,0,0,.178,2.382l.044.064a2.366,2.366,0,0,0,4.035-.23l2.311-4.334" transform="translate(-74.66 -424.307)" fill="#fdcfa4"/>
              <path id="Trazado_907753" data-name="Trazado 907753" d="M378.171,430.113l.928,1.9a2.366,2.366,0,0,1-.178,2.382l-.044.064a2.366,2.366,0,0,1-4.035-.23l-2.311-4.334" transform="translate(-336.948 -424.307)" fill="#fdcfa4"/>
              <g id="Grupo_1114755" data-name="Grupo 1114755" transform="translate(5.341)">
                <path id="Trazado_907754" data-name="Trazado 907754" d="M133.484,393.034a17.835,17.835,0,0,0-34.7,0m3.506,0a14.483,14.483,0,0,1,12.153-10.226v8.4a8.6,8.6,0,0,1-.2,1.825m3.778,0a8.6,8.6,0,0,1-.2-1.825v-8.4a14.483,14.483,0,0,1,12.153,10.226" transform="translate(-98.78 -379.322)" fill="#8986a6"/>
              </g>
              <g id="Grupo_1114756" data-name="Grupo 1114756" transform="translate(4.177 1.651)">
                <path id="Trazado_907755" data-name="Trazado 907755" d="M88.244,398.426s2.784,3.073,5.2,1.8,2.265-5.4,1.276-5.84C93.336,393.767,89.6,395.743,88.244,398.426Z" transform="translate(-88.244 -394.272)" fill="#fdcfa4"/>
                <path id="Trazado_907756" data-name="Trazado 907756" d="M366.013,398.426s-2.784,3.073-5.2,1.8-2.265-5.4-1.276-5.84C360.922,393.767,364.659,395.743,366.013,398.426Z" transform="translate(-328.968 -394.272)" fill="#fdcfa4"/>
              </g>
            </g>
          </g>
        </g>
      </g>
      <g id="Grupo_1114761" data-name="Grupo 1114761" transform="translate(42.922 0)">
        <path id="Trazado_907757" data-name="Trazado 907757" d="M89.988,55.6,88.333,45.575a9.062,9.062,0,0,0-2.8-5.174c-.763-.7-1.919.487-1.121,1.22A7.4,7.4,0,0,1,86.7,45.845l.858,5.2c-.659-1.217-1.21-2.475-1.842-3.707a9.262,9.262,0,0,0-3.546-3.6c-.759-.447-2.67-1.423-4.008-.825a2.091,2.091,0,0,0-1.033,1.524,18.7,18.7,0,0,0-7.318-3.053l6.279-3.761L80.5,39.5a.829.829,0,0,0,.648-1.525l-4.615-1.961-1.979-2.739A7.724,7.724,0,0,0,78.988,26.3V11.72l1.151-2.592a4.658,4.658,0,0,0-2.9-6.291L68.645.317a7.8,7.8,0,0,0-4.4,0l-3.88,1.125a.829.829,0,0,0,.461,1.591l3.883-1.125a6.147,6.147,0,0,1,3.467,0l8.593,2.52a2.978,2.978,0,0,1,1.853,4.028l-1,2.26H55.268l-1-2.26a2.949,2.949,0,0,1,1.853-4.028.829.829,0,0,0-.466-1.59,4.606,4.606,0,0,0-2.9,6.291L53.9,11.72V26.3a7.724,7.724,0,0,0,4.434,6.973l-1.993,2.759-6.379,2.71a8.978,8.978,0,0,0-5.374,6.834L42.937,55.584a.829.829,0,0,0,1.55.532l1.951-3.748a3.281,3.281,0,0,0,2.288,1.5q-.252.764-.439,1.553a.829.829,0,0,0,1.613.381,16.846,16.846,0,0,1,2.176-5.162,3.474,3.474,0,0,0,1.44-.4,4.855,4.855,0,0,0,2.343-3.812,17,17,0,0,1,21.19.013,4.849,4.849,0,0,0,2.341,3.8,3.473,3.473,0,0,0,1.426.4,16.932,16.932,0,0,1,2.176,5.164.829.829,0,0,0,1.613-.381q-.186-.787-.439-1.551a3.247,3.247,0,0,0,2.26-1.442l2,3.695a.841.841,0,0,0,1.565-.529ZM69.307,39.754l-1.665-4.042a28.971,28.971,0,0,0,5.316-1.819l1.852,2.564Zm8.024-27.38v1.621H55.558V12.373Zm-.1,3.278a3.458,3.458,0,0,1-3.348,2.64H59.006a3.458,3.458,0,0,1-3.348-2.64ZM55.558,26.3V18.6a5.073,5.073,0,0,0,3.448,1.35H73.883a5.073,5.073,0,0,0,3.448-1.35v7.7a6.052,6.052,0,0,1-3.912,5.654l-.425.158-6.549,2-6.55-2-.424-.158A6.053,6.053,0,0,1,55.558,26.3Zm4.373,7.594a28.966,28.966,0,0,0,5.316,1.819l-1.665,4.042-5.5-3.3Zm-9.32,6.374,6.2-2.635,6.265,3.753a18.7,18.7,0,0,0-7.305,3.045,2.085,2.085,0,0,0-1.031-1.515c-1.338-.6-3.249.377-4.008.825A9.272,9.272,0,0,0,47.2,47.324l0,0-1.778,3.416.809-4.9a7.329,7.329,0,0,1,4.387-5.578Zm-1.44,11.982a1.612,1.612,0,0,1-1.425-2.277l.438-.9a7.788,7.788,0,0,0,2.133,1.272,18.512,18.512,0,0,0-.963,1.889A1.554,1.554,0,0,1,49.171,52.248Zm3.572-3.471c-1.331.7-3-.531-3.772-1.215,1.395-2.127,4.251-3.395,5.044-3.155a2.976,2.976,0,0,1,.228,1.52s0,.008,0,.012a4.838,4.838,0,0,1-.059.513,3.172,3.172,0,0,1-1.44,2.326Zm12.221-7.641-.082-.187,1.563-3.794.811,1.968.764,1.855-.058.16q-.755-.062-1.517-.063Q65.7,41.076,64.963,41.136Zm13.757,5.316a3.435,3.435,0,0,1,.168-2.045c.793-.24,3.651,1.029,5.045,3.157-.769.685-2.433,1.92-3.773,1.214A3.172,3.172,0,0,1,78.721,46.451Zm6.322,5.068a1.6,1.6,0,0,1-1.508.714,18.534,18.534,0,0,0-.959-1.882,7.779,7.779,0,0,0,2.145-1.277,6.175,6.175,0,0,1,.537,1.16A1.656,1.656,0,0,1,85.042,51.52Z" transform="translate(-42.922 0)"/>
        <path id="Trazado_907758" data-name="Trazado 907758" d="M136.536,403.587a.829.829,0,0,0-.647-.2,15.257,15.257,0,0,0-12.85,10.813.829.829,0,0,0,1.588.473,13.6,13.6,0,0,1,10.53-9.5v7.437a7.781,7.781,0,0,1-.177,1.65.829.829,0,0,0,1.619.352,9.447,9.447,0,0,0,.215-2v-8.4A.828.828,0,0,0,136.536,403.587Z" transform="translate(-114.156 -358.816)"/>
        <path id="Trazado_907759" data-name="Trazado 907759" d="M264.6,403.383a.829.829,0,0,0-.925.823v8.4a9.448,9.448,0,0,0,.215,2,.829.829,0,0,0,1.619-.352,7.781,7.781,0,0,1-.177-1.65v-7.437a13.6,13.6,0,0,1,10.53,9.5.829.829,0,0,0,1.588-.473A15.256,15.256,0,0,0,264.6,403.383Z" transform="translate(-239.292 -358.816)"/>
        <path id="Trazado_907760" data-name="Trazado 907760" d="M225.475,248.192a4.789,4.789,0,0,0,3.549-1.594c.7-.763-.487-1.92-1.22-1.121a3.094,3.094,0,0,1-4.659,0c-.7-.763-1.954.323-1.22,1.121A4.789,4.789,0,0,0,225.475,248.192Z" transform="translate(-201.953 -218.12)"/>
      </g>
    </g>
  </g>
</svg>
