<svg xmlns="http://www.w3.org/2000/svg" xmlns:xlink="http://www.w3.org/1999/xlink" width="108.914" height="108.914" viewBox="0 0 108.914 108.914">
  <defs>
    <filter id="Trazado_874925" x="0" y="0" width="108.914" height="108.914" filterUnits="userSpaceOnUse">
      <feOffset dy="3" input="SourceAlpha"/>
      <feGaussianBlur stdDeviation="3" result="blur"/>
      <feFlood flood-opacity="0.161"/>
      <feComposite operator="in" in2="blur"/>
      <feComposite in="SourceGraphic"/>
    </filter>
  </defs>
  <g id="Grupo_1114768" data-name="Grupo 1114768" transform="translate(6598 5304)">
    <g id="Grupo_1112879" data-name="Grupo 1112879" transform="translate(-7397.5 -7250.211)">
      <g id="Grupo_1109835" data-name="Grupo 1109835">
        <g id="Grupo_1107913" data-name="Grupo 1107913" transform="translate(808.5 1952.211)">
          <g transform="matrix(1, 0, 0, 1, -9, -6)" filter="url(#Trazado_874925)">
            <g id="Trazado_874925-2" data-name="Trazado 874925" transform="translate(9 6)" fill="#fd9826" opacity="0.859">
              <path d="M 45.45676803588867 89.41407012939453 C 39.52198028564453 89.41407012939453 33.76551818847656 88.25206756591797 28.34726715087891 85.96034240722656 C 23.11311721801758 83.74648284912109 18.41204261779785 80.57682800292969 14.37464332580566 76.5394287109375 C 10.33724308013916 72.50202941894531 7.167593002319336 67.80095672607422 4.953730583190918 62.56679534912109 C 2.662005424499512 57.14855575561523 1.500005483627319 51.39208221435547 1.500005483627319 45.45729446411133 C 1.500005483627319 39.52198028564453 2.662005424499512 33.76551818847656 4.953730583190918 28.34726905822754 C 7.167593002319336 23.11310577392578 10.33724308013916 18.41203117370605 14.37464332580566 14.37464332580566 C 18.41204261779785 10.33724403381348 23.11311721801758 7.167593955993652 28.34726715087891 4.953731060028076 C 33.76551818847656 2.662006139755249 39.52198028564453 1.500006198883057 45.45676803588867 1.500006198883057 C 51.39155578613281 1.500006198883057 57.14802932739258 2.662006139755249 62.56626892089844 4.953731060028076 C 67.80043029785156 7.167593955993652 72.50150299072266 10.33724403381348 76.53890228271484 14.37464332580566 C 80.57630920410156 18.41203117370605 83.74595642089844 23.11310577392578 85.95981597900391 28.34726905822754 C 88.25154113769531 33.76551818847656 89.41354370117188 39.52198028564453 89.41354370117188 45.45676803588867 C 89.41354370117188 51.39208221435547 88.25154113769531 57.14855575561523 85.95981597900391 62.56679534912109 C 83.74595642089844 67.80095672607422 80.57630920410156 72.50202941894531 76.53890228271484 76.5394287109375 C 72.50150299072266 80.57682800292969 67.80043029785156 83.74648284912109 62.56626892089844 85.96034240722656 C 57.14802932739258 88.25206756591797 51.39155578613281 89.41407012939453 45.45676803588867 89.41407012939453 Z" stroke="none"/>
              <path d="M 45.45676803588867 3 C 39.72381210327148 3 34.1639404296875 4.12213134765625 28.93159484863281 6.335227966308594 C 23.87622833251953 8.473472595214844 19.33542633056641 11.53517150878906 15.43529510498047 15.435302734375 C 11.53517150878906 19.33543395996094 8.473464965820312 23.87622833251953 6.335227966308594 28.93160247802734 C 4.122123718261719 34.16394424438477 3 39.72381591796875 3 45.4572868347168 C 3 51.19024658203125 4.122123718261719 56.75011825561523 6.335227966308594 61.98246002197266 C 8.473464965820312 67.03782653808594 11.53517150878906 71.57862854003906 15.43529510498047 75.478759765625 C 19.33542633056641 79.37889099121094 23.87622833251953 82.44058990478516 28.93159484863281 84.57883453369141 C 34.1639404296875 86.79193115234375 39.72381210327148 87.9140625 45.45676803588867 87.9140625 C 51.18972396850586 87.9140625 56.74959564208984 86.79193115234375 61.98194122314453 84.57883453369141 C 67.03730773925781 82.44058990478516 71.57810974121094 79.37889099121094 75.47824096679688 75.478759765625 C 79.37837219238281 71.57862854003906 82.44007110595703 67.03782653808594 84.57830810546875 61.98246002197266 C 86.79141235351562 56.75011825561523 87.91353607177734 51.19024658203125 87.91353607177734 45.4567756652832 C 87.91353607177734 39.72381591796875 86.79141235351562 34.16394424438477 84.57830810546875 28.93160247802734 C 82.44007110595703 23.87622833251953 79.37837219238281 19.33543395996094 75.47824096679688 15.435302734375 C 71.57810974121094 11.53517150878906 67.03730773925781 8.473472595214844 61.98194122314453 6.335227966308594 C 56.74959564208984 4.12213134765625 51.18972396850586 3 45.45676803588867 3 M 45.45676803588867 0 C 70.56185150146484 0 90.91353607177734 20.35169219970703 90.91353607177734 45.4567756652832 L 90.91353607177734 45.4572868347168 C 90.91353607177734 70.5623779296875 70.56185150146484 90.9140625 45.45676803588867 90.9140625 C 20.3516845703125 90.9140625 0 70.5623779296875 0 45.4572868347168 L 0 45.4567756652832 C 0 20.35169219970703 20.3516845703125 0 45.45676803588867 0 Z" stroke="none" fill="#fff"/>
            </g>
          </g>
          <g id="Trazado_874923" data-name="Trazado 874923" transform="translate(0 0)" fill="none">
            <path d="M45.457,0A45.457,45.457,0,0,1,90.914,45.457h0A45.457,45.457,0,0,1,0,45.457H0A45.457,45.457,0,0,1,45.457,0Z" stroke="none"/>
            <path d="M 45.45676803588867 3 C 39.72381210327148 3 34.1639404296875 4.12213134765625 28.93159484863281 6.335227966308594 C 23.87622833251953 8.473472595214844 19.33542633056641 11.53517150878906 15.43529510498047 15.435302734375 C 11.53517150878906 19.33543395996094 8.473464965820312 23.87622833251953 6.335227966308594 28.93160247802734 C 4.122123718261719 34.16394424438477 3 39.72381591796875 3 45.4572868347168 C 3 51.19024658203125 4.122123718261719 56.75011825561523 6.335227966308594 61.98246002197266 C 8.473464965820312 67.03782653808594 11.53517150878906 71.57862854003906 15.43529510498047 75.478759765625 C 19.33542633056641 79.37889099121094 23.87622833251953 82.44058990478516 28.93159484863281 84.57883453369141 C 34.1639404296875 86.79193115234375 39.72381210327148 87.9140625 45.45676803588867 87.9140625 C 51.18972396850586 87.9140625 56.74959564208984 86.79193115234375 61.98194122314453 84.57883453369141 C 67.03730773925781 82.44058990478516 71.57810974121094 79.37889099121094 75.47824096679688 75.478759765625 C 79.37837219238281 71.57862854003906 82.44007110595703 67.03782653808594 84.57830810546875 61.98246002197266 C 86.79141235351562 56.75011825561523 87.91353607177734 51.19024658203125 87.91353607177734 45.4567756652832 C 87.91353607177734 39.72381591796875 86.79141235351562 34.16394424438477 84.57830810546875 28.93160247802734 C 82.44007110595703 23.87622833251953 79.37837219238281 19.33543395996094 75.47824096679688 15.435302734375 C 71.57810974121094 11.53517150878906 67.03730773925781 8.473472595214844 61.98194122314453 6.335227966308594 C 56.74959564208984 4.12213134765625 51.18972396850586 3 45.45676803588867 3 M 45.45676803588867 0 C 70.56185150146484 0 90.91353607177734 20.35169219970703 90.91353607177734 45.4567756652832 L 90.91353607177734 45.4572868347168 C 90.91353607177734 70.5623779296875 70.56185150146484 90.9140625 45.45676803588867 90.9140625 C 20.3516845703125 90.9140625 0 70.5623779296875 0 45.4572868347168 L 0 45.4567756652832 C 0 20.35169219970703 20.3516845703125 0 45.45676803588867 0 Z" stroke="none" fill="#fff"/>
          </g>
        </g>
      </g>
    </g>
    <g id="Grupo_1114767" data-name="Grupo 1114767" transform="translate(-6612.126 -5280)">
      <g id="Grupo_1114766" data-name="Grupo 1114766" transform="translate(48.181 1.055)">
        <g id="Grupo_1114764" data-name="Grupo 1114764" transform="translate(23.839)">
          <circle id="Elipse_12828" data-name="Elipse 12828" cx="9.055" cy="9.055" r="9.055" fill="#ffce62"/>
        </g>
        <g id="Grupo_1114765" data-name="Grupo 1114765" transform="translate(0 5.425)">
          <path id="Trazado_907761" data-name="Trazado 907761" d="M90.019,74.127v33.779L85.909,105.8,81.8,107.906,77.684,105.8l-4.111,2.107L69.461,105.8l-4.112,2.107L61.237,105.8l-4.111,2.107V61.442l4.111,2.007,4.113-2.007,4.111,2.007,4.112-2.007,4.111,2.007L81.7,61.487a9.058,9.058,0,0,0,8.317,12.639Z" transform="translate(-57.126 -61.442)" fill="#fff1d8"/>
        </g>
      </g>
      <path id="Trazado_907762" data-name="Trazado 907762" d="M118.154,125.439h12.63a1.055,1.055,0,1,0,0-2.109h-12.63a1.055,1.055,0,0,0,0,2.109Z" transform="translate(-62.593 -110.323)"/>
      <path id="Trazado_907763" data-name="Trazado 907763" d="M118.154,186.357h16.459a1.055,1.055,0,0,0,0-2.109H118.154a1.055,1.055,0,1,0,0,2.109Z" transform="translate(-62.593 -164.816)"/>
      <path id="Trazado_907764" data-name="Trazado 907764" d="M136.454,245.167h-18.3a1.055,1.055,0,1,0,0,2.109h18.3a1.055,1.055,0,1,0,0-2.109Z" transform="translate(-62.593 -219.31)"/>
      <path id="Trazado_907765" data-name="Trazado 907765" d="M186.869,309.531a10.079,10.079,0,0,1-2.559-1.189.847.847,0,0,1-.192-.8,1.161,1.161,0,0,1,.765-.916,2.061,2.061,0,0,1,1.9.3l.1.086a1.055,1.055,0,1,0,1.333-1.635l-.016-.013a3.857,3.857,0,0,0-1.731-.851v-.622a1.079,1.079,0,0,0-.984-1.089,1.055,1.055,0,0,0-1.125,1.052v.728l-.081.023a3.248,3.248,0,0,0-2.229,2.545,2.9,2.9,0,0,0,.963,2.855,10.992,10.992,0,0,0,3.158,1.518,1.326,1.326,0,0,1,.96,1.555,1.737,1.737,0,0,1-1.723,1.465,2.888,2.888,0,0,1-2.052-.526,1.08,1.08,0,0,0-1.446.223,1.055,1.055,0,0,0,.261,1.522,4.646,4.646,0,0,0,2.189.847v.674a1.079,1.079,0,0,0,.984,1.089,1.055,1.055,0,0,0,1.125-1.052V316.5a3.9,3.9,0,0,0,2.742-3.078A3.44,3.44,0,0,0,186.869,309.531Z" transform="translate(-120.372 -270.862)"/>
      <path id="Trazado_907766" data-name="Trazado 907766" d="M88.012,6.128a1.055,1.055,0,0,0,1.828-1.052,10.108,10.108,0,0,0-17.883.665l-3.22,1.571L65.09,5.532a1.054,1.054,0,0,0-.925,0L60.516,7.313,56.867,5.532a1.054,1.054,0,0,0-.925,0L52.292,7.313,48.643,5.532a1.055,1.055,0,0,0-1.517.948V52.944a1.065,1.065,0,0,0,1.536.939l3.63-1.861,3.631,1.861a1.054,1.054,0,0,0,.962,0l3.631-1.861,3.631,1.861a1.055,1.055,0,0,0,.962,0l3.63-1.861,3.631,1.861a1.054,1.054,0,0,0,.962,0l3.632-1.861,3.63,1.861a1.065,1.065,0,0,0,1.536-.939V20.163a10.14,10.14,0,0,0,7.742-5.072,1.055,1.055,0,1,0-1.835-1.041,8,8,0,0,1-14.962-3.941A8,8,0,0,1,88.012,6.128ZM80.019,51.218,77.444,49.9a1.055,1.055,0,0,0-.962,0L72.85,51.759,69.219,49.9a1.063,1.063,0,0,0-.962,0l-3.63,1.861L61,49.9a1.054,1.054,0,0,0-.962,0L56.4,51.758,52.772,49.9a1.055,1.055,0,0,0-.962,0l-2.575,1.32V8.168l2.594,1.266a1.054,1.054,0,0,0,.925,0L56.4,7.654l3.648,1.781a1.054,1.054,0,0,0,.925,0l3.649-1.781,3.648,1.781a1.054,1.054,0,0,0,.925,0l1.889-.922a10.122,10.122,0,0,0,8.93,11.652V51.218Z"/>
      <path id="Trazado_907767" data-name="Trazado 907767" d="M330.614,63.314,326.129,67.8l-1.7-1.7a1.055,1.055,0,0,0-1.492,1.491l2.444,2.444a1.055,1.055,0,0,0,1.492,0l5.231-5.231a1.055,1.055,0,0,0-1.492-1.491Z" transform="translate(-246.448 -56.36)"/>
      <path id="Trazado_907768" data-name="Trazado 907768" d="M446.139,87.948a1.054,1.054,0,1,0-1.24-.828A1.065,1.065,0,0,0,446.139,87.948Z" transform="translate(-355.803 -76.805)"/>
    </g>
  </g>
</svg>
