<svg xmlns="http://www.w3.org/2000/svg" xmlns:xlink="http://www.w3.org/1999/xlink" width="260.949" height="292.545" viewBox="0 0 260.949 292.545">
  <defs>
    <clipPath id="clip-path">
      <rect id="Rectángulo_406192" data-name="Rectángulo 406192" width="83.693" height="84.392" fill="none"/>
    </clipPath>
    <clipPath id="clip-path-3">
      <rect id="Rectángulo_406190" data-name="Rectángulo 406190" width="57.692" height="66.195" fill="none"/>
    </clipPath>
    <clipPath id="clip-path-4">
      <rect id="Rectángulo_406189" data-name="Rectángulo 406189" width="126.039" height="170.728" fill="none"/>
    </clipPath>
    <clipPath id="clip-path-6">
      <rect id="Rectángulo_406187" data-name="Rectángulo 406187" width="59.27" height="30.268" fill="none"/>
    </clipPath>
    <clipPath id="clip-path-7">
      <rect id="Rectángulo_406186" data-name="Rectángulo 406186" width="152.141" height="258.583" fill="none"/>
    </clipPath>
    <clipPath id="clip-path-9">
      <rect id="Rectángulo_406182" data-name="Rectángulo 406182" width="9.329" height="5.158" fill="none"/>
    </clipPath>
    <clipPath id="clip-path-11">
      <rect id="Rectángulo_406184" data-name="Rectángulo 406184" width="38.095" height="58.571" fill="none"/>
    </clipPath>
    <clipPath id="clip-path-12">
      <rect id="Rectángulo_406196" data-name="Rectángulo 406196" width="111.24" height="134.776" fill="none"/>
    </clipPath>
  </defs>
  <g id="Grupo_1113955" data-name="Grupo 1113955" transform="translate(-634.051 -11009.122)">
    <path id="Trazado_905593" data-name="Trazado 905593" d="M8,0H252.949a8,8,0,0,1,8,8V284.545a8,8,0,0,1-8,8H8a8,8,0,0,1-8-8V8A8,8,0,0,1,8,0Z" transform="translate(634.051 11009.122)" fill="#cdb9f8"/>
    <g id="Grupo_1113951" data-name="Grupo 1113951" transform="translate(683.696 11013.003)">
      <g id="Grupo_1113950" data-name="Grupo 1113950" clip-path="url(#clip-path)">
        <g id="Grupo_1113949" data-name="Grupo 1113949" transform="translate(0 0)">
          <g id="Grupo_1113948" data-name="Grupo 1113948" clip-path="url(#clip-path)">
            <path id="Trazado_905675" data-name="Trazado 905675" d="M8.04,67.852a39.841,39.841,0,1,1,55.524,9.571A39.841,39.841,0,0,1,8.04,67.852" transform="translate(-0.135 -0.915)" fill="#8380ff"/>
            <path id="Trazado_905676" data-name="Trazado 905676" d="M11.617,63.4a39.841,39.841,0,1,1,55.524,9.572A39.841,39.841,0,0,1,11.617,63.4" transform="translate(-0.786 -0.105)" fill="#8380ff"/>
            <path id="Trazado_905677" data-name="Trazado 905677" d="M44.11,80.63a40.311,40.311,0,1,1,23.2-7.368,40.311,40.311,0,0,1-23.2,7.368M11.9,63.01a39.351,39.351,0,1,0-6.632-29.38A39.4,39.4,0,0,0,11.9,63.01" transform="translate(-0.676 0)" fill="#421b36"/>
            <path id="Trazado_905678" data-name="Trazado 905678" d="M44.944,77.83a37.146,37.146,0,0,1-6.312-.542,36.543,36.543,0,1,1,6.312.542M44.817,5.412A35.712,35.712,0,0,0,15.683,61.724,35.723,35.723,0,1,0,44.817,5.412" transform="translate(-1.488 -0.807)" fill="#421b36"/>
            <path id="Trazado_905679" data-name="Trazado 905679" d="M26.8,91.166c-.157.3-.327.591-.512.873-.093.141-.189.28-.289.416l-.079.107c-.032.043-.038.05,0,0-.054.07-.11.14-.166.209A10.261,10.261,0,0,1,24.317,94.2a.611.611,0,0,0,0,.862.626.626,0,0,0,.862,0,10.629,10.629,0,0,0,2.671-3.281.61.61,0,1,0-1.054-.616" transform="translate(-4.391 -16.531)" fill="#421b36"/>
            <path id="Trazado_905680" data-name="Trazado 905680" d="M17.5,83.981q-.146.22-.3.433l-.095.127c-.033.044-.037.048,0,0-.054.07-.109.138-.164.207q-.341.418-.722.8t-.774.717c-.067.056-.135.113-.2.168l-.1.083c-.089.07.034-.025-.022.017-.149.11-.3.22-.449.325a.61.61,0,1,0,.616,1.054,12.4,12.4,0,0,0,3.273-3.32.615.615,0,0,0-.219-.835.625.625,0,0,0-.834.219" transform="translate(-2.612 -15.224)" fill="#421b36"/>
            <path id="Trazado_905681" data-name="Trazado 905681" d="M9.3,73.383,5.766,74.9a.611.611,0,0,0-.219.834.629.629,0,0,0,.834.218l3.53-1.518a.612.612,0,0,0,.218-.834.628.628,0,0,0-.834-.219" transform="translate(-0.994 -13.337)" fill="#421b36"/>
            <path id="Trazado_905682" data-name="Trazado 905682" d="M4.641,59.789a14.416,14.416,0,0,0-4.1.729.62.62,0,0,0-.425.75.617.617,0,0,0,.75.426,13.072,13.072,0,0,1,3.78-.686.61.61,0,1,0,0-1.22" transform="translate(-0.015 -10.877)" fill="#421b36"/>
            <path id="Trazado_905683" data-name="Trazado 905683" d="M3.744,47.892a3.261,3.261,0,0,0-3.3-.586.667.667,0,0,0-.365.28.626.626,0,0,0-.061.47.615.615,0,0,0,.749.426,2.631,2.631,0,0,1,.311-.107c.059-.016.119-.029.18-.041l.08-.015c.082-.016-.123.011-.039.006.11-.008.218-.017.328-.016.056,0,.11,0,.164.007.029,0,.056.007.083.007.081,0-.156-.026-.019,0a3.012,3.012,0,0,1,.32.071c.053.015.106.031.157.05l.077.029c.077.029-.007,0-.032-.015a3.149,3.149,0,0,0,.308.163c.047.029.092.059.137.091.014.011.092.067.02.014s.027.025.034.031a.61.61,0,1,0,.863-.863" transform="translate(0 -8.566)" fill="#421b36"/>
            <path id="Trazado_905684" data-name="Trazado 905684" d="M37.651,95.726l-3.07,3.129a.61.61,0,0,0,.862.862l3.07-3.129a.61.61,0,0,0-.862-.862" transform="translate(-6.259 -17.383)" fill="#421b36"/>
            <path id="Trazado_905685" data-name="Trazado 905685" d="M49.813,97.652l-2.459,3.537a.612.612,0,0,0,.218.834.624.624,0,0,0,.834-.218l2.46-3.537a.615.615,0,0,0-.219-.835.625.625,0,0,0-.834.219" transform="translate(-8.599 -17.71)" fill="#421b36"/>
            <path id="Trazado_905686" data-name="Trazado 905686" d="M62.864,96.547c-.025.067-.05.133-.075.2-.013.033-.026.066-.04.1,0,0-.061.146-.03.075s-.018.039-.022.05l-.044.1q-.044.1-.091.194-.2.409-.434.8c-.152.251-.317.5-.492.731l-.065.085c.036-.047.03-.038,0,0-.044.056-.088.112-.134.167q-.153.185-.317.362a.61.61,0,0,0,.863.863,10.272,10.272,0,0,0,2.062-3.4.613.613,0,0,0-.426-.75.626.626,0,0,0-.75.426" transform="translate(-11.086 -17.483)" fill="#421b36"/>
            <path id="Trazado_905687" data-name="Trazado 905687" d="M76.523,91.292c0,.053-.007.106-.012.159,0,.026-.006.052-.009.079-.008.068-.006.053.007-.044-.021.025-.02.124-.027.157-.01.052-.02.1-.032.155a4.213,4.213,0,0,1-.182.588c-.057.146.044-.093-.007.019-.023.048-.044.1-.068.144-.046.1-.1.189-.151.28s-.11.181-.172.268c-.019.028-.062.116-.093.128q.082-.106.022-.029l-.051.061a.653.653,0,0,0-.178.431.61.61,0,0,0,1.041.432,4.863,4.863,0,0,0,1.131-2.827.613.613,0,0,0-.609-.61.625.625,0,0,0-.61.61" transform="translate(-13.748 -16.497)" fill="#421b36"/>
            <path id="Trazado_905688" data-name="Trazado 905688" d="M6.73,32.691a2.167,2.167,0,0,0-1.97.034.617.617,0,0,0-.28.365.623.623,0,0,0,.061.47.61.61,0,0,0,.364.281.672.672,0,0,0,.47-.061c.034-.017.068-.034.1-.048l-.146.061a1.621,1.621,0,0,1,.391-.107l-.163.022a1.671,1.671,0,0,1,.429,0l-.163-.022a1.587,1.587,0,0,1,.392.106l-.146-.061.041.018a.455.455,0,0,0,.227.072.463.463,0,0,0,.243-.011.62.62,0,0,0,.364-.281.613.613,0,0,0,.062-.47.6.6,0,0,0-.281-.365" transform="translate(-0.811 -5.907)" fill="#421b36"/>
            <path id="Trazado_905689" data-name="Trazado 905689" d="M49.388,62.583a2.1,2.1,0,0,1-1.253-.551,1.752,1.752,0,0,1-.389-.906,2.906,2.906,0,0,1,.033-1.005,1.331,1.331,0,0,1,.447-.769,1.654,1.654,0,0,1,.641-.316,2.217,2.217,0,0,1,.778-.067,11.953,11.953,0,0,0,4.674-.3,10.532,10.532,0,0,0,3.728-2.045,11.22,11.22,0,0,0,2.94-3.563,7.34,7.34,0,0,0,.863-3.754,5.54,5.54,0,0,0-1.315-3.286,5.124,5.124,0,0,0-2.4-1.626,8.133,8.133,0,0,0-3.664-.142,30.265,30.265,0,0,0-5.62,1.553,24.3,24.3,0,0,1-6.761,1.7,12.118,12.118,0,0,1-5.185-.581,8.839,8.839,0,0,1-3.762-2.7,10.189,10.189,0,0,1-2.42-5.444,10.452,10.452,0,0,1,1.117-5.846,17.234,17.234,0,0,1,4.608-5.562,19.461,19.461,0,0,1,4-2.594A17.007,17.007,0,0,1,44.469,23.4a13.885,13.885,0,0,1,3.721-.268,2.763,2.763,0,0,1,.869.219,1.633,1.633,0,0,1,.614.434,1.607,1.607,0,0,1,.375.843,2.439,2.439,0,0,1-.066.924,1.4,1.4,0,0,1-.465.747,1.967,1.967,0,0,1-.81.42,3.714,3.714,0,0,1-1.13.034,8.063,8.063,0,0,0-2.655.286,17.272,17.272,0,0,0-3.172,1.149,13.494,13.494,0,0,0-2.9,1.826,12.226,12.226,0,0,0-4.288,5.947,5.837,5.837,0,0,0,1.2,5.587,6.05,6.05,0,0,0,2.709,1.913,8.217,8.217,0,0,0,3.96.15A36.36,36.36,0,0,0,48.5,41.9a29.153,29.153,0,0,1,6.39-1.542,10.9,10.9,0,0,1,4.861.452,8.178,8.178,0,0,1,3.559,2.545,8.972,8.972,0,0,1,2.114,5.118,11.313,11.313,0,0,1-1.105,5.73A14.925,14.925,0,0,1,60.2,59.4a15.676,15.676,0,0,1-3.4,2.174,12.412,12.412,0,0,1-3.676,1.063,13.336,13.336,0,0,1-3.732-.051m14.566-1.455a2.4,2.4,0,0,1,.555,1.061,1.663,1.663,0,0,1-.088.94,1.938,1.938,0,0,1-.565.758,1.738,1.738,0,0,1-1.3.433,2.131,2.131,0,0,1-1.382-.88q-2.125-2.648-4.938-6.429t-5.946-8.123q-3.134-4.345-6.327-8.713t-6.127-8.3q-2.937-3.93-5.319-6.8a1.965,1.965,0,0,1-.539-1.435,1.665,1.665,0,0,1,.623-1.167,1.8,1.8,0,0,1,1.348-.469,1.956,1.956,0,0,1,1.309.794q2.383,2.869,5.319,6.8T46.7,37.9q3.191,4.367,6.347,8.695T59.016,54.7q2.813,3.782,4.938,6.429" transform="translate(-5.578 -4.002)" fill="#a0d2f4"/>
            <g id="Grupo_1113947" data-name="Grupo 1113947" transform="translate(22.155 3.89)" opacity="0.3">
              <g id="Grupo_1113946" data-name="Grupo 1113946">
                <g id="Grupo_1113945" data-name="Grupo 1113945" clip-path="url(#clip-path-3)">
                  <path id="Trazado_905690" data-name="Trazado 905690" d="M76.507,30.613q-.482-.923-1.018-1.84a1.841,1.841,0,0,1,1.225.16,4.15,4.15,0,0,1,.071,1.34,1.8,1.8,0,0,1-.278.34M36.092,8.213q1.019-.244,2.041-.41c.017-.038.034-.078.052-.113-.5-1.375-2.714-.967-2.093.523M77.17,31.935q.3.621.576,1.243c.282-.4.232-.9-.576-1.243M69.378,20.448q.563.618,1.108,1.261c.059-1.029-.427-1.339-1.108-1.261M33,9.141c.731-.264,1.464-.5,2.2-.7a1.165,1.165,0,0,0-.056-.214,2.438,2.438,0,0,0-1.716-.016A2.216,2.216,0,0,0,33,9.141M72.1,19.282a1.662,1.662,0,0,0-.061,2.025,4.37,4.37,0,0,0,1.07,0,1.327,1.327,0,0,0-.037-2.048l-.973.025m8.736,13.093c.585-1.8-1.655-2.518-1.939-.5a1.12,1.12,0,0,0,1.939.5m-2.19-11.235.733,1.189a1.216,1.216,0,0,0,.387.038q-.443-.739-.925-1.462a1.622,1.622,0,0,0-.195.235M81.3,49.328c2.7.878,1.72-3.071-.181-1.415-.025.457-.295.94.181,1.415m-.739,2.534q-.126.82-.3,1.63a1.813,1.813,0,0,0,.776-.731,6.217,6.217,0,0,0-.474-.9M58.178,11.547c.008.008.017.013.025.021.19.1.38.2.568.311,1.009.182,1.878-1.441.66-1.516-.073-.2-.145-.41-.247-.7-1.037.359-1.522.893-1.006,1.883M78.744,25.171c-.272-.231-.559-.476-.843-.717a2.034,2.034,0,0,0-.985.367c.083.539-.169,1.152.182,1.558l1.033.2a1.187,1.187,0,0,0,.612-1.413m3.334,9.475c-.263-.218-.481-.4-.717-.592a1.043,1.043,0,0,0-.872,1.866c.825.18,1.907-.288,1.59-1.274M79.923,29.16a1.919,1.919,0,0,0-.766-1.473l-.923.135c-1.11,1.293.686,2.494,1.689,1.338m.826,15.067c.072.714.126,1.426.149,2.135,1.306-.562,1.382-1.794-.149-2.135M61.2,9.142c-.69,2.781,2.849,1.824,1.475.029-.4-.606-.858.136-1.475-.029M82.127,51.75l.531.7.367.047q.282-.843.524-1.7c-.6-.351-1.486-.227-1.423.952m.236-11.242c-.492,1.308.556,1.531,1.621,1.384.694-1.124-.551-2.506-1.621-1.384m-4.4,19.564a2.509,2.509,0,0,0,1.07.677q.412-.632.8-1.279a3.569,3.569,0,0,0-.679-.692c-.258.214-.56.345-.82.525q-.178.387-.369.77M76.686,19.507c-.8-2.45-3.305-.519-1.084.871a1.541,1.541,0,0,0,1.084-.871M27.2,11.97q.738-.459,1.482-.869a1.458,1.458,0,0,0,.066-.347c-.309.205-.621.4-.926.62-.255.18-.495.374-.743.56a.819.819,0,0,0,.12.036m34.66-4.747c-.605-.236-1.215-.458-1.831-.66-.008.722.753,1.536,1.831.66m6.32,9.917-.718.947c.039.169.081.337.133.5q.333.328.66.664a1.059,1.059,0,1,0-.074-2.116m-.8-1.033a2,2,0,0,0,.919-1.323c-1.3-2.142-3.015,1.14-.919,1.323M49.73,7.121l.679.524c.361-.2.843.039,1.2-.4-.045-.34-.095-.72-.146-1.109a1.007,1.007,0,0,0-1.735.984M73.863,25.93a.567.567,0,0,0-.1.095q.526.777,1.015,1.561c.282-.166.48-.373.843-.628.037-1.255-.732-1.416-1.754-1.028m8.33,4.42a.973.973,0,0,0,1.467,1.11q-.233-.855-.508-1.7a.837.837,0,0,0-.959.591m2.03,6.991a1.65,1.65,0,0,1,.55.43c-.04-.457-.084-.915-.142-1.371a1.5,1.5,0,0,0-.407.941m.066,10.282c.052-.279.1-.559.15-.839a.945.945,0,0,0-.15.839M47.35,4.776q-.893.032-1.785.11c.071,1.118,1.893.883,1.785-.11m2.081-.021a.464.464,0,0,1,.049.119,1.964,1.964,0,0,0,.327-.11c-.126,0-.251,0-.376-.008M63.91,14.919a1.34,1.34,0,0,1-.108.338q.59.461,1.169.946c.031-.655-.2-1.061-1.061-1.284M74.719,65.2c-.191.245-.389.488-.59.73l.659-.561c-.024-.061-.046-.113-.069-.169m5.214-26.149a1.059,1.059,0,0,0-.205-.326c.052.195.1.389.148.584a1.037,1.037,0,0,0,.057-.259M66.149,9.23V9.219c-.563-.309-1.134-.6-1.711-.877a1.48,1.48,0,0,0-.1.351,1,1,0,0,0,1.812.537M82.571,28.108q-.293-.769-.625-1.529l-.788.587c-.18,1.63.864,1.508,1.413.942M39.124,6.738a1.928,1.928,0,0,0,.429.871c.44-.049.879-.089,1.32-.117a1.732,1.732,0,0,0,.107-.167c.07-1.482-.884-1.608-1.856-.587m7.451.947c.59.079,1.179.169,1.765.282.035-.173.069-.342.106-.523a1.873,1.873,0,0,1-.969-.506c-.469.042-1.285.206-.9.746m-3.487-1.1c.764.587,1.306-.882.733-1.363a.63.63,0,0,1-.078-.129c-.4.055-.8.11-1.2.179-.32.454-.234,1.07.546,1.313M68.975,70.95l.42-.281c0-.02-.007-.04-.011-.06-.137.112-.268.228-.408.34m11.781-28.1c-.178-.531-.012-1.046-.194-1.556-.087-.007-.163,0-.245-.007q.151.783.263,1.565c.057,0,.11,0,.176,0m-6.7-18.479c.8-1.126.388-1.889-1-1.786a2.65,2.65,0,0,0-.524,1.2c.548.047.915.5,1.522.591m8.932,19.723a3.033,3.033,0,0,0,.394.931l.937.121.4-.535c.016-.161.034-.322.048-.483l-.34-.758c-.736-.125-.985.449-1.441.724m-2.5-19.011a1,1,0,0,0,.839.151c-.224-.465-.461-.924-.708-1.382-.6.205-.938.634-.131,1.23M52.836,5.482c.138,2.063,2.333.88,1.619-.27-.368-.06-.736-.116-1.105-.164-.188.139-.349.3-.514.434m1.49,2.341A1.557,1.557,0,0,0,54,9.529c1.86.415,2.161-1.534.325-1.707m27.4,29.295c-.937,1.025-.393,2.161,1,1.707.609-.726-.143-1.578-1-1.707m2.061-4.055c-.721.506-.5,2.084.548,1.708.019-.011.034-.025.052-.036q-.153-.881-.351-1.756a1.38,1.38,0,0,0-.25.084M71.853,68.4c-.286.281-.582.558-.882.834a2.8,2.8,0,0,0-.044.313c.422-.328.832-.666,1.236-1.009a1.256,1.256,0,0,0-.31-.138M52.121,8.948c-.007-.025-.011-.047-.016-.072a1.106,1.106,0,0,0-.122.027l.138.045M77.506,23.021a1.723,1.723,0,0,0-.221-1.387c-2.309-.1-1.675,2.228.221,1.387m2.7,32.487.386.192c-.421.605-.393.773.108,1.013a.545.545,0,0,0,.6.026c.193-.4.382-.8.56-1.209l-1.083-.684c-.218.169-.567.232-.57.662M57.7,8.737l.653-.006c.826-1.051.361-2.264-1.025-1.759.225.561-.088,1.216.372,1.765M76.266,63.353c.068.368-.107.76-.052,1.159.34-.4.668-.8.989-1.21-.322.016-.614-.218-.938.051M29.891,10.471q.788-.39,1.582-.728a1.046,1.046,0,0,0-.255-.491c-.412.228-.82.47-1.226.716a.729.729,0,0,0-.1.5M72.372,17c-.176-.175-.335-.335-.493-.492l-.712-.1c-1.136,1.036,1.32,3.334,1.205.591m-6.121-5.944-.587.578c.068.306.13.583.192.861,1.667.72,2-.981.394-1.439m4.972,3.531a2.635,2.635,0,0,0-.528-1.49c-.486-.029-.748.31-1.059.659.093,1.432.726.657,1.588.831m4.154,2.18c-.016-.111-.032-.227-.047-.34-.277-.3-.556-.6-.842-.89-1.225.322-.69,2.243.889,1.23M63.432,12.288l-1.159.563c.218,1.778,2.878.655,1.159-.563M68.558,11.2c.385.175.609.549,1.112.537.036-.075.078-.15.121-.224q-.515-.369-1.042-.718a1.8,1.8,0,0,0-.191.4" transform="translate(-27.081 -4.755)" fill="#421b36"/>
                </g>
              </g>
            </g>
            <path id="Trazado_905691" data-name="Trazado 905691" d="M34.708,66.373l.895-2.727,1.017,2.727a8.477,8.477,0,0,1,2.055.535c.024.185-1.944.765-1.944.765S35.9,70.317,35.6,69.718a11.407,11.407,0,0,1-.595-1.924S32.45,67.262,32.45,67c0-.282,2.258-.628,2.258-.628" transform="translate(-5.903 -11.578)" fill="#fff"/>
          </g>
        </g>
      </g>
    </g>
    <g id="Grupo_1113944" data-name="Grupo 1113944" transform="translate(753.656 11030.797)">
      <g id="Grupo_1113943" data-name="Grupo 1113943" clip-path="url(#clip-path-4)">
        <g id="Grupo_1113942" data-name="Grupo 1113942">
          <g id="Grupo_1113941" data-name="Grupo 1113941" clip-path="url(#clip-path-4)">
            <path id="Trazado_905638" data-name="Trazado 905638" d="M.414,28.542S-2.642,174.114,7.853,177.729s112.019,1.433,113.5-2.223c4.012-9.936.631-137.232-.957-147.144-.676-4.222-119.9-4.243-119.978.18" transform="translate(0 -8.854)" fill="#421b36"/>
            <path id="Trazado_905639" data-name="Trazado 905639" d="M50.667,174.913c-20.342,0-30.629-.7-33.726-1.37-.67-1.329-2.379-6.433-3.68-25.079-.866-12.424-1.431-28.933-1.677-49.068-.354-28.949.06-57.21.2-65.575,5.988-1,25.07-1.95,53.284-1.95,27.857,0,46.642.919,52.365,1.889.675,8.517,1.677,37.477,2.159,68.922.657,42.952-.044,63.616-.945,69.367-7.012,1.366-36.563,2.864-67.975,2.864Z" transform="translate(-4.028 -11.193)" fill="#fff"/>
            <path id="Trazado_905640" data-name="Trazado 905640" d="M58.088,174.913c-20.342,0-30.629-.7-33.726-1.37-.67-1.329-5.395-10.411-6.7-29.058-.866-12.424-2.84-24.955-3.087-45.09-.354-28.949-2.018-57.343-1.875-65.708,5.988-1,27.148-1.817,55.363-1.817,27.857,0,44.086.919,49.809,1.889.675,8.517,4.233,37.477,4.713,68.922.657,42.952,8.26,62.4,7.359,68.156-7.012,1.366-40.441,4.075-71.853,4.075Z" transform="translate(-4.468 -11.193)" fill="#fff"/>
            <path id="Trazado_905641" data-name="Trazado 905641" d="M57.823,174.147c-6.892,0-13.786-.064-20.673-.323-3.711-.139-7.446-.285-11.134-.743-.464-.058-.941-.182-1.406-.21a1.809,1.809,0,0,0-.263-.051c-.17.019.171.3.123.108a2.034,2.034,0,0,0-.178-.354c-.468-.949-.888-1.919-1.274-2.9a72.1,72.1,0,0,1-3.675-13.516c-1.158-6.411-1.473-12.905-2.079-19.381-.554-5.926-1.167-11.847-1.607-17.784-.561-7.582-.784-15.167-.9-22.768-.126-8.327-.353-16.651-.63-24.974-.4-11.889-1.1-23.789-1.209-35.686-.006-.719-.008-1.438,0-2.156l-.355.466a113.652,113.652,0,0,1,13.364-1.035c8.046-.369,16.1-.542,24.157-.65,17.841-.239,35.729-.291,53.555.588a118.848,118.848,0,0,1,13.839,1.17l-.354-.466c.619,7.75,1.524,15.478,2.2,23.224,1.132,12.923,1.982,25.874,2.358,38.842.2,6.923.255,13.845.632,20.761q.468,8.593,1.4,17.153c.887,8.054,2.148,16.053,3.654,24.012.472,2.5.974,4.989,1.4,7.494a24.776,24.776,0,0,1,.5,4.747c-.006.232-.03.562-.054.716l.338-.338c-2.3.444-4.653.679-6.984.927-3.922.416-7.853.75-11.784,1.051q-16.257,1.245-32.562,1.739-10.2.324-20.4.34a.484.484,0,0,0,0,.967c11.971,0,23.943-.368,35.9-.991,9.306-.485,18.614-1.091,27.886-2.039,2.737-.28,5.5-.541,8.206-1.062a.466.466,0,0,0,.338-.338,14.617,14.617,0,0,0-.167-4.18c-.312-2.242-.756-4.466-1.181-6.688-1.423-7.448-2.723-14.911-3.656-22.439a342.381,342.381,0,0,1-2.356-36.126c-.238-13.437-1.022-26.86-2.127-40.251-.712-8.634-1.639-17.246-2.426-25.872q-.075-.824-.142-1.649a.5.5,0,0,0-.355-.466,107.421,107.421,0,0,0-11.757-1.082c-7.28-.411-14.574-.594-21.864-.707-18.686-.289-37.414-.213-56.089.555a128.863,128.863,0,0,0-15.719,1.161.486.486,0,0,0-.354.466c-.067,4.176.131,8.362.279,12.535.24,6.762.513,13.524.753,20.286.293,8.269.546,16.54.712,24.812.161,8.112.229,16.215.741,24.316.394,6.249,1,12.48,1.6,18.713.6,6.21.894,12.467,1.775,18.644a80.611,80.611,0,0,0,3.68,15.631c.467,1.315.982,2.615,1.565,3.884.328.714.5,1.433,1.329,1.584a70.049,70.049,0,0,0,8.889.809c6.1.32,12.216.424,18.326.472q3.11.024,6.22.023a.484.484,0,0,0,0-.967" transform="translate(-4.203 -10.911)" fill="#421b36"/>
            <path id="Trazado_905642" data-name="Trazado 905642" d="M53.358,31.793s-3.967-9.451-1.207-11.6,55.729-2.486,55.9.363-.249,10.494-1.039,10.769c-4.065,1.413-53.65.466-53.65.466" transform="translate(-18.01 -6.498)" fill="#421b36"/>
            <path id="Trazado_905643" data-name="Trazado 905643" d="M72.348,16.85S70.883,5.192,70.58,2.376c-.345-3.208,31.387-3.037,31.67-.271.38,3.72-.607,14.745-.607,14.745Z" transform="translate(-24.838 0)" fill="#421b36"/>
            <path id="Trazado_905644" data-name="Trazado 905644" d="M65.161,18.992a249.2,249.2,0,0,1,34.525-.725c.622.03.62-.938,0-.967a249.2,249.2,0,0,0-34.525.725c-.614.055-.62,1.024,0,.967" transform="translate(-22.769 -5.973)" fill="#8380ff"/>
            <path id="Trazado_905645" data-name="Trazado 905645" d="M48.543,53.784s-.047,4.946,1.705,5.757,63.726,1.414,63.726,0,1.481-5.4,0-5.757-61.974-1.623-65.431,0" transform="translate(-17.084 -18.606)" fill="#8380ff"/>
            <path id="Trazado_905646" data-name="Trazado 905646" d="M103.26,119.534c0,10.572-8.012,15.67-17.9,15.67s-17.9-5.1-17.9-15.67,8.012-19.143,17.9-19.143,17.9,8.571,17.9,19.143" transform="translate(-23.745 -35.258)" fill="#8380ff"/>
            <path id="Trazado_905647" data-name="Trazado 905647" d="M97.411,114.017a.911.911,0,0,1,.277.54.762.762,0,0,1-.126.417,1.294,1.294,0,0,1-.3.332.612.612,0,0,1-.378.134.757.757,0,0,1-.316-.074.967.967,0,0,1-.29-.2,5.41,5.41,0,0,0-1.715-1.214,4.891,4.891,0,0,0-1.893-.356,5.224,5.224,0,0,0-2.056.38,3.32,3.32,0,0,0-1.388,1.03,2.4,2.4,0,0,0-.492,1.485,2.214,2.214,0,0,0,.366,1.226,3.658,3.658,0,0,0,1.236,1.078,13.878,13.878,0,0,0,2.41,1.056,11.136,11.136,0,0,1,2.851,1.324,5.406,5.406,0,0,1,1.64,1.656,3.813,3.813,0,0,1,.529,1.975,4.4,4.4,0,0,1-.732,2.526A4.721,4.721,0,0,1,94.951,129a8.015,8.015,0,0,1-3.218.588,9.023,9.023,0,0,1-2.144-.245,7.854,7.854,0,0,1-1.8-.662,6.32,6.32,0,0,1-1.375-.957,1.226,1.226,0,0,1-.239-.318.683.683,0,0,1,.025-.712,1.091,1.091,0,0,1,.291-.294.648.648,0,0,1,.378-.123.922.922,0,0,1,.4.086,1.641,1.641,0,0,1,.4.307,3.682,3.682,0,0,0,1.01.65,7.93,7.93,0,0,0,1.437.5,6.3,6.3,0,0,0,1.54.2,5.662,5.662,0,0,0,3.216-.81,2.553,2.553,0,0,0,1.2-2.233,2.6,2.6,0,0,0-.391-1.41,3.67,3.67,0,0,0-1.338-1.165,16.563,16.563,0,0,0-2.612-1.13A13.282,13.282,0,0,1,89.059,120a4.862,4.862,0,0,1-1.564-1.521,3.526,3.526,0,0,1-.5-1.865,3.874,3.874,0,0,1,.745-2.329,5.081,5.081,0,0,1,2.043-1.632,6.916,6.916,0,0,1,2.939-.6,7.26,7.26,0,0,1,1.817.22,5.651,5.651,0,0,1,1.589.675,5.958,5.958,0,0,1,1.288,1.067m-5.5-3.607a1.023,1.023,0,0,1,.113-.515.741.741,0,0,1,.3-.294.891.891,0,0,1,.417-.1.8.8,0,0,1,.58.221.92.92,0,0,1,.227.686q-.026,1.5-.139,3.569t-.277,4.428q-.166,2.354-.316,4.734t-.265,4.538q-.114,2.159-.113,3.8a.852.852,0,0,1-.227.638.766.766,0,0,1-.555.221.833.833,0,0,1-.606-.221.849.849,0,0,1-.227-.638q0-1.643.113-3.8t.265-4.538q.152-2.378.3-4.734t.265-4.428q.113-2.072.139-3.569" transform="translate(-30.295 -38.458)" fill="#421b36"/>
            <path id="Trazado_905648" data-name="Trazado 905648" d="M79.566,90.91a19.035,19.035,0,0,1,4.854.634c.826-2.6,1.809-5.467,2.622-7.778a27.814,27.814,0,0,0-7.476-1.058c-13.6,0-25.037,9.8-28.573,23.158l8.568,1.744C62,97.979,70.033,90.91,79.566,90.91" transform="translate(-17.946 -29.047)" fill="#421b36"/>
            <path id="Trazado_905649" data-name="Trazado 905649" d="M119.118,113.085c2.866-.476,6.19-1.026,8.779-1.451-1.43-13.245-9.048-23.573-20.868-26.756-.73,2.244-1.656,5.15-2.551,7.795,8.1,2.729,14.092,10.758,14.639,20.412" transform="translate(-36.769 -29.809)" fill="#a0d2f4"/>
            <path id="Trazado_905650" data-name="Trazado 905650" d="M108.6,126.292l-8.883,1.54c-.067,12.535-9.9,18.482-21.331,18.482-11.473,0-20.214-5.985-20.214-18.609a25.271,25.271,0,0,1,.307-3.9c-3.7-.647-8.462-1.444-8.5-1.414-.759.624-.759,6.113-.759,6.113,0,17.6,11.994,24.547,28.411,24.547s31.038-6.951,31.038-24.547q0-1.116-.071-2.214" transform="translate(-17.321 -42.985)" fill="#8380ff"/>
            <g id="Grupo_1113940" data-name="Grupo 1113940" transform="translate(32.061 79.694)" opacity="0.2">
              <g id="Grupo_1113939" data-name="Grupo 1113939">
                <g id="Grupo_1113938" data-name="Grupo 1113938" clip-path="url(#clip-path-6)">
                  <path id="Trazado_905651" data-name="Trazado 905651" d="M51.223,139.395c-.213-.518-.41-1.05-.589-1.6.343.112.417.466.5.916a.486.486,0,0,1,.087.684m53.926,2.318c.339-.514.66-1.045.955-1.6-.65.349-1.181,1.086-.955,1.6m-5.812-8.366-.323.268c-.125.427-.266.841-.419,1.246.284.725,1.185.749,1.9.265a1.563,1.563,0,0,0-1.159-1.78m3.745,10.556a1.12,1.12,0,0,0,.233.2,20.315,20.315,0,0,0,1.351-1.683c-.97-.238-2.349.357-1.584,1.485m-46.126,2.736c2.038-.133,1.161-2.709-.145-1.971-.933.635-.639,1.332.145,1.971m16.9,3.137c.064.274.132.567.2.845,2.931,1.594,2.141-3.328-.2-.845m-6.653,2.285c.633.153,1.277.294,1.934.415v-.627c-.812-.9-1.443-.8-1.934.212m34.415-9.911c1.183-.6,1.609-1.963-.15-1.987-1.165.18-.878,1.74.15,1.987m2.041-8.8a1.279,1.279,0,0,0-.443,1.892c1.588.56,2.422-1.914.443-1.892M98.3,136.594a1.535,1.535,0,0,0-.237-.466,16.064,16.064,0,0,1-.793,1.459c.417,0,.706-.311,1.03-.993M53.68,136.5a1.885,1.885,0,0,0-1.119-.785c-.24.085-.5.174-.645.227-1.341,1.479,1.861,2.456,1.765.558m55.009-9.925c0-.042,0-.084,0-.127l-.5.086a1.644,1.644,0,0,0,.492.045s.005,0,.009,0M90.982,144.183c.027-.351.454-.527.506-.952-.45.269-.912.522-1.389.756a.873.873,0,0,0,.883.2m-23.032,4.7c1.453.1,1.83-.895.666-1.84-1.168-.416-1.6,1.46-.666,1.84m-4.039-.367c.522-.215.865-.385,1-.99-2.412-2.209-2.874,1.682-1,.99m35.4-1.638c-.368.1-.623.654-.63,1.124q.746-.477,1.446-1a.936.936,0,0,0-.817-.124m2.853-15.423c-1.4-.688-1.582.879-.93,1.8.944.163,2.238-1.331.93-1.8M60.207,148.406a1.311,1.311,0,0,0-.693-1.708c-2.036.71-.879,2.572.693,1.708m44.971-11.826.242.657.953.466.439-.226c-.121-.541-.121-.541.3-1a.974.974,0,0,0-1.938.1m-1.1,3.366c.574-.457.613-.52.85-1.379a3.8,3.8,0,0,0-1-.764c-1.047.723-1.43,1.944.15,2.142m-1.575,5a1.855,1.855,0,0,0-.64-.537l-1.112.7c-.1.615.056.971.3,1.148.5-.418.988-.854,1.449-1.314m-27.49,1.326c-.309-.036-.616-.075-.92-.121a5.115,5.115,0,0,0,.673.309,1.987,1.987,0,0,1,.247-.189m16.6-.659a1.758,1.758,0,0,1,.6.694c.43.3,1.213-.162,1.416-.57.342-1.651-1.643-1.478-2.021-.124m-26.873-2.074c-.01-1.179-1.353-1.721-1.845-.548.191.416.492.8.2,1.269.795.414,1.178-.172,1.647-.721m30.9.126c.408-.738.084-1.191-.614-1.4-.758.117-.822.671-.976,1.192.086.843,1.5,1.261,1.59.213M57.994,132.609a2.143,2.143,0,0,0-.8-1.568c-2.315.9-.4,2.931.8,1.568m50.067.821c-1.315.237-.771,1.379-.078,1.767.144-.572.272-1.154.376-1.756a.708.708,0,0,0-.3-.012m-7.516-5.414c.546.938,2.2.773,2.073-.516l-2.087.362a.445.445,0,0,0,.014.154m-47.263,5.05c.7-1.062.111-2.3-1.091-1.536-.987,1-.09,1.828,1.091,1.536M60.4,138.45a1.279,1.279,0,0,0-2.155.419c.682,1.039,2.492,1.2,2.155-.419m40.528-2.375c-.391,1.519,1.334,2.038,1.831.548-.692-.921-.761-1.542-1.831-.548m-42.656-1.649c.139.7.721.843,1.292,1.062a17.968,17.968,0,0,1-.583-1.8,2.1,2.1,0,0,0-.709.743M89.816,151.76c.39-.1.778-.207,1.16-.32a2.024,2.024,0,0,0-.529-.112,1.109,1.109,0,0,0-.631.431m-3.859-.448a.864.864,0,0,0-.646,1.362c.56-.083,1.114-.178,1.663-.28a1.159,1.159,0,0,0-1.017-1.082m-15.384-.38c.834.064,1.043-1.2.507-1.674-1.463-.629-2.26,1.357-.507,1.674m7.979-.759c.063,1.679,2.306.575,1.787-.551-.562-.6-1.82-.453-1.787.551M99.766,129.16c-.031.559-.089,1.1-.16,1.628a1.034,1.034,0,0,0,.16-1.628M84.247,146.607l.331-.749c-.469.1-.944.182-1.423.256a.872.872,0,0,0,1.092.493m3.539-.216.929-.154.654-1-.715-.607c-.343.138-.69.27-1.043.393a1.094,1.094,0,0,0,.175,1.367M52.608,124.139c.781.14,1.026-.461.876-1.046l-1.559-.259c-.321.479-.126,1.036.682,1.3m45.977,14.242c-.526.911.752,2.123,1.524,1.285.4-.975-.7-2.113-1.524-1.285m10.079-7.506q.06-.812.076-1.658c-.374-.147-.872-.019-1.329.707a4.1,4.1,0,0,0,.556,1.054,2.054,2.054,0,0,0,.7-.1M50.457,124.4c-.841-.154-1.193.254-.612.916-.859.755.244,1,.937,1.013.405-.232.427-.668.539-1.054-.589-.4-.589-.4-.863-.875M61.08,149.253a1.194,1.194,0,0,0-.362.425q.772.4,1.587.758c.3-.731-.027-1.289-1.225-1.183m16.176,1.881-.826.53c-.281,2.8,3.371.9.826-.53m5.421-2.922c.124-.575-.266-.83-.486-1.13-.677-.143-1.154-.008-1.282.726a1.09,1.09,0,0,1,.214,1c.722.245,1.106-.307,1.554-.6m13.227-.243c-.053-.949-.82-1.447-1.626-.864a.94.94,0,1,0,1.626.864M49.715,133.934c.071.433.148.858.235,1.274.377.152.934-.194,1.416-.585-.111-1.255-1.133-1.59-1.651-.689m35.547,13.657c-.29,1.81,2.194,1.427,1.661-.263-.82-.432-1.332-.389-1.661.263m-23.668-.954c.831-.457,1.145-1.264.427-1.95-.946-.241-1.233.339-1.462,1.023.3.4.784.445,1.035.926m42.775-15.805a2.387,2.387,0,0,0,.618-1.071c-1.761-2.118-2.89,1.034-.618,1.071M72.886,151.19c-.911.337-1.464,1.122-.784,1.719.353.04.707.078,1.066.109.57-.252.5-1.152-.282-1.828M56.211,141.085c.084.237.153.436.237.676,3,1.18.876-3.434-.237-.676m2.963,3.356c.641-.381,1.428-.681.808-1.518-.248-.807-.824-.507-1.4-.234.307.72-.243,1.38.588,1.752M105.2,127.47c.191,1.6,1.773,1.544,1.825-.145a1.405,1.405,0,0,0-.746-.461l-.582.1a1.362,1.362,0,0,0-.5.5M55.266,126.5a.932.932,0,1,0-1.181-1.366c-.276.619.437,1.4,1.181,1.366m32.109,23.772c.4.178.545.6.9.83.493-.2.6-.651.892-1-.154-1.228-2.546-1-1.793.175m-4.717,1.82c-.417-.756-1.056-.63-1.746-.527-.175.874.051,1.381.406,1.521l.5-.035a1.788,1.788,0,0,0,.837-.958m14.773-11.889-.91.235c-.1.3-.183.557-.259.79.658,1.51,3.189-.248,1.168-1.024M57.822,123.913c0-.029,0-.051,0-.079l-1.373-.237c.157.435.595.722,1.369.316m7.794,20.825-.595.7c1.3,2.994,2.938-.7.595-.7m18.431,4.391c-.524.4-1.084.363-1.257,1.077,1.19,1.571,3.036-.342,1.257-1.077M54.26,130.644a2.5,2.5,0,0,0,1.132-.042c.364-1.04.2-1.386-.87-1.638-.283.311-.664.476-.759.969l.5.71m-1.44-3.853c-1.022.315-1.209.98-.636,1.606,1.1.828,2.117-.984.636-1.606m5.155.313c-.629-.658-1.238.013-1.8.426.047,1.869,2.14.852,1.8-.426M54.267,138.32c-.119.219-.207.38-.273.5.078.558.5.792.909,1.143,1.629-.621.9-2.029-.636-1.647m-.73,2.351a1.339,1.339,0,0,0-.887-.658c-.529.193-.766.448-.833.7.146.3.3.585.456.869.538.326,1.321.25,1.264-.914m38.343,8.8c.209.441-.014.927.307,1.411,2.153.125,1.406-2.713-.307-1.411M54.366,133.631c-.72,1.4.5,2.014,1.441.976,0-.616-.984-1.856-1.441-.976m41.955,11.5c-.1.828.36.86.853,1.223,1.957.337.484-2.582-.853-1.223M62.3,141.613V140.46c-.846-.248-2.052-.025-1.831,1.045.618.418,1.178.079,1.831.108M58.046,137c-.082-1.2-1.545-1.937-1.872-.431.634.891.872.946,1.872.431M49.727,130.4c1.128.566,1.62.189,1.434-1.1-.752-.671-2.3.26-1.434,1.1m28.33,17.61c-.1-1.128-1.172-1.216-1.752-.339-.412,1.144,1.394,1.329,1.752.339m11.556-.343c.34.052.266.38.354.6.432.137,1.649.494,1.413-.282-.472-.391-.133-.936-.589-1.292-.5.182-1.025.284-1.178.972m8.836-4.213c.622.954.883.845,1.705.28-.027-.389-.049-.72-.073-1.087-.7-.509-1.242.267-1.632.807m8.569-11.483c-.7-.859-1.688-.946-1.9.3.661.891,1.529.753,1.9-.3m-51.6,11.541v-1.082c-1.991-.836-1.581,3.045,0,1.082m15.71,2.636.159-.574c-.372-.1-.736-.212-1.1-.33l.091.161c-1.255.827-.027,1.344.846.742m-4.492,3.314-.713-.362c-2.009,1.049,1.527,2.887.713.362m6.73-2.233c-1.87-.853-2.032,2.641-.21.555v0l.21-.553m-.2.542-.012.011h0c0-.005.008-.008.012-.012m.494.308c-.122-.2-.47.029-.506-.3h0v0c-.04.206-.148.523-.232.851.384-.125.785-.049.738-.557" transform="translate(-49.471 -122.834)" fill="#421b36"/>
                </g>
              </g>
            </g>
            <path id="Trazado_905652" data-name="Trazado 905652" d="M134.607,94.276l9.407-5.068c.548-.3.06-1.131-.488-.836l-9.407,5.068c-.548.3-.06,1.131.488.836" transform="translate(-47.116 -31.015)" fill="#421b36"/>
            <path id="Trazado_905653" data-name="Trazado 905653" d="M153.34,84.636a4.094,4.094,0,0,0,2.4-2.393,1.8,1.8,0,0,0-1.327-2.3,1.46,1.46,0,0,0-1.691,1.815,3.639,3.639,0,0,0,2.1,2.22,5.2,5.2,0,0,0,6.044-1.026,2.271,2.271,0,0,0,.213-2.918,1.767,1.767,0,0,0-2.56-.064,2.339,2.339,0,0,0,.188,3.312c1.084,1.057,2.666,1.107,4.086,1.089a.484.484,0,0,0,0-.967c-1.332.016-3.9-.038-3.919-1.944-.007-.621.65-1.34,1.295-.955s.386,1.3.013,1.763a4.056,4.056,0,0,1-3.825,1.2,4.3,4.3,0,0,1-1.809-.784c-.368-.28-1.421-1.318-.69-1.756a.69.69,0,0,1,.734.135.985.985,0,0,1,.174,1.056c-.284.851-1.177,1.288-1.915,1.678-.55.291-.062,1.126.488.836" transform="translate(-53.708 -27.904)" fill="#421b36"/>
            <path id="Trazado_905654" data-name="Trazado 905654" d="M131.716,98.636c-1.3.776-2.439-.071-3.214-1.37s-.89-2.558.408-3.334a2.739,2.739,0,0,1,2.806,4.7" transform="translate(-45.021 -32.853)" fill="#421b36"/>
            <path id="Trazado_905655" data-name="Trazado 905655" d="M31.118,83.462H42.277a.484.484,0,0,0,0-.967H31.118a.484.484,0,0,0,0,.967" transform="translate(-10.787 -28.973)" fill="#421b36"/>
            <path id="Trazado_905656" data-name="Trazado 905656" d="M31.118,77.826H42.277a.484.484,0,0,0,0-.967H31.118a.484.484,0,0,0,0,.967" transform="translate(-10.787 -26.993)" fill="#421b36"/>
            <path id="Trazado_905657" data-name="Trazado 905657" d="M54.274,86.036l11.153,8.318c.5.372.981-.467.487-.836L54.762,85.2c-.5-.372-.982.467-.488.836" transform="translate(-19.028 -29.89)" fill="#421b36"/>
            <path id="Trazado_905658" data-name="Trazado 905658" d="M32.472,184.155s-1.54,35.549,3.327,36.73c2.508.608,90.252-1.517,91.26-2.072,2.847-1.57,1.416-35.61-.833-36.786-1.417-.74-93.676-.1-93.755,2.129" transform="translate(-11.347 -63.825)" fill="#fff"/>
            <path id="Trazado_905659" data-name="Trazado 905659" d="M37.49,179.606s-.295,5.418.208,5.5,23.9-.414,24.2-.5c.239-.073-.11-5.437-.408-5.549-.561-.21-23.836.307-24,.553" transform="translate(-13.164 -62.867)" fill="#a0d2f4"/>
            <path id="Trazado_905660" data-name="Trazado 905660" d="M37.857,203.487s-.307,13.995.318,14c1.049.012,7.912-.18,7.912-.18s-.244-13.855-.318-14c-.056-.114-7.912.18-7.912.18" transform="translate(-13.296 -71.393)" fill="#8380ff"/>
            <path id="Trazado_905661" data-name="Trazado 905661" d="M52.95,196.764s-.215,18.083.41,18.1c1.049.022,7.912-.18,7.912-.18s-.336-17.907-.41-18.1c-.058-.148-7.912.18-7.912.18" transform="translate(-18.622 -69.028)" fill="#8380ff"/>
            <path id="Trazado_905662" data-name="Trazado 905662" d="M82.8,200.356s-.286,14.9.338,14.9c1.049.014,7.912-.18,7.912-.18s-.265-14.748-.338-14.9c-.057-.121-7.912.18-7.912.18" transform="translate(-29.117 -70.293)" fill="#8380ff"/>
            <path id="Trazado_905663" data-name="Trazado 905663" d="M68.468,212.893s-.465,7,.159,7c1.049-.006,7.912-.179,7.912-.179s-.087-6.928-.158-7c-.056-.056-7.912.18-7.912.18" transform="translate(-24.037 -74.703)" fill="#8380ff"/>
            <path id="Trazado_905664" data-name="Trazado 905664" d="M98.9,195.721s-.215,18.083.41,18.1c1.049.022,7.912-.18,7.912-.18s-.336-17.907-.41-18.1c-.058-.147-7.912.18-7.912.18" transform="translate(-34.795 -68.661)" fill="#8380ff"/>
            <path id="Trazado_905665" data-name="Trazado 905665" d="M128.754,199.314s-.286,14.9.338,14.9c1.049.014,7.912-.18,7.912-.18s-.264-14.748-.338-14.9c-.057-.121-7.912.18-7.912.18" transform="translate(-45.29 -69.927)" fill="#8380ff"/>
            <path id="Trazado_905666" data-name="Trazado 905666" d="M144.758,194.873s-.234,17.231.391,17.242c1.049.021,7.912-.18,7.912-.18s-.317-17.062-.39-17.242c-.058-.141-7.912.18-7.912.18" transform="translate(-50.93 -68.365)" fill="#8380ff"/>
            <path id="Trazado_905667" data-name="Trazado 905667" d="M114.421,211.851s-.465,7,.159,7c1.049-.006,7.912-.18,7.912-.18s-.087-6.928-.158-7c-.056-.056-7.912.18-7.912.18" transform="translate(-40.21 -74.337)" fill="#8380ff"/>
            <path id="Trazado_905668" data-name="Trazado 905668" d="M160.494,210.806s-.465,7,.159,7c1.049-.006,7.912-.18,7.912-.18s-.087-6.929-.158-7c-.056-.056-7.912.18-7.912.18" transform="translate(-56.424 -73.97)" fill="#8380ff"/>
            <path id="Trazado_905669" data-name="Trazado 905669" d="M37.837,231.729l12.42-.284L69.784,231l22.088-.5,20.1-.459,13.572-.31,1.024-.023a.438.438,0,0,0-.019-.875l-12.42.284-19.526.446-22.088.5-20.1.459-13.573.31-1.024.023a.438.438,0,0,0,.02.875" transform="translate(-13.164 -80.365)" fill="#421b36"/>
            <path id="Trazado_905670" data-name="Trazado 905670" d="M39.294,237.55l9.368-.215a.438.438,0,0,0-.019-.875l-9.369.215a.438.438,0,0,0,.02.875" transform="translate(-13.677 -83.045)" fill="#421b36"/>
            <path id="Trazado_905671" data-name="Trazado 905671" d="M132.26,235.257l24.177-.555a.438.438,0,0,0-.02-.875l-24.177.555a.438.438,0,0,0,.02.875" transform="translate(-46.394 -82.12)" fill="#421b36"/>
            <path id="Trazado_905672" data-name="Trazado 905672" d="M58.223,236.682q18.433-.423,36.867-.842l7.763-.178a.438.438,0,0,0-.019-.875q-18.434.423-36.867.842l-7.763.178a.438.438,0,0,0,.02.875" transform="translate(-20.338 -82.458)" fill="#421b36"/>
            <path id="Trazado_905673" data-name="Trazado 905673" d="M84.266,8.905c0,.96-.777,1.364-1.736,1.364S80.8,9.865,80.8,8.905a1.736,1.736,0,1,1,3.471,0" transform="translate(-28.434 -2.517)" fill="#8380ff"/>
            <path id="Trazado_905674" data-name="Trazado 905674" d="M107.881,8.349c0,.96-.777,1.364-1.736,1.364s-1.736-.4-1.736-1.364a1.736,1.736,0,1,1,3.471,0" transform="translate(-36.745 -2.322)" fill="#8380ff"/>
          </g>
        </g>
      </g>
    </g>
    <g id="Grupo_1113937" data-name="Grupo 1113937" transform="translate(639.879 11043.084)">
      <g id="Grupo_1113936" data-name="Grupo 1113936" clip-path="url(#clip-path-7)">
        <g id="Grupo_1113935" data-name="Grupo 1113935">
          <g id="Grupo_1113934" data-name="Grupo 1113934" clip-path="url(#clip-path-7)">
            <path id="Trazado_905594" data-name="Trazado 905594" d="M45.035,218.45s-1.008,68.878,7.219,78.323c16.848,3.2,42.518,2.434,70.572.6,10.949-.715,22.261-1.6,33.554-2.465,0,0-31.129-84.117-33.683-84.558s-77.089,5.3-77.663,8.1" transform="translate(-8.638 -40.376)" fill="#a0d2f4"/>
            <path id="Trazado_905595" data-name="Trazado 905595" d="M53.287,224.872a57.19,57.19,0,0,0-.535,10.833c.073,5.463.385,10.923.781,16.371.845,11.654,2.053,23.308,3.81,34.862a94.276,94.276,0,0,0,2.473,12.614.6.6,0,0,0,1.162-.321,84.491,84.491,0,0,1-2.165-10.642c-.86-5.368-1.551-10.763-2.167-16.164-1.31-11.49-2.358-23.055-2.647-34.62-.1-4.156-.29-8.5.451-12.614.137-.758-1.025-1.084-1.162-.32" transform="translate(-10.122 -43.085)" fill="#421b36"/>
            <path id="Trazado_905596" data-name="Trazado 905596" d="M38.553,58.109c-1.465-2.068-10.388-13.1-14.756-22.138-5.355-11.086-4.241-11.679-1.32-18.989S35.715,1.557,45.65.167,66.323,6.36,66.5,11.46s.806,19.385.806,19.385" transform="translate(-3.846 0)" fill="#421b36"/>
            <path id="Trazado_905597" data-name="Trazado 905597" d="M29.935,17.163C37.493,1.114,59.969-1.066,70.513,13.2c3.335,4.512,5.6,10.893,7.013,19.706C81.478,57.5,60.748,61.286,60.748,61.286l-4.779,13.13L39.936,70.351l1.135-10.178S28.9,36.5,28.331,24.671a15.753,15.753,0,0,1,1.6-7.508" transform="translate(-5.436 -0.71)" fill="#ffbfbf"/>
            <path id="Trazado_905598" data-name="Trazado 905598" d="M75.686,27.085A1.5,1.5,0,1,1,73.9,25.76a1.578,1.578,0,0,1,1.787,1.325" transform="translate(-13.962 -4.94)" fill="#421b36"/>
            <path id="Trazado_905599" data-name="Trazado 905599" d="M56.858,30.515a1.5,1.5,0,1,1-1.788-1.324,1.577,1.577,0,0,1,1.788,1.324" transform="translate(-10.347 -5.599)" fill="#421b36"/>
            <path id="Trazado_905600" data-name="Trazado 905600" d="M42.683,26.225a12.959,12.959,0,0,1,5.081-2.537,28.459,28.459,0,0,1,4.8-.394c.936-.09.9-1.465.114-1.744-3.961-1.405-8.123,1.126-10.651,3.936-.416.462.172,1.176.659.739" transform="translate(-8.04 -4.06)" fill="#421b36"/>
            <g id="Grupo_1113927" data-name="Grupo 1113927" transform="translate(36.746 30.354)" opacity="0.2">
              <g id="Grupo_1113926" data-name="Grupo 1113926">
                <g id="Grupo_1113925" data-name="Grupo 1113925" clip-path="url(#clip-path-9)">
                  <path id="Trazado_905601" data-name="Trazado 905601" d="M54.78,39.208c.268,1.327-1.591,2.822-4.153,3.34S45.77,42.41,45.5,41.084s1.591-2.822,4.153-3.34,4.856.137,5.125,1.464" transform="translate(-45.476 -37.566)" fill="#421b36"/>
                </g>
              </g>
            </g>
            <g id="Grupo_1113930" data-name="Grupo 1113930" transform="translate(58.657 26.475)" opacity="0.2">
              <g id="Grupo_1113929" data-name="Grupo 1113929">
                <g id="Grupo_1113928" data-name="Grupo 1113928" clip-path="url(#clip-path-9)">
                  <path id="Trazado_905602" data-name="Trazado 905602" d="M81.9,34.406c.268,1.327-1.591,2.822-4.153,3.34s-4.856-.137-5.125-1.463,1.592-2.822,4.153-3.34,4.856.137,5.125,1.464" transform="translate(-72.592 -32.765)" fill="#421b36"/>
                </g>
              </g>
            </g>
            <path id="Trazado_905603" data-name="Trazado 905603" d="M28.7,41.943c-3.316-1.092-5.684.189-6.728,1.351a6.869,6.869,0,0,0-1.587,4.312,8.066,8.066,0,0,0,3.041,6.834c2.1,1.529,8.914.732,10.871-.975Z" transform="translate(-3.912 -7.972)" fill="#ffbfbf"/>
            <path id="Trazado_905604" data-name="Trazado 905604" d="M25.528,50.812a4.649,4.649,0,0,1,1.819-.8,2.67,2.67,0,0,1,2.069.554.829.829,0,0,0,1.072-1.238,3.4,3.4,0,0,0-3.2-.94,3.04,3.04,0,0,0-1.482.8c-.451.477-.385.866-.522,1.454-.032.137.127.281.246.164" transform="translate(-4.853 -9.273)" fill="#421b36"/>
            <path id="Trazado_905605" data-name="Trazado 905605" d="M70.954,13.033a5.947,5.947,0,0,0-9.308,2.87c-1.833,5.481,2.1,12.97,5.933,16.712a.949.949,0,0,0,1.415-1.262c-2.323-3.164-4.684-6.363-5.567-10.28-.614-2.722-.584-6.055,2.5-7.309a8.346,8.346,0,0,1,4.69-.056.381.381,0,0,0,.332-.675" transform="translate(-11.745 -2.262)" fill="#421b36"/>
            <path id="Trazado_905606" data-name="Trazado 905606" d="M53.755,73.356A19.537,19.537,0,0,0,68.526,74.83a.8.8,0,0,0-.315-1.558,38.7,38.7,0,0,1-14.41-.05.074.074,0,0,0-.045.134" transform="translate(-10.313 -14.056)" fill="#421b36"/>
            <path id="Trazado_905607" data-name="Trazado 905607" d="M31.187,39.887S37.85,32.251,35.11,22.9,31.334,15.382,33.124,12.3s5.822-5.336,7.522-5.36,5.544,1.354,9.9-.445a8.125,8.125,0,0,0,3.824-3.062s-6.9-7.03-17.217,3.044S26.128,18.551,25.489,24.553s5.7,15.334,5.7,15.334" transform="translate(-4.885 -0.2)" fill="#421b36"/>
            <path id="Trazado_905608" data-name="Trazado 905608" d="M56.121,196.066c1.455-.873,61.418-5.822,65.2-12.516s-.192-13.265-4.367-12.907c-1.164.1-18.483-83.043-22.777-84.551s-29.12,1.391-29.12,1.391.629-9.936-7.2-10.286l-1.647,4.524S41.82,79.664,38.5,79.47c0,0,.4-3.448.045-3.411a7.737,7.737,0,0,0-5.13,2.827c-2.911,4.824-1.746,8.6-1.746,8.6s-13.065,1.467-14.246,7.87,24.3,98.384,37.465,100.713" transform="translate(-3.337 -14.601)" fill="#8380ff"/>
            <path id="Trazado_905609" data-name="Trazado 905609" d="M105.219,58.447s-3.78-4.772-13.049-3.309-16.1,8.13-15.773,12.521,5.2,3.089,6.992,1.3,4.878-7.048,10.895-6.207a12.406,12.406,0,0,0-2.259,1.256,5.656,5.656,0,0,0-.412,8.853s-2.695,3.74,3.159,7.318c0,0-2.015,2.114,1.513,5.692s7.265,1.633,7.268,0l0-2.765s.427,10.9,6.8,11.545,7.183-1.788,7.833-6.992-7.415-25.719-12.968-29.213" transform="translate(-14.664 -10.531)" fill="#ffbfbf"/>
            <path id="Trazado_905610" data-name="Trazado 905610" d="M97.02,66.014a23.709,23.709,0,0,1,5.04-3.218.608.608,0,0,0,.216-.824.616.616,0,0,0-.824-.217,24.912,24.912,0,0,0-5.285,3.406.608.608,0,0,0,0,.852.616.616,0,0,0,.852,0" transform="translate(-18.428 -11.841)" fill="#421b36"/>
            <path id="Trazado_905611" data-name="Trazado 905611" d="M95.658,76.811a13.089,13.089,0,0,1,6.084-5.626.608.608,0,0,0,.216-.825.616.616,0,0,0-.824-.217,14.174,14.174,0,0,0-6.517,6.06c-.372.681.667,1.289,1.042.608" transform="translate(-18.148 -13.452)" fill="#421b36"/>
            <path id="Trazado_905612" data-name="Trazado 905612" d="M99.128,85.884a19.579,19.579,0,0,1,5.4-6.846.607.607,0,0,0,0-.852.617.617,0,0,0-.852,0,20.373,20.373,0,0,0-5.587,7.09.62.62,0,0,0,.217.825.608.608,0,0,0,.824-.217" transform="translate(-18.816 -14.977)" fill="#421b36"/>
            <path id="Trazado_905613" data-name="Trazado 905613" d="M106.046,88.936c.1,0,.192,0,.288.007.048,0,.1.009.144.014-.155-.015,0,0,.029.006a3.287,3.287,0,0,1,.531.145c.016.006.162.063.085.031s.065.031.081.039c.08.038.158.078.234.123s.166.1.245.154c.04.027.078.057.117.084-.116-.081.013.011.03.024a3.656,3.656,0,0,1,.4.385c.032.036.061.074.094.11.048.053-.057-.082.009.01s.111.157.162.238.1.166.141.251c.021.043.041.086.061.129.067.145-.04-.116.013.033a3.67,3.67,0,0,1,.154.555.606.606,0,0,0,.741.421.619.619,0,0,0,.421-.741,4.085,4.085,0,0,0-3.976-3.224.6.6,0,1,0,0,1.2" transform="translate(-20.242 -16.842)" fill="#421b36"/>
            <path id="Trazado_905614" data-name="Trazado 905614" d="M18.812,93.693c-.8.265-12.961,5.855-17.937,21.228C-2.483,125.3,4.321,182.78,12.8,196.3S37.72,220.42,52.83,209.817,79.6,174.562,76.422,171.912s-15.374-19.271-18.556-18.78S42.757,166.61,42.757,166.61s-8.217-44-8.747-43.208-15.2-29.71-15.2-29.71" transform="translate(0 -17.986)" fill="#8380ff"/>
            <path id="Trazado_905615" data-name="Trazado 905615" d="M135.854,94.945c.683,1.257,34.42,24.259,37.925,38.061s-7.667,30.451-24.317,26.069-33.387-14.983-33.387-14.983Z" transform="translate(-22.283 -18.227)" fill="#8380ff"/>
            <path id="Trazado_905616" data-name="Trazado 905616" d="M161.077,103.15c-.57,2.611-14.942,55.187-15.138,57.276s-.977,2.21-3.517,2.991-50.021,1.564-50.412,0S107.912,97,109.987,94.649s45.145-.607,45.927-.8c0,0,7.25-.258,5.163,9.3" transform="translate(-17.662 -17.931)" fill="#421b36"/>
            <path id="Trazado_905617" data-name="Trazado 905617" d="M108.505,120.663s.68-4.36-3.407-4.088-21.121,15.942-22.346,17.987-5.588,19.622-5.588,19.622-7.221,7.63-6.4,9.266,13.9,13.081,16.215,11.991,7.36-10.629,7.36-10.629,6.54-.681,7.9-4.769.953-9.947.953-9.947,14.853-6.269,15.262-8.585.136-5.041-3.68-4.224c0,0,5.884-2.09,4.507-6.772-.93-3.163-4.852-3.457-4.852-3.457s3.191-2.725.345-5.442c-1.239-1.183-6.267-.953-6.267-.953" transform="translate(-13.571 -22.377)" fill="#ffbfbf"/>
            <path id="Trazado_905618" data-name="Trazado 905618" d="M48.486,184.262a34.383,34.383,0,0,0-17.428,13.407c-.431.646.612,1.25,1.041.608a33.034,33.034,0,0,1,16.708-12.853c.73-.25.417-1.414-.32-1.162" transform="translate(-5.942 -35.366)" fill="#421b36"/>
            <path id="Trazado_905619" data-name="Trazado 905619" d="M106.429,149c5.292-3.226,11.371-4.853,17.108-7.083.714-.278.4-1.444-.321-1.162-5.831,2.267-12.015,3.925-17.4,7.2-.661.4-.056,1.446.608,1.041" transform="translate(-20.26 -27.012)" fill="#421b36"/>
            <path id="Trazado_905620" data-name="Trazado 905620" d="M100.736,141.105c6.647-4.589,14.122-7.995,21.522-11.17.71-.3.1-1.343-.608-1.04-7.4,3.176-14.875,6.581-21.522,11.169-.633.438-.032,1.483.608,1.041" transform="translate(-19.17 -24.734)" fill="#421b36"/>
            <path id="Trazado_905621" data-name="Trazado 905621" d="M95.4,134.009a151.378,151.378,0,0,1,18.184-11.921c.677-.378.07-1.419-.608-1.041a151.542,151.542,0,0,0-18.184,11.921c-.608.465-.008,1.512.608,1.041" transform="translate(-18.149 -23.222)" fill="#421b36"/>
            <path id="Trazado_905622" data-name="Trazado 905622" d="M52.3,175.736c-2.567-12.2-4.294-24.557-6.861-36.756-.16-.758-1.322-.437-1.162.321,2.567,12.2,4.294,24.556,6.861,36.755.159.759,1.321.438,1.162-.32" transform="translate(-8.496 -26.597)" fill="#421b36"/>
            <path id="Trazado_905623" data-name="Trazado 905623" d="M53.766,181.565c2.385-2.065,3.953-5.059,5.671-7.659,1.581-2.393,3.527-5.658,6.4-6.649a4.629,4.629,0,0,1,4.411,1.04c.616.472,1.216-.575.608-1.04-6.553-5.02-11.583,4.777-14.544,9.229a20.237,20.237,0,0,1-3.4,4.228c-.587.509.268,1.358.852.852" transform="translate(-10.12 -31.84)" fill="#421b36"/>
            <path id="Trazado_905624" data-name="Trazado 905624" d="M41.679,80.366a44.155,44.155,0,0,0,21.719,1.9c.764-.122.44-1.283-.321-1.162A42.908,42.908,0,0,1,42,79.2c-.732-.26-1.047.9-.32,1.162" transform="translate(-7.922 -15.198)" fill="#421b36"/>
            <path id="Trazado_905625" data-name="Trazado 905625" d="M116.244,202.09a42.865,42.865,0,0,1,19.475-7.562c.761-.087.77-1.294,0-1.2a44.1,44.1,0,0,0-20.084,7.726c-.629.443-.028,1.488.608,1.041" transform="translate(-22.147 -37.112)" fill="#421b36"/>
            <path id="Trazado_905626" data-name="Trazado 905626" d="M127.326,241.215l-5.609,6.81a.619.619,0,0,0,0,.852.607.607,0,0,0,.852,0l5.609-6.809a.621.621,0,0,0,0-.852.608.608,0,0,0-.852,0" transform="translate(-23.333 -46.273)" fill="#421b36"/>
            <path id="Trazado_905627" data-name="Trazado 905627" d="M122.216,251.487a39.9,39.9,0,0,1,2.327,6.842c1.182,4.008,2.268,8.043,3.34,12.081,2.35,8.847,4.577,17.726,6.888,26.583.72,2.757,1.37,5.564,2.283,8.266.247.73,1.412.417,1.162-.321-.775-2.292-1.338-4.666-1.953-7-1.07-4.073-2.111-8.153-3.159-12.232-2.287-8.9-4.533-17.811-7.09-26.634a46.54,46.54,0,0,0-2.759-8.19c-.352-.691-1.393-.082-1.041.608" transform="translate(-23.448 -48.103)" fill="#421b36"/>
            <path id="Trazado_905628" data-name="Trazado 905628" d="M55.066,247.113a22.667,22.667,0,0,0,17.773-2.451c4.922-3.074,7.343-8.268,7.289-14a17.3,17.3,0,0,0-2.342-8.78.6.6,0,0,0-1.042.608c3.26,5.392,3.055,13.7-1.28,18.485-4.844,5.351-13.341,6.854-20.079,4.981a.6.6,0,0,0-.32,1.162" transform="translate(-10.489 -42.539)" fill="#421b36"/>
            <path id="Trazado_905629" data-name="Trazado 905629" d="M116.129,219.358a46.366,46.366,0,0,1,2.425,8.585c.253,1.412.7,3.146.193,4.544a3.258,3.258,0,0,1-2.725,2.094c-3.146.3-4.452-3.313-5.475-5.641a45.931,45.931,0,0,1-2.752-8.491c-.168-.756-1.33-.436-1.162.32a46.781,46.781,0,0,0,2.467,7.826c.885,2.125,1.832,4.853,3.755,6.27a4.661,4.661,0,0,0,5.848-.227c1.915-1.711,1.471-4.315,1.089-6.574a46.294,46.294,0,0,0-2.5-9.026c-.277-.716-1.443-.4-1.162.32" transform="translate(-20.467 -41.971)" fill="#421b36"/>
            <path id="Trazado_905630" data-name="Trazado 905630" d="M132.769,216.725a37.265,37.265,0,0,0,5.739,9.984,29.381,29.381,0,0,0,4,4.2c1.412,1.174,3.231,2.023,5.066,1.338.72-.269.408-1.434-.321-1.162-1.844.688-3.462-.576-4.733-1.785a35.066,35.066,0,0,1-3.508-3.879,35.612,35.612,0,0,1-5.085-9.017c-.276-.717-1.442-.406-1.162.32" transform="translate(-25.479 -41.465)" fill="#421b36"/>
            <path id="Trazado_905631" data-name="Trazado 905631" d="M68.449,89.936c-2.445,4.842-9.612,6.1-14.48,6.221a34.2,34.2,0,0,1-16.4-4.043c-.688-.355-1.3.685-.608,1.041a35.218,35.218,0,0,0,17.87,4.174c5.077-.267,12.135-1.781,14.662-6.785.348-.691-.691-1.3-1.041-.608" transform="translate(-7.037 -17.207)" fill="#421b36"/>
            <g id="Grupo_1113933" data-name="Grupo 1113933" transform="translate(99.318 198.268)" opacity="0.2">
              <g id="Grupo_1113932" data-name="Grupo 1113932">
                <g id="Grupo_1113931" data-name="Grupo 1113931" clip-path="url(#clip-path-11)">
                  <path id="Trazado_905632" data-name="Trazado 905632" d="M142.914,271.612a1.609,1.609,0,0,1,.706.111l.61.911a1.227,1.227,0,0,1-1.316,1.06v-2.082Zm0,21.979v2.082c.411.124.695-.164.99-.268l.331-.981a2.543,2.543,0,0,0-1.321-.833m0-8.792c1.677.228,1.812-1.968,0-1.85v1.85Zm.939,5.276c.7-1.071.277-1.644-.939-1.574v1.619a1.193,1.193,0,0,0,.939-.045m-.939,9.069v2.082c1.763.038,1.241-1.585,0-2.082m1.176-20.944a2,2,0,0,0-1.176-1.036v2.083c.58.108.781-.7,1.176-1.047m7.263,23.6a15.314,15.314,0,0,1-1,1.177l2.109-.188c-.306-.66-.456-.727-1.105-.989m3.142-8.4-1.079.4c-.161.478-.313.932-.467,1.39,1.49,2.128,3.645-.57,1.546-1.785m4.585,6.282v1.71l.633.311c2.5-.344.878-4.076-.633-2.021M151.6,287.864a2.622,2.622,0,0,0,1.025-1.923c-.714-1.278-1.8-.7-2.29.415a2.028,2.028,0,0,0,1.265,1.509m-6.153,14.145a3.854,3.854,0,0,0-.663,1.27,1.2,1.2,0,0,0,.082.187l2.395-.214c.015-.037.031-.072.045-.109-.191-.9-1.049-1-1.858-1.134m10.437-4.169c.2.28.4.553.587.819,3.622.621.211-4.582-.587-.819m3.377-1.958a1.139,1.139,0,0,0,.528.082l-.962-1.446c-.2.356-.149.843.433,1.363m-5.821-7.43a1.167,1.167,0,0,0,1.045,1.939,1.352,1.352,0,0,0,.768-1.24q-.309-.465-.626-.941a1.414,1.414,0,0,0-1.187.242m-4.624,10.608c-.347.191-.675.368-.966.528-.148,1.436.28,2.137,1.494,1.819.2-.467.664-.887.465-1.556l-.993-.79m-.173-19.82-.747-1.118c.015.527.11.992.747,1.118m-3.83,7.255c.933,1.24,1.407,1.27,2.407.156-.335-1.476-1.959-1.646-2.407-.156m3.033,3.54c1.135.309,2.435.027,1.909-1.639l-1.338-.132c-.221.613-.776,1.08-.57,1.77m8.852,12.373.729-.065a.584.584,0,0,0-.729.065m-6.576-4.841c1.115,1.686,2.208.755,2.763-.769l-1.427-.33c-.374.754-.374.754-1.336,1.1m5.449,2.963c.284-1.58-3.735-1.32-1.63.689a1.349,1.349,0,0,0,1.63-.689m-5.905-6.25c-.72-.815-1.342-.154-1.871.494.528,1.323.993.983,2.026.633.5-.287.185-.851-.154-1.126m-1.753-9.657c1.225.3,2.431-.6,1.582-1.747-1.224-.011-2.355.324-1.582,1.747m-3.366,12.8a1.569,1.569,0,0,1,1.038,1.15c3.161-.284.283-3.252-1.038-1.15m11.653-5.655c.081.446.16.884.24,1.33a1.206,1.206,0,0,0,1.294-.22l-.98-1.471-.553.361m-10.862-11.873c-.119.356-.225.676-.332,1a1.563,1.563,0,0,0,1.209.922c1.105-.816.667-2.478-.877-1.919m1.883,12.251c-.565-.739-2.2-.9-2.543.047a1.579,1.579,0,0,0,2.543-.047M145.3,274.894a1.6,1.6,0,0,0,.067,1.088,1.269,1.269,0,0,0,1.2.141l-.967-1.446a1.135,1.135,0,0,0-.3.217m6.339,16.092c-.1.183-.185.346-.3.56-2.4-.044.36,1.647,1.577.524-.406-.49-.6-1.105-1.277-1.084m-9.09-2.687c-.169.5-.339,1-.5,1.456.312.747.318.746.861.827V288.27l-.365.029m-.537-16.329c.041.684-.274,1.634.9,1.492v-1.62c-.28-.078-.566-.3-.9.128m.9,12.6v-1.851c-.82-.214-.729.945-.97,1.459a.774.774,0,0,0,.97.392m-.36-7.4c-.5.64-.966,2.123.36,1.851v-1.851Zm-.676,17.027a2.3,2.3,0,0,1,.6,1.433l.438.05v-1.85a.646.646,0,0,0-1.037.368m.028,6.13a.814.814,0,0,0,1.008.443v-1.619a1.4,1.4,0,0,0-1.008,1.176m-14.492-38.259c-.406-1.2-.491-2.232-1.905-1.923l.7,2.5a1.366,1.366,0,0,0,1.206-.582m12.873,36.862c1.664-.423,1.408-2.061.006-2.761-1.564.606-1.732,2.293-.006,2.761m-3.174.12a1.206,1.206,0,0,0-.548.685l.5,1.783c1.475.449,2.688-1.84.05-2.469m-8.972-50.093h.091l-.4-.579.311.579m2.018,21.751c.838-1.416-1.416-3.129-2.1-1.431l.259.927c.543.537,1.147,1.161,1.841.5m4.771-1.953c-.663-.51-1.321.28-1.442.911a3.642,3.642,0,0,0,.9,1.437c.807.046,1.042-.561,1.414-.963.6-.575-.529-.984-.873-1.385m.524,5.966c-.086-1.026-1.88-.509-1.979.267-.44,1.711,1.768,2.052,2.221.511.038-.322-.3-.436-.242-.777m-1.765-15.859c.3.612.427,1.141,1.24,1.214l.564-.448-1.326-1.964-.079-.02c-.57.381-.807.648-.4,1.219m3.165,3.739a1.984,1.984,0,0,0,.629-.017l-1.1-1.631a1.3,1.3,0,0,0,.469,1.648m-1.1,23.679c.183-1.155-1.408-1.6-2.111-.79-.154,1.718,1.648,2.929,2.111.79m-4.75-23.691c1.024.615,2.717-.705,1.554-1.937-1.389-.386-2.281.628-1.554,1.937m1.512,10.836.6-.871c-1.908-3-3.977,1.39-.6.871m-3.95-13.5c.533-.288,1.176-.1,1.6-.609-.1-.389-.187-.754-.287-1.168-1.337-.469-1.337-.469-2.085.479.051.541.511.818.772,1.3m6.367,30.817a1.009,1.009,0,0,0-.856.1l.6,2.156c1.225-.061,1.167-1.267.254-2.258m2.423-11.278.859-.46c.094-.4.179-.761.282-1.2l-1.666-.671c-1.051.45-.2,2.075.525,2.334m3.119,5.9c-1.244.319-1.674,1.4-.62,2.224,1.568.356,1.932-1.511.62-2.224m-1.95-1.9c-.265-1.394-2.084-.361-2.229.786.845,1.031,2.532.723,2.229-.786m2.8,19.167c-.724-.533-2.232-1.166-2.09.378-.128.538.026.822.3.938l1.011-.091c.585-.254,1.077-.771.783-1.226m-7.869-21.634c.378,2.627,3.247-.578,1.793-.889-.8.117-1.871-.514-1.793.889m-8.188-24.583a2.085,2.085,0,0,0,1.357.89c.83-1.123.858-1.332.307-2.123-1.238.049-1.568-.368-1.665,1.232m13.185,33.371c-.236-1.086-.276-1.888-1.7-1.534-.726,1.674.046,2.416,1.7,1.534m-13.838-36.761a1.1,1.1,0,0,0-1.359-.944l.528,1.889a1.732,1.732,0,0,0,.831-.945m5.592.128c-.667-.855-1.74-1.348-2.338-.132l1.072,1.437c.8-.389.8-.389,1.265-1.3m1.677,29.244c-.053.023-.094.053-.141.078l.579,2.071c.8-.264.885-1.359-.438-2.149m3.458-19.229c-1.685-.448-2.086.962-1.047,2.115,1.365-.785,1.406-.865,1.047-2.115m4.289,28.237c-.926.378-.548.89.013,1.557,1.609.315,1.559-.842,1.124-2.045-.531-.018-1.006-.1-1.137.488m-10.188-26.061c.473-.786.784-1.521-.009-2.215l-1.162.416c0,1.032-.271,2.293,1.171,1.8m11.525,5.377.307-.908c-.2-.454-.35-.9-.883-1.064-.387.553-1.282.612-1.344,1.4.343.784,1.23.579,1.92.57m-1.143,8.908a2.131,2.131,0,0,0-.8.886c.416.595.66,1.408,1.707,1.019.569-1.275.567-1.587-.91-1.9m-1.64-7.823a5.743,5.743,0,0,0-1.31-.212c-1.5,2.223,2.326,2.8,1.31.212m-.74-3.862,1-.4c-.1-.706-.551-1.05-1.136-1.478l-1.081.575c-.171,1.049.563,1.109,1.22,1.3M131,267.715c.621-.15.965.315,1.522.2,1.364-2.025-2.315-2.54-1.522-.2m8.1,7.772c0,1.731,1.9.7,2.448-.3a1.809,1.809,0,0,0-2.448.3m-.786,19.761c.681-1.026-.572-1.526-1.46-1.33-1.092,1.274.442,2.109,1.46,1.33M126.5,249.558c-.026.293-.044.515-.076.881-1.538-1.5-1.551.848.151,1.08.67-.362.69-1.036,1.064-1.641-.346-.225-.632-.484-1.139-.319m4.584,29.483c1.464-.2,2.761-1.383.743-1.888-.867-.236-1.016,1.287-.743,1.888m.23-22.883c.57.452.886,1,1.676.555a6.574,6.574,0,0,0-1.176-2.145c-.532.472-1.4.995-.5,1.589m-5.687-10.786-.09.1a1.246,1.246,0,0,0,.368.213,1.579,1.579,0,0,0-.279-.315m3.832,28.912.318,1.139a10.818,10.818,0,0,1-.095-1.186.978.978,0,0,0-.224.047m-5.521-26.993-1.023,1.161c.935.835,1.513-.456,1.023-1.161" transform="translate(-122.914 -245.372)" fill="#421b36"/>
                </g>
              </g>
            </g>
            <path id="Trazado_905633" data-name="Trazado 905633" d="M62.635,229.009c6.493-2.452,10.754-8.121,14.507-13.682q3.557-5.272,7.018-10.611a126.363,126.363,0,0,0,6.781-11.131c1.56-3.073,2.2-7.178-.962-9.487-.627-.458-1.229.587-.608,1.04,4.291,3.135-.256,9.33-2.159,12.461-2.543,4.181-5.221,8.277-7.928,12.353-4.459,6.712-9.017,14.891-16.969,17.895-.719.271-.407,1.437.32,1.162" transform="translate(-11.884 -35.32)" fill="#421b36"/>
            <path id="Trazado_905634" data-name="Trazado 905634" d="M69.772,174.215A53.474,53.474,0,0,0,87.383,188.6c.689.351,1.3-.688.608-1.041a52.663,52.663,0,0,1-17.365-14.191c-.482-.608-1.33.25-.852.852" transform="translate(-13.367 -33.241)" fill="#421b36"/>
            <path id="Trazado_905635" data-name="Trazado 905635" d="M65.222,47.3a6.632,6.632,0,0,0,2.06-.22,26.562,26.562,0,0,1,2.691-.269.61.61,0,0,0,0-1.22c-1.482-.15-3.828,0-4.885,1.2-.133.15-.111.472.133.506" transform="translate(-12.48 -8.742)" fill="#421b36"/>
            <path id="Trazado_905636" data-name="Trazado 905636" d="M104.472,57.255c-7.132-6.143-18.564-2.45-25.081,2.787a16.2,16.2,0,0,0-4.712,5.243c-.705,1.515-.673,3.7.837,4.752a6.568,6.568,0,0,0,1.812,1.048,5.766,5.766,0,0,0,4.025-.6c2.365-1.125,4.269-3.046,6.194-4.775A8.249,8.249,0,0,1,93.871,63.2c.775.036.773-1.168,0-1.2a8.613,8.613,0,0,0-4.611.92,19.7,19.7,0,0,0-3.667,2.951c-1.8,1.64-5.683,5.515-8.458,3.829a3.053,3.053,0,0,1-1.692-2.161c-.249-2.128,1.923-4.05,3.33-5.365A25.813,25.813,0,0,1,90,56.04c4.534-1.151,9.9-1.14,13.622,2.068.585.5,1.442-.345.852-.852" transform="translate(-14.251 -10.377)" fill="#421b36"/>
            <path id="Trazado_905637" data-name="Trazado 905637" d="M47.674,133.451l-3.245,3.866a.619.619,0,0,0,0,.852.608.608,0,0,0,.852,0l3.245-3.866a.62.62,0,0,0,0-.852.608.608,0,0,0-.852,0" transform="translate(-8.496 -25.585)" fill="#421b36"/>
          </g>
        </g>
      </g>
    </g>
    <g id="Grupo_1113954" data-name="Grupo 1113954" transform="translate(768.455 11159.874)">
      <rect id="Rectángulo_406193" data-name="Rectángulo 406193" width="98.618" height="15.41" transform="translate(3.76 110.737)" fill="#8380ff"/>
      <g id="Grupo_1113953" data-name="Grupo 1113953">
        <g id="Grupo_1113952" data-name="Grupo 1113952" clip-path="url(#clip-path-12)">
          <path id="Trazado_905692" data-name="Trazado 905692" d="M102.378,125.241c0,4.852-22.076,8.785-49.309,8.785S3.76,130.093,3.76,125.241s22.076-8.785,49.309-8.785,49.309,3.933,49.309,8.785" fill="#8380ff"/>
          <path id="Trazado_905693" data-name="Trazado 905693" d="M102.378,110.738c0,4.852-22.076,8.785-49.309,8.785S3.76,115.59,3.76,110.738s22.076-8.785,49.309-8.785,49.309,3.933,49.309,8.785" fill="#8380ff"/>
          <path id="Trazado_905694" data-name="Trazado 905694" d="M8.316,114.565a35.067,35.067,0,0,0-.455,13.16c.145.945,1.583.544,1.438-.4a33.1,33.1,0,0,1,.455-12.368c.213-.934-1.224-1.333-1.438-.4" fill="#421b36"/>
          <path id="Trazado_905695" data-name="Trazado 905695" d="M17.208,117.833l-.093,12.695a.746.746,0,0,0,1.491,0l.093-12.695a.746.746,0,0,0-1.491,0" fill="#421b36"/>
          <path id="Trazado_905696" data-name="Trazado 905696" d="M30.309,119.8a109.742,109.742,0,0,0-.206,13.065c.042.956,1.533.961,1.491,0A109.742,109.742,0,0,1,31.8,119.8c.073-.957-1.419-.953-1.491,0" fill="#421b36"/>
          <path id="Trazado_905697" data-name="Trazado 905697" d="M44.331,120.158q.205,6.615.41,13.23c.029.957,1.521.961,1.491,0q-.205-6.615-.41-13.23c-.029-.957-1.521-.961-1.491,0" fill="#421b36"/>
          <path id="Trazado_905698" data-name="Trazado 905698" d="M57.164,120.726a62.555,62.555,0,0,1,.916,12.305.746.746,0,0,0,1.491,0,64.51,64.51,0,0,0-.969-12.7c-.166-.944-1.6-.544-1.438.4" fill="#421b36"/>
          <path id="Trazado_905699" data-name="Trazado 905699" d="M69.891,119.632q.438,6.25.874,12.5c.067.952,1.559.96,1.492,0q-.438-6.25-.875-12.5c-.066-.952-1.558-.959-1.491,0" fill="#421b36"/>
          <path id="Trazado_905700" data-name="Trazado 905700" d="M81.838,118.934A89.929,89.929,0,0,1,83,131.6a.746.746,0,0,0,1.492,0,92.7,92.7,0,0,0-1.22-13.063c-.156-.945-1.593-.544-1.438.4" fill="#421b36"/>
          <path id="Trazado_905701" data-name="Trazado 905701" d="M93.907,117.114a106.406,106.406,0,0,1,.007,11.45c-.051.959,1.441.957,1.492,0a106.4,106.4,0,0,0-.008-11.45c-.052-.954-1.543-.961-1.491,0" fill="#421b36"/>
          <path id="Trazado_905702" data-name="Trazado 905702" d="M3.014,125.241c.06,1.855,1.95,2.984,3.433,3.7a40.442,40.442,0,0,0,9.7,2.882c10.876,2.162,22.1,2.775,33.167,2.924a221.122,221.122,0,0,0,35.632-2.054,69.659,69.659,0,0,0,11.874-2.609c1.957-.656,4.523-1.5,5.765-3.29,1.07-1.54.54-4.215.54-5.946v-8.49a.746.746,0,0,0-1.491,0v10.926a13.194,13.194,0,0,1,0,1.958c-.249,1.584-2.6,2.423-3.88,2.924a52.706,52.706,0,0,1-10.015,2.569A193.983,193.983,0,0,1,55.39,133.27a216.8,216.8,0,0,1-33.8-2.016,68.168,68.168,0,0,1-12.128-2.695c-1.3-.446-4.9-1.5-4.957-3.318-.031-.957-1.522-.962-1.491,0" fill="#421b36"/>
          <path id="Trazado_905703" data-name="Trazado 905703" d="M101.632,110.738c-.037,1.136-1.656,1.9-2.505,2.319a31.807,31.807,0,0,1-6.948,2.266,136.906,136.906,0,0,1-22.741,2.958,264.665,264.665,0,0,1-29.3.191,158.831,158.831,0,0,1-23.957-2.663A42.492,42.492,0,0,1,7.8,113.423c-1.013-.437-3.25-1.317-3.3-2.685-.031-.957-1.522-.962-1.491,0,.116,3.558,6.25,4.9,8.817,5.59,7.654,2.044,15.694,2.822,23.574,3.36a262.555,262.555,0,0,0,31.663.221,148.318,148.318,0,0,0,25.012-3.033,32.781,32.781,0,0,0,8.071-2.671c1.344-.71,2.918-1.787,2.972-3.467.031-.96-1.46-.959-1.491,0" fill="#421b36"/>
          <rect id="Rectángulo_406194" data-name="Rectángulo 406194" width="98.618" height="15.41" transform="translate(0.746 92.348)" fill="#8380ff"/>
          <path id="Trazado_905704" data-name="Trazado 905704" d="M99.364,106.852c0,4.852-22.076,8.785-49.309,8.785S.746,111.7.746,106.852s22.076-8.785,49.309-8.785S99.364,102,99.364,106.852" fill="#8380ff"/>
          <path id="Trazado_905705" data-name="Trazado 905705" d="M99.364,92.348c0,4.852-22.076,8.785-49.309,8.785S.746,97.2.746,92.348s22.076-8.785,49.309-8.785S99.364,87.5,99.364,92.348" fill="#8380ff"/>
          <path id="Trazado_905706" data-name="Trazado 905706" d="M5.3,96.175a35.067,35.067,0,0,0-.455,13.16c.145.946,1.583.544,1.438-.4A33.084,33.084,0,0,1,6.74,96.571c.213-.934-1.224-1.333-1.438-.4" fill="#421b36"/>
          <path id="Trazado_905707" data-name="Trazado 905707" d="M14.194,99.443,14.1,112.138a.746.746,0,0,0,1.491,0l.093-12.695a.746.746,0,0,0-1.491,0" fill="#421b36"/>
          <path id="Trazado_905708" data-name="Trazado 905708" d="M27.3,101.408a109.742,109.742,0,0,0-.206,13.065c.042.956,1.533.961,1.491,0a109.742,109.742,0,0,1,.206-13.065c.073-.957-1.419-.953-1.491,0" fill="#421b36"/>
          <path id="Trazado_905709" data-name="Trazado 905709" d="M41.317,101.768q.205,6.615.41,13.23c.029.957,1.521.961,1.491,0q-.205-6.615-.41-13.23c-.029-.957-1.521-.962-1.491,0" fill="#421b36"/>
          <path id="Trazado_905710" data-name="Trazado 905710" d="M54.15,102.336a62.555,62.555,0,0,1,.916,12.305.746.746,0,0,0,1.491,0,64.51,64.51,0,0,0-.969-12.7c-.166-.944-1.6-.544-1.438.4" fill="#421b36"/>
          <path id="Trazado_905711" data-name="Trazado 905711" d="M66.877,101.243q.437,6.251.874,12.5c.067.952,1.559.96,1.492,0q-.438-6.25-.875-12.5c-.066-.952-1.558-.959-1.491,0" fill="#421b36"/>
          <path id="Trazado_905712" data-name="Trazado 905712" d="M78.824,100.545a90.079,90.079,0,0,1,1.167,12.667.746.746,0,0,0,1.491,0,92.7,92.7,0,0,0-1.22-13.063c-.156-.945-1.593-.544-1.438.4" fill="#421b36"/>
          <path id="Trazado_905713" data-name="Trazado 905713" d="M90.893,98.724a106.406,106.406,0,0,1,.007,11.45c-.051.96,1.441.957,1.491,0a106.4,106.4,0,0,0-.007-11.45c-.052-.954-1.543-.961-1.491,0" fill="#421b36"/>
          <path id="Trazado_905714" data-name="Trazado 905714" d="M0,106.852c.059,1.855,1.95,2.984,3.433,3.7a40.427,40.427,0,0,0,9.7,2.882c10.877,2.162,22.1,2.775,33.168,2.924A221.115,221.115,0,0,0,81.93,114.3,69.66,69.66,0,0,0,93.8,111.694c1.957-.656,4.523-1.5,5.765-3.29,1.069-1.54.54-4.215.54-5.946v-8.49a.746.746,0,0,0-1.491,0v10.926a13.193,13.193,0,0,1,0,1.958c-.249,1.584-2.6,2.423-3.88,2.924a52.708,52.708,0,0,1-10.015,2.569,193.983,193.983,0,0,1-32.347,2.536,216.8,216.8,0,0,1-33.8-2.016A68.169,68.169,0,0,1,6.448,110.17c-1.3-.445-4.9-1.5-4.956-3.318-.031-.957-1.523-.962-1.491,0" fill="#421b36"/>
          <path id="Trazado_905715" data-name="Trazado 905715" d="M98.618,92.348c-.037,1.136-1.656,1.895-2.5,2.319a31.789,31.789,0,0,1-6.948,2.266,136.906,136.906,0,0,1-22.741,2.958,264.649,264.649,0,0,1-29.3.191,158.829,158.829,0,0,1-23.958-2.663,42.492,42.492,0,0,1-8.382-2.386c-1.013-.437-3.25-1.317-3.295-2.685-.031-.957-1.522-.962-1.491,0,.116,3.558,6.25,4.9,8.817,5.59,7.654,2.044,15.694,2.821,23.574,3.36a262.554,262.554,0,0,0,31.663.221,148.293,148.293,0,0,0,25.012-3.033,32.781,32.781,0,0,0,8.071-2.671c1.345-.71,2.918-1.787,2.972-3.467.032-.96-1.46-.959-1.491,0" fill="#421b36"/>
          <rect id="Rectángulo_406195" data-name="Rectángulo 406195" width="98.618" height="15.41" transform="translate(11.343 73.556)" fill="#8380ff"/>
          <path id="Trazado_905716" data-name="Trazado 905716" d="M109.961,88.06c0,4.852-22.076,8.785-49.309,8.785S11.343,92.912,11.343,88.06s22.076-8.785,49.309-8.785,49.309,3.933,49.309,8.785" fill="#8380ff"/>
          <path id="Trazado_905717" data-name="Trazado 905717" d="M109.961,73.556c0,4.852-22.076,8.785-49.309,8.785s-49.309-3.933-49.309-8.785,22.076-8.785,49.309-8.785,49.309,3.933,49.309,8.785" fill="#8380ff"/>
          <path id="Trazado_905718" data-name="Trazado 905718" d="M15.9,77.383a35.067,35.067,0,0,0-.455,13.16c.145.945,1.582.544,1.438-.4a33.084,33.084,0,0,1,.455-12.368c.213-.934-1.224-1.333-1.438-.4" fill="#421b36"/>
          <path id="Trazado_905719" data-name="Trazado 905719" d="M24.791,80.651,24.7,93.346a.746.746,0,0,0,1.491,0l.093-12.695a.746.746,0,0,0-1.491,0" fill="#421b36"/>
          <path id="Trazado_905720" data-name="Trazado 905720" d="M37.891,82.616a109.742,109.742,0,0,0-.206,13.065c.042.956,1.533.961,1.491,0a109.742,109.742,0,0,1,.206-13.065c.073-.957-1.419-.953-1.491,0" fill="#421b36"/>
          <path id="Trazado_905721" data-name="Trazado 905721" d="M51.914,82.976q.205,6.615.41,13.23c.029.957,1.521.961,1.491,0q-.205-6.615-.41-13.23c-.029-.957-1.521-.961-1.491,0" fill="#421b36"/>
          <path id="Trazado_905722" data-name="Trazado 905722" d="M64.747,83.544a62.554,62.554,0,0,1,.916,12.305.746.746,0,0,0,1.491,0,64.511,64.511,0,0,0-.969-12.7c-.166-.944-1.6-.544-1.438.4" fill="#421b36"/>
          <path id="Trazado_905723" data-name="Trazado 905723" d="M77.474,82.451q.437,6.25.874,12.5c.067.952,1.559.96,1.492,0q-.438-6.25-.875-12.5c-.066-.952-1.558-.959-1.491,0" fill="#421b36"/>
          <path id="Trazado_905724" data-name="Trazado 905724" d="M89.421,81.753A90.079,90.079,0,0,1,90.588,94.42a.746.746,0,0,0,1.491,0,92.7,92.7,0,0,0-1.22-13.063c-.156-.945-1.593-.544-1.438.4" fill="#421b36"/>
          <path id="Trazado_905725" data-name="Trazado 905725" d="M101.49,79.932a106.406,106.406,0,0,1,.006,11.45c-.051.96,1.442.957,1.492,0a106.663,106.663,0,0,0-.008-11.45c-.052-.954-1.542-.961-1.49,0" fill="#421b36"/>
          <path id="Trazado_905726" data-name="Trazado 905726" d="M10.6,88.06c.06,1.855,1.95,2.984,3.433,3.7a40.448,40.448,0,0,0,9.7,2.882C34.6,96.8,45.83,97.416,56.894,97.565a221.127,221.127,0,0,0,35.633-2.054A69.66,69.66,0,0,0,104.4,92.9c1.957-.656,4.523-1.5,5.765-3.29,1.069-1.54.54-4.215.54-5.945V75.176a.746.746,0,0,0-1.491,0V86.1a13.193,13.193,0,0,1,0,1.958c-.25,1.584-2.6,2.423-3.88,2.924A52.708,52.708,0,0,1,95.32,93.553a193.983,193.983,0,0,1-32.347,2.536,216.79,216.79,0,0,1-33.8-2.016,68.169,68.169,0,0,1-12.128-2.695c-1.3-.446-4.9-1.5-4.957-3.318-.031-.957-1.522-.962-1.491,0" fill="#421b36"/>
          <path id="Trazado_905727" data-name="Trazado 905727" d="M109.215,73.556c-.037,1.136-1.656,1.895-2.5,2.319a31.789,31.789,0,0,1-6.948,2.266A136.906,136.906,0,0,1,77.021,81.1a264.665,264.665,0,0,1-29.3.191,158.831,158.831,0,0,1-23.957-2.663,42.56,42.56,0,0,1-8.382-2.386c-1.013-.437-3.25-1.317-3.3-2.685-.031-.957-1.522-.962-1.491,0,.116,3.558,6.25,4.9,8.817,5.59,7.654,2.044,15.694,2.821,23.574,3.36a262.554,262.554,0,0,0,31.663.221,148.293,148.293,0,0,0,25.012-3.033,32.781,32.781,0,0,0,8.071-2.671c1.344-.71,2.918-1.787,2.972-3.467.031-.96-1.46-.959-1.491,0" fill="#421b36"/>
          <path id="Trazado_905728" data-name="Trazado 905728" d="M31.25,74.735a8.756,8.756,0,0,1-1.364.013,2.481,2.481,0,0,1-.79-.171c-.179-.082-.271-.18-.28-.292-.01-.175.174-.335.555-.476a7.1,7.1,0,0,1,1.8-.3q3.948-.261,9.42-.564t11.69-.622q6.219-.318,12.5-.651t11.982-.653q5.7-.318,10.032-.627a6.3,6.3,0,0,1,1.694.052c.4.085.6.208.61.371.011.189-.173.353-.554.494a6.422,6.422,0,0,1-1.672.289q-4.332.308-10.031.627t-11.982.651q-6.282.334-12.5.661t-11.691.631q-5.47.3-9.42.564m9.243-4.779a6.247,6.247,0,0,1,1.41-.309,6.028,6.028,0,0,1,1.1.017,5.086,5.086,0,0,1,.889.165c.244.069.369.155.374.255.005.076-.054.16-.178.251a2.123,2.123,0,0,1-.5.251A11.907,11.907,0,0,0,40.471,72.1a1.785,1.785,0,0,0-.847,1.479,1.864,1.864,0,0,0,1.1,1.464,7.856,7.856,0,0,0,2.785.842,18.8,18.8,0,0,0,3.938.09,17.92,17.92,0,0,0,3.217-.5,11.372,11.372,0,0,0,2.785-1.124,14.412,14.412,0,0,0,2.666-2,12.674,12.674,0,0,1,3.354-2.376,20.1,20.1,0,0,1,4.288-1.533,31.739,31.739,0,0,1,5.181-.767,35.9,35.9,0,0,1,6.7.073,12.5,12.5,0,0,1,4.5,1.243,2.851,2.851,0,0,1,1.708,2.29,2.425,2.425,0,0,1-.543,1.645,6.085,6.085,0,0,1-1.659,1.471A13.839,13.839,0,0,1,77.192,75.6a6.182,6.182,0,0,1-.828.238,5.648,5.648,0,0,1-.838.126,5.735,5.735,0,0,1-1.04-.01,4.159,4.159,0,0,1-.791-.162q-.332-.111-.342-.259a.373.373,0,0,1,.208-.318,3.975,3.975,0,0,1,.788-.359,7.234,7.234,0,0,0,1.665-.875,5.746,5.746,0,0,0,1.257-1.168,1.759,1.759,0,0,0,.443-1.185q-.1-1.507-2.292-2.25a15.618,15.618,0,0,0-5.945-.475,21.773,21.773,0,0,0-3.7.554,11.374,11.374,0,0,0-3.007,1.218,16.888,16.888,0,0,0-2.849,2.16,16,16,0,0,1-3.234,2.236,17.446,17.446,0,0,1-3.935,1.45,29.249,29.249,0,0,1-4.892.727,30.87,30.87,0,0,1-6.182-.12,13.441,13.441,0,0,1-4.4-1.221q-1.648-.855-1.728-2.081a2.005,2.005,0,0,1,.494-1.395,5.525,5.525,0,0,1,1.7-1.315,17.111,17.111,0,0,1,2.751-1.159" fill="#a0d2f4"/>
          <path id="Trazado_905729" data-name="Trazado 905729" d="M71.66,69.765C44.908,80.1,18.124,76.319,11.837,61.331c-.393-.937-4.158-8.255-4.376-9.232C4.2,37.457,23.812,25.173,48.892,15.489c26.752-10.33,47.142-14.067,56.335-.664,2.5,3.643,5.2,10.009,4.817,15.548-.971,13.953-15.307,30.481-38.384,39.392" fill="#8380ff"/>
          <path id="Trazado_905730" data-name="Trazado 905730" d="M68.173,60.667C41.42,71,14.637,67.221,8.349,52.233S18.653,16.721,45.4,6.391s53.535-6.554,59.824,8.434-10.3,35.512-37.055,45.842" fill="#8380ff"/>
          <path id="Trazado_905731" data-name="Trazado 905731" d="M38.8,67.058c-15.01,0-27.021-5.107-31-14.595-2.03-4.839-1.8-10.457.666-16.247,5.092-11.959,19.164-23.6,36.724-30.382,27.005-10.427,54.187-6.5,60.587,8.76,2.031,4.84,1.8,10.458-.664,16.246-5.093,11.961-19.164,23.6-36.726,30.384A83.339,83.339,0,0,1,38.8,67.058m36.085-65.9A82.509,82.509,0,0,0,45.618,6.948C28.349,13.616,14.532,25.01,9.563,36.685,7.227,42.17,7,47.466,8.9,52,15.051,66.67,41.541,70.309,67.957,60.11c17.27-6.668,31.087-18.063,36.058-29.737,2.335-5.485,2.564-10.781.661-15.317C100.883,6.013,89.355,1.161,74.885,1.161" fill="#421b36"/>
          <path id="Trazado_905732" data-name="Trazado 905732" d="M40.816,63.353c-13.932,0-25.33-4.79-29.011-13.566-1.722-4.1-1.518-8.888.589-13.836C16.976,25.187,29.94,14.6,46.227,8.306c24.575-9.487,49.126-6.338,54.73,7.02,1.779,4.241,1.517,9.307-.757,14.649C95.356,41.348,82.488,52.222,66.617,58.351a72.557,72.557,0,0,1-25.8,5M73.971,3.984A77.191,77.191,0,0,0,46.655,9.42c-15.995,6.176-28.7,16.521-33.164,27-1.977,4.644-2.18,9.107-.586,12.907,5.575,13.288,29.978,16.909,53.283,7.911C81.768,51.22,94.38,40.6,99.1,29.508c2.145-5.039,2.406-9.784.755-13.721-3.234-7.707-13.212-11.8-25.886-11.8" fill="#421b36"/>
          <path id="Trazado_905733" data-name="Trazado 905733" d="M78.455,65.759a34.021,34.021,0,0,0-1.279-3.927,20.665,20.665,0,0,0-1.809-3.8c-.521-.8-1.812-.055-1.288.753a18.973,18.973,0,0,1,1.7,3.549,33.936,33.936,0,0,1,1.238,3.819.746.746,0,0,0,1.438-.4" fill="#421b36"/>
          <path id="Trazado_905734" data-name="Trazado 905734" d="M89.843,59.481,86.129,52.3c-.44-.852-1.728-.1-1.287.753l3.713,7.183c.441.852,1.729.1,1.288-.753" fill="#421b36"/>
          <path id="Trazado_905735" data-name="Trazado 905735" d="M99.466,51.794a17.565,17.565,0,0,0-4.585-7.108c-.7-.656-1.756.4-1.054,1.054a15.992,15.992,0,0,1,4.2,6.45.763.763,0,0,0,.917.521.752.752,0,0,0,.521-.917" fill="#421b36"/>
          <path id="Trazado_905736" data-name="Trazado 905736" d="M105.829,42.894a26.2,26.2,0,0,0-4.215-6.248A.746.746,0,1,0,100.56,37.7a24.854,24.854,0,0,1,3.981,5.946.752.752,0,0,0,1.02.267.761.761,0,0,0,.268-1.02" fill="#421b36"/>
          <path id="Trazado_905737" data-name="Trazado 905737" d="M65.339,70.83q-1.036-3.583-2.071-7.165a.746.746,0,0,0-1.438.4q1.036,3.582,2.07,7.165a.747.747,0,0,0,1.439-.4" fill="#421b36"/>
          <path id="Trazado_905738" data-name="Trazado 905738" d="M38.531,74.59c-.848-2.664-1.524-5.379-2.372-8.043-.291-.911-1.731-.522-1.439.4.849,2.664,1.525,5.38,2.373,8.043.29.911,1.73.522,1.438-.4" fill="#421b36"/>
          <path id="Trazado_905739" data-name="Trazado 905739" d="M26.235,70.692q-.977-2.987-1.954-5.972a.762.762,0,0,0-.917-.521.753.753,0,0,0-.521.917q.976,2.987,1.954,5.972a.761.761,0,0,0,.917.521.753.753,0,0,0,.521-.917" fill="#421b36"/>
          <path id="Trazado_905740" data-name="Trazado 905740" d="M29.5,43.534a3.531,3.531,0,0,1-1.411.3,1.88,1.88,0,0,1-1-.3A1.581,1.581,0,0,1,26.5,42.8a1.538,1.538,0,0,1,.1-1.387,3.019,3.019,0,0,1,1.577-1.161q3.854-1.49,9.252-3.4t11.561-4q6.162-2.1,12.378-4.245T73.2,24.461q5.62-1.995,9.829-3.688a2.742,2.742,0,0,1,1.815-.2,1.483,1.483,0,0,1,1.012.882,1.589,1.589,0,0,1-.079,1.438A2.773,2.773,0,0,1,84.329,24q-4.21,1.692-9.829,3.689T62.666,31.834Q56.451,33.98,50.3,36.1T38.747,40.134q-5.4,1.908-9.252,3.4m4.814-14.706a2.834,2.834,0,0,1,1.158-1.11,2.552,2.552,0,0,1,1.17-.179,3.38,3.38,0,0,1,1.091.266,1.142,1.142,0,0,1,.649.615,1.37,1.37,0,0,1,.067.707,2.236,2.236,0,0,1-.27.782,12.174,12.174,0,0,0-1.732,4.679,8.562,8.562,0,0,0,.611,4.149,9.114,9.114,0,0,0,2.627,3.717,7.613,7.613,0,0,0,3.753,1.712,7.9,7.9,0,0,0,4.2-.545,7.385,7.385,0,0,0,2.847-1.993,8.945,8.945,0,0,0,1.771-3.584,27.092,27.092,0,0,0,.763-5.9,22.134,22.134,0,0,1,1.1-7.063A13.878,13.878,0,0,1,57.033,20.1a12.864,12.864,0,0,1,4.632-3.091,14.712,14.712,0,0,1,7.058-1.141,11.121,11.121,0,0,1,5.945,2.442,13.991,13.991,0,0,1,4.093,5.823,15.469,15.469,0,0,1,1.1,4.538,14.781,14.781,0,0,1-.247,4.288,14.036,14.036,0,0,1-1.345,3.732,3.363,3.363,0,0,1-.624.807A2.341,2.341,0,0,1,76.9,38a2.318,2.318,0,0,1-1.1.177,2.811,2.811,0,0,1-.987-.276,1.215,1.215,0,0,1-.618-.629,1.6,1.6,0,0,1-.1-.9,3.812,3.812,0,0,1,.46-1.122,8.03,8.03,0,0,0,.854-2.688,14.791,14.791,0,0,0,.132-3.392A10.78,10.78,0,0,0,74.8,25.9a10.236,10.236,0,0,0-4.658-5.6,7.728,7.728,0,0,0-6.681-.1,8.758,8.758,0,0,0-3.3,2.235,8.985,8.985,0,0,0-1.91,3.873,32.5,32.5,0,0,0-.791,6.38,26.661,26.661,0,0,1-1.116,6.659,12.328,12.328,0,0,1-2.638,4.692,11.912,11.912,0,0,1-4.369,2.931,12.872,12.872,0,0,1-6.566.911,11.989,11.989,0,0,1-5.82-2.405,12.181,12.181,0,0,1-3.9-5.255,12.368,12.368,0,0,1-.894-3.856A11.034,11.034,0,0,1,32.61,32.5a14.247,14.247,0,0,1,1.7-3.67" fill="#a0d2f4"/>
          <path id="Trazado_905741" data-name="Trazado 905741" d="M47.913,66.638c.894,2.582,1.872,5.133,2.766,7.715a.765.765,0,0,0,.918.521.752.752,0,0,0,.52-.917c-.894-2.582-1.872-5.134-2.766-7.715a.763.763,0,0,0-.917-.521.752.752,0,0,0-.521.917" fill="#421b36"/>
          <path id="Trazado_905742" data-name="Trazado 905742" d="M105.674,27.781a23.252,23.252,0,0,1,2.871,5.111.769.769,0,0,0,.917.521.752.752,0,0,0,.521-.918,24.617,24.617,0,0,0-3.021-5.467.768.768,0,0,0-1.02-.267.751.751,0,0,0-.268,1.02" fill="#421b36"/>
          <path id="Trazado_905743" data-name="Trazado 905743" d="M8.117,53.1c2.118,5.721,4.861,11.508,9.594,15.54,3.871,3.3,8.544,4.6,13.359,5.837,8.683,2.233,17.284,1.316,26.011-.322a94.315,94.315,0,0,0,11.59-2.631,73.791,73.791,0,0,0,13.233-5.9c11.918-6.658,23.869-15.809,27.92-29.425a27.642,27.642,0,0,0,1.157-12.11,12.594,12.594,0,0,0-1.644-3.755q-1.476-2.778-2.964-5.551c-.454-.846-1.742-.094-1.288.752q1.178,2.2,2.35,4.4a23.333,23.333,0,0,1,1.982,3.909c.719,2.752.284,6.031-.246,8.764-2.627,13.545-13.255,22.7-24.475,29.642a69.9,69.9,0,0,1-21.981,9.24c-9.25,2.007-19.148,4.131-28.594,2.173-4.426-.918-9.3-2-13.134-4.44-5.871-3.732-9.092-10.2-11.432-16.519-.33-.893-1.772-.507-1.438.4" fill="#421b36"/>
        </g>
      </g>
    </g>
  </g>
</svg>
