<svg xmlns="http://www.w3.org/2000/svg" xmlns:xlink="http://www.w3.org/1999/xlink" width="295" height="307.949" viewBox="0 0 295 307.949">
  <defs>
    <clipPath id="clip-path">
      <rect id="Rectángulo_406233" data-name="Rectángulo 406233" width="295" height="307.949" rx="8" transform="translate(285.051 11860.492)" fill="#fed6a8"/>
    </clipPath>
    <clipPath id="clip-path-2">
      <rect id="Rectángulo_406235" data-name="Rectángulo 406235" width="85.723" height="98.918" fill="none"/>
    </clipPath>
    <clipPath id="clip-path-3">
      <rect id="Rectángulo_406237" data-name="Rectángulo 406237" width="50.004" height="71.398" fill="none"/>
    </clipPath>
    <clipPath id="clip-path-4">
      <rect id="Rectángulo_406232" data-name="Rectángulo 406232" width="354.629" height="319.5" fill="none"/>
    </clipPath>
    <clipPath id="clip-path-6">
      <rect id="Rectángulo_406198" data-name="Rectángulo 406198" width="149.855" height="144.156" fill="none"/>
    </clipPath>
    <clipPath id="clip-path-8">
      <rect id="Rectángulo_406199" data-name="Rectángulo 406199" width="62.218" height="162.1" fill="none"/>
    </clipPath>
    <clipPath id="clip-path-9">
      <rect id="Rectángulo_406200" data-name="Rectángulo 406200" width="104.235" height="237.351" fill="none"/>
    </clipPath>
    <clipPath id="clip-path-10">
      <rect id="Rectángulo_406201" data-name="Rectángulo 406201" width="57.407" height="77.871" fill="none"/>
    </clipPath>
    <clipPath id="clip-path-11">
      <rect id="Rectángulo_406209" data-name="Rectángulo 406209" width="108.967" height="103.927" fill="none"/>
    </clipPath>
    <clipPath id="clip-path-12">
      <rect id="Rectángulo_406223" data-name="Rectángulo 406223" width="15.56" height="60.679" fill="none"/>
    </clipPath>
    <clipPath id="clip-path-13">
      <rect id="Rectángulo_406224" data-name="Rectángulo 406224" width="24.272" height="111.618" fill="none"/>
    </clipPath>
    <clipPath id="clip-path-15">
      <rect id="Rectángulo_406227" data-name="Rectángulo 406227" width="75.9" height="210.909" fill="none"/>
    </clipPath>
    <clipPath id="clip-path-17">
      <rect id="Rectángulo_406228" data-name="Rectángulo 406228" width="83.719" height="132.063" fill="none"/>
    </clipPath>
    <clipPath id="clip-path-18">
      <rect id="Rectángulo_406229" data-name="Rectángulo 406229" width="25.286" height="25.356" fill="none"/>
    </clipPath>
    <clipPath id="clip-path-19">
      <rect id="Rectángulo_406230" data-name="Rectángulo 406230" width="56.926" height="203.649" fill="none"/>
    </clipPath>
  </defs>
  <g id="Grupo_1114894" data-name="Grupo 1114894" transform="translate(-305 -11867.962)">
    <rect id="Rectángulo_405717" data-name="Rectángulo 405717" width="295" height="307.949" rx="8" transform="translate(305 11867.962)" fill="#fed6a8"/>
    <g id="Enmascarar_grupo_1098743" data-name="Enmascarar grupo 1098743" transform="translate(19.949 7.47)" clip-path="url(#clip-path)">
      <g id="Grupo_1114001" data-name="Grupo 1114001" transform="translate(481.051 11874.325)">
        <g id="Grupo_1114001-2" data-name="Grupo 1114001" clip-path="url(#clip-path-2)">
          <path id="Trazado_905890" data-name="Trazado 905890" d="M99.781,130.451l-27.189-8.239a2.407,2.407,0,0,1-1.6-3l4.765-15.726a2.407,2.407,0,0,1,3-1.605l27.189,8.239a2.407,2.407,0,0,1,1.605,3l-4.765,15.726A2.407,2.407,0,0,1,99.781,130.451Z" transform="translate(-22.274 -31.981)" fill="none" stroke="#263238" stroke-miterlimit="10" stroke-width="1"/>
          <line id="Línea_1873" data-name="Línea 1873" x2="31.797" y2="9.635" transform="translate(52.741 73.936)" fill="none" stroke="#263238" stroke-miterlimit="10" stroke-width="1"/>
          <line id="Línea_1874" data-name="Línea 1874" x2="31.797" y2="9.635" transform="translate(51.774 77.129)" fill="none" stroke="#263238" stroke-miterlimit="10" stroke-width="1"/>
          <path id="Trazado_905891" data-name="Trazado 905891" d="M106.466,134.167a2.065,2.065,0,0,0,.179,1.62,2.07,2.07,0,1,1,.87-2.869A2.063,2.063,0,0,0,106.466,134.167Z" transform="translate(-32.567 -41.437)" fill="none" stroke="#263238" stroke-miterlimit="10" stroke-width="1"/>
          <path id="Trazado_905892" data-name="Trazado 905892" d="M111.679,135.745a2.068,2.068,0,1,1-1.38-2.579A2.068,2.068,0,0,1,111.679,135.745Z" transform="translate(-33.821 -41.817)" fill="none" stroke="#263238" stroke-miterlimit="10" stroke-width="1"/>
          <rect id="Rectángulo_406234" data-name="Rectángulo 406234" width="43.659" height="22.71" transform="translate(0.455 21.192) rotate(-24.603)" fill="none" stroke="#263238" stroke-miterlimit="10" stroke-width="1"/>
          <path id="Trazado_905893" data-name="Trazado 905893" d="M47.964,23.608,41.957,10.489a2.328,2.328,0,0,1-3.085-1.148L6.787,24.032a2.328,2.328,0,0,1-1.148,3.086l6.007,13.119a2.329,2.329,0,0,1,3.086,1.147L46.817,26.694A2.328,2.328,0,0,1,47.964,23.608Z" transform="translate(-1.772 -2.935)" fill="none" stroke="#263238" stroke-miterlimit="10" stroke-width="1"/>
          <path id="Trazado_905894" data-name="Trazado 905894" d="M39.19,27.484a5.968,5.968,0,1,1-7.911-2.942A5.968,5.968,0,0,1,39.19,27.484Z" transform="translate(-8.734 -7.541)" fill="none" stroke="#263238" stroke-miterlimit="10" stroke-width="1"/>
          <path id="Trazado_905895" data-name="Trazado 905895" d="M36.81,33.726l.446.974-.424.195-.443-.967a3.491,3.491,0,0,1-2.38.156l.025-.6a3.176,3.176,0,0,0,2.106-.1l-1.02-2.229c-1.038.2-2.119.345-2.631-.774-.373-.814-.11-1.785,1.14-2.481l-.446-.974.424-.194.442.966a3.658,3.658,0,0,1,1.962-.262l.017.6a3.459,3.459,0,0,0-1.734.2l1.029,2.247c1.063-.21,2.2-.4,2.716.735.376.822.084,1.818-1.229,2.511m-1.961-3.163-.971-2.119c-.838.476-1.022,1.1-.778,1.638.295.644.972.621,1.749.481m2.586.969c-.307-.669-1.03-.615-1.841-.459l.97,2.119c.9-.494,1.118-1.117.87-1.66" transform="translate(-10.16 -8.4)" fill="#263238"/>
          <path id="Trazado_905896" data-name="Trazado 905896" d="M102.434,6.469A5.969,5.969,0,1,1,96.466.5,5.968,5.968,0,0,1,102.434,6.469Z" transform="translate(-28.437 -0.157)" fill="none" stroke="#263238" stroke-miterlimit="10" stroke-width="1"/>
          <path id="Trazado_905897" data-name="Trazado 905897" d="M98.354,10.505v1.072h-.466V10.514a3.493,3.493,0,0,1-2.229-.848l.271-.531a3.177,3.177,0,0,0,1.958.783V7.466c-1.026-.252-2.07-.569-2.07-1.8,0-.9.643-1.669,2.07-1.781V2.813h.466V3.876a3.656,3.656,0,0,1,1.893.579L100.014,5a3.463,3.463,0,0,0-1.66-.54V6.934c1.053.252,2.163.55,2.163,1.8,0,.9-.681,1.688-2.163,1.771m-.466-3.692V4.482c-.96.084-1.389.578-1.389,1.166,0,.708.625.969,1.389,1.165m1.948,1.958c0-.737-.68-.988-1.482-1.184V9.918c1.025-.075,1.482-.55,1.482-1.147" transform="translate(-30.059 -0.884)" fill="#263238"/>
          <path id="Trazado_905898" data-name="Trazado 905898" d="M42.262,117.5a5.968,5.968,0,1,1-1.959-8.21A5.968,5.968,0,0,1,42.262,117.5Z" transform="translate(-9.807 -34.065)" fill="none" stroke="#263238" stroke-miterlimit="10" stroke-width="1"/>
          <path id="Trazado_905899" data-name="Trazado 905899" d="M36.864,118.312l-.562.913-.4-.244.556-.906a3.492,3.492,0,0,1-1.454-1.89l.508-.311a3.177,3.177,0,0,0,1.258,1.692l1.284-2.089c-.742-.752-1.465-1.568-.821-2.617.468-.763,1.422-1.085,2.7-.433l.562-.913.4.244-.557.905a3.655,3.655,0,0,1,1.31,1.484l-.486.346a3.463,3.463,0,0,0-1.131-1.33l-1.294,2.105c.766.766,1.555,1.6.9,2.666-.473.77-1.463,1.081-2.77.376m1.536-3.39,1.221-1.986c-.863-.431-1.487-.235-1.795.265-.371.6.025,1.153.574,1.721m.634,2.688c.385-.627-.062-1.2-.643-1.785l-1.221,1.986c.913.473,1.551.307,1.863-.2" transform="translate(-11.001 -35.041)" fill="#263238"/>
        </g>
      </g>
      <g id="Grupo_1114002" data-name="Grupo 1114002" transform="translate(305.926 11874.325) rotate(17)">
        <g id="Grupo_1114003" data-name="Grupo 1114003" transform="translate(0 0)" clip-path="url(#clip-path-3)">
          <path id="Trazado_905905" data-name="Trazado 905905" d="M0,0,34.723.062l.032,17.693L.032,17.693Z" transform="translate(13.426 53.361) rotate(-4.942)" fill="none" stroke="#263238" stroke-width="1"/>
          <path id="Trazado_905900" data-name="Trazado 905900" d="M52.1,81.058l-.989-11.2a1.841,1.841,0,0,1-2-1.65L21.143,70.578a1.825,1.825,0,0,1-1.685,1.963l.988,11.2a1.841,1.841,0,0,1,2,1.65l27.965-2.367A1.825,1.825,0,0,1,52.1,81.058Z" transform="translate(-4.275 -16.091)" fill="none" stroke="#263238" stroke-miterlimit="10" stroke-width="1"/>
          <path id="Trazado_905901" data-name="Trazado 905901" d="M43.768,77.615a4.748,4.748,0,1,1-5.139-4.232A4.679,4.679,0,0,1,43.768,77.615Z" transform="translate(-7.534 -17.308)" fill="none" stroke="#263238" stroke-miterlimit="10" stroke-width="1"/>
          <path id="Trazado_905902" data-name="Trazado 905902" d="M40.275,80.947l.073.831-.369.031-.073-.824a2.826,2.826,0,0,1-1.824-.509l.178-.431a2.566,2.566,0,0,0,1.606.477l-.168-1.9c-.83-.126-1.68-.3-1.764-1.257-.061-.695.4-1.339,1.518-1.521l-.073-.832.37-.031.073.825a2.96,2.96,0,0,1,1.539.322l-.147.442a2.8,2.8,0,0,0-1.352-.309l.169,1.918c.853.125,1.752.282,1.838,1.252.062.7-.424,1.355-1.593,1.52m-.622-2.834-.16-1.809c-.755.13-1.062.542-1.021,1,.048.55.561.711,1.181.811M41.331,79.5c-.051-.572-.607-.721-1.255-.819l.16,1.809c.807-.127,1.136-.526,1.1-.989" transform="translate(-8.334 -17.688)" fill="#263238"/>
          <path id="Trazado_905903" data-name="Trazado 905903" d="M17.429,17.988a10.349,10.349,0,0,1-14.391-.911,9.843,9.843,0,0,1,.93-14.094A10.348,10.348,0,0,1,18.359,3.9,9.842,9.842,0,0,1,17.429,17.988Z" transform="translate(-0.11 -0.118)" fill="none" stroke="#263238" stroke-miterlimit="10" stroke-width="1"/>
          <path id="Trazado_905904" data-name="Trazado 905904" d="M7.954,15.942,6.578,17.127l-.525-.586,1.364-1.174a5.78,5.78,0,0,1-1.424-3.738l.987-.247a5.246,5.246,0,0,0,1.2,3.326L11.33,12c-.833-1.568-1.6-3.23-.024-4.589,1.149-.989,2.868-1.035,4.62.635L17.3,6.863l.525.586L16.463,8.623a6.056,6.056,0,0,1,1.392,3.017l-.968.314a5.727,5.727,0,0,0-1.177-2.683L12.538,12c.865,1.6,1.734,3.326.13,4.706-1.16,1-2.934,1.007-4.713-.763m4.213-4.662,2.992-2.574C13.969,7.592,12.85,7.6,12.1,8.246c-.91.783-.54,1.856.071,3.034m-.316,4.611c.945-.813.5-1.947-.151-3.17L8.708,15.294c1.252,1.206,2.377,1.255,3.144.6" transform="translate(-1.315 -1.585)" fill="#263238"/>
        </g>
      </g>
      <g id="Grupo_1114000" data-name="Grupo 1114000" transform="translate(245.371 11877.281)">
        <g id="Grupo_1113999" data-name="Grupo 1113999" clip-path="url(#clip-path-4)">
          <g id="Grupo_1113981" data-name="Grupo 1113981">
            <g id="Grupo_1113980" data-name="Grupo 1113980" clip-path="url(#clip-path-4)">
              <g id="Grupo_1113961" data-name="Grupo 1113961" transform="translate(33.013 173.42)" opacity="0.2">
                <g id="Grupo_1113960" data-name="Grupo 1113960">
                  <g id="Grupo_1113959" data-name="Grupo 1113959" clip-path="url(#clip-path-6)">
                    <g id="Grupo_1113958" data-name="Grupo 1113958" opacity="0.7">
                      <g id="Grupo_1113957" data-name="Grupo 1113957">
                        <g id="Grupo_1113956" data-name="Grupo 1113956" clip-path="url(#clip-path-6)">
                          <path id="Trazado_905744" data-name="Trazado 905744" d="M188.465,247.512s-6.589,33.466-47.024,41.01c0,0-10.56,8.422-14.075,13.411s-22.262,13.46-41.3,39.893S38.61,284.309,38.61,284.309l62.741-81.49Z" transform="translate(-38.609 -202.819)"/>
                        </g>
                      </g>
                    </g>
                  </g>
                </g>
              </g>
              <path id="Trazado_905745" data-name="Trazado 905745" d="M250.193,69.827s21.8-10.657,26.6-8.817,9.376,12.865-8.94,23.427-12.865,30.235-12.865,30.235h13.083s7.85,3.2,10.9,7.306,5.233,18.139,6.977,22.9.872,9.512-3.925,11.06c0,0-3.053,13.306-2.18,19.2s.436,9.7-5.233,10.414a9.888,9.888,0,0,1-10.9-10.414l-4.361,15.8,3.053,6.073a39.531,39.531,0,0,1,11.774,7.135c6.106,5.233,12.211,6.662,10.467,12.489s-5.233,12.116-23.549,4.829-33.579-35.913-33.579-35.913l-11-99.818Z" transform="translate(-31.384 -8.813)" fill="#fff"/>
              <g id="Grupo_1113964" data-name="Grupo 1113964" transform="translate(185.129 52.893)" opacity="0.4">
                <g id="Grupo_1113963" data-name="Grupo 1113963">
                  <g id="Grupo_1113962" data-name="Grupo 1113962" clip-path="url(#clip-path-8)">
                    <path id="Trazado_905746" data-name="Trazado 905746" d="M273.143,127.326c-9.887,13.477,1.049,28.991,1.049,28.991s-6.84,3.816-7.034,13.547c-.078,4.042.941,9.7,2.153,14.931a9.812,9.812,0,0,1-5.6-9.506l-4.368,15.8,3.055,6.07a37.255,37.255,0,0,1,8.993,4.943c-2.713,6.226-3.536,13.92-3.3,21.856a58.029,58.029,0,0,1-7-2.339c-18.319-7.29-33.577-35.915-33.577-35.915l-11.005-99.82,33.677-15.9s11.915-5.821,20.069-8.122c-.63,7.633.87,15.522,1.935,19.921a46.209,46.209,0,0,1-4.337,2.814c-18.319,10.555-12.871,30.234-12.871,30.234h13.088s7.462,3.039,10.656,7a21.281,21.281,0,0,0-5.589,5.495" transform="translate(-216.513 -61.86)" fill="#fd9826"/>
                  </g>
                </g>
              </g>
              <path id="Trazado_905747" data-name="Trazado 905747" d="M184.774,214.732s-23.721,46.51-66.477,57.057c0,0-1.632,9.2-8.869,13.151-3.863,2.107-19.454,25.478-33.149,46.805L.5,285.258c4.671-4.616,9.987-9.933,15.428-15.482,15.817-16.128,32.69-34.245,37.859-43.144,4.617-7.951,10.454-21.755,15.545-34.727,6.514-16.586,11.814-31.828,11.814-31.828l25.275-28.1L146.161,87.8l1.718,5.65Z" transform="translate(-0.072 -12.727)" fill="#fff"/>
              <g id="Grupo_1113967" data-name="Grupo 1113967" transform="translate(80.467 75.076)" opacity="0.4">
                <g id="Grupo_1113966" data-name="Grupo 1113966">
                  <g id="Grupo_1113965" data-name="Grupo 1113965" clip-path="url(#clip-path-9)">
                    <path id="Trazado_905748" data-name="Trazado 905748" d="M159.731,87.8l38.613,126.93s-23.722,46.509-66.477,57.057c0,0-1.632,9.2-8.869,13.151-3.466,1.889-16.384,20.915-28.89,40.215,4.632-15.9,18.055-41.256,18.055-41.256-8.612-10.2-6.1-20.946-2.658-17.884,3.334,2.977,12.109,11.659,12.661,12.2-3.808-4.484-4.687-11.5-4.687-11.5s10.672,7.1,11.535-4.305-6.4-39.158-6.4-39.158L103.6,150.207Z" transform="translate(-94.108 -87.803)" fill="#fd9826"/>
                  </g>
                </g>
              </g>
              <path id="Trazado_905749" data-name="Trazado 905749" d="M216.513,85.733l33.679-15.906s21.8-10.657,26.6-8.817,9.376,12.865-8.94,23.427-12.865,30.235-12.865,30.235h13.083s7.85,3.2,10.9,7.306,5.233,18.14,6.977,22.9.872,9.512-3.925,11.06c0,0-3.053,13.306-2.18,19.2s.436,9.7-5.233,10.414a9.888,9.888,0,0,1-10.9-10.414l-4.361,15.8,3.053,6.073a39.531,39.531,0,0,1,11.774,7.135c6.106,5.234,12.211,6.662,10.467,12.489s-5.233,12.116-23.549,4.829-33.579-35.913-33.579-35.913" transform="translate(-31.384 -8.813)" fill="none" stroke="#263238" stroke-linecap="round" stroke-linejoin="round" stroke-width="1"/>
              <path id="Trazado_905750" data-name="Trazado 905750" d="M290.121,165.931c-6.541,1.766-14.173.457-17.008-11.1s2.836-23.9,6.541-25.076" transform="translate(-39.477 -18.808)" fill="none" stroke="#263238" stroke-linecap="round" stroke-linejoin="round" stroke-width="1"/>
              <path id="Trazado_905751" data-name="Trazado 905751" d="M271.712,191.374s-.436-14.884,5.015-18.558" transform="translate(-39.384 -25.05)" fill="none" stroke="#263238" stroke-linecap="round" stroke-linejoin="round" stroke-width="1"/>
              <g id="Grupo_1113970" data-name="Grupo 1113970" transform="translate(15.856 179.178)" opacity="0.4">
                <g id="Grupo_1113969" data-name="Grupo 1113969">
                  <g id="Grupo_1113968" data-name="Grupo 1113968" clip-path="url(#clip-path-10)">
                    <path id="Trazado_905752" data-name="Trazado 905752" d="M75.95,270.636s-15.98-1.99-19.547-9.14c-2.953-5.914-18.941,16.213-37.859,25.928C34.361,271.3,51.234,253.179,56.4,244.28c4.616-7.951,10.454-21.755,15.545-34.727v.015c-.257,10.757-5.993,27.227-4.353,35.8a6.894,6.894,0,0,0-4.92,8.332c1.229,6.8,13.275,16.936,13.275,16.936" transform="translate(-18.543 -209.553)" fill="#fd9826"/>
                  </g>
                </g>
              </g>
              <path id="Trazado_905753" data-name="Trazado 905753" d="M197.619,236.249s-23.718,46.512-66.477,57.06c0,0-1.63,9.2-8.863,13.148-3.861,2.108-19.453,25.475-33.153,46.809" transform="translate(-12.919 -34.245)" fill="none" stroke="#263238" stroke-linecap="round" stroke-linejoin="round" stroke-width="1"/>
              <path id="Trazado_905754" data-name="Trazado 905754" d="M.5,285.261c18.26-18.051,46.336-46.67,53.285-58.631,10.521-18.106,27.363-66.555,27.363-66.555l65.016-72.27" transform="translate(-0.072 -12.727)" fill="none" stroke="#263238" stroke-linecap="round" stroke-linejoin="round" stroke-width="1"/>
              <path id="Trazado_905755" data-name="Trazado 905755" d="M127.453,152.35s9.984,8.946,12.791,17.081" transform="translate(-18.475 -22.083)" fill="none" stroke="#263238" stroke-linecap="round" stroke-linejoin="round" stroke-width="1"/>
              <path id="Trazado_905756" data-name="Trazado 905756" d="M246.128,240.261H138.668a5.752,5.752,0,0,1-5.752-5.753V5.752A5.752,5.752,0,0,1,138.668,0h107.46a5.752,5.752,0,0,1,5.753,5.752V234.508a5.753,5.753,0,0,1-5.753,5.753" transform="translate(-19.266)" fill="#263238"/>
              <path id="Trazado_905757" data-name="Trazado 905757" d="M216.71,7.4l-2.271,4.171a2.843,2.843,0,0,1-2.5,1.484H174.307a2.843,2.843,0,0,1-2.5-1.484L169.539,7.4a2.843,2.843,0,0,0-2.5-1.484H140.77a2.843,2.843,0,0,0-2.843,2.843V233.684a2.843,2.843,0,0,0,2.843,2.843H245.48a2.843,2.843,0,0,0,2.842-2.843V8.757a2.843,2.843,0,0,0-2.842-2.843H219.207a2.843,2.843,0,0,0-2.5,1.484" transform="translate(-19.993 -0.857)" fill="#fd9826"/>
              <path id="Trazado_905758" data-name="Trazado 905758" d="M216.71,7.4l-2.271,4.171a2.843,2.843,0,0,1-2.5,1.484H174.307a2.843,2.843,0,0,1-2.5-1.484L169.539,7.4a2.843,2.843,0,0,0-2.5-1.484H140.77a2.843,2.843,0,0,0-2.843,2.843V233.684a2.843,2.843,0,0,0,2.843,2.843H245.48a2.843,2.843,0,0,0,2.842-2.843V8.757a2.843,2.843,0,0,0-2.842-2.843H219.207A2.843,2.843,0,0,0,216.71,7.4Z" transform="translate(-19.993 -0.857)" fill="none" stroke="#263238" stroke-linecap="round" stroke-linejoin="round" stroke-width="1"/>
              <path id="Trazado_905759" data-name="Trazado 905759" d="M194.219,7.959a1.534,1.534,0,1,1-1.535-1.535A1.535,1.535,0,0,1,194.219,7.959Z" transform="translate(-27.707 -0.931)" fill="none" stroke="#fff" stroke-miterlimit="10" stroke-width="1"/>
              <path id="Trazado_905760" data-name="Trazado 905760" d="M213.492,8.058a.951.951,0,1,1-.951-.951A.951.951,0,0,1,213.492,8.058Z" transform="translate(-30.67 -1.03)" fill="none" stroke="#fff" stroke-miterlimit="10" stroke-width="1"/>
              <path id="Trazado_905761" data-name="Trazado 905761" d="M207.15,7.522h-9.3a.6.6,0,0,0,0,1.192h9.3a.6.6,0,1,0,0-1.192" transform="translate(-28.593 -1.09)" fill="#fff"/>
              <rect id="Rectángulo_406202" data-name="Rectángulo 406202" width="10.025" height="4.262" transform="translate(127.377 10.777)" fill="none" stroke="#263238" stroke-linecap="round" stroke-linejoin="round" stroke-width="1"/>
              <rect id="Rectángulo_406203" data-name="Rectángulo 406203" width="1.556" height="2.827" transform="translate(137.402 11.494)" fill="none" stroke="#263238" stroke-linecap="round" stroke-linejoin="round" stroke-width="1"/>
              <rect id="Rectángulo_406204" data-name="Rectángulo 406204" width="1.779" height="1.545" transform="translate(206.698 13.493)" fill="none" stroke="#263238" stroke-linecap="round" stroke-linejoin="round" stroke-width="1"/>
              <rect id="Rectángulo_406205" data-name="Rectángulo 406205" width="1.779" height="3.1" transform="translate(210.168 11.939)" fill="none" stroke="#263238" stroke-linecap="round" stroke-linejoin="round" stroke-width="1"/>
              <rect id="Rectángulo_406206" data-name="Rectángulo 406206" width="1.779" height="4.654" transform="translate(213.638 10.385)" fill="none" stroke="#263238" stroke-linecap="round" stroke-linejoin="round" stroke-width="1"/>
              <rect id="Rectángulo_406207" data-name="Rectángulo 406207" width="1.779" height="6.208" transform="translate(217.108 8.83)" fill="none" stroke="#263238" stroke-linecap="round" stroke-linejoin="round" stroke-width="1"/>
              <g id="Grupo_1113973" data-name="Grupo 1113973" transform="translate(118.648 54.763)" opacity="0.5">
                <g id="Grupo_1113972" data-name="Grupo 1113972">
                  <g id="Grupo_1113971" data-name="Grupo 1113971" clip-path="url(#clip-path-11)">
                    <rect id="Rectángulo_406208" data-name="Rectángulo 406208" width="108.967" height="103.927" fill="#fff"/>
                  </g>
                </g>
              </g>
              <path id="Trazado_905762" data-name="Trazado 905762" d="M172.864,44.047v1.809c0,2.227-1.074,3.44-3.261,3.44h-1.034v5.229h-2.187V40.606H169.6c2.187,0,3.261,1.213,3.261,3.441m-4.295-1.452v4.712H169.6c.7,0,1.074-.318,1.074-1.312V43.907c0-.994-.378-1.312-1.074-1.312Z" transform="translate(-24.117 -5.886)" fill="#263238"/>
              <path id="Trazado_905763" data-name="Trazado 905763" d="M181.829,54.525h-2.207L179.245,52h-2.684l-.378,2.526h-2.008L176.4,40.606h3.2Zm-4.99-4.415h2.108l-1.035-7.039h-.039Z" transform="translate(-25.247 -5.886)" fill="#263238"/>
              <path id="Trazado_905764" data-name="Trazado 905764" d="M185.1,49.912l-2.764-9.305h2.286l1.65,6.343h.04l1.65-6.343h2.088l-2.764,9.305v4.613H185.1Z" transform="translate(-26.43 -5.886)" fill="#263238"/>
              <path id="Trazado_905765" data-name="Trazado 905765" d="M197,50.489h.039l1.472-9.883h3.042V54.525h-2.068V44.544h-.04l-1.471,9.982H195.9l-1.59-9.842h-.04v9.842h-1.909V40.606h3.043Z" transform="translate(-27.883 -5.886)" fill="#263238"/>
              <path id="Trazado_905766" data-name="Trazado 905766" d="M207.158,46.472h3V48.46h-3v4.077h3.778v1.988h-5.966V40.607h5.966v1.988h-3.778Z" transform="translate(-29.711 -5.886)" fill="#263238"/>
              <path id="Trazado_905767" data-name="Trazado 905767" d="M215.515,44.444h-.039V54.525h-1.969V40.607h2.744l2.208,8.331h.039V40.607h1.95V54.525H218.2Z" transform="translate(-30.948 -5.886)" fill="#263238"/>
              <path id="Trazado_905768" data-name="Trazado 905768" d="M222.718,40.606h6.761V42.6h-2.287v11.93h-2.186V42.6h-2.287Z" transform="translate(-32.283 -5.886)" fill="#263238"/>
              <path id="Trazado_905769" data-name="Trazado 905769" d="M234.629,40.421c2.127,0,3.221,1.272,3.221,3.5v.437h-2.068v-.576c0-.994-.4-1.372-1.094-1.372s-1.093.378-1.093,1.372c0,1.014.437,1.769,1.869,3.022,1.829,1.611,2.405,2.764,2.405,4.355,0,2.227-1.113,3.5-3.26,3.5s-3.261-1.272-3.261-3.5V50.3h2.067V51.3c0,.994.438,1.352,1.133,1.352s1.134-.357,1.134-1.352c0-1.014-.437-1.77-1.869-3.023-1.829-1.61-2.406-2.764-2.406-4.354,0-2.227,1.094-3.5,3.222-3.5" transform="translate(-33.534 -5.859)" fill="#263238"/>
              <rect id="Rectángulo_406210" data-name="Rectángulo 406210" width="91.512" height="13.675" transform="translate(127.376 67.352)" fill="#fff"/>
              <rect id="Rectángulo_406211" data-name="Rectángulo 406211" width="91.512" height="13.675" transform="translate(127.376 67.352)" fill="none" stroke="#263238" stroke-linecap="round" stroke-linejoin="round" stroke-width="1"/>
              <rect id="Rectángulo_406212" data-name="Rectángulo 406212" width="91.512" height="13.675" transform="translate(127.376 93.001)" fill="#fff"/>
              <rect id="Rectángulo_406213" data-name="Rectángulo 406213" width="91.512" height="13.675" transform="translate(127.376 93.001)" fill="none" stroke="#263238" stroke-linecap="round" stroke-linejoin="round" stroke-width="1"/>
              <rect id="Rectángulo_406214" data-name="Rectángulo 406214" width="91.512" height="13.675" transform="translate(127.376 116.317)" fill="#fff"/>
              <rect id="Rectángulo_406215" data-name="Rectángulo 406215" width="91.512" height="13.675" transform="translate(127.376 116.317)" fill="none" stroke="#263238" stroke-linecap="round" stroke-linejoin="round" stroke-width="1"/>
              <rect id="Rectángulo_406216" data-name="Rectángulo 406216" width="43.323" height="16.007" transform="translate(127.376 134.971)" fill="#fff"/>
              <rect id="Rectángulo_406217" data-name="Rectángulo 406217" width="43.323" height="16.007" transform="translate(127.376 134.971)" fill="none" stroke="#263238" stroke-linecap="round" stroke-linejoin="round" stroke-width="1"/>
              <rect id="Rectángulo_406218" data-name="Rectángulo 406218" width="43.323" height="16.007" transform="translate(175.565 134.971)" fill="#fff"/>
              <rect id="Rectángulo_406219" data-name="Rectángulo 406219" width="43.323" height="16.007" transform="translate(175.565 134.971)" fill="none" stroke="#263238" stroke-linecap="round" stroke-linejoin="round" stroke-width="1"/>
              <path id="Trazado_905770" data-name="Trazado 905770" d="M155.156,75.361v.37H152.3V71.685h2.774v.369h-2.346v1.439h2.092v.365h-2.092v1.5Z" transform="translate(-22.075 -10.391)" fill="#263238"/>
              <path id="Trazado_905771" data-name="Trazado 905771" d="M161.731,74.135V75.9h-.41V74.175c0-.641-.323-.97-.872-.97a.977.977,0,0,0-1.017,1.1V75.9h-.41V74.175c0-.641-.324-.97-.879-.97a.98.98,0,0,0-1.018,1.1V75.9h-.41v-3.04h.392v.555a1.229,1.229,0,0,1,1.116-.578,1.092,1.092,0,0,1,1.081.641,1.325,1.325,0,0,1,1.2-.641,1.148,1.148,0,0,1,1.225,1.3" transform="translate(-22.716 -10.557)" fill="#263238"/>
              <path id="Trazado_905772" data-name="Trazado 905772" d="M166.135,74.013V75.9h-.393v-.474a1.143,1.143,0,0,1-1.047.5c-.687,0-1.109-.358-1.109-.885,0-.468.3-.861,1.173-.861h.965V74c0-.521-.3-.8-.861-.8a1.547,1.547,0,0,0-1.012.358l-.186-.306a1.934,1.934,0,0,1,1.237-.41,1.08,1.08,0,0,1,1.231,1.179m-.41.971v-.5h-.954c-.589,0-.78.232-.78.544,0,.352.283.572.769.572a.973.973,0,0,0,.965-.618" transform="translate(-23.712 -10.557)" fill="#263238"/>
              <path id="Trazado_905773" data-name="Trazado 905773" d="M167.761,71.69a.3.3,0,0,1,.3-.289.292.292,0,0,1,.3.283.3.3,0,0,1-.6.006m.092.959h.41V75.69h-.41Z" transform="translate(-24.317 -10.35)" fill="#263238"/>
              <rect id="Rectángulo_406220" data-name="Rectángulo 406220" width="0.41" height="4.289" transform="translate(145.091 61.051)" fill="#263238"/>
              <path id="Trazado_905774" data-name="Trazado 905774" d="M158.464,87.637v.37H155.6V83.962h2.774v.369h-2.346V85.77h2.092v.365h-2.092v1.5Z" transform="translate(-22.555 -12.17)" fill="#263238"/>
              <path id="Trazado_905775" data-name="Trazado 905775" d="M165.039,86.412v1.763h-.41V86.452c0-.641-.323-.97-.873-.97a.977.977,0,0,0-1.017,1.1v1.6h-.41V86.452c0-.641-.324-.97-.879-.97a.98.98,0,0,0-1.018,1.1v1.6h-.41V85.134h.392v.555a1.229,1.229,0,0,1,1.116-.578,1.092,1.092,0,0,1,1.081.641,1.325,1.325,0,0,1,1.2-.641,1.148,1.148,0,0,1,1.225,1.3" transform="translate(-23.195 -12.337)" fill="#263238"/>
              <path id="Trazado_905776" data-name="Trazado 905776" d="M169.442,86.289v1.885h-.392V87.7a1.143,1.143,0,0,1-1.047.5c-.687,0-1.109-.358-1.109-.885,0-.468.3-.861,1.173-.861h.965v-.185c0-.521-.295-.8-.861-.8a1.551,1.551,0,0,0-1.012.358l-.185-.306a1.934,1.934,0,0,1,1.237-.41,1.08,1.08,0,0,1,1.23,1.179m-.41.971v-.5h-.954c-.589,0-.78.232-.78.544,0,.352.283.572.769.572a.973.973,0,0,0,.965-.618" transform="translate(-24.192 -12.337)" fill="#263238"/>
              <path id="Trazado_905777" data-name="Trazado 905777" d="M171.069,83.967a.3.3,0,0,1,.3-.289.291.291,0,0,1,.3.283.3.3,0,0,1-.6.006m.093.959h.41v3.041h-.41Z" transform="translate(-24.797 -12.129)" fill="#263238"/>
              <rect id="Rectángulo_406221" data-name="Rectángulo 406221" width="0.41" height="4.289" transform="translate(147.919 71.549)" fill="#263238"/>
              <path id="Trazado_905778" data-name="Trazado 905778" d="M177.61,86.412v1.763h-.41V86.452a.849.849,0,0,0-.913-.97,1,1,0,0,0-1.064,1.1v1.6h-.41V85.134h.392v.561a1.277,1.277,0,0,1,1.156-.584,1.164,1.164,0,0,1,1.248,1.3" transform="translate(-25.339 -12.337)" fill="#263238"/>
              <path id="Trazado_905779" data-name="Trazado 905779" d="M181.638,86.289v1.885h-.392V87.7a1.143,1.143,0,0,1-1.047.5c-.687,0-1.11-.358-1.11-.885,0-.468.3-.861,1.174-.861h.965v-.185c0-.521-.295-.8-.861-.8a1.551,1.551,0,0,0-1.012.358l-.185-.306a1.934,1.934,0,0,1,1.237-.41,1.08,1.08,0,0,1,1.23,1.179m-.41.971v-.5h-.954c-.589,0-.78.232-.78.544,0,.352.283.572.769.572a.973.973,0,0,0,.965-.618" transform="translate(-25.959 -12.337)" fill="#263238"/>
              <path id="Trazado_905780" data-name="Trazado 905780" d="M188.391,86.412v1.763h-.41V86.452c0-.641-.323-.97-.872-.97a.977.977,0,0,0-1.018,1.1v1.6h-.411V86.452c0-.641-.323-.97-.878-.97a.98.98,0,0,0-1.018,1.1v1.6h-.41V85.134h.392v.555a1.229,1.229,0,0,1,1.116-.578,1.092,1.092,0,0,1,1.081.641,1.325,1.325,0,0,1,1.2-.641,1.147,1.147,0,0,1,1.225,1.3" transform="translate(-26.58 -12.337)" fill="#263238"/>
              <path id="Trazado_905781" data-name="Trazado 905781" d="M193.151,86.781h-2.543a1.125,1.125,0,0,0,1.2,1.058,1.2,1.2,0,0,0,.93-.4l.232.266a1.608,1.608,0,0,1-2.769-1.053,1.464,1.464,0,0,1,1.485-1.543,1.449,1.449,0,0,1,1.474,1.543c0,.035-.006.081-.006.127m-2.543-.306h2.156a1.08,1.08,0,0,0-2.156,0" transform="translate(-27.569 -12.337)" fill="#263238"/>
              <path id="Trazado_905782" data-name="Trazado 905782" d="M199.695,86.47c0,.983-.364,1.56-.96,1.56a.615.615,0,0,1-.652-.629,1.287,1.287,0,0,1-1.156.629,1.492,1.492,0,0,1,0-2.982,1.292,1.292,0,0,1,1.144.606v-.584h.376v2.191c0,.323.162.439.358.439.358,0,.59-.445.59-1.225a2.205,2.205,0,0,0-2.376-2.26A2.324,2.324,0,1,0,197,88.863a2.557,2.557,0,0,0,1.11-.254l.1.283a2.82,2.82,0,0,1-1.208.266,2.62,2.62,0,1,1,.023-5.237,2.5,2.5,0,0,1,2.676,2.549m-1.619.064a1.1,1.1,0,1,0-1.1,1.161,1.076,1.076,0,0,0,1.1-1.161" transform="translate(-28.167 -12.164)" fill="#263238"/>
              <path id="Trazado_905783" data-name="Trazado 905783" d="M204.212,86.781h-2.543a1.125,1.125,0,0,0,1.2,1.058,1.2,1.2,0,0,0,.93-.4l.232.266a1.608,1.608,0,0,1-2.769-1.053,1.464,1.464,0,0,1,1.485-1.543,1.449,1.449,0,0,1,1.474,1.543c0,.035-.006.081-.006.127m-2.543-.306h2.156a1.08,1.08,0,0,0-2.156,0" transform="translate(-29.173 -12.337)" fill="#263238"/>
              <path id="Trazado_905784" data-name="Trazado 905784" d="M210.716,86.412v1.763h-.41V86.452c0-.641-.323-.97-.872-.97a.978.978,0,0,0-1.018,1.1v1.6h-.41V86.452c0-.641-.324-.97-.878-.97a.98.98,0,0,0-1.018,1.1v1.6h-.41V85.134h.392v.555a1.229,1.229,0,0,1,1.115-.578,1.093,1.093,0,0,1,1.082.641,1.325,1.325,0,0,1,1.2-.641,1.148,1.148,0,0,1,1.226,1.3" transform="translate(-29.816 -12.337)" fill="#263238"/>
              <path id="Trazado_905785" data-name="Trazado 905785" d="M215.119,86.289v1.885h-.392V87.7a1.144,1.144,0,0,1-1.047.5c-.687,0-1.11-.358-1.11-.885,0-.468.3-.861,1.174-.861h.965v-.185c0-.521-.3-.8-.862-.8a1.548,1.548,0,0,0-1.012.358l-.185-.306a1.931,1.931,0,0,1,1.236-.41,1.08,1.08,0,0,1,1.231,1.179m-.41.971v-.5h-.954c-.59,0-.781.232-.781.544,0,.352.284.572.77.572a.973.973,0,0,0,.965-.618" transform="translate(-30.812 -12.337)" fill="#263238"/>
              <path id="Trazado_905786" data-name="Trazado 905786" d="M216.745,83.967a.3.3,0,0,1,.3-.289.291.291,0,0,1,.3.283.3.3,0,0,1-.3.3.3.3,0,0,1-.3-.294m.094.959h.41v3.041h-.41Z" transform="translate(-31.418 -12.129)" fill="#263238"/>
              <rect id="Rectángulo_406222" data-name="Rectángulo 406222" width="0.41" height="4.289" transform="translate(186.974 71.549)" fill="#263238"/>
              <path id="Trazado_905787" data-name="Trazado 905787" d="M220.179,88.3a.305.305,0,0,1,.305-.312.311.311,0,0,1,.313.312.316.316,0,0,1-.313.317.31.31,0,0,1-.305-.317" transform="translate(-31.915 -12.754)" fill="#263238"/>
              <path id="Trazado_905788" data-name="Trazado 905788" d="M221.462,86.653a1.5,1.5,0,0,1,1.566-1.543,1.329,1.329,0,0,1,1.191.6l-.307.209a1.032,1.032,0,0,0-.884-.451,1.186,1.186,0,0,0,0,2.37,1.027,1.027,0,0,0,.884-.445l.307.208a1.34,1.34,0,0,1-1.191.6,1.5,1.5,0,0,1-1.566-1.548" transform="translate(-32.101 -12.337)" fill="#263238"/>
              <path id="Trazado_905789" data-name="Trazado 905789" d="M225.205,86.653a1.546,1.546,0,1,1,1.549,1.548,1.5,1.5,0,0,1-1.549-1.548m2.676,0a1.131,1.131,0,1,0-1.127,1.185,1.109,1.109,0,0,0,1.127-1.185" transform="translate(-32.644 -12.337)" fill="#263238"/>
              <path id="Trazado_905790" data-name="Trazado 905790" d="M234.817,86.412v1.763h-.41V86.452c0-.641-.323-.97-.872-.97a.977.977,0,0,0-1.017,1.1v1.6h-.411V86.452c0-.641-.324-.97-.878-.97a.98.98,0,0,0-1.018,1.1v1.6h-.41V85.134h.393v.555a1.229,1.229,0,0,1,1.115-.578,1.092,1.092,0,0,1,1.081.641,1.325,1.325,0,0,1,1.2-.641,1.147,1.147,0,0,1,1.225,1.3" transform="translate(-33.31 -12.337)" fill="#263238"/>
              <path id="Trazado_905791" data-name="Trazado 905791" d="M156.241,116.669l.717.4-.133.243-.723-.422v.82h-.266l.006-.82-.723.422-.139-.243.723-.4-.723-.4.139-.249.723.428-.006-.821h.266v.821l.723-.428.133.249Z" transform="translate(-22.465 -16.76)" fill="#263238"/>
              <path id="Trazado_905792" data-name="Trazado 905792" d="M158.984,116.669l.717.4-.133.243-.723-.422v.82h-.266l.006-.82-.723.422-.139-.243.723-.4-.723-.4.139-.249.723.428-.006-.821h.266v.821l.723-.428.133.249Z" transform="translate(-22.862 -16.76)" fill="#263238"/>
              <path id="Trazado_905793" data-name="Trazado 905793" d="M161.727,116.669l.717.4-.133.243-.723-.422v.82h-.266l.006-.82-.723.422-.139-.243.723-.4-.723-.4.139-.249.723.428-.006-.821h.266v.821l.723-.428.133.249Z" transform="translate(-23.26 -16.76)" fill="#263238"/>
              <path id="Trazado_905794" data-name="Trazado 905794" d="M164.47,116.669l.717.4-.133.243-.723-.422v.82h-.266l.006-.82-.723.422-.139-.243.723-.4-.723-.4.139-.249.723.428-.006-.821h.266v.821l.723-.428.133.249Z" transform="translate(-23.658 -16.76)" fill="#263238"/>
              <path id="Trazado_905795" data-name="Trazado 905795" d="M167.214,116.669l.717.4-.133.243-.723-.422v.82h-.266l.006-.82-.723.422-.139-.243.723-.4-.723-.4.139-.249.723.428-.006-.821h.266v.821l.723-.428.133.249Z" transform="translate(-24.055 -16.76)" fill="#263238"/>
              <path id="Trazado_905796" data-name="Trazado 905796" d="M169.957,116.669l.717.4-.133.243-.723-.422v.82h-.266l.006-.82-.723.422-.139-.243.723-.4-.723-.4.139-.249.723.428-.006-.821h.266v.821l.723-.428.133.249Z" transform="translate(-24.453 -16.76)" fill="#263238"/>
              <path id="Trazado_905797" data-name="Trazado 905797" d="M172.7,116.669l.717.4-.133.243-.723-.422v.82H172.3l.006-.82-.723.422-.139-.243.723-.4-.723-.4.139-.249.723.428-.006-.821h.266v.821l.723-.428.133.249Z" transform="translate(-24.851 -16.76)" fill="#263238"/>
              <path id="Trazado_905798" data-name="Trazado 905798" d="M175.443,116.669l.717.4-.133.243-.723-.422v.82h-.266l.006-.82-.723.422-.139-.243.723-.4-.723-.4.139-.249.723.428-.006-.821h.266v.821l.723-.428.133.249Z" transform="translate(-25.248 -16.76)" fill="#263238"/>
              <path id="Trazado_905799" data-name="Trazado 905799" d="M178.186,116.669l.717.4-.133.243-.723-.422v.82h-.266l.006-.82-.723.422-.139-.243.723-.4-.723-.4.139-.249.723.428-.006-.821h.266v.821l.723-.428.133.249Z" transform="translate(-25.646 -16.76)" fill="#263238"/>
              <path id="Trazado_905800" data-name="Trazado 905800" d="M180.929,116.669l.717.4-.133.243-.723-.422v.82h-.266l.006-.82-.723.422-.139-.243.723-.4-.723-.4.139-.249.723.428-.006-.821h.266v.821l.723-.428.133.249Z" transform="translate(-26.043 -16.76)" fill="#263238"/>
              <path id="Trazado_905801" data-name="Trazado 905801" d="M183.673,116.669l.717.4-.133.243-.723-.422v.82h-.266l.006-.82-.723.422-.139-.243.723-.4-.723-.4.139-.249.723.428-.006-.821h.266v.821l.723-.428.133.249Z" transform="translate(-26.441 -16.76)" fill="#263238"/>
              <path id="Trazado_905802" data-name="Trazado 905802" d="M155.462,103.07c0,.861-.624,1.382-1.653,1.382h-1.087v1.277H152.3v-4.046h1.514c1.029,0,1.653.521,1.653,1.388m-.428,0c0-.647-.428-1.018-1.236-1.018h-1.076v2.023H153.8c.809,0,1.236-.369,1.236-1.006" transform="translate(-22.075 -14.739)" fill="#263238"/>
              <path id="Trazado_905803" data-name="Trazado 905803" d="M159.195,104.01v1.885H158.8v-.474a1.143,1.143,0,0,1-1.047.5c-.687,0-1.109-.358-1.109-.885,0-.468.3-.861,1.173-.861h.965v-.185c0-.521-.295-.8-.861-.8a1.546,1.546,0,0,0-1.012.358l-.186-.306a1.934,1.934,0,0,1,1.237-.41,1.08,1.08,0,0,1,1.231,1.179m-.41.971v-.5h-.954c-.589,0-.78.232-.78.544,0,.352.283.572.769.572a.973.973,0,0,0,.965-.618" transform="translate(-22.706 -14.906)" fill="#263238"/>
              <path id="Trazado_905804" data-name="Trazado 905804" d="M160.437,105.548l.185-.323a1.837,1.837,0,0,0,1.081.34c.578,0,.815-.2.815-.5,0-.792-1.971-.168-1.971-1.37,0-.5.428-.867,1.2-.867a2.064,2.064,0,0,1,1.075.283l-.179.329a1.561,1.561,0,0,0-.9-.26c-.549,0-.792.215-.792.5,0,.821,1.971.2,1.971,1.37,0,.525-.463.866-1.254.866a2.029,2.029,0,0,1-1.236-.375" transform="translate(-23.256 -14.906)" fill="#263238"/>
              <path id="Trazado_905805" data-name="Trazado 905805" d="M163.741,105.548l.185-.323a1.837,1.837,0,0,0,1.081.34c.578,0,.816-.2.816-.5,0-.792-1.972-.168-1.972-1.37,0-.5.428-.867,1.2-.867a2.069,2.069,0,0,1,1.076.283l-.18.329a1.561,1.561,0,0,0-.9-.26c-.549,0-.792.215-.792.5,0,.821,1.972.2,1.972,1.37,0,.525-.463.866-1.254.866a2.032,2.032,0,0,1-1.237-.375" transform="translate(-23.734 -14.906)" fill="#263238"/>
              <path id="Trazado_905806" data-name="Trazado 905806" d="M171.844,102.858l-1.15,3.041h-.387l-.959-2.492-.959,2.492H168l-1.144-3.041h.392l.953,2.583.977-2.583h.352l.971,2.583.965-2.583Z" transform="translate(-24.186 -14.909)" fill="#263238"/>
              <path id="Trazado_905807" data-name="Trazado 905807" d="M172.952,104.374a1.546,1.546,0,1,1,1.548,1.549,1.495,1.495,0,0,1-1.548-1.549m2.675,0a1.131,1.131,0,1,0-1.127,1.185,1.109,1.109,0,0,0,1.127-1.185" transform="translate(-25.07 -14.906)" fill="#263238"/>
              <path id="Trazado_905808" data-name="Trazado 905808" d="M179.078,102.831v.4c-.034,0-.069-.005-.1-.005a.983.983,0,0,0-1.023,1.121v1.549h-.41v-3.041h.393v.6a1.145,1.145,0,0,1,1.138-.618" transform="translate(-25.736 -14.906)" fill="#263238"/>
              <path id="Trazado_905809" data-name="Trazado 905809" d="M182.891,101.4v4.289H182.5v-.6a1.318,1.318,0,0,1-1.173.63,1.547,1.547,0,0,1,0-3.093,1.329,1.329,0,0,1,1.156.6V101.4Zm-.405,2.769a1.131,1.131,0,1,0-1.127,1.185,1.111,1.111,0,0,0,1.127-1.185" transform="translate(-26.064 -14.698)" fill="#263238"/>
              <path id="Trazado_905810" data-name="Trazado 905810" d="M190.291,142.267v4.046h-.416v-3.676h-.953v-.37Z" transform="translate(-27.384 -20.622)" fill="#263238"/>
              <path id="Trazado_905811" data-name="Trazado 905811" d="M194.38,145.937v.37h-2.838v-.295l1.682-1.648c.457-.451.544-.723.544-1,0-.469-.33-.758-.948-.758a1.372,1.372,0,0,0-1.1.451l-.295-.255a1.819,1.819,0,0,1,1.433-.578c.821,0,1.342.416,1.342,1.093a1.663,1.663,0,0,1-.665,1.265l-1.376,1.353Z" transform="translate(-27.747 -20.616)" fill="#263238"/>
              <path id="Trazado_905812" data-name="Trazado 905812" d="M198.122,145.151c0,.676-.492,1.2-1.468,1.2a2.1,2.1,0,0,1-1.456-.52l.2-.329a1.77,1.77,0,0,0,1.254.468c.67,0,1.04-.312,1.04-.815,0-.485-.34-.8-1.092-.8h-.289v-.307l1.121-1.4h-2.069v-.37h2.6v.295L196.822,144c.867.046,1.3.5,1.3,1.15" transform="translate(-28.294 -20.622)" fill="#263238"/>
              <path id="Trazado_905813" data-name="Trazado 905813" d="M202.726,145.25h-.809v1.064H201.5V145.25h-2.283v-.3l2.144-2.681h.462l-2.069,2.612h1.758v-.936h.4v.936h.809Z" transform="translate(-28.877 -20.622)" fill="#263238"/>
              <path id="Trazado_905814" data-name="Trazado 905814" d="M208.252,145.122c0,.688-.48,1.225-1.469,1.225a2.087,2.087,0,0,1-1.45-.52l.2-.33a1.755,1.755,0,0,0,1.242.469c.688,0,1.053-.335,1.053-.826,0-.521-.324-.844-1.353-.844h-.861l.208-2.029h2.214v.369h-1.849l-.139,1.289h.52c1.22,0,1.683.48,1.683,1.2" transform="translate(-29.763 -20.622)" fill="#263238"/>
              <path id="Trazado_905815" data-name="Trazado 905815" d="M212.4,145.1a1.26,1.26,0,0,1-1.381,1.242c-1.076,0-1.658-.746-1.658-2.023,0-1.376.752-2.091,1.849-2.091a1.864,1.864,0,0,1,.96.219l-.168.335a1.424,1.424,0,0,0-.785-.191c-.874,0-1.435.562-1.435,1.659,0,.093.007.208.018.329a1.294,1.294,0,0,1,1.237-.693A1.225,1.225,0,0,1,212.4,145.1m-.41.01c0-.532-.393-.872-1.018-.872a.936.936,0,0,0-1.04.884c0,.445.37.868,1.07.868a.886.886,0,0,0,.988-.88" transform="translate(-30.347 -20.616)" fill="#263238"/>
              <path id="Trazado_905816" data-name="Trazado 905816" d="M216.257,142.267v.295l-1.695,3.751h-.45l1.664-3.676H213.7v.757h-.41v-1.127Z" transform="translate(-30.916 -20.622)" fill="#263238"/>
              <path id="Trazado_905817" data-name="Trazado 905817" d="M220.379,145.179c0,.717-.607,1.162-1.572,1.162s-1.56-.445-1.56-1.162a1.009,1.009,0,0,1,.78-.994.913.913,0,0,1-.634-.89c0-.659.559-1.07,1.415-1.07s1.428.41,1.428,1.07a.916.916,0,0,1-.647.89,1.019,1.019,0,0,1,.792.994m-.428-.005c0-.5-.428-.81-1.145-.81s-1.138.313-1.138.81.422.815,1.138.815,1.145-.312,1.145-.815m-1.145-1.139c.63,0,1.006-.283,1.006-.723,0-.457-.4-.734-1.006-.734s-1,.277-1,.728.369.729,1,.729" transform="translate(-31.49 -20.616)" fill="#263238"/>
              <path id="Trazado_905818" data-name="Trazado 905818" d="M226.252,144.25c0,1.375-.751,2.092-1.849,2.092a1.853,1.853,0,0,1-.959-.22l.168-.335a1.42,1.42,0,0,0,.787.191c.873,0,1.433-.561,1.433-1.659,0-.092-.006-.209-.018-.329a1.292,1.292,0,0,1-1.236.693,1.225,1.225,0,0,1-1.364-1.214,1.261,1.261,0,0,1,1.382-1.242c1.074,0,1.658.746,1.658,2.023m-.572-.8c0-.445-.37-.867-1.069-.867a.885.885,0,0,0-.988.879c0,.532.393.872,1.017.872a.936.936,0,0,0,1.041-.884" transform="translate(-32.355 -20.616)" fill="#263238"/>
              <path id="Trazado_905819" data-name="Trazado 905819" d="M228.535,142.267v4.046h-.416v-3.676h-.954v-.37Z" transform="translate(-32.928 -20.622)" fill="#263238"/>
              <path id="Trazado_905820" data-name="Trazado 905820" d="M229.9,144.284c0-1.289.676-2.058,1.612-2.058s1.619.77,1.619,2.058-.682,2.057-1.619,2.057-1.612-.769-1.612-2.057m2.8,0c0-1.081-.485-1.676-1.191-1.676s-1.19.6-1.19,1.676.486,1.676,1.19,1.676,1.191-.6,1.191-1.676" transform="translate(-33.324 -20.616)" fill="#263238"/>
              <path id="Trazado_905821" data-name="Trazado 905821" d="M235.433,142.267v4.046h-.416v-3.676h-.954v-.37Z" transform="translate(-33.928 -20.622)" fill="#263238"/>
              <path id="Trazado_905822" data-name="Trazado 905822" d="M239.643,142.267v4.046h-.416v-3.676h-.953v-.37Z" transform="translate(-34.538 -20.622)" fill="#263238"/>
              <path id="Trazado_905823" data-name="Trazado 905823" d="M242.081,142.267v4.046h-.416v-3.676h-.954v-.37Z" transform="translate(-34.891 -20.622)" fill="#263238"/>
              <path id="Trazado_905824" data-name="Trazado 905824" d="M246.171,145.937v.37h-2.838v-.295l1.681-1.648c.457-.451.544-.723.544-1,0-.469-.33-.758-.947-.758a1.37,1.37,0,0,0-1.1.451l-.295-.255a1.818,1.818,0,0,1,1.433-.578c.821,0,1.341.416,1.341,1.093a1.662,1.662,0,0,1-.664,1.265l-1.376,1.353Z" transform="translate(-35.254 -20.616)" fill="#263238"/>
              <path id="Trazado_905825" data-name="Trazado 905825" d="M248.359,142.267v4.046h-.416v-3.676h-.954v-.37Z" transform="translate(-35.801 -20.622)" fill="#263238"/>
              <path id="Trazado_905826" data-name="Trazado 905826" d="M166.63,140.894v-.615a1.077,1.077,0,0,0-1.077-1.077H154.639a1.076,1.076,0,0,0-1.077,1.077v.615Z" transform="translate(-22.259 -20.178)" fill="#263238"/>
              <path id="Trazado_905827" data-name="Trazado 905827" d="M153.562,142.17v4.535a1.076,1.076,0,0,0,1.077,1.077h10.915a1.077,1.077,0,0,0,1.077-1.077V142.17Z" transform="translate(-22.259 -20.608)" fill="#263238"/>
              <path id="Trazado_905828" data-name="Trazado 905828" d="M153.752,169.736c0-1.289.676-2.058,1.612-2.058s1.619.77,1.619,2.058-.682,2.057-1.619,2.057-1.612-.769-1.612-2.057m2.8,0c0-1.081-.486-1.677-1.191-1.677s-1.19.6-1.19,1.677.486,1.676,1.19,1.676,1.191-.6,1.191-1.676" transform="translate(-22.287 -24.305)" fill="#263238"/>
              <path id="Trazado_905829" data-name="Trazado 905829" d="M161.331,170.631c0,.717-.607,1.162-1.572,1.162s-1.56-.445-1.56-1.162a1.009,1.009,0,0,1,.78-.994.913.913,0,0,1-.635-.89c0-.659.56-1.07,1.416-1.07s1.428.41,1.428,1.07a.917.917,0,0,1-.647.89,1.019,1.019,0,0,1,.792.994m-.428-.005c0-.5-.428-.809-1.144-.809s-1.139.312-1.139.809.422.815,1.139.815,1.144-.312,1.144-.815m-1.144-1.139c.63,0,1.006-.283,1.006-.723,0-.457-.4-.734-1.006-.734s-1,.277-1,.728.369.729,1,.729" transform="translate(-22.931 -24.305)" fill="#263238"/>
              <path id="Trazado_905830" data-name="Trazado 905830" d="M163.922,166.759h.376l-1.908,5.444h-.375Z" transform="translate(-23.484 -24.172)" fill="#263238"/>
              <path id="Trazado_905831" data-name="Trazado 905831" d="M167.528,171.389v.37H164.69v-.295l1.682-1.647c.457-.451.544-.723.544-1,0-.469-.33-.758-.948-.758a1.372,1.372,0,0,0-1.1.451l-.295-.255a1.819,1.819,0,0,1,1.433-.578c.821,0,1.342.416,1.342,1.093a1.663,1.663,0,0,1-.665,1.265l-1.375,1.353Z" transform="translate(-23.855 -24.305)" fill="#263238"/>
              <path id="Trazado_905832" data-name="Trazado 905832" d="M171.353,170.574c0,.688-.48,1.225-1.468,1.225a2.088,2.088,0,0,1-1.451-.52l.2-.33a1.752,1.752,0,0,0,1.242.469c.688,0,1.052-.335,1.052-.827,0-.52-.323-.843-1.352-.843h-.862l.209-2.029h2.213v.369h-1.849l-.139,1.289h.521c1.219,0,1.682.48,1.682,1.2" transform="translate(-24.415 -24.311)" fill="#263238"/>
              <path id="Trazado_905833" data-name="Trazado 905833" d="M155.654,164.284v.229h-1.776V162H155.6v.23h-1.457v.894h1.3v.226h-1.3v.933Z" transform="translate(-22.305 -23.482)" fill="#263238"/>
              <path id="Trazado_905834" data-name="Trazado 905834" d="M158.167,164.514l-.811-1.1-.807,1.1h-.305l.954-1.292-.894-1.22h.305l.757,1.027.754-1.027h.286l-.889,1.213.958,1.3Z" transform="translate(-22.648 -23.482)" fill="#263238"/>
              <path id="Trazado_905835" data-name="Trazado 905835" d="M161.274,162.864c0,.534-.387.858-1.027.858h-.674v.793h-.266V162h.94c.64,0,1.027.323,1.027.861m-.266,0c0-.4-.266-.632-.768-.632h-.667v1.256h.667c.5,0,.768-.23.768-.624" transform="translate(-23.092 -23.483)" fill="#263238"/>
              <path id="Trazado_905836" data-name="Trazado 905836" d="M163.425,162h1.023a1.259,1.259,0,1,1,0,2.511h-1.023Zm1.008,2.282a1.028,1.028,0,1,0,0-2.052h-.743v2.052Z" transform="translate(-23.689 -23.482)" fill="#263238"/>
              <path id="Trazado_905837" data-name="Trazado 905837" d="M168.231,163.448v1.17h-.244v-.294a.711.711,0,0,1-.65.312c-.427,0-.688-.222-.688-.549,0-.291.186-.534.728-.534h.6v-.115c0-.323-.183-.5-.534-.5a.961.961,0,0,0-.628.222l-.115-.19a1.2,1.2,0,0,1,.768-.255.671.671,0,0,1,.764.732m-.255.6v-.309h-.592c-.366,0-.485.144-.485.338,0,.219.176.355.477.355a.6.6,0,0,0,.6-.384" transform="translate(-24.156 -23.586)" fill="#263238"/>
              <path id="Trazado_905838" data-name="Trazado 905838" d="M170.257,164.436a.608.608,0,0,1-.4.133.5.5,0,0,1-.552-.549v-1.141h-.337v-.215h.337v-.413h.255v.413h.574v.215h-.574v1.127a.3.3,0,0,0,.327.344.423.423,0,0,0,.28-.1Z" transform="translate(-24.492 -23.518)" fill="#263238"/>
              <path id="Trazado_905839" data-name="Trazado 905839" d="M172.55,163.753h-1.579a.7.7,0,0,0,.743.657.744.744,0,0,0,.577-.248l.144.165a1,1,0,0,1-1.719-.653.909.909,0,0,1,.923-.958.9.9,0,0,1,.915.958c0,.021,0,.05,0,.08m-1.579-.191h1.338a.67.67,0,0,0-1.338,0" transform="translate(-24.746 -23.586)" fill="#263238"/>
              <path id="Trazado_905840" data-name="Trazado 905840" d="M209.371,167.719v4.046h-.416v-3.676H208v-.37Z" transform="translate(-30.15 -24.311)" fill="#263238"/>
              <path id="Trazado_905841" data-name="Trazado 905841" d="M213.46,171.389v.37h-2.838v-.295l1.682-1.647c.457-.451.543-.723.543-1,0-.469-.329-.758-.948-.758a1.372,1.372,0,0,0-1.1.451l-.294-.255a1.819,1.819,0,0,1,1.433-.578c.821,0,1.341.416,1.341,1.093a1.665,1.665,0,0,1-.664,1.265l-1.377,1.353Z" transform="translate(-30.512 -24.305)" fill="#263238"/>
              <path id="Trazado_905842" data-name="Trazado 905842" d="M217.2,170.6c0,.676-.491,1.2-1.468,1.2a2.1,2.1,0,0,1-1.456-.52l.2-.329a1.771,1.771,0,0,0,1.254.468c.669,0,1.041-.312,1.041-.815,0-.485-.341-.8-1.092-.8h-.29v-.307l1.121-1.4h-2.069v-.37h2.6v.295l-1.144,1.439c.866.046,1.3.5,1.3,1.15" transform="translate(-31.06 -24.311)" fill="#263238"/>
              <path id="Trazado_905843" data-name="Trazado 905843" d="M208.158,163.254a1.262,1.262,0,0,1,1.318-1.277,1.218,1.218,0,0,1,.918.366l-.168.168a1,1,0,0,0-.743-.3,1.041,1.041,0,1,0,0,2.081.988.988,0,0,0,.743-.3l.168.168a1.221,1.221,0,0,1-.923.37,1.26,1.26,0,0,1-1.313-1.277" transform="translate(-30.173 -23.479)" fill="#263238"/>
              <path id="Trazado_905844" data-name="Trazado 905844" d="M214.808,162l-.847,2.512h-.28l-.735-2.142-.74,2.142h-.275L211.084,162h.272l.725,2.16.749-2.16h.248l.74,2.171.734-2.171Z" transform="translate(-30.597 -23.482)" fill="#263238"/>
              <path id="Trazado_905845" data-name="Trazado 905845" d="M182.826,197.364h-2.255l-.485,1.081h-.445l1.849-4.046h.422l1.849,4.046h-.451Zm-.156-.347-.971-2.173-.97,2.173Z" transform="translate(-26.039 -28.178)" fill="#263238"/>
              <path id="Trazado_905846" data-name="Trazado 905846" d="M184.749,197.091a1.5,1.5,0,0,1,1.566-1.544,1.328,1.328,0,0,1,1.19.6l-.306.208a1.033,1.033,0,0,0-.884-.451,1.186,1.186,0,0,0,0,2.37,1.029,1.029,0,0,0,.884-.445l.306.208a1.341,1.341,0,0,1-1.19.6,1.5,1.5,0,0,1-1.566-1.549" transform="translate(-26.78 -28.345)" fill="#263238"/>
              <path id="Trazado_905847" data-name="Trazado 905847" d="M190.472,198.317a.972.972,0,0,1-.641.215.805.805,0,0,1-.89-.884v-1.839H188.4v-.346h.544V194.8h.41v.664h.925v.346h-.925v1.815a.487.487,0,0,0,.526.555.677.677,0,0,0,.451-.156Z" transform="translate(-27.308 -28.236)" fill="#263238"/>
              <path id="Trazado_905848" data-name="Trazado 905848" d="M191.587,194.4a.3.3,0,0,1,.3-.289.291.291,0,0,1,.3.283.3.3,0,0,1-.6.006m.093.959h.41V198.4h-.41Z" transform="translate(-27.771 -28.137)" fill="#263238"/>
              <path id="Trazado_905849" data-name="Trazado 905849" d="M193.155,197.091a1.546,1.546,0,1,1,1.548,1.549,1.5,1.5,0,0,1-1.548-1.549m2.675,0a1.131,1.131,0,1,0-1.127,1.185,1.109,1.109,0,0,0,1.127-1.185" transform="translate(-27.998 -28.345)" fill="#263238"/>
              <path id="Trazado_905850" data-name="Trazado 905850" d="M200.547,196.849v1.763h-.41v-1.723a.849.849,0,0,0-.913-.971,1,1,0,0,0-1.064,1.1v1.6h-.41v-3.041h.393v.561a1.278,1.278,0,0,1,1.156-.584,1.164,1.164,0,0,1,1.248,1.3" transform="translate(-28.664 -28.345)" fill="#263238"/>
              <path id="Trazado_905851" data-name="Trazado 905851" d="M204.624,194.769v1.589h2.091v.37h-2.091v1.717H204.2V194.4h2.775v.37Z" transform="translate(-29.598 -28.178)" fill="#263238"/>
              <path id="Trazado_905852" data-name="Trazado 905852" d="M208.2,194.4a.3.3,0,0,1,.3-.289.292.292,0,0,1,.3.283.3.3,0,0,1-.6.006m.092.959h.41V198.4h-.41Z" transform="translate(-30.178 -28.137)" fill="#263238"/>
              <path id="Trazado_905853" data-name="Trazado 905853" d="M212.885,195.572v2.67a1.333,1.333,0,0,1-1.52,1.519,2.112,2.112,0,0,1-1.416-.468l.207-.312a1.813,1.813,0,0,0,1.2.416c.768,0,1.12-.352,1.12-1.1v-.386a1.368,1.368,0,0,1-1.183.589,1.475,1.475,0,1,1,0-2.947,1.373,1.373,0,0,1,1.2.606v-.582Zm-.4,1.444a1.154,1.154,0,1,0-1.156,1.115,1.087,1.087,0,0,0,1.156-1.115" transform="translate(-30.405 -28.345)" fill="#263238"/>
              <path id="Trazado_905854" data-name="Trazado 905854" d="M217.491,195.575v3.041H217.1v-.555a1.21,1.21,0,0,1-1.092.584,1.178,1.178,0,0,1-1.284-1.307v-1.763h.41V197.3a.852.852,0,0,0,.914.976.988.988,0,0,0,1.034-1.1v-1.6Z" transform="translate(-31.124 -28.349)" fill="#263238"/>
              <path id="Trazado_905855" data-name="Trazado 905855" d="M220.835,195.548v.4c-.035,0-.069-.006-.1-.006a.984.984,0,0,0-1.023,1.121v1.549h-.41v-3.041h.392v.6a1.148,1.148,0,0,1,1.139-.619" transform="translate(-31.788 -28.345)" fill="#263238"/>
              <path id="Trazado_905856" data-name="Trazado 905856" d="M224.521,197.218h-2.543a1.125,1.125,0,0,0,1.2,1.059,1.2,1.2,0,0,0,.931-.4l.231.265a1.606,1.606,0,0,1-2.768-1.051,1.464,1.464,0,0,1,1.485-1.544,1.449,1.449,0,0,1,1.473,1.544c0,.033-.005.08-.005.126m-2.543-.306h2.156a1.08,1.08,0,0,0-2.156,0" transform="translate(-32.117 -28.345)" fill="#263238"/>
              <path id="Trazado_905857" data-name="Trazado 905857" d="M184.553,215.878v1.779h-1.588v-1.731a7.522,7.522,0,0,1-3.954-1.27l.874-1.938a6.4,6.4,0,0,0,3.08,1.127V211.2c-1.762-.429-3.731-1.017-3.731-3.288,0-1.683,1.223-3.128,3.731-3.413v-1.763h1.588v1.731a7.169,7.169,0,0,1,3.224.969l-.794,1.953a6.484,6.484,0,0,0-2.429-.826v2.7c1.762.413,3.7,1,3.7,3.239,0,1.651-1.206,3.081-3.7,3.382m-1.588-7.018v-2.254c-.841.19-1.175.651-1.175,1.175,0,.556.476.858,1.175,1.079m2.731,3.827c0-.556-.461-.858-1.143-1.1v2.191c.793-.174,1.143-.587,1.143-1.1" transform="translate(-25.948 -29.386)" fill="#263238"/>
              <path id="Trazado_905858" data-name="Trazado 905858" d="M199.264,213.947v2.1h-8.4v-1.667l4.287-4.049c.984-.937,1.159-1.508,1.159-2.049,0-.872-.6-1.381-1.779-1.381a2.719,2.719,0,0,0-2.3,1.112l-1.873-1.206a5.163,5.163,0,0,1,4.415-2.064c2.477,0,4.128,1.27,4.128,3.286,0,1.08-.3,2.064-1.858,3.51l-2.557,2.413Z" transform="translate(-27.592 -29.677)" fill="#263238"/>
              <path id="Trazado_905859" data-name="Trazado 905859" d="M201.98,210.486c0-3.668,2.032-5.749,4.764-5.749s4.763,2.08,4.763,5.749-2.016,5.748-4.763,5.748-4.764-2.08-4.764-5.748m6.939,0c0-2.525-.888-3.573-2.174-3.573-1.271,0-2.16,1.048-2.16,3.573s.889,3.572,2.16,3.572c1.286,0,2.174-1.048,2.174-3.572" transform="translate(-29.277 -29.677)" fill="#263238"/>
              <path id="Trazado_905860" data-name="Trazado 905860" d="M214.589,210.486c0-3.668,2.032-5.749,4.763-5.749,2.747,0,4.763,2.08,4.763,5.749s-2.016,5.748-4.763,5.748c-2.73,0-4.763-2.08-4.763-5.748m6.939,0c0-2.525-.89-3.573-2.176-3.573-1.27,0-2.159,1.048-2.159,3.573s.889,3.572,2.159,3.572c1.286,0,2.176-1.048,2.176-3.572" transform="translate(-31.105 -29.677)" fill="#263238"/>
              <path id="Trazado_905861" data-name="Trazado 905861" d="M215.795,248.249H180.348a8.3,8.3,0,1,1,0-16.59h35.447a8.3,8.3,0,1,1,0,16.59" transform="translate(-24.939 -33.579)" fill="#263238"/>
              <path id="Trazado_905862" data-name="Trazado 905862" d="M188.529,240.042c0,1.038-.752,1.665-1.992,1.665h-1.31v1.54h-.516V238.37h1.826c1.24,0,1.992.627,1.992,1.672m-.516,0c0-.781-.516-1.227-1.491-1.227h-1.3v2.439h1.3c.976,0,1.491-.446,1.491-1.212" transform="translate(-26.774 -34.552)" fill="#fff"/>
              <path id="Trazado_905863" data-name="Trazado 905863" d="M193.031,241.177v2.271h-.475v-.571a1.374,1.374,0,0,1-1.26.606c-.829,0-1.338-.433-1.338-1.066,0-.564.363-1.038,1.414-1.038h1.164v-.222c0-.628-.355-.969-1.038-.969a1.865,1.865,0,0,0-1.219.432l-.223-.369a2.331,2.331,0,0,1,1.491-.494,1.3,1.3,0,0,1,1.484,1.421m-.5,1.171v-.6h-1.149c-.711,0-.941.279-.941.655,0,.425.341.689.926.689a1.172,1.172,0,0,0,1.164-.745" transform="translate(-27.535 -34.753)" fill="#fff"/>
              <path id="Trazado_905864" data-name="Trazado 905864" d="M197.975,239.788l-1.832,4.1c-.306.717-.7.947-1.219.947a1.257,1.257,0,0,1-.892-.333l.23-.369a.913.913,0,0,0,.669.278c.327,0,.551-.153.759-.613l.161-.355-1.637-3.658h.516l1.379,3.115,1.38-3.115Z" transform="translate(-28.125 -34.758)" fill="#fff"/>
              <path id="Trazado_905865" data-name="Trazado 905865" d="M203.185,243.141v.8h-.349v-.794a2.615,2.615,0,0,1-1.665-.633l.2-.4a2.366,2.366,0,0,0,1.463.587v-1.833c-.766-.188-1.547-.424-1.547-1.345,0-.668.481-1.247,1.547-1.33v-.8h.349v.793a2.721,2.721,0,0,1,1.413.433l-.174.41a2.6,2.6,0,0,0-1.24-.4v1.847c.788.188,1.616.41,1.616,1.344,0,.676-.509,1.261-1.616,1.324m-.349-2.759v-1.741c-.717.062-1.038.431-1.038.87,0,.53.467.723,1.038.87m1.456,1.463c0-.55-.509-.739-1.107-.885V242.7c.766-.056,1.107-.412,1.107-.858" transform="translate(-29.16 -34.41)" fill="#fff"/>
              <path id="Trazado_905866" data-name="Trazado 905866" d="M209.512,242.795v.445h-3.42v-.356l2.026-1.985c.552-.543.655-.87.655-1.2,0-.564-.4-.912-1.142-.912a1.659,1.659,0,0,0-1.331.543l-.356-.306a2.2,2.2,0,0,1,1.729-.7c.989,0,1.616.5,1.616,1.317a2.011,2.011,0,0,1-.8,1.526l-1.659,1.63Z" transform="translate(-29.852 -34.545)" fill="#fff"/>
              <path id="Trazado_905867" data-name="Trazado 905867" d="M210.818,240.8c0-1.554.815-2.48,1.944-2.48s1.95.927,1.95,2.48-.821,2.48-1.95,2.48-1.944-.927-1.944-2.48m3.378,0c0-1.3-.585-2.02-1.435-2.02s-1.436.717-1.436,2.02.586,2.02,1.436,2.02,1.435-.717,1.435-2.02" transform="translate(-30.558 -34.545)" fill="#fff"/>
              <path id="Trazado_905868" data-name="Trazado 905868" d="M216.212,240.8c0-1.554.815-2.48,1.944-2.48s1.951.927,1.951,2.48-.823,2.48-1.951,2.48-1.944-.927-1.944-2.48m3.378,0c0-1.3-.586-2.02-1.435-2.02s-1.436.717-1.436,2.02.586,2.02,1.436,2.02,1.435-.717,1.435-2.02" transform="translate(-31.34 -34.545)" fill="#fff"/>
              <path id="Trazado_905869" data-name="Trazado 905869" d="M128.6,195.856c1.283,19.711-7.85,41.66-7.85,41.66L71.425,223.626l-8.6-2.425c8.534-11.883,12.622-35.271,10.391-54.2-.171-1.43-.28-2.775-.35-4.05-.816-15.615,5.627-20.184,11.115-27.086,5.946-7.47,19.306-35.691,19.306-42.367s16.71-23.022,13-41.583c0,0,5.052-3.132,10.135-.559,2.3,1.165,4.609,3.5,6.459,7.819,4.352,10.174-1.757,38.909-6.957,45.958l-10.011,41.45a88.761,88.761,0,0,1,6.692,16.391,140.988,140.988,0,0,1,6,32.885" transform="translate(-9.106 -7.297)" fill="#fff"/>
              <g id="Grupo_1113976" data-name="Grupo 1113976" transform="translate(53.715 155.651)" opacity="0.4">
                <g id="Grupo_1113975" data-name="Grupo 1113975">
                  <g id="Grupo_1113974" data-name="Grupo 1113974" clip-path="url(#clip-path-12)">
                    <path id="Trazado_905870" data-name="Trazado 905870" d="M72.863,182.038c2.79,7.648,5.76,12.786,5.5,23.542s-5.993,27.227-4.353,35.8a7.562,7.562,0,0,0-2.588,1.336l-8.6-2.425c8.534-11.883,12.622-35.271,10.391-54.2-.171-1.43-.28-2.775-.35-4.05" transform="translate(-62.821 -182.038)" fill="#fd9826"/>
                  </g>
                </g>
              </g>
              <g id="Grupo_1113979" data-name="Grupo 1113979" transform="translate(100.978 44.056)" opacity="0.4">
                <g id="Grupo_1113978" data-name="Grupo 1113978">
                  <g id="Grupo_1113977" data-name="Grupo 1113977" clip-path="url(#clip-path-13)">
                    <path id="Trazado_905871" data-name="Trazado 905871" d="M133.929,105.3l-10.011,41.45a88.728,88.728,0,0,1,6.692,16.391c-.008-.008-.008-.015-.015-.023-6.769-10.928-12.5-14.169-12.5-14.169,4.516-5.418,8-45,8-45s14.154-16.632,12.793-34.035a55.72,55.72,0,0,0-4.461-18.389c2.3,1.165,4.609,3.5,6.458,7.819,4.353,10.174-1.756,38.908-6.956,45.958" transform="translate(-118.096 -51.525)" fill="#fd9826"/>
                  </g>
                </g>
              </g>
              <path id="Trazado_905872" data-name="Trazado 905872" d="M62.818,221.2c8.539-11.88,12.622-35.268,10.395-54.2s4.826-23.672,10.766-31.141,19.3-35.683,19.3-42.365,16.706-23.017,12.994-41.579c0,0,10.665-6.608,16.595,7.262,4.35,10.173-1.757,38.9-6.955,45.955L115.905,146.58S126.59,165,128.6,195.857c1.281,19.71-7.851,41.66-7.851,41.66" transform="translate(-9.106 -7.297)" fill="none" stroke="#263238" stroke-linecap="round" stroke-linejoin="round" stroke-width="1"/>
              <path id="Trazado_905873" data-name="Trazado 905873" d="M101.384,287.692s11.226,6.914,17.774,17.841" transform="translate(-14.696 -41.701)" fill="none" stroke="#263238" stroke-linecap="round" stroke-linejoin="round" stroke-width="1"/>
              <path id="Trazado_905874" data-name="Trazado 905874" d="M130.646,296.826s-9.671,1.374-18.411-9.076c-5.6-6.7-22.609-9.726-26.524-27.239" transform="translate(-12.424 -37.761)" fill="none" stroke="#263238" stroke-linecap="round" stroke-linejoin="round" stroke-width="1"/>
            </g>
          </g>
          <g id="Grupo_1113998" data-name="Grupo 1113998">
            <g id="Grupo_1113997" data-name="Grupo 1113997" clip-path="url(#clip-path-4)">
              <g id="Grupo_1113987" data-name="Grupo 1113987" transform="translate(182.868 99.934)" opacity="0.2">
                <g id="Grupo_1113986" data-name="Grupo 1113986">
                  <g id="Grupo_1113985" data-name="Grupo 1113985" clip-path="url(#clip-path-15)">
                    <g id="Grupo_1113984" data-name="Grupo 1113984" opacity="0.7">
                      <g id="Grupo_1113983" data-name="Grupo 1113983">
                        <g id="Grupo_1113982" data-name="Grupo 1113982" clip-path="url(#clip-path-15)">
                          <path id="Trazado_905875" data-name="Trazado 905875" d="M289.769,327.785c-24.753-11.841-9.76-21.329-43.816-36.029s-34.4-27.256-30.3-56.144.845-59.6,10.759-62.206-7.754-42.445,3.793-56.529l56.813,110.506Z" transform="translate(-213.869 -116.875)"/>
                        </g>
                      </g>
                    </g>
                  </g>
                </g>
              </g>
              <path id="Trazado_905876" data-name="Trazado 905876" d="M384.126,325.686c-1.165-3.326-2.346-6.956-3.255-10.243-1.183-4.3-2.108-7.7-4.283-11.666-.342-.638-.715-1.306-1.127-2.021a71.317,71.317,0,0,1-7.346-16.726c-1.242-4.679-.022-16.2,1.167-27.344.838-8.02,1.631-15.591,1.406-19.882l-.07-1.523c-.582-11.223-1.8-34.588-4.313-41.053-2.433-6.226-4.71-7.158-8.86-8.822-.427-.187-.872-.357-1.345-.56-1.555-.652-4.205-2.02-7.26-3.6-6.886-3.567-15.451-8-19.8-8.6a38.571,38.571,0,0,0-12.2.567c-5.363-4.119-14.489-9.42-17.2-9.521-2.23-.109-7.08,1.283-9.428,2.014-.545.171-.964.3-1.173.373a34.9,34.9,0,0,0-4.664-3.062c-.115-.055-.226-.1-.318-.14-3.017-1.243-7.577-1.29-10.065-1.22-.755.031-1.338.078-1.61.1-4.686-7.221-9.311-14.41-11.316-17.565-4.19-6.638-17.161-33.942-17.294-34.229a.239.239,0,0,0-.17-.14.394.394,0,0,0-.116-.038c-1.011-.3-8.441-2.185-11.425,5.021-3.265,7.834,1.4,25.05,5.945,31.3,2.191,3.016,8.161,15.288,14.231,28-1.561,1.446-14,12.949-20.052,15.093-4.951,1.749-3.793,27.126-2.86,47.5.35,7.524.645,14,.559,17.884-.171,7.524,13.517,17.892,26.783,27.91,11.993,9.078,24.391,18.46,25.843,25.276A13.059,13.059,0,0,0,285.419,314c2.285,2.907,5.223,6.334,6.474,12.84.365,1.943,3.5,4.492,5.953,8.658h89.9c-.752-1.944-2.168-5.635-3.622-9.809M259.576,190.5c4.352,9.117,7.042,14.573,7.679,15.148s.613,3.5.591,6.3a51.788,51.788,0,0,0,.256,7.384c-1.058.932-7.748,7.026-9.1,11.954l-5.689-6.7-1.437-21c.862-.894,6.715-7.072,7.7-13.088" transform="translate(-33.12 -15.995)" fill="#fff"/>
              <g id="Grupo_1113990" data-name="Grupo 1113990" transform="translate(255.914 148.696)" opacity="0.4">
                <g id="Grupo_1113989" data-name="Grupo 1113989">
                  <g id="Grupo_1113988" data-name="Grupo 1113988" clip-path="url(#clip-path-17)">
                    <path id="Trazado_905877" data-name="Trazado 905877" d="M368.618,258.285c2.111,19.709,2.142,30.4,4.51,36.1,4,9.63,9.89,11.58,9.89,11.58a59.589,59.589,0,0,1-4.639-11.726c-1.243-4.675-.023-16.195,1.164-27.341.84-8.019,1.639-15.594,1.413-19.886l-.076-1.523c-.581-11.223-1.791-34.583-4.313-41.05-2.427-6.226-4.709-7.159-8.855-8.825-.431-.185-.876-.356-1.349-.557-1.556-.65-4.2-2.018-7.258-3.6-6.887-3.564-15.454-8-19.8-8.594a38.554,38.554,0,0,0-12.2.565c-5.365-4.118-14.487-9.417-17.205-9.524-2.227-.1-8.248,1.649-10.6,2.386,10.237,8.374,25.038,18.787,25.038,18.787,11.689,2.324,10.191,7.4,14.915,10.237,4.28,2.569,8.371-4.942,11.943-5.6,4.715-.874,10.078,4.128,9.839,10.161-.663,16.718,5.772,31.495,7.584,48.41" transform="translate(-299.298 -173.903)" fill="#fd9826"/>
                  </g>
                </g>
              </g>
              <g id="Grupo_1113993" data-name="Grupo 1113993" transform="translate(240.865 146.646)" opacity="0.4">
                <g id="Grupo_1113992" data-name="Grupo 1113992">
                  <g id="Grupo_1113991" data-name="Grupo 1113991" clip-path="url(#clip-path-18)">
                    <path id="Trazado_905878" data-name="Trazado 905878" d="M306.985,196.863s-9.265-7.68-13.7-10.282-5.125-11.411-1.637-13.558a.913.913,0,0,1,.431-.133c-.11-.054-.222-.107-.319-.145-3.017-1.245-7.574-1.29-10.062-1.216,5.167,9.553,9.225,16.883,10.332,18.486,3.732,5.395,14.956,6.847,14.956,6.847" transform="translate(-281.698 -171.506)" fill="#fd9826"/>
                  </g>
                </g>
              </g>
              <g id="Grupo_1113996" data-name="Grupo 1113996" transform="translate(195.372 94.353)" opacity="0.4">
                <g id="Grupo_1113995" data-name="Grupo 1113995">
                  <g id="Grupo_1113994" data-name="Grupo 1113994" clip-path="url(#clip-path-19)">
                    <path id="Trazado_905879" data-name="Trazado 905879" d="M285.224,307.67c.389-2.044-2.977-8.029-4.453-10.454-3.365-5.542-42.382-40.02-36.724-49.223,5.635-9.225,10.811-2.386,14.386-1.8,2.573.428,9.615-3.769,9.576-4.119-.8-7.088,5.743-11.7,5.743-11.7s-.606-28.214-2.106-27.732-19.516-42.375-19.516-42.375-19.027-25.307-17.954-37.113,9.319-12.055,9.319-12.055l-.015-.318c-1.011-.3-8.441-2.185-11.425,5.021-3.265,7.834,1.4,25.05,5.945,31.3,2.191,3.016,8.161,15.288,14.231,28-1.561,1.446-14,12.949-20.052,15.093-4.951,1.749-3.793,27.126-2.86,47.5.35,7.524.645,14,.559,17.884-.171,7.524,13.517,17.892,26.783,27.91,11.993,9.078,24.391,18.46,25.843,25.276A13.059,13.059,0,0,0,285.419,314a33.786,33.786,0,0,1-.195-6.326M259.576,190.5c4.352,9.117,7.042,14.573,7.679,15.148s.613,3.5.591,6.3a51.788,51.788,0,0,0,.256,7.384c-1.058.932-7.748,7.026-9.1,11.954l-5.689-6.7-1.437-21c.862-.894,6.715-7.072,7.7-13.088" transform="translate(-228.492 -110.348)" fill="#fd9826"/>
                  </g>
                </g>
              </g>
              <path id="Trazado_905880" data-name="Trazado 905880" d="M294.4,187.937a19.44,19.44,0,0,1-9.614-6.734c-3.9-5.234-19.252-29.067-23.506-35.794s-17.313-34.249-17.313-34.249-8.037-2.69-11.166,4.82,1.157,24.465,5.916,31,27.412,56.871,29.211,58.5-.9,15.044,2.7,18.29" transform="translate(-33.59 -16.045)" fill="none" stroke="#263238" stroke-linecap="round" stroke-linejoin="round" stroke-width="1"/>
              <path id="Trazado_905881" data-name="Trazado 905881" d="M272.342,232.864s-8.3,7.226-9.269,12.5l-6.156-7.242-1.454-21.238s7.426-7.438,7.834-14.061" transform="translate(-37.03 -29.399)" fill="none" stroke="#263238" stroke-linecap="round" stroke-linejoin="round" stroke-width="1"/>
              <path id="Trazado_905882" data-name="Trazado 905882" d="M252.657,186.165s-13.773,13-20.323,15.316-1.777,51.009-2.1,65.112,49.555,38.658,52.615,53.1c1.216,5.739,6.239,6.912,9.314,17.916" transform="translate(-33.173 -26.985)" fill="none" stroke="#263238" stroke-linecap="round" stroke-linejoin="round" stroke-width="1"/>
              <path id="Trazado_905883" data-name="Trazado 905883" d="M279.623,171.993s7.5-.674,11.72,1.08,21.386,16.495,25.512,19.313,10.365,3.878,11.547,6.912" transform="translate(-40.532 -24.912)" fill="none" stroke="#263238" stroke-linecap="round" stroke-linejoin="round" stroke-width="1"/>
              <path id="Trazado_905884" data-name="Trazado 905884" d="M299.234,176.679s7.72-2.548,10.633-2.421,14.006,6.675,18.965,11.03a42.24,42.24,0,0,0,12.922,7.852" transform="translate(-43.374 -25.258)" fill="none" stroke="#263238" stroke-linecap="round" stroke-linejoin="round" stroke-width="1"/>
              <path id="Trazado_905885" data-name="Trazado 905885" d="M331.736,185.285a37.706,37.706,0,0,1,12.232-.588c6.258.843,21.976,10.089,26.982,12.175s7.408,2.469,10.036,9.21,3.841,32.358,4.371,42.478-4.743,39.12-2.571,47.281,6.114,14.448,8.5,18.816" transform="translate(-48.086 -26.734)" fill="none" stroke="#263238" stroke-linecap="round" stroke-linejoin="round" stroke-width="1"/>
              <path id="Trazado_905886" data-name="Trazado 905886" d="M254.973,218.31s-1.246-4.988-2.893-5.628" transform="translate(-36.539 -30.829)" fill="none" stroke="#263238" stroke-linecap="round" stroke-linejoin="round" stroke-width="1"/>
              <path id="Trazado_905887" data-name="Trazado 905887" d="M257.164,244.1a63.78,63.78,0,0,0,2.334,8.6c1.224,3.036-.684,7.425-.684,7.425" transform="translate(-37.276 -35.383)" fill="none" stroke="#263238" stroke-linecap="round" stroke-linejoin="round" stroke-width="1"/>
              <path id="Trazado_905888" data-name="Trazado 905888" d="M264.362,252.573c-.2,4.855,4.632,10.531,5.8,9.73" transform="translate(-38.319 -36.611)" fill="none" stroke="#263238" stroke-linecap="round" stroke-linejoin="round" stroke-width="1"/>
              <path id="Trazado_905889" data-name="Trazado 905889" d="M293.134,216.88s5.185-8.395,10.165-8.8,10.72,6.651,13.795,5.99,6.931-5.18,12.094-6.008,7.583,1.657,11.683,1.861,4.51-5.266,9.43-6.015,6.559,1.747,9.839,2.344,4.105-1.951,6.764-3.43" transform="translate(-42.49 -29.399)" fill="none" stroke="#263238" stroke-linecap="round" stroke-linejoin="round" stroke-width="1"/>
            </g>
          </g>
        </g>
      </g>
    </g>
  </g>
</svg>
