<svg xmlns="http://www.w3.org/2000/svg" xmlns:xlink="http://www.w3.org/1999/xlink" width="295" height="177.109" viewBox="0 0 295 177.109">
  <defs>
    <clipPath id="clip-path">
      <rect id="Rectángulo_406299" data-name="Rectángulo 406299" width="223.712" height="177.11" fill="none"/>
    </clipPath>
    <clipPath id="clip-path-3">
      <rect id="Rectángulo_406300" data-name="Rectángulo 406300" width="21.217" height="37.786" fill="none"/>
    </clipPath>
    <clipPath id="clip-path-4">
      <rect id="Rectángulo_406301" data-name="Rectángulo 406301" width="26.561" height="29.975" fill="none"/>
    </clipPath>
    <clipPath id="clip-path-5">
      <rect id="Rectángulo_406302" data-name="Rectángulo 406302" width="32.55" height="31" fill="none"/>
    </clipPath>
    <clipPath id="clip-path-6">
      <rect id="Rectángulo_406303" data-name="Rectángulo 406303" width="12.882" height="24.185" fill="none"/>
    </clipPath>
    <clipPath id="clip-path-7">
      <rect id="Rectángulo_406304" data-name="Rectángulo 406304" width="15.117" height="24.914" fill="none"/>
    </clipPath>
    <clipPath id="clip-path-8">
      <rect id="Rectángulo_406305" data-name="Rectángulo 406305" width="14.644" height="34.323" fill="none"/>
    </clipPath>
    <clipPath id="clip-path-9">
      <rect id="Rectángulo_406306" data-name="Rectángulo 406306" width="34.853" height="60.676" fill="none"/>
    </clipPath>
    <clipPath id="clip-path-10">
      <rect id="Rectángulo_406307" data-name="Rectángulo 406307" width="92.304" height="66.993" fill="none"/>
    </clipPath>
    <clipPath id="clip-path-11">
      <rect id="Rectángulo_406322" data-name="Rectángulo 406322" width="66.891" height="105.105" fill="none"/>
    </clipPath>
    <clipPath id="clip-path-12">
      <rect id="Rectángulo_406335" data-name="Rectángulo 406335" width="64.623" height="41.263" fill="none"/>
    </clipPath>
    <clipPath id="clip-path-13">
      <rect id="Rectángulo_406339" data-name="Rectángulo 406339" width="21.34" height="29.905" fill="none"/>
    </clipPath>
    <clipPath id="clip-path-14">
      <rect id="Rectángulo_406340" data-name="Rectángulo 406340" width="14.006" height="4.618" fill="none"/>
    </clipPath>
    <clipPath id="clip-path-15">
      <path id="Trazado_906161" data-name="Trazado 906161" d="M76.073,18.365C50.44,30.059,35.242,58.432,33.189,86.532a131.965,131.965,0,0,0,2.56,39.34c2.829,12.445,8.414,24.6,17.823,33.221C68.764,173.014,90.989,175.56,111.589,176c21.961.467,44.369-.762,64.951-8.433s39.306-22.588,47.319-43.041c10.517-26.843.282-58.86-20.223-79.126s-49.476-30.073-78.163-32.93c-4.862-.484-9.784-.777-14.7-.777-11.965,0-23.878,1.736-34.7,6.674" transform="translate(-32.754 -11.691)" fill="none"/>
    </clipPath>
    <clipPath id="clip-path-16">
      <rect id="Rectángulo_406342" data-name="Rectángulo 406342" width="109.881" height="157.482" fill="none"/>
    </clipPath>
    <clipPath id="clip-path-17">
      <rect id="Rectángulo_406343" data-name="Rectángulo 406343" width="9.367" height="7.058" fill="none"/>
    </clipPath>
    <clipPath id="clip-path-18">
      <path id="Trazado_906168" data-name="Trazado 906168" d="M367.021,258.6a45.67,45.67,0,0,0,14.595-7.2,26.935,26.935,0,0,0,9.453-13.039c2.035-6.576.911-13.69-.663-20.391a74.161,74.161,0,0,0-6.753-18.925,36.653,36.653,0,0,0-12.62-13.779Z" transform="translate(-367.021 -185.27)" fill="none"/>
    </clipPath>
    <clipPath id="clip-path-20">
      <rect id="Rectángulo_406344" data-name="Rectángulo 406344" width="24.754" height="47.24" fill="none"/>
    </clipPath>
    <clipPath id="clip-path-21">
      <rect id="Rectángulo_406345" data-name="Rectángulo 406345" width="51.242" height="43.598" fill="none"/>
    </clipPath>
    <clipPath id="clip-path-22">
      <rect id="Rectángulo_406346" data-name="Rectángulo 406346" width="20.066" height="2.91" fill="none"/>
    </clipPath>
    <clipPath id="clip-path-23">
      <path id="Trazado_906207" data-name="Trazado 906207" d="M181.584,191.518a57.2,57.2,0,0,0-21.791,30.515c-2.615,8.993-2.728,19.414,2.81,26.967,3.449,4.7,8.743,7.793,14.29,9.6,5.5,1.787,11.287,2.421,17.043,3a53.7,53.7,0,0,0,3.419-17.5h0a30.5,30.5,0,0,1-4.391-1.227c-4.173-1.512-8.209-4.165-10.007-8.221-1.883-4.245-.963-9.289,1.158-13.419a15.23,15.23,0,0,1,6.8-7.089l1.229-12.71V185.7a55.285,55.285,0,0,0-10.555,5.821" transform="translate(-158.055 -185.697)" fill="none"/>
    </clipPath>
    <clipPath id="clip-path-25">
      <rect id="Rectángulo_406347" data-name="Rectángulo 406347" width="36.624" height="32.846" fill="none"/>
    </clipPath>
  </defs>
  <g id="Grupo_1114223" data-name="Grupo 1114223" transform="translate(-212.051 -12587)">
    <rect id="Rectángulo_405715" data-name="Rectángulo 405715" width="295" height="177.109" rx="8" transform="translate(212.051 12587)" fill="#bce0fc"/>
    <g id="Grupo_1114221" data-name="Grupo 1114221" transform="translate(248.051 12587)">
      <g id="Grupo_1114222" data-name="Grupo 1114222">
        <g id="Grupo_1114151" data-name="Grupo 1114151">
          <g id="Grupo_1114150" data-name="Grupo 1114150" clip-path="url(#clip-path)">
            <path id="Trazado_906077" data-name="Trazado 906077" d="M33.189,86.532c2.053-28.1,17.251-56.473,42.884-68.168,15.267-6.965,32.7-7.56,49.4-5.9,28.687,2.857,57.659,12.664,78.163,32.93s30.74,52.284,20.223,79.127c-8.013,20.452-26.736,35.369-47.319,43.041s-42.99,8.9-64.952,8.433c-20.6-.439-42.826-2.985-58.016-16.906-9.409-8.622-14.994-20.776-17.823-33.221a131.965,131.965,0,0,1-2.56-39.34" transform="translate(-19.485 -6.955)" fill="#edf7fe"/>
          </g>
        </g>
        <g id="Grupo_1114189" data-name="Grupo 1114189">
          <g id="Grupo_1114188" data-name="Grupo 1114188" clip-path="url(#clip-path)">
            <g id="Grupo_1114154" data-name="Grupo 1114154" transform="translate(21.147 123.844)" opacity="0.15" style="mix-blend-mode: multiply;isolation: isolate">
              <g id="Grupo_1114153" data-name="Grupo 1114153">
                <g id="Grupo_1114152" data-name="Grupo 1114152" clip-path="url(#clip-path-3)">
                  <path id="Trazado_906078" data-name="Trazado 906078" d="M64.044,305.709c-4.273,4.325-8.057,9.275-10.164,14.979s-2.4,12.241.1,17.78a10.14,10.14,0,0,0,2.606,3.688,5.275,5.275,0,0,0,4.223,1.271c2.557-.469,4.078-3.119,4.835-5.606,1.058-3.474,1.315-7.141,2.192-10.665s2.531-7.079,5.577-9.054Z" transform="translate(-52.201 -305.709)" fill="#2e2854"/>
                </g>
              </g>
            </g>
            <path id="Trazado_906079" data-name="Trazado 906079" d="M62.718,301.589c-4.561,4.02-8.677,8.7-11.172,14.243s-3.241,12.047-1.121,17.746a10.146,10.146,0,0,0,2.346,3.858,5.275,5.275,0,0,0,4.125,1.559c2.583-.291,4.283-2.831,5.21-5.259,1.294-3.393,1.8-7.033,2.921-10.488s3.012-6.888,6.188-8.648Z" transform="translate(-29.26 -179.414)" fill="#49ad9f"/>
            <path id="Trazado_906080" data-name="Trazado 906080" d="M66.3,339.2A29.686,29.686,0,0,1,78.207,319.11" transform="translate(-39.44 -189.837)" fill="none" stroke="#2e2854" stroke-linecap="round" stroke-linejoin="round" stroke-width="1.5"/>
            <g id="Grupo_1114157" data-name="Grupo 1114157" transform="translate(147.872 136.073)" opacity="0.15" style="mix-blend-mode: multiply;isolation: isolate">
              <g id="Grupo_1114156" data-name="Grupo 1114156">
                <g id="Grupo_1114155" data-name="Grupo 1114155" clip-path="url(#clip-path-4)">
                  <path id="Trazado_906081" data-name="Trazado 906081" d="M365.023,335.9c.362,6.069,1.516,12.192,4.351,17.571s7.5,9.968,13.3,11.8a10.144,10.144,0,0,0,4.485.525,5.276,5.276,0,0,0,3.767-2.292c1.36-2.215.4-5.118-.939-7.343-1.878-3.108-4.433-5.75-6.47-8.757s-3.575-6.613-3.008-10.2Z" transform="translate(-365.023 -335.896)" fill="#2e2854"/>
                </g>
              </g>
            </g>
            <path id="Trazado_906082" data-name="Trazado 906082" d="M360.078,336.358c.068,6.08.925,12.251,3.5,17.761s7.01,10.32,12.711,12.433a10.145,10.145,0,0,0,4.455.741,5.275,5.275,0,0,0,3.874-2.107c1.465-2.147.651-5.093-.583-7.38-1.725-3.2-4.151-5.957-6.039-9.059s-3.251-6.778-2.512-10.333Z" transform="translate(-214.209 -200.098)" fill="#76c9bf"/>
            <path id="Trazado_906083" data-name="Trazado 906083" d="M389.2,360.006a29.685,29.685,0,0,1-7.447-22.138" transform="translate(-227.044 -200.997)" fill="none" stroke="#2e2854" stroke-linecap="round" stroke-linejoin="round" stroke-width="1.5"/>
            <g id="Grupo_1114160" data-name="Grupo 1114160" transform="translate(3.766 109.635)" opacity="0.15" style="mix-blend-mode: multiply;isolation: isolate">
              <g id="Grupo_1114159" data-name="Grupo 1114159">
                <g id="Grupo_1114158" data-name="Grupo 1114158" clip-path="url(#clip-path-5)">
                  <path id="Trazado_906084" data-name="Trazado 906084" d="M38.412,270.825c-4.862-.987-9.78,1.976-12.863,5.864s-4.822,8.639-7.121,13.036-5.464,8.707-9.132,10.861a26.361,26.361,0,0,0,20.131-2.258,26.358,26.358,0,0,0,12.419-16Z" transform="translate(-9.296 -270.634)" fill="#2e2854"/>
                </g>
              </g>
            </g>
            <path id="Trazado_906085" data-name="Trazado 906085" d="M31.509,268.124c-4.763-1.391-9.912,1.149-13.309,4.765s-5.53,8.2-8.189,12.392S3.836,293.5,0,295.338a26.361,26.361,0,0,0,20.249-.562,26.36,26.36,0,0,0,13.717-14.905Z" transform="translate(0 -159.276)" fill="#76c9bf"/>
            <path id="Trazado_906086" data-name="Trazado 906086" d="M40.169,294.56a32.979,32.979,0,0,0,15.378-15.286" transform="translate(-23.896 -166.139)" fill="none" stroke="#2e2854" stroke-linecap="round" stroke-linejoin="round" stroke-width="1.5"/>
            <g id="Grupo_1114163" data-name="Grupo 1114163" transform="translate(19.746 28.369)" opacity="0.15" style="mix-blend-mode: multiply;isolation: isolate">
              <g id="Grupo_1114162" data-name="Grupo 1114162">
                <g id="Grupo_1114161" data-name="Grupo 1114161" clip-path="url(#clip-path-6)">
                  <path id="Trazado_906087" data-name="Trazado 906087" d="M51.6,91.614a9.952,9.952,0,0,1-2.858-7.4,16.449,16.449,0,0,1,2.367-7.731,30.071,30.071,0,0,1,5.072-6.45c.435,3.372,2.251,6.378,3.665,9.471S62.3,86.168,61.1,89.353a7.822,7.822,0,0,1-5.838,4.86Z" transform="translate(-48.744 -70.028)" fill="#2e2854"/>
                </g>
              </g>
            </g>
            <path id="Trazado_906088" data-name="Trazado 906088" d="M48.758,92.07a9.952,9.952,0,0,1-3.718-7.011A16.455,16.455,0,0,1,46.47,77.1a30.081,30.081,0,0,1,4.269-7.008c.832,3.3,2.993,6.065,4.765,8.969s3.223,6.33,2.418,9.634a7.824,7.824,0,0,1-5.219,5.52Z" transform="translate(-26.757 -41.698)" fill="#49ad9f"/>
            <path id="Trazado_906089" data-name="Trazado 906089" d="M58.4,94.929a25.979,25.979,0,0,1,1.536,14.247" transform="translate(-34.744 -56.473)" fill="none" stroke="#2e2854" stroke-linecap="round" stroke-linejoin="round" stroke-width="1.5"/>
            <g id="Grupo_1114166" data-name="Grupo 1114166" transform="translate(75.267 28.366)" opacity="0.15" style="mix-blend-mode: multiply;isolation: isolate">
              <g id="Grupo_1114165" data-name="Grupo 1114165">
                <g id="Grupo_1114164" data-name="Grupo 1114164" clip-path="url(#clip-path-7)">
                  <path id="Trazado_906090" data-name="Trazado 906090" d="M188.778,94.874q-1.318-7.845-2.636-15.69c-.315-1.874-.619-3.859.079-5.627a5.759,5.759,0,0,1,4.13-3.4,6.766,6.766,0,0,1,5.283,1.186,11.671,11.671,0,0,1,3.833,5.888,27.588,27.588,0,0,1-.025,17.708Z" transform="translate(-185.798 -70.022)" fill="#2e2854"/>
                </g>
              </g>
            </g>
            <path id="Trazado_906091" data-name="Trazado 906091" d="M182.972,96.748,178.5,81.481c-.534-1.824-1.072-3.759-.588-5.6a5.761,5.761,0,0,1,3.7-3.869,6.767,6.767,0,0,1,5.386.553,11.673,11.673,0,0,1,4.5,5.393,27.588,27.588,0,0,1,2.07,17.587Z" transform="translate(-105.726 -42.647)" fill="#76c9bf"/>
            <path id="Trazado_906092" data-name="Trazado 906092" d="M197.484,94.515a48.326,48.326,0,0,1,3.229,16.842" transform="translate(-117.483 -56.227)" fill="none" stroke="#2e2854" stroke-linecap="round" stroke-linejoin="round" stroke-width="1.5"/>
            <g id="Grupo_1114169" data-name="Grupo 1114169" transform="translate(63.754 17.964)" opacity="0.15" style="mix-blend-mode: multiply;isolation: isolate">
              <g id="Grupo_1114168" data-name="Grupo 1114168">
                <g id="Grupo_1114167" data-name="Grupo 1114167" clip-path="url(#clip-path-8)">
                  <path id="Trazado_906093" data-name="Trazado 906093" d="M159.917,78.666a33.754,33.754,0,0,1,2.309-30.273c1.317-2.141,3.379-4.357,5.87-4.015,2.117.291,3.571,2.435,3.853,4.554a17.9,17.9,0,0,1-.8,6.322,57.77,57.77,0,0,0-.6,23.046Z" transform="translate(-157.376 -44.343)" fill="#2e2854"/>
                </g>
              </g>
            </g>
            <path id="Trazado_906094" data-name="Trazado 906094" d="M157.6,75.961a33.754,33.754,0,0,1-.521-30.356c1.112-2.255,2.959-4.653,5.471-4.544,2.135.093,3.782,2.092,4.26,4.175a17.9,17.9,0,0,1-.213,6.37,57.76,57.76,0,0,0,1.545,23Z" transform="translate(-91.45 -24.425)" fill="#49ad9f"/>
            <path id="Trazado_906095" data-name="Trazado 906095" d="M172.351,59.222a59.52,59.52,0,0,0,1.684,28.331" transform="translate(-101.95 -35.231)" fill="none" stroke="#2e2854" stroke-linecap="round" stroke-linejoin="round" stroke-width="1.5"/>
            <g id="Grupo_1114172" data-name="Grupo 1114172" transform="translate(144.864 23.971)" opacity="0.15" style="mix-blend-mode: multiply;isolation: isolate">
              <g id="Grupo_1114171" data-name="Grupo 1114171">
                <g id="Grupo_1114170" data-name="Grupo 1114170" clip-path="url(#clip-path-9)">
                  <path id="Trazado_906096" data-name="Trazado 906096" d="M357.666,109.87a69.723,69.723,0,0,1,6.385-32.34,41.51,41.51,0,0,1,7.257-11.2,23.082,23.082,0,0,1,11.324-6.815c2.843-.659,6.211-.486,8.174,1.675,1.621,1.785,1.837,4.445,1.521,6.835-.9,6.811-5.248,12.57-8.676,18.523a75.455,75.455,0,0,0-9.9,33.3Z" transform="translate(-357.597 -59.172)" fill="#2e2854"/>
                </g>
              </g>
            </g>
            <path id="Trazado_906097" data-name="Trazado 906097" d="M353.339,104.75a69.721,69.721,0,0,1,5.039-32.577,41.5,41.5,0,0,1,6.787-11.495A23.076,23.076,0,0,1,376.2,53.4c2.814-.776,6.186-.743,8.236,1.335,1.693,1.716,2.019,4.365,1.8,6.766-.616,6.842-4.722,12.776-7.9,18.867a75.448,75.448,0,0,0-8.51,33.686Z" transform="translate(-210.048 -31.49)" fill="#49ad9f"/>
            <path id="Trazado_906098" data-name="Trazado 906098" d="M390.571,74.145a160.472,160.472,0,0,0-16.518,48.82" transform="translate(-222.523 -44.109)" fill="none" stroke="#2e2854" stroke-linecap="round" stroke-linejoin="round" stroke-width="1.5"/>
            <g id="Grupo_1114175" data-name="Grupo 1114175" transform="translate(8.473 49.067)" opacity="0.15" style="mix-blend-mode: multiply;isolation: isolate">
              <g id="Grupo_1114174" data-name="Grupo 1114174">
                <g id="Grupo_1114173" data-name="Grupo 1114173" clip-path="url(#clip-path-10)">
                  <path id="Trazado_906099" data-name="Trazado 906099" d="M105.239,187.308q-38.192,1.571-76.427.085a7.753,7.753,0,0,1-7.448-7.488c-.553-17.06-.621-33.69-.068-50.283a7.746,7.746,0,0,1,7.334-7.469,713.07,713.07,0,0,1,75.674-.051,7.751,7.751,0,0,1,7.291,6.944,317.282,317.282,0,0,1,1.068,50.936,7.765,7.765,0,0,1-7.425,7.325" transform="translate(-20.915 -121.122)" fill="#2e2854"/>
                </g>
              </g>
            </g>
            <path id="Trazado_906100" data-name="Trazado 906100" d="M94.485,181.779q-38.192,1.571-76.427.085a7.753,7.753,0,0,1-7.448-7.488c-.553-17.06-.621-33.69-.068-50.283a7.746,7.746,0,0,1,7.334-7.469,713.07,713.07,0,0,1,75.674-.051,7.751,7.751,0,0,1,7.291,6.944,317.281,317.281,0,0,1,1.068,50.936,7.765,7.765,0,0,1-7.425,7.325" transform="translate(-6.044 -68.766)" fill="#fff"/>
            <path id="Trazado_906101" data-name="Trazado 906101" d="M94.485,181.779q-38.192,1.571-76.427.085a7.753,7.753,0,0,1-7.448-7.488c-.553-17.06-.621-33.69-.068-50.283a7.746,7.746,0,0,1,7.334-7.469,713.07,713.07,0,0,1,75.674-.051,7.751,7.751,0,0,1,7.291,6.944,317.281,317.281,0,0,1,1.068,50.936A7.765,7.765,0,0,1,94.485,181.779Z" transform="translate(-6.044 -68.766)" fill="none" stroke="#2e2854" stroke-linecap="round" stroke-linejoin="round" stroke-width="1.5"/>
            <rect id="Rectángulo_406308" data-name="Rectángulo 406308" width="70.27" height="19.268" transform="translate(13.788 85.587)" fill="#f7a145"/>
            <rect id="Rectángulo_406309" data-name="Rectángulo 406309" width="2.757" height="11.551" transform="translate(18.221 93.305)" fill="#2e2854"/>
            <rect id="Rectángulo_406310" data-name="Rectángulo 406310" width="2.757" height="6.811" transform="translate(24.021 98.045)" fill="#2e2854"/>
            <rect id="Rectángulo_406311" data-name="Rectángulo 406311" width="2.757" height="13.818" transform="translate(29.821 91.038)" fill="#2e2854"/>
            <rect id="Rectángulo_406312" data-name="Rectángulo 406312" width="2.757" height="14.849" transform="translate(35.622 90.007)" fill="#2e2854"/>
            <rect id="Rectángulo_406313" data-name="Rectángulo 406313" width="2.757" height="4.131" transform="translate(41.422 100.725)" fill="#2e2854"/>
            <rect id="Rectángulo_406314" data-name="Rectángulo 406314" width="2.757" height="9.181" transform="translate(47.222 95.675)" fill="#2e2854"/>
            <rect id="Rectángulo_406315" data-name="Rectángulo 406315" width="2.757" height="11.551" transform="translate(53.022 93.305)" fill="#2e2854"/>
            <rect id="Rectángulo_406316" data-name="Rectángulo 406316" width="2.757" height="11.551" transform="translate(58.822 93.305)" fill="#2e2854"/>
            <rect id="Rectángulo_406317" data-name="Rectángulo 406317" width="2.757" height="9.181" transform="translate(64.622 95.675)" fill="#2e2854"/>
            <rect id="Rectángulo_406318" data-name="Rectángulo 406318" width="2.757" height="13.818" transform="translate(70.422 91.038)" fill="#2e2854"/>
            <rect id="Rectángulo_406319" data-name="Rectángulo 406319" width="2.757" height="11.963" transform="translate(76.223 92.893)" fill="#2e2854"/>
            <circle id="Elipse_12799" data-name="Elipse 12799" cx="6.971" cy="6.971" r="6.971" transform="translate(12.334 60.138) rotate(-22.5)" fill="none" stroke="#2e2854" stroke-linecap="round" stroke-linejoin="round" stroke-width="1.5"/>
            <path id="Trazado_906102" data-name="Trazado 906102" d="M50.528,150.233a5.128,5.128,0,1,0-5.128,5.128,5.128,5.128,0,0,0,5.128-5.128" transform="translate(-23.957 -86.322)" fill="#d24d84"/>
            <line id="Línea_1896" data-name="Línea 1896" x2="43.359" transform="translate(35.621 59.023)" fill="none" stroke="#2e2854" stroke-linecap="round" stroke-linejoin="round" stroke-width="1.5"/>
            <line id="Línea_1897" data-name="Línea 1897" x2="43.359" transform="translate(35.621 63.911)" fill="none" stroke="#2e2854" stroke-linecap="round" stroke-linejoin="round" stroke-width="1.5"/>
            <line id="Línea_1898" data-name="Línea 1898" x2="27.666" transform="translate(35.621 68.799)" fill="none" stroke="#2e2854" stroke-linecap="round" stroke-linejoin="round" stroke-width="1.5"/>
            <rect id="Rectángulo_406320" data-name="Rectángulo 406320" width="23.211" height="3.622" transform="translate(13.789 75.303)" fill="#6d7fe3"/>
            <rect id="Rectángulo_406321" data-name="Rectángulo 406321" width="43.566" height="3.622" transform="translate(40.492 75.303)" fill="#6d7fe3"/>
            <g id="Grupo_1114178" data-name="Grupo 1114178" transform="translate(156.821 45.493)" opacity="0.15" style="mix-blend-mode: multiply;isolation: isolate">
              <g id="Grupo_1114177" data-name="Grupo 1114177">
                <g id="Grupo_1114176" data-name="Grupo 1114176" clip-path="url(#clip-path-11)">
                  <path id="Trazado_906103" data-name="Trazado 906103" d="M446.76,216.218q-25.406,1.446-50.871,1.129a6.941,6.941,0,0,1-6.838-6.478,768.337,768.337,0,0,1-.995-91.989,6.936,6.936,0,0,1,6.89-6.569c17.137-.084,34.316.284,51.836,1.566a6.939,6.939,0,0,1,6.416,6.686c1.025,29.283,1.09,58.661.1,88.946a6.944,6.944,0,0,1-6.542,6.709" transform="translate(-387.114 -112.299)" fill="#2e2854"/>
                </g>
              </g>
            </g>
            <path id="Trazado_906104" data-name="Trazado 906104" d="M438.532,208.052q-25.406,1.446-50.871,1.129a6.941,6.941,0,0,1-6.838-6.478,768.325,768.325,0,0,1-.995-91.989,6.936,6.936,0,0,1,6.89-6.569c17.137-.084,34.315.284,51.836,1.566a6.939,6.939,0,0,1,6.416,6.686c1.025,29.283,1.09,58.661.1,88.946a6.944,6.944,0,0,1-6.542,6.709" transform="translate(-225.398 -61.948)" fill="#fff"/>
            <path id="Trazado_906105" data-name="Trazado 906105" d="M438.532,208.052q-25.406,1.446-50.871,1.129a6.941,6.941,0,0,1-6.838-6.478,768.325,768.325,0,0,1-.995-91.989,6.936,6.936,0,0,1,6.89-6.569c17.137-.084,34.315.284,51.836,1.566a6.939,6.939,0,0,1,6.416,6.686c1.025,29.283,1.09,58.661.1,88.946A6.944,6.944,0,0,1,438.532,208.052Z" transform="translate(-225.398 -61.948)" fill="none" stroke="#2e2854" stroke-linecap="round" stroke-linejoin="round" stroke-width="1.5"/>
            <path id="Trazado_906106" data-name="Trazado 906106" d="M428.874,135.576a15.566,15.566,0,0,1,15.566,15.566h7.73a23.3,23.3,0,1,0-46.592,0h7.73a15.566,15.566,0,0,1,15.566-15.566" transform="translate(-241.277 -76.055)" fill="#2e2854"/>
            <path id="Trazado_906107" data-name="Trazado 906107" d="M494.856,143.662l-5.321,5.6a15.517,15.517,0,0,1,4.851,11.285h7.73a23.224,23.224,0,0,0-7.26-16.889" transform="translate(-291.223 -85.464)" fill="#d24d84"/>
            <path id="Trazado_906108" data-name="Trazado 906108" d="M427.893,140.342a15.518,15.518,0,0,1,9.3-4.462l-.848-7.682a23.224,23.224,0,0,0-13.914,6.678Z" transform="translate(-251.302 -76.264)" fill="#f7a145"/>
            <line id="Línea_1899" data-name="Línea 1899" x2="52.79" transform="translate(161.202 75.087)" fill="none" stroke="#2e2854" stroke-linecap="round" stroke-linejoin="round" stroke-width="1.5"/>
            <rect id="Rectángulo_406323" data-name="Rectángulo 406323" width="15.246" height="3.622" transform="translate(162.811 84.315)" fill="#d24d84"/>
            <rect id="Rectángulo_406324" data-name="Rectángulo 406324" width="29.059" height="3.622" transform="translate(162.811 90.642)" fill="#d24d84"/>
            <rect id="Rectángulo_406325" data-name="Rectángulo 406325" width="28.617" height="3.622" transform="translate(180.351 84.315)" fill="#d24d84"/>
            <line id="Línea_1900" data-name="Línea 1900" x2="52.79" transform="translate(161.202 103.709)" fill="none" stroke="#2e2854" stroke-linecap="round" stroke-linejoin="round" stroke-width="1.5"/>
            <line id="Línea_1901" data-name="Línea 1901" x2="52.79" transform="translate(161.202 109.959)" fill="none" stroke="#2e2854" stroke-linecap="round" stroke-linejoin="round" stroke-width="1.5"/>
            <line id="Línea_1902" data-name="Línea 1902" x2="32.324" transform="translate(161.202 116.209)" fill="none" stroke="#2e2854" stroke-linecap="round" stroke-linejoin="round" stroke-width="1.5"/>
            <rect id="Rectángulo_406326" data-name="Rectángulo 406326" width="52.736" height="18.121" transform="translate(161.255 123.454)" fill="#f7a145"/>
            <rect id="Rectángulo_406327" data-name="Rectángulo 406327" width="2.757" height="10.863" transform="translate(165.688 130.713)" fill="#2e2854"/>
            <rect id="Rectángulo_406328" data-name="Rectángulo 406328" width="2.757" height="6.405" transform="translate(171.488 135.171)" fill="#2e2854"/>
            <rect id="Rectángulo_406329" data-name="Rectángulo 406329" width="2.757" height="12.996" transform="translate(177.288 128.58)" fill="#2e2854"/>
            <rect id="Rectángulo_406330" data-name="Rectángulo 406330" width="2.757" height="13.965" transform="translate(183.088 127.611)" fill="#2e2854"/>
            <rect id="Rectángulo_406331" data-name="Rectángulo 406331" width="2.757" height="3.885" transform="translate(188.888 137.691)" fill="#2e2854"/>
            <rect id="Rectángulo_406332" data-name="Rectángulo 406332" width="2.757" height="8.634" transform="translate(194.689 132.942)" fill="#2e2854"/>
            <rect id="Rectángulo_406333" data-name="Rectángulo 406333" width="2.757" height="10.863" transform="translate(200.488 130.713)" fill="#2e2854"/>
            <rect id="Rectángulo_406334" data-name="Rectángulo 406334" width="2.757" height="10.863" transform="translate(206.289 130.713)" fill="#2e2854"/>
            <g id="Grupo_1114181" data-name="Grupo 1114181" transform="translate(35.623 105.45)" opacity="0.15" style="mix-blend-mode: multiply;isolation: isolate">
              <g id="Grupo_1114180" data-name="Grupo 1114180">
                <g id="Grupo_1114179" data-name="Grupo 1114179" clip-path="url(#clip-path-12)">
                  <path id="Trazado_906109" data-name="Trazado 906109" d="M147.209,261.412q-26.781-1.456-53.619-1a5.652,5.652,0,0,0-5.56,5.49,206.2,206.2,0,0,0,1.142,29.258,5.655,5.655,0,0,0,5.22,4.99q26.1,1.873,52.3,1.264a5.65,5.65,0,0,0,5.518-5.578l.353-28.717a5.651,5.651,0,0,0-5.35-5.71" transform="translate(-87.936 -260.304)" fill="#2e2854"/>
                </g>
              </g>
            </g>
            <path id="Trazado_906110" data-name="Trazado 906110" d="M137.66,254.156q-26.781-1.456-53.619-1a5.651,5.651,0,0,0-5.561,5.49,206.2,206.2,0,0,0,1.142,29.258,5.655,5.655,0,0,0,5.22,4.99q26.1,1.873,52.3,1.264a5.65,5.65,0,0,0,5.518-5.578l.353-28.717a5.651,5.651,0,0,0-5.35-5.71" transform="translate(-46.633 -150.538)" fill="#fff"/>
            <path id="Trazado_906111" data-name="Trazado 906111" d="M137.66,254.156q-26.781-1.456-53.619-1a5.651,5.651,0,0,0-5.561,5.49,206.2,206.2,0,0,0,1.142,29.258,5.655,5.655,0,0,0,5.22,4.99q26.1,1.873,52.3,1.264a5.65,5.65,0,0,0,5.518-5.578l.353-28.717A5.651,5.651,0,0,0,137.66,254.156Z" transform="translate(-46.633 -150.538)" fill="none" stroke="#2e2854" stroke-linecap="round" stroke-linejoin="round" stroke-width="1.5"/>
            <path id="Trazado_906112" data-name="Trazado 906112" d="M107.392,270.481a5.9,5.9,0,1,0,1.617,7.057,5.931,5.931,0,0,0-1.617-7.057" transform="translate(-58.161 -160.136)" fill="#2e2854"/>
            <path id="Trazado_906113" data-name="Trazado 906113" d="M111.5,276.929a1.721,1.721,0,1,0-1.722,1.722,1.721,1.721,0,0,0,1.722-1.722" transform="translate(-64.285 -163.72)" fill="#f7a145"/>
            <path id="Trazado_906114" data-name="Trazado 906114" d="M106.011,286.306a4.6,4.6,0,0,0-4.288,2.934,5.983,5.983,0,0,0,3.67,1.867,6.074,6.074,0,0,0,4.912-1.852,4.6,4.6,0,0,0-4.294-2.948" transform="translate(-60.515 -170.323)" fill="#f7a145"/>
            <line id="Línea_1903" data-name="Línea 1903" x2="29.801" transform="translate(56.334 112.148)" fill="none" stroke="#2e2854" stroke-linecap="round" stroke-linejoin="round" stroke-width="1.5"/>
            <line id="Línea_1904" data-name="Línea 1904" x2="29.801" transform="translate(56.334 115.984)" fill="none" stroke="#2e2854" stroke-linecap="round" stroke-linejoin="round" stroke-width="1.5"/>
            <line id="Línea_1905" data-name="Línea 1905" x2="16.659" transform="translate(56.334 119.82)" fill="none" stroke="#2e2854" stroke-linecap="round" stroke-linejoin="round" stroke-width="1.5"/>
            <rect id="Rectángulo_406336" data-name="Rectángulo 406336" width="15.246" height="3.622" transform="translate(39.979 126.081)" fill="#d24d84"/>
            <rect id="Rectángulo_406337" data-name="Rectángulo 406337" width="24.685" height="3.622" transform="translate(39.978 132.409)" fill="#d24d84"/>
            <rect id="Rectángulo_406338" data-name="Rectángulo 406338" width="28.617" height="3.622" transform="translate(57.519 126.081)" fill="#d24d84"/>
            <g id="Grupo_1114184" data-name="Grupo 1114184" transform="translate(36.709 24.888)" opacity="0.15" style="mix-blend-mode: multiply;isolation: isolate">
              <g id="Grupo_1114183" data-name="Grupo 1114183">
                <g id="Grupo_1114182" data-name="Grupo 1114182" clip-path="url(#clip-path-13)">
                  <path id="Trazado_906115" data-name="Trazado 906115" d="M109.593,61.585l-16.224-.148-1.505,1.411a2.282,2.282,0,0,0-.711,1.6l-.535,23.784a2.611,2.611,0,0,0,2.5,2.939l14.206.165a4.047,4.047,0,0,0,2.333-.867l1.952-1.384L111.956,64a2.385,2.385,0,0,0-2.363-2.418" transform="translate(-90.616 -61.437)" fill="#2e2854"/>
                </g>
              </g>
            </g>
            <path id="Trazado_906116" data-name="Trazado 906116" d="M93.817,58.355,93.2,83.883a1.781,1.781,0,0,0,1.749,1.823l17.105.3.348-25.088A2.385,2.385,0,0,0,110.04,58.5Z" transform="translate(-55.445 -34.715)" fill="#d24d84"/>
            <path id="Trazado_906117" data-name="Trazado 906117" d="M90.678,58.355l-1.506,1.412a2.283,2.283,0,0,0-.711,1.6l-.536,23.783a2.611,2.611,0,0,0,2.5,2.939l14.206.165a4.042,4.042,0,0,0,2.333-.867l1.952-1.384-17.105-.3a1.781,1.781,0,0,1-1.749-1.823Z" transform="translate(-52.306 -34.715)" fill="#ad3b6a"/>
            <path id="Trazado_906118" data-name="Trazado 906118" d="M100.266,65.726l.064,4.183,13.935.146.009-4.618Z" transform="translate(-59.648 -38.928)" fill="#49ad9f"/>
            <g id="Grupo_1114187" data-name="Grupo 1114187" transform="translate(40.618 26.508)" opacity="0.15" style="mix-blend-mode: multiply;isolation: isolate">
              <g id="Grupo_1114186" data-name="Grupo 1114186">
                <g id="Grupo_1114185" data-name="Grupo 1114185" clip-path="url(#clip-path-14)">
                  <path id="Trazado_906119" data-name="Trazado 906119" d="M100.283,66.856l13.017-.484.083,3.673.881.009.008-4.618-14.007.289Z" transform="translate(-100.265 -65.436)" fill="#2e2854"/>
                </g>
              </g>
            </g>
            <path id="Trazado_906120" data-name="Trazado 906120" d="M101.761,85.282h2.749l-.124,3.256-2.724.007Z" transform="translate(-60.479 -50.733)" fill="#fff"/>
            <path id="Trazado_906121" data-name="Trazado 906121" d="M101.761,85.282h2.749l-.124,3.256-2.724.007Z" transform="translate(-60.479 -50.733)" fill="none" stroke="#2e2854" stroke-linecap="round" stroke-linejoin="round" stroke-width="1.5"/>
            <path id="Trazado_906122" data-name="Trazado 906122" d="M113.227,85.139l3-.033-.094,3.157-3,.008Z" transform="translate(-67.307 -50.629)" fill="#fff"/>
            <path id="Trazado_906123" data-name="Trazado 906123" d="M113.227,85.139l3-.033-.094,3.157-3,.008Z" transform="translate(-67.307 -50.629)" fill="none" stroke="#2e2854" stroke-linecap="round" stroke-linejoin="round" stroke-width="1.5"/>
            <path id="Trazado_906124" data-name="Trazado 906124" d="M124.846,85.053l.038,3.168,3.006.049-.026-3.3Z" transform="translate(-74.27 -50.548)" fill="#fff"/>
            <path id="Trazado_906125" data-name="Trazado 906125" d="M124.846,85.053l.038,3.168,3.006.049-.026-3.3Z" transform="translate(-74.27 -50.548)" fill="none" stroke="#2e2854" stroke-linecap="round" stroke-linejoin="round" stroke-width="1.5"/>
            <path id="Trazado_906126" data-name="Trazado 906126" d="M100.916,98.612l-.094,3.156,2.736.132.13-3.554Z" transform="translate(-59.979 -58.506)" fill="#fff"/>
            <path id="Trazado_906127" data-name="Trazado 906127" d="M100.916,98.612l-.094,3.156,2.736.132.13-3.554Z" transform="translate(-59.979 -58.506)" fill="none" stroke="#2e2854" stroke-linecap="round" stroke-linejoin="round" stroke-width="1.5"/>
            <path id="Trazado_906128" data-name="Trazado 906128" d="M112.339,98.625l3,.157-.133,3.471s-2.859-.087-2.926-.134.058-3.494.058-3.494" transform="translate(-66.783 -58.672)" fill="#fff"/>
            <path id="Trazado_906129" data-name="Trazado 906129" d="M112.339,98.625l3,.157-.133,3.471s-2.859-.087-2.926-.134S112.339,98.625,112.339,98.625Z" transform="translate(-66.783 -58.672)" fill="none" stroke="#2e2854" stroke-linecap="round" stroke-linejoin="round" stroke-width="1.5"/>
            <path id="Trazado_906130" data-name="Trazado 906130" d="M124.574,97.984l.016,3.244,2.9-.063-.142-3.553Z" transform="translate(-74.108 -58.069)" fill="#fff"/>
            <path id="Trazado_906131" data-name="Trazado 906131" d="M124.574,97.984l.016,3.244,2.9-.063-.142-3.553Z" transform="translate(-74.108 -58.069)" fill="none" stroke="#2e2854" stroke-linecap="round" stroke-linejoin="round" stroke-width="1.5"/>
            <path id="Trazado_906132" data-name="Trazado 906132" d="M100.343,111.755l-.152,3.166,2.889-.013L103,111.618Z" transform="translate(-59.603 -66.401)" fill="#fff"/>
            <path id="Trazado_906133" data-name="Trazado 906133" d="M100.343,111.755l-.152,3.166,2.889-.013L103,111.618Z" transform="translate(-59.603 -66.401)" fill="none" stroke="#2e2854" stroke-linecap="round" stroke-linejoin="round" stroke-width="1.5"/>
            <path id="Trazado_906134" data-name="Trazado 906134" d="M111.987,111.049l.079,3.4,3.051-.1L115,111.181Z" transform="translate(-66.621 -66.063)" fill="#fff"/>
            <path id="Trazado_906135" data-name="Trazado 906135" d="M111.987,111.049l.079,3.4,3.051-.1L115,111.181Z" transform="translate(-66.621 -66.063)" fill="none" stroke="#2e2854" stroke-linecap="round" stroke-linejoin="round" stroke-width="1.5"/>
            <path id="Trazado_906136" data-name="Trazado 906136" d="M124.958,110.764l.084,3.291,2.856,0-.1-3.323Z" transform="translate(-74.337 -65.877)" fill="#fff"/>
            <path id="Trazado_906137" data-name="Trazado 906137" d="M124.958,110.764l.084,3.291,2.856,0-.1-3.323Z" transform="translate(-74.337 -65.877)" fill="none" stroke="#2e2854" stroke-linecap="round" stroke-linejoin="round" stroke-width="1.5"/>
            <path id="Trazado_906138" data-name="Trazado 906138" d="M100.266,65.726l.064,4.183,13.935.146.009-4.618Z" transform="translate(-59.648 -38.928)" fill="none" stroke="#2e2854" stroke-linecap="round" stroke-linejoin="round" stroke-width="1.5"/>
            <path id="Trazado_906139" data-name="Trazado 906139" d="M93.817,58.355,93.2,83.883a1.781,1.781,0,0,0,1.749,1.823l17.105.3.348-25.088A2.385,2.385,0,0,0,110.04,58.5Z" transform="translate(-55.445 -34.715)" fill="none" stroke="#2e2854" stroke-linecap="round" stroke-linejoin="round" stroke-width="1.5"/>
          </g>
        </g>
        <g id="Grupo_1114197" data-name="Grupo 1114197" transform="translate(13.269 4.736)">
          <g id="Grupo_1114196" data-name="Grupo 1114196" clip-path="url(#clip-path-15)">
            <g id="Grupo_1114192" data-name="Grupo 1114192" transform="translate(54.432 9.661)" opacity="0.15" style="mix-blend-mode: multiply;isolation: isolate">
              <g id="Grupo_1114191" data-name="Grupo 1114191">
                <g id="Grupo_1114190" data-name="Grupo 1114190" clip-path="url(#clip-path-16)">
                  <path id="Trazado_906140" data-name="Trazado 906140" d="M275.711,131.367a74.151,74.151,0,0,0-6-19.177,37.288,37.288,0,0,0-11.043-13.554h0a4.75,4.75,0,0,0-1.159-.969c-.578-.346-1.556-.791-1.556-.791v0a35.219,35.219,0,0,0-13.907-4.216v0l-.137-.012c-.219-.022-.438-.045-.658-.064l0,.009c-1.041-.092-2.086-.159-3.135-.187l-3.979.316c-.479-1.8-.8-2.99-1.275-4.791l-.1-1.222a25.591,25.591,0,0,0,5.86-2.054,16.393,16.393,0,0,0,7.482-6.661,18.218,18.218,0,0,0,1.6-4.817,7.489,7.489,0,0,0,6.262.587,6.549,6.549,0,0,0,4.174-3.462,5.8,5.8,0,0,0,.2-3.556,6.717,6.717,0,0,0-3.556-4.48,5.9,5.9,0,0,0-3.945-.361c.158-.486.312-.975.447-1.468a13.008,13.008,0,0,0,.038-8.062c-1.86-4.827-6.593-4.808-8.286-5.124a11.8,11.8,0,0,0-16.131-10.917c-4,1.575-6.809,5.157-9.412,8.583a7.538,7.538,0,0,0-8.215,1.744,12.116,12.116,0,0,0-3.16,7.89,29.778,29.778,0,0,0,.562,6.834c-.068-.011-.137-.025-.207-.032a5.845,5.845,0,0,0-2.266.193A6.715,6.715,0,0,0,200,65.42a5.8,5.8,0,0,0-.353,3.544,6.546,6.546,0,0,0,3.587,4.067,7.5,7.5,0,0,0,6.236.408,22.41,22.41,0,0,0,5.324,8.731,18.365,18.365,0,0,0,8.842,4.606l-.137,1.219-1.629,4.579-3.073-.019q-.829.058-1.654.14l-.047.006q-.787.078-1.57.178v0A56.317,56.317,0,0,0,204.4,95.473v-.005a33.367,33.367,0,0,0-3.261,1.235v.005a55.159,55.159,0,0,0-8.814,4.621,57.193,57.193,0,0,0-22.984,29.627c-2.969,8.883-3.495,19.291,1.739,27.057,3.259,4.837,8.428,8.133,13.9,10.155a57.2,57.2,0,0,0,9.227,2.457q-.473,11.195-.81,22.394s57.819-1.608,57.267-2.156q1.775-10.3,3.021-20.689a42.818,42.818,0,0,0,11.915-5.751,26.935,26.935,0,0,0,9.962-12.655c2.294-6.491,1.453-13.643.145-20.4m-83.722,13.121c-1.713-4.316-.594-9.32,1.689-13.363a18.958,18.958,0,0,1,2.9-3.91q-.731,10.955-1.328,21.918a12.893,12.893,0,0,1-3.257-4.645" transform="translate(-167.121 -35.538)" fill="#2e2854"/>
                </g>
              </g>
            </g>
            <path id="Trazado_906141" data-name="Trazado 906141" d="M292.079,150.627l-.361,4.968v4.423l4.911-.553,4.717.252-.274-4.556-.661-5.375Z" transform="translate(-186.811 -93.843)" fill="#9e4950"/>
            <g id="Grupo_1114195" data-name="Grupo 1114195" transform="translate(104.907 55.943)" opacity="0.15" style="mix-blend-mode: multiply;isolation: isolate">
              <g id="Grupo_1114194" data-name="Grupo 1114194">
                <g id="Grupo_1114193" data-name="Grupo 1114193" clip-path="url(#clip-path-17)">
                  <path id="Trazado_906142" data-name="Trazado 906142" d="M291.719,155.6v1.152a19.621,19.621,0,0,0,9.367-1.378l-.013-.208-.66-5.375-8.334.841Z" transform="translate(-291.719 -149.786)" fill="#2e2854"/>
                </g>
              </g>
            </g>
            <path id="Trazado_906143" data-name="Trazado 906143" d="M282.171,45.207c1.705.249,6.433.043,8.482,4.792a13.009,13.009,0,0,1,.281,8.057c-.62,2.663-1.652,5.218-2.238,7.888-.725,3.3-.779,6.811-2.242,9.86a16.394,16.394,0,0,1-7.212,6.952,23.869,23.869,0,0,1-12.247,3,18.784,18.784,0,0,1-11.661-4.541,22.5,22.5,0,0,1-5.714-8.629A67.136,67.136,0,0,1,246.8,62.544a36.018,36.018,0,0,1-1.225-8.58,12.114,12.114,0,0,1,2.845-8.009,7.537,7.537,0,0,1,8.139-2.069c2.466-3.526,5.127-7.216,9.065-8.949a11.8,11.8,0,0,1,16.551,10.269" transform="translate(-159.356 -24.94)" fill="#654687"/>
            <path id="Trazado_906144" data-name="Trazado 906144" d="M294.158,81.153l-2.221,8.038a6.14,6.14,0,0,1-4.132.5c-1.529-.244-3.484-1.459-4.985-1.838A19.988,19.988,0,0,0,268.833,89.2c-1.591.773-3.266,2.589-5.018,2.353-1.977-.267-3.419-2.07-4.1-3.944a33.616,33.616,0,0,1-1.936-5.856,26.883,26.883,0,0,1,9.65-10.491c1.878,2.531,5.367,3.443,8.489,3.012s5.964-1.987,8.924-3.3a4.748,4.748,0,0,0,3.352,4,24.176,24.176,0,0,1,2.951.621A4.44,4.44,0,0,1,293.3,77.8c.461.948,1.221,2.03.856,3.351" transform="translate(-166.619 -46.958)" fill="#9e4950"/>
            <path id="Trazado_906145" data-name="Trazado 906145" d="M301.2,120.112A41.17,41.17,0,0,0,286.727,122c0,1.712,1.533,3.056,3.125,3.688a9.056,9.056,0,0,0,6.856-.107,7.526,7.526,0,0,0,4.487-5.464" transform="translate(-183.842 -76.166)" fill="#2e2854"/>
            <path id="Trazado_906146" data-name="Trazado 906146" d="M286.727,122a2.959,2.959,0,0,0,.273,1.225,72.7,72.7,0,0,1,13.845-1.925,8.186,8.186,0,0,0,.35-1.183A41.151,41.151,0,0,0,286.727,122" transform="translate(-183.842 -76.166)" fill="#fff"/>
            <path id="Trazado_906147" data-name="Trazado 906147" d="M300.844,129.444a3.848,3.848,0,0,0-3.14,2.206,9.057,9.057,0,0,0,5.534-.5c.235-.1.464-.216.688-.339a3.814,3.814,0,0,0-3.083-1.366" transform="translate(-190.372 -81.738)" fill="#d24d84"/>
            <path id="Trazado_906148" data-name="Trazado 906148" d="M306.3,99.189a7.735,7.735,0,0,1,1.618,3.518,11.777,11.777,0,0,1-2.77.177" transform="translate(-194.798 -63.743)" fill="none" stroke="#2e2854" stroke-linecap="round" stroke-linejoin="round" stroke-width="1.5"/>
            <path id="Trazado_906149" data-name="Trazado 906149" d="M273.066,102.239a3.486,3.486,0,0,1,5.053-.6" transform="translate(-175.715 -64.714)" fill="none" stroke="#2e2854" stroke-linecap="round" stroke-linejoin="round" stroke-width="1.5"/>
            <path id="Trazado_906150" data-name="Trazado 906150" d="M325.281,98.753a3.357,3.357,0,0,1,4.6.427" transform="translate(-206.778 -63.057)" fill="none" stroke="#2e2854" stroke-linecap="round" stroke-linejoin="round" stroke-width="1.5"/>
            <path id="Trazado_906151" data-name="Trazado 906151" d="M297.7,96.493a5.435,5.435,0,0,1,6.841-.25" transform="translate(-190.367 -61.342)" fill="none" stroke="#f7a145" stroke-linecap="round" stroke-linejoin="round" stroke-width="2"/>
            <path id="Trazado_906152" data-name="Trazado 906152" d="M277.207,92.255a55.5,55.5,0,0,0-13.515,2.4,13.869,13.869,0,0,0,.925,3.253,5.209,5.209,0,0,0,2.354,2.524,7.3,7.3,0,0,0,3.32.559,8.466,8.466,0,0,0,4.952-1.356,5.683,5.683,0,0,0,2.034-3.281A9.428,9.428,0,0,0,277.207,92.255Z" transform="translate(-170.138 -59.618)" fill="none" stroke="#f7a145" stroke-linecap="round" stroke-linejoin="round" stroke-width="2"/>
            <path id="Trazado_906153" data-name="Trazado 906153" d="M314.3,91.755a55.488,55.488,0,0,1,13.725.181,13.888,13.888,0,0,1-.388,3.36,5.209,5.209,0,0,1-1.915,2.871,7.3,7.3,0,0,1-3.187,1.088,8.472,8.472,0,0,1-5.106-.538,5.683,5.683,0,0,1-2.538-2.909A9.432,9.432,0,0,1,314.3,91.755Z" transform="translate(-200.238 -59.119)" fill="none" stroke="#f7a145" stroke-linecap="round" stroke-linejoin="round" stroke-width="2"/>
            <path id="Trazado_906154" data-name="Trazado 906154" d="M240.628,103.573a3.628,3.628,0,0,0-3.36-3.515,5.841,5.841,0,0,0-2.256.283,6.714,6.714,0,0,0-4.05,4.038,5.8,5.8,0,0,0-.213,3.556,6.547,6.547,0,0,0,3.745,3.922,7.449,7.449,0,0,0,6.394.091Z" transform="translate(-150.429 -64.252)" fill="#9e4950"/>
            <path id="Trazado_906155" data-name="Trazado 906155" d="M240.115,111.451a4.924,4.924,0,0,1,4.54-1.411" transform="translate(-156.113 -70.137)" fill="none" stroke="#2e2854" stroke-linecap="round" stroke-linejoin="round" stroke-width="1.5"/>
            <path id="Trazado_906156" data-name="Trazado 906156" d="M246.165,113.741a10.431,10.431,0,0,1-1.07-3.191" transform="translate(-159.075 -70.502)" fill="none" stroke="#2e2854" stroke-linecap="round" stroke-linejoin="round" stroke-width="1.5"/>
            <path id="Trazado_906157" data-name="Trazado 906157" d="M350.705,98.863a2.472,2.472,0,0,1,1.667-2.091,5.9,5.9,0,0,1,4.085.168,6.717,6.717,0,0,1,3.731,4.335,5.8,5.8,0,0,1-.06,3.561,6.548,6.548,0,0,1-4.034,3.624,7.449,7.449,0,0,1-6.383-.4Z" transform="translate(-221.311 -62.135)" fill="#9e4950"/>
            <path id="Trazado_906158" data-name="Trazado 906158" d="M360.318,107.94a4.925,4.925,0,0,0-4.419-1.753" transform="translate(-224.992 -67.881)" fill="none" stroke="#2e2854" stroke-linecap="round" stroke-linejoin="round" stroke-width="1.5"/>
            <path id="Trazado_906159" data-name="Trazado 906159" d="M358.846,110.182a10.425,10.425,0,0,0,1.31-3.1" transform="translate(-226.745 -68.439)" fill="none" stroke="#2e2854" stroke-linecap="round" stroke-linejoin="round" stroke-width="1.5"/>
            <path id="Trazado_906160" data-name="Trazado 906160" d="M367.021,258.6a45.678,45.678,0,0,0,14.595-7.2,26.936,26.936,0,0,0,9.453-13.039c2.035-6.576.911-13.69-.663-20.391a74.156,74.156,0,0,0-6.753-18.925,36.652,36.652,0,0,0-12.621-13.78Z" transform="translate(-231.609 -114.953)" fill="#6d7fe3"/>
          </g>
        </g>
        <g id="Grupo_1114199" data-name="Grupo 1114199" transform="translate(148.681 75.053)">
          <g id="Grupo_1114198" data-name="Grupo 1114198" clip-path="url(#clip-path-18)">
            <path id="Trazado_906162" data-name="Trazado 906162" d="M373.322,207.063a43.148,43.148,0,0,1,8.94,13.25,51.922,51.922,0,0,1,4.957,17.261,31.27,31.27,0,0,1-3.276,17.492,22.462,22.462,0,0,1-13.562,11.147" transform="translate(-369.02 -198.235)" fill="none" stroke="#9da7e0" stroke-linecap="round" stroke-linejoin="round" stroke-width="1.5"/>
            <path id="Trazado_906163" data-name="Trazado 906163" d="M375.125,232.37a29.7,29.7,0,0,1-1.326,35.718" transform="translate(-371.053 -213.29)" fill="none" stroke="#9da7e0" stroke-linecap="round" stroke-linejoin="round" stroke-width="1.5"/>
            <path id="Trazado_906164" data-name="Trazado 906164" d="M366.395,322.3a38.862,38.862,0,0,0,23.581,3.306" transform="translate(-366.649 -266.789)" fill="none" stroke="#9da7e0" stroke-linecap="round" stroke-linejoin="round" stroke-width="1.5"/>
            <path id="Trazado_906165" data-name="Trazado 906165" d="M372.3,293.356a49.745,49.745,0,0,0,25.13-2.522" transform="translate(-370.159 -248.07)" fill="none" stroke="#9da7e0" stroke-linecap="round" stroke-linejoin="round" stroke-width="1.5"/>
            <path id="Trazado_906166" data-name="Trazado 906166" d="M374.223,263.481a56.132,56.132,0,0,0,20.322-9.366" transform="translate(-371.305 -226.226)" fill="none" stroke="#9da7e0" stroke-linecap="round" stroke-linejoin="round" stroke-width="1.5"/>
            <path id="Trazado_906167" data-name="Trazado 906167" d="M389.86,215.993a64.815,64.815,0,0,1-13.931,12.693" transform="translate(-372.32 -203.547)" fill="none" stroke="#9da7e0" stroke-linecap="round" stroke-linejoin="round" stroke-width="1.5"/>
          </g>
        </g>
        <g id="Grupo_1114210" data-name="Grupo 1114210" transform="translate(13.269 4.736)">
          <g id="Grupo_1114209" data-name="Grupo 1114209" clip-path="url(#clip-path-15)">
            <g id="Grupo_1114202" data-name="Grupo 1114202" transform="translate(135.412 96.409)" opacity="0.15" style="mix-blend-mode: multiply;isolation: isolate">
              <g id="Grupo_1114201" data-name="Grupo 1114201">
                <g id="Grupo_1114200" data-name="Grupo 1114200" clip-path="url(#clip-path-20)">
                  <path id="Trazado_906169" data-name="Trazado 906169" d="M391.068,276.68a23.477,23.477,0,0,0,.707-3.01c-7.732,11.966-17.037,13.082-17.037,13.082-.044-11.267-4.868-37.076-4.868-37.076s-.2,1.821-.527,4.8l-2.321,42.44a45.672,45.672,0,0,0,14.594-7.2,26.935,26.935,0,0,0,9.453-13.039" transform="translate(-367.021 -249.676)" fill="#2e2854"/>
                </g>
              </g>
            </g>
            <path id="Trazado_906170" data-name="Trazado 906170" d="M367.021,306.628a45.677,45.677,0,0,0,14.595-7.2,26.936,26.936,0,0,0,9.453-13.039c2.035-6.576.911-13.69-.663-20.391" transform="translate(-231.609 -162.979)" fill="none" stroke="#2e2854" stroke-linecap="round" stroke-linejoin="round" stroke-width="1.5"/>
            <path id="Trazado_906171" data-name="Trazado 906171" d="M288.086,205.682l-.036-27.288q-.537-.328-1.088-.632a35.278,35.278,0,0,0-15.5-4.05c-1.244,3.481-4.331,8.546-11.754,8.484-7.331-.06-10.8-4.386-12.335-7.419a56.341,56.341,0,0,0-13.9,3.79l-5.227,29.249q-.964,34.064-.623,68.147s57.71-3.9,57.137-4.423a410.7,410.7,0,0,0,3.33-65.858" transform="translate(-148.626 -108.077)" fill="#d24d84"/>
            <path id="Trazado_906172" data-name="Trazado 906172" d="M289.594,164.127c1.57,1.249,3.411,2.059,4.911,3.871l-1.782,3.569-4.576-2.8Z" transform="translate(-184.687 -102.375)" fill="#6d7fe3"/>
            <path id="Trazado_906173" data-name="Trazado 906173" d="M303.843,167.359a32.077,32.077,0,0,1,4.443-4.305l1.464,4.737-3.873,2.843Z" transform="translate(-194.024 -101.736)" fill="#6d7fe3"/>
            <path id="Trazado_906174" data-name="Trazado 906174" d="M280.567,174.494l3.071-.1,6.358-.769,5.906.431,3.963-.473s1.565,8.766-8.611,8.538-10.687-7.625-10.687-7.625" transform="translate(-180.177 -107.998)" fill="#6d7fe3"/>
            <path id="Trazado_906175" data-name="Trazado 906175" d="M295.084,173.573a10.608,10.608,0,0,1-19.3.914q-1.639.18-3.256.453a15.727,15.727,0,0,0,8.156,7.609,14.3,14.3,0,0,0,11.961-.663,13.207,13.207,0,0,0,6.377-8.214q-1.962-.126-3.94-.1" transform="translate(-175.396 -107.991)" fill="#bf326c"/>
            <path id="Trazado_906176" data-name="Trazado 906176" d="M374.888,184.507q.419,13.861-.317,27.726a1.1,1.1,0,0,1-1.075,1.046c-.221.005-.456.007-.681,0a1.1,1.1,0,0,1-1.075-1.151c.439-9.761.25-19.5.366-29.274,0,0,1,.406,1.586.729a4.746,4.746,0,0,1,1.2.922" transform="translate(-234.415 -113.517)" fill="#bf326c"/>
            <path id="Trazado_906177" data-name="Trazado 906177" d="M368.792,327.476a410.781,410.781,0,0,0,3.468-59.739" transform="translate(-232.662 -164.012)" fill="none" stroke="#2e2854" stroke-linecap="round" stroke-linejoin="round" stroke-width="1.5"/>
            <g id="Grupo_1114205" data-name="Grupo 1114205" transform="translate(78.908 113.531)" opacity="0.15" style="mix-blend-mode: multiply;isolation: isolate">
              <g id="Grupo_1114204" data-name="Grupo 1114204">
                <g id="Grupo_1114203" data-name="Grupo 1114203" clip-path="url(#clip-path-21)">
                  <path id="Trazado_906178" data-name="Trazado 906178" d="M270.094,291.959c-8.7-.15-20.081.892-20.081.892l-.241,13.28a32.505,32.505,0,0,1-22.013-5.533q-.209,13.359-.219,26.721c4.4.475,12.288,1.217,20.314,1.43,0,0-.717,3.606.681,5.449s6.689,1.282,16.664,1.2,12.459-.08,12.939-3.366.8-27.032.561-34.029.1-5.9-8.605-6.046" transform="translate(-227.54 -291.944)" fill="#2e2854"/>
                </g>
              </g>
            </g>
            <path id="Trazado_906179" data-name="Trazado 906179" d="M272.326,330.365a30.723,30.723,0,0,1-6.906.35v5.206l8.143-.651Z" transform="translate(-171.166 -201.269)" fill="#9e4950"/>
            <path id="Trazado_906180" data-name="Trazado 906180" d="M306.028,290.361a327.138,327.138,0,0,1-.054,38.429,1.724,1.724,0,0,1-1.585,1.607c-7.875.606-15.79.872-23.923.709a1.721,1.721,0,0,1-1.682-1.684c-.276-12.85-.555-25.714-.926-38.9a1.72,1.72,0,0,1,1.593-1.767,167.151,167.151,0,0,1,25-.014,1.72,1.72,0,0,1,1.577,1.624" transform="translate(-178.565 -176.23)" fill="#fff"/>
            <path id="Trazado_906181" data-name="Trazado 906181" d="M291.55,317.789a25.55,25.55,0,0,0-5.7.018,49.793,49.793,0,0,0,.211,5.51c1.87-.063,3.74-.127,5.655-.184C291.64,321.458,291.566,319.783,291.55,317.789Z" transform="translate(-183.311 -193.698)" fill="none" stroke="#2e2854" stroke-linecap="round" stroke-linejoin="round" stroke-width="1.5"/>
            <path id="Trazado_906182" data-name="Trazado 906182" d="M286.1,315.528a17.181,17.181,0,0,1,2.67,3.767l1.113-5.039" transform="translate(-183.469 -191.686)" fill="none" stroke="#d14b56" stroke-linecap="round" stroke-linejoin="round" stroke-width="3"/>
            <path id="Trazado_906183" data-name="Trazado 906183" d="M307.188,319.158s10.233-.256,12.838-.376" transform="translate(-196.014 -194.378)" fill="none" stroke="#2e2854" stroke-linecap="round" stroke-linejoin="round" stroke-width="1.5"/>
            <path id="Trazado_906184" data-name="Trazado 906184" d="M307.188,326.885s8-.077,12.838-.341" transform="translate(-196.014 -198.996)" fill="none" stroke="#2e2854" stroke-linecap="round" stroke-linejoin="round" stroke-width="1.5"/>
            <path id="Trazado_906185" data-name="Trazado 906185" d="M292.485,342.623a25.546,25.546,0,0,0-5.7.017,49.779,49.779,0,0,0,.211,5.51c1.87-.063,3.739-.126,5.655-.184C292.575,346.292,292.5,344.616,292.485,342.623Z" transform="translate(-183.867 -208.472)" fill="none" stroke="#2e2854" stroke-linecap="round" stroke-linejoin="round" stroke-width="1.5"/>
            <path id="Trazado_906186" data-name="Trazado 906186" d="M287.036,340.362a17.189,17.189,0,0,1,2.67,3.767l1.113-5.039" transform="translate(-184.026 -206.46)" fill="none" stroke="#d14b56" stroke-linecap="round" stroke-linejoin="round" stroke-width="3"/>
            <path id="Trazado_906187" data-name="Trazado 906187" d="M308.123,343.991s10.234-.256,12.838-.376" transform="translate(-196.57 -209.151)" fill="none" stroke="#2e2854" stroke-linecap="round" stroke-linejoin="round" stroke-width="1.5"/>
            <path id="Trazado_906188" data-name="Trazado 906188" d="M308.123,351.718s8-.077,12.838-.341" transform="translate(-196.57 -213.769)" fill="none" stroke="#2e2854" stroke-linecap="round" stroke-linejoin="round" stroke-width="1.5"/>
            <path id="Trazado_906189" data-name="Trazado 906189" d="M293.42,367.457a25.55,25.55,0,0,0-5.7.018,49.782,49.782,0,0,0,.211,5.51c1.87-.063,3.739-.127,5.656-.184C293.51,371.126,293.436,369.451,293.42,367.457Z" transform="translate(-184.423 -223.246)" fill="none" stroke="#2e2854" stroke-linecap="round" stroke-linejoin="round" stroke-width="1.5"/>
            <path id="Trazado_906190" data-name="Trazado 906190" d="M287.971,365.2a17.19,17.19,0,0,1,2.67,3.767l1.113-5.039" transform="translate(-184.582 -221.233)" fill="none" stroke="#d14b56" stroke-linecap="round" stroke-linejoin="round" stroke-width="3"/>
            <path id="Trazado_906191" data-name="Trazado 906191" d="M309.058,368.825s10.234-.256,12.838-.376" transform="translate(-197.127 -223.925)" fill="none" stroke="#2e2854" stroke-linecap="round" stroke-linejoin="round" stroke-width="1.5"/>
            <path id="Trazado_906192" data-name="Trazado 906192" d="M309.058,376.552s8-.077,12.838-.341" transform="translate(-197.127 -228.543)" fill="none" stroke="#2e2854" stroke-linecap="round" stroke-linejoin="round" stroke-width="1.5"/>
            <path id="Trazado_906193" data-name="Trazado 906193" d="M244.309,347.372l.161.016a87.946,87.946,0,0,0,17.733.278,3.107,3.107,0,0,0,1.336-.323,1.088,1.088,0,0,0,.565-1.158c-.168-.589-.9-.774-1.511-.836a32.051,32.051,0,0,0-5.139-.067,27.779,27.779,0,0,0,7.105-1.547,2.905,2.905,0,0,0,1.235-.708,1.068,1.068,0,0,0,.142-1.317,1.559,1.559,0,0,0-1.255-.407,53.894,53.894,0,0,0-7.6.592,41.306,41.306,0,0,0,8.657-2.033,3.63,3.63,0,0,0,1.508-.836,1.32,1.32,0,0,0,.233-1.592,1.958,1.958,0,0,0-1.769-.523q-1.576.08-3.148.221a24.622,24.622,0,0,0,3.44-.967,3.281,3.281,0,0,0,1.124-.606,1.253,1.253,0,0,0,.429-1.151,1.277,1.277,0,0,0-.939-.872,3.747,3.747,0,0,0-1.338-.039l-7.806.709-.086-2.683-5.459-1.1a31.1,31.1,0,0,1-4.194-.548l-5,7.257Z" transform="translate(-157.668 -200.979)" fill="#9e4950"/>
            <g id="Grupo_1114208" data-name="Grupo 1114208" transform="translate(86.287 144.098)" opacity="0.15" style="mix-blend-mode: multiply;isolation: isolate">
              <g id="Grupo_1114207" data-name="Grupo 1114207">
                <g id="Grupo_1114206" data-name="Grupo 1114206" clip-path="url(#clip-path-22)">
                  <path id="Trazado_906194" data-name="Trazado 906194" d="M264,369.987a3.108,3.108,0,0,0,1.336-.323,1.29,1.29,0,0,0,.481-.5,126.116,126.116,0,0,1-20.066-1.762l.354,2.295.161.017a87.941,87.941,0,0,0,17.733.278" transform="translate(-245.754 -367.398)" fill="#2e2854"/>
                </g>
              </g>
            </g>
            <path id="Trazado_906195" data-name="Trazado 906195" d="M284.352,347.79c-1.644.347-3.319.572-4.986.794" transform="translate(-179.463 -211.635)" fill="none" stroke="#2e2854" stroke-linecap="round" stroke-linejoin="round" stroke-width="1.5"/>
            <path id="Trazado_906196" data-name="Trazado 906196" d="M246.628,352.63l.161.016a87.946,87.946,0,0,0,17.733.278,3.108,3.108,0,0,0,1.336-.323,1.088,1.088,0,0,0,.565-1.158c-.168-.589-.9-.774-1.511-.836a32.055,32.055,0,0,0-5.139-.067,27.779,27.779,0,0,0,7.105-1.547,2.905,2.905,0,0,0,1.235-.708,1.068,1.068,0,0,0,.142-1.317,1.559,1.559,0,0,0-1.255-.407,53.9,53.9,0,0,0-7.6.592,41.3,41.3,0,0,0,8.657-2.033,3.63,3.63,0,0,0,1.508-.836,1.32,1.32,0,0,0,.233-1.592,1.958,1.958,0,0,0-1.77-.523q-1.576.08-3.148.221a24.621,24.621,0,0,0,3.44-.967,3.281,3.281,0,0,0,1.124-.606,1.253,1.253,0,0,0,.429-1.151,1.277,1.277,0,0,0-.939-.872,3.747,3.747,0,0,0-1.338-.039l-7.806.709" transform="translate(-159.987 -206.237)" fill="none" stroke="#2e2854" stroke-linecap="round" stroke-linejoin="round" stroke-width="1.5"/>
            <path id="Trazado_906197" data-name="Trazado 906197" d="M190.91,214.148a15.23,15.23,0,0,0-6.8,7.089c-2.121,4.13-3.041,9.174-1.158,13.419,1.8,4.057,5.835,6.71,10.007,8.222a30.621,30.621,0,0,0,4.392,1.227h0a53.7,53.7,0,0,1-3.419,17.495c-5.757-.583-11.548-1.217-17.043-3-5.547-1.8-10.841-4.892-14.29-9.6-5.538-7.553-5.425-17.974-2.81-26.967a57.2,57.2,0,0,1,21.791-30.515,55.308,55.308,0,0,1,10.555-5.821v15.742Z" transform="translate(-107.295 -115.207)" fill="#6d7fe3"/>
          </g>
        </g>
        <g id="Grupo_1114212" data-name="Grupo 1114212" transform="translate(64.028 75.226)">
          <g id="Grupo_1114211" data-name="Grupo 1114211" clip-path="url(#clip-path-23)">
            <path id="Trazado_906199" data-name="Trazado 906199" d="M202.559,197.534a67.332,67.332,0,0,0-24.973,33.388c-1.377,4.156-2.329,8.615-1.432,12.9,1.329,6.346,6.585,11.3,12.5,13.96s12.481,3.4,18.927,4.109" transform="translate(-168.614 -192.739)" fill="none" stroke="#9da7e0" stroke-linecap="round" stroke-linejoin="round" stroke-width="1.5"/>
            <path id="Trazado_906200" data-name="Trazado 906200" d="M216.952,219.979a37.4,37.4,0,0,0-15.261,17.591c-2.2,5.221-3.2,11.183-1.444,16.568,1.59,4.88,5.3,8.843,9.575,11.691s9.109,4.706,13.9,6.541" transform="translate(-182.621 -206.091)" fill="none" stroke="#9da7e0" stroke-linecap="round" stroke-linejoin="round" stroke-width="1.5"/>
            <path id="Trazado_906201" data-name="Trazado 906201" d="M212.794,199.541q4.5,12.91,8.3,26.048" transform="translate(-190.619 -193.933)" fill="none" stroke="#9da7e0" stroke-linecap="round" stroke-linejoin="round" stroke-width="1.5"/>
            <path id="Trazado_906202" data-name="Trazado 906202" d="M183.557,227.078a72.982,72.982,0,0,0,17.7,18.136" transform="translate(-173.226 -210.314)" fill="none" stroke="#9da7e0" stroke-linecap="round" stroke-linejoin="round" stroke-width="1.5"/>
            <path id="Trazado_906203" data-name="Trazado 906203" d="M162.532,272.915a92.474,92.474,0,0,0,22.657,4.877" transform="translate(-160.718 -237.583)" fill="none" stroke="#9da7e0" stroke-linecap="round" stroke-linejoin="round" stroke-width="1.5"/>
            <path id="Trazado_906204" data-name="Trazado 906204" d="M157.439,305.171a49.121,49.121,0,0,0,24.41-7.915" transform="translate(-157.688 -252.063)" fill="none" stroke="#9da7e0" stroke-linecap="round" stroke-linejoin="round" stroke-width="1.5"/>
            <path id="Trazado_906205" data-name="Trazado 906205" d="M200.476,309.654a83.339,83.339,0,0,1-16.025,19.627" transform="translate(-173.758 -259.439)" fill="none" stroke="#9da7e0" stroke-linecap="round" stroke-linejoin="round" stroke-width="1.5"/>
            <path id="Trazado_906206" data-name="Trazado 906206" d="M226.48,321.859a93,93,0,0,1-8.066,20.021" transform="translate(-193.962 -266.699)" fill="none" stroke="#9da7e0" stroke-linecap="round" stroke-linejoin="round" stroke-width="1.5"/>
          </g>
        </g>
        <g id="Grupo_1114217" data-name="Grupo 1114217" transform="translate(13.269 4.736)">
          <g id="Grupo_1114216" data-name="Grupo 1114216" clip-path="url(#clip-path-15)">
            <g id="Grupo_1114215" data-name="Grupo 1114215" transform="translate(50.761 113.546)" opacity="0.15" style="mix-blend-mode: multiply;isolation: isolate">
              <g id="Grupo_1114214" data-name="Grupo 1114214">
                <g id="Grupo_1114213" data-name="Grupo 1114213" clip-path="url(#clip-path-25)">
                  <path id="Trazado_906208" data-name="Trazado 906208" d="M177.348,318.114c-13.7-5.5-17.891-20.751-18.966-26.133-.924,7.15.025,14.522,4.223,20.247,3.448,4.7,8.743,7.793,14.29,9.6,5.5,1.786,11.287,2.421,17.043,3q.395-1.048.745-2.112a82.665,82.665,0,0,1-17.335-4.6" transform="translate(-158.059 -291.981)" fill="#2e2854"/>
                </g>
              </g>
            </g>
            <path id="Trazado_906209" data-name="Trazado 906209" d="M193.936,330.368c-5.757-.583-11.548-1.217-17.044-3-5.547-1.8-10.841-4.892-14.29-9.6-3.461-4.721-4.715-10.561-4.53-16.474" transform="translate(-107.295 -183.975)" fill="none" stroke="#2e2854" stroke-linecap="round" stroke-linejoin="round" stroke-width="1.5"/>
            <path id="Trazado_906210" data-name="Trazado 906210" d="M238.373,184.428A78.964,78.964,0,0,1,236.79,214.2a1,1,0,0,1-.632.7,5.976,5.976,0,0,1-1.48.322.991.991,0,0,1-1.034-1.188,100.352,100.352,0,0,0,1.52-28.246,33.294,33.294,0,0,1,3.209-1.363" transform="translate(-152.251 -114.452)" fill="#bf326c"/>
          </g>
        </g>
        <g id="Grupo_1114219" data-name="Grupo 1114219">
          <g id="Grupo_1114218" data-name="Grupo 1114218" clip-path="url(#clip-path)">
            <path id="Trazado_906212" data-name="Trazado 906212" d="M230.537,52.267a1.03,1.03,0,1,0-.069-1.6,1.024,1.024,0,0,0,.069,1.6" transform="translate(-136.895 -29.997)" fill="#fff"/>
            <path id="Trazado_906213" data-name="Trazado 906213" d="M151.5,41.58a1.03,1.03,0,1,0-.069-1.6,1.024,1.024,0,0,0,.069,1.6" transform="translate(-89.874 -23.639)" fill="#fff"/>
            <path id="Trazado_906214" data-name="Trazado 906214" d="M377.16,57.688a1.03,1.03,0,1,0-.069-1.6,1.024,1.024,0,0,0,.069,1.6" transform="translate(-224.12 -33.222)" fill="#fff"/>
            <path id="Trazado_906215" data-name="Trazado 906215" d="M154.9,379.471a1.03,1.03,0,1,0-.069-1.6,1.024,1.024,0,0,0,.069,1.6" transform="translate(-91.898 -224.649)" fill="#fff"/>
            <path id="Trazado_906216" data-name="Trazado 906216" d="M482.544,387.793a1.03,1.03,0,1,0-.069-1.6,1.024,1.024,0,0,0,.069,1.6" transform="translate(-286.813 -229.6)" fill="#f2d3e8"/>
            <path id="Trazado_906217" data-name="Trazado 906217" d="M417.717,11.024a1.03,1.03,0,1,0-.069-1.6,1.023,1.023,0,0,0,.069,1.6" transform="translate(-248.248 -5.461)" fill="#f2d3e8"/>
            <path id="Trazado_906218" data-name="Trazado 906218" d="M29.337,44.091a1.03,1.03,0,1,0-.069-1.6,1.024,1.024,0,0,0,.069,1.6" transform="translate(-17.202 -25.133)" fill="#f2d3e8"/>
            <path id="Trazado_906219" data-name="Trazado 906219" d="M76.5,411.888a1.03,1.03,0,1,0-.069-1.6,1.024,1.024,0,0,0,.069,1.6" transform="translate(-45.261 -243.934)" fill="#f2d3e8"/>
            <path id="Trazado_906220" data-name="Trazado 906220" d="M192.443,395.145a2.245,2.245,0,1,0-1.1-3.2,2.258,2.258,0,0,0,1.1,3.2" transform="translate(-113.659 -232.511)" fill="#fff"/>
            <path id="Trazado_906221" data-name="Trazado 906221" d="M451.281,395.145a2.245,2.245,0,1,0-1.1-3.2,2.258,2.258,0,0,0,1.1,3.2" transform="translate(-267.641 -232.511)" fill="#f2d3e8"/>
            <path id="Trazado_906222" data-name="Trazado 906222" d="M26.962,4.3a2.329,2.329,0,0,0,2.884-1.14A2.329,2.329,0,0,0,28.84.23a2.329,2.329,0,0,0-2.976.871,2.258,2.258,0,0,0,1.1,3.2" transform="translate(-15.215 0)" fill="#f2d3e8"/>
            <path id="Trazado_906223" data-name="Trazado 906223" d="M39.99,383.732a2.245,2.245,0,1,0-1.1-3.2,2.258,2.258,0,0,0,1.1,3.2" transform="translate(-22.965 -225.721)" fill="#f2d3e8"/>
            <path id="Trazado_906224" data-name="Trazado 906224" d="M462.33,68.829a2.245,2.245,0,1,0-1.1-3.2,2.258,2.258,0,0,0,1.1,3.2" transform="translate(-274.214 -38.387)" fill="#f2d3e8"/>
            <circle id="Elipse_12800" data-name="Elipse 12800" cx="1.099" cy="1.099" r="1.099" transform="matrix(1, -0.011, 0.011, 1, 193.654, 171.651)" fill="none" stroke="#2e2854" stroke-linecap="round" stroke-linejoin="round" stroke-width="1.5"/>
            <circle id="Elipse_12801" data-name="Elipse 12801" cx="1.099" cy="1.099" r="1.099" transform="translate(62.505 174.607)" fill="none" stroke="#2e2854" stroke-linecap="round" stroke-linejoin="round" stroke-width="1.5"/>
            <circle id="Elipse_12802" data-name="Elipse 12802" cx="1.099" cy="1.099" r="1.099" transform="matrix(0.987, -0.16, 0.16, 0.987, 192.789, 10.804)" fill="none" stroke="#2e2854" stroke-linecap="round" stroke-linejoin="round" stroke-width="1.5"/>
            <circle id="Elipse_12803" data-name="Elipse 12803" cx="1.099" cy="1.099" r="1.099" transform="translate(21.986 10.955) rotate(-15.804)" fill="none" stroke="#2e2854" stroke-linecap="round" stroke-linejoin="round" stroke-width="1.5"/>
            <circle id="Elipse_12804" data-name="Elipse 12804" cx="1.099" cy="1.099" r="1.099" transform="matrix(0.987, -0.16, 0.16, 0.987, 105.865, 64.634)" fill="none" stroke="#2e2854" stroke-linecap="round" stroke-linejoin="round" stroke-width="1.5"/>
            <circle id="Elipse_12805" data-name="Elipse 12805" cx="1.099" cy="1.099" r="1.099" transform="translate(44.734 1.409) rotate(-13.283)" fill="none" stroke="#2e2854" stroke-linecap="round" stroke-linejoin="round" stroke-width="1.5"/>
          </g>
        </g>
      </g>
    </g>
  </g>
</svg>
