<svg xmlns="http://www.w3.org/2000/svg" xmlns:xlink="http://www.w3.org/1999/xlink" width="93.722" height="93.723" viewBox="0 0 93.722 93.723">
  <defs>
    <filter id="Trazado_874925" x="0" y="0" width="93.722" height="93.723" filterUnits="userSpaceOnUse">
      <feOffset dy="3" input="SourceAlpha"/>
      <feGaussianBlur stdDeviation="3" result="blur"/>
      <feFlood flood-opacity="0.161"/>
      <feComposite operator="in" in2="blur"/>
      <feComposite in="SourceGraphic"/>
    </filter>
  </defs>
  <g id="Grupo_1114777" data-name="Grupo 1114777" transform="translate(-1080.051 -13184)">
    <g id="Grupo_1114791" data-name="Grupo 1114791">
      <g id="Grupo_1112926" data-name="Grupo 1112926" transform="translate(1089.051 13190)">
        <g id="Grupo_1109835" data-name="Grupo 1109835" transform="translate(0 0)">
          <g id="Grupo_1107913" data-name="Grupo 1107913" transform="translate(0 0)">
            <g transform="matrix(1, 0, 0, 1, -9, -6)" filter="url(#Trazado_874925)">
              <g id="Trazado_874925-2" data-name="Trazado 874925" transform="translate(9 6)" fill="#5ab4f9" opacity="0.859">
                <path d="M 37.86101913452148 74.2225341796875 C 32.95165252685547 74.2225341796875 28.1899299621582 73.26136779785156 23.7081298828125 71.36572265625 C 19.37846374511719 69.534423828125 15.48970794677734 66.91244506835938 12.1498966217041 63.57263565063477 C 8.810074806213379 60.23281097412109 6.188107967376709 56.34405517578125 4.356808185577393 52.01438903808594 C 2.461163520812988 47.53257751464844 1.499996900558472 42.77085494995117 1.499996900558472 37.86148834228516 C 1.499996900558472 32.95167922973633 2.461163520812988 28.18995666503906 4.356808185577393 23.70814514160156 C 6.188107967376709 19.37847900390625 8.810074806213379 15.48972225189209 12.1498966217041 12.14990043640137 C 15.48970794677734 8.810089111328125 19.37846374511719 6.188111305236816 23.7081298828125 4.3568115234375 C 28.1899299621582 2.461167097091675 32.95165252685547 1.500000476837158 37.86101913452148 1.500000476837158 C 42.7703857421875 1.500000476837158 47.53210830688477 2.461167097091675 52.01390838623047 4.3568115234375 C 56.34357452392578 6.188111305236816 60.23233032226562 8.810089111328125 63.57213973999023 12.14990043640137 C 66.91196441650391 15.48972225189209 69.53392791748047 19.37847900390625 71.36522674560547 23.70814514160156 C 73.26087188720703 28.18995666503906 74.22203826904297 32.95167922973633 74.22203826904297 37.86104583740234 C 74.22203826904297 42.77085494995117 73.26087188720703 47.53257751464844 71.36522674560547 52.01438903808594 C 69.53392791748047 56.34405517578125 66.91196441650391 60.23281097412109 63.57213973999023 63.57263565063477 C 60.23233032226562 66.91244506835938 56.34357452392578 69.534423828125 52.01390838623047 71.36572265625 C 47.53210830688477 73.26136779785156 42.7703857421875 74.2225341796875 37.86101913452148 74.2225341796875 Z" stroke="none"/>
                <path d="M 37.86101913452148 3.000007629394531 C 33.15349578857422 3.000007629394531 28.5883674621582 3.921302795410156 24.29245758056641 5.738327026367188 C 20.14159393310547 7.493995666503906 16.41309356689453 10.00801849365234 13.21055603027344 13.21056747436523 C 10.00800323486328 16.41310501098633 7.493980407714844 20.14160537719727 5.738319396972656 24.29246520996094 C 3.921295166015625 28.58837890625 2.999992370605469 33.15350341796875 2.999992370605469 37.86148071289062 C 2.999992370605469 42.56901550292969 3.921295166015625 47.13414001464844 5.738319396972656 51.4300537109375 C 7.493980407714844 55.58092880249023 10.00800323486328 59.30941772460938 13.21055603027344 62.51196670532227 C 16.41309356689453 65.71451568603516 20.14159393310547 68.22854614257812 24.29245758056641 69.98420715332031 C 28.5883674621582 71.80123138427734 33.15349578857422 72.72252655029297 37.86101913452148 72.72252655029297 C 42.56854248046875 72.72252655029297 47.1336669921875 71.80123138427734 51.42958068847656 69.98420715332031 C 55.5804443359375 68.22854614257812 59.30892944335938 65.71451568603516 62.51148223876953 62.51196670532227 C 65.71401977539062 59.30941772460938 68.22804260253906 55.58092880249023 69.98370361328125 51.4300537109375 C 71.80073547363281 47.13414001464844 72.72203063964844 42.56901550292969 72.72203063964844 37.86104202270508 C 72.72203063964844 33.15350341796875 71.80073547363281 28.58837890625 69.98370361328125 24.29246520996094 C 68.22804260253906 20.14160537719727 65.71401977539062 16.41310501098633 62.51148223876953 13.21056747436523 C 59.30892944335938 10.00801849365234 55.5804443359375 7.493995666503906 51.42958068847656 5.738327026367188 C 47.1336669921875 3.921302795410156 42.56854248046875 3.000007629394531 37.86101913452148 3.000007629394531 M 37.86101913452148 7.62939453125e-06 C 58.77108001708984 7.62939453125e-06 75.72203063964844 16.95096588134766 75.72203063964844 37.86104202270508 L 75.72203063964844 37.86148071289062 C 75.72203063964844 58.77156829833984 58.77108001708984 75.72252655029297 37.86101913452148 75.72252655029297 C 16.95095825195312 75.72252655029297 -7.62939453125e-06 58.77156829833984 -7.62939453125e-06 37.86148071289062 L -7.62939453125e-06 37.86104202270508 C -7.62939453125e-06 16.95096588134766 16.95095825195312 7.62939453125e-06 37.86101913452148 7.62939453125e-06 Z" stroke="none" fill="#fff"/>
              </g>
            </g>
            <g id="Trazado_874923" data-name="Trazado 874923" transform="translate(0 0)" fill="none">
              <path d="M37.861,0A37.861,37.861,0,0,1,75.722,37.861h0A37.861,37.861,0,1,1,0,37.861H0A37.861,37.861,0,0,1,37.861,0Z" stroke="none"/>
              <path d="M 37.86101913452148 3.000007629394531 C 33.15349578857422 3.000007629394531 28.5883674621582 3.921302795410156 24.29245758056641 5.738327026367188 C 20.14159393310547 7.493995666503906 16.41309356689453 10.00801849365234 13.21055603027344 13.21056747436523 C 10.00800323486328 16.41310501098633 7.493980407714844 20.14160537719727 5.738319396972656 24.29246520996094 C 3.921295166015625 28.58837890625 2.999992370605469 33.15350341796875 2.999992370605469 37.86148071289062 C 2.999992370605469 42.56901550292969 3.921295166015625 47.13414001464844 5.738319396972656 51.4300537109375 C 7.493980407714844 55.58092880249023 10.00800323486328 59.30941772460938 13.21055603027344 62.51196670532227 C 16.41309356689453 65.71451568603516 20.14159393310547 68.22854614257812 24.29245758056641 69.98420715332031 C 28.5883674621582 71.80123138427734 33.15349578857422 72.72252655029297 37.86101913452148 72.72252655029297 C 42.56854248046875 72.72252655029297 47.1336669921875 71.80123138427734 51.42958068847656 69.98420715332031 C 55.5804443359375 68.22854614257812 59.30892944335938 65.71451568603516 62.51148223876953 62.51196670532227 C 65.71401977539062 59.30941772460938 68.22804260253906 55.58092880249023 69.98370361328125 51.4300537109375 C 71.80073547363281 47.13414001464844 72.72203063964844 42.56901550292969 72.72203063964844 37.86104202270508 C 72.72203063964844 33.15350341796875 71.80073547363281 28.58837890625 69.98370361328125 24.29246520996094 C 68.22804260253906 20.14160537719727 65.71401977539062 16.41310501098633 62.51148223876953 13.21056747436523 C 59.30892944335938 10.00801849365234 55.5804443359375 7.493995666503906 51.42958068847656 5.738327026367188 C 47.1336669921875 3.921302795410156 42.56854248046875 3.000007629394531 37.86101913452148 3.000007629394531 M 37.86101913452148 7.62939453125e-06 C 58.77108001708984 7.62939453125e-06 75.72203063964844 16.95096588134766 75.72203063964844 37.86104202270508 L 75.72203063964844 37.86148071289062 C 75.72203063964844 58.77156829833984 58.77108001708984 75.72252655029297 37.86101913452148 75.72252655029297 C 16.95095825195312 75.72252655029297 -7.62939453125e-06 58.77156829833984 -7.62939453125e-06 37.86148071289062 L -7.62939453125e-06 37.86104202270508 C -7.62939453125e-06 16.95096588134766 16.95095825195312 7.62939453125e-06 37.86101913452148 7.62939453125e-06 Z" stroke="none" fill="#fff"/>
            </g>
          </g>
        </g>
      </g>
      <g id="Grupo_1114790" data-name="Grupo 1114790" transform="translate(2917.351 1801.35)">
        <g id="Layer_x0020_1" transform="translate(-1815.949 11410)">
          <g id="_367500072">
            <g id="Grupo_1114790-2" data-name="Grupo 1114790">
              <path id="Trazado_907855" data-name="Trazado 907855" d="M87.4,62.912v9.053a1.339,1.339,0,0,1-1.337,1.327H42.337A1.333,1.333,0,0,1,41,71.965V42.337A1.335,1.335,0,0,1,42.337,41H86.058A1.335,1.335,0,0,1,87.4,42.337Z" transform="translate(-40.578 -40.578)" fill="#eaeaea"/>
              <path id="Trazado_907855_-_Contorno" data-name="Trazado 907855 - Contorno" d="M86.058,73.642H42.337a1.684,1.684,0,0,1-1.687-1.677V42.337a1.689,1.689,0,0,1,1.687-1.687H86.058a1.689,1.689,0,0,1,1.687,1.687V71.965A1.684,1.684,0,0,1,86.058,73.642ZM42.337,41.35a.988.988,0,0,0-.987.987V71.965a.983.983,0,0,0,.987.977H86.058a.983.983,0,0,0,.987-.977V42.337a.988.988,0,0,0-.987-.987Z" transform="translate(-40.578 -40.578)"/>
              <path id="Trazado_907856" data-name="Trazado 907856" d="M47.239,22.334v9.053a1.756,1.756,0,0,1-1.759,1.749H1.759a1.758,1.758,0,0,1-1.245-.514C.5,32.611.494,32.6.494,32.59A1.7,1.7,0,0,1,0,31.387V1.759A1.758,1.758,0,0,1,.514.514C.525.5.535.494.545.494A1.71,1.71,0,0,1,1.759,0H45.48a1.758,1.758,0,0,1,1.245.514c.01.01.01.021.021.031a1.71,1.71,0,0,1,.494,1.214ZM46.4,31.387V1.759a.913.913,0,0,0-.257-.628l-.01-.021A.909.909,0,0,0,45.48.844H1.759a.913.913,0,0,0-.628.257l-.021.01a.909.909,0,0,0-.267.648V31.387A.908.908,0,0,0,1.1,32l.01.021a.909.909,0,0,0,.648.267H45.48a.913.913,0,0,0,.916-.905Z" fill="#080a0d"/>
              <path id="Trazado_907856_-_Contorno" data-name="Trazado 907856 - Contorno" d="M45.48,33.485H1.759a2.1,2.1,0,0,1-1.492-.617A.477.477,0,0,1,.21,32.8a2.067,2.067,0,0,1-.56-1.414V1.759A2.1,2.1,0,0,1,.267.267.477.477,0,0,1,.335.21,2.051,2.051,0,0,1,1.759-.35H45.48a2.1,2.1,0,0,1,1.492.617.39.39,0,0,1,.049.06,2.05,2.05,0,0,1,.568,1.432V31.387a2.106,2.106,0,0,1-2.109,2.1ZM.844,32.449a1.4,1.4,0,0,0,.915.336H45.48a1.406,1.406,0,0,0,1.409-1.4V1.759A1.354,1.354,0,0,0,46.5.793a.39.39,0,0,1-.047-.056A1.4,1.4,0,0,0,45.48.35H1.759A1.354,1.354,0,0,0,.793.741l-.1.1h0a1.4,1.4,0,0,0-.336.915V31.387a1.359,1.359,0,0,0,.391.956l.1.1Zm44.636.193H1.759a1.258,1.258,0,0,1-.9-.37l-.04-.04L.809,32.2a1.248,1.248,0,0,1-.315-.816V1.759a1.258,1.258,0,0,1,.37-.9L.9.823.933.809A1.263,1.263,0,0,1,1.759.494H45.48a1.258,1.258,0,0,1,.9.37l.04.04.015.029a1.263,1.263,0,0,1,.315.826V31.387a1.263,1.263,0,0,1-1.266,1.255ZM1.4,31.811a.563.563,0,0,0,.364.131H45.48a.562.562,0,0,0,.4-.165.55.55,0,0,0,.165-.39V1.759a.568.568,0,0,0-.163-.388l-.035-.037,0-.009a.563.563,0,0,0-.364-.131H1.759a.568.568,0,0,0-.388.163l-.037.035-.009,0a.563.563,0,0,0-.131.364V31.387a.56.56,0,0,0,.163.378l.035.037Z"/>
              <path id="Trazado_907857" data-name="Trazado 907857" d="M.422,2424.854a.427.427,0,0,1,0-.854h46.4a.427.427,0,0,1,0,.854Z" transform="translate(0 -2399.063)" fill="#080a0d"/>
              <path id="Trazado_907857_-_Contorno" data-name="Trazado 907857 - Contorno" d="M46.818,2425.2H.422a.773.773,0,0,1-.772-.772.778.778,0,0,1,.772-.782h46.4a.777.777,0,0,1,0,1.554Zm-46.4-.854a.077.077,0,0,0-.072.082.074.074,0,0,0,.072.072h46.4a.083.083,0,0,0,.072-.072.084.084,0,0,0-.072-.082Z" transform="translate(0 -2399.063)"/>
              <path id="Trazado_907858" data-name="Trazado 907858" d="M2168.368,2667a1.362,1.362,0,0,1,.967.4,1.346,1.346,0,0,1,.411.967,1.375,1.375,0,0,1-2.345.977v-.01a1.359,1.359,0,0,1-.4-.967,1.37,1.37,0,0,1,1.368-1.368Zm.37,1a.548.548,0,0,0-.741,0,.522.522,0,0,0,0,.741.506.506,0,0,0,.37.154.529.529,0,0,0,.37-.154.511.511,0,0,0,.155-.37A.549.549,0,0,0,2168.739,2668Z" transform="translate(-2144.707 -2639.564)" fill="#080a0d"/>
              <path id="Trazado_907858_-_Contorno" data-name="Trazado 907858 - Contorno" d="M2168.368,2666.65a1.723,1.723,0,0,1,0,3.447,1.729,1.729,0,0,1-1.215-.5l-.1-.1v-.019a1.7,1.7,0,0,1-.4-1.1,1.72,1.72,0,0,1,1.718-1.718Zm0,2.747a1.037,1.037,0,0,0,1.028-1.028,1,1,0,0,0-.3-.715l0,0a1.012,1.012,0,0,0-.72-.3,1.019,1.019,0,0,0-1.018,1.018,1.011,1.011,0,0,0,.3.719l.091.091A1.026,1.026,0,0,0,2168.368,2669.4Zm0-1.893a.864.864,0,0,1,.618.247l.012.013a.9.9,0,0,1,.245.6.858.858,0,0,1-.257.618.88.88,0,0,1-.618.257.858.858,0,0,1-.618-.256.872.872,0,0,1,0-1.236A.864.864,0,0,1,2168.368,2667.5Zm.118.737a.183.183,0,0,0-.118-.037.176.176,0,0,0-.123.042.172.172,0,0,0,0,.246.156.156,0,0,0,.123.052.179.179,0,0,0,.123-.052.162.162,0,0,0,.052-.123A.188.188,0,0,0,2168.486,2668.24Z" transform="translate(-2144.707 -2639.564)"/>
              <path id="Trazado_907859" data-name="Trazado 907859" d="M330.657,999.422a.427.427,0,0,1,.854,0v1.451l1.245-.72a.411.411,0,0,1,.576.154.415.415,0,0,1-.154.576l-1.245.72,1.255.72a.429.429,0,0,1-.432.741l-1.245-.73v1.451a.427.427,0,0,1-.854,0v-1.451l-1.255.73a.424.424,0,0,1-.412-.741l1.245-.72-1.255-.72a.433.433,0,0,1-.154-.576.425.425,0,0,1,.586-.154l1.245.72Z" transform="translate(-325.39 -988.723)" fill="#080a0d"/>
              <path id="Trazado_907859_-_Contorno" data-name="Trazado 907859 - Contorno" d="M331.079,998.65a.778.778,0,0,1,.782.772v.844l.717-.415a.761.761,0,0,1,1.055.278.739.739,0,0,1,.089.561.794.794,0,0,1-.364.493l0,0-.719.416.741.425a.779.779,0,0,1-.41,1.44.786.786,0,0,1-.377-.1l-.008,0-.718-.421v.839a.777.777,0,0,1-1.554,0v-.842l-.729.424a.751.751,0,0,1-.376.1.8.8,0,0,1-.676-.388l0,0a.78.78,0,0,1,.287-1.052l0,0,.719-.416-.741-.425a.787.787,0,0,1-.27-1.047l0,0a.789.789,0,0,1,.671-.385.77.77,0,0,1,.393.109l.717.415v-.844A.773.773,0,0,1,331.079,998.65Zm.082,2.829v-2.057a.077.077,0,0,0-.082-.072.074.074,0,0,0-.072.072v2.057l-1.775-1.027a.075.075,0,0,0-.1.031.087.087,0,0,0,.035.1l1.773,1.018-1.767,1.022a.082.082,0,0,0-.041.1.092.092,0,0,0,.074.045.048.048,0,0,0,.025-.006l1.78-1.036v2.059a.074.074,0,0,0,.072.072.077.077,0,0,0,.082-.072v-2.062l1.766,1.036a.082.082,0,0,0,.038.009.075.075,0,0,0,.064-.033l0,0a.08.08,0,0,0-.027-.108l-1.773-1.017,1.767-1.023a.089.089,0,0,0,.042-.054.041.041,0,0,0,0-.034l-.011-.018a.061.061,0,0,0-.054-.034.068.068,0,0,0-.036.011l0,0Z" transform="translate(-325.39 -988.723)"/>
              <path id="Trazado_907860" data-name="Trazado 907860" d="M966.443,999.422a.422.422,0,0,1,.844,0v1.451l1.255-.72a.411.411,0,0,1,.576.154.424.424,0,0,1-.154.576l-1.255.72,1.255.72a.426.426,0,0,1-.422.741l-1.255-.73v1.451a.422.422,0,0,1-.844,0v-1.451l-1.255.73a.426.426,0,0,1-.422-.741l1.255-.72-1.255-.72a.424.424,0,0,1-.154-.576.411.411,0,0,1,.576-.154l1.255.72Z" transform="translate(-954.633 -988.723)" fill="#080a0d"/>
              <path id="Trazado_907860_-_Contorno" data-name="Trazado 907860 - Contorno" d="M966.864,998.65a.764.764,0,0,1,.772.772v.846l.728-.418a.77.77,0,0,1,.392-.108.762.762,0,0,1,.665.393.778.778,0,0,1-.279,1.048l-.006,0-.726.417.732.42a.785.785,0,0,1,.281,1.055l0,.007a.779.779,0,0,1-.675.383.758.758,0,0,1-.38-.1l-.73-.425v.842a.772.772,0,1,1-1.543,0v-.842l-.736.428a.781.781,0,0,1-.375.1.777.777,0,0,1-.4-1.444l.006,0,.726-.417-.732-.42a.778.778,0,0,1-.279-1.048.761.761,0,0,1,1.057-.285l.729.418v-.846A.764.764,0,0,1,966.864,998.65Zm.072,2.827v-2.055a.072.072,0,0,0-.144,0v2.055l-1.785-1.024a.069.069,0,0,0-.036-.011.061.061,0,0,0-.054.034l0,.007a.074.074,0,0,0,.029.1l1.78,1.022-1.78,1.021a.074.074,0,0,0-.029.1l0,.007a.07.07,0,0,0,.063.037.078.078,0,0,0,.036-.009l1.776-1.034v2.059a.072.072,0,0,0,.144,0v-2.059l1.781,1.037a.059.059,0,0,0,.028.006.086.086,0,0,0,.067-.031.084.084,0,0,0-.028-.112L967,1001.6l1.78-1.021a.074.074,0,0,0,.03-.1l0-.007a.061.061,0,0,0-.054-.034.069.069,0,0,0-.036.011l-.006,0Z" transform="translate(-954.633 -988.723)"/>
              <path id="Trazado_907861" data-name="Trazado 907861" d="M1601.657,999.422a.427.427,0,0,1,.854,0v1.451l1.255-.72a.415.415,0,0,1,.576.154.428.428,0,0,1-.165.576l-1.245.72,1.255.72a.429.429,0,0,1-.432.741l-1.245-.73v1.451a.427.427,0,0,1-.854,0v-1.451l-1.255.73a.424.424,0,0,1-.411-.741l1.245-.72-1.255-.72a.433.433,0,0,1-.154-.576.425.425,0,0,1,.586-.154l1.245.72Z" transform="translate(-1583.315 -988.723)" fill="#080a0d"/>
              <path id="Trazado_907861_-_Contorno" data-name="Trazado 907861 - Contorno" d="M1602.079,998.65a.778.778,0,0,1,.782.772v.846l.725-.416a.74.74,0,0,1,.388-.11.786.786,0,0,1,.667.385l0,0a.781.781,0,0,1-.288,1.051l-.724.419.741.425a.794.794,0,0,1,.274,1.051l-.011.018a.8.8,0,0,1-.673.371.786.786,0,0,1-.378-.1l-.008,0-.718-.421v.839a.777.777,0,0,1-1.554,0v-.842l-.729.424a.751.751,0,0,1-.376.1.8.8,0,0,1-.676-.388l0,0a.78.78,0,0,1,.287-1.052l.724-.419-.741-.426a.787.787,0,0,1-.27-1.047l0,0a.788.788,0,0,1,.67-.385.77.77,0,0,1,.393.109l.718.415v-.844A.772.772,0,0,1,1602.079,998.65Zm.082,2.827v-2.055a.077.077,0,0,0-.082-.072.074.074,0,0,0-.072.072v2.057l-1.775-1.027a.075.075,0,0,0-.1.031.087.087,0,0,0,.035.1l1.773,1.017-1.767,1.022a.082.082,0,0,0-.041.1.092.092,0,0,0,.074.045.048.048,0,0,0,.025-.006l1.78-1.036v2.059a.074.074,0,0,0,.072.072.077.077,0,0,0,.082-.072v-2.062l1.766,1.036a.083.083,0,0,0,.038.009.1.1,0,0,0,.075-.036.1.1,0,0,0-.035-.11l-1.773-1.017,1.767-1.023a.082.082,0,0,0,.041-.1.083.083,0,0,0-.066-.042.038.038,0,0,0-.022.006l-.013.008Z" transform="translate(-1583.315 -988.723)"/>
              <path id="Trazado_907862" data-name="Trazado 907862" d="M2237.442,999.422a.422.422,0,0,1,.844,0v1.451l1.255-.72a.411.411,0,0,1,.576.154.424.424,0,0,1-.154.576l-1.255.72,1.255.72a.434.434,0,0,1,.154.586.428.428,0,0,1-.576.154l-1.255-.73v1.451a.422.422,0,0,1-.844,0v-1.451l-1.255.73a.426.426,0,0,1-.422-.741l1.255-.72-1.255-.72a.424.424,0,0,1-.154-.576.413.413,0,0,1,.576-.154l1.255.72Z" transform="translate(-2212.558 -988.723)" fill="#080a0d"/>
              <path id="Trazado_907862_-_Contorno" data-name="Trazado 907862 - Contorno" d="M2237.864,998.65a.764.764,0,0,1,.772.772v.846l.728-.418a.761.761,0,0,1,1.057.284.779.779,0,0,1-.279,1.048l-.006,0-.726.417.732.42a.785.785,0,0,1,.281,1.055l0,.007a.775.775,0,0,1-.67.383.786.786,0,0,1-.377-.1l-.007,0-.729-.424v.842a.772.772,0,0,1-1.544,0v-.842l-.736.428a.782.782,0,0,1-.375.1.777.777,0,0,1-.4-1.444l.006,0,.726-.417-.732-.42a.778.778,0,0,1-.279-1.048.766.766,0,0,1,.67-.393.743.743,0,0,1,.391.11l.725.416v-.846A.764.764,0,0,1,2237.864,998.65Zm.072,2.827v-2.055a.072.072,0,0,0-.144,0v2.055l-1.792-1.029a.043.043,0,0,0-.024-.007.068.068,0,0,0-.059.034l0,.006a.074.074,0,0,0,.029.1l1.781,1.022-1.78,1.021a.074.074,0,0,0-.03.1l0,.006a.07.07,0,0,0,.063.037.08.08,0,0,0,.036-.009l1.776-1.034v2.059a.068.068,0,0,0,.072.072.067.067,0,0,0,.072-.072v-2.059l1.776,1.034a.082.082,0,0,0,.038.009.076.076,0,0,0,.063-.03.084.084,0,0,0-.028-.113L2238,1001.6l1.78-1.021a.074.074,0,0,0,.03-.1l0-.007a.06.06,0,0,0-.053-.034.07.07,0,0,0-.036.011l-.006,0Z" transform="translate(-2212.558 -988.723)"/>
              <path id="Trazado_907863" data-name="Trazado 907863" d="M3028.9,467.739a1.741,1.741,0,0,0-1.728-1.739h-19.433a1.743,1.743,0,0,0-1.739,1.739v12.7a1.743,1.743,0,0,0,1.739,1.739h19.433a1.741,1.741,0,0,0,1.728-1.739Z" transform="translate(-2975.076 -461.206)" fill="#90ebbf"/>
              <path id="Trazado_907863_-_Contorno" data-name="Trazado 907863 - Contorno" d="M3007.739,465.65h19.433a2.086,2.086,0,0,1,2.078,2.089v12.7a2.086,2.086,0,0,1-2.078,2.089h-19.433a2.091,2.091,0,0,1-2.089-2.089v-12.7A2.091,2.091,0,0,1,3007.739,465.65Zm19.433,16.182a1.385,1.385,0,0,0,1.378-1.389v-12.7a1.385,1.385,0,0,0-1.378-1.389h-19.433a1.39,1.39,0,0,0-1.389,1.389v12.7a1.39,1.39,0,0,0,1.389,1.389Z" transform="translate(-2975.076 -461.206)"/>
              <path id="Trazado_907864" data-name="Trazado 907864" d="M2987.9,426.171a1.3,1.3,0,0,0-1.307-1.317H2967.16a1.306,1.306,0,0,0-.926.381,1.321,1.321,0,0,0-.391.936v12.7a1.315,1.315,0,0,0,.391.926l.021.021a1.284,1.284,0,0,0,.905.36h19.433a1.3,1.3,0,0,0,1.307-1.306Zm.216-1.533a2.17,2.17,0,0,1,.638,1.533v12.7a2.178,2.178,0,0,1-2.16,2.16H2967.16a2.141,2.141,0,0,1-1.5-.617c-.01,0-.021-.01-.031-.021a2.156,2.156,0,0,1-.627-1.523v-12.7a2.162,2.162,0,0,1,.627-1.533h.01a2.146,2.146,0,0,1,1.522-.638h19.433A2.164,2.164,0,0,1,2988.115,424.638Z" transform="translate(-2934.498 -419.638)" fill="#080a0d"/>
              <path id="Trazado_907864_-_Contorno" data-name="Trazado 907864 - Contorno" d="M2967.16,423.65h19.433a2.528,2.528,0,0,1,2.51,2.521v12.7a2.528,2.528,0,0,1-2.51,2.51H2967.16a2.491,2.491,0,0,1-1.71-.682.467.467,0,0,1-.067-.055,2.523,2.523,0,0,1-.733-1.773v-12.7a2.5,2.5,0,0,1,.73-1.78l.1-.1h.017A2.483,2.483,0,0,1,2967.16,423.65Zm19.433,17.036a1.828,1.828,0,0,0,1.81-1.81v-12.7a1.828,1.828,0,0,0-1.81-1.821H2967.16a1.794,1.794,0,0,0-1.275.535l-.105.1a1.808,1.808,0,0,0-.43,1.183v12.7a1.819,1.819,0,0,0,.448,1.193h0l.1.1a1.8,1.8,0,0,0,1.258.518ZM2967.16,424.5h19.433a1.65,1.65,0,0,1,1.657,1.667v12.7a1.65,1.65,0,0,1-1.657,1.656H2967.16a1.635,1.635,0,0,1-1.153-.463l-.021-.021a1.675,1.675,0,0,1-.493-1.173v-12.7a1.665,1.665,0,0,1,.493-1.184A1.647,1.647,0,0,1,2967.16,424.5Zm19.433,15.328a.95.95,0,0,0,.957-.956v-12.7a.964.964,0,0,0-.278-.689.951.951,0,0,0-.678-.278H2967.16a.951.951,0,0,0-.678.278.969.969,0,0,0-.288.689v12.7a.97.97,0,0,0,.288.678l.021.021a.931.931,0,0,0,.657.257Z" transform="translate(-2934.498 -419.638)"/>
            </g>
            <path id="Trazado_907865" data-name="Trazado 907865" d="M3006,733.8V731h22.9v2.8Z" transform="translate(-2975.076 -723.48)" fill="#9ea6a9" fill-rule="evenodd"/>
            <path id="Trazado_907865_-_Contorno" data-name="Trazado 907865 - Contorno" d="M3029.25,734.148h-23.6v-3.5h23.6Zm-22.9-.7h22.2v-2.1h-22.2Z" transform="translate(-2975.076 -723.48)"/>
            <path id="Trazado_907866" data-name="Trazado 907866" d="M2965,693.22v-2.8a.424.424,0,0,1,.422-.422h22.9a.433.433,0,0,1,.432.422v2.8a.433.433,0,0,1-.432.422h-22.9A.424.424,0,0,1,2965,693.22Zm.844-2.376v1.944H2987.9v-1.944Z" transform="translate(-2934.498 -682.902)" fill="#080a0d"/>
            <path id="Trazado_907866_-_Contorno" data-name="Trazado 907866 - Contorno" d="M2988.321,693.992h-22.9a.773.773,0,0,1-.772-.772v-2.8a.773.773,0,0,1,.772-.772h22.9a.787.787,0,0,1,.782.772v2.8A.787.787,0,0,1,2988.321,693.992Zm-22.9-3.642a.074.074,0,0,0-.072.072v2.8a.074.074,0,0,0,.072.072h22.9a.083.083,0,0,0,.082-.072v-2.8a.084.084,0,0,0-.082-.072Zm22.828,2.788h-22.756v-2.644h22.756Zm-22.056-.7h21.356v-1.244h-21.356Z" transform="translate(-2934.498 -682.902)"/>
            <path id="Trazado_907867" data-name="Trazado 907867" d="M4677.422,1432h3.168a.424.424,0,0,1,.422.422v3.138a.433.433,0,0,1-.422.432h-3.168a.433.433,0,0,1-.422-.432v-3.138A.424.424,0,0,1,4677.422,1432Zm2.746.844h-2.314v2.294h2.314Z" transform="translate(-4628.886 -1417.268)" fill="#080a0d"/>
            <path id="Trazado_907867_-_Contorno" data-name="Trazado 907867 - Contorno" d="M4677.422,1431.65h3.168a.773.773,0,0,1,.772.772v3.138a.778.778,0,0,1-.772.782h-3.168a.778.778,0,0,1-.772-.782v-3.138A.773.773,0,0,1,4677.422,1431.65Zm3.168,3.992a.084.084,0,0,0,.072-.082v-3.138a.074.074,0,0,0-.072-.072h-3.168a.074.074,0,0,0-.072.072v3.138a.084.084,0,0,0,.072.082Zm-3.086-3.148h3.015v2.994H4677.5Zm2.314.7H4678.2v1.594h1.614Z" transform="translate(-4628.886 -1417.268)"/>
            <path id="Trazado_907868" data-name="Trazado 907868" d="M3192.421,1300.854a.427.427,0,0,1,0-.854h10.74a.427.427,0,0,1,0,.854Zm0,4.485a.427.427,0,0,1,0-.854h10.74a.427.427,0,0,1,0,.854Zm0-2.243a.427.427,0,0,1,0-.854h10.74a.427.427,0,0,1,0,.854Z" transform="translate(-3159.163 -1286.626)" fill="#080a0d"/>
            <path id="Trazado_907868_-_Contorno" data-name="Trazado 907868 - Contorno" d="M3192.421,1299.65h10.74a.777.777,0,0,1,0,1.554h-10.74a.777.777,0,0,1,0-1.554Zm10.74.854a.074.074,0,0,0,.072-.072.077.077,0,0,0-.072-.082h-10.74a.077.077,0,0,0-.071.082.073.073,0,0,0,.071.072Zm-10.74,1.389h10.74a.777.777,0,0,1,0,1.554h-10.74a.777.777,0,0,1,0-1.554Zm10.74.854a.077.077,0,0,0,.072-.082.074.074,0,0,0-.072-.072h-10.74a.074.074,0,0,0-.071.072.077.077,0,0,0,.071.082Zm-10.74,1.389h10.74a.777.777,0,0,1,0,1.554h-10.74a.777.777,0,0,1,0-1.554Zm10.74.854a.077.077,0,0,0,.072-.082.074.074,0,0,0-.072-.072h-10.74a.073.073,0,0,0-.071.072.077.077,0,0,0,.071.082Z" transform="translate(-3159.163 -1286.626)"/>
            <path id="Trazado_907869" data-name="Trazado 907869" d="M1819,3180h9.8v4.866H1819Z" transform="translate(-1800.287 -3147.286)" fill="#eaeaea" fill-rule="evenodd"/>
            <path id="Trazado_907869_-_Contorno" data-name="Trazado 907869 - Contorno" d="M1818.65,3179.65h10.5v5.566h-10.5Zm9.8.7h-9.1v4.166h9.1Z" transform="translate(-1800.287 -3147.286)"/>
            <path id="Trazado_907870" data-name="Trazado 907870" d="M1778.422,3139h9.8a.426.426,0,0,1,.432.422v4.866a.435.435,0,0,1-.432.432h-9.8a.432.432,0,0,1-.422-.432v-4.866A.423.423,0,0,1,1778.422,3139Zm9.382.843h-8.95v4.022h8.95Z" transform="translate(-1759.709 -3106.708)" fill="#080a0d"/>
            <path id="Trazado_907870_-_Contorno" data-name="Trazado 907870 - Contorno" d="M1778.422,3138.65h9.8a.778.778,0,0,1,.782.772v4.866a.783.783,0,0,1-.782.782h-9.8a.778.778,0,0,1-.772-.782v-4.866A.772.772,0,0,1,1778.422,3138.65Zm9.8,5.719a.084.084,0,0,0,.082-.082v-4.866a.077.077,0,0,0-.082-.072h-9.8a.073.073,0,0,0-.072.072v4.866a.084.084,0,0,0,.072.082Zm-9.722-4.876h9.65v4.723h-9.65Zm8.95.7h-8.25v3.322h8.25Z" transform="translate(-1759.709 -3106.708)"/>
            <path id="Trazado_907871" data-name="Trazado 907871" d="M1445.977,3653h15.554a.983.983,0,0,1,.977.977v.988H1445v-.988A.983.983,0,0,1,1445.977,3653Z" transform="translate(-1430.135 -3615.42)" fill="#eaeaea" fill-rule="evenodd"/>
            <path id="Trazado_907871_-_Contorno" data-name="Trazado 907871 - Contorno" d="M1445.977,3652.65h15.554a1.329,1.329,0,0,1,1.327,1.327v1.338H1444.65v-1.338A1.329,1.329,0,0,1,1445.977,3652.65Zm16.182,1.965v-.638a.635.635,0,0,0-.627-.627h-15.554a.636.636,0,0,0-.627.627v.638Z" transform="translate(-1430.135 -3615.42)"/>
            <path id="Trazado_907872" data-name="Trazado 907872" d="M1405.4,3612h15.554a1.4,1.4,0,0,1,1.4,1.4v.988a.424.424,0,0,1-.422.422h-17.509a.424.424,0,0,1-.422-.422v-.988a1.4,1.4,0,0,1,1.4-1.4Zm15.554.854H1405.4a.58.58,0,0,0-.391.154.563.563,0,0,0-.165.391v.556h16.666v-.556a.562.562,0,0,0-.165-.391A.58.58,0,0,0,1420.953,3612.854Z" transform="translate(-1389.557 -3574.842)" fill="#080a0d"/>
            <path id="Trazado_907872_-_Contorno" data-name="Trazado 907872 - Contorno" d="M1405.4,3611.65h15.554a1.761,1.761,0,0,1,1.235.514,1.737,1.737,0,0,1,.514,1.235v.988a.773.773,0,0,1-.772.772h-17.509a.773.773,0,0,1-.772-.772v-.988a1.737,1.737,0,0,1,.514-1.235A1.76,1.76,0,0,1,1405.4,3611.65Zm16.532,2.809a.074.074,0,0,0,.072-.072v-.988a1.041,1.041,0,0,0-.309-.74,1.055,1.055,0,0,0-.74-.309H1405.4a1.055,1.055,0,0,0-.74.309,1.041,1.041,0,0,0-.309.74v.988a.074.074,0,0,0,.072.072ZM1405.4,3612.5h15.554a.935.935,0,0,1,.625.244l.013.012a.911.911,0,0,1,.267.638v.906h-17.365v-.906a.912.912,0,0,1,.267-.638l.014-.013A.935.935,0,0,1,1405.4,3612.5Zm15.7.758a.228.228,0,0,0-.149-.058H1405.4a.227.227,0,0,0-.149.058.211.211,0,0,0-.056.137v.206h15.966v-.206A.211.211,0,0,0,1421.1,3613.262Z" transform="translate(-1389.557 -3574.842)"/>
          </g>
        </g>
      </g>
    </g>
  </g>
</svg>
