<svg xmlns="http://www.w3.org/2000/svg" xmlns:xlink="http://www.w3.org/1999/xlink" width="93.722" height="93.723" viewBox="0 0 93.722 93.723">
  <defs>
    <filter id="Trazado_874925" x="0" y="0" width="93.722" height="93.723" filterUnits="userSpaceOnUse">
      <feOffset dy="3" input="SourceAlpha"/>
      <feGaussianBlur stdDeviation="3" result="blur"/>
      <feFlood flood-opacity="0.161"/>
      <feComposite operator="in" in2="blur"/>
      <feComposite in="SourceGraphic"/>
    </filter>
  </defs>
  <g id="Grupo_1114721" data-name="Grupo 1114721" transform="translate(-726.102 -2111.278)">
    <g id="Grupo_1112903" data-name="Grupo 1112903" transform="translate(735.102 2117.278)">
      <g id="Grupo_1109835" data-name="Grupo 1109835" transform="translate(0 0)">
        <g id="Grupo_1107913" data-name="Grupo 1107913" transform="translate(0 0)">
          <g transform="matrix(1, 0, 0, 1, -9, -6)" filter="url(#Trazado_874925)">
            <g id="Trazado_874925-2" data-name="Trazado 874925" transform="translate(9 6)" fill="#fd9826" opacity="0.859">
              <path d="M 37.86101913452148 74.2225341796875 C 32.95165252685547 74.2225341796875 28.1899299621582 73.26136779785156 23.7081298828125 71.36572265625 C 19.37846374511719 69.534423828125 15.48970794677734 66.91244506835938 12.1498966217041 63.57263565063477 C 8.810074806213379 60.23281097412109 6.188107967376709 56.34405517578125 4.356808185577393 52.01438903808594 C 2.461163520812988 47.53257751464844 1.499996900558472 42.77085494995117 1.499996900558472 37.86148834228516 C 1.499996900558472 32.95167922973633 2.461163520812988 28.18995666503906 4.356808185577393 23.70814514160156 C 6.188107967376709 19.37847900390625 8.810074806213379 15.48972225189209 12.1498966217041 12.14990043640137 C 15.48970794677734 8.810089111328125 19.37846374511719 6.188111305236816 23.7081298828125 4.3568115234375 C 28.1899299621582 2.461167097091675 32.95165252685547 1.500000476837158 37.86101913452148 1.500000476837158 C 42.7703857421875 1.500000476837158 47.53210830688477 2.461167097091675 52.01390838623047 4.3568115234375 C 56.34357452392578 6.188111305236816 60.23233032226562 8.810089111328125 63.57213973999023 12.14990043640137 C 66.91196441650391 15.48972225189209 69.53392791748047 19.37847900390625 71.36522674560547 23.70814514160156 C 73.26087188720703 28.18995666503906 74.22203826904297 32.95167922973633 74.22203826904297 37.86104583740234 C 74.22203826904297 42.77085494995117 73.26087188720703 47.53257751464844 71.36522674560547 52.01438903808594 C 69.53392791748047 56.34405517578125 66.91196441650391 60.23281097412109 63.57213973999023 63.57263565063477 C 60.23233032226562 66.91244506835938 56.34357452392578 69.534423828125 52.01390838623047 71.36572265625 C 47.53210830688477 73.26136779785156 42.7703857421875 74.2225341796875 37.86101913452148 74.2225341796875 Z" stroke="none"/>
              <path d="M 37.86101913452148 3.000007629394531 C 33.15349578857422 3.000007629394531 28.5883674621582 3.921302795410156 24.29245758056641 5.738327026367188 C 20.14159393310547 7.493995666503906 16.41309356689453 10.00801849365234 13.21055603027344 13.21056747436523 C 10.00800323486328 16.41310501098633 7.493980407714844 20.14160537719727 5.738319396972656 24.29246520996094 C 3.921295166015625 28.58837890625 2.999992370605469 33.15350341796875 2.999992370605469 37.86148071289062 C 2.999992370605469 42.56901550292969 3.921295166015625 47.13414001464844 5.738319396972656 51.4300537109375 C 7.493980407714844 55.58092880249023 10.00800323486328 59.30941772460938 13.21055603027344 62.51196670532227 C 16.41309356689453 65.71451568603516 20.14159393310547 68.22854614257812 24.29245758056641 69.98420715332031 C 28.5883674621582 71.80123138427734 33.15349578857422 72.72252655029297 37.86101913452148 72.72252655029297 C 42.56854248046875 72.72252655029297 47.1336669921875 71.80123138427734 51.42958068847656 69.98420715332031 C 55.5804443359375 68.22854614257812 59.30892944335938 65.71451568603516 62.51148223876953 62.51196670532227 C 65.71401977539062 59.30941772460938 68.22804260253906 55.58092880249023 69.98370361328125 51.4300537109375 C 71.80073547363281 47.13414001464844 72.72203063964844 42.56901550292969 72.72203063964844 37.86104202270508 C 72.72203063964844 33.15350341796875 71.80073547363281 28.58837890625 69.98370361328125 24.29246520996094 C 68.22804260253906 20.14160537719727 65.71401977539062 16.41310501098633 62.51148223876953 13.21056747436523 C 59.30892944335938 10.00801849365234 55.5804443359375 7.493995666503906 51.42958068847656 5.738327026367188 C 47.1336669921875 3.921302795410156 42.56854248046875 3.000007629394531 37.86101913452148 3.000007629394531 M 37.86101913452148 7.62939453125e-06 C 58.77108001708984 7.62939453125e-06 75.72203063964844 16.95096588134766 75.72203063964844 37.86104202270508 L 75.72203063964844 37.86148071289062 C 75.72203063964844 58.77156829833984 58.77108001708984 75.72252655029297 37.86101913452148 75.72252655029297 C 16.95095825195312 75.72252655029297 -7.62939453125e-06 58.77156829833984 -7.62939453125e-06 37.86148071289062 L -7.62939453125e-06 37.86104202270508 C -7.62939453125e-06 16.95096588134766 16.95095825195312 7.62939453125e-06 37.86101913452148 7.62939453125e-06 Z" stroke="none" fill="#fff"/>
            </g>
          </g>
          <g id="Trazado_874923" data-name="Trazado 874923" transform="translate(0 0)" fill="none">
            <path d="M37.861,0A37.861,37.861,0,0,1,75.722,37.861h0A37.861,37.861,0,1,1,0,37.861H0A37.861,37.861,0,0,1,37.861,0Z" stroke="none"/>
            <path d="M 37.86101913452148 3.000007629394531 C 33.15349578857422 3.000007629394531 28.5883674621582 3.921302795410156 24.29245758056641 5.738327026367188 C 20.14159393310547 7.493995666503906 16.41309356689453 10.00801849365234 13.21055603027344 13.21056747436523 C 10.00800323486328 16.41310501098633 7.493980407714844 20.14160537719727 5.738319396972656 24.29246520996094 C 3.921295166015625 28.58837890625 2.999992370605469 33.15350341796875 2.999992370605469 37.86148071289062 C 2.999992370605469 42.56901550292969 3.921295166015625 47.13414001464844 5.738319396972656 51.4300537109375 C 7.493980407714844 55.58092880249023 10.00800323486328 59.30941772460938 13.21055603027344 62.51196670532227 C 16.41309356689453 65.71451568603516 20.14159393310547 68.22854614257812 24.29245758056641 69.98420715332031 C 28.5883674621582 71.80123138427734 33.15349578857422 72.72252655029297 37.86101913452148 72.72252655029297 C 42.56854248046875 72.72252655029297 47.1336669921875 71.80123138427734 51.42958068847656 69.98420715332031 C 55.5804443359375 68.22854614257812 59.30892944335938 65.71451568603516 62.51148223876953 62.51196670532227 C 65.71401977539062 59.30941772460938 68.22804260253906 55.58092880249023 69.98370361328125 51.4300537109375 C 71.80073547363281 47.13414001464844 72.72203063964844 42.56901550292969 72.72203063964844 37.86104202270508 C 72.72203063964844 33.15350341796875 71.80073547363281 28.58837890625 69.98370361328125 24.29246520996094 C 68.22804260253906 20.14160537719727 65.71401977539062 16.41310501098633 62.51148223876953 13.21056747436523 C 59.30892944335938 10.00801849365234 55.5804443359375 7.493995666503906 51.42958068847656 5.738327026367188 C 47.1336669921875 3.921302795410156 42.56854248046875 3.000007629394531 37.86101913452148 3.000007629394531 M 37.86101913452148 7.62939453125e-06 C 58.77108001708984 7.62939453125e-06 75.72203063964844 16.95096588134766 75.72203063964844 37.86104202270508 L 75.72203063964844 37.86148071289062 C 75.72203063964844 58.77156829833984 58.77108001708984 75.72252655029297 37.86101913452148 75.72252655029297 C 16.95095825195312 75.72252655029297 -7.62939453125e-06 58.77156829833984 -7.62939453125e-06 37.86148071289062 L -7.62939453125e-06 37.86104202270508 C -7.62939453125e-06 16.95096588134766 16.95095825195312 7.62939453125e-06 37.86101913452148 7.62939453125e-06 Z" stroke="none" fill="#fff"/>
          </g>
        </g>
      </g>
    </g>
    <g id="Grupo_1114720" data-name="Grupo 1114720" transform="translate(697.747 2116.719)">
      <path id="Trazado_907555" data-name="Trazado 907555" d="M100.894,68.581H64V24H97.82a3.075,3.075,0,0,1,3.075,3.075Z" transform="translate(-7.231 -7.231)" fill="#fbe9d8"/>
      <circle id="Elipse_12823" data-name="Elipse 12823" cx="7.034" cy="7.034" r="7.034" transform="translate(59.837 19.914)" fill="#ffe76c"/>
      <path id="Trazado_907556" data-name="Trazado 907556" d="M382.918,27.075v3.075h-4.612V26.306A2.306,2.306,0,0,0,376,24h3.843A3.075,3.075,0,0,1,382.918,27.075Z" transform="translate(-289.255 -7.231)" fill="#e3d3c2"/>
      <path id="Trazado_907557" data-name="Trazado 907557" d="M56,61.349a.769.769,0,0,0,.769.769H93.663a.769.769,0,0,0,.769-.769V19.843A3.847,3.847,0,0,0,90.588,16H56.769a.769.769,0,0,0-.769.769ZM92.894,19.843v2.306H89.82V19.075a3.055,3.055,0,0,0-.413-1.537h1.182A2.309,2.309,0,0,1,92.894,19.843ZM57.537,17.537H86.745a1.539,1.539,0,0,1,1.537,1.537v3.843a.769.769,0,0,0,.769.769h3.843V60.581H57.537Z"/>
      <path id="Trazado_907558" data-name="Trazado 907558" d="M334.918,416h-6.149a.769.769,0,0,0,0,1.537h6.149a.769.769,0,1,0,0-1.537Z" transform="translate(-245.866 -361.568)"/>
      <path id="Trazado_907559" data-name="Trazado 907559" d="M277.067,448h-12.3a.769.769,0,1,0,0,1.537h12.3a.769.769,0,0,0,0-1.537Z" transform="translate(-188.016 -390.494)"/>
      <path id="Trazado_907560" data-name="Trazado 907560" d="M146.306,82.306a.77.77,0,0,1,.769.769.769.769,0,0,0,1.537,0,2.31,2.31,0,0,0-1.537-2.174v-.132a.769.769,0,1,0-1.537,0V80.9a2.306,2.306,0,0,0,.769,4.48.769.769,0,1,1-.769.769.769.769,0,1,0-1.537,0,2.31,2.31,0,0,0,1.537,2.174v.132a.769.769,0,1,0,1.537,0v-.132a2.306,2.306,0,0,0-.769-4.48.769.769,0,0,1,0-1.537Z" transform="translate(-79.545 -57.851)"/>
      <path id="Trazado_907561" data-name="Trazado 907561" d="M103.373,55.686a7.686,7.686,0,1,0-7.686,7.686A7.686,7.686,0,0,0,103.373,55.686Zm-7.686,6.149a6.149,6.149,0,1,1,6.149-6.149A6.149,6.149,0,0,1,95.686,61.835Z" transform="translate(-28.925 -28.925)"/>
      <path id="Trazado_907562" data-name="Trazado 907562" d="M107.843,240h-3.075a.769.769,0,1,0,0,1.537h3.075a.769.769,0,1,0,0-1.537Z" transform="translate(-43.388 -202.478)"/>
      <path id="Trazado_907563" data-name="Trazado 907563" d="M197.067,240h-12.3a.769.769,0,0,0,0,1.537h12.3a.769.769,0,1,0,0-1.537Z" transform="translate(-115.702 -202.478)"/>
      <path id="Trazado_907564" data-name="Trazado 907564" d="M378.306,240h-1.537a.769.769,0,0,0,0,1.537h1.537a.769.769,0,1,0,0-1.537Z" transform="translate(-289.255 -202.478)"/>
      <path id="Trazado_907565" data-name="Trazado 907565" d="M107.843,272h-3.075a.769.769,0,1,0,0,1.537h3.075a.769.769,0,1,0,0-1.537Z" transform="translate(-43.388 -231.404)"/>
      <path id="Trazado_907566" data-name="Trazado 907566" d="M197.067,272h-12.3a.769.769,0,0,0,0,1.537h12.3a.769.769,0,1,0,0-1.537Z" transform="translate(-115.702 -231.404)"/>
      <path id="Trazado_907567" data-name="Trazado 907567" d="M378.306,272h-1.537a.769.769,0,0,0,0,1.537h1.537a.769.769,0,1,0,0-1.537Z" transform="translate(-289.255 -231.404)"/>
      <path id="Trazado_907568" data-name="Trazado 907568" d="M107.843,304h-3.075a.769.769,0,1,0,0,1.537h3.075a.769.769,0,1,0,0-1.537Z" transform="translate(-43.388 -260.329)"/>
      <path id="Trazado_907569" data-name="Trazado 907569" d="M197.067,304h-12.3a.769.769,0,0,0,0,1.537h12.3a.769.769,0,1,0,0-1.537Z" transform="translate(-115.702 -260.329)"/>
      <path id="Trazado_907570" data-name="Trazado 907570" d="M378.306,304h-1.537a.769.769,0,0,0,0,1.537h1.537a.769.769,0,1,0,0-1.537Z" transform="translate(-289.255 -260.329)"/>
      <path id="Trazado_907571" data-name="Trazado 907571" d="M107.843,336h-3.075a.769.769,0,1,0,0,1.537h3.075a.769.769,0,1,0,0-1.537Z" transform="translate(-43.388 -289.255)"/>
      <path id="Trazado_907572" data-name="Trazado 907572" d="M197.067,336h-12.3a.769.769,0,0,0,0,1.537h12.3a.769.769,0,1,0,0-1.537Z" transform="translate(-115.702 -289.255)"/>
      <path id="Trazado_907573" data-name="Trazado 907573" d="M378.306,336h-1.537a.769.769,0,0,0,0,1.537h1.537a.769.769,0,1,0,0-1.537Z" transform="translate(-289.255 -289.255)"/>
      <path id="Trazado_907574" data-name="Trazado 907574" d="M107.843,368h-3.075a.769.769,0,1,0,0,1.537h3.075a.769.769,0,1,0,0-1.537Z" transform="translate(-43.388 -318.18)"/>
      <path id="Trazado_907575" data-name="Trazado 907575" d="M197.835,368.769a.769.769,0,0,0-.769-.769h-12.3a.769.769,0,1,0,0,1.537h12.3A.769.769,0,0,0,197.835,368.769Z" transform="translate(-115.702 -318.18)"/>
      <path id="Trazado_907576" data-name="Trazado 907576" d="M378.306,368h-1.537a.769.769,0,1,0,0,1.537h1.537a.769.769,0,1,0,0-1.537Z" transform="translate(-289.255 -318.18)"/>
      <path id="Trazado_907577" data-name="Trazado 907577" d="M320.455,128h-7.686a.769.769,0,1,0,0,1.537h7.686a.769.769,0,1,0,0-1.537Z" transform="translate(-231.404 -101.239)"/>
      <path id="Trazado_907578" data-name="Trazado 907578" d="M284.3,160h-11.53a.769.769,0,0,0,0,1.537H284.3a.769.769,0,0,0,0-1.537Z" transform="translate(-195.247 -130.165)"/>
      <path id="Trazado_907579" data-name="Trazado 907579" d="M284.3,192h-11.53a.769.769,0,0,0,0,1.537H284.3a.769.769,0,0,0,0-1.537Z" transform="translate(-195.247 -159.09)"/>
    </g>
  </g>
</svg>
