<svg xmlns="http://www.w3.org/2000/svg" xmlns:xlink="http://www.w3.org/1999/xlink" width="108.914" height="108.914" viewBox="0 0 108.914 108.914">
  <defs>
    <filter id="Trazado_874925" x="0" y="0" width="108.914" height="108.914" filterUnits="userSpaceOnUse">
      <feOffset dy="3" input="SourceAlpha"/>
      <feGaussianBlur stdDeviation="3" result="blur"/>
      <feFlood flood-opacity="0.161"/>
      <feComposite operator="in" in2="blur"/>
      <feComposite in="SourceGraphic"/>
    </filter>
  </defs>
  <g id="Grupo_1114802" data-name="Grupo 1114802" transform="translate(-746.051 -15054)">
    <g id="Grupo_1112934" data-name="Grupo 1112934" transform="translate(-53.449 13107.789)">
      <g id="Grupo_1109835" data-name="Grupo 1109835">
        <g id="Grupo_1107913" data-name="Grupo 1107913" transform="translate(808.5 1952.211)">
          <g transform="matrix(1, 0, 0, 1, -9, -6)" filter="url(#Trazado_874925)">
            <g id="Trazado_874925-2" data-name="Trazado 874925" transform="translate(9 6)" fill="#fd9826" opacity="0.859">
              <path d="M 45.45676803588867 89.41407012939453 C 39.52198028564453 89.41407012939453 33.76551818847656 88.25206756591797 28.34726715087891 85.96034240722656 C 23.11311721801758 83.74648284912109 18.41204261779785 80.57682800292969 14.37464332580566 76.5394287109375 C 10.33724308013916 72.50202941894531 7.167593002319336 67.80095672607422 4.953730583190918 62.56679534912109 C 2.662005424499512 57.14855575561523 1.500005483627319 51.39208221435547 1.500005483627319 45.45729446411133 C 1.500005483627319 39.52198028564453 2.662005424499512 33.76551818847656 4.953730583190918 28.34726905822754 C 7.167593002319336 23.11310577392578 10.33724308013916 18.41203117370605 14.37464332580566 14.37464332580566 C 18.41204261779785 10.33724403381348 23.11311721801758 7.167593955993652 28.34726715087891 4.953731060028076 C 33.76551818847656 2.662006139755249 39.52198028564453 1.500006198883057 45.45676803588867 1.500006198883057 C 51.39155578613281 1.500006198883057 57.14802932739258 2.662006139755249 62.56626892089844 4.953731060028076 C 67.80043029785156 7.167593955993652 72.50150299072266 10.33724403381348 76.53890228271484 14.37464332580566 C 80.57630920410156 18.41203117370605 83.74595642089844 23.11310577392578 85.95981597900391 28.34726905822754 C 88.25154113769531 33.76551818847656 89.41354370117188 39.52198028564453 89.41354370117188 45.45676803588867 C 89.41354370117188 51.39208221435547 88.25154113769531 57.14855575561523 85.95981597900391 62.56679534912109 C 83.74595642089844 67.80095672607422 80.57630920410156 72.50202941894531 76.53890228271484 76.5394287109375 C 72.50150299072266 80.57682800292969 67.80043029785156 83.74648284912109 62.56626892089844 85.96034240722656 C 57.14802932739258 88.25206756591797 51.39155578613281 89.41407012939453 45.45676803588867 89.41407012939453 Z" stroke="none"/>
              <path d="M 45.45676803588867 3 C 39.72381210327148 3 34.1639404296875 4.12213134765625 28.93159484863281 6.335227966308594 C 23.87622833251953 8.473472595214844 19.33542633056641 11.53517150878906 15.43529510498047 15.435302734375 C 11.53517150878906 19.33543395996094 8.473464965820312 23.87622833251953 6.335227966308594 28.93160247802734 C 4.122123718261719 34.16394424438477 3 39.72381591796875 3 45.4572868347168 C 3 51.19024658203125 4.122123718261719 56.75011825561523 6.335227966308594 61.98246002197266 C 8.473464965820312 67.03782653808594 11.53517150878906 71.57862854003906 15.43529510498047 75.478759765625 C 19.33542633056641 79.37889099121094 23.87622833251953 82.44058990478516 28.93159484863281 84.57883453369141 C 34.1639404296875 86.79193115234375 39.72381210327148 87.9140625 45.45676803588867 87.9140625 C 51.18972396850586 87.9140625 56.74959564208984 86.79193115234375 61.98194122314453 84.57883453369141 C 67.03730773925781 82.44058990478516 71.57810974121094 79.37889099121094 75.47824096679688 75.478759765625 C 79.37837219238281 71.57862854003906 82.44007110595703 67.03782653808594 84.57830810546875 61.98246002197266 C 86.79141235351562 56.75011825561523 87.91353607177734 51.19024658203125 87.91353607177734 45.4567756652832 C 87.91353607177734 39.72381591796875 86.79141235351562 34.16394424438477 84.57830810546875 28.93160247802734 C 82.44007110595703 23.87622833251953 79.37837219238281 19.33543395996094 75.47824096679688 15.435302734375 C 71.57810974121094 11.53517150878906 67.03730773925781 8.473472595214844 61.98194122314453 6.335227966308594 C 56.74959564208984 4.12213134765625 51.18972396850586 3 45.45676803588867 3 M 45.45676803588867 0 C 70.56185150146484 0 90.91353607177734 20.35169219970703 90.91353607177734 45.4567756652832 L 90.91353607177734 45.4572868347168 C 90.91353607177734 70.5623779296875 70.56185150146484 90.9140625 45.45676803588867 90.9140625 C 20.3516845703125 90.9140625 0 70.5623779296875 0 45.4572868347168 L 0 45.4567756652832 C 0 20.35169219970703 20.3516845703125 0 45.45676803588867 0 Z" stroke="none" fill="#fff"/>
            </g>
          </g>
          <g id="Trazado_874923" data-name="Trazado 874923" transform="translate(0 0)" fill="none">
            <path d="M45.457,0A45.457,45.457,0,0,1,90.914,45.457h0A45.457,45.457,0,0,1,0,45.457H0A45.457,45.457,0,0,1,45.457,0Z" stroke="none"/>
            <path d="M 45.45676803588867 3 C 39.72381210327148 3 34.1639404296875 4.12213134765625 28.93159484863281 6.335227966308594 C 23.87622833251953 8.473472595214844 19.33542633056641 11.53517150878906 15.43529510498047 15.435302734375 C 11.53517150878906 19.33543395996094 8.473464965820312 23.87622833251953 6.335227966308594 28.93160247802734 C 4.122123718261719 34.16394424438477 3 39.72381591796875 3 45.4572868347168 C 3 51.19024658203125 4.122123718261719 56.75011825561523 6.335227966308594 61.98246002197266 C 8.473464965820312 67.03782653808594 11.53517150878906 71.57862854003906 15.43529510498047 75.478759765625 C 19.33542633056641 79.37889099121094 23.87622833251953 82.44058990478516 28.93159484863281 84.57883453369141 C 34.1639404296875 86.79193115234375 39.72381210327148 87.9140625 45.45676803588867 87.9140625 C 51.18972396850586 87.9140625 56.74959564208984 86.79193115234375 61.98194122314453 84.57883453369141 C 67.03730773925781 82.44058990478516 71.57810974121094 79.37889099121094 75.47824096679688 75.478759765625 C 79.37837219238281 71.57862854003906 82.44007110595703 67.03782653808594 84.57830810546875 61.98246002197266 C 86.79141235351562 56.75011825561523 87.91353607177734 51.19024658203125 87.91353607177734 45.4567756652832 C 87.91353607177734 39.72381591796875 86.79141235351562 34.16394424438477 84.57830810546875 28.93160247802734 C 82.44007110595703 23.87622833251953 79.37837219238281 19.33543395996094 75.47824096679688 15.435302734375 C 71.57810974121094 11.53517150878906 67.03730773925781 8.473472595214844 61.98194122314453 6.335227966308594 C 56.74959564208984 4.12213134765625 51.18972396850586 3 45.45676803588867 3 M 45.45676803588867 0 C 70.56185150146484 0 90.91353607177734 20.35169219970703 90.91353607177734 45.4567756652832 L 90.91353607177734 45.4572868347168 C 90.91353607177734 70.5623779296875 70.56185150146484 90.9140625 45.45676803588867 90.9140625 C 20.3516845703125 90.9140625 0 70.5623779296875 0 45.4572868347168 L 0 45.4567756652832 C 0 20.35169219970703 20.3516845703125 0 45.45676803588867 0 Z" stroke="none" fill="#fff"/>
          </g>
        </g>
      </g>
    </g>
    <g id="Grupo_1114801" data-name="Grupo 1114801" transform="translate(773.781 15078)">
      <path id="Trazado_907890" data-name="Trazado 907890" d="M203.746,58.8H168V8h28.221l7.526,7.526Zm0,0" transform="translate(-148.246 -7.059)" fill="#60d1e0"/>
      <path id="Trazado_907891" data-name="Trazado 907891" d="M174.585,216H168v26.339h9.407V218.822A2.822,2.822,0,0,0,174.585,216Zm0,0" transform="translate(-148.246 -190.601)" fill="#5ac6d4"/>
      <path id="Trazado_907892" data-name="Trazado 907892" d="M216,8h13.17V38.1H216Zm0,0" transform="translate(-190.601 -7.059)" fill="#5ac6d4"/>
      <path id="Trazado_907893" data-name="Trazado 907893" d="M200,8h13.17V36.221H200Zm0,0" transform="translate(-176.483 -7.059)" fill="#ffb531"/>
      <path id="Trazado_907894" data-name="Trazado 907894" d="M240,32h5.644v1.881H240Zm0,0" transform="translate(-211.779 -28.237)" fill="#f7a116"/>
      <path id="Trazado_907895" data-name="Trazado 907895" d="M240,64h5.644v1.881H240Zm0,0" transform="translate(-211.779 -56.474)" fill="#f7a116"/>
      <path id="Trazado_907896" data-name="Trazado 907896" d="M240,96h5.644v1.881H240Zm0,0" transform="translate(-211.779 -84.712)" fill="#f7a116"/>
      <path id="Trazado_907897" data-name="Trazado 907897" d="M240,128h5.644v1.881H240Zm0,0" transform="translate(-211.779 -112.949)" fill="#f7a116"/>
      <path id="Trazado_907898" data-name="Trazado 907898" d="M248,160h4.7v1.881H248Zm0,0" transform="translate(-218.839 -141.186)" fill="#f7a116"/>
      <path id="Trazado_907899" data-name="Trazado 907899" d="M256,192h3.763v1.881H256Zm0,0" transform="translate(-225.898 -169.423)" fill="#f7a116"/>
      <path id="Trazado_907900" data-name="Trazado 907900" d="M276.07,311.539a1.882,1.882,0,0,0-2.2,1.856,1.881,1.881,0,1,0-3.763,0,1.881,1.881,0,1,0-3.763,0v-7.425a1.952,1.952,0,0,0-1.565-1.957,1.882,1.882,0,0,0-2.2,1.856v13.17l-3.922-2.352a1.659,1.659,0,0,0-1.6-.062l-.147.074a1.661,1.661,0,0,0-.221,2.836l5.89,4.207h15.051V313.5A1.952,1.952,0,0,0,276.07,311.539Zm0,0" transform="translate(-225.898 -268.242)" fill="#fec9a3"/>
      <path id="Trazado_907901" data-name="Trazado 907901" d="M10.822,200h20.7a2.822,2.822,0,0,1,2.822,2.822v26.339a2.822,2.822,0,0,1-2.822,2.822h-20.7A2.822,2.822,0,0,1,8,229.161V202.822A2.822,2.822,0,0,1,10.822,200Zm0,0" transform="translate(-7.059 -176.483)" fill="#e94f4f"/>
      <path id="Trazado_907902" data-name="Trazado 907902" d="M40,248H58.814v7.526H40Zm0,0" transform="translate(-35.297 -218.839)" fill="#60d1e0"/>
      <path id="Trazado_907903" data-name="Trazado 907903" d="M40,248H58.814v1.881H40Zm0,0" transform="translate(-35.297 -218.839)" fill="#5ac6d4"/>
      <path id="Trazado_907904" data-name="Trazado 907904" d="M40,344h3.763v3.763H40Zm0,0" transform="translate(-35.297 -303.55)" fill="#ffb531"/>
      <path id="Trazado_907905" data-name="Trazado 907905" d="M104,344h3.763v3.763H104Zm0,0" transform="translate(-91.771 -303.55)" fill="#ffb531"/>
      <path id="Trazado_907906" data-name="Trazado 907906" d="M40,408h3.763v3.763H40Zm0,0" transform="translate(-35.297 -360.025)" fill="#ffb531"/>
      <path id="Trazado_907907" data-name="Trazado 907907" d="M104,408h3.763v3.763H104Zm0,0" transform="translate(-91.771 -360.025)" fill="#ffb531"/>
      <path id="Trazado_907908" data-name="Trazado 907908" d="M168,344h3.763v3.763H168Zm0,0" transform="translate(-148.246 -303.55)" fill="#ffb531"/>
      <path id="Trazado_907909" data-name="Trazado 907909" d="M168,408h3.763v3.763H168Zm0,0" transform="translate(-148.246 -360.025)" fill="#ffb531"/>
      <path id="Trazado_907910" data-name="Trazado 907910" d="M160,272h1.881v1.881H160Zm0,0" transform="translate(-141.186 -240.017)" fill="#3a9cc9"/>
      <path id="Trazado_907911" data-name="Trazado 907911" d="M128,272h1.881v1.881H128Zm0,0" transform="translate(-112.949 -240.017)" fill="#3a9cc9"/>
      <path id="Trazado_907912" data-name="Trazado 907912" d="M96,272h1.881v1.881H96Zm0,0" transform="translate(-84.712 -240.017)" fill="#3a9cc9"/>
      <path id="Trazado_907913" data-name="Trazado 907913" d="M152,53.17V40h7.526V53.17Zm0,0" transform="translate(-134.127 -35.297)" fill="#3d4d63"/>
      <path id="Trazado_907914" data-name="Trazado 907914" d="M408,8l7.526,7.526H408Zm0,0" transform="translate(-360.025 -7.059)" fill="#9fe4ed"/>
      <g id="Grupo_1114800" data-name="Grupo 1114800" transform="translate(19.754 7.526)">
        <path id="Trazado_907915" data-name="Trazado 907915" d="M337.618,70.9l3.447,1.15a.672.672,0,0,1,.46.627v.029a.7.7,0,0,1-.7.7h-2.352a.715.715,0,0,1-.715-.715v-.226h-1.88v.226a2.6,2.6,0,0,0,2.6,2.6h.226V77.17h1.881V75.288h.243a2.6,2.6,0,0,0,2.58-2.514v-.053a2.55,2.55,0,0,0-1.746-2.456l-3.448-1.149a.688.688,0,0,1-.46-.683.673.673,0,0,1,.672-.671h2.385a.715.715,0,0,1,.715.715V68.7h1.881v-.226a2.6,2.6,0,0,0-2.6-2.6h-.226V64H338.7v1.881h-.282a2.578,2.578,0,0,0-.807,5.019Zm0,0" transform="translate(-316.126 -64)" fill="#3fb7c7"/>
        <path id="Trazado_907916" data-name="Trazado 907916" d="M336,192h13.17v1.881H336Zm0,0" transform="translate(-316.246 -176.949)" fill="#3fb7c7"/>
        <path id="Trazado_907917" data-name="Trazado 907917" d="M336,224h13.17v1.881H336Zm0,0" transform="translate(-316.246 -205.186)" fill="#3fb7c7"/>
        <path id="Trazado_907918" data-name="Trazado 907918" d="M336,256h13.17v1.881H336Zm0,0" transform="translate(-316.246 -233.423)" fill="#3fb7c7"/>
        <path id="Trazado_907919" data-name="Trazado 907919" d="M368,288h9.407v1.881H368Zm0,0" transform="translate(-344.483 -261.661)" fill="#3fb7c7"/>
        <path id="Trazado_907920" data-name="Trazado 907920" d="M368,320h9.407v1.881H368Zm0,0" transform="translate(-344.483 -289.898)" fill="#3fb7c7"/>
        <path id="Trazado_907921" data-name="Trazado 907921" d="M416,160h3.763v1.881H416Zm0,0" transform="translate(-386.839 -148.712)" fill="#3fb7c7"/>
        <path id="Trazado_907922" data-name="Trazado 907922" d="M256,288h4.7v1.881H256Zm0,0" transform="translate(-245.652 -261.661)" fill="#3fb7c7"/>
        <path id="Trazado_907923" data-name="Trazado 907923" d="M256,320h3.763v1.881H256Zm0,0" transform="translate(-245.652 -289.898)" fill="#3fb7c7"/>
        <path id="Trazado_907924" data-name="Trazado 907924" d="M256,352h3.763v1.881H256Zm0,0" transform="translate(-245.652 -318.135)" fill="#3fb7c7"/>
        <path id="Trazado_907925" data-name="Trazado 907925" d="M168,152h3.763v1.881H168Zm0,0" transform="translate(-168 -141.652)" fill="#3fb7c7"/>
      </g>
      <path id="Trazado_907926" data-name="Trazado 907926" d="M201.881,56V67.288H200V69.17h3.763V56Zm0,0" transform="translate(-176.483 -49.415)" fill="#f7a116"/>
      <path id="Trazado_907927" data-name="Trazado 907927" d="M240,32h5.644v1.881H240Zm0,0" transform="translate(-211.779 -28.237)"/>
      <path id="Trazado_907928" data-name="Trazado 907928" d="M240,64h5.644v1.881H240Zm0,0" transform="translate(-211.779 -56.474)"/>
      <path id="Trazado_907929" data-name="Trazado 907929" d="M240,96h5.644v1.881H240Zm0,0" transform="translate(-211.779 -84.712)"/>
      <path id="Trazado_907930" data-name="Trazado 907930" d="M240,128h5.644v1.881H240Zm0,0" transform="translate(-211.779 -112.949)"/>
      <path id="Trazado_907931" data-name="Trazado 907931" d="M248,160h4.7v1.881H248Zm0,0" transform="translate(-218.839 -141.186)"/>
      <path id="Trazado_907932" data-name="Trazado 907932" d="M256,192h3.763v1.881H256Zm0,0" transform="translate(-225.898 -169.423)"/>
      <path id="Trazado_907933" data-name="Trazado 907933" d="M248,311.129a2.608,2.608,0,0,0,1.09,2.117l5.889,4.207a.94.94,0,0,0,.547.175h15.051a.941.941,0,0,0,.941-.941V306.441a2.9,2.9,0,0,0-2.352-2.884,2.834,2.834,0,0,0-2.294.633l-.057.048a2.816,2.816,0,0,0-3.763,0,2.929,2.929,0,0,0-2.822-.56v-4.763a2.9,2.9,0,0,0-2.352-2.884,2.822,2.822,0,0,0-3.292,2.783v11.508l-2.5-1.5a2.591,2.591,0,0,0-2.5-.094l-.148.073A2.589,2.589,0,0,0,248,311.129Zm2.28-.644.147-.073a.71.71,0,0,1,.692.026l3.922,2.352a.941.941,0,0,0,1.425-.805v-13.17a.941.941,0,0,1,1.105-.927,1.02,1.02,0,0,1,.776,1.028v7.425a.941.941,0,0,0,1.881,0,.941.941,0,1,1,1.881,0,.941.941,0,0,0,1.881,0,.941.941,0,1,1,1.881,0,.941.941,0,0,0,1.881,0,.94.94,0,0,1,1.106-.927,1.021,1.021,0,0,1,.775,1.028v9.306H255.826l-5.644-4.031a.726.726,0,0,1-.3-.587A.717.717,0,0,1,250.28,310.484Zm0,0" transform="translate(-218.839 -261.187)"/>
      <path id="Trazado_907934" data-name="Trazado 907934" d="M3.763,225.865h20.7a3.763,3.763,0,0,0,3.763-3.763V195.763A3.763,3.763,0,0,0,24.458,192H3.763A3.763,3.763,0,0,0,0,195.763V222.1A3.763,3.763,0,0,0,3.763,225.865Zm-1.881-30.1a1.881,1.881,0,0,1,1.881-1.881h20.7a1.881,1.881,0,0,1,1.881,1.881V222.1a1.881,1.881,0,0,1-1.881,1.881H3.763A1.881,1.881,0,0,1,1.881,222.1Zm0,0" transform="translate(0 -169.423)"/>
      <path id="Trazado_907935" data-name="Trazado 907935" d="M32.941,249.407H51.754a.941.941,0,0,0,.941-.941v-7.526a.941.941,0,0,0-.941-.941H32.941a.941.941,0,0,0-.941.941v7.526A.941.941,0,0,0,32.941,249.407Zm.941-7.526H50.814v5.644H33.881Zm0,0" transform="translate(-28.237 -211.779)"/>
      <path id="Trazado_907936" data-name="Trazado 907936" d="M32.941,341.644H36.7a.941.941,0,0,0,.941-.941v-3.763A.941.941,0,0,0,36.7,336H32.941a.941.941,0,0,0-.941.941V340.7A.941.941,0,0,0,32.941,341.644Zm.941-3.763h1.881v1.881H33.881Zm0,0" transform="translate(-28.237 -296.491)"/>
      <path id="Trazado_907937" data-name="Trazado 907937" d="M100.7,336H96.941a.941.941,0,0,0-.941.941V340.7a.941.941,0,0,0,.941.941H100.7a.941.941,0,0,0,.941-.941v-3.763A.941.941,0,0,0,100.7,336Zm-.941,3.763H97.881v-1.881h1.881Zm0,0" transform="translate(-84.712 -296.491)"/>
      <path id="Trazado_907938" data-name="Trazado 907938" d="M32.941,405.644H36.7a.941.941,0,0,0,.941-.941v-3.763A.941.941,0,0,0,36.7,400H32.941a.941.941,0,0,0-.941.941V404.7A.941.941,0,0,0,32.941,405.644Zm.941-3.763h1.881v1.881H33.881Zm0,0" transform="translate(-28.237 -352.966)"/>
      <path id="Trazado_907939" data-name="Trazado 907939" d="M100.7,400H96.941a.941.941,0,0,0-.941.941V404.7a.941.941,0,0,0,.941.941H100.7a.941.941,0,0,0,.941-.941v-3.763A.941.941,0,0,0,100.7,400Zm-.941,3.763H97.881v-1.881h1.881Zm0,0" transform="translate(-84.712 -352.966)"/>
      <path id="Trazado_907940" data-name="Trazado 907940" d="M164.7,336h-3.763a.941.941,0,0,0-.941.941V340.7a.941.941,0,0,0,.941.941H164.7a.941.941,0,0,0,.941-.941v-3.763A.941.941,0,0,0,164.7,336Zm-.941,3.763h-1.881v-1.881h1.881Zm0,0" transform="translate(-141.186 -296.491)"/>
      <path id="Trazado_907941" data-name="Trazado 907941" d="M164.7,400h-3.763a.941.941,0,0,0-.941.941V404.7a.941.941,0,0,0,.941.941H164.7a.941.941,0,0,0,.941-.941v-3.763A.941.941,0,0,0,164.7,400Zm-.941,3.763h-1.881v-1.881h1.881Zm0,0" transform="translate(-141.186 -352.966)"/>
      <path id="Trazado_907942" data-name="Trazado 907942" d="M160,272h1.881v1.881H160Zm0,0" transform="translate(-141.186 -240.017)"/>
      <path id="Trazado_907943" data-name="Trazado 907943" d="M128,272h1.881v1.881H128Zm0,0" transform="translate(-112.949 -240.017)"/>
      <path id="Trazado_907944" data-name="Trazado 907944" d="M96,272h1.881v1.881H96Zm0,0" transform="translate(-84.712 -240.017)"/>
      <path id="Trazado_907945" data-name="Trazado 907945" d="M338.7,64v1.881h-.282a2.578,2.578,0,0,0-.807,5.019l3.447,1.15a.672.672,0,0,1,.46.627v.029a.7.7,0,0,1-.7.7h-2.352a.715.715,0,0,1-.715-.715v-.226H335.88v.226a2.6,2.6,0,0,0,2.6,2.6h.226V77.17h1.881V75.288h.243a2.6,2.6,0,0,0,2.58-2.514v-.053a2.55,2.55,0,0,0-1.746-2.456l-3.448-1.149a.688.688,0,0,1-.46-.683.673.673,0,0,1,.672-.671h2.385a.715.715,0,0,1,.715.715V68.7h1.881v-.226a2.6,2.6,0,0,0-2.6-2.6h-.226V64Zm0,0" transform="translate(-296.371 -56.474)"/>
      <path id="Trazado_907946" data-name="Trazado 907946" d="M134.031,8.164c-.011-.03-.018-.058-.031-.088a.934.934,0,0,0-.188-.276L126.286.276a.941.941,0,0,0-.275-.188c-.03-.013-.059-.021-.09-.031a.9.9,0,0,0-.241-.048c-.017,0-.036-.008-.057-.008H97.4a.941.941,0,0,0-.941.941V3.763h-.941a.941.941,0,0,0-.941.941V8.291l-.941.085A2.822,2.822,0,0,0,88,8.471v5.644a2.822,2.822,0,1,0,5.644.09l.941.085v3.583a.941.941,0,0,0,.941.941h.941V20.7h1.881V18.814h1.881V20.7h1.881V18.814h.941a.941.941,0,0,0,.941-.941V4.7a.941.941,0,0,0-.941-.941h-.941V1.881H113.4V28.221h-6.585V30.1h7.526a.941.941,0,0,0,.941-.941V1.881h9.407V8.466a.941.941,0,0,0,.941.941h6.585V52.679h.941a.941.941,0,0,0,.941-.941V8.466c0-.02-.011-.038-.011-.057A.926.926,0,0,0,134.031,8.164ZM96.463,5.644h5.644V7.607l-5.644.513ZM102.107,9.5v3.584l-5.644-.514V10.01Zm-9.321,2.728a.955.955,0,0,0-.72.243.941.941,0,0,0-.306.7v.941a.941.941,0,0,1-1.881,0V8.466a.941.941,0,0,1,1.881,0v.941a.941.941,0,0,0,1.026.941l1.8-.166V12.4Zm3.677,4.7V14.457l5.644.513v1.963Zm3.763-13.17H98.345V1.881h1.881Zm26.339,3.763V3.212l4.314,4.314Zm0,0" transform="translate(-77.649)"/>
      <path id="Trazado_907947" data-name="Trazado 907947" d="M336,192h13.17v1.881H336Zm0,0" transform="translate(-296.491 -169.423)"/>
      <path id="Trazado_907948" data-name="Trazado 907948" d="M336,224h13.17v1.881H336Zm0,0" transform="translate(-296.491 -197.661)"/>
      <path id="Trazado_907949" data-name="Trazado 907949" d="M336,256h13.17v1.881H336Zm0,0" transform="translate(-296.491 -225.898)"/>
      <path id="Trazado_907950" data-name="Trazado 907950" d="M368,288h9.407v1.881H368Zm0,0" transform="translate(-324.728 -254.135)"/>
      <path id="Trazado_907951" data-name="Trazado 907951" d="M368,320h9.407v1.881H368Zm0,0" transform="translate(-324.728 -282.372)"/>
      <path id="Trazado_907952" data-name="Trazado 907952" d="M416,160h3.763v1.881H416Zm0,0" transform="translate(-367.084 -141.186)"/>
      <path id="Trazado_907953" data-name="Trazado 907953" d="M256,288h4.7v1.881H256Zm0,0" transform="translate(-225.898 -254.135)"/>
      <path id="Trazado_907954" data-name="Trazado 907954" d="M256,320h3.763v1.881H256Zm0,0" transform="translate(-225.898 -282.372)"/>
      <path id="Trazado_907955" data-name="Trazado 907955" d="M256,352h3.763v1.881H256Zm0,0" transform="translate(-225.898 -310.61)"/>
    </g>
  </g>
</svg>
