<svg xmlns="http://www.w3.org/2000/svg" xmlns:xlink="http://www.w3.org/1999/xlink" width="113" height="113" viewBox="0 0 113 113">
  <defs>
    <filter id="Trazado_896985" x="0" y="0" width="113" height="113" filterUnits="userSpaceOnUse">
      <feOffset dy="3" input="SourceAlpha"/>
      <feGaussianBlur stdDeviation="3" result="blur"/>
      <feFlood flood-opacity="0.161"/>
      <feComposite operator="in" in2="blur"/>
      <feComposite in="SourceGraphic"/>
    </filter>
  </defs>
  <g id="Grupo_1114806" data-name="Grupo 1114806" transform="translate(-326.051 -1802)">
    <g id="Grupo_1112956" data-name="Grupo 1112956" transform="translate(-5.73 -2044)">
      <g id="Grupo_1109826" data-name="Grupo 1109826" transform="translate(340.781 3852)">
        <g id="Grupo_1098742" data-name="Grupo 1098742">
          <g transform="matrix(1, 0, 0, 1, -9, -6)" filter="url(#Trazado_896985)">
            <g id="Trazado_896985-2" data-name="Trazado 896985" transform="translate(9 6)" fill="#fd9826" opacity="0.859">
              <path d="M 47.49993515014648 93.5 C 41.28932189941406 93.5 35.26528167724609 92.28397369384766 29.59514808654785 89.88571929931641 C 24.1176815032959 87.56894683837891 19.1981086730957 84.25197601318359 14.97306823730469 80.02693176269531 C 10.74802875518799 75.80189514160156 7.431055068969727 70.88231658935547 5.11428165435791 65.40485382080078 C 2.716028451919556 59.73471832275391 1.500001788139343 53.71067810058594 1.500001788139343 47.50006484985352 C 1.500001788139343 41.28932189941406 2.716028451919556 35.26528167724609 5.11428165435791 29.59514617919922 C 7.431055068969727 24.11767959594727 10.74802875518799 19.19810676574707 14.97306823730469 14.97306632995605 C 19.1981086730957 10.74802684783936 24.1176815032959 7.431053161621094 29.59514808654785 5.114280223846436 C 35.26528167724609 2.716026782989502 41.28932189941406 1.5 47.49993515014648 1.5 C 53.71054840087891 1.5 59.73458862304688 2.716026782989502 65.40472412109375 5.114280223846436 C 70.88218688964844 7.431053161621094 75.80176544189453 10.74802684783936 80.02680206298828 14.97306632995605 C 84.25183868408203 19.19810676574707 87.56881713867188 24.11767959594727 89.88558959960938 29.59514617919922 C 92.28384399414062 35.26528167724609 93.49987030029297 41.28932189941406 93.49987030029297 47.49993515014648 C 93.49987030029297 53.71067810058594 92.28384399414062 59.73471832275391 89.88558959960938 65.40485382080078 C 87.56881713867188 70.88231658935547 84.25183868408203 75.80189514160156 80.02680206298828 80.02693176269531 C 75.80176544189453 84.25197601318359 70.88218688964844 87.56894683837891 65.40472412109375 89.88571929931641 C 59.73458862304688 92.28397369384766 53.71054840087891 93.5 47.49993515014648 93.5 Z" stroke="none"/>
              <path d="M 47.49993515014648 3 C 41.49116516113281 3 35.66371917724609 4.176155090332031 30.17947387695312 6.495796203613281 C 24.88081359863281 8.7369384765625 20.12149047851562 11.94596862792969 16.03372192382812 16.03372192382812 C 11.94596862792969 20.12149047851562 8.7369384765625 24.88081359863281 6.495796203613281 30.17947387695312 C 4.1761474609375 35.66372299194336 3 41.49116897583008 3 47.50006103515625 C 3 53.50883102416992 4.1761474609375 59.33627700805664 6.495796203613281 64.82052612304688 C 8.7369384765625 70.11918640136719 11.94596862792969 74.87850952148438 16.03372192382812 78.96627807617188 C 20.12149047851562 83.05403137207031 24.88081359863281 86.2630615234375 30.17947387695312 88.50419616699219 C 35.66371917724609 90.82384490966797 41.49116516113281 92 47.49993515014648 92 C 53.50870513916016 92 59.33615112304688 90.82384490966797 64.82039642333984 88.50419616699219 C 70.11905670166016 86.2630615234375 74.87837982177734 83.05403137207031 78.96614837646484 78.96627807617188 C 83.05390167236328 74.87850952148438 86.26293182373047 70.11918640136719 88.50407409667969 64.82052612304688 C 90.82372283935547 59.33627700805664 91.99987030029297 53.50883102416992 91.99987030029297 47.49993896484375 C 91.99987030029297 41.49116897583008 90.82372283935547 35.66372299194336 88.50407409667969 30.17947387695312 C 86.26293182373047 24.88081359863281 83.05390167236328 20.12149047851562 78.96614837646484 16.03372192382812 C 74.87837982177734 11.94596862792969 70.11905670166016 8.7369384765625 64.82039642333984 6.495796203613281 C 59.33615112304688 4.176155090332031 53.50870513916016 3 47.49993515014648 3 M 47.49993515014648 0 C 73.73342895507812 0 94.99987030029297 21.26644897460938 94.99987030029297 47.49993896484375 L 94.99987030029297 47.50006103515625 C 94.99987030029297 73.73355102539062 73.73342895507812 95 47.49993515014648 95 C 21.26644134521484 95 0 73.73355102539062 0 47.50006103515625 L 0 47.49993896484375 C 0 21.26644897460938 21.26644134521484 0 47.49993515014648 0 Z" stroke="none" fill="#fff"/>
            </g>
          </g>
          <g id="Rectángulo_400907" data-name="Rectángulo 400907" transform="translate(0 0)" fill="none" stroke="#fff" stroke-width="3">
            <rect width="95" height="95" rx="47.5" stroke="none"/>
            <rect x="1.5" y="1.5" width="92" height="92" rx="46" fill="none"/>
          </g>
        </g>
      </g>
    </g>
    <g id="Grupo_1114805" data-name="Grupo 1114805" transform="translate(353.051 1825.263)">
      <path id="Trazado_907956" data-name="Trazado 907956" d="M64.253,177.847V210.07a2.556,2.556,0,0,1-2.556,2.556H10.157A2.556,2.556,0,0,1,7.6,210.07V177.847a2.681,2.681,0,0,1,2.681-2.681H61.572A2.681,2.681,0,0,1,64.253,177.847Z" transform="translate(-6.734 -154.538)" fill="#cf8bfc"/>
      <path id="Trazado_907957" data-name="Trazado 907957" d="M84.9,184.51V215.2a2.58,2.58,0,0,1-2.58,2.58H36.934a2.58,2.58,0,0,1-2.58-2.58V184.51" transform="translate(-30.436 -162.816)" fill="#cec1e8"/>
      <g id="Grupo_1114803" data-name="Grupo 1114803" transform="translate(3.917 15.657)">
        <path id="Trazado_907958" data-name="Trazado 907958" d="M59.626,137.045v33.837h-.383a5.475,5.475,0,0,0-5.089-3.457H36.931a2.581,2.581,0,0,1-2.581-2.579V134.154a2.581,2.581,0,0,1,2.581-2.581H54.154A5.472,5.472,0,0,1,59.626,137.045Z" transform="translate(-34.35 -131.573)" fill="#ede6f5"/>
        <path id="Trazado_907959" data-name="Trazado 907959" d="M281.275,134.153v30.693a2.58,2.58,0,0,1-2.58,2.579H261.472a5.392,5.392,0,0,0-.963.086,5.478,5.478,0,0,0-4.126,3.371H256V137.044a5.466,5.466,0,0,1,5.472-5.472h17.222A2.58,2.58,0,0,1,281.275,134.153Z" transform="translate(-230.724 -131.572)" fill="#ede6f5"/>
      </g>
      <path id="Trazado_907960" data-name="Trazado 907960" d="M260.509,132.312v35.854a5.478,5.478,0,0,0-4.126,3.371H256V137.7A5.474,5.474,0,0,1,260.509,132.312Z" transform="translate(-226.807 -116.571)" fill="#cec1e8"/>
      <g id="Grupo_1114804" data-name="Grupo 1114804" transform="translate(8.428 1.796)">
        <path id="Trazado_907961" data-name="Trazado 907961" d="M86.839,19.089l1.978-.4a.874.874,0,0,0,0-1.714l-1.978-.4A4.951,4.951,0,0,1,82.97,12.7l-.4-1.978a.874.874,0,0,0-1.714,0l-.4,1.978a4.951,4.951,0,0,1-3.869,3.869l-1.978.4a.874.874,0,0,0,0,1.714l1.978.4a4.951,4.951,0,0,1,3.869,3.869l.4,1.978a.874.874,0,0,0,1.714,0l.4-1.978A4.951,4.951,0,0,1,86.839,19.089Z" transform="translate(-73.907 -10.026)" fill="#f9d366"/>
        <path id="Trazado_907962" data-name="Trazado 907962" d="M300.76,106.336l2.337-.474a1.033,1.033,0,0,0,0-2.024l-2.337-.474a5.849,5.849,0,0,1-4.57-4.57l-.474-2.337a1.033,1.033,0,0,0-2.024,0l-.474,2.337a5.849,5.849,0,0,1-4.57,4.57l-2.337.474a1.033,1.033,0,0,0,0,2.024l2.337.474a5.849,5.849,0,0,1,4.57,4.57l.474,2.337a1.033,1.033,0,0,0,2.024,0l.474-2.337A5.848,5.848,0,0,1,300.76,106.336Z" transform="translate(-261.356 -85.868)" fill="#f9d366"/>
      </g>
      <path id="Trazado_907963" data-name="Trazado 907963" d="M285.347,4.769a.867.867,0,0,0,.867-.867V1.6a.867.867,0,1,0-1.734,0V3.9A.867.867,0,0,0,285.347,4.769Z" transform="translate(-252.039)"/>
      <path id="Trazado_907964" data-name="Trazado 907964" d="M285.347,59.02a.867.867,0,0,0,.867-.867v-2.3a.867.867,0,0,0-1.734,0v2.3A.867.867,0,0,0,285.347,59.02Z" transform="translate(-252.039 -48.064)"/>
      <path id="Trazado_907965" data-name="Trazado 907965" d="M302.4,39.672h2.3a.867.867,0,0,0,0-1.734h-2.3a.867.867,0,1,0,0,1.734Z" transform="translate(-267.144 -32.959)"/>
      <path id="Trazado_907966" data-name="Trazado 907966" d="M248.147,39.672h2.3a.867.867,0,0,0,0-1.734h-2.3a.867.867,0,0,0,0,1.734Z" transform="translate(-219.081 -32.959)"/>
      <path id="Trazado_907967" data-name="Trazado 907967" d="M6.417,225.854H3.422a1.69,1.69,0,0,1-1.688-1.688V191.942a.867.867,0,0,0-1.734,0v32.223a3.426,3.426,0,0,0,3.422,3.422H6.417a.867.867,0,1,0,0-1.734Z" transform="translate(0 -168.633)"/>
      <path id="Trazado_907968" data-name="Trazado 907968" d="M81.215,131.621a.867.867,0,0,0-.867.867v32.223a1.69,1.69,0,0,1-1.689,1.688h-24.9v-1.387H75.583a3.451,3.451,0,0,0,3.448-3.448V127.416a3.451,3.451,0,0,0-3.448-3.448H70.242a.867.867,0,1,0,0,1.734h5.342a1.715,1.715,0,0,1,1.713,1.713v30.693a1.715,1.715,0,0,1-1.713,1.712H58.361a6.309,6.309,0,0,0-4.6,1.975V130.307a4.61,4.61,0,0,1,4.6-4.6h2.284a.867.867,0,0,0,0-1.734H58.361a6.341,6.341,0,0,0-5.472,3.145,6.341,6.341,0,0,0-5.472-3.145H43.741a.867.867,0,0,0,0,1.734h3.676a4.61,4.61,0,0,1,4.6,4.6V161.8a6.31,6.31,0,0,0-4.6-1.975H30.194a1.715,1.715,0,0,1-1.713-1.712V127.416a1.715,1.715,0,0,1,1.713-1.713h6.148a.867.867,0,1,0,0-1.734H30.194a3.451,3.451,0,0,0-3.448,3.448v34.148a3.451,3.451,0,0,0,3.448,3.448H52.022V166.4H33a.867.867,0,0,0,0,1.734H78.659a3.427,3.427,0,0,0,3.423-3.422V132.488A.867.867,0,0,0,81.215,131.621ZM58.361,161.555H75.583A3.426,3.426,0,0,0,77.3,161.1v.467a1.715,1.715,0,0,1-1.713,1.713H54.765A4.581,4.581,0,0,1,58.361,161.555Zm-29.881.009V161.1a3.426,3.426,0,0,0,1.713.458H47.417a4.582,4.582,0,0,1,3.6,1.723H30.194A1.715,1.715,0,0,1,28.48,161.564Z" transform="translate(-23.696 -109.178)"/>
      <path id="Trazado_907969" data-name="Trazado 907969" d="M88.514,193.706H74.484a.867.867,0,1,0,0,1.734H88.514a.867.867,0,1,0,0-1.734Z" transform="translate(-65.222 -170.964)"/>
      <path id="Trazado_907970" data-name="Trazado 907970" d="M88.514,230.923H74.484a.867.867,0,0,0,0,1.734H88.514a.867.867,0,1,0,0-1.734Z" transform="translate(-65.222 -203.937)"/>
      <path id="Trazado_907971" data-name="Trazado 907971" d="M173.3,305.357h-3.116a.867.867,0,1,0,0,1.734H173.3a.867.867,0,1,0,0-1.734Z" transform="translate(-150.01 -269.883)"/>
      <path id="Trazado_907972" data-name="Trazado 907972" d="M74.484,307.091h8.023a.867.867,0,0,0,0-1.734H74.484a.867.867,0,0,0,0,1.734Z" transform="translate(-65.222 -269.883)"/>
      <path id="Trazado_907973" data-name="Trazado 907973" d="M88.514,379.79H74.484a.867.867,0,0,0,0,1.734H88.514a.867.867,0,0,0,0-1.734Z" transform="translate(-65.222 -335.827)"/>
      <path id="Trazado_907974" data-name="Trazado 907974" d="M88.514,268.14H74.484a.867.867,0,0,0,0,1.734H88.514a.867.867,0,0,0,0-1.734Z" transform="translate(-65.222 -236.91)"/>
      <path id="Trazado_907975" data-name="Trazado 907975" d="M88.514,342.574H74.484a.867.867,0,1,0,0,1.734H88.514a.867.867,0,1,0,0-1.734Z" transform="translate(-65.222 -302.855)"/>
      <path id="Trazado_907976" data-name="Trazado 907976" d="M306.868,232.657h2.055a.867.867,0,0,0,0-1.734h-2.055a.867.867,0,0,0,0,1.734Z" transform="translate(-271.106 -203.937)"/>
      <path id="Trazado_907977" data-name="Trazado 907977" d="M399.287,230.923h-3.94a.867.867,0,0,0,0,1.734h3.94a.867.867,0,1,0,0-1.734Z" transform="translate(-349.495 -203.937)"/>
      <path id="Trazado_907978" data-name="Trazado 907978" d="M320.9,305.357H306.868a.867.867,0,1,0,0,1.734H320.9a.867.867,0,1,0,0-1.734Z" transform="translate(-271.106 -269.883)"/>
      <path id="Trazado_907979" data-name="Trazado 907979" d="M306.868,381.524H320.9a.867.867,0,0,0,0-1.734H306.868a.867.867,0,0,0,0,1.734Z" transform="translate(-271.106 -335.827)"/>
      <path id="Trazado_907980" data-name="Trazado 907980" d="M320.9,268.14H306.868a.867.867,0,0,0,0,1.734H320.9a.867.867,0,0,0,0-1.734Z" transform="translate(-271.106 -236.91)"/>
      <path id="Trazado_907981" data-name="Trazado 907981" d="M306.868,344.308h2.039a.867.867,0,1,0,0-1.734h-2.039a.867.867,0,1,0,0,1.734Z" transform="translate(-271.106 -302.855)"/>
      <path id="Trazado_907982" data-name="Trazado 907982" d="M359.193,342.574h-9.1a.867.867,0,1,0,0,1.734h9.1a.867.867,0,1,0,0-1.734Z" transform="translate(-309.401 -302.855)"/>
      <path id="Trazado_907983" data-name="Trazado 907983" d="M67.7,12.8l1.978.4a4.077,4.077,0,0,1,3.191,3.191l.4,1.979a1.726,1.726,0,0,0,1.707,1.4h0a1.726,1.726,0,0,0,1.707-1.4l.4-1.978A4.077,4.077,0,0,1,80.274,13.2l1.978-.4a1.741,1.741,0,0,0,0-3.413l-1.978-.4a4.077,4.077,0,0,1-3.191-3.191l-.4-1.978a1.742,1.742,0,0,0-3.414,0l-.4,1.978a4.077,4.077,0,0,1-3.191,3.191l-1.978.4a1.741,1.741,0,0,0,0,3.413Zm.339-1.712h.005l1.978-.4a5.808,5.808,0,0,0,4.546-4.546l.4-1.978V4.155h.012v.005l.4,1.978a5.808,5.808,0,0,0,4.546,4.546l1.978.4h.006a.1.1,0,0,1,0,.012h-.006l-1.978.4a5.808,5.808,0,0,0-4.546,4.546l-.4,1.978v.005h-.012v-.005l-.4-1.979A5.808,5.808,0,0,0,70.02,11.5l-1.978-.4h-.005S68.036,11.092,68.036,11.088Z" transform="translate(-58.741 -1.492)"/>
      <path id="Trazado_907984" data-name="Trazado 907984" d="M281.738,95.777l-2.337.474a1.9,1.9,0,0,0,0,3.724l2.337.474a4.973,4.973,0,0,1,3.893,3.892l.474,2.337a1.9,1.9,0,0,0,3.724,0l.474-2.337a4.973,4.973,0,0,1,3.892-3.892l2.337-.474a1.9,1.9,0,0,0,0-3.724l-2.337-.474a4.973,4.973,0,0,1-3.892-3.892l-.474-2.337a1.9,1.9,0,0,0-3.724,0l-.474,2.337A4.973,4.973,0,0,1,281.738,95.777Zm5.592-3.548.474-2.337a.165.165,0,0,1,.324,0l.474,2.337a6.7,6.7,0,0,0,5.248,5.248l2.337.474a.166.166,0,0,1,0,.325l-2.337.474A6.7,6.7,0,0,0,288.6,104l-.474,2.337a.165.165,0,0,1-.324,0L287.33,104a6.7,6.7,0,0,0-5.248-5.248l-2.337-.474a.166.166,0,0,1,0-.325l2.337-.474A6.7,6.7,0,0,0,287.33,92.229Z" transform="translate(-246.191 -77.334)"/>
    </g>
  </g>
</svg>
