<svg xmlns="http://www.w3.org/2000/svg" xmlns:xlink="http://www.w3.org/1999/xlink" width="113" height="113" viewBox="0 0 113 113">
  <defs>
    <filter id="Trazado_896985" x="0" y="0" width="113" height="113" filterUnits="userSpaceOnUse">
      <feOffset dy="3" input="SourceAlpha"/>
      <feGaussianBlur stdDeviation="3" result="blur"/>
      <feFlood flood-opacity="0.161"/>
      <feComposite operator="in" in2="blur"/>
      <feComposite in="SourceGraphic"/>
    </filter>
  </defs>
  <g id="Grupo_1114818" data-name="Grupo 1114818" transform="translate(-741.051 -1802)">
    <g id="Grupo_1112955" data-name="Grupo 1112955" transform="translate(-5.725 -2044)">
      <g id="Grupo_1109827" data-name="Grupo 1109827" transform="translate(755.775 3852)">
        <g id="Grupo_1098742" data-name="Grupo 1098742">
          <g transform="matrix(1, 0, 0, 1, -9, -6)" filter="url(#Trazado_896985)">
            <g id="Trazado_896985-2" data-name="Trazado 896985" transform="translate(9 6)" fill="#5ab4f9" opacity="0.859">
              <path d="M 47.49993515014648 93.5 C 41.28932189941406 93.5 35.26528167724609 92.28397369384766 29.59514808654785 89.88571929931641 C 24.1176815032959 87.56894683837891 19.1981086730957 84.25197601318359 14.97306823730469 80.02693176269531 C 10.74802875518799 75.80189514160156 7.431055068969727 70.88231658935547 5.11428165435791 65.40485382080078 C 2.716028451919556 59.73471832275391 1.500001788139343 53.71067810058594 1.500001788139343 47.50006484985352 C 1.500001788139343 41.28932189941406 2.716028451919556 35.26528167724609 5.11428165435791 29.59514617919922 C 7.431055068969727 24.11767959594727 10.74802875518799 19.19810676574707 14.97306823730469 14.97306632995605 C 19.1981086730957 10.74802684783936 24.1176815032959 7.431053161621094 29.59514808654785 5.114280223846436 C 35.26528167724609 2.716026782989502 41.28932189941406 1.5 47.49993515014648 1.5 C 53.71054840087891 1.5 59.73458862304688 2.716026782989502 65.40472412109375 5.114280223846436 C 70.88218688964844 7.431053161621094 75.80176544189453 10.74802684783936 80.02680206298828 14.97306632995605 C 84.25183868408203 19.19810676574707 87.56881713867188 24.11767959594727 89.88558959960938 29.59514617919922 C 92.28384399414062 35.26528167724609 93.49987030029297 41.28932189941406 93.49987030029297 47.49993515014648 C 93.49987030029297 53.71067810058594 92.28384399414062 59.73471832275391 89.88558959960938 65.40485382080078 C 87.56881713867188 70.88231658935547 84.25183868408203 75.80189514160156 80.02680206298828 80.02693176269531 C 75.80176544189453 84.25197601318359 70.88218688964844 87.56894683837891 65.40472412109375 89.88571929931641 C 59.73458862304688 92.28397369384766 53.71054840087891 93.5 47.49993515014648 93.5 Z" stroke="none"/>
              <path d="M 47.49993515014648 3 C 41.49116516113281 3 35.66371917724609 4.176155090332031 30.17947387695312 6.495796203613281 C 24.88081359863281 8.7369384765625 20.12149047851562 11.94596862792969 16.03372192382812 16.03372192382812 C 11.94596862792969 20.12149047851562 8.7369384765625 24.88081359863281 6.495796203613281 30.17947387695312 C 4.1761474609375 35.66372299194336 3 41.49116897583008 3 47.50006103515625 C 3 53.50883102416992 4.1761474609375 59.33627700805664 6.495796203613281 64.82052612304688 C 8.7369384765625 70.11918640136719 11.94596862792969 74.87850952148438 16.03372192382812 78.96627807617188 C 20.12149047851562 83.05403137207031 24.88081359863281 86.2630615234375 30.17947387695312 88.50419616699219 C 35.66371917724609 90.82384490966797 41.49116516113281 92 47.49993515014648 92 C 53.50870513916016 92 59.33615112304688 90.82384490966797 64.82039642333984 88.50419616699219 C 70.11905670166016 86.2630615234375 74.87837982177734 83.05403137207031 78.96614837646484 78.96627807617188 C 83.05390167236328 74.87850952148438 86.26293182373047 70.11918640136719 88.50407409667969 64.82052612304688 C 90.82372283935547 59.33627700805664 91.99987030029297 53.50883102416992 91.99987030029297 47.49993896484375 C 91.99987030029297 41.49116897583008 90.82372283935547 35.66372299194336 88.50407409667969 30.17947387695312 C 86.26293182373047 24.88081359863281 83.05390167236328 20.12149047851562 78.96614837646484 16.03372192382812 C 74.87837982177734 11.94596862792969 70.11905670166016 8.7369384765625 64.82039642333984 6.495796203613281 C 59.33615112304688 4.176155090332031 53.50870513916016 3 47.49993515014648 3 M 47.49993515014648 0 C 73.73342895507812 0 94.99987030029297 21.26644897460938 94.99987030029297 47.49993896484375 L 94.99987030029297 47.50006103515625 C 94.99987030029297 73.73355102539062 73.73342895507812 95 47.49993515014648 95 C 21.26644134521484 95 0 73.73355102539062 0 47.50006103515625 L 0 47.49993896484375 C 0 21.26644897460938 21.26644134521484 0 47.49993515014648 0 Z" stroke="none" fill="#fff"/>
            </g>
          </g>
          <g id="Rectángulo_400907" data-name="Rectángulo 400907" transform="translate(0 0)" fill="none" stroke="#fff" stroke-width="3">
            <rect width="95" height="95" rx="47.5" stroke="none"/>
            <rect x="1.5" y="1.5" width="92" height="92" rx="46" fill="none"/>
          </g>
        </g>
      </g>
    </g>
    <g id="Grupo_1114817" data-name="Grupo 1114817" transform="translate(767.051 1811.645)">
      <g id="Grupo_1114815" data-name="Grupo 1114815" transform="translate(0.9 15.255)">
        <g id="Grupo_1114814" data-name="Grupo 1114814">
          <path id="Trazado_907985" data-name="Trazado 907985" d="M256,442.224v5.149a.6.6,0,0,0,.868.537l3.6-1.8a.6.6,0,0,0,.332-.537v-3.349Z" transform="translate(-226.179 -391.778)" fill="#fe646f"/>
          <g id="Grupo_1114807" data-name="Grupo 1114807" transform="translate(8.396)">
            <path id="Trazado_907986" data-name="Trazado 907986" d="M380.538,26.327h1.2a1.765,1.765,0,0,0,.661-.129l4.4-1.78a.353.353,0,0,0,0-.654l-4.4-1.78a1.765,1.765,0,0,0-.661-.129h-1.2Z" transform="translate(-344.168 -21.856)" fill="#596c76"/>
            <path id="Trazado_907987" data-name="Trazado 907987" d="M386.8,31.357l-2.159-.873-2.243.907a1.765,1.765,0,0,1-.661.129h-1.2v2.4h1.2a1.765,1.765,0,0,0,.661-.129l4.4-1.78A.353.353,0,0,0,386.8,31.357Z" transform="translate(-344.168 -29.448)" fill="#465a61"/>
            <path id="Trazado_907988" data-name="Trazado 907988" d="M77.462,24.091A2.236,2.236,0,0,0,79.7,26.326h34.255V21.855H79.7A2.236,2.236,0,0,0,77.462,24.091Z" transform="translate(-77.462 -21.855)" fill="#ffe177"/>
            <path id="Trazado_907989" data-name="Trazado 907989" d="M77.47,39.114c0,.054-.008.109-.008.165A2.236,2.236,0,0,0,79.7,41.514h34.255v-2.4Z" transform="translate(-77.462 -37.043)" fill="#ffd15b"/>
          </g>
          <path id="Trazado_907990" data-name="Trazado 907990" d="M67.142,136.873V101.506a3,3,0,0,0-3-3H10.5a3,3,0,0,0-3,3v35.367a3,3,0,0,0,3,3H64.142A3,3,0,0,0,67.142,136.873Z" transform="translate(-7.5 -89.308)" fill="#f5f8f9"/>
          <path id="Trazado_907991" data-name="Trazado 907991" d="M64.142,98.506h-1.8v35.367a1.2,1.2,0,0,1-1.2,1.2H7.5v1.8a3,3,0,0,0,3,3H64.142a3,3,0,0,0,3-3V101.506A3,3,0,0,0,64.142,98.506Z" transform="translate(-7.5 -89.308)" fill="#e8edf2"/>
          <path id="Trazado_907992" data-name="Trazado 907992" d="M282.821,98.506H256v41.367h26.821a3,3,0,0,0,3-3V101.506A3,3,0,0,0,282.821,98.506Z" transform="translate(-226.179 -89.308)" fill="#e8edf2"/>
          <path id="Trazado_907993" data-name="Trazado 907993" d="M282.821,98.506h-1.8v35.367a1.2,1.2,0,0,1-1.2,1.2H256v4.8h26.821a3,3,0,0,0,3-3V101.506A3,3,0,0,0,282.821,98.506Z" transform="translate(-226.179 -89.308)" fill="#d9e7ec"/>
          <g id="Grupo_1114813" data-name="Grupo 1114813" transform="translate(5.506 18.441)">
            <g id="Grupo_1114812" data-name="Grupo 1114812">
              <g id="Grupo_1114808" data-name="Grupo 1114808">
                <path id="Trazado_907994" data-name="Trazado 907994" d="M56.143,178.888h-2.16a.6.6,0,0,1-.6-.6v-2.16a.6.6,0,0,1,.6-.6h2.16a.6.6,0,0,1,.6.6v2.16A.6.6,0,0,1,56.143,178.888Z" transform="translate(-53.383 -175.528)" fill="#5de1c4"/>
              </g>
              <g id="Grupo_1114809" data-name="Grupo 1114809" transform="translate(0 7.59)">
                <path id="Trazado_907995" data-name="Trazado 907995" d="M56.143,242.134h-2.16a.6.6,0,0,1-.6-.6v-2.16a.6.6,0,0,1,.6-.6h2.16a.6.6,0,0,1,.6.6v2.16A.6.6,0,0,1,56.143,242.134Z" transform="translate(-53.383 -238.774)" fill="#5de1c4"/>
              </g>
              <g id="Grupo_1114810" data-name="Grupo 1114810" transform="translate(0 15.179)">
                <path id="Trazado_907996" data-name="Trazado 907996" d="M56.143,305.379h-2.16a.6.6,0,0,1-.6-.6v-2.16a.6.6,0,0,1,.6-.6h2.16a.6.6,0,0,1,.6.6v2.16A.6.6,0,0,1,56.143,305.379Z" transform="translate(-53.383 -302.019)" fill="#5de1c4"/>
              </g>
              <g id="Grupo_1114811" data-name="Grupo 1114811" transform="translate(0 22.769)">
                <path id="Trazado_907997" data-name="Trazado 907997" d="M56.143,368.624h-2.16a.6.6,0,0,1-.6-.6v-2.16a.6.6,0,0,1,.6-.6h2.16a.6.6,0,0,1,.6.6v2.16A.6.6,0,0,1,56.143,368.624Z" transform="translate(-53.383 -365.264)" fill="#5de1c4"/>
              </g>
            </g>
          </g>
        </g>
      </g>
      <g id="Grupo_1114816" data-name="Grupo 1114816" transform="translate(0 14.355)">
        <path id="Trazado_907998" data-name="Trazado 907998" d="M294.383,181.438a.9.9,0,0,0,.9.9h18.809a.9.9,0,1,0,0-1.8H295.283A.9.9,0,0,0,294.383,181.438Z" transform="translate(-259.056 -160.595)"/>
        <path id="Trazado_907999" data-name="Trazado 907999" d="M314.092,243.783H295.283a.9.9,0,0,0,0,1.8h18.809a.9.9,0,1,0,0-1.8Z" transform="translate(-259.056 -216.251)"/>
        <path id="Trazado_908000" data-name="Trazado 908000" d="M314.092,307.028H295.283a.9.9,0,0,0,0,1.8h18.809a.9.9,0,1,0,0-1.8Z" transform="translate(-259.056 -271.906)"/>
        <path id="Trazado_908001" data-name="Trazado 908001" d="M314.092,370.273H295.283a.9.9,0,1,0,0,1.8h18.809a.9.9,0,1,0,0-1.8Z" transform="translate(-259.056 -327.562)"/>
        <path id="Trazado_908002" data-name="Trazado 908002" d="M120.655,180.538h-11.3a.9.9,0,1,0,0,1.8h11.3a.9.9,0,1,0,0-1.8Z" transform="translate(-95.44 -160.595)"/>
        <path id="Trazado_908003" data-name="Trazado 908003" d="M120.655,243.783h-11.3a.9.9,0,0,0,0,1.8h11.3a.9.9,0,0,0,0-1.8Z" transform="translate(-95.44 -216.251)"/>
        <path id="Trazado_908004" data-name="Trazado 908004" d="M120.655,307.028h-11.3a.9.9,0,0,0,0,1.8h11.3a.9.9,0,0,0,0-1.8Z" transform="translate(-95.44 -271.906)"/>
        <path id="Trazado_908005" data-name="Trazado 908005" d="M120.655,370.273h-11.3a.9.9,0,1,0,0,1.8h11.3a.9.9,0,1,0,0-1.8Z" transform="translate(-95.44 -327.562)"/>
        <path id="Trazado_908006" data-name="Trazado 908006" d="M441.411,128.806a.9.9,0,0,0,0-1.8h-1.446a.9.9,0,0,0,0,1.8Z" transform="translate(-386.376 -113.487)"/>
        <path id="Trazado_908007" data-name="Trazado 908007" d="M48.229,128.806a.9.9,0,0,0,0-1.8H46.783a.9.9,0,0,0,0,1.8Z" transform="translate(-40.377 -113.487)"/>
        <path id="Trazado_908008" data-name="Trazado 908008" d="M51.043,169.529a1.5,1.5,0,0,0-1.5-1.5h-2.16a1.5,1.5,0,0,0-1.5,1.5v2.16a1.5,1.5,0,0,0,1.5,1.5h2.16a1.5,1.5,0,0,0,1.5-1.5Zm-1.8,1.86h-1.56v-1.56h1.56Z" transform="translate(-40.377 -149.588)"/>
        <path id="Trazado_908009" data-name="Trazado 908009" d="M51.043,232.774a1.5,1.5,0,0,0-1.5-1.5h-2.16a1.5,1.5,0,0,0-1.5,1.5v2.16a1.5,1.5,0,0,0,1.5,1.5h2.16a1.5,1.5,0,0,0,1.5-1.5Zm-1.8,1.86h-1.56v-1.56h1.56Z" transform="translate(-40.377 -205.243)"/>
        <path id="Trazado_908010" data-name="Trazado 908010" d="M51.043,296.019a1.5,1.5,0,0,0-1.5-1.5h-2.16a1.5,1.5,0,0,0-1.5,1.5v2.16a1.5,1.5,0,0,0,1.5,1.5h2.16a1.5,1.5,0,0,0,1.5-1.5Zm-1.8,1.86h-1.56v-1.56h1.56Z" transform="translate(-40.377 -260.898)"/>
        <path id="Trazado_908011" data-name="Trazado 908011" d="M49.543,357.764h-2.16a1.5,1.5,0,0,0-1.5,1.5v2.16a1.5,1.5,0,0,0,1.5,1.5h2.16a1.5,1.5,0,0,0,1.5-1.5v-2.16A1.5,1.5,0,0,0,49.543,357.764Zm-.3,3.36h-1.56v-1.56h1.56Z" transform="translate(-40.377 -316.554)"/>
        <path id="Trazado_908012" data-name="Trazado 908012" d="M73.1,20.626h35.33a2.654,2.654,0,0,0,1-.194l4.4-1.78a1.253,1.253,0,0,0,0-2.323l-4.4-1.78a2.651,2.651,0,0,0-1-.194H81.993a.9.9,0,0,0,0,1.8h24.46v2.671H73.1a1.336,1.336,0,0,1,0-2.671h4.694a.9.9,0,0,0,0-1.8H73.1a3.136,3.136,0,0,0,0,6.271Zm35.155-4.471h.176a.862.862,0,0,1,.324.063l3.148,1.273-3.148,1.272a.86.86,0,0,1-.324.063h-.176Z" transform="translate(-61.567 -14.355)"/>
        <path id="Trazado_908013" data-name="Trazado 908013" d="M57.542,91.006H48.676a.9.9,0,1,0,0,1.8h8.865a2.1,2.1,0,0,1,2.1,2.1v35.367a2.1,2.1,0,0,1-2.1,2.1H31.621v-7.464a.9.9,0,1,0-1.8,0v7.464H3.9a2.1,2.1,0,0,1-2.1-2.1V94.906a2.1,2.1,0,0,1,2.1-2.1H29.821v27.9a.9.9,0,0,0,1.8,0v-27.9H44.476a.9.9,0,0,0,0-1.8H3.9a3.9,3.9,0,0,0-3.9,3.9v35.367a3.9,3.9,0,0,0,3.9,3.9H29.821V138.3a1.5,1.5,0,0,0,2.171,1.342l3.6-1.8a1.492,1.492,0,0,0,.829-1.342v-2.329H57.542a3.9,3.9,0,0,0,3.9-3.9V94.906a3.9,3.9,0,0,0-3.9-3.9ZM34.621,136.317l-3,1.5v-3.644h3Z" transform="translate(0 -81.808)"/>
      </g>
    </g>
  </g>
</svg>
