<svg xmlns="http://www.w3.org/2000/svg" xmlns:xlink="http://www.w3.org/1999/xlink" width="113" height="113" viewBox="0 0 113 113">
  <defs>
    <filter id="Trazado_896985" x="0" y="0" width="113" height="113" filterUnits="userSpaceOnUse">
      <feOffset dy="3" input="SourceAlpha"/>
      <feGaussianBlur stdDeviation="3" result="blur"/>
      <feFlood flood-opacity="0.161"/>
      <feComposite operator="in" in2="blur"/>
      <feComposite in="SourceGraphic"/>
    </filter>
  </defs>
  <g id="Grupo_1114825" data-name="Grupo 1114825" transform="translate(-1161.051 -1802)">
    <g id="Grupo_1112957" data-name="Grupo 1112957" transform="translate(-5.949 -2044)">
      <g id="Grupo_1109828" data-name="Grupo 1109828" transform="translate(1176 3852)">
        <g id="Grupo_1098742" data-name="Grupo 1098742" transform="translate(0)">
          <g transform="matrix(1, 0, 0, 1, -9, -6)" filter="url(#Trazado_896985)">
            <g id="Trazado_896985-2" data-name="Trazado 896985" transform="translate(9 6)" fill="#5ab4f9" opacity="0.859">
              <path d="M 47.49993515014648 93.5 C 41.28932189941406 93.5 35.26528167724609 92.28397369384766 29.59514808654785 89.88571929931641 C 24.1176815032959 87.56894683837891 19.1981086730957 84.25197601318359 14.97306823730469 80.02693176269531 C 10.74802875518799 75.80189514160156 7.431055068969727 70.88231658935547 5.11428165435791 65.40485382080078 C 2.716028451919556 59.73471832275391 1.500001788139343 53.71067810058594 1.500001788139343 47.50006484985352 C 1.500001788139343 41.28932189941406 2.716028451919556 35.26528167724609 5.11428165435791 29.59514617919922 C 7.431055068969727 24.11767959594727 10.74802875518799 19.19810676574707 14.97306823730469 14.97306632995605 C 19.1981086730957 10.74802684783936 24.1176815032959 7.431053161621094 29.59514808654785 5.114280223846436 C 35.26528167724609 2.716026782989502 41.28932189941406 1.5 47.49993515014648 1.5 C 53.71054840087891 1.5 59.73458862304688 2.716026782989502 65.40472412109375 5.114280223846436 C 70.88218688964844 7.431053161621094 75.80176544189453 10.74802684783936 80.02680206298828 14.97306632995605 C 84.25183868408203 19.19810676574707 87.56881713867188 24.11767959594727 89.88558959960938 29.59514617919922 C 92.28384399414062 35.26528167724609 93.49987030029297 41.28932189941406 93.49987030029297 47.49993515014648 C 93.49987030029297 53.71067810058594 92.28384399414062 59.73471832275391 89.88558959960938 65.40485382080078 C 87.56881713867188 70.88231658935547 84.25183868408203 75.80189514160156 80.02680206298828 80.02693176269531 C 75.80176544189453 84.25197601318359 70.88218688964844 87.56894683837891 65.40472412109375 89.88571929931641 C 59.73458862304688 92.28397369384766 53.71054840087891 93.5 47.49993515014648 93.5 Z" stroke="none"/>
              <path d="M 47.49993515014648 3 C 41.49116516113281 3 35.66371917724609 4.176155090332031 30.17947387695312 6.495796203613281 C 24.88081359863281 8.7369384765625 20.12149047851562 11.94596862792969 16.03372192382812 16.03372192382812 C 11.94596862792969 20.12149047851562 8.7369384765625 24.88081359863281 6.495796203613281 30.17947387695312 C 4.1761474609375 35.66372299194336 3 41.49116897583008 3 47.50006103515625 C 3 53.50883102416992 4.1761474609375 59.33627700805664 6.495796203613281 64.82052612304688 C 8.7369384765625 70.11918640136719 11.94596862792969 74.87850952148438 16.03372192382812 78.96627807617188 C 20.12149047851562 83.05403137207031 24.88081359863281 86.2630615234375 30.17947387695312 88.50419616699219 C 35.66371917724609 90.82384490966797 41.49116516113281 92 47.49993515014648 92 C 53.50870513916016 92 59.33615112304688 90.82384490966797 64.82039642333984 88.50419616699219 C 70.11905670166016 86.2630615234375 74.87837982177734 83.05403137207031 78.96614837646484 78.96627807617188 C 83.05390167236328 74.87850952148438 86.26293182373047 70.11918640136719 88.50407409667969 64.82052612304688 C 90.82372283935547 59.33627700805664 91.99987030029297 53.50883102416992 91.99987030029297 47.49993896484375 C 91.99987030029297 41.49116897583008 90.82372283935547 35.66372299194336 88.50407409667969 30.17947387695312 C 86.26293182373047 24.88081359863281 83.05390167236328 20.12149047851562 78.96614837646484 16.03372192382812 C 74.87837982177734 11.94596862792969 70.11905670166016 8.7369384765625 64.82039642333984 6.495796203613281 C 59.33615112304688 4.176155090332031 53.50870513916016 3 47.49993515014648 3 M 47.49993515014648 0 C 73.73342895507812 0 94.99987030029297 21.26644897460938 94.99987030029297 47.49993896484375 L 94.99987030029297 47.50006103515625 C 94.99987030029297 73.73355102539062 73.73342895507812 95 47.49993515014648 95 C 21.26644134521484 95 0 73.73355102539062 0 47.50006103515625 L 0 47.49993896484375 C 0 21.26644897460938 21.26644134521484 0 47.49993515014648 0 Z" stroke="none" fill="#fff"/>
            </g>
          </g>
          <g id="Rectángulo_400907" data-name="Rectángulo 400907" transform="translate(0 0)" fill="none" stroke="#fff" stroke-width="3">
            <rect width="95" height="95" rx="47.5" stroke="none"/>
            <rect x="1.5" y="1.5" width="92" height="92" rx="46" fill="none"/>
          </g>
        </g>
      </g>
    </g>
    <g id="Grupo_1114824" data-name="Grupo 1114824" transform="translate(1188.051 1826)">
      <g id="Grupo_1114822" data-name="Grupo 1114822" transform="translate(0.865 0.866)">
        <g id="Grupo_1114819" data-name="Grupo 1114819" transform="translate(0 14.396)">
          <path id="Trazado_908014" data-name="Trazado 908014" d="M93.909,136.8v29.685l-24.321,1.919-24.321-1.919V136.8a4.559,4.559,0,0,1,4.56-4.56H89.349A4.559,4.559,0,0,1,93.909,136.8Z" transform="translate(-40.908 -132.243)" fill="#f6f9f9"/>
          <path id="Trazado_908015" data-name="Trazado 908015" d="M93.908,412.008v1.957l-24.321,1.919-24.321-1.919v-1.957Z" transform="translate(-40.907 -379.721)" fill="#dddaec"/>
          <path id="Trazado_908016" data-name="Trazado 908016" d="M46.242,167.357l-.972-.865V136.807a4.558,4.558,0,0,1,4.559-4.56h2.3a4.559,4.559,0,0,0-4.56,4.56v29.685Z" transform="translate(-40.911 -132.247)" fill="#dddaec"/>
          <path id="Trazado_908017" data-name="Trazado 908017" d="M60.505,428.972H11.864a4.358,4.358,0,1,0,0,8.716H60.505a4.358,4.358,0,1,0,0-8.716Z" transform="translate(-7.505 -394.727)" fill="#f6f9f9"/>
          <path id="Trazado_908018" data-name="Trazado 908018" d="M64.161,435.689a4.354,4.354,0,0,1-3.662,2H11.858a4.358,4.358,0,1,1,0-8.717h1.4a4.358,4.358,0,0,0,3.662,6.721H64.161Z" transform="translate(-7.499 -394.723)" fill="#dddaec"/>
          <path id="Trazado_908019" data-name="Trazado 908019" d="M83.267,193.575V172.557a2.315,2.315,0,0,1,2.315-2.315h35.24a2.315,2.315,0,0,1,2.315,2.315v21.017A2.141,2.141,0,0,1,121,195.716H85.408A2.141,2.141,0,0,1,83.267,193.575Z" transform="translate(-74.523 -165.857)" fill="#9dc6fb"/>
          <path id="Trazado_908020" data-name="Trazado 908020" d="M88.775,195.718H85.408a2.141,2.141,0,0,1-2.141-2.141V172.56a2.315,2.315,0,0,1,2.315-2.315H88.95a2.315,2.315,0,0,0-2.315,2.315v21.017A2.142,2.142,0,0,0,88.775,195.718Z" transform="translate(-74.523 -165.859)" fill="#80b4fb"/>
          <path id="Trazado_908021" data-name="Trazado 908021" d="M192.446,432.81H182.2a3.838,3.838,0,0,1-3.838-3.838h17.921A3.838,3.838,0,0,1,192.446,432.81Z" transform="translate(-158.644 -394.727)" fill="#d0cee7"/>
        </g>
        <g id="Grupo_1114820" data-name="Grupo 1114820" transform="translate(33.358 23.11)">
          <path id="Trazado_908022" data-name="Trazado 908022" d="M300.143,225.936h16.786a3.607,3.607,0,0,0,3.607-3.607V211.35a3.607,3.607,0,0,0-3.607-3.607H300.143a3.607,3.607,0,0,0-3.607,3.607v10.978A3.608,3.608,0,0,0,300.143,225.936Z" transform="translate(-296.536 -207.743)" fill="#dd636e"/>
          <path id="Trazado_908023" data-name="Trazado 908023" d="M301.851,225.937h-1.707a3.607,3.607,0,0,1-3.607-3.607V211.351a3.607,3.607,0,0,1,3.607-3.607h1.707a3.607,3.607,0,0,0-3.607,3.607v10.978A3.607,3.607,0,0,0,301.851,225.937Z" transform="translate(-296.537 -207.744)" fill="#da4a54"/>
          <path id="Trazado_908024" data-name="Trazado 908024" d="M296.537,245.928h24v3.255h-24Z" transform="translate(-296.537 -241.521)" fill="#407093"/>
          <path id="Trazado_908025" data-name="Trazado 908025" d="M296.537,245.928h1.707v3.255h-1.707Z" transform="translate(-296.537 -241.521)" fill="#365e7d"/>
        </g>
        <g id="Grupo_1114821" data-name="Grupo 1114821" transform="translate(0)">
          <circle id="Elipse_12833" data-name="Elipse 12833" cx="13.233" cy="13.233" r="13.233" fill="#f1ce64"/>
          <circle id="Elipse_12834" data-name="Elipse 12834" cx="9.831" cy="9.831" r="9.831" transform="translate(3.402 3.402)" fill="#f5de7d"/>
        </g>
      </g>
      <g id="Grupo_1114823" data-name="Grupo 1114823" transform="translate(0 0)">
        <path id="Trazado_908026" data-name="Trazado 908026" d="M54.732,23.113V19.821A5.431,5.431,0,0,0,49.306,14.4H28.194c0-.1,0-.2,0-.3A14.1,14.1,0,1,0,4.359,24.284V48.715a5.224,5.224,0,0,0,.866,10.375H47.29a.866.866,0,1,0,0-1.731H5.225a3.493,3.493,0,0,1,0-6.986H19.8a4.71,4.71,0,0,0,4.622,3.838H34.668a4.71,4.71,0,0,0,4.622-3.838H53.866a3.493,3.493,0,0,1,0,6.986H50.752a.866.866,0,0,0,0,1.731h3.114a5.224,5.224,0,0,0,.866-10.376V43.031a4.477,4.477,0,0,0,4.358-4.47V27.583a4.477,4.477,0,0,0-4.358-4.47ZM34.668,52.48H24.423a2.978,2.978,0,0,1-2.844-2.107H37.512A2.978,2.978,0,0,1,34.668,52.48Zm.421-23.232h22.27v1.524H35.089Zm22.268-1.731H35.09a2.744,2.744,0,0,1,2.74-2.676H54.616A2.745,2.745,0,0,1,57.357,27.517Zm-8.05-11.389A3.7,3.7,0,0,1,53,19.821V23.11H50.346V21.963a3.184,3.184,0,0,0-3.181-3.181H27.4a14.053,14.053,0,0,0,.653-2.654ZM1.731,14.1a12.368,12.368,0,1,1,20.314,9.476A.866.866,0,1,0,23.158,24.9a14.109,14.109,0,0,0,3.5-4.388h20.51a1.451,1.451,0,0,1,1.45,1.45V23.11H37.831a4.478,4.478,0,0,0-4.473,4.473V38.561a4.478,4.478,0,0,0,4.473,4.473H48.612a1.276,1.276,0,0,1-1.272,1.221H11.751a1.277,1.277,0,0,1-1.275-1.275V27.725a14.118,14.118,0,0,0,9.586-.849.866.866,0,1,0-.734-1.568A12.233,12.233,0,0,1,14.1,26.467,12.381,12.381,0,0,1,1.731,14.1ZM8.745,27.141V42.98a3.01,3.01,0,0,0,3.007,3.006H47.34a3.009,3.009,0,0,0,3.005-2.953H53v5.607H6.09V25.7a14.086,14.086,0,0,0,2.654,1.445ZM54.616,41.3H37.83a2.745,2.745,0,0,1-2.742-2.742V32.5h22.27v6.058A2.745,2.745,0,0,1,54.616,41.3Z" transform="translate(0 0)"/>
        <path id="Trazado_908027" data-name="Trazado 908027" d="M40.176,50.876a10.7,10.7,0,1,0-10.7-10.7A10.709,10.709,0,0,0,40.176,50.876Zm0-19.662a8.965,8.965,0,1,1-8.966,8.965A8.976,8.976,0,0,1,40.176,31.214Z" transform="translate(-26.077 -26.08)"/>
        <path id="Trazado_908028" data-name="Trazado 908028" d="M90.677,69.461a4.536,4.536,0,0,0,2.356.859v.675a.866.866,0,1,0,1.731,0V70.24A3.789,3.789,0,0,0,97.593,67.2a3.291,3.291,0,0,0-2.264-3.767,10.549,10.549,0,0,1-2.7-1.26,1.076,1.076,0,0,1-.279-1.044,1.471,1.471,0,0,1,.684-1V61.37a.866.866,0,0,0,1.731,0V60.013a2.127,2.127,0,0,1,.684.354.866.866,0,1,0,1.107-1.331,4,4,0,0,0-1.791-.8v-.6a.866.866,0,0,0-1.731,0v.665c-.08.019-.16.041-.242.065a3.127,3.127,0,0,0-2.143,2.452,2.768,2.768,0,0,0,.911,2.727,11.149,11.149,0,0,0,3.192,1.53,1.594,1.594,0,0,1,1.134,1.847,2.05,2.05,0,0,1-1.121,1.5v-2.19a.866.866,0,0,0-1.731,0v2.354a2.918,2.918,0,0,1-1.408-.57.866.866,0,1,0-.948,1.449Z" transform="translate(-79.866 -50.213)"/>
        <path id="Trazado_908029" data-name="Trazado 908029" d="M65.512,115.34v-.058a.866.866,0,0,0-1.731,0v.058a.866.866,0,0,0,1.731,0Z" transform="translate(-56.42 -101.212)"/>
        <path id="Trazado_908030" data-name="Trazado 908030" d="M166.412,116.206a.865.865,0,0,0,.866-.866v-.058a.866.866,0,0,0-1.731,0v.058A.865.865,0,0,0,166.412,116.206Z" transform="translate(-146.44 -101.212)"/>
        <path id="Trazado_908031" data-name="Trazado 908031" d="M118.489,285.751a.865.865,0,0,0,.866.866h13.471a.866.866,0,1,0,0-1.731H119.355A.866.866,0,0,0,118.489,285.751Z" transform="translate(-104.814 -252.007)"/>
        <path id="Trazado_908032" data-name="Trazado 908032" d="M119.355,315.548h8.175a.866.866,0,1,0,0-1.731h-8.175a.866.866,0,0,0,0,1.731Z" transform="translate(-104.814 -277.6)"/>
        <path id="Trazado_908033" data-name="Trazado 908033" d="M129.6,342.749H119.355a.866.866,0,0,0,0,1.731H129.6a.866.866,0,1,0,0-1.731Z" transform="translate(-104.814 -303.193)"/>
        <path id="Trazado_908034" data-name="Trazado 908034" d="M325.755,294.064h-2.086a.866.866,0,1,0,0,1.731h2.086a.866.866,0,1,0,0-1.731Z" transform="translate(-285.549 -260.126)"/>
        <path id="Trazado_908035" data-name="Trazado 908035" d="M366.539,294.064h-2.086a.866.866,0,1,0,0,1.731h2.086a.866.866,0,1,0,0-1.731Z" transform="translate(-321.626 -260.126)"/>
        <path id="Trazado_908036" data-name="Trazado 908036" d="M407.323,294.064h-2.086a.866.866,0,1,0,0,1.731h2.086a.866.866,0,1,0,0-1.731Z" transform="translate(-357.703 -260.126)"/>
        <path id="Trazado_908037" data-name="Trazado 908037" d="M448.107,294.064h-2.086a.866.866,0,1,0,0,1.731h2.086a.866.866,0,0,0,0-1.731Z" transform="translate(-393.78 -260.126)"/>
      </g>
    </g>
  </g>
</svg>
