<svg xmlns="http://www.w3.org/2000/svg" xmlns:xlink="http://www.w3.org/1999/xlink" width="505" height="241" viewBox="0 0 505 241">
  <defs>
    <clipPath id="clip-path">
      <rect id="Rectángulo_406503" data-name="Rectángulo 406503" width="505" height="241" rx="8" transform="translate(180.051 5463.914)" fill="#dee4f0"/>
    </clipPath>
    <clipPath id="clip-path-2">
      <rect id="Rectángulo_406479" data-name="Rectángulo 406479" width="184.225" height="174.044" fill="none"/>
    </clipPath>
    <clipPath id="clip-path-4">
      <rect id="Rectángulo_406473" data-name="Rectángulo 406473" width="176.587" height="165.903" transform="translate(7.638 8.141)" fill="none"/>
    </clipPath>
    <clipPath id="clip-path-5">
      <rect id="Rectángulo_406497" data-name="Rectángulo 406497" width="85.158" height="92.455" fill="none"/>
    </clipPath>
    <clipPath id="clip-path-6">
      <rect id="Rectángulo_406496" data-name="Rectángulo 406496" width="85.158" height="92.455" transform="translate(0 0)" fill="none"/>
    </clipPath>
    <clipPath id="clip-path-7">
      <rect id="Rectángulo_406494" data-name="Rectángulo 406494" width="37.28" height="68.551" transform="translate(0 23.904)" fill="none"/>
    </clipPath>
    <clipPath id="clip-path-8">
      <rect id="Rectángulo_406495" data-name="Rectángulo 406495" width="45.822" height="83.837" transform="translate(39.336 4.199)" fill="none"/>
    </clipPath>
    <clipPath id="clip-path-9">
      <rect id="Rectángulo_406502" data-name="Rectángulo 406502" width="110.138" height="100.701" fill="none"/>
    </clipPath>
    <clipPath id="clip-path-11">
      <rect id="Rectángulo_406498" data-name="Rectángulo 406498" width="101.172" height="73.197" fill="none"/>
    </clipPath>
    <clipPath id="clip-path-12">
      <rect id="Rectángulo_406499" data-name="Rectángulo 406499" width="63.642" height="42.569" fill="none"/>
    </clipPath>
    <clipPath id="clip-path-13">
      <rect id="Rectángulo_406500" data-name="Rectángulo 406500" width="63.664" height="64.334" fill="none"/>
    </clipPath>
    <clipPath id="clip-path-14">
      <rect id="Rectángulo_406493" data-name="Rectángulo 406493" width="188.604" height="148.076" fill="none"/>
    </clipPath>
    <clipPath id="clip-path-16">
      <rect id="Rectángulo_406487" data-name="Rectángulo 406487" width="179.395" height="140.817" transform="translate(9.209 7.259)" fill="none"/>
    </clipPath>
    <clipPath id="clip-path-17">
      <rect id="Rectángulo_406486" data-name="Rectángulo 406486" width="172.7" height="133.514" fill="none"/>
    </clipPath>
    <clipPath id="clip-path-19">
      <rect id="Rectángulo_406480" data-name="Rectángulo 406480" width="166.075" height="126.714" transform="translate(6.625 6.8)" fill="none"/>
    </clipPath>
    <clipPath id="clip-path-20">
      <rect id="Rectángulo_406472" data-name="Rectángulo 406472" width="143.401" height="302.021" fill="none"/>
    </clipPath>
    <clipPath id="clip-path-22">
      <rect id="Rectángulo_406468" data-name="Rectángulo 406468" width="140.851" height="296.776" fill="none"/>
    </clipPath>
  </defs>
  <g id="Enmascarar_grupo_1098750" data-name="Enmascarar grupo 1098750" transform="translate(-180.051 -5463.914)" clip-path="url(#clip-path)">
    <rect id="Rectángulo_406438" data-name="Rectángulo 406438" width="505" height="241" rx="8" transform="translate(180.051 5463.914)" fill="#dee4f0"/>
    <g id="Grupo_1114398" data-name="Grupo 1114398" transform="translate(485 5474.913)">
      <g id="Grupo_1114397" data-name="Grupo 1114397" clip-path="url(#clip-path-2)">
        <g id="Grupo_1114396" data-name="Grupo 1114396">
          <g id="Grupo_1114395" data-name="Grupo 1114395" clip-path="url(#clip-path-2)">
            <g id="Grupo_1114394" data-name="Grupo 1114394" opacity="0.15" style="mix-blend-mode: multiply;isolation: isolate">
              <g id="Grupo_1114393" data-name="Grupo 1114393">
                <g id="Grupo_1114392" data-name="Grupo 1114392" clip-path="url(#clip-path-4)">
                  <path id="Trazado_906680" data-name="Trazado 906680" d="M183.864,25.079q1.413,66.4-2.71,132.759a16.033,16.033,0,0,1-15.343,15.02,1417.634,1417.634,0,0,1-141.822-1.3A16.019,16.019,0,0,1,8.932,156.292C7.017,112.98,7.441,69.6,8.821,25.339A16.023,16.023,0,0,1,24.083,9.83c47.556-2.2,95.341-2.155,144.331-.419a16.027,16.027,0,0,1,15.45,15.668" fill="#2e2854"/>
                </g>
              </g>
            </g>
            <path id="Trazado_906681" data-name="Trazado 906681" d="M176.976,17.688q1.413,66.4-2.71,132.759a16.034,16.034,0,0,1-15.343,15.021A1417.923,1417.923,0,0,1,17.1,164.17,16.019,16.019,0,0,1,2.044,148.9C.129,105.589.553,62.209,1.933,17.948A16.024,16.024,0,0,1,17.195,2.439C64.751.239,112.536.284,161.526,2.02a16.027,16.027,0,0,1,15.45,15.668" fill="#fff"/>
            <path id="Trazado_906682" data-name="Trazado 906682" d="M176.976,17.688q1.413,66.4-2.71,132.759a16.034,16.034,0,0,1-15.343,15.021A1417.923,1417.923,0,0,1,17.1,164.17,16.019,16.019,0,0,1,2.044,148.9C.129,105.589.553,62.209,1.933,17.948A16.024,16.024,0,0,1,17.195,2.439C64.751.239,112.536.284,161.526,2.02A16.027,16.027,0,0,1,176.976,17.688Z" fill="none" stroke="#2e2854" stroke-linecap="round" stroke-linejoin="round" stroke-width="1.5"/>
            <rect id="Rectángulo_406474" data-name="Rectángulo 406474" width="140.155" height="52.279" transform="translate(19.465 25.62)" fill="#f7a145"/>
            <line id="Línea_2034" data-name="Línea 2034" x2="125.802" transform="translate(27.092 71.196)" fill="none" stroke="#2e2854" stroke-linecap="round" stroke-linejoin="round" stroke-width="1.5"/>
            <circle id="Elipse_12814" data-name="Elipse 12814" cx="2.176" cy="2.176" r="2.176" transform="translate(30.059 41.723)" fill="none" stroke="#2e2854" stroke-linecap="round" stroke-linejoin="round" stroke-width="1.5"/>
            <circle id="Elipse_12815" data-name="Elipse 12815" cx="2.176" cy="2.176" r="2.176" transform="translate(53.597 56.772)" fill="none" stroke="#2e2854" stroke-linecap="round" stroke-linejoin="round" stroke-width="1.5"/>
            <circle id="Elipse_12816" data-name="Elipse 12816" cx="2.176" cy="2.176" r="2.176" transform="translate(70.41 47.408)" fill="none" stroke="#2e2854" stroke-linecap="round" stroke-linejoin="round" stroke-width="1.5"/>
            <circle id="Elipse_12817" data-name="Elipse 12817" cx="2.176" cy="2.176" r="2.176" transform="translate(95.729 59.852)" fill="none" stroke="#2e2854" stroke-linecap="round" stroke-linejoin="round" stroke-width="1.5"/>
            <circle id="Elipse_12818" data-name="Elipse 12818" cx="2.176" cy="2.176" r="2.176" transform="translate(116.894 35.241)" fill="none" stroke="#2e2854" stroke-linecap="round" stroke-linejoin="round" stroke-width="1.5"/>
            <circle id="Elipse_12819" data-name="Elipse 12819" cx="2.176" cy="2.176" r="2.176" transform="translate(143.202 57.054)" fill="none" stroke="#2e2854" stroke-linecap="round" stroke-linejoin="round" stroke-width="1.5"/>
            <line id="Línea_2035" data-name="Línea 2035" x2="19.894" y2="12.74" transform="translate(33.947 45.228)" fill="none" stroke="#2e2854" stroke-linecap="round" stroke-linejoin="round" stroke-width="1.5"/>
            <line id="Línea_2036" data-name="Línea 2036" y1="8.391" x2="12.701" transform="translate(57.949 50.557)" fill="none" stroke="#2e2854" stroke-linecap="round" stroke-linejoin="round" stroke-width="1.5"/>
            <line id="Línea_2037" data-name="Línea 2037" x2="21.403" y2="10.567" transform="translate(74.528 50.557)" fill="none" stroke="#2e2854" stroke-linecap="round" stroke-linejoin="round" stroke-width="1.5"/>
            <line id="Línea_2038" data-name="Línea 2038" y1="21.992" x2="17.858" transform="translate(99.882 39.132)" fill="none" stroke="#2e2854" stroke-linecap="round" stroke-linejoin="round" stroke-width="1.5"/>
            <line id="Línea_2039" data-name="Línea 2039" x2="22.958" y2="19.116" transform="translate(120.928 38.535)" fill="none" stroke="#2e2854" stroke-linecap="round" stroke-linejoin="round" stroke-width="1.5"/>
            <rect id="Rectángulo_406475" data-name="Rectángulo 406475" width="37.636" height="8.941" transform="translate(19.465 89.681)" fill="#d24d84"/>
            <rect id="Rectángulo_406476" data-name="Rectángulo 406476" width="76.264" height="8.941" transform="translate(19.465 103.4)" fill="#d24d84"/>
            <rect id="Rectángulo_406477" data-name="Rectángulo 406477" width="70.641" height="8.941" transform="translate(62.764 89.681)" fill="#d24d84"/>
            <line id="Línea_2040" data-name="Línea 2040" x2="140.155" transform="translate(19.465 124.273)" fill="none" stroke="#2e2854" stroke-linecap="round" stroke-linejoin="round" stroke-width="1.5"/>
            <line id="Línea_2041" data-name="Línea 2041" x2="140.155" transform="translate(19.465 136.205)" fill="none" stroke="#2e2854" stroke-linecap="round" stroke-linejoin="round" stroke-width="1.5"/>
            <line id="Línea_2042" data-name="Línea 2042" x2="57.078" transform="translate(19.465 148.136)" fill="none" stroke="#2e2854" stroke-linecap="round" stroke-linejoin="round" stroke-width="1.5"/>
          </g>
        </g>
      </g>
    </g>
    <g id="Grupo_1114423" data-name="Grupo 1114423" transform="translate(-185.209 -3.086)">
      <g id="Grupo_1114422" data-name="Grupo 1114422" transform="translate(594.051 5500)">
        <g id="Grupo_1114421" data-name="Grupo 1114421" clip-path="url(#clip-path-5)">
          <g id="Grupo_1114420" data-name="Grupo 1114420">
            <g id="Grupo_1114419" data-name="Grupo 1114419" clip-path="url(#clip-path-6)">
              <g id="Grupo_1114415" data-name="Grupo 1114415" opacity="0.15" style="mix-blend-mode: multiply;isolation: isolate">
                <g id="Grupo_1114414" data-name="Grupo 1114414">
                  <g id="Grupo_1114413" data-name="Grupo 1114413" clip-path="url(#clip-path-7)">
                    <path id="Trazado_906702" data-name="Trazado 906702" d="M11.5,92.455C11.851,73.781-1.2,56.593.09,37.961c.383-5.508,2.688-11.633,7.881-13.51,4.545-1.642,9.638.639,13.266,3.832,5.679,5,9.1,12.083,11.478,19.268a90.987,90.987,0,0,1,3.68,41.1Z" fill="#2e2854"/>
                  </g>
                </g>
              </g>
              <path id="Trazado_906703" data-name="Trazado 906703" d="M13.771,87.105C15.46,68.5,3.669,50.425,6.3,31.934c.776-5.467,3.514-11.411,8.828-12.911,4.651-1.312,9.567,1.328,12.957,4.772,5.307,5.393,8.217,12.7,10.069,20.041a90.989,90.989,0,0,1,.727,41.257Z" fill="#f7a145"/>
              <path id="Trazado_906704" data-name="Trazado 906704" d="M20.356,42.147a127.531,127.531,0,0,1,6.9,45.083" fill="none" stroke="#2e2854" stroke-linecap="round" stroke-linejoin="round" stroke-width="1.5"/>
              <g id="Grupo_1114418" data-name="Grupo 1114418" opacity="0.15" style="mix-blend-mode: multiply;isolation: isolate">
                <g id="Grupo_1114417" data-name="Grupo 1114417">
                  <g id="Grupo_1114416" data-name="Grupo 1114416" clip-path="url(#clip-path-8)">
                    <path id="Trazado_906705" data-name="Trazado 906705" d="M66.412,88.036c.257-21.311,16.029-39.652,18.474-60.825.542-4.7.383-9.6-1.482-13.952S77.738,5.2,73.079,4.378A14.73,14.73,0,0,0,62.554,6.939,30.047,30.047,0,0,0,54.906,14.9c-6.842,9.728-10.83,21.243-12.967,32.943s-2.494,23.647-2.6,35.541Z" fill="#2e2854"/>
                  </g>
                </g>
              </g>
              <path id="Trazado_906706" data-name="Trazado 906706" d="M62.428,83.93c-.279-21.311,15.027-40.043,16.938-61.27.424-4.712.142-9.611-1.832-13.911S71.667.839,66.989.131A14.729,14.729,0,0,0,56.532,2.956,30.035,30.035,0,0,0,49.086,11.1C42.491,21,38.794,32.61,36.952,44.36s-1.9,23.7-1.709,35.6Z" fill="#49ad9f"/>
              <path id="Trazado_906707" data-name="Trazado 906707" d="M63.588,16.188A126.393,126.393,0,0,0,44.27,84.072" fill="none" stroke="#2e2854" stroke-linecap="round" stroke-linejoin="round" stroke-width="1.5"/>
            </g>
          </g>
        </g>
      </g>
    </g>
    <g id="Grupo_1114436" data-name="Grupo 1114436" transform="translate(199.554 5600.211)">
      <g id="Grupo_1114435" data-name="Grupo 1114435" clip-path="url(#clip-path-9)">
        <g id="Grupo_1114434" data-name="Grupo 1114434" transform="translate(0 0)">
          <g id="Grupo_1114433" data-name="Grupo 1114433" clip-path="url(#clip-path-9)">
            <g id="Grupo_1114426" data-name="Grupo 1114426" transform="translate(8.967 13.841)" opacity="0.15" style="mix-blend-mode: multiply;isolation: isolate">
              <g id="Grupo_1114425" data-name="Grupo 1114425">
                <g id="Grupo_1114424" data-name="Grupo 1114424" clip-path="url(#clip-path-11)">
                  <path id="Trazado_906708" data-name="Trazado 906708" d="M99.394,16.821a141.561,141.561,0,0,0-68.07,30.227c-8.914,7.293-17.257,16.269-19.889,27.48C10.192,79.82,10.91,86.489,15.7,89.05c4.283,2.288,9.54.127,13.685-2.4,7.07-4.316,13.418-9.709,20.314-14.3A106.982,106.982,0,0,1,112.069,54.6Z" transform="translate(-10.898 -16.821)" fill="#2e2854"/>
                </g>
              </g>
            </g>
            <path id="Trazado_906709" data-name="Trazado 906709" d="M99.612,13.453a141.56,141.56,0,0,0-69.8,25.984c-9.346,6.731-18.224,15.176-21.542,26.2C6.7,70.847,7.01,77.548,11.637,80.4c4.134,2.547,9.514.713,13.807-1.558,7.322-3.873,13.99-8.866,21.154-13.025a106.974,106.974,0,0,1,63.341-13.878Z" transform="translate(-1.314 -2.384)" fill="#f7a145"/>
            <path id="Trazado_906710" data-name="Trazado 906710" d="M47.346,56.746a124.794,124.794,0,0,1,68.548-20.831" transform="translate(-8.389 -6.364)" fill="none" stroke="#2e2854" stroke-linecap="round" stroke-linejoin="round" stroke-width="1.507"/>
            <g id="Grupo_1114429" data-name="Grupo 1114429" transform="translate(3.426 3.625)" opacity="0.15" style="mix-blend-mode: multiply;isolation: isolate">
              <g id="Grupo_1114428" data-name="Grupo 1114428">
                <g id="Grupo_1114427" data-name="Grupo 1114427" clip-path="url(#clip-path-12)">
                  <path id="Trazado_906711" data-name="Trazado 906711" d="M57.074,4.407C44.666,17.812,22.609,17.582,9.109,29.887,5.7,32.994,2.829,37.878,4.817,42.038c1.825,3.819,6.732,4.907,10.966,4.936,9.9.066,19.63-3.123,28.3-7.911S60.453,27.929,67.806,21.3Z" transform="translate(-4.164 -4.406)" fill="#2e2854"/>
                </g>
              </g>
            </g>
            <path id="Trazado_906712" data-name="Trazado 906712" d="M52.91,0C40.5,13.405,18.445,13.175,4.945,25.48,1.537,28.587-1.335,33.471.653,37.631c1.825,3.819,6.732,4.907,10.966,4.936,9.9.066,19.629-3.123,28.3-7.911S56.289,23.522,63.642,16.89Z" transform="translate(0 0)" fill="#49ad9f"/>
            <path id="Trazado_906713" data-name="Trazado 906713" d="M20.86,33.145A156.36,156.36,0,0,0,64.325,7.008" transform="translate(-3.696 -1.242)" fill="none" stroke="#2e2854" stroke-linecap="round" stroke-linejoin="round" stroke-width="1.507"/>
            <g id="Grupo_1114432" data-name="Grupo 1114432" transform="translate(36.862 36.367)" opacity="0.15" style="mix-blend-mode: multiply;isolation: isolate">
              <g id="Grupo_1114431" data-name="Grupo 1114431">
                <g id="Grupo_1114430" data-name="Grupo 1114430" clip-path="url(#clip-path-13)">
                  <path id="Trazado_906714" data-name="Trazado 906714" d="M105.926,44.2c-9.686.193-18.916,4.854-26.017,11.443s-12.271,15-16.542,23.694c-4.906,9.991-9.5,21.332-18.568,26.249A48.024,48.024,0,0,0,94.579,95.1c12.732-12.615,17.2-32.884,11.347-50.9" transform="translate(-44.8 -44.199)" fill="#2e2854"/>
                </g>
              </g>
            </g>
            <path id="Trazado_906715" data-name="Trazado 906715" d="M104.667,44.08c-9.642-.939-19.353,2.613-27.174,8.329S63.554,65.873,58.3,74.01c-6.039,9.35-11.923,20.077-21.5,23.9a48.025,48.025,0,0,0,50.664-4.6c14.117-11.043,20.917-30.653,17.208-49.229" transform="translate(-6.52 -7.784)" fill="#49ad9f"/>
            <path id="Trazado_906716" data-name="Trazado 906716" d="M67.6,86.632C77.479,82.709,85.527,75.19,92.306,67s12.531-17.2,19.387-25.327" transform="translate(-11.977 -7.383)" fill="none" stroke="#2e2854" stroke-linecap="round" stroke-linejoin="round" stroke-width="1.5"/>
          </g>
        </g>
      </g>
    </g>
    <g id="Grupo_1114412" data-name="Grupo 1114412" transform="translate(189.749 5480.616)">
      <g id="Grupo_1114411" data-name="Grupo 1114411" clip-path="url(#clip-path-14)">
        <g id="Grupo_1114410" data-name="Grupo 1114410">
          <g id="Grupo_1114409" data-name="Grupo 1114409" clip-path="url(#clip-path-14)">
            <g id="Grupo_1114408" data-name="Grupo 1114408" opacity="0.15" style="mix-blend-mode: multiply;isolation: isolate">
              <g id="Grupo_1114407" data-name="Grupo 1114407">
                <g id="Grupo_1114406" data-name="Grupo 1114406" clip-path="url(#clip-path-16)">
                  <path id="Trazado_906691" data-name="Trazado 906691" d="M172.464,146.465a1322.288,1322.288,0,0,1-146.275-.874,15.929,15.929,0,0,1-14.9-14.881c-2.378-35.918-2.4-70.7-1.631-105.047a15.9,15.9,0,0,1,14.926-15.5Q87.968,6.289,151.522,7.583c7.775.158,15.611.384,23,1.652a15.9,15.9,0,0,1,13.181,15.233c1.014,35.917,1.423,71.776-.149,106.886a15.878,15.878,0,0,1-15.093,15.111" fill="#2e2854"/>
                </g>
              </g>
            </g>
            <path id="Trazado_906692" data-name="Trazado 906692" d="M164.005,139.956a1322.284,1322.284,0,0,1-146.275-.874A15.929,15.929,0,0,1,2.833,124.2C.455,88.283.428,53.5,1.2,19.154a15.9,15.9,0,0,1,14.926-15.5Q79.509-.22,143.063,1.074c7.775.158,15.611.384,23,1.652a15.9,15.9,0,0,1,13.181,15.233c1.014,35.917,1.423,71.776-.149,106.886a15.878,15.878,0,0,1-15.093,15.111" fill="#fff"/>
            <path id="Trazado_906693" data-name="Trazado 906693" d="M164.005,139.956a1322.284,1322.284,0,0,1-146.275-.874A15.929,15.929,0,0,1,2.833,124.2C.455,88.283.428,53.5,1.2,19.154a15.9,15.9,0,0,1,14.926-15.5Q79.509-.22,143.063,1.074c7.775.158,15.611.384,23,1.652a15.9,15.9,0,0,1,13.181,15.233c1.014,35.917,1.423,71.776-.149,106.886A15.878,15.878,0,0,1,164.005,139.956Z" fill="none" stroke="#2e2854" stroke-linecap="round" stroke-linejoin="round" stroke-width="1.5"/>
            <path id="Trazado_906694" data-name="Trazado 906694" d="M51.163,35.021A25.752,25.752,0,1,0,76.915,60.773,25.752,25.752,0,0,0,51.163,35.021m0,42.647a16.9,16.9,0,1,1,16.9-16.9,16.9,16.9,0,0,1-16.9,16.9" fill="#49ad9f"/>
            <path id="Trazado_906695" data-name="Trazado 906695" d="M76.532,65.046a25.121,25.121,0,0,0-2.326-15.719l-7.933,3.918a16.8,16.8,0,0,1,1.786,7.528,17,17,0,0,1-.248,2.782Z" fill="#2e2854"/>
            <path id="Trazado_906696" data-name="Trazado 906696" d="M34.268,60.772a16.91,16.91,0,0,1,.561-4.254l-8.562-2.229a25.665,25.665,0,0,0,24.9,32.235V77.667a16.9,16.9,0,0,1-16.895-16.9" fill="#2e2854"/>
            <path id="Trazado_906697" data-name="Trazado 906697" d="M111.411,40.6a25.751,25.751,0,1,0,36.418,0,25.751,25.751,0,0,0-36.418,0m30.156,30.156a16.9,16.9,0,1,1,0-23.894,16.9,16.9,0,0,1,0,23.894" fill="#d24d84"/>
            <path id="Trazado_906698" data-name="Trazado 906698" d="M111.411,77.016a25.75,25.75,0,0,0,41.207-6.623L144.7,66.4a16.89,16.89,0,0,1-31.977-7.575l-8.857.012a25.671,25.671,0,0,0,7.542,18.174" fill="#2e2854"/>
            <rect id="Rectángulo_406488" data-name="Rectángulo 406488" width="43.826" height="8.941" transform="translate(25.691 96.717)" fill="#6d7fe3"/>
            <rect id="Rectángulo_406489" data-name="Rectángulo 406489" width="82.26" height="8.941" transform="translate(76.112 96.717)" fill="#6d7fe3"/>
            <line id="Línea_2044" data-name="Línea 2044" x2="88.611" transform="translate(25.691 114.878)" fill="none" stroke="#2e2854" stroke-linecap="round" stroke-linejoin="round" stroke-width="1.5"/>
            <line id="Línea_2045" data-name="Línea 2045" x2="57.158" transform="translate(25.691 123.274)" fill="none" stroke="#2e2854" stroke-linecap="round" stroke-linejoin="round" stroke-width="1.5"/>
            <rect id="Rectángulo_406490" data-name="Rectángulo 406490" width="31.208" height="5.82" transform="translate(11.843 21.636)" fill="#2e2854"/>
            <path id="Trazado_906699" data-name="Trazado 906699" d="M40.315,24.546h15.31l6.066,18.727" fill="none" stroke="#2e2854" stroke-linecap="round" stroke-linejoin="round" stroke-width="1.5"/>
            <path id="Trazado_906700" data-name="Trazado 906700" d="M60.49,43.274a1.2,1.2,0,1,0,1.2-1.2A1.2,1.2,0,0,0,60.49,43.274Z" fill="none" stroke="#2e2854" stroke-linecap="round" stroke-linejoin="round" stroke-width="1.5"/>
            <rect id="Rectángulo_406491" data-name="Rectángulo 406491" width="31.208" height="5.82" transform="translate(93.338 20.972)" fill="#2e2854"/>
            <path id="Trazado_906701" data-name="Trazado 906701" d="M121.81,23.883h15.31l6.066,18.727" fill="none" stroke="#2e2854" stroke-linecap="round" stroke-linejoin="round" stroke-width="1.5"/>
            <circle id="Elipse_12822" data-name="Elipse 12822" cx="1.201" cy="1.201" r="1.201" transform="translate(141.985 41.409)" fill="none" stroke="#2e2854" stroke-linecap="round" stroke-linejoin="round" stroke-width="1.5"/>
          </g>
        </g>
      </g>
    </g>
    <g id="Grupo_1114405" data-name="Grupo 1114405" transform="translate(375.051 5561.935)">
      <g id="Grupo_1114404" data-name="Grupo 1114404" clip-path="url(#clip-path-17)">
        <g id="Grupo_1114403" data-name="Grupo 1114403">
          <g id="Grupo_1114402" data-name="Grupo 1114402" clip-path="url(#clip-path-17)">
            <g id="Grupo_1114401" data-name="Grupo 1114401" opacity="0.15" style="mix-blend-mode: multiply;isolation: isolate">
              <g id="Grupo_1114400" data-name="Grupo 1114400">
                <g id="Grupo_1114399" data-name="Grupo 1114399" clip-path="url(#clip-path-19)">
                  <path id="Trazado_906683" data-name="Trazado 906683" d="M172.7,114.393q-.677-44.554-3.518-89.043A17.733,17.733,0,0,0,152.406,8.764C110.842,6.65,68.245,6.345,25.567,7.364a17.77,17.77,0,0,0-17.3,16.722c-1.8,30.437-1.9,60.385-1.332,90.422a17.736,17.736,0,0,0,16.921,17.371c44.356,2.026,88.678,2.145,131.824.494a17.724,17.724,0,0,0,17.023-17.98" fill="#2e2854"/>
                </g>
              </g>
            </g>
            <path id="Trazado_906684" data-name="Trazado 906684" d="M166.823,108.342Q166.146,63.787,163.3,19.3A17.733,17.733,0,0,0,146.531,2.713C104.967.6,62.37.294,19.692,1.313a17.77,17.77,0,0,0-17.3,16.722C.589,48.472.491,78.42,1.055,108.457a17.736,17.736,0,0,0,16.921,17.371c44.356,2.026,88.678,2.145,131.824.494a17.724,17.724,0,0,0,17.023-17.98" fill="#fff"/>
            <path id="Trazado_906685" data-name="Trazado 906685" d="M166.823,108.342Q166.146,63.787,163.3,19.3A17.733,17.733,0,0,0,146.531,2.713C104.967.6,62.37.294,19.692,1.313a17.77,17.77,0,0,0-17.3,16.722C.589,48.472.491,78.42,1.055,108.457a17.736,17.736,0,0,0,16.921,17.371c44.356,2.026,88.678,2.145,131.824.494A17.724,17.724,0,0,0,166.823,108.342Z" fill="none" stroke="#2e2854" stroke-linecap="round" stroke-linejoin="round" stroke-width="1.5"/>
            <path id="Trazado_906686" data-name="Trazado 906686" d="M85.551,51.5a38.424,38.424,0,0,1,38.425,38.425h19.081a57.506,57.506,0,1,0-115.012,0H47.126A38.424,38.424,0,0,1,85.551,51.5" fill="#2e2854"/>
            <path id="Trazado_906687" data-name="Trazado 906687" d="M125.136,48.235,112,62.068a38.3,38.3,0,0,1,11.974,27.857h19.081a57.328,57.328,0,0,0-17.921-41.69" fill="#d24d84"/>
            <path id="Trazado_906688" data-name="Trazado 906688" d="M58.385,62.749A38.306,38.306,0,0,1,81.336,51.734L79.243,32.77A57.329,57.329,0,0,0,44.9,49.255Z" fill="#f7a145"/>
            <line id="Línea_2043" data-name="Línea 2043" x2="130.313" transform="translate(20.394 89.925)" fill="none" stroke="#2e2854" stroke-linecap="round" stroke-linejoin="round" stroke-width="1.5"/>
            <rect id="Rectángulo_406481" data-name="Rectángulo 406481" width="37.636" height="8.941" transform="translate(26.366 101.82)" fill="#d24d84"/>
            <rect id="Rectángulo_406482" data-name="Rectángulo 406482" width="70.641" height="8.941" transform="translate(69.665 101.82)" fill="#d24d84"/>
            <rect id="Rectángulo_406483" data-name="Rectángulo 406483" width="31.208" height="5.82" transform="translate(119.843 24.802)" fill="#2e2854"/>
            <path id="Trazado_906689" data-name="Trazado 906689" d="M122.579,27.712H105l-4.483,17.527" fill="none" stroke="#2e2854" stroke-linecap="round" stroke-linejoin="round" stroke-width="1.5"/>
            <circle id="Elipse_12820" data-name="Elipse 12820" cx="1.201" cy="1.201" r="1.201" transform="translate(99.316 44.038)" fill="none" stroke="#2e2854" stroke-linecap="round" stroke-linejoin="round" stroke-width="1.5"/>
            <rect id="Rectángulo_406484" data-name="Rectángulo 406484" width="31.208" height="5.82" transform="translate(15.329 24.802)" fill="#2e2854"/>
            <path id="Trazado_906690" data-name="Trazado 906690" d="M43.8,27.712h15.31l6.066,18.727" fill="none" stroke="#2e2854" stroke-linecap="round" stroke-linejoin="round" stroke-width="1.5"/>
            <circle id="Elipse_12821" data-name="Elipse 12821" cx="1.201" cy="1.201" r="1.201" transform="translate(63.976 45.238)" fill="none" stroke="#2e2854" stroke-linecap="round" stroke-linejoin="round" stroke-width="1.5"/>
          </g>
        </g>
      </g>
    </g>
    <g id="Grupo_1114391" data-name="Grupo 1114391" transform="translate(276.548 5474.913)">
      <g id="Grupo_1114390" data-name="Grupo 1114390" clip-path="url(#clip-path-20)">
        <g id="Grupo_1114389" data-name="Grupo 1114389">
          <g id="Grupo_1114388" data-name="Grupo 1114388" clip-path="url(#clip-path-20)">
            <g id="Grupo_1114387" data-name="Grupo 1114387" transform="translate(2.55 5.245)" opacity="0.15" style="mix-blend-mode: multiply;isolation: isolate">
              <g id="Grupo_1114386" data-name="Grupo 1114386">
                <g id="Grupo_1114385" data-name="Grupo 1114385" clip-path="url(#clip-path-22)">
                  <path id="Trazado_906654" data-name="Trazado 906654" d="M143.282,20.68A11.622,11.622,0,0,0,133.09,9.658a323.526,323.526,0,0,0-69.9-.722,11.52,11.52,0,0,0-6.754,3.033l0-.006-4.238,3.563c-.045.04-.094.076-.138.116l-.022.018v0a11.587,11.587,0,0,0-3.813,8.274q-1.21,43.075-1.143,85.568A318.251,318.251,0,0,0,8.659,213.471q-1.044,5.766-1.877,11.568a311.479,311.479,0,0,0-2.621,63.151L88.58,304.166q-3.63-38.478-7.264-76.959-3.79-.336-7.576-.616a93.017,93.017,0,0,1,2.066-12.723h0v-.016a92.515,92.515,0,0,1,7.64-20.862c4.857-9.511,11.474-18.569,16.163-28.109q12.929.077,25.858-.218a11.557,11.557,0,0,0,7.021-2.583l0,0,4.321-3.65c.147-.114.285-.238.427-.36l.331-.28,0,0a11.585,11.585,0,0,0,3.693-7.573A1015.662,1015.662,0,0,0,143.282,20.68" transform="translate(-3.593 -7.39)" fill="#2e2854"/>
                </g>
              </g>
            </g>
            <path id="Trazado_906655" data-name="Trazado 906655" d="M70.433,310.886a92.5,92.5,0,0,1,2.188-22.109L43.493,282.7,5.472,289.239q-.973,5.78-1.732,11.591Z" transform="translate(-1.086 -82.061)" fill="#fff"/>
            <path id="Trazado_906656" data-name="Trazado 906656" d="M101.991,170.463c-.044,18.17-13.224,33.205-21.283,49.489a92.515,92.515,0,0,0-7.378,20.957v.016a426.251,426.251,0,0,0-67.148.446A316.724,316.724,0,0,1,55.127,117.793Z" transform="translate(-1.794 -34.193)" fill="#e8614e"/>
            <path id="Trazado_906657" data-name="Trazado 906657" d="M85.44,386.141q-4.114-38.429-8.23-76.862a674.461,674.461,0,0,0-74.556-1.232A311.521,311.521,0,0,0,.826,371.227Z" transform="translate(0 -89.278)" fill="#d24d84"/>
            <path id="Trazado_906658" data-name="Trazado 906658" d="M149.442,151.458l-1.131-1.973a11.584,11.584,0,0,0,.28-1.81,1015.626,1015.626,0,0,0,.393-129.553,11.622,11.622,0,0,0-10.33-10.893,323.47,323.47,0,0,0-69.906.155,11.559,11.559,0,0,0-1.674.318l-.6-1.045-4.194,3.615c-.045.04-.092.077-.137.118l-.022.019v0a11.587,11.587,0,0,0-3.71,8.321c-.671,43.187-.412,85.844.865,128.336a11.617,11.617,0,0,0,11.133,11.28q33.49,1.321,67.015.129a11.557,11.557,0,0,0,6.987-2.671l0,0Z" transform="translate(-16.852 -1.571)" fill="#2e2854"/>
            <path id="Trazado_906659" data-name="Trazado 906659" d="M143.691,153.067q-33.494,1.191-67.015-.129a11.618,11.618,0,0,1-11.133-11.28c-1.277-42.491-1.535-85.149-.864-128.336A11.6,11.6,0,0,1,75.013,1.974a323.516,323.516,0,0,1,69.906-.155,11.622,11.622,0,0,1,10.33,10.893,1015.62,1015.62,0,0,1-.392,129.553,11.617,11.617,0,0,1-11.165,10.8" transform="translate(-18.671 0)" fill="#a166ff"/>
            <path id="Trazado_906660" data-name="Trazado 906660" d="M151.944,122.094q2.365-47.9.32-95.888a8.765,8.765,0,0,0-7.93-8.419,449.686,449.686,0,0,0-57.381-.847A8.771,8.771,0,0,0,78.6,25.684c-.2,27.868.54,69.355,1.881,97.764a8.778,8.778,0,0,0,8.2,8.369,307.253,307.253,0,0,0,55.593-1.383,8.77,8.77,0,0,0,7.661-8.34" transform="translate(-22.808 -4.766)" fill="#f7a145"/>
            <path id="Trazado_906661" data-name="Trazado 906661" d="M79.492,111.054h73.48q.443-19.193.176-38.393h-74.4c.14,12.577.392,25.824.743,38.393" transform="translate(-22.859 -21.092)" fill="#f1d06e"/>
            <path id="Trazado_906662" data-name="Trazado 906662" d="M151.944,122.094q2.365-47.9.32-95.888a8.765,8.765,0,0,0-7.93-8.419,449.686,449.686,0,0,0-57.381-.847A8.771,8.771,0,0,0,78.6,25.684c-.2,27.868.54,69.355,1.881,97.764a8.778,8.778,0,0,0,8.2,8.369,307.253,307.253,0,0,0,55.593-1.383A8.77,8.77,0,0,0,151.944,122.094Z" transform="translate(-22.808 -4.766)" fill="none" stroke="#2e2854" stroke-linecap="round" stroke-linejoin="round" stroke-width="1.5"/>
            <path id="Trazado_906663" data-name="Trazado 906663" d="M130.525,188.434a6.416,6.416,0,1,0,3.69,8.615,6.553,6.553,0,0,0-3.69-8.615" transform="translate(-35.405 -54.599)" fill="#7b478f"/>
            <path id="Trazado_906664" data-name="Trazado 906664" d="M130.525,188.434a6.416,6.416,0,1,0,3.69,8.615A6.553,6.553,0,0,0,130.525,188.434Z" transform="translate(-35.405 -54.599)" fill="none" stroke="#2e2854" stroke-linecap="round" stroke-linejoin="round" stroke-width="1.5"/>
            <path id="Trazado_906665" data-name="Trazado 906665" d="M119.785,9.459a1.774,1.774,0,0,1-.029-3.546c4.636-.222,9.333-.213,13.961.027a1.775,1.775,0,0,1-.184,3.544c-4.512-.233-9.089-.243-13.608-.027-.048,0-.094,0-.141,0" transform="translate(-34.272 -1.67)" fill="#7b478f"/>
            <path id="Trazado_906666" data-name="Trazado 906666" d="M161.93,10.222a1.767,1.767,0,0,1-1.692-1.48l0-.014a1.774,1.774,0,1,1,1.695,1.494" transform="translate(-46.506 -1.935)" fill="#7b478f"/>
            <path id="Trazado_906667" data-name="Trazado 906667" d="M171.657,11.08a1.766,1.766,0,0,1-1.691-1.48l0-.014a1.773,1.773,0,1,1,1.694,1.494" transform="translate(-49.329 -2.184)" fill="#7b478f"/>
            <path id="Trazado_906668" data-name="Trazado 906668" d="M119.785,9.459a1.774,1.774,0,0,1-.029-3.546c4.636-.222,9.333-.213,13.961.027a1.775,1.775,0,0,1-.184,3.544c-4.512-.233-9.089-.243-13.608-.027C119.878,9.46,119.831,9.461,119.785,9.459Z" transform="translate(-34.272 -1.67)" fill="none" stroke="#2e2854" stroke-linecap="round" stroke-linejoin="round" stroke-width="1.5"/>
            <path id="Trazado_906669" data-name="Trazado 906669" d="M161.93,10.222a1.767,1.767,0,0,1-1.692-1.48l0-.014a1.774,1.774,0,1,1,1.695,1.494Z" transform="translate(-46.506 -1.935)" fill="none" stroke="#2e2854" stroke-linecap="round" stroke-linejoin="round" stroke-width="1.5"/>
            <path id="Trazado_906670" data-name="Trazado 906670" d="M171.657,11.08a1.766,1.766,0,0,1-1.691-1.48l0-.014a1.773,1.773,0,1,1,1.694,1.494Z" transform="translate(-49.329 -2.184)" fill="none" stroke="#2e2854" stroke-linecap="round" stroke-linejoin="round" stroke-width="1.5"/>
            <path id="Trazado_906671" data-name="Trazado 906671" d="M138.254,32.263a105.239,105.239,0,0,0-23.5-.685,205.247,205.247,0,0,0,.135,22.728c7.712-.012,15.424-.024,23.324,0-.079-6.913-.158-13.825.04-22.038" transform="translate(-33.236 -9.062)" fill="#fff"/>
            <path id="Trazado_906672" data-name="Trazado 906672" d="M138.254,32.263a105.239,105.239,0,0,0-23.5-.685,205.247,205.247,0,0,0,.135,22.728c7.712-.012,15.424-.024,23.324,0C138.135,47.389,138.056,40.476,138.254,32.263Z" transform="translate(-33.236 -9.062)" fill="none" stroke="#2e2854" stroke-linecap="round" stroke-linejoin="round" stroke-width="1.5"/>
            <path id="Trazado_906673" data-name="Trazado 906673" d="M124.557,35.92a56.686,56.686,0,0,1,6.932,10.428c1.752-6.872,2.493-15.872,4.244-22.742" transform="translate(-36.156 -6.852)" fill="none" stroke="#d14b56" stroke-linecap="round" stroke-linejoin="round" stroke-width="5"/>
            <rect id="Rectángulo_406469" data-name="Rectángulo 406469" width="18.185" height="4.444" transform="translate(68.145 95.591)" fill="#49ad9f"/>
            <rect id="Rectángulo_406470" data-name="Rectángulo 406470" width="31.169" height="4.444" transform="translate(89.629 95.591)" fill="#49ad9f"/>
            <line id="Línea_2032" data-name="Línea 2032" x2="46.37" transform="translate(68.145 106.581)" fill="none" stroke="#2e2854" stroke-linecap="round" stroke-linejoin="round" stroke-width="1.5"/>
            <line id="Línea_2033" data-name="Línea 2033" x2="32.622" transform="translate(68.145 113.126)" fill="none" stroke="#2e2854" stroke-linecap="round" stroke-linejoin="round" stroke-width="1.5"/>
            <path id="Trazado_906674" data-name="Trazado 906674" d="M92,103.021V89.9a.277.277,0,0,1,.267-.287h4.514c2.07,0,4.287,1.158,4.287,3.692a2.69,2.69,0,0,1-.94,2.119A3.911,3.911,0,0,1,102.29,98.8c0,3.326-2.5,4.5-4.939,4.5H92.272a.284.284,0,0,1-.267-.287m5.741-9.364a.951.951,0,0,0-.94-.96H95.4v1.911h1.405a.948.948,0,0,0,.94-.95m.822,5.1a1.289,1.289,0,0,0-1.445-1.267H95.4v2.524h1.722a1.288,1.288,0,0,0,1.445-1.257" transform="translate(-26.707 -26.011)"/>
            <path id="Trazado_906675" data-name="Trazado 906675" d="M107.869,96.379a7.117,7.117,0,1,1,7.116,7.057,7.084,7.084,0,0,1-7.116-7.057m10.551,0a3.443,3.443,0,1,0-3.435,3.593,3.447,3.447,0,0,0,3.435-3.593" transform="translate(-31.312 -25.931)"/>
            <path id="Trazado_906676" data-name="Trazado 906676" d="M141.865,103.305l-7.483-7.226v6.811c0,.416-.841.416-1.693.416s-1.692,0-1.692-.406V89.586c0-.3.237-.3.485-.3a.964.964,0,0,1,.624.128l7.463,7.384V89.823c0-.406.841-.406,1.693-.406s1.7,0,1.7.406v13.3c0,.307-.227.307-.475.307a.95.95,0,0,1-.624-.128" transform="translate(-38.026 -25.919)"/>
            <path id="Trazado_906677" data-name="Trazado 906677" d="M150.666,96.379a7.117,7.117,0,1,1,7.117,7.057,7.085,7.085,0,0,1-7.117-7.057m10.552,0a3.443,3.443,0,1,0-3.435,3.593,3.447,3.447,0,0,0,3.435-3.593" transform="translate(-43.735 -25.931)"/>
            <path id="Trazado_906678" data-name="Trazado 906678" d="M47.992,175.511A290.4,290.4,0,0,1,85.1,134.756a13.344,13.344,0,0,1,4.177-2.893,4.676,4.676,0,0,1,4.8.7c1.994,1.928,1.02,5.259-.169,7.766a201.155,201.155,0,0,1-12.927,22.522,75.62,75.62,0,0,1-13.524,46.929" transform="translate(-13.931 -38.176)" fill="#e8614e"/>
            <path id="Trazado_906679" data-name="Trazado 906679" d="M47.992,175.511A290.4,290.4,0,0,1,85.1,134.756a13.344,13.344,0,0,1,4.177-2.893,4.676,4.676,0,0,1,4.8.7c1.994,1.928,1.02,5.259-.169,7.766a201.155,201.155,0,0,1-12.927,22.522,75.62,75.62,0,0,1-13.524,46.929" transform="translate(-13.931 -38.176)" fill="none" stroke="#2e2854" stroke-linecap="round" stroke-linejoin="round" stroke-width="1.912"/>
          </g>
        </g>
      </g>
    </g>
  </g>
</svg>
