<svg xmlns="http://www.w3.org/2000/svg" xmlns:xlink="http://www.w3.org/1999/xlink" width="93.722" height="93.723" viewBox="0 0 93.722 93.723">
  <defs>
    <filter id="Trazado_874925" x="0" y="0" width="93.722" height="93.723" filterUnits="userSpaceOnUse">
      <feOffset dy="3" input="SourceAlpha"/>
      <feGaussianBlur stdDeviation="3" result="blur"/>
      <feFlood flood-opacity="0.161"/>
      <feComposite operator="in" in2="blur"/>
      <feComposite in="SourceGraphic"/>
    </filter>
  </defs>
  <g id="Grupo_1114843" data-name="Grupo 1114843" transform="translate(-516.051 -3257)">
    <g id="Grupo_1112997" data-name="Grupo 1112997" transform="translate(525.051 3263)">
      <g id="Grupo_1109835" data-name="Grupo 1109835" transform="translate(0 0)">
        <g id="Grupo_1107913" data-name="Grupo 1107913" transform="translate(0 0)">
          <g transform="matrix(1, 0, 0, 1, -9, -6)" filter="url(#Trazado_874925)">
            <g id="Trazado_874925-2" data-name="Trazado 874925" transform="translate(9 6)" fill="#fd9826" opacity="0.859">
              <path d="M 37.86101913452148 74.2225341796875 C 32.95165252685547 74.2225341796875 28.1899299621582 73.26136779785156 23.7081298828125 71.36572265625 C 19.37846374511719 69.534423828125 15.48970794677734 66.91244506835938 12.1498966217041 63.57263565063477 C 8.810074806213379 60.23281097412109 6.188107967376709 56.34405517578125 4.356808185577393 52.01438903808594 C 2.461163520812988 47.53257751464844 1.499996900558472 42.77085494995117 1.499996900558472 37.86148834228516 C 1.499996900558472 32.95167922973633 2.461163520812988 28.18995666503906 4.356808185577393 23.70814514160156 C 6.188107967376709 19.37847900390625 8.810074806213379 15.48972225189209 12.1498966217041 12.14990043640137 C 15.48970794677734 8.810089111328125 19.37846374511719 6.188111305236816 23.7081298828125 4.3568115234375 C 28.1899299621582 2.461167097091675 32.95165252685547 1.500000476837158 37.86101913452148 1.500000476837158 C 42.7703857421875 1.500000476837158 47.53210830688477 2.461167097091675 52.01390838623047 4.3568115234375 C 56.34357452392578 6.188111305236816 60.23233032226562 8.810089111328125 63.57213973999023 12.14990043640137 C 66.91196441650391 15.48972225189209 69.53392791748047 19.37847900390625 71.36522674560547 23.70814514160156 C 73.26087188720703 28.18995666503906 74.22203826904297 32.95167922973633 74.22203826904297 37.86104583740234 C 74.22203826904297 42.77085494995117 73.26087188720703 47.53257751464844 71.36522674560547 52.01438903808594 C 69.53392791748047 56.34405517578125 66.91196441650391 60.23281097412109 63.57213973999023 63.57263565063477 C 60.23233032226562 66.91244506835938 56.34357452392578 69.534423828125 52.01390838623047 71.36572265625 C 47.53210830688477 73.26136779785156 42.7703857421875 74.2225341796875 37.86101913452148 74.2225341796875 Z" stroke="none"/>
              <path d="M 37.86101913452148 3.000007629394531 C 33.15349578857422 3.000007629394531 28.5883674621582 3.921302795410156 24.29245758056641 5.738327026367188 C 20.14159393310547 7.493995666503906 16.41309356689453 10.00801849365234 13.21055603027344 13.21056747436523 C 10.00800323486328 16.41310501098633 7.493980407714844 20.14160537719727 5.738319396972656 24.29246520996094 C 3.921295166015625 28.58837890625 2.999992370605469 33.15350341796875 2.999992370605469 37.86148071289062 C 2.999992370605469 42.56901550292969 3.921295166015625 47.13414001464844 5.738319396972656 51.4300537109375 C 7.493980407714844 55.58092880249023 10.00800323486328 59.30941772460938 13.21055603027344 62.51196670532227 C 16.41309356689453 65.71451568603516 20.14159393310547 68.22854614257812 24.29245758056641 69.98420715332031 C 28.5883674621582 71.80123138427734 33.15349578857422 72.72252655029297 37.86101913452148 72.72252655029297 C 42.56854248046875 72.72252655029297 47.1336669921875 71.80123138427734 51.42958068847656 69.98420715332031 C 55.5804443359375 68.22854614257812 59.30892944335938 65.71451568603516 62.51148223876953 62.51196670532227 C 65.71401977539062 59.30941772460938 68.22804260253906 55.58092880249023 69.98370361328125 51.4300537109375 C 71.80073547363281 47.13414001464844 72.72203063964844 42.56901550292969 72.72203063964844 37.86104202270508 C 72.72203063964844 33.15350341796875 71.80073547363281 28.58837890625 69.98370361328125 24.29246520996094 C 68.22804260253906 20.14160537719727 65.71401977539062 16.41310501098633 62.51148223876953 13.21056747436523 C 59.30892944335938 10.00801849365234 55.5804443359375 7.493995666503906 51.42958068847656 5.738327026367188 C 47.1336669921875 3.921302795410156 42.56854248046875 3.000007629394531 37.86101913452148 3.000007629394531 M 37.86101913452148 7.62939453125e-06 C 58.77108001708984 7.62939453125e-06 75.72203063964844 16.95096588134766 75.72203063964844 37.86104202270508 L 75.72203063964844 37.86148071289062 C 75.72203063964844 58.77156829833984 58.77108001708984 75.72252655029297 37.86101913452148 75.72252655029297 C 16.95095825195312 75.72252655029297 -7.62939453125e-06 58.77156829833984 -7.62939453125e-06 37.86148071289062 L -7.62939453125e-06 37.86104202270508 C -7.62939453125e-06 16.95096588134766 16.95095825195312 7.62939453125e-06 37.86101913452148 7.62939453125e-06 Z" stroke="none" fill="#fff"/>
            </g>
          </g>
          <g id="Trazado_874923" data-name="Trazado 874923" transform="translate(0 0)" fill="none">
            <path d="M37.861,0A37.861,37.861,0,0,1,75.722,37.861h0A37.861,37.861,0,1,1,0,37.861H0A37.861,37.861,0,0,1,37.861,0Z" stroke="none"/>
            <path d="M 37.86101913452148 3.000007629394531 C 33.15349578857422 3.000007629394531 28.5883674621582 3.921302795410156 24.29245758056641 5.738327026367188 C 20.14159393310547 7.493995666503906 16.41309356689453 10.00801849365234 13.21055603027344 13.21056747436523 C 10.00800323486328 16.41310501098633 7.493980407714844 20.14160537719727 5.738319396972656 24.29246520996094 C 3.921295166015625 28.58837890625 2.999992370605469 33.15350341796875 2.999992370605469 37.86148071289062 C 2.999992370605469 42.56901550292969 3.921295166015625 47.13414001464844 5.738319396972656 51.4300537109375 C 7.493980407714844 55.58092880249023 10.00800323486328 59.30941772460938 13.21055603027344 62.51196670532227 C 16.41309356689453 65.71451568603516 20.14159393310547 68.22854614257812 24.29245758056641 69.98420715332031 C 28.5883674621582 71.80123138427734 33.15349578857422 72.72252655029297 37.86101913452148 72.72252655029297 C 42.56854248046875 72.72252655029297 47.1336669921875 71.80123138427734 51.42958068847656 69.98420715332031 C 55.5804443359375 68.22854614257812 59.30892944335938 65.71451568603516 62.51148223876953 62.51196670532227 C 65.71401977539062 59.30941772460938 68.22804260253906 55.58092880249023 69.98370361328125 51.4300537109375 C 71.80073547363281 47.13414001464844 72.72203063964844 42.56901550292969 72.72203063964844 37.86104202270508 C 72.72203063964844 33.15350341796875 71.80073547363281 28.58837890625 69.98370361328125 24.29246520996094 C 68.22804260253906 20.14160537719727 65.71401977539062 16.41310501098633 62.51148223876953 13.21056747436523 C 59.30892944335938 10.00801849365234 55.5804443359375 7.493995666503906 51.42958068847656 5.738327026367188 C 47.1336669921875 3.921302795410156 42.56854248046875 3.000007629394531 37.86101913452148 3.000007629394531 M 37.86101913452148 7.62939453125e-06 C 58.77108001708984 7.62939453125e-06 75.72203063964844 16.95096588134766 75.72203063964844 37.86104202270508 L 75.72203063964844 37.86148071289062 C 75.72203063964844 58.77156829833984 58.77108001708984 75.72252655029297 37.86101913452148 75.72252655029297 C 16.95095825195312 75.72252655029297 -7.62939453125e-06 58.77156829833984 -7.62939453125e-06 37.86148071289062 L -7.62939453125e-06 37.86104202270508 C -7.62939453125e-06 16.95096588134766 16.95095825195312 7.62939453125e-06 37.86101913452148 7.62939453125e-06 Z" stroke="none" fill="#fff"/>
          </g>
        </g>
      </g>
    </g>
    <g id="Grupo_1114842" data-name="Grupo 1114842" transform="translate(528.875 3272.442)">
      <path id="Trazado_908105" data-name="Trazado 908105" d="M53.454,85.2a5.186,5.186,0,0,0-3.952-4.5l-9.642-2.3-.382-4.5a14.51,14.51,0,0,1-1.98,1.222,5.262,5.262,0,0,1-4.784,0,14.509,14.509,0,0,1-1.98-1.222l-.382,4.5-9.646,2.3a5.186,5.186,0,0,0-3.952,4.5l-.827,7.767H54.281Z" transform="translate(-1.053 -41.687)" fill="#6e5a64"/>
      <path id="Trazado_908106" data-name="Trazado 908106" d="M48.081,85.562l1.293,14.184H59.488l1.293-14.184-1.595-.381H49.676Z" transform="translate(-20.38 -48.462)" fill="#edebed"/>
      <path id="Trazado_908107" data-name="Trazado 908107" d="M34.516,44.356s-2.231-1.07-2.981.9a2.971,2.971,0,0,0,3.633,3.827H53.617a2.971,2.971,0,0,0,3.633-3.827c-.75-1.973-2.981-.9-2.981-.9Z" transform="translate(-10.341 -23.748)" fill="#feb983"/>
      <path id="Trazado_908108" data-name="Trazado 908108" d="M68.755,85.181,64,89.058l3.386,4.808,2.671-5.092.293-3.212Z" transform="translate(-29.949 -48.462)" fill="#dbd9dc"/>
      <path id="Trazado_908109" data-name="Trazado 908109" d="M56.007,29.824l-.332-2.56s-7.38,2.942-13.115,0l-.332,2.56a4.869,4.869,0,0,1-1.371,2.8l-1.616,1.63c0,7.768,4.561,11.343,7.485,12.837a5.262,5.262,0,0,0,4.784,0c2.923-1.494,7.485-5.069,7.485-12.837l-1.616-1.63A4.867,4.867,0,0,1,56.007,29.824Z" transform="translate(-15.066 -13.649)" fill="#fcd0a3"/>
      <path id="Trazado_908110" data-name="Trazado 908110" d="M49.676,85.181l4.755,3.877-3.386,4.808-2.671-5.092-.293-3.212Z" transform="translate(-20.38 -48.462)" fill="#dbd9dc"/>
      <path id="Trazado_908111" data-name="Trazado 908111" d="M62.783,98.309l-1.109,2.229H59.091l-1.108-2.229,2.4-3.409Z" transform="translate(-26.332 -54.305)" fill="#dc4655"/>
      <path id="Trazado_908112" data-name="Trazado 908112" d="M63.02,114.084l-.642-5.05H59.794l-.641,5.05Z" transform="translate(-27.035 -62.8)" fill="#e6646e"/>
      <g id="Grupo_1114840" data-name="Grupo 1114840" transform="translate(22.838 10.474)">
        <path id="Trazado_908113" data-name="Trazado 908113" d="M80.52,100.32l2.313-7.092L80.9,86.836l-2.929-.7L76.677,100.32Z" transform="translate(-60.407 -59.51)" fill="#64505a"/>
        <path id="Trazado_908114" data-name="Trazado 908114" d="M38.2,100.32l-2.313-7.092,1.933-6.392,2.929-.7,1.293,14.184Z" transform="translate(-35.891 -59.51)" fill="#64505a"/>
        <path id="Trazado_908115" data-name="Trazado 908115" d="M37.279,19.393l0,0c-2.525,3.517.13,10.134.13,10.134l1.616-1.63a4.869,4.869,0,0,0,1.371-2.8l.332-2.56A9.048,9.048,0,0,1,37.279,19.393Z" transform="translate(-36.068 -19.389)" fill="#64505a"/>
      </g>
      <path id="Trazado_908116" data-name="Trazado 908116" d="M52.667,14.667,53,17.227a4.867,4.867,0,0,0,1.371,2.8l1.616,1.63s2.963-6.992-.384-11.111c0,0-.588-4.241-7.8-4.241-5.784,0-6.911,1.744-13.567,0,0,0,.468,5.874,5.315,8.36,5.737,2.942,13.115,0,13.115,0Z" transform="translate(-12.058 -1.052)" fill="#6e5a64"/>
      <path id="Trazado_908117" data-name="Trazado 908117" d="M61.211,73.909a14.509,14.509,0,0,1-1.978,1.222,5.262,5.262,0,0,1-4.784,0,14.509,14.509,0,0,1-1.98-1.222l-.382,4.5,4.752,3.877L61.6,78.405l-.382-4.5Z" transform="translate(-22.789 -41.687)" fill="#feb983"/>
      <g id="Grupo_1114841" data-name="Grupo 1114841" transform="translate(14.176 4.558)">
        <path id="Trazado_908118" data-name="Trazado 908118" d="M61.986,62.531a.7.7,0,1,0-.683-1.218,5.7,5.7,0,0,1-4.467,0,.7.7,0,0,0-.688,1.215,7.022,7.022,0,0,0,5.838,0Z" transform="translate(-39.192 -38.619)"/>
        <path id="Trazado_908119" data-name="Trazado 908119" d="M15.492,107.145a.7.7,0,0,0-.768.621l-.544,5.106a.7.7,0,0,0,.621.768.673.673,0,0,0,.075,0,.7.7,0,0,0,.693-.624l.544-5.106A.7.7,0,0,0,15.492,107.145Z" transform="translate(-14.176 -66.22)"/>
        <path id="Trazado_908120" data-name="Trazado 908120" d="M18.59,94.34a.7.7,0,0,0-.975.154,5.864,5.864,0,0,0-.886,1.8.7.7,0,1,0,1.34.393,4.473,4.473,0,0,1,.678-1.375.7.7,0,0,0-.156-.975Z" transform="translate(-15.694 -58.445)"/>
        <path id="Trazado_908121" data-name="Trazado 908121" d="M61.373,51.21l-.827-7.767a5.894,5.894,0,0,0-4.484-5.1l-9.152-2.186L46.6,32.543A13.713,13.713,0,0,0,51.213,26.1c.116.008.232.017.345.017a3.5,3.5,0,0,0,2.773-1.228,3.8,3.8,0,0,0,.682-3.627A2.439,2.439,0,0,0,53.648,19.8a2.725,2.725,0,0,0-1.18-.172,16.988,16.988,0,0,0,.813-5.418.7.7,0,1,0-1.4.045,15.8,15.8,0,0,1-.791,5.075l-.835-.842a4.2,4.2,0,0,1-1.175-2.4l-.331-2.56a.7.7,0,0,0-.951-.558c-.071.028-7.159,2.786-12.539.028-3.281-1.683-4.408-5.118-4.774-6.809a17.9,17.9,0,0,0,7.882.2A28.79,28.79,0,0,1,43.2,5.954c6.452,0,7.084,3.5,7.107,3.639a.7.7,0,0,0,.15.344,5.752,5.752,0,0,1,.669,1.034.7.7,0,1,0,1.246-.629,7.185,7.185,0,0,0-.723-1.148c-.225-.938-1.552-4.636-8.448-4.636A30.342,30.342,0,0,0,38.159,5a17.051,17.051,0,0,1-8.352-.423.7.7,0,0,0-.873.731,13.018,13.018,0,0,0,1.732,5.163c-1.691,2.862-.75,7.077-.114,9.153a2.727,2.727,0,0,0-1.194.172,2.439,2.439,0,0,0-1.365,1.464,3.8,3.8,0,0,0,.682,3.627,3.5,3.5,0,0,0,2.773,1.228c.113,0,.229-.009.345-.017A13.713,13.713,0,0,0,36.4,32.543l-.307,3.614L27.11,38.3a.7.7,0,0,0,.16,1.377.69.69,0,0,0,.163-.02l3.771-.9-1.582,5.229a.7.7,0,0,0,0,.418L31.94,51.5a.7.7,0,0,0,.663.482.681.681,0,0,0,.217-.035.7.7,0,0,0,.447-.88l-2.245-6.881,1.755-5.8,1.755-.419.219,2.4v0l1,10.975a.7.7,0,0,0,.694.635.428.428,0,0,0,.064,0,.7.7,0,0,0,.632-.758l-.683-7.475L37.5,45.728a.7.7,0,0,0,.573.372h.046a.7.7,0,0,0,.57-.3L39,45.362l.493.991-.615,4.84a.7.7,0,0,0,.6.781.671.671,0,0,0,.089.006.7.7,0,0,0,.692-.61l.564-4.44h1.355l.564,4.44a.7.7,0,0,0,.692.61.675.675,0,0,0,.089-.006.7.7,0,0,0,.6-.781l-.615-4.84.493-.991.312.442a.7.7,0,0,0,.57.3h.046a.7.7,0,0,0,.573-.372l1.039-1.981-.681,7.473a.7.7,0,0,0,.632.758c.021,0,.043,0,.064,0a.7.7,0,0,0,.694-.635l1-10.974v0l.219-2.4,1.755.419,1.755,5.8-2.247,6.883a.7.7,0,0,0,.448.88.681.681,0,0,0,.216.035.7.7,0,0,0,.664-.482l2.314-7.092a.694.694,0,0,0,0-.418L51.8,38.761l3.936.94a4.5,4.5,0,0,1,3.42,3.89l.827,7.767a.7.7,0,0,0,.693.624.666.666,0,0,0,.075,0,.7.7,0,0,0,.62-.768ZM53.13,21.1a1.056,1.056,0,0,1,.579.663,2.413,2.413,0,0,1-.446,2.234,2.109,2.109,0,0,1-1.649.727,17.359,17.359,0,0,0,.454-3.619,1.782,1.782,0,0,1,1.062,0ZM34.191,14l-.27,2.087a4.2,4.2,0,0,1-1.175,2.4l-.825.832c-.525-1.7-1.346-5.126-.344-7.546A9.62,9.62,0,0,0,34.191,14Zm-4.448,9.994a2.413,2.413,0,0,1-.446-2.234,1.056,1.056,0,0,1,.574-.662,1.77,1.77,0,0,1,1.066.006,17.377,17.377,0,0,0,.454,3.617,2.11,2.11,0,0,1-1.648-.727Zm2.584-3.1,1.408-1.42a5.6,5.6,0,0,0,1.568-3.2l.21-1.621c4.66,1.907,9.94.568,11.963-.085l.221,1.706a5.6,5.6,0,0,0,1.568,3.2l1.411,1.42c-.112,7.271-4.48,10.595-7.1,11.933a4.574,4.574,0,0,1-4.149,0C36.809,31.484,32.441,28.16,32.328,20.89ZM38.79,34.066a5.968,5.968,0,0,0,5.419,0c.334-.17.694-.371,1.069-.6l.251,2.948L41.5,39.695,37.474,36.41l.251-2.948c.375.232.735.432,1.069.6ZM36.128,40.11,35.9,37.637l.671-.16,3.983,3.248L38.2,44.067Zm6.234,5.425H40.643l-.731-1.469,1.59-2.258,1.59,2.258Zm4.516-5.425L44.8,44.068,42.45,40.726l3.983-3.248.671.16Z" transform="translate(-21.628 -4.558)"/>
        <path id="Trazado_908122" data-name="Trazado 908122" d="M51.927,40.931a.7.7,0,1,0,.929-1.042,3.469,3.469,0,0,0-4.111,0,.691.691,0,0,0-.052.97.7.7,0,0,0,.98.074,2.137,2.137,0,0,1,2.254,0Z" transform="translate(-34.82 -25.388)"/>
        <path id="Trazado_908123" data-name="Trazado 908123" d="M53.75,46.755a.963.963,0,1,0-.963.963.963.963,0,0,0,.963-.963Z" transform="translate(-36.806 -29.343)"/>
        <path id="Trazado_908124" data-name="Trazado 908124" d="M69.2,40.937a2.138,2.138,0,0,1,2.255,0,.7.7,0,1,0,.929-1.042,3.47,3.47,0,0,0-4.111,0,.692.692,0,0,0-.052.97A.7.7,0,0,0,69.2,40.937Z" transform="translate(-46.555 -25.394)"/>
        <path id="Trazado_908125" data-name="Trazado 908125" d="M72.31,45.792a.963.963,0,1,0,.963.963.963.963,0,0,0-.963-.963Z" transform="translate(-48.541 -29.343)"/>
      </g>
    </g>
  </g>
</svg>
