<svg xmlns="http://www.w3.org/2000/svg" xmlns:xlink="http://www.w3.org/1999/xlink" width="93.722" height="93.723" viewBox="0 0 93.722 93.723">
  <defs>
    <filter id="Trazado_874925" x="0" y="0" width="93.722" height="93.723" filterUnits="userSpaceOnUse">
      <feOffset dy="3" input="SourceAlpha"/>
      <feGaussianBlur stdDeviation="3" result="blur"/>
      <feFlood flood-opacity="0.161"/>
      <feComposite operator="in" in2="blur"/>
      <feComposite in="SourceGraphic"/>
    </filter>
  </defs>
  <g id="Grupo_1114848" data-name="Grupo 1114848" transform="translate(-831.051 -3257)">
    <g id="Grupo_1114847" data-name="Grupo 1114847">
      <g id="Grupo_1112996" data-name="Grupo 1112996" transform="translate(840.051 3263)">
        <g id="Grupo_1109835" data-name="Grupo 1109835" transform="translate(0 0)">
          <g id="Grupo_1107913" data-name="Grupo 1107913" transform="translate(0 0)">
            <g transform="matrix(1, 0, 0, 1, -9, -6)" filter="url(#Trazado_874925)">
              <g id="Trazado_874925-2" data-name="Trazado 874925" transform="translate(9 6)" fill="#fd9826" opacity="0.859">
                <path d="M 37.86101913452148 74.2225341796875 C 32.95165252685547 74.2225341796875 28.1899299621582 73.26136779785156 23.7081298828125 71.36572265625 C 19.37846374511719 69.534423828125 15.48970794677734 66.91244506835938 12.1498966217041 63.57263565063477 C 8.810074806213379 60.23281097412109 6.188107967376709 56.34405517578125 4.356808185577393 52.01438903808594 C 2.461163520812988 47.53257751464844 1.499996900558472 42.77085494995117 1.499996900558472 37.86148834228516 C 1.499996900558472 32.95167922973633 2.461163520812988 28.18995666503906 4.356808185577393 23.70814514160156 C 6.188107967376709 19.37847900390625 8.810074806213379 15.48972225189209 12.1498966217041 12.14990043640137 C 15.48970794677734 8.810089111328125 19.37846374511719 6.188111305236816 23.7081298828125 4.3568115234375 C 28.1899299621582 2.461167097091675 32.95165252685547 1.500000476837158 37.86101913452148 1.500000476837158 C 42.7703857421875 1.500000476837158 47.53210830688477 2.461167097091675 52.01390838623047 4.3568115234375 C 56.34357452392578 6.188111305236816 60.23233032226562 8.810089111328125 63.57213973999023 12.14990043640137 C 66.91196441650391 15.48972225189209 69.53392791748047 19.37847900390625 71.36522674560547 23.70814514160156 C 73.26087188720703 28.18995666503906 74.22203826904297 32.95167922973633 74.22203826904297 37.86104583740234 C 74.22203826904297 42.77085494995117 73.26087188720703 47.53257751464844 71.36522674560547 52.01438903808594 C 69.53392791748047 56.34405517578125 66.91196441650391 60.23281097412109 63.57213973999023 63.57263565063477 C 60.23233032226562 66.91244506835938 56.34357452392578 69.534423828125 52.01390838623047 71.36572265625 C 47.53210830688477 73.26136779785156 42.7703857421875 74.2225341796875 37.86101913452148 74.2225341796875 Z" stroke="none"/>
                <path d="M 37.86101913452148 3.000007629394531 C 33.15349578857422 3.000007629394531 28.5883674621582 3.921302795410156 24.29245758056641 5.738327026367188 C 20.14159393310547 7.493995666503906 16.41309356689453 10.00801849365234 13.21055603027344 13.21056747436523 C 10.00800323486328 16.41310501098633 7.493980407714844 20.14160537719727 5.738319396972656 24.29246520996094 C 3.921295166015625 28.58837890625 2.999992370605469 33.15350341796875 2.999992370605469 37.86148071289062 C 2.999992370605469 42.56901550292969 3.921295166015625 47.13414001464844 5.738319396972656 51.4300537109375 C 7.493980407714844 55.58092880249023 10.00800323486328 59.30941772460938 13.21055603027344 62.51196670532227 C 16.41309356689453 65.71451568603516 20.14159393310547 68.22854614257812 24.29245758056641 69.98420715332031 C 28.5883674621582 71.80123138427734 33.15349578857422 72.72252655029297 37.86101913452148 72.72252655029297 C 42.56854248046875 72.72252655029297 47.1336669921875 71.80123138427734 51.42958068847656 69.98420715332031 C 55.5804443359375 68.22854614257812 59.30892944335938 65.71451568603516 62.51148223876953 62.51196670532227 C 65.71401977539062 59.30941772460938 68.22804260253906 55.58092880249023 69.98370361328125 51.4300537109375 C 71.80073547363281 47.13414001464844 72.72203063964844 42.56901550292969 72.72203063964844 37.86104202270508 C 72.72203063964844 33.15350341796875 71.80073547363281 28.58837890625 69.98370361328125 24.29246520996094 C 68.22804260253906 20.14160537719727 65.71401977539062 16.41310501098633 62.51148223876953 13.21056747436523 C 59.30892944335938 10.00801849365234 55.5804443359375 7.493995666503906 51.42958068847656 5.738327026367188 C 47.1336669921875 3.921302795410156 42.56854248046875 3.000007629394531 37.86101913452148 3.000007629394531 M 37.86101913452148 7.62939453125e-06 C 58.77108001708984 7.62939453125e-06 75.72203063964844 16.95096588134766 75.72203063964844 37.86104202270508 L 75.72203063964844 37.86148071289062 C 75.72203063964844 58.77156829833984 58.77108001708984 75.72252655029297 37.86101913452148 75.72252655029297 C 16.95095825195312 75.72252655029297 -7.62939453125e-06 58.77156829833984 -7.62939453125e-06 37.86148071289062 L -7.62939453125e-06 37.86104202270508 C -7.62939453125e-06 16.95096588134766 16.95095825195312 7.62939453125e-06 37.86101913452148 7.62939453125e-06 Z" stroke="none" fill="#fff"/>
              </g>
            </g>
            <g id="Trazado_874923" data-name="Trazado 874923" transform="translate(0 0)" fill="none">
              <path d="M37.861,0A37.861,37.861,0,0,1,75.722,37.861h0A37.861,37.861,0,1,1,0,37.861H0A37.861,37.861,0,0,1,37.861,0Z" stroke="none"/>
              <path d="M 37.86101913452148 3.000007629394531 C 33.15349578857422 3.000007629394531 28.5883674621582 3.921302795410156 24.29245758056641 5.738327026367188 C 20.14159393310547 7.493995666503906 16.41309356689453 10.00801849365234 13.21055603027344 13.21056747436523 C 10.00800323486328 16.41310501098633 7.493980407714844 20.14160537719727 5.738319396972656 24.29246520996094 C 3.921295166015625 28.58837890625 2.999992370605469 33.15350341796875 2.999992370605469 37.86148071289062 C 2.999992370605469 42.56901550292969 3.921295166015625 47.13414001464844 5.738319396972656 51.4300537109375 C 7.493980407714844 55.58092880249023 10.00800323486328 59.30941772460938 13.21055603027344 62.51196670532227 C 16.41309356689453 65.71451568603516 20.14159393310547 68.22854614257812 24.29245758056641 69.98420715332031 C 28.5883674621582 71.80123138427734 33.15349578857422 72.72252655029297 37.86101913452148 72.72252655029297 C 42.56854248046875 72.72252655029297 47.1336669921875 71.80123138427734 51.42958068847656 69.98420715332031 C 55.5804443359375 68.22854614257812 59.30892944335938 65.71451568603516 62.51148223876953 62.51196670532227 C 65.71401977539062 59.30941772460938 68.22804260253906 55.58092880249023 69.98370361328125 51.4300537109375 C 71.80073547363281 47.13414001464844 72.72203063964844 42.56901550292969 72.72203063964844 37.86104202270508 C 72.72203063964844 33.15350341796875 71.80073547363281 28.58837890625 69.98370361328125 24.29246520996094 C 68.22804260253906 20.14160537719727 65.71401977539062 16.41310501098633 62.51148223876953 13.21056747436523 C 59.30892944335938 10.00801849365234 55.5804443359375 7.493995666503906 51.42958068847656 5.738327026367188 C 47.1336669921875 3.921302795410156 42.56854248046875 3.000007629394531 37.86101913452148 3.000007629394531 M 37.86101913452148 7.62939453125e-06 C 58.77108001708984 7.62939453125e-06 75.72203063964844 16.95096588134766 75.72203063964844 37.86104202270508 L 75.72203063964844 37.86148071289062 C 75.72203063964844 58.77156829833984 58.77108001708984 75.72252655029297 37.86101913452148 75.72252655029297 C 16.95095825195312 75.72252655029297 -7.62939453125e-06 58.77156829833984 -7.62939453125e-06 37.86148071289062 L -7.62939453125e-06 37.86104202270508 C -7.62939453125e-06 16.95096588134766 16.95095825195312 7.62939453125e-06 37.86101913452148 7.62939453125e-06 Z" stroke="none" fill="#fff"/>
            </g>
          </g>
        </g>
      </g>
      <g id="Grupo_1114846" data-name="Grupo 1114846" transform="translate(848.806 3271.759)">
        <g id="Grupo_1114844" data-name="Grupo 1114844" transform="translate(5.957 5.955)">
          <path id="Trazado_908126" data-name="Trazado 908126" d="M79.3,75.828,93.168,88.736a3.133,3.133,0,1,1-4.428,4.428L75.833,79.3Z" transform="translate(-47.893 -47.89)" fill="#ffda2c"/>
          <path id="Trazado_908127" data-name="Trazado 908127" d="M83.04,79.309l-3.73,3.73L75.828,79.3,79.3,75.828Z" transform="translate(-47.89 -47.89)" fill="#fcbe00"/>
          <circle id="Elipse_12835" data-name="Elipse 12835" cx="17.454" cy="17.454" r="17.454" transform="translate(0)" fill="#f73"/>
          <circle id="Elipse_12836" data-name="Elipse 12836" cx="13.598" cy="13.598" r="13.598" transform="translate(3.856 3.856)" fill="#e9f4ff"/>
          <path id="Trazado_908128" data-name="Trazado 908128" d="M43.008,61.837l-4.5-.822H34.162l-4.5.822A3.247,3.247,0,0,0,27,65.031v1.395a13.584,13.584,0,0,0,18.672,0V65.031a3.247,3.247,0,0,0-2.664-3.194Z" transform="translate(-18.882 -39.09)" fill="#59c7ff"/>
          <circle id="Elipse_12837" data-name="Elipse 12837" cx="6.089" cy="6.089" r="6.089" transform="translate(11.365 10.148)" fill="#ffcdc0"/>
        </g>
        <g id="Grupo_1114845" data-name="Grupo 1114845" transform="translate(5.245 5.242)">
          <path id="Trazado_908129" data-name="Trazado 908129" d="M78.031,18.341a.71.71,0,1,0,1.048-.959,18.379,18.379,0,0,0-1.514-1.473.71.71,0,1,0-.93,1.074A17.023,17.023,0,0,1,78.031,18.341Z" transform="translate(-47.512 -11.476)"/>
          <path id="Trazado_908130" data-name="Trazado 908130" d="M23.411,40.153A16.744,16.744,0,1,1,31.541,8.768a.71.71,0,1,0,.69-1.242,18.166,18.166,0,1,0-8.82,34.047.71.71,0,1,0,0-1.421Z" transform="translate(-5.245 -5.242)"/>
          <path id="Trazado_908131" data-name="Trazado 908131" d="M14.75,29.058A14.308,14.308,0,1,0,29.058,14.75,14.308,14.308,0,0,0,14.75,29.058Zm5.683,9.566V37.545a2.536,2.536,0,0,1,2.082-2.5l4.324-.789a6.68,6.68,0,0,0,4.439,0l4.325.789a2.536,2.536,0,0,1,2.081,2.5v1.079a12.86,12.86,0,0,1-17.251,0Zm8.625-5.405a5.378,5.378,0,1,1,5.378-5.378A5.378,5.378,0,0,1,29.058,33.219Zm12.887-4.161a12.824,12.824,0,0,1-2.862,8.087,3.956,3.956,0,0,0-3.225-3.494l-2.6-.474a6.8,6.8,0,1,0-8.4,0l-2.6.475a3.956,3.956,0,0,0-3.228,3.494,12.884,12.884,0,1,1,22.913-8.087Z" transform="translate(-10.892 -10.89)"/>
          <path id="Trazado_908132" data-name="Trazado 908132" d="M82.652,58.821l-13.425-12.5A18.1,18.1,0,0,0,69.982,26.7a.71.71,0,1,0-1.222.725,16.752,16.752,0,0,1-10.881,24.9.71.71,0,0,0,.149,1.4.731.731,0,0,0,.15-.016,17.941,17.941,0,0,0,6.553-2.871l6.85,7.359a.71.71,0,1,0,1.04-.968L69.3,53.661l2.76-2.76,9.624,8.96a2.423,2.423,0,0,1,.062,3.487,2.354,2.354,0,0,1-1.756.709,2.4,2.4,0,0,1-1.73-.771l-3.12-3.351a.71.71,0,1,0-1.04.968l3.119,3.351a3.812,3.812,0,0,0,2.744,1.224h.071a3.844,3.844,0,0,0,2.617-6.657Zm-14.322-6.2-2.465-2.649a18.387,18.387,0,0,0,2.5-2.511l2.654,2.471Z" transform="translate(-36.181 -17.781)"/>
        </g>
      </g>
    </g>
  </g>
</svg>
