<svg xmlns="http://www.w3.org/2000/svg" xmlns:xlink="http://www.w3.org/1999/xlink" width="93.722" height="93.723" viewBox="0 0 93.722 93.723">
  <defs>
    <filter id="Trazado_874925" x="0" y="0" width="93.722" height="93.723" filterUnits="userSpaceOnUse">
      <feOffset dy="3" input="SourceAlpha"/>
      <feGaussianBlur stdDeviation="3" result="blur"/>
      <feFlood flood-opacity="0.161"/>
      <feComposite operator="in" in2="blur"/>
      <feComposite in="SourceGraphic"/>
    </filter>
  </defs>
  <g id="Grupo_1114854" data-name="Grupo 1114854" transform="translate(-1146.051 -3257)">
    <g id="Grupo_1112995" data-name="Grupo 1112995" transform="translate(1155.051 3263)">
      <g id="Grupo_1109835" data-name="Grupo 1109835" transform="translate(0 0)">
        <g id="Grupo_1107913" data-name="Grupo 1107913" transform="translate(0 0)">
          <g transform="matrix(1, 0, 0, 1, -9, -6)" filter="url(#Trazado_874925)">
            <g id="Trazado_874925-2" data-name="Trazado 874925" transform="translate(9 6)" fill="#fd9826" opacity="0.859">
              <path d="M 37.86101913452148 74.2225341796875 C 32.95165252685547 74.2225341796875 28.1899299621582 73.26136779785156 23.7081298828125 71.36572265625 C 19.37846374511719 69.534423828125 15.48970794677734 66.91244506835938 12.1498966217041 63.57263565063477 C 8.810074806213379 60.23281097412109 6.188107967376709 56.34405517578125 4.356808185577393 52.01438903808594 C 2.461163520812988 47.53257751464844 1.499996900558472 42.77085494995117 1.499996900558472 37.86148834228516 C 1.499996900558472 32.95167922973633 2.461163520812988 28.18995666503906 4.356808185577393 23.70814514160156 C 6.188107967376709 19.37847900390625 8.810074806213379 15.48972225189209 12.1498966217041 12.14990043640137 C 15.48970794677734 8.810089111328125 19.37846374511719 6.188111305236816 23.7081298828125 4.3568115234375 C 28.1899299621582 2.461167097091675 32.95165252685547 1.500000476837158 37.86101913452148 1.500000476837158 C 42.7703857421875 1.500000476837158 47.53210830688477 2.461167097091675 52.01390838623047 4.3568115234375 C 56.34357452392578 6.188111305236816 60.23233032226562 8.810089111328125 63.57213973999023 12.14990043640137 C 66.91196441650391 15.48972225189209 69.53392791748047 19.37847900390625 71.36522674560547 23.70814514160156 C 73.26087188720703 28.18995666503906 74.22203826904297 32.95167922973633 74.22203826904297 37.86104583740234 C 74.22203826904297 42.77085494995117 73.26087188720703 47.53257751464844 71.36522674560547 52.01438903808594 C 69.53392791748047 56.34405517578125 66.91196441650391 60.23281097412109 63.57213973999023 63.57263565063477 C 60.23233032226562 66.91244506835938 56.34357452392578 69.534423828125 52.01390838623047 71.36572265625 C 47.53210830688477 73.26136779785156 42.7703857421875 74.2225341796875 37.86101913452148 74.2225341796875 Z" stroke="none"/>
              <path d="M 37.86101913452148 3.000007629394531 C 33.15349578857422 3.000007629394531 28.5883674621582 3.921302795410156 24.29245758056641 5.738327026367188 C 20.14159393310547 7.493995666503906 16.41309356689453 10.00801849365234 13.21055603027344 13.21056747436523 C 10.00800323486328 16.41310501098633 7.493980407714844 20.14160537719727 5.738319396972656 24.29246520996094 C 3.921295166015625 28.58837890625 2.999992370605469 33.15350341796875 2.999992370605469 37.86148071289062 C 2.999992370605469 42.56901550292969 3.921295166015625 47.13414001464844 5.738319396972656 51.4300537109375 C 7.493980407714844 55.58092880249023 10.00800323486328 59.30941772460938 13.21055603027344 62.51196670532227 C 16.41309356689453 65.71451568603516 20.14159393310547 68.22854614257812 24.29245758056641 69.98420715332031 C 28.5883674621582 71.80123138427734 33.15349578857422 72.72252655029297 37.86101913452148 72.72252655029297 C 42.56854248046875 72.72252655029297 47.1336669921875 71.80123138427734 51.42958068847656 69.98420715332031 C 55.5804443359375 68.22854614257812 59.30892944335938 65.71451568603516 62.51148223876953 62.51196670532227 C 65.71401977539062 59.30941772460938 68.22804260253906 55.58092880249023 69.98370361328125 51.4300537109375 C 71.80073547363281 47.13414001464844 72.72203063964844 42.56901550292969 72.72203063964844 37.86104202270508 C 72.72203063964844 33.15350341796875 71.80073547363281 28.58837890625 69.98370361328125 24.29246520996094 C 68.22804260253906 20.14160537719727 65.71401977539062 16.41310501098633 62.51148223876953 13.21056747436523 C 59.30892944335938 10.00801849365234 55.5804443359375 7.493995666503906 51.42958068847656 5.738327026367188 C 47.1336669921875 3.921302795410156 42.56854248046875 3.000007629394531 37.86101913452148 3.000007629394531 M 37.86101913452148 7.62939453125e-06 C 58.77108001708984 7.62939453125e-06 75.72203063964844 16.95096588134766 75.72203063964844 37.86104202270508 L 75.72203063964844 37.86148071289062 C 75.72203063964844 58.77156829833984 58.77108001708984 75.72252655029297 37.86101913452148 75.72252655029297 C 16.95095825195312 75.72252655029297 -7.62939453125e-06 58.77156829833984 -7.62939453125e-06 37.86148071289062 L -7.62939453125e-06 37.86104202270508 C -7.62939453125e-06 16.95096588134766 16.95095825195312 7.62939453125e-06 37.86101913452148 7.62939453125e-06 Z" stroke="none" fill="#fff"/>
            </g>
          </g>
          <g id="Trazado_874923" data-name="Trazado 874923" transform="translate(0 0)" fill="none">
            <path d="M37.861,0A37.861,37.861,0,0,1,75.722,37.861h0A37.861,37.861,0,1,1,0,37.861H0A37.861,37.861,0,0,1,37.861,0Z" stroke="none"/>
            <path d="M 37.86101913452148 3.000007629394531 C 33.15349578857422 3.000007629394531 28.5883674621582 3.921302795410156 24.29245758056641 5.738327026367188 C 20.14159393310547 7.493995666503906 16.41309356689453 10.00801849365234 13.21055603027344 13.21056747436523 C 10.00800323486328 16.41310501098633 7.493980407714844 20.14160537719727 5.738319396972656 24.29246520996094 C 3.921295166015625 28.58837890625 2.999992370605469 33.15350341796875 2.999992370605469 37.86148071289062 C 2.999992370605469 42.56901550292969 3.921295166015625 47.13414001464844 5.738319396972656 51.4300537109375 C 7.493980407714844 55.58092880249023 10.00800323486328 59.30941772460938 13.21055603027344 62.51196670532227 C 16.41309356689453 65.71451568603516 20.14159393310547 68.22854614257812 24.29245758056641 69.98420715332031 C 28.5883674621582 71.80123138427734 33.15349578857422 72.72252655029297 37.86101913452148 72.72252655029297 C 42.56854248046875 72.72252655029297 47.1336669921875 71.80123138427734 51.42958068847656 69.98420715332031 C 55.5804443359375 68.22854614257812 59.30892944335938 65.71451568603516 62.51148223876953 62.51196670532227 C 65.71401977539062 59.30941772460938 68.22804260253906 55.58092880249023 69.98370361328125 51.4300537109375 C 71.80073547363281 47.13414001464844 72.72203063964844 42.56901550292969 72.72203063964844 37.86104202270508 C 72.72203063964844 33.15350341796875 71.80073547363281 28.58837890625 69.98370361328125 24.29246520996094 C 68.22804260253906 20.14160537719727 65.71401977539062 16.41310501098633 62.51148223876953 13.21056747436523 C 59.30892944335938 10.00801849365234 55.5804443359375 7.493995666503906 51.42958068847656 5.738327026367188 C 47.1336669921875 3.921302795410156 42.56854248046875 3.000007629394531 37.86101913452148 3.000007629394531 M 37.86101913452148 7.62939453125e-06 C 58.77108001708984 7.62939453125e-06 75.72203063964844 16.95096588134766 75.72203063964844 37.86104202270508 L 75.72203063964844 37.86148071289062 C 75.72203063964844 58.77156829833984 58.77108001708984 75.72252655029297 37.86101913452148 75.72252655029297 C 16.95095825195312 75.72252655029297 -7.62939453125e-06 58.77156829833984 -7.62939453125e-06 37.86148071289062 L -7.62939453125e-06 37.86104202270508 C -7.62939453125e-06 16.95096588134766 16.95095825195312 7.62939453125e-06 37.86101913452148 7.62939453125e-06 Z" stroke="none" fill="#fff"/>
          </g>
        </g>
      </g>
    </g>
    <g id="Grupo_1114853" data-name="Grupo 1114853" transform="translate(1125.238 3276)">
      <g id="Grupo_1114851" data-name="Grupo 1114851" transform="translate(48.544 0.731)">
        <path id="Trazado_908133" data-name="Trazado 908133" d="M148.724,164.991a2.988,2.988,0,1,0,2.988,2.988A2.988,2.988,0,0,0,148.724,164.991Z" transform="translate(-136.922 -149.639)" fill="#596c76"/>
        <path id="Trazado_908134" data-name="Trazado 908134" d="M159.587,22.307a9.751,9.751,0,1,0-16.681,0Z" transform="translate(-133.095 -7.5)" fill="#596c76"/>
        <path id="Trazado_908135" data-name="Trazado 908135" d="M211.344,7.5a9.733,9.733,0,0,0-3.26.559c4.434,1.088,9,3.864,9,9.193a10.148,10.148,0,0,1-1.331,5.055h3.931A9.755,9.755,0,0,0,211.344,7.5Z" transform="translate(-193.192 -7.5)" fill="#465a61"/>
        <g id="Grupo_1114849" data-name="Grupo 1114849" transform="translate(8.401 13.038)">
          <path id="Trazado_908136" data-name="Trazado 908136" d="M297.964,142a1.868,1.868,0,0,0-2.615-.378l-1.681,1.256.411,2.415c1.264,0,2.494.078,3.506-.678A1.868,1.868,0,0,0,297.964,142Z" transform="translate(-278.835 -141.25)" fill="#ca6e59"/>
          <path id="Trazado_908137" data-name="Trazado 908137" d="M141.868,142a1.868,1.868,0,0,1,2.615-.378l1.681,1.256-.411,2.415c-1.264,0-2.494.078-3.506-.678A1.868,1.868,0,0,1,141.868,142Z" transform="translate(-141.496 -141.25)" fill="#ca6e59"/>
        </g>
        <path id="Trazado_908138" data-name="Trazado 908138" d="M106.195,205.793a4.321,4.321,0,0,0-2.693-2.64,27.706,27.706,0,0,0-5.086-1.188.628.628,0,0,1-.544-.623v-5.124H92.094v5.124a.628.628,0,0,1-.544.623,27.714,27.714,0,0,0-5.085,1.188,4.321,4.321,0,0,0-2.693,2.64l-4.616,12.826h5.859v7.649h19.74l6.056-7.649Z" transform="translate(-76.832 -177.821)" fill="#596c76"/>
        <path id="Trazado_908139" data-name="Trazado 908139" d="M257.828,205.794a4.321,4.321,0,0,0-2.693-2.64,27.7,27.7,0,0,0-5.085-1.188.628.628,0,0,1-.544-.623v-5.124h-2.339V202.8a.628.628,0,0,0,.544.623,27.709,27.709,0,0,1,5.085,1.188,4.322,4.322,0,0,1,2.693,2.64L260.1,218.62l-6.056,7.649h2.339l6.056-7.649Z" transform="translate(-228.466 -177.822)" fill="#465a61"/>
        <path id="Trazado_908140" data-name="Trazado 908140" d="M182.942,213.935a.523.523,0,0,0,.933,0l5.81-11.429a27,27,0,0,0-2.844-.541.628.628,0,0,1-.544-.623v-5.124h-5.779v5.124a.628.628,0,0,1-.544.623,27,27,0,0,0-2.844.541Z" transform="translate(-165.257 -177.821)" fill="#e5eef9"/>
        <path id="Trazado_908141" data-name="Trazado 908141" d="M247.71,203.427a27.429,27.429,0,0,1,4.245.924l.938-1.844a27,27,0,0,0-2.844-.541.628.628,0,0,1-.544-.623v-5.124h-2.339V202.8a.628.628,0,0,0,.544.623Z" transform="translate(-228.465 -177.821)" fill="#c4e2ff"/>
        <path id="Trazado_908142" data-name="Trazado 908142" d="M177.643,203.512a8.3,8.3,0,0,0,11.531,0l.511-1.006a27,27,0,0,0-2.844-.542.628.628,0,0,1-.544-.623v-5.124h-5.779v5.124a.628.628,0,0,1-.544.623,27,27,0,0,0-2.844.542Z" transform="translate(-165.257 -177.821)" fill="#d78878"/>
        <path id="Trazado_908143" data-name="Trazado 908143" d="M218.2,201.965a.628.628,0,0,1-.544-.623v-5.124h-5.779v4.321a.759.759,0,0,0,.754.759c.6,0,1.335.006,1.335.006a1.35,1.35,0,0,1,1.35,1.35v.151a.628.628,0,0,0,.543.623,27.294,27.294,0,0,1,3.824.8,8.345,8.345,0,0,0,.848-.714l.511-1.006A27.026,27.026,0,0,0,218.2,201.965Z" transform="translate(-196.619 -177.821)" fill="#ca6e59"/>
        <path id="Trazado_908144" data-name="Trazado 908144" d="M188.339,87.774a6.358,6.358,0,0,1-4.531,1.889h-3.155a3.263,3.263,0,0,0-3.263,3.263v3.628a4.781,4.781,0,0,0,4.781,4.781h2.941a4.781,4.781,0,0,0,4.781-4.781V88.422A.912.912,0,0,0,188.339,87.774Z" transform="translate(-165.49 -79.707)" fill="#d78878"/>
        <path id="Trazado_908145" data-name="Trazado 908145" d="M311.305,323.427h-7.536a.723.723,0,0,1-.524-.224l-2.991-3.136a.262.262,0,0,0-.452.181v2.74a.439.439,0,0,1-.439.439h-1.7a.975.975,0,0,0-.975.975V337a.975.975,0,0,0,.975.975h13.647a.975.975,0,0,0,.975-.975V324.4A.975.975,0,0,0,311.305,323.427Z" transform="translate(-273.155 -289.524)" fill="#e5eef9"/>
        <path id="Trazado_908146" data-name="Trazado 908146" d="M424.124,355.3h-2.437a.975.975,0,0,1,.975.975v12.594a.975.975,0,0,1-.975.975h2.437a.975.975,0,0,0,.975-.975V356.273A.975.975,0,0,0,424.124,355.3Z" transform="translate(-385.974 -321.396)" fill="#c4e2ff"/>
        <g id="Grupo_1114850" data-name="Grupo 1114850" transform="translate(0 34.942)">
          <path id="Trazado_908147" data-name="Trazado 908147" d="M55.313,366.645v12.14a.682.682,0,0,0,.682.682H68.6a.682.682,0,0,0,.682-.682v-12.14a.682.682,0,0,0-.682-.682H56A.682.682,0,0,0,55.313,366.645Z" transform="translate(-55.313 -365.963)" fill="#fece85"/>
          <path id="Trazado_908148" data-name="Trazado 908148" d="M169.981,365.963h-2.339a.682.682,0,0,1,.682.682v12.14a.682.682,0,0,1-.682.682h2.339a.682.682,0,0,0,.682-.682v-12.14A.682.682,0,0,0,169.981,365.963Z" transform="translate(-156.692 -365.963)" fill="#fdb441"/>
        </g>
      </g>
      <g id="Grupo_1114852" data-name="Grupo 1114852" transform="translate(47.813)">
        <path id="Trazado_908149" data-name="Trazado 908149" d="M218.624,175.777a2.629,2.629,0,0,0,4.327,0,.731.731,0,1,0-1.31-.649,1.291,1.291,0,0,1-1.707,0,.731.731,0,1,0-1.31.649Z" transform="translate(-201.905 -157.69)"/>
        <path id="Trazado_908150" data-name="Trazado 908150" d="M204.918,140.761a.731.731,0,0,0,.731-.731v-.545a.731.731,0,1,0-1.462,0v.545A.731.731,0,0,0,204.918,140.761Z" transform="translate(-188.944 -125.228)"/>
        <path id="Trazado_908151" data-name="Trazado 908151" d="M264.592,140.761a.731.731,0,0,0,.731-.731v-.545a.731.731,0,1,0-1.462,0v.545A.731.731,0,0,0,264.592,140.761Z" transform="translate(-242.801 -125.228)"/>
        <path id="Trazado_908152" data-name="Trazado 908152" d="M354.618,388.191a9.328,9.328,0,0,1-1.209-.494.207.207,0,0,1-.1-.224.5.5,0,0,1,.389-.413,1.691,1.691,0,0,1,1.391.324.731.731,0,0,0,.937-1.123,3.445,3.445,0,0,0-1.282-.628v-.407a.731.731,0,1,0-1.462,0v.432l-.006,0a1.969,1.969,0,0,0-1.421,1.663,1.658,1.658,0,0,0,.855,1.659c1.068.582,2.391.715,2.284,1.31a.823.823,0,0,1-.855.544,1.771,1.771,0,0,1-1.3-.544.731.731,0,0,0-1.083.982,3.124,3.124,0,0,0,1.528.914v.429a.731.731,0,0,0,1.462,0v-.39a2.168,2.168,0,0,0,1.689-1.678C356.751,388.772,354.646,388.213,354.618,388.191Z" transform="translate(-321.956 -347.015)"/>
        <path id="Trazado_908153" data-name="Trazado 908153" d="M86.694,33.9H80.556l-.564-1.568a.731.731,0,1,0-1.376.495l.289.8-2.732-2.864a.993.993,0,0,0-1.712.686V33.9H73.047a1.708,1.708,0,0,0-1.706,1.706V48.2a1.7,1.7,0,0,0,.02.244H63.247V36.355a1.415,1.415,0,0,0-1.413-1.413H59.119v-1.42a.731.731,0,1,0-1.462,0v1.419H54.016l2.156-5.992a3.614,3.614,0,0,1,2.236-2.194q.809-.27,1.625-.487l5.544,10.906a1.254,1.254,0,0,0,2.236,0L73.358,26.27q.815.218,1.625.487a3.614,3.614,0,0,1,2.236,2.194l.245.68a.731.731,0,1,0,1.376-.495l-.245-.68a5.019,5.019,0,0,0-3.149-3.086,29.02,29.02,0,0,0-5.13-1.207V22.654A5.53,5.53,0,0,0,73.6,18.528a4.479,4.479,0,0,0,2.538-.808,2.6,2.6,0,0,0,.446-3.741A10.483,10.483,0,0,0,58.229,4.3a.731.731,0,1,0,1.181.862,9.021,9.021,0,0,1,15.905,7.98,2.609,2.609,0,0,0-1.636.054V9.447a1.643,1.643,0,0,0-2.8-1.163,5.607,5.607,0,0,1-4.012,1.673H63.707a4,4,0,0,0-3.927,3.268,2.6,2.6,0,0,0-1.7-.08,9.07,9.07,0,0,1-.051-5.155.731.731,0,0,0-1.405-.4,10.543,10.543,0,0,0,.191,6.393,2.6,2.6,0,0,0,.172,3.5,3.719,3.719,0,0,0,5.306,4.758,5.5,5.5,0,0,0,.785.413v1.507a29.02,29.02,0,0,0-5.129,1.207A5.02,5.02,0,0,0,54.8,28.455l-2.334,6.487H49.226a1.415,1.415,0,0,0-1.413,1.413V48.5a1.415,1.415,0,0,0,1.413,1.413H86.694A1.708,1.708,0,0,0,88.4,48.2V35.608A1.707,1.707,0,0,0,86.694,33.9Zm-20,2.245-3.819-7.513a9.051,9.051,0,0,0,7.639,0Zm7.2-21.422A1.139,1.139,0,0,1,75.7,15.8c-.127.877-1.144,1.19-2.025,1.257V14.89Zm-12.722-.776a2.535,2.535,0,0,1,2.532-2.532h3.155a7.051,7.051,0,0,0,5.051-2.106.159.159,0,0,1,.188-.036.174.174,0,0,1,.116.17v8.132a4.055,4.055,0,0,1-4.05,4.05H65.225a4.055,4.055,0,0,1-4.05-4.05Zm-2.524.561a1.351,1.351,0,0,1,1.062.378v2.167a2.858,2.858,0,0,1-1.581-.509A1.138,1.138,0,0,1,58.651,14.512Zm-.561,4.56a2.244,2.244,0,0,1,.157-.825,5.444,5.444,0,0,0,1.55.281A5.5,5.5,0,0,0,61.078,21.2a2.252,2.252,0,0,1-2.988-2.133ZM63.359,25.6a1.364,1.364,0,0,0,1.178-1.347v-1.2a5.53,5.53,0,0,0,.688.045h2.941a5.53,5.53,0,0,0,.688-.045v1.2A1.364,1.364,0,0,0,70.032,25.6q.928.124,1.864.32l-.027.054a7.563,7.563,0,0,1-10.347,0l-.027-.054q.934-.2,1.864-.32ZM49.275,36.4H61.784V48.446H49.275ZM86.938,48.2a.244.244,0,0,1-.244.244H73.047A.244.244,0,0,1,72.8,48.2V35.608a.244.244,0,0,1,.244-.244h1.7a1.172,1.172,0,0,0,1.17-1.17v-1.57l2.183,2.289a1.461,1.461,0,0,0,1.053.451h7.536a.244.244,0,0,1,.244.244V48.2Z" transform="translate(-47.813 0)"/>
        <path id="Trazado_908154" data-name="Trazado 908154" d="M87.472,400.389h-7.2V394.5a.731.731,0,0,0-1.462,0v6.158a1.2,1.2,0,0,0,1.194,1.194h7.464a.731.731,0,1,0,0-1.462Z" transform="translate(-75.791 -355.384)"/>
        <path id="Trazado_908155" data-name="Trazado 908155" d="M106.775,402.81l-2.341,2.341-.657-.657a1.03,1.03,0,0,0-1.457,0l-1.332,1.332a.731.731,0,0,0,1.034,1.034l1.027-1.027.657.657a1.031,1.031,0,0,0,1.457,0l2.646-2.646a.731.731,0,0,0-1.034-1.034Z" transform="translate(-95.612 -363.352)"/>
      </g>
    </g>
  </g>
</svg>
