<svg xmlns="http://www.w3.org/2000/svg" xmlns:xlink="http://www.w3.org/1999/xlink" width="93.722" height="93.723" viewBox="0 0 93.722 93.723">
  <defs>
    <filter id="Trazado_874925" x="0" y="0" width="93.722" height="93.723" filterUnits="userSpaceOnUse">
      <feOffset dy="3" input="SourceAlpha"/>
      <feGaussianBlur stdDeviation="3" result="blur"/>
      <feFlood flood-opacity="0.161"/>
      <feComposite operator="in" in2="blur"/>
      <feComposite in="SourceGraphic"/>
    </filter>
  </defs>
  <g id="Grupo_1114864" data-name="Grupo 1114864" transform="translate(-831.051 -3375)">
    <g id="Grupo_1112999" data-name="Grupo 1112999" transform="translate(840.051 3381)">
      <g id="Grupo_1109835" data-name="Grupo 1109835" transform="translate(0 0)">
        <g id="Grupo_1107913" data-name="Grupo 1107913" transform="translate(0 0)">
          <g transform="matrix(1, 0, 0, 1, -9, -6)" filter="url(#Trazado_874925)">
            <g id="Trazado_874925-2" data-name="Trazado 874925" transform="translate(9 6)" fill="#fd9826" opacity="0.859">
              <path d="M 37.86101913452148 74.2225341796875 C 32.95165252685547 74.2225341796875 28.1899299621582 73.26136779785156 23.7081298828125 71.36572265625 C 19.37846374511719 69.534423828125 15.48970794677734 66.91244506835938 12.1498966217041 63.57263565063477 C 8.810074806213379 60.23281097412109 6.188107967376709 56.34405517578125 4.356808185577393 52.01438903808594 C 2.461163520812988 47.53257751464844 1.499996900558472 42.77085494995117 1.499996900558472 37.86148834228516 C 1.499996900558472 32.95167922973633 2.461163520812988 28.18995666503906 4.356808185577393 23.70814514160156 C 6.188107967376709 19.37847900390625 8.810074806213379 15.48972225189209 12.1498966217041 12.14990043640137 C 15.48970794677734 8.810089111328125 19.37846374511719 6.188111305236816 23.7081298828125 4.3568115234375 C 28.1899299621582 2.461167097091675 32.95165252685547 1.500000476837158 37.86101913452148 1.500000476837158 C 42.7703857421875 1.500000476837158 47.53210830688477 2.461167097091675 52.01390838623047 4.3568115234375 C 56.34357452392578 6.188111305236816 60.23233032226562 8.810089111328125 63.57213973999023 12.14990043640137 C 66.91196441650391 15.48972225189209 69.53392791748047 19.37847900390625 71.36522674560547 23.70814514160156 C 73.26087188720703 28.18995666503906 74.22203826904297 32.95167922973633 74.22203826904297 37.86104583740234 C 74.22203826904297 42.77085494995117 73.26087188720703 47.53257751464844 71.36522674560547 52.01438903808594 C 69.53392791748047 56.34405517578125 66.91196441650391 60.23281097412109 63.57213973999023 63.57263565063477 C 60.23233032226562 66.91244506835938 56.34357452392578 69.534423828125 52.01390838623047 71.36572265625 C 47.53210830688477 73.26136779785156 42.7703857421875 74.2225341796875 37.86101913452148 74.2225341796875 Z" stroke="none"/>
              <path d="M 37.86101913452148 3.000007629394531 C 33.15349578857422 3.000007629394531 28.5883674621582 3.921302795410156 24.29245758056641 5.738327026367188 C 20.14159393310547 7.493995666503906 16.41309356689453 10.00801849365234 13.21055603027344 13.21056747436523 C 10.00800323486328 16.41310501098633 7.493980407714844 20.14160537719727 5.738319396972656 24.29246520996094 C 3.921295166015625 28.58837890625 2.999992370605469 33.15350341796875 2.999992370605469 37.86148071289062 C 2.999992370605469 42.56901550292969 3.921295166015625 47.13414001464844 5.738319396972656 51.4300537109375 C 7.493980407714844 55.58092880249023 10.00800323486328 59.30941772460938 13.21055603027344 62.51196670532227 C 16.41309356689453 65.71451568603516 20.14159393310547 68.22854614257812 24.29245758056641 69.98420715332031 C 28.5883674621582 71.80123138427734 33.15349578857422 72.72252655029297 37.86101913452148 72.72252655029297 C 42.56854248046875 72.72252655029297 47.1336669921875 71.80123138427734 51.42958068847656 69.98420715332031 C 55.5804443359375 68.22854614257812 59.30892944335938 65.71451568603516 62.51148223876953 62.51196670532227 C 65.71401977539062 59.30941772460938 68.22804260253906 55.58092880249023 69.98370361328125 51.4300537109375 C 71.80073547363281 47.13414001464844 72.72203063964844 42.56901550292969 72.72203063964844 37.86104202270508 C 72.72203063964844 33.15350341796875 71.80073547363281 28.58837890625 69.98370361328125 24.29246520996094 C 68.22804260253906 20.14160537719727 65.71401977539062 16.41310501098633 62.51148223876953 13.21056747436523 C 59.30892944335938 10.00801849365234 55.5804443359375 7.493995666503906 51.42958068847656 5.738327026367188 C 47.1336669921875 3.921302795410156 42.56854248046875 3.000007629394531 37.86101913452148 3.000007629394531 M 37.86101913452148 7.62939453125e-06 C 58.77108001708984 7.62939453125e-06 75.72203063964844 16.95096588134766 75.72203063964844 37.86104202270508 L 75.72203063964844 37.86148071289062 C 75.72203063964844 58.77156829833984 58.77108001708984 75.72252655029297 37.86101913452148 75.72252655029297 C 16.95095825195312 75.72252655029297 -7.62939453125e-06 58.77156829833984 -7.62939453125e-06 37.86148071289062 L -7.62939453125e-06 37.86104202270508 C -7.62939453125e-06 16.95096588134766 16.95095825195312 7.62939453125e-06 37.86101913452148 7.62939453125e-06 Z" stroke="none" fill="#fff"/>
            </g>
          </g>
          <g id="Trazado_874923" data-name="Trazado 874923" transform="translate(0 0)" fill="none">
            <path d="M37.861,0A37.861,37.861,0,0,1,75.722,37.861h0A37.861,37.861,0,1,1,0,37.861H0A37.861,37.861,0,0,1,37.861,0Z" stroke="none"/>
            <path d="M 37.86101913452148 3.000007629394531 C 33.15349578857422 3.000007629394531 28.5883674621582 3.921302795410156 24.29245758056641 5.738327026367188 C 20.14159393310547 7.493995666503906 16.41309356689453 10.00801849365234 13.21055603027344 13.21056747436523 C 10.00800323486328 16.41310501098633 7.493980407714844 20.14160537719727 5.738319396972656 24.29246520996094 C 3.921295166015625 28.58837890625 2.999992370605469 33.15350341796875 2.999992370605469 37.86148071289062 C 2.999992370605469 42.56901550292969 3.921295166015625 47.13414001464844 5.738319396972656 51.4300537109375 C 7.493980407714844 55.58092880249023 10.00800323486328 59.30941772460938 13.21055603027344 62.51196670532227 C 16.41309356689453 65.71451568603516 20.14159393310547 68.22854614257812 24.29245758056641 69.98420715332031 C 28.5883674621582 71.80123138427734 33.15349578857422 72.72252655029297 37.86101913452148 72.72252655029297 C 42.56854248046875 72.72252655029297 47.1336669921875 71.80123138427734 51.42958068847656 69.98420715332031 C 55.5804443359375 68.22854614257812 59.30892944335938 65.71451568603516 62.51148223876953 62.51196670532227 C 65.71401977539062 59.30941772460938 68.22804260253906 55.58092880249023 69.98370361328125 51.4300537109375 C 71.80073547363281 47.13414001464844 72.72203063964844 42.56901550292969 72.72203063964844 37.86104202270508 C 72.72203063964844 33.15350341796875 71.80073547363281 28.58837890625 69.98370361328125 24.29246520996094 C 68.22804260253906 20.14160537719727 65.71401977539062 16.41310501098633 62.51148223876953 13.21056747436523 C 59.30892944335938 10.00801849365234 55.5804443359375 7.493995666503906 51.42958068847656 5.738327026367188 C 47.1336669921875 3.921302795410156 42.56854248046875 3.000007629394531 37.86101913452148 3.000007629394531 M 37.86101913452148 7.62939453125e-06 C 58.77108001708984 7.62939453125e-06 75.72203063964844 16.95096588134766 75.72203063964844 37.86104202270508 L 75.72203063964844 37.86148071289062 C 75.72203063964844 58.77156829833984 58.77108001708984 75.72252655029297 37.86101913452148 75.72252655029297 C 16.95095825195312 75.72252655029297 -7.62939453125e-06 58.77156829833984 -7.62939453125e-06 37.86148071289062 L -7.62939453125e-06 37.86104202270508 C -7.62939453125e-06 16.95096588134766 16.95095825195312 7.62939453125e-06 37.86101913452148 7.62939453125e-06 Z" stroke="none" fill="#fff"/>
          </g>
        </g>
      </g>
    </g>
    <g id="Grupo_1114863" data-name="Grupo 1114863" transform="translate(836.801 3387.75)">
      <g id="Grupo_1114861" data-name="Grupo 1114861" transform="translate(25.006 6.006)">
        <path id="Trazado_908171" data-name="Trazado 908171" d="M58.846,92.091V76.615A5.186,5.186,0,0,0,54.5,71.5l-8.6-1.41H38.947l-8.6,1.41A5.186,5.186,0,0,0,26,76.615V92.091Z" transform="translate(-26 -42.821)" fill="#e9f4ff"/>
        <path id="Trazado_908172" data-name="Trazado 908172" d="M60.881,17.335V13.051A6.051,6.051,0,0,0,54.83,7H48.814A3.458,3.458,0,0,0,45.9,8.6l-.243.381h-.549A4.106,4.106,0,0,0,41,13.087v4.248Z" transform="translate(-34.517 -7)" fill="#66538c"/>
        <path id="Trazado_908173" data-name="Trazado 908173" d="M62.909,64.177v-4.5H55.957v4.5l3.476,3.907Z" transform="translate(-43.01 -36.912)" fill="#ffab93"/>
        <path id="Trazado_908174" data-name="Trazado 908174" d="M38.729,30.913A1.729,1.729,0,0,0,37,32.642v.927a1.729,1.729,0,0,0,1.321,1.68l2.247.546h16.2l2.247-.546a1.729,1.729,0,0,0,1.321-1.68v-.927a1.729,1.729,0,0,0-1.729-1.729Z" transform="translate(-32.246 -20.578)" fill="#ffab93"/>
        <path id="Trazado_908175" data-name="Trazado 908175" d="M44.849,25.879l2.222-3.832a26.5,26.5,0,0,0,6.055,1.116,26.5,26.5,0,0,0,6.055-1.116L61.4,25.879V28.71a12,12,0,0,1-4.8,9.6,5.791,5.791,0,0,1-6.952,0,12,12,0,0,1-4.8-9.6Z" transform="translate(-36.703 -15.544)" fill="#ffcdc0"/>
        <path id="Trazado_908176" data-name="Trazado 908176" d="M73.056,18.933c0-2-2.161-3.913-2.161-3.913s-2.161,1.914-2.161,3.913a2.161,2.161,0,1,0,4.322,0Z" transform="translate(-50.265 -11.554)" fill="#e9f4ff"/>
        <path id="Trazado_908177" data-name="Trazado 908177" d="M63.182,81.383l-1.348,2.8H59.315l-1.348-2.8,2.607-2.255Z" transform="translate(-44.151 -47.955)" fill="#4ca6ff"/>
        <path id="Trazado_908178" data-name="Trazado 908178" d="M63.31,103.861l-.941-13.045H59.85l-.941,13.045Z" transform="translate(-44.686 -54.592)" fill="#59c7ff"/>
        <g id="Grupo_1114860" data-name="Grupo 1114860" transform="translate(9.291 27.266)">
          <path id="Trazado_908179" data-name="Trazado 908179" d="M51.153,70.087l3.476,3.907-4.681,4.048L47.5,70.687Z" transform="translate(-47.497 -70.087)" fill="#cbe2ff"/>
          <path id="Trazado_908180" data-name="Trazado 908180" d="M67.476,70.087,64,73.994l4.681,4.048,2.451-7.355Z" transform="translate(-56.868 -70.087)" fill="#cbe2ff"/>
        </g>
      </g>
      <g id="Grupo_1114862" data-name="Grupo 1114862" transform="translate(24.25 5.25)">
        <path id="Trazado_908181" data-name="Trazado 908181" d="M25.006,84.881a.757.757,0,0,0-.756.756v14.854a.756.756,0,1,0,1.513,0V85.637A.757.757,0,0,0,25.006,84.881Z" transform="translate(-24.25 -50.465)"/>
        <path id="Trazado_908182" data-name="Trazado 908182" d="M28.523,73.159A5.9,5.9,0,0,0,26.7,74.8a.756.756,0,1,0,1.222.892,4.408,4.408,0,0,1,1.36-1.224.756.756,0,1,0-.759-1.309Z" transform="translate(-25.558 -43.752)"/>
        <path id="Trazado_908183" data-name="Trazado 908183" d="M59.874,33.936l-7.966-1.307V29.137a12.776,12.776,0,0,0,1.9-1.867.756.756,0,1,0-1.167-.96A11.25,11.25,0,0,1,50.7,28.168a5.064,5.064,0,0,1-6.045,0,11.3,11.3,0,0,1-4.5-9V16.544l1.82-3.139a27.121,27.121,0,0,0,5.662.975h.081c.445-.024.91-.07,1.383-.125a2.916,2.916,0,0,0,5.2.753l.89,1.536v2.628a11.2,11.2,0,0,1-.712,3.938.756.756,0,0,0,1.417.529,12.769,12.769,0,0,0,.523-1.8L58.2,21.41A2.479,2.479,0,0,0,60.1,19V18.07A2.489,2.489,0,0,0,58.372,15.7V12.057a.756.756,0,1,0-1.513,0v3.528h-.472l-1.652-2.849a7.907,7.907,0,0,0-2.349-3.83.756.756,0,0,0-1,0,7.876,7.876,0,0,0-2.352,3.834c-.463.057-.919.1-1.353.127a25.974,25.974,0,0,1-5.819-1.077.758.758,0,0,0-.89.339l-2,3.455h-.474V12.094a3.353,3.353,0,0,1,3.349-3.349h.549a.756.756,0,0,0,.638-.35l.243-.381a2.689,2.689,0,0,1,2.278-1.25h6.016A5.265,5.265,0,0,1,55.747,8.81a.756.756,0,0,0,1.194-.929A6.768,6.768,0,0,0,51.565,5.25H45.549A4.2,4.2,0,0,0,41.995,7.2l-.02.032h-.134a4.868,4.868,0,0,0-4.862,4.862V15.7A2.489,2.489,0,0,0,35.25,18.07V19a2.479,2.479,0,0,0,1.9,2.415l1.785.432a12.827,12.827,0,0,0,4.509,7.293v3.492l-5.838.958a.756.756,0,0,0,.245,1.493l2.181-.357,2.247,6.742a.756.756,0,0,0,1.212.333l1.327-1.147.832,1.725L44.723,55.22a.756.756,0,0,0,.7.809h.055a.757.757,0,0,0,.754-.7l.89-12.343h1.111l.89,12.343a.757.757,0,0,0,.754.7h.055a.756.756,0,0,0,.7-.809L49.7,42.377l.832-1.725L51.862,41.8a.756.756,0,0,0,1.21-.333l2.247-6.742,4.308.707A4.414,4.414,0,0,1,63.341,39.8V55.276a.756.756,0,0,0,1.513,0V39.8a5.921,5.921,0,0,0-4.979-5.864ZM58.588,19a.97.97,0,0,1-.743.945l-1.182.287q.043-.525.043-1.056V17.1h.909a.973.973,0,0,1,.972.972Zm-6.7-8.45a4.89,4.89,0,0,1,1.4,2.839,1.4,1.4,0,0,1-2.809,0A4.912,4.912,0,0,1,51.884,10.547Zm-14.378,9.4A.97.97,0,0,1,36.763,19V18.07a.973.973,0,0,1,.972-.972h.908v2.075c0,.354.02.707.05,1.058ZM50.4,30.09v2.9l-2.72,3.058-2.72-3.057v-2.9a6.555,6.555,0,0,0,5.44,0Zm-7.042,9.826-1.815-5.442,2.37-.389,2.69,3.025Zm5.105,1.558H46.891L46,39.627l1.675-1.448,1.675,1.448ZM52,39.916l-3.246-2.807,2.69-3.025,2.37.389Z" transform="translate(-30.496 -5.25)"/>
        <path id="Trazado_908184" data-name="Trazado 908184" d="M83.092,97.59H78.77a.756.756,0,1,0,0,1.513h4.322a.756.756,0,0,0,0-1.513Z" transform="translate(-54.778 -57.682)"/>
      </g>
    </g>
  </g>
</svg>
