<svg xmlns="http://www.w3.org/2000/svg" xmlns:xlink="http://www.w3.org/1999/xlink" width="295" height="255" viewBox="0 0 295 255">
  <defs>
    <clipPath id="clip-path">
      <rect id="Rectángulo_406517" data-name="Rectángulo 406517" width="295" height="255" transform="translate(1125.051 437)" fill="#cdb9f8"/>
    </clipPath>
    <clipPath id="clip-path-2">
      <rect id="Rectángulo_406516" data-name="Rectángulo 406516" width="260.013" height="226.614" fill="none"/>
    </clipPath>
    <clipPath id="clip-path-3">
      <rect id="Rectángulo_406513" data-name="Rectángulo 406513" width="195.045" height="359.169" fill="none"/>
    </clipPath>
    <clipPath id="clip-path-5">
      <rect id="Rectángulo_406504" data-name="Rectángulo 406504" width="67.587" height="38.429" transform="translate(123.37 81.117)" fill="none"/>
    </clipPath>
    <clipPath id="clip-path-6">
      <rect id="Rectángulo_406505" data-name="Rectángulo 406505" width="63.616" height="56.849" transform="translate(121.532 147.01)" fill="none"/>
    </clipPath>
    <clipPath id="clip-path-8">
      <rect id="Rectángulo_406508" data-name="Rectángulo 406508" width="5.321" height="19.164" transform="translate(20.788 99.604)" fill="none"/>
    </clipPath>
    <clipPath id="clip-path-9">
      <rect id="Rectángulo_406509" data-name="Rectángulo 406509" width="16.564" height="21.999" transform="translate(47.414 135.744)" fill="none"/>
    </clipPath>
    <clipPath id="clip-path-10">
      <rect id="Rectángulo_406510" data-name="Rectángulo 406510" width="4.577" height="49.652" transform="translate(25.337 115.531)" fill="none"/>
    </clipPath>
    <clipPath id="clip-path-11">
      <rect id="Rectángulo_406511" data-name="Rectángulo 406511" width="3.101" height="3.277" transform="translate(76.837 344.697)" fill="none"/>
    </clipPath>
  </defs>
  <g id="Enmascarar_grupo_1098752" data-name="Enmascarar grupo 1098752" transform="translate(-1125.051 -437)" clip-path="url(#clip-path)">
    <rect id="Rectángulo_405751" data-name="Rectángulo 405751" width="295" height="255" transform="translate(1125.051 437)" fill="#cdb9f8"/>
    <g id="Grupo_1114466" data-name="Grupo 1114466" transform="translate(541.244 66)">
      <g id="Grupo_1114465" data-name="Grupo 1114465" transform="translate(634.051 384)">
        <rect id="Rectángulo_406514" data-name="Rectángulo 406514" width="258.954" height="226.189" transform="translate(0.225 0.226)" fill="#f2ecfd"/>
        <g id="Grupo_1114464" data-name="Grupo 1114464">
          <g id="Grupo_1114463" data-name="Grupo 1114463" clip-path="url(#clip-path-2)">
            <path id="Trazado_906803" data-name="Trazado 906803" d="M259.262,226.436c0-1.438-.069-90.066-.172-226.234l.172.171L.226.4H.2l.2-.2C.4,82.423.39,159.843.383,226.436l-.18-.178,259.059.178L.2,226.614H.023v-.178C.016,159.843.009,82.423,0,.2V0H.226L259.262.031h.172V.2c-.1,136.168-.171,224.8-.172,226.234" fill="#263238"/>
            <path id="Trazado_906804" data-name="Trazado 906804" d="M260.882,30.133c0,.112-57.518.2-128.454.2-70.96,0-128.466-.09-128.466-.2s57.505-.2,128.466-.2c70.936,0,128.454.09,128.454.2" transform="translate(-0.869 -6.727)" fill="#263238"/>
            <path id="Trazado_906805" data-name="Trazado 906805" d="M21.35,15.764a2.659,2.659,0,1,1-2.659-2.64,2.65,2.65,0,0,1,2.659,2.64" transform="translate(-3.516 -2.95)" fill="#8454ee"/>
            <path id="Trazado_906806" data-name="Trazado 906806" d="M32.53,15.764a2.659,2.659,0,1,1-2.659-2.64,2.649,2.649,0,0,1,2.659,2.64" transform="translate(-5.968 -2.95)" fill="#8454ee"/>
            <path id="Trazado_906807" data-name="Trazado 906807" d="M43.71,15.764a2.659,2.659,0,1,1-2.658-2.64,2.649,2.649,0,0,1,2.658,2.64" transform="translate(-8.42 -2.95)" fill="#8454ee"/>
            <path id="Trazado_906808" data-name="Trazado 906808" d="M147.814,20.585l-.009-4.02-1.985,3.311h-.7l-1.975-3.225v3.934h-1.465v-6.7h1.291l2.525,4.162,2.487-4.162h1.282l.02,6.7Z" transform="translate(-31.07 -3.121)" fill="#263238"/>
            <path id="Trazado_906809" data-name="Trazado 906809" d="M158.253,15.886l-2.341,5.464a2.14,2.14,0,0,1-2.149,1.618,2.31,2.31,0,0,1-1.446-.469l.55-1.062a1.337,1.337,0,0,0,.848.325c.415,0,.646-.181.848-.641l.02-.048-2.245-5.186h1.551l1.455,3.492,1.465-3.492Z" transform="translate(-33.403 -3.57)" fill="#263238"/>
            <path id="Trazado_906810" data-name="Trazado 906810" d="M169.4,15.13V16.9h3.123v1.243H169.4v2.44h-1.561v-6.7h5.1V15.13Z" transform="translate(-36.806 -3.121)" fill="#263238"/>
            <path id="Trazado_906811" data-name="Trazado 906811" d="M175.23,13.645a.857.857,0,0,1,.935-.833.841.841,0,0,1,.934.8.94.94,0,0,1-1.87.029m.183,1.55h1.5v5.148h-1.5Z" transform="translate(-38.428 -2.88)" fill="#263238"/>
            <rect id="Rectángulo_406515" data-name="Rectángulo 406515" width="1.504" height="7.101" transform="translate(139.886 10.363)" fill="#263238"/>
            <path id="Trazado_906812" data-name="Trazado 906812" d="M187.839,18.859h-3.923a1.382,1.382,0,0,0,1.485,1.033,1.764,1.764,0,0,0,1.3-.5l.8.861a2.726,2.726,0,0,1-2.139.833,2.684,2.684,0,0,1-2.958-2.651,2.63,2.63,0,0,1,2.765-2.651,2.558,2.558,0,0,1,2.7,2.67c0,.115-.02.278-.029.4m-3.942-.871h2.554a1.3,1.3,0,0,0-2.554,0" transform="translate(-40.001 -3.548)" fill="#263238"/>
            <path id="Trazado_906813" data-name="Trazado 906813" d="M190.046,20.534l.5-1.072a3.563,3.563,0,0,0,1.8.5c.694,0,.954-.181.954-.469,0-.842-3.132.019-3.132-2.038,0-.976.887-1.665,2.4-1.665a4.281,4.281,0,0,1,1.995.45l-.5,1.062a2.987,2.987,0,0,0-1.493-.383c-.675,0-.963.21-.963.478,0,.881,3.132.029,3.132,2.058,0,.957-.9,1.637-2.448,1.637a4.478,4.478,0,0,1-2.245-.555" transform="translate(-41.677 -3.548)" fill="#263238"/>
          </g>
        </g>
      </g>
    </g>
    <g id="Grupo_1114462" data-name="Grupo 1114462" transform="translate(461 100)">
      <g id="Grupo_1114461" data-name="Grupo 1114461" transform="translate(703.051 350)">
        <g id="Grupo_1114460" data-name="Grupo 1114460" clip-path="url(#clip-path-3)">
          <g id="Grupo_1114445" data-name="Grupo 1114445">
            <g id="Grupo_1114444" data-name="Grupo 1114444" clip-path="url(#clip-path-3)">
              <path id="Trazado_906717" data-name="Trazado 906717" d="M131.428,31.889V84.227h63.616V31.889a4.51,4.51,0,0,0-4.511-4.51H135.939a4.511,4.511,0,0,0-4.511,4.51" fill="#8454ee"/>
              <path id="Trazado_906718" data-name="Trazado 906718" d="M118.654,121.456l14.21-39.085,62.18,1.856-9.269,35.649a3.153,3.153,0,0,1-3.118,2.358l-16.106-.342-2.642,3.755a3.55,3.55,0,0,1-3.053,1.5l-38.92-1.644a3.5,3.5,0,0,1-3.282-4.051" fill="#8454ee"/>
              <path id="Trazado_906719" data-name="Trazado 906719" d="M134.836,36.588V77.547l55.915,3.078-.246-44.037Z" fill="#f5f5f5"/>
              <path id="Trazado_906720" data-name="Trazado 906720" d="M134.836,36.588a1.53,1.53,0,0,1,.249-.014l.762-.013,2.994-.028,11.369-.063,40.295-.116h.233v.234c.079,12.768.169,27.3.264,42.658,0,.464.006.928.008,1.379V80.9l-.276-.016-55.912-3.127-.2-.012v-.2c.038-12.423.069-22.656.091-29.808.026-3.557.047-6.347.061-8.272q.023-1.4.034-2.16c.01-.483.025-.719.025-.719s.015.267.025.76q.012.767.034,2.164c.014,1.914.035,4.689.061,8.227.022,7.152.053,17.385.091,29.808l-.2-.211,55.917,3.029-.275.262c0-.452-.005-.915-.007-1.379-.077-15.357-.149-29.891-.213-42.659l.235.233-40.142-.117-11.423-.062-3.04-.028-.788-.013a2.27,2.27,0,0,1-.276-.014" fill="#263238"/>
              <path id="Trazado_906721" data-name="Trazado 906721" d="M137.76,46.805c.05-1.364,0-7.221,0-7.221,15.631-.049,33.141.062,48.772.014.438,7.734.529,18.18.967,25.914" fill="#ebebeb"/>
              <path id="Trazado_906722" data-name="Trazado 906722" d="M187.5,65.512a2.246,2.246,0,0,1-.066-.488c-.029-.365-.065-.834-.111-1.42-.086-1.241-.182-3.056-.28-5.346-.214-4.578-.34-11.064-.752-18.646l.242.228-15.028.014c-14.014,0-26.383-.052-33.744-.122l.147-.149c-.029,2.244-.052,4.038-.069,5.325-.015.583-.028,1.049-.038,1.412a2.272,2.272,0,0,1-.04.485,2.241,2.241,0,0,1-.04-.488c-.01-.362-.023-.83-.039-1.413-.016-1.285-.04-3.077-.069-5.319l0-.147h.149c7.361-.066,19.729-.108,33.744-.1l15.028.023h.231l.012.229c.375,7.6.434,14.083.564,18.664.059,2.25.107,4.053.142,5.348.014.587.025,1.057.033,1.423a2.268,2.268,0,0,1-.014.492" fill="#e0e0e0"/>
              <path id="Trazado_906723" data-name="Trazado 906723" d="M126.291,46.988l11.537,33.638h52.923l-7.907-33.82Z" fill="#fff"/>
              <path id="Trazado_906724" data-name="Trazado 906724" d="M126.291,46.988a1.893,1.893,0,0,1,.254-.013l.783-.014,3.074-.036,11.632-.1,40.81-.26h.192l.044.188c2.341,9.99,4.912,20.96,7.6,32.448.108.46.215.92.32,1.367l.075.321h-.329l-52.923-.053h-.149l-.047-.14c-3.479-10.3-6.332-18.737-8.323-24.629-.971-2.9-1.731-5.169-2.258-6.74-.248-.751-.441-1.333-.579-1.75-.128-.393-.181-.586-.181-.586s.087.217.232.621q.227.636.632,1.78l2.373,6.761,8.495,24.409-.195-.14,52.923-.053-.253.319c-.1-.447-.212-.907-.32-1.368-2.68-11.49-5.239-22.463-7.569-32.456l.236.187-40.62,0-11.7-.026-3.131-.016L126.578,47a2.739,2.739,0,0,1-.287-.011" fill="#263238"/>
              <g id="Grupo_1114440" data-name="Grupo 1114440" opacity="0.3">
                <g id="Grupo_1114439" data-name="Grupo 1114439">
                  <g id="Grupo_1114438" data-name="Grupo 1114438" clip-path="url(#clip-path-5)">
                    <path id="Trazado_906725" data-name="Trazado 906725" d="M190.686,81.328a1.42,1.42,0,0,0-1.32-.1A208.387,208.387,0,0,0,130.8,106.74l-7.426,8.592c.939,1.476,2.949,1.738,4.7,1.852L153,118.809c5.8.378,11.6.756,17.412.736,3.447-.011,7.22-.293,9.732-2.653a13.848,13.848,0,0,0,3.048-5.2,129.8,129.8,0,0,0,7.721-29.1,1.412,1.412,0,0,0-.229-1.263"/>
                  </g>
                </g>
              </g>
              <path id="Trazado_906726" data-name="Trazado 906726" d="M137.827,83.283l-14.8,31.992,55.538,1.111,12.181-35.76Z" fill="#f5f5f5"/>
              <path id="Trazado_906727" data-name="Trazado 906727" d="M137.827,83.283a1.289,1.289,0,0,1,.24-.029l.73-.053,2.86-.177,10.839-.609,38.243-2.026.348-.018-.113.331c-3.674,10.811-7.8,22.962-12.157,35.768l-.06.18-.192,0h-.01l-55.527-1.165-.316-.007.133-.285,10.9-23.331c1.295-2.743,2.308-4.89,3.009-6.376l.793-1.652c.181-.37.282-.547.282-.547s-.078.211-.247.6q-.271.608-.757,1.7c-.681,1.5-1.666,3.675-2.923,6.45-2.553,5.575-6.211,13.567-10.682,23.332l-.182-.292,55.529,1.055h.011l-.252.176c4.369-12.8,8.515-24.946,12.2-35.752l.236.312-38.143,1.81-10.882.481-2.9.113-.75.021a1.685,1.685,0,0,1-.262,0" fill="#263238"/>
              <path id="Trazado_906728" data-name="Trazado 906728" d="M137.582,80.626,121.532,98.3l55.173.416,13.8-18.088Z" fill="#fafafa"/>
              <path id="Trazado_906729" data-name="Trazado 906729" d="M137.582,80.626a1.115,1.115,0,0,1,.247-.02l.746-.019,2.91-.037,10.951-.071,38.069-.1h.5l-.3.4-13.79,18.1-.079.1h-.13l-1.682-.013-53.49-.476-.422,0,.284-.31,11.83-12.894,3.222-3.475.843-.89a2.5,2.5,0,0,1,.294-.287,2.9,2.9,0,0,1-.272.336l-.818.939c-.743.834-1.805,2.028-3.164,3.556L121.671,98.424l-.137-.314,53.491.331,1.682.013-.209.1,13.811-18.08.2.4-37.978-.1-10.98-.071-2.939-.037-.762-.019a1.417,1.417,0,0,1-.264-.02" fill="#263238"/>
              <path id="Trazado_906730" data-name="Trazado 906730" d="M135.841,65.223,131.1,50.458h49.178l6.891,27" fill="#f5f5f5"/>
              <path id="Trazado_906731" data-name="Trazado 906731" d="M187.171,77.456a2.674,2.674,0,0,1-.168-.5c-.1-.371-.241-.856-.413-1.466-.356-1.33-.856-3.2-1.483-5.538l-5.058-19.437.231.18-18.408.022-30.77-.067.185-.253c1.416,4.531,2.57,8.22,3.384,10.823.378,1.25.677,2.238.894,2.957.089.314.161.568.22.774a1.071,1.071,0,0,1,.057.27.951.951,0,0,1-.111-.252c-.073-.2-.162-.45-.272-.757-.242-.711-.574-1.689-.994-2.926-.853-2.591-2.062-6.261-3.548-10.77l-.083-.253h.268l30.77-.066,18.408.021h.187l.045.179c1.983,7.928,3.671,14.672,4.875,19.483.571,2.354,1.027,4.234,1.352,5.572.142.618.254,1.109.34,1.484a2.69,2.69,0,0,1,.092.518" fill="#263238"/>
              <path id="Trazado_906732" data-name="Trazado 906732" d="M165.031,62.458a7.64,7.64,0,0,0-2.506-1.554c-1.845-.56-3.833.357-5.313,1.593s-2.674,2.8-4.247,3.918l17.245.28-5.179-4.237" fill="#fff"/>
              <path id="Trazado_906733" data-name="Trazado 906733" d="M174.068,57.284c-.622-.927-2.676-2.08-4.024-1.221h0a2.644,2.644,0,0,0-1.71,2.024,3.155,3.155,0,0,0,5.507,2.31,2.673,2.673,0,0,0,.222-3.113" fill="#fff"/>
              <path id="Trazado_906734" data-name="Trazado 906734" d="M137.582,80.626l-16.548-15.4,54.161.439,15.556,14.963Z" fill="#fafafa"/>
              <path id="Trazado_906735" data-name="Trazado 906735" d="M137.582,80.626a1.327,1.327,0,0,1,.266-.02l.767-.02,2.96-.038,11.051-.072,38.125-.1-.172.428L175.015,65.85l.178.073-1-.008-53.156-.506.128-.321L133.189,76.4l3.266,3.106.845.821a2.633,2.633,0,0,1,.282.3,2.285,2.285,0,0,1-.3-.247c-.214-.19-.5-.446-.866-.773L133.1,76.585,120.907,65.359l-.352-.324.48,0,53.158.356,1,.008h.1l.075.072,15.547,14.972.446.429-.618,0-38.207-.1L141.518,80.7l-2.933-.038-.753-.02a1.142,1.142,0,0,1-.25-.02" fill="#263238"/>
              <line id="Línea_2046" data-name="Línea 2046" x2="35.502" transform="translate(135.214 71.145)" fill="#fafafa"/>
              <path id="Trazado_906736" data-name="Trazado 906736" d="M170.716,71.145c0,.144-7.948.26-17.75.26s-17.752-.116-17.752-.26,7.946-.26,17.752-.26,17.75.116,17.75.26" fill="#263238"/>
              <line id="Línea_2047" data-name="Línea 2047" x2="35.502" transform="translate(139.141 74.807)" fill="#fafafa"/>
              <path id="Trazado_906737" data-name="Trazado 906737" d="M174.643,74.807c0,.144-7.948.26-17.75.26s-17.752-.116-17.752-.26,7.946-.26,17.752-.26,17.75.116,17.75.26" fill="#263238"/>
              <line id="Línea_2048" data-name="Línea 2048" x2="35.502" transform="translate(142.669 78.335)" fill="#fafafa"/>
              <path id="Trazado_906738" data-name="Trazado 906738" d="M178.171,78.335c0,.144-7.948.26-17.75.26s-17.752-.116-17.752-.26,7.946-.26,17.752-.26,17.75.116,17.75.26" fill="#263238"/>
              <line id="Línea_2049" data-name="Línea 2049" x2="36.64" transform="translate(137.104 92.482)" fill="#fafafa"/>
              <path id="Trazado_906739" data-name="Trazado 906739" d="M173.744,92.482c0,.144-8.2.26-18.319.26s-18.321-.116-18.321-.26,8.2-.26,18.321-.26,18.319.116,18.319.26" fill="#263238"/>
              <line id="Línea_2050" data-name="Línea 2050" x2="36.64" transform="translate(141.274 88.312)" fill="#fafafa"/>
              <path id="Trazado_906740" data-name="Trazado 906740" d="M177.914,88.312c0,.144-8.2.26-18.319.26s-18.321-.116-18.321-.26,8.2-.26,18.321-.26,18.319.116,18.319.26" fill="#263238"/>
              <path id="Trazado_906741" data-name="Trazado 906741" d="M121.532,151.521v52.338h63.616V151.521a4.511,4.511,0,0,0-4.511-4.511H126.043a4.511,4.511,0,0,0-4.511,4.511" fill="#8454ee"/>
              <g id="Grupo_1114443" data-name="Grupo 1114443" opacity="0.3">
                <g id="Grupo_1114442" data-name="Grupo 1114442">
                  <g id="Grupo_1114441" data-name="Grupo 1114441" clip-path="url(#clip-path-6)">
                    <path id="Trazado_906742" data-name="Trazado 906742" d="M121.532,151.521v52.338h63.616V151.521a4.511,4.511,0,0,0-4.511-4.511H126.043a4.511,4.511,0,0,0-4.511,4.511"/>
                  </g>
                </g>
              </g>
              <path id="Trazado_906743" data-name="Trazado 906743" d="M124.518,175.435l.422-19.214h55.669v10.963" fill="#f5f5f5"/>
              <path id="Trazado_906744" data-name="Trazado 906744" d="M180.609,167.184a4.291,4.291,0,0,1-.049-.747c-.011-.536-.026-1.254-.045-2.159-.019-1.932-.046-4.661-.079-8.057l.173.173-31.96.087-23.709-.043.217-.213c-.164,5.759-.3,10.547-.4,13.951-.061,1.64-.11,2.944-.145,3.888-.022.416-.04.753-.055,1.021a1.381,1.381,0,0,1-.041.35,1.43,1.43,0,0,1-.026-.351c0-.269,0-.606-.009-1.023.006-.945.015-2.25.026-3.89.052-3.4.125-8.2.214-13.955l0-.212h.214l23.709-.044,31.96.088h.175l0,.173c-.033,3.4-.06,6.125-.079,8.057-.019.9-.034,1.623-.046,2.159a4.243,4.243,0,0,1-.048.747" fill="#263238"/>
              <rect id="Rectángulo_406506" data-name="Rectángulo 406506" width="48.636" height="5.194" transform="translate(128.564 151.026)" fill="#f5f5f5"/>
              <path id="Trazado_906745" data-name="Trazado 906745" d="M128.564,151.027a.978.978,0,0,1,.228-.018l.706-.018,2.758-.035,10.283-.077,34.661-.111h.259v.26c0,1.655,0,3.413,0,5.191-.521.525-.154.146-.274.263h-3.994l-3.929,0-7.577-.008-13.727-.031-19.4-.108h-.112l0-.11q.041-2.51.062-3.9c.011-.407.02-.729.027-.981a1.628,1.628,0,0,1,.021-.316,2.617,2.617,0,0,1,.022.356c.006.257.015.588.026,1.005q.021,1.362.062,3.832l-.11-.11,19.4-.108,13.727-.031,7.577-.008,3.929,0h3.994c-.112.115.273-.257-.247.258,0-1.778,0-3.536,0-5.191l.259.259-34.473-.111-10.343-.077-2.817-.036-.739-.017a1.658,1.658,0,0,1-.264-.018" fill="#263238"/>
              <path id="Trazado_906746" data-name="Trazado 906746" d="M182.86,216.957c0,.144-12.156.26-27.146.26s-27.15-.116-27.15-.26,12.153-.26,27.15-.26,27.146.116,27.146.26" fill="#263238"/>
              <path id="Trazado_906747" data-name="Trazado 906747" d="M116.639,165.988l4.893,37.871h63.616V167.184H156.257l-5.605-4.929H119.921a3.309,3.309,0,0,0-3.282,3.733" fill="#8454ee"/>
              <path id="Trazado_906748" data-name="Trazado 906748" d="M167.641,182.016c0,.144-6.967.26-15.559.26s-15.56-.116-15.56-.26,6.966-.26,15.56-.26,15.559.116,15.559.26" fill="#263238"/>
              <path id="Trazado_906749" data-name="Trazado 906749" d="M167.641,185.741c0,.144-6.967.26-15.559.26s-15.56-.116-15.56-.26,6.966-.26,15.56-.26,15.559.116,15.559.26" fill="#263238"/>
            </g>
          </g>
          <g id="Grupo_1114459" data-name="Grupo 1114459">
            <g id="Grupo_1114458" data-name="Grupo 1114458" clip-path="url(#clip-path-3)">
              <path id="Trazado_906750" data-name="Trazado 906750" d="M29.435,145.448c-.995,4.408-6,6.711-9.077,10.022s-7.62,6.025-11.952,4.736c-2.852-.849-4.991-3.3-6.229-6.012C-.7,147.9.664,140.5,2.82,133.92S7.9,120.826,8.025,113.9l14.509,4.867,3.576-4.406s4.05,27.876,3.325,31.086" fill="#ffbe9d"/>
              <path id="Trazado_906751" data-name="Trazado 906751" d="M85.959,107.932s8.772,35.154,17.16,40.311c10.6,6.521,16.8-1.233,16.8-1.233l16.607-30.389L125.2,113.783l-11.039,13.9-7.7-21.056Z" fill="#ffbe9d"/>
              <path id="Trazado_906752" data-name="Trazado 906752" d="M73.205,254.088c0,1.179,1.395,18.557,1.395,18.557a66.951,66.951,0,0,0-2.791,16.82c-.381,16.216-.235,51.132-.235,51.132h17.31l.009-1.966s9.124-60.934,8.8-66.9l-1.214-22.649Z" fill="#ffbe9d"/>
              <path id="Trazado_906753" data-name="Trazado 906753" d="M59.117,227.084l-28.81,4.872s2.906,7.885,3.114,8.658c.759,2.82,2.419,10.108,1.443,16.941-1.244,8.706-2.34,19.278-1.792,24.253s5.953,57.346,5.953,57.346l17.168.536,4.168-96.429Z" fill="#ffbe9d"/>
              <path id="Trazado_906754" data-name="Trazado 906754" d="M47.075,19.275l-.159,51.882,22.259,1.062L69.818,59.6s7.906,1.569,9.946-5.773c1.3-4.69.977-40.937.977-40.937Z" fill="#ffbe9d"/>
              <path id="Trazado_906755" data-name="Trazado 906755" d="M83.67,16.543c-3.506,1-4.268,6.734-4.268,6.734L73.9,35.422c-2.8-2.193-6.562-2.067-7.275,2.856-.514,3.557,3.909,4.276,3.909,4.276-2.575,4.382-4.321,7.926-8.07,12.094-4.057,4.51-6.33,4.965-10.731,5.039H46.884s-2.375-7.71-6.774-26.992C35.23,11.3,60.525,14.06,65.215,8.6c7.637-8.893,29.507,4.779,18.455,7.943" fill="#263238"/>
              <path id="Trazado_906756" data-name="Trazado 906756" d="M40.573,34.712c-4.1-2.754-4.47-10.46-2.078-15.082a14.85,14.85,0,0,1,12.629-7.853,5.987,5.987,0,0,0,2.063-.231,5.719,5.719,0,0,0,2.215-2.1C59.066,4.679,62.667,0,69.5,0a7.772,7.772,0,0,1,4.294,1.064A6.747,6.747,0,0,1,76.37,4.478a14.638,14.638,0,0,1,3.995-1.437,4.932,4.932,0,0,1,4.008.978A3.016,3.016,0,0,1,85,7.858,4.857,4.857,0,0,1,89.849,11.9c.362,2.278-2.9,3.879-3.242,4.056,0,0,1.792,3.75-2.48,6-1.721.905-3.958-.185-4.211-.317" fill="#263238"/>
              <path id="Trazado_906757" data-name="Trazado 906757" d="M56.824,39.7A7.714,7.714,0,0,1,56.7,43.64a7.711,7.711,0,0,1-1.574,3.614c-.149-.075.565-1.664,1.023-3.738.475-2.069.511-3.811.678-3.815" fill="#455a64"/>
              <path id="Trazado_906758" data-name="Trazado 906758" d="M59.516,37.155a9.465,9.465,0,0,1-.207,3.793,9.444,9.444,0,0,1-1.175,3.612,20.311,20.311,0,0,1,.621-3.716,20.219,20.219,0,0,1,.761-3.689" fill="#455a64"/>
              <path id="Trazado_906759" data-name="Trazado 906759" d="M67.225,28.592c.053.074-.577.534-1.377,1.472a14.223,14.223,0,0,0-2.4,4.14,34.739,34.739,0,0,0-1.33,4.666,7.854,7.854,0,0,1-.551,1.962,6.982,6.982,0,0,1,.159-2.036,22.88,22.88,0,0,1,1.2-4.8,12.091,12.091,0,0,1,2.632-4.208,4.226,4.226,0,0,1,1.67-1.2" fill="#455a64"/>
              <path id="Trazado_906760" data-name="Trazado 906760" d="M70.342,22.763a2.9,2.9,0,0,1,.432,1.4,9.335,9.335,0,0,1-1.694,6.757c-.548.73-.994,1.081-1.043,1.034a19.4,19.4,0,0,0,2-4.386,19.432,19.432,0,0,0,.308-4.809" fill="#455a64"/>
              <path id="Trazado_906761" data-name="Trazado 906761" d="M43.777,35.721c-.076.136-.757-.1-1.522-.527s-1.323-.884-1.248-1.02.758.1,1.523.527,1.323.884,1.247,1.02" fill="#455a64"/>
              <path id="Trazado_906762" data-name="Trazado 906762" d="M54.531,30.181c.147.022.056,1.121-.636,2.257s-1.615,1.733-1.7,1.613c-.1-.124.594-.856,1.22-1.9s.959-2,1.118-1.965" fill="#455a64"/>
              <path id="Trazado_906763" data-name="Trazado 906763" d="M57.838,28.406a4.458,4.458,0,0,1-.99,2.7c-.893,1.354-2.015,2.081-2.1,1.961-.105-.126.795-1,1.631-2.273a22.911,22.911,0,0,1,1.46-2.385" fill="#455a64"/>
              <path id="Trazado_906764" data-name="Trazado 906764" d="M74.273,6.677c-.039.045-.417-.317-1.22-.774a8.234,8.234,0,0,0-3.73-.964,10,10,0,0,0-5.471,1.47A13.557,13.557,0,0,0,59.191,11.6,23.322,23.322,0,0,0,57.3,16.465l-.09.326-.3-.157a11.094,11.094,0,0,0-4.966-1.27,11.734,11.734,0,0,0-4.042.611,17.321,17.321,0,0,0-3.3,1.65,3.432,3.432,0,0,1,.745-.659,10.24,10.24,0,0,1,2.442-1.311,11.536,11.536,0,0,1,4.162-.753,11.306,11.306,0,0,1,5.214,1.255l-.388.17a22.961,22.961,0,0,1,1.918-4.994,13.762,13.762,0,0,1,4.888-5.368A10.161,10.161,0,0,1,69.34,4.54a7.921,7.921,0,0,1,3.825,1.175,5.8,5.8,0,0,1,.855.678c.18.173.266.27.253.284" fill="#455a64"/>
              <path id="Trazado_906765" data-name="Trazado 906765" d="M85.979,9.5c-.041-.01.618-.167,1.276.579a2.214,2.214,0,0,1,.513,1.625,2.527,2.527,0,0,1-1.294,1.848,3.671,3.671,0,0,1-2.7.372,7.829,7.829,0,0,1-2.791-1.353A27.367,27.367,0,0,0,78.251,10.7a11.358,11.358,0,0,0-3.288-1.157,13.908,13.908,0,0,0-6.711.46,18.347,18.347,0,0,0-4.96,2.522,50.772,50.772,0,0,0-3.96,3.351,5.628,5.628,0,0,1,.88-1.1A21.518,21.518,0,0,1,63.057,12.2a17.855,17.855,0,0,1,5.034-2.693,14.088,14.088,0,0,1,6.976-.52,11.7,11.7,0,0,1,3.45,1.226,26.158,26.158,0,0,1,2.764,1.931,7.54,7.54,0,0,0,2.593,1.32,3.279,3.279,0,0,0,2.4-.262,2.212,2.212,0,0,0,1.179-1.541,2.021,2.021,0,0,0-.372-1.45,1.952,1.952,0,0,0-1.1-.715" fill="#455a64"/>
              <path id="Trazado_906766" data-name="Trazado 906766" d="M27.82,184.58s-.811,21.382,0,27.89-.361,45.8-.361,45.8,30.173,8.784,38.308-1.629c0,0-3.294-47.747-3.619-49.049s-2.986-33.842-2.986-33.842Z" fill="#263238"/>
              <path id="Trazado_906767" data-name="Trazado 906767" d="M96.641,173.747c1.775,5.528,5.532,26.358,5.532,26.358v55.206s-26.142,9.444-36.555,4.767L59.163,204.66V175.941l21.505-8.377Z" fill="#263238"/>
              <path id="Trazado_906768" data-name="Trazado 906768" d="M80.049,212.109a5.826,5.826,0,0,1-1.218-.021c-.781-.045-1.909-.129-3.3-.244l-10.877-.993-10.875-.991-3.3-.305a5.757,5.757,0,0,1-1.205-.173,5.887,5.887,0,0,1,1.218-.017c.782.02,1.912.071,3.309.15,2.793.158,6.647.448,10.9.85s8.087.818,10.865,1.135l3.288.4a5.794,5.794,0,0,1,1.2.211" fill="#455a64"/>
              <path id="Trazado_906769" data-name="Trazado 906769" d="M60.463,210.365c.134-.014,1.4,11.1,2.821,24.831s2.468,24.87,2.334,24.884-1.4-11.1-2.82-24.833-2.469-24.868-2.335-24.882" fill="#455a64"/>
              <path id="Trazado_906770" data-name="Trazado 906770" d="M60.84,210.065a17.276,17.276,0,0,1-3.059,2.724,17.357,17.357,0,0,1-3.361,2.34,17.232,17.232,0,0,1,3.059-2.724,17.323,17.323,0,0,1,3.361-2.34" fill="#455a64"/>
              <path id="Trazado_906771" data-name="Trazado 906771" d="M101.4,196.494a8.689,8.689,0,0,1-2.086-1.112,28.953,28.953,0,0,1-8.164-7.9,8.725,8.725,0,0,1-1.18-2.048,16.053,16.053,0,0,1,1.459,1.844A38.39,38.39,0,0,0,99.5,195.1a16.191,16.191,0,0,1,1.892,1.4" fill="#455a64"/>
              <path id="Trazado_906772" data-name="Trazado 906772" d="M59.462,205.1a2.778,2.778,0,0,1-.443-.711,22.714,22.714,0,0,1-.974-2.06,33.755,33.755,0,0,1-2.564-14.716c.054-.961.132-1.736.219-2.267a2.783,2.783,0,0,1,.177-.819c.08.009-.031,1.19-.051,3.1A40.192,40.192,0,0,0,58.367,202.2c.663,1.789,1.167,2.862,1.1,2.9" fill="#455a64"/>
              <path id="Trazado_906773" data-name="Trazado 906773" d="M91.254,128.546c-.264-.793-3.172-17.444-3.172-17.444l21.409-.529s-9.4-36.72-14.521-39.43c-7.939-4.2-25.389-4.709-25.389-4.709H47.115S22.27,73.306,17.776,80.706L1.918,111.2l20.616,7.567,3.575-4.406,3.561,31.1s-2.114,28.016-2.114,32.245.264,6.872.264,6.872S74.525,171.9,85.89,175.6s13.06,7.167,13.06,7.167,1.026-12.461-1.617-17.219Z" fill="#455a64"/>
              <path id="Trazado_906774" data-name="Trazado 906774" d="M26.614,118.768c-.079.01-.29-1.482-.768-3.862a70.474,70.474,0,0,0-2.493-9.136,76.973,76.973,0,0,0-3.7-8.724l-1.3-2.568a4.441,4.441,0,0,1-.44-.965,4.428,4.428,0,0,1,.6.872c.366.576.862,1.429,1.443,2.5a60.706,60.706,0,0,1,3.851,8.722,56.513,56.513,0,0,1,2.372,9.234c.195,1.2.325,2.184.381,2.864a4.472,4.472,0,0,1,.047,1.061" fill="#263238"/>
              <path id="Trazado_906775" data-name="Trazado 906775" d="M70.767,130.481a1.778,1.778,0,0,1-.119.462l-.433,1.293c-.188.561-.431,1.244-.748,2.023s-.647,1.68-1.088,2.644c-.831,1.949-1.936,4.22-3.271,6.685a90.65,90.65,0,0,1-4.809,7.744A90.215,90.215,0,0,1,54.67,158.5c-1.858,2.1-3.613,3.915-5.159,5.364-.755.744-1.485,1.366-2.111,1.927s-1.182,1.027-1.645,1.4l-1.066.849a1.727,1.727,0,0,1-.393.27c-.011-.013.1-.132.33-.346l1.005-.917c.443-.391.981-.873,1.585-1.455s1.318-1.216,2.054-1.973c1.51-1.475,3.231-3.307,5.06-5.411,1.81-2.122,3.716-4.526,5.569-7.158,1.837-2.642,3.442-5.255,4.815-7.682,1.35-2.439,2.482-4.684,3.35-6.607.459-.951.814-1.837,1.15-2.606s.608-1.437.823-1.988l.518-1.259a1.779,1.779,0,0,1,.212-.428" fill="#263238"/>
              <path id="Trazado_906776" data-name="Trazado 906776" d="M88.262,85.615c.09.022-.247,1.474-.5,3.863a77.815,77.815,0,0,0-.277,9.379c.088,3.67.317,6.989.514,9.389q.138,1.675.235,2.843a4.659,4.659,0,0,1,.039,1.05,4.108,4.108,0,0,1-.228-1.027c-.112-.666-.248-1.633-.39-2.832-.285-2.4-.57-5.724-.658-9.412a60.979,60.979,0,0,1,.421-9.431,27.307,27.307,0,0,1,.535-2.816,4.328,4.328,0,0,1,.305-1.006" fill="#263238"/>
              <g id="Grupo_1114448" data-name="Grupo 1114448" opacity="0.3">
                <g id="Grupo_1114447" data-name="Grupo 1114447">
                  <g id="Grupo_1114446" data-name="Grupo 1114446" clip-path="url(#clip-path-8)">
                    <path id="Trazado_906777" data-name="Trazado 906777" d="M20.788,99.6s1.333,12.785,1.746,19.164l3.575-4.4S22.6,101.205,20.788,99.6"/>
                  </g>
                </g>
              </g>
              <g id="Grupo_1114451" data-name="Grupo 1114451" opacity="0.3">
                <g id="Grupo_1114450" data-name="Grupo 1114450">
                  <g id="Grupo_1114449" data-name="Grupo 1114449" clip-path="url(#clip-path-9)">
                    <path id="Trazado_906778" data-name="Trazado 906778" d="M53.778,144.746a71,71,0,0,0-6.363,13,57.65,57.65,0,0,0,16.563-22c-4.308,1.652-7.739,5.1-10.2,9"/>
                  </g>
                </g>
              </g>
              <path id="Trazado_906779" data-name="Trazado 906779" d="M6.609,170.838A1.693,1.693,0,0,1,4.5,169.379L.03,127.13a5.228,5.228,0,0,1,3.852-5.6l22.308-5.994,3.724,32.524-1.658,17.128Z" fill="#8454ee"/>
              <g id="Grupo_1114454" data-name="Grupo 1114454" opacity="0.3">
                <g id="Grupo_1114453" data-name="Grupo 1114453">
                  <g id="Grupo_1114452" data-name="Grupo 1114452" clip-path="url(#clip-path-10)">
                    <path id="Trazado_906780" data-name="Trazado 906780" d="M28.256,165.183c-1.377-2.678-.843-5.841-.531-8.836,1.441-13.818-4.531-27.25-1.535-40.816,0,0,3.059,25.853,3.724,32.524Z"/>
                  </g>
                </g>
              </g>
              <path id="Trazado_906781" data-name="Trazado 906781" d="M26.42,119.338a3.468,3.468,0,0,1-.65.221l-1.89.533-6.976,1.87-4.823,1.267-2.688.7a7.883,7.883,0,0,0-2.669,1,6.883,6.883,0,0,0-2.08,2.111,4.888,4.888,0,0,0-.8,2.919c.124,2.19.251,4.456.382,6.778.485,9.264.925,17.648,1.246,23.79.133,3,.241,5.448.318,7.214.025.809.045,1.461.061,1.963a3.348,3.348,0,0,1-.015.686,3.4,3.4,0,0,1-.09-.68c-.04-.5-.093-1.149-.158-1.957C5.467,166,5.3,163.55,5.1,160.554c-.361-6.142-.854-14.526-1.4-23.791-.127-2.322-.252-4.59-.372-6.781a5.391,5.391,0,0,1,.891-3.2,7.355,7.355,0,0,1,2.243-2.251,6.211,6.211,0,0,1,1.395-.669c.5-.162.952-.251,1.42-.376l2.694-.676,4.839-1.2L23.83,119.9l1.914-.439a3.422,3.422,0,0,1,.676-.119" fill="#263238"/>
              <path id="Trazado_906782" data-name="Trazado 906782" d="M28.723,136.819a9.949,9.949,0,0,1-2.189.821c-1.374.436-3.289.984-5.422,1.517s-4.083.946-5.5,1.207a10,10,0,0,1-2.318.3,10.96,10.96,0,0,1,2.24-.663l5.453-1.352,5.448-1.367a10.975,10.975,0,0,1,2.289-.466" fill="#263238"/>
              <path id="Trazado_906783" data-name="Trazado 906783" d="M29.1,140.494a17.306,17.306,0,0,1-4.617,1.623,17.244,17.244,0,0,1-4.834.772,34.955,34.955,0,0,1,4.706-1.277,34.67,34.67,0,0,1,4.745-1.118" fill="#263238"/>
              <path id="Trazado_906784" data-name="Trazado 906784" d="M118.145,141.328a44.918,44.918,0,0,0-1.531-6.923c-1.281-3.7-2.755-6.562-2.591-6.64a7.859,7.859,0,0,1,1.083,1.805,34.058,34.058,0,0,1,2,4.67,21.468,21.468,0,0,1,1.069,4.978,6.325,6.325,0,0,1-.031,2.11" fill="#eb996e"/>
              <path id="Trazado_906785" data-name="Trazado 906785" d="M125.2,113.783s-2.165-13.415-1.043-15.535l8.821-10.964s1.511,2.077.873,3.922a21.157,21.157,0,0,1-2.593,4.419s5.006-.13,6.456,1.673a9.04,9.04,0,0,1,.953,3.651,2.136,2.136,0,0,1-.476,1.534l-1.257,1.553c2.454,10.371-.662,12.865-.662,12.865Z" fill="#ffbe9d"/>
              <path id="Trazado_906786" data-name="Trazado 906786" d="M135.149,96c.037.063-.235.293-.644.68a4.5,4.5,0,0,0-1.241,1.693,12.462,12.462,0,0,0-.6,2.1c-.111.549-.055.876-.125.9s-.265-.335-.242-.939a6.985,6.985,0,0,1,.476-2.252,3.82,3.82,0,0,1,1.5-1.793c.49-.33.84-.453.875-.392" fill="#eb996e"/>
              <path id="Trazado_906787" data-name="Trazado 906787" d="M123.834,100.711c.018-.372-.311-.058-.641.116a2.736,2.736,0,0,0-.862,1.145,8.115,8.115,0,0,0-.11,4.65c.442,2.066,1.681,3.244,2.738,5.073" fill="#ffbe9d"/>
              <path id="Trazado_906788" data-name="Trazado 906788" d="M131.606,95.469c.13.127-.9,1.04-1.784,2.354a5.01,5.01,0,0,0-.726,1.854c-.082.509-.048.843-.125.86-.061.018-.233-.307-.242-.885a3.957,3.957,0,0,1,.653-2.107,6.938,6.938,0,0,1,1.458-1.606c.426-.346.718-.521.766-.47" fill="#eb996e"/>
              <path id="Trazado_906789" data-name="Trazado 906789" d="M124.959,109.641a5.631,5.631,0,0,1-.443-1.592c-.212-.992-.495-2.369-.689-3.917a13.417,13.417,0,0,1,.137-5.627c.139.019-.05,2.509.38,5.563s.789,5.55.615,5.573" fill="#eb996e"/>
              <path id="Trazado_906790" data-name="Trazado 906790" d="M137.756,97.5a3.617,3.617,0,0,1,.626,1.448,12.159,12.159,0,0,1,.38,1.673,3.611,3.611,0,0,1-.241,2.167,2.381,2.381,0,0,1-.742.928,1.886,1.886,0,0,1-.528.266.756.756,0,0,1-.363.027.519.519,0,0,1-.349-.254,7.526,7.526,0,0,1-.446-1.709,3.3,3.3,0,0,1,0-1.581,8.776,8.776,0,0,1,.362,1.51,10.64,10.64,0,0,0,.5,1.533c.026.032.013.03.154,0a1.5,1.5,0,0,0,.373-.2,1.941,1.941,0,0,0,.572-.738,3.329,3.329,0,0,0,.237-1.885c-.067-.618-.171-1.178-.261-1.646a7.094,7.094,0,0,1-.269-1.536" fill="#eb996e"/>
              <path id="Trazado_906791" data-name="Trazado 906791" d="M71.5,338.97v19.849l39.818-.6c-.291-4.024-22.05-11.646-22.05-11.646l.436-7.6Z" fill="#8454ee"/>
              <g id="Grupo_1114457" data-name="Grupo 1114457" opacity="0.6">
                <g id="Grupo_1114456" data-name="Grupo 1114456">
                  <g id="Grupo_1114455" data-name="Grupo 1114455" clip-path="url(#clip-path-11)">
                    <path id="Trazado_906792" data-name="Trazado 906792" d="M77.973,344.773a1.735,1.735,0,0,0-1.1,1.983,1.559,1.559,0,0,0,1.847,1.169,1.83,1.83,0,0,0,1.15-2.1,1.6,1.6,0,0,0-2.048-.992" fill="#fff"/>
                  </g>
                </g>
              </g>
              <path id="Trazado_906793" data-name="Trazado 906793" d="M71.5,358.819l.061-3.419,38.154.7s1.784.79,1.6,2.115Z" fill="#263238"/>
              <path id="Trazado_906794" data-name="Trazado 906794" d="M89.266,346.953c0,.206-.974.314-1.921.991-.964.65-1.445,1.55-1.625,1.471-.18-.037.093-1.273,1.253-2.071s2.333-.58,2.293-.391" fill="#263238"/>
              <path id="Trazado_906795" data-name="Trazado 906795" d="M94.51,348.79c.047.2-.79.562-1.438,1.443-.672.86-.825,1.8-1.019,1.8-.182.035-.334-1.169.491-2.248s1.959-1.19,1.966-.994" fill="#263238"/>
              <path id="Trazado_906796" data-name="Trazado 906796" d="M96.869,353.849c-.176.047-.461-.978.022-2.113s1.386-1.6,1.47-1.428c.113.167-.469.781-.852,1.72-.4.929-.447,1.8-.64,1.821" fill="#263238"/>
              <path id="Trazado_906797" data-name="Trazado 906797" d="M88.877,341.309c-.079.189-.975-.082-2.073.014-1.1.072-1.949.476-2.053.3-.115-.148.709-.923,2-1.016s2.215.538,2.122.7" fill="#263238"/>
              <path id="Trazado_906798" data-name="Trazado 906798" d="M89.093,346.921a2.939,2.939,0,0,0,.086-1.213,6.719,6.719,0,0,0-1.06-3.129,6.188,6.188,0,0,0-1.566-1.648A1.357,1.357,0,0,0,85.2,340.7,1.523,1.523,0,0,0,84.414,342a5.246,5.246,0,0,0,3.517,4.643,5.015,5.015,0,0,0,5.406-1.6,3.632,3.632,0,0,0,.718-1.225,1.332,1.332,0,0,0,.006-.794.941.941,0,0,0-.545-.574,1.694,1.694,0,0,0-1.247.123,7.318,7.318,0,0,0-.932.531,8.333,8.333,0,0,0-2.288,2.264,3.158,3.158,0,0,0-.552,1.064,11.558,11.558,0,0,1,3.048-2.962c.535-.308,1.237-.749,1.8-.552.249.1.347.393.229.742a3.21,3.21,0,0,1-.63,1.011,4.545,4.545,0,0,1-4.84,1.4,4.767,4.767,0,0,1-3.169-4.034.992.992,0,0,1,.472-.859.913.913,0,0,1,.892.177,5.9,5.9,0,0,1,1.49,1.473,7.021,7.021,0,0,1,1.167,2.908c.11.751.086,1.182.134,1.185" fill="#263238"/>
              <path id="Trazado_906799" data-name="Trazado 906799" d="M56.1,338.62l.82,6.175-.548,13.932-18.147.442-.647-14.374.764-6.175Z" fill="#8454ee"/>
              <path id="Trazado_906800" data-name="Trazado 906800" d="M47.4,357.677c-.11.006.151-4.256.583-9.517s.873-9.533.983-9.539-.151,4.255-.583,9.518-.873,9.532-.983,9.538" fill="#263238"/>
              <path id="Trazado_906801" data-name="Trazado 906801" d="M56.361,356.407l-18.152.383.015,2.379,18.147-.442Z" fill="#263238"/>
              <path id="Trazado_906802" data-name="Trazado 906802" d="M38.154,348.4a2.426,2.426,0,0,1,.464-.735,12.662,12.662,0,0,1,1.618-1.731,12.313,12.313,0,0,1,2.93-1.968,9.665,9.665,0,0,1,11.309,2.093A8.319,8.319,0,0,1,55.8,348.03a2.374,2.374,0,0,1,.289.822,18.909,18.909,0,0,0-1.9-2.528,9.661,9.661,0,0,0-6.8-2.791,11.107,11.107,0,0,0-6.9,2.7c-1.518,1.239-2.257,2.233-2.333,2.17" fill="#263238"/>
            </g>
          </g>
        </g>
      </g>
    </g>
  </g>
</svg>
