<svg xmlns="http://www.w3.org/2000/svg" xmlns:xlink="http://www.w3.org/1999/xlink" width="93.722" height="93.723" viewBox="0 0 93.722 93.723">
  <defs>
    <filter id="Trazado_874925" x="0" y="0" width="93.722" height="93.723" filterUnits="userSpaceOnUse">
      <feOffset dy="3" input="SourceAlpha"/>
      <feGaussianBlur stdDeviation="3" result="blur"/>
      <feFlood flood-opacity="0.161"/>
      <feComposite operator="in" in2="blur"/>
      <feComposite in="SourceGraphic"/>
    </filter>
  </defs>
  <g id="Grupo_1114835" data-name="Grupo 1114835" transform="translate(-621 -2482.274)">
    <g id="Grupo_1112991" data-name="Grupo 1112991" transform="translate(630 2488.274)">
      <g id="Grupo_1109835" data-name="Grupo 1109835" transform="translate(0 0)">
        <g id="Grupo_1107913" data-name="Grupo 1107913" transform="translate(0 0)">
          <g transform="matrix(1, 0, 0, 1, -9, -6)" filter="url(#Trazado_874925)">
            <g id="Trazado_874925-2" data-name="Trazado 874925" transform="translate(9 6)" fill="#5ab4f9" opacity="0.859">
              <path d="M 37.86101913452148 74.2225341796875 C 32.95165252685547 74.2225341796875 28.1899299621582 73.26136779785156 23.7081298828125 71.36572265625 C 19.37846374511719 69.534423828125 15.48970794677734 66.91244506835938 12.1498966217041 63.57263565063477 C 8.810074806213379 60.23281097412109 6.188107967376709 56.34405517578125 4.356808185577393 52.01438903808594 C 2.461163520812988 47.53257751464844 1.499996900558472 42.77085494995117 1.499996900558472 37.86148834228516 C 1.499996900558472 32.95167922973633 2.461163520812988 28.18995666503906 4.356808185577393 23.70814514160156 C 6.188107967376709 19.37847900390625 8.810074806213379 15.48972225189209 12.1498966217041 12.14990043640137 C 15.48970794677734 8.810089111328125 19.37846374511719 6.188111305236816 23.7081298828125 4.3568115234375 C 28.1899299621582 2.461167097091675 32.95165252685547 1.500000476837158 37.86101913452148 1.500000476837158 C 42.7703857421875 1.500000476837158 47.53210830688477 2.461167097091675 52.01390838623047 4.3568115234375 C 56.34357452392578 6.188111305236816 60.23233032226562 8.810089111328125 63.57213973999023 12.14990043640137 C 66.91196441650391 15.48972225189209 69.53392791748047 19.37847900390625 71.36522674560547 23.70814514160156 C 73.26087188720703 28.18995666503906 74.22203826904297 32.95167922973633 74.22203826904297 37.86104583740234 C 74.22203826904297 42.77085494995117 73.26087188720703 47.53257751464844 71.36522674560547 52.01438903808594 C 69.53392791748047 56.34405517578125 66.91196441650391 60.23281097412109 63.57213973999023 63.57263565063477 C 60.23233032226562 66.91244506835938 56.34357452392578 69.534423828125 52.01390838623047 71.36572265625 C 47.53210830688477 73.26136779785156 42.7703857421875 74.2225341796875 37.86101913452148 74.2225341796875 Z" stroke="none"/>
              <path d="M 37.86101913452148 3.000007629394531 C 33.15349578857422 3.000007629394531 28.5883674621582 3.921302795410156 24.29245758056641 5.738327026367188 C 20.14159393310547 7.493995666503906 16.41309356689453 10.00801849365234 13.21055603027344 13.21056747436523 C 10.00800323486328 16.41310501098633 7.493980407714844 20.14160537719727 5.738319396972656 24.29246520996094 C 3.921295166015625 28.58837890625 2.999992370605469 33.15350341796875 2.999992370605469 37.86148071289062 C 2.999992370605469 42.56901550292969 3.921295166015625 47.13414001464844 5.738319396972656 51.4300537109375 C 7.493980407714844 55.58092880249023 10.00800323486328 59.30941772460938 13.21055603027344 62.51196670532227 C 16.41309356689453 65.71451568603516 20.14159393310547 68.22854614257812 24.29245758056641 69.98420715332031 C 28.5883674621582 71.80123138427734 33.15349578857422 72.72252655029297 37.86101913452148 72.72252655029297 C 42.56854248046875 72.72252655029297 47.1336669921875 71.80123138427734 51.42958068847656 69.98420715332031 C 55.5804443359375 68.22854614257812 59.30892944335938 65.71451568603516 62.51148223876953 62.51196670532227 C 65.71401977539062 59.30941772460938 68.22804260253906 55.58092880249023 69.98370361328125 51.4300537109375 C 71.80073547363281 47.13414001464844 72.72203063964844 42.56901550292969 72.72203063964844 37.86104202270508 C 72.72203063964844 33.15350341796875 71.80073547363281 28.58837890625 69.98370361328125 24.29246520996094 C 68.22804260253906 20.14160537719727 65.71401977539062 16.41310501098633 62.51148223876953 13.21056747436523 C 59.30892944335938 10.00801849365234 55.5804443359375 7.493995666503906 51.42958068847656 5.738327026367188 C 47.1336669921875 3.921302795410156 42.56854248046875 3.000007629394531 37.86101913452148 3.000007629394531 M 37.86101913452148 7.62939453125e-06 C 58.77108001708984 7.62939453125e-06 75.72203063964844 16.95096588134766 75.72203063964844 37.86104202270508 L 75.72203063964844 37.86148071289062 C 75.72203063964844 58.77156829833984 58.77108001708984 75.72252655029297 37.86101913452148 75.72252655029297 C 16.95095825195312 75.72252655029297 -7.62939453125e-06 58.77156829833984 -7.62939453125e-06 37.86148071289062 L -7.62939453125e-06 37.86104202270508 C -7.62939453125e-06 16.95096588134766 16.95095825195312 7.62939453125e-06 37.86101913452148 7.62939453125e-06 Z" stroke="none" fill="#fff"/>
            </g>
          </g>
          <g id="Trazado_874923" data-name="Trazado 874923" transform="translate(0 0)" fill="none">
            <path d="M37.861,0A37.861,37.861,0,0,1,75.722,37.861h0A37.861,37.861,0,1,1,0,37.861H0A37.861,37.861,0,0,1,37.861,0Z" stroke="none"/>
            <path d="M 37.86101913452148 3.000007629394531 C 33.15349578857422 3.000007629394531 28.5883674621582 3.921302795410156 24.29245758056641 5.738327026367188 C 20.14159393310547 7.493995666503906 16.41309356689453 10.00801849365234 13.21055603027344 13.21056747436523 C 10.00800323486328 16.41310501098633 7.493980407714844 20.14160537719727 5.738319396972656 24.29246520996094 C 3.921295166015625 28.58837890625 2.999992370605469 33.15350341796875 2.999992370605469 37.86148071289062 C 2.999992370605469 42.56901550292969 3.921295166015625 47.13414001464844 5.738319396972656 51.4300537109375 C 7.493980407714844 55.58092880249023 10.00800323486328 59.30941772460938 13.21055603027344 62.51196670532227 C 16.41309356689453 65.71451568603516 20.14159393310547 68.22854614257812 24.29245758056641 69.98420715332031 C 28.5883674621582 71.80123138427734 33.15349578857422 72.72252655029297 37.86101913452148 72.72252655029297 C 42.56854248046875 72.72252655029297 47.1336669921875 71.80123138427734 51.42958068847656 69.98420715332031 C 55.5804443359375 68.22854614257812 59.30892944335938 65.71451568603516 62.51148223876953 62.51196670532227 C 65.71401977539062 59.30941772460938 68.22804260253906 55.58092880249023 69.98370361328125 51.4300537109375 C 71.80073547363281 47.13414001464844 72.72203063964844 42.56901550292969 72.72203063964844 37.86104202270508 C 72.72203063964844 33.15350341796875 71.80073547363281 28.58837890625 69.98370361328125 24.29246520996094 C 68.22804260253906 20.14160537719727 65.71401977539062 16.41310501098633 62.51148223876953 13.21056747436523 C 59.30892944335938 10.00801849365234 55.5804443359375 7.493995666503906 51.42958068847656 5.738327026367188 C 47.1336669921875 3.921302795410156 42.56854248046875 3.000007629394531 37.86101913452148 3.000007629394531 M 37.86101913452148 7.62939453125e-06 C 58.77108001708984 7.62939453125e-06 75.72203063964844 16.95096588134766 75.72203063964844 37.86104202270508 L 75.72203063964844 37.86148071289062 C 75.72203063964844 58.77156829833984 58.77108001708984 75.72252655029297 37.86101913452148 75.72252655029297 C 16.95095825195312 75.72252655029297 -7.62939453125e-06 58.77156829833984 -7.62939453125e-06 37.86148071289062 L -7.62939453125e-06 37.86104202270508 C -7.62939453125e-06 16.95096588134766 16.95095825195312 7.62939453125e-06 37.86101913452148 7.62939453125e-06 Z" stroke="none" fill="#fff"/>
          </g>
        </g>
      </g>
    </g>
    <g id="Grupo_1114834" data-name="Grupo 1114834" transform="translate(614.345 2498.824)">
      <g id="Grupo_1114832" data-name="Grupo 1114832" transform="translate(33.113 0.704)">
        <path id="Trazado_908065" data-name="Trazado 908065" d="M424.841,136.5h-.007l-.281.165v4.864h4.262l.233-.2v-.623A4.22,4.22,0,0,0,424.841,136.5Z" transform="translate(-388.232 -124.315)" fill="#ffa90f"/>
        <path id="Trazado_908066" data-name="Trazado 908066" d="M152.07,8.134l-.3-.677h-20.65a1.56,1.56,0,0,0-1.56,1.56v2.693l.649.532H147.52l5.684,5.525V24.8h4.045l.45-.328V13.387l-.7-.31Z" transform="translate(-121.096 -7.457)" fill="#62ddfc"/>
        <g id="Grupo_1114831" data-name="Grupo 1114831" transform="translate(8.463 0)">
          <path id="Trazado_908067" data-name="Trazado 908067" d="M134.4,9.017a1.56,1.56,0,0,1,1.56-1.56h-4.839a1.56,1.56,0,0,0-1.56,1.56v2.693l.649.532h4.839l-.649-.532V9.017Z" transform="translate(-129.559 -7.457)" fill="#00d2fc"/>
        </g>
        <path id="Trazado_908068" data-name="Trazado 908068" d="M44.159,136.5h-.086a4.14,4.14,0,0,0-4.128,4.128v.7l.408.113h4.124v-4.678Z" transform="translate(-39.945 -124.315)" fill="#ffa90f"/>
        <path id="Trazado_908069" data-name="Trazado 908069" d="M364.741,7.457v4.369a1.56,1.56,0,0,0,1.56,1.56h4.369Z" transform="translate(-334.068 -7.457)" fill="#00d2fc"/>
        <path id="Trazado_908070" data-name="Trazado 908070" d="M107.138,53.392l-.364-.894H86.124a1.56,1.56,0,0,0-1.56,1.56v11.2l.612.612h25.848l1.68-.612V58.428l-.875-.408Z" transform="translate(-80.35 -48.244)" fill="#dbedff"/>
        <path id="Trazado_908071" data-name="Trazado 908071" d="M89.4,54.057a1.56,1.56,0,0,1,1.56-1.56H86.125a1.56,1.56,0,0,0-1.56,1.56v11.2l.612.612h4.839l-.612-.612Z" transform="translate(-80.351 -48.243)" fill="#b5dcff"/>
        <path id="Trazado_908072" data-name="Trazado 908072" d="M319.746,52.5v4.369a1.56,1.56,0,0,0,1.56,1.56h4.369Z" transform="translate(-293.322 -48.244)" fill="#b5dcff"/>
        <path id="Trazado_908073" data-name="Trazado 908073" d="M367.291,11.826V10.007l-2.55-2.55v4.369a1.56,1.56,0,0,0,1.56,1.56h2.55A1.56,1.56,0,0,1,367.291,11.826Z" transform="translate(-334.068 -7.457)" fill="#00c2fb"/>
        <path id="Trazado_908074" data-name="Trazado 908074" d="M322.3,56.867V55.048l-2.55-2.55v4.369a1.56,1.56,0,0,0,1.56,1.56h2.55A1.56,1.56,0,0,1,322.3,56.867Z" transform="translate(-293.322 -48.244)" fill="#8bcaff"/>
        <path id="Trazado_908075" data-name="Trazado 908075" d="M80.762,187.649H39.945v28.665a1.254,1.254,0,0,0,1.254,1.254H79.507a1.254,1.254,0,0,0,1.254-1.254Z" transform="translate(-39.945 -170.632)" fill="#ffd086"/>
        <path id="Trazado_908076" data-name="Trazado 908076" d="M45.961,216.314V187.649H39.945v28.665a1.254,1.254,0,0,0,1.254,1.254h6.016A1.254,1.254,0,0,1,45.961,216.314Z" transform="translate(-39.945 -170.632)" fill="#ffc365"/>
        <path id="Trazado_908077" data-name="Trazado 908077" d="M271.88,320H256.849a.8.8,0,0,0-.8.8v11.831a.8.8,0,0,0,.8.8H271.88a.8.8,0,0,0,.8-.8V320.8A.8.8,0,0,0,271.88,320Z" transform="translate(-235.638 -290.486)" fill="#dbedff"/>
        <path id="Trazado_908078" data-name="Trazado 908078" d="M259.818,332.636V320.8a.8.8,0,0,1,.8-.8h-3.772a.8.8,0,0,0-.8.8v11.831a.8.8,0,0,0,.8.8h3.772A.8.8,0,0,1,259.818,332.636Z" transform="translate(-235.638 -290.486)" fill="#b5dcff"/>
      </g>
      <g id="Grupo_1114833" data-name="Grupo 1114833" transform="translate(32.4 0)">
        <path id="Trazado_908079" data-name="Trazado 908079" d="M36.614,12.228A4.842,4.842,0,0,0,32.4,17.023V46.39a1.965,1.965,0,0,0,1.963,1.963H72.671a1.965,1.965,0,0,0,1.963-1.963V33.57a.708.708,0,0,0-1.417,0V46.39a.547.547,0,0,1-.546.546H34.363a.547.547,0,0,1-.546-.546V18.434h39.4V30.265a.708.708,0,1,0,1.417,0V17.1a4.923,4.923,0,0,0-4.214-4.865v-5.6a.712.712,0,0,0-.207-.5L64.282.207a.715.715,0,0,0-.5-.207H43.132a2.271,2.271,0,0,0-2.269,2.269V4.254H38.882a2.271,2.271,0,0,0-2.269,2.269Zm0,4.789h-2.8a3.425,3.425,0,0,1,2.8-3.357Zm33.806-3.343a3.505,3.505,0,0,1,2.8,3.343h-2.8ZM64.49,2.418,68,5.929H65.342a.853.853,0,0,1-.852-.852Zm-22.21-.15a.853.853,0,0,1,.852-.852H63.073V5.078a2.271,2.271,0,0,0,2.269,2.269H69v9.671H66.17V10.891a.712.712,0,0,0-.207-.5l-5.929-5.93a.717.717,0,0,0-.5-.207H42.28Zm21.472,7.915H61.092a.853.853,0,0,1-.852-.852V6.672ZM38.03,6.522a.853.853,0,0,1,.852-.852H58.824V9.331A2.271,2.271,0,0,0,61.093,11.6h3.661v5.417H38.03Z" transform="translate(-32.4 0)"/>
        <path id="Trazado_908080" data-name="Trazado 908080" d="M294.3,425.126h-10.01a.708.708,0,1,0,0,1.417H294.3a.708.708,0,1,0,0-1.417Z" transform="translate(-259.86 -384.978)"/>
        <path id="Trazado_908081" data-name="Trazado 908081" d="M294.3,397.5h-10.01a.708.708,0,1,0,0,1.417H294.3a.708.708,0,0,0,0-1.417Z" transform="translate(-259.86 -359.96)"/>
        <path id="Trazado_908082" data-name="Trazado 908082" d="M294.3,369.873h-10.01a.708.708,0,1,0,0,1.417H294.3a.708.708,0,1,0,0-1.417Z" transform="translate(-259.86 -334.943)"/>
        <path id="Trazado_908083" data-name="Trazado 908083" d="M294.3,342.246h-10.01a.708.708,0,1,0,0,1.417H294.3a.708.708,0,1,0,0-1.417Z" transform="translate(-259.86 -309.925)"/>
        <path id="Trazado_908084" data-name="Trazado 908084" d="M138.783,149.617H119.3a.708.708,0,0,0,0,1.417h19.484a.708.708,0,0,0,0-1.417Z" transform="translate(-110.45 -135.487)"/>
        <path id="Trazado_908085" data-name="Trazado 908085" d="M119.3,123.408h16.4a.708.708,0,0,0,0-1.417H119.3a.708.708,0,0,0,0,1.417Z" transform="translate(-110.449 -110.47)"/>
        <path id="Trazado_908086" data-name="Trazado 908086" d="M255.874,312.545h-5.863a1.513,1.513,0,0,0-1.511,1.511v11.831a1.513,1.513,0,0,0,1.511,1.511h15.031a1.513,1.513,0,0,0,1.511-1.511V314.056a1.513,1.513,0,0,0-1.511-1.511h-5.863a.708.708,0,1,0,0,1.417h5.863a.094.094,0,0,1,.094.094v11.831a.094.094,0,0,1-.094.094H250.011a.094.094,0,0,1-.094-.094V314.056a.094.094,0,0,1,.094-.094h5.863a.708.708,0,0,0,0-1.417Z" transform="translate(-228.092 -283.029)"/>
      </g>
    </g>
  </g>
</svg>
