<svg xmlns="http://www.w3.org/2000/svg" xmlns:xlink="http://www.w3.org/1999/xlink" width="93.722" height="93.723" viewBox="0 0 93.722 93.723">
  <defs>
    <filter id="Trazado_874925" x="0" y="0" width="93.722" height="93.723" filterUnits="userSpaceOnUse">
      <feOffset dy="3" input="SourceAlpha"/>
      <feGaussianBlur stdDeviation="3" result="blur"/>
      <feFlood flood-opacity="0.161"/>
      <feComposite operator="in" in2="blur"/>
      <feComposite in="SourceGraphic"/>
    </filter>
  </defs>
  <g id="Grupo_1114839" data-name="Grupo 1114839" transform="translate(-936.051 -2482.274)">
    <g id="Grupo_1112992" data-name="Grupo 1112992" transform="translate(945.051 2488.274)">
      <g id="Grupo_1109835" data-name="Grupo 1109835" transform="translate(0 0)">
        <g id="Grupo_1107913" data-name="Grupo 1107913" transform="translate(0 0)">
          <g transform="matrix(1, 0, 0, 1, -9, -6)" filter="url(#Trazado_874925)">
            <g id="Trazado_874925-2" data-name="Trazado 874925" transform="translate(9 6)" fill="#5ab4f9" opacity="0.859">
              <path d="M 37.86101913452148 74.2225341796875 C 32.95165252685547 74.2225341796875 28.1899299621582 73.26136779785156 23.7081298828125 71.36572265625 C 19.37846374511719 69.534423828125 15.48970794677734 66.91244506835938 12.1498966217041 63.57263565063477 C 8.810074806213379 60.23281097412109 6.188107967376709 56.34405517578125 4.356808185577393 52.01438903808594 C 2.461163520812988 47.53257751464844 1.499996900558472 42.77085494995117 1.499996900558472 37.86148834228516 C 1.499996900558472 32.95167922973633 2.461163520812988 28.18995666503906 4.356808185577393 23.70814514160156 C 6.188107967376709 19.37847900390625 8.810074806213379 15.48972225189209 12.1498966217041 12.14990043640137 C 15.48970794677734 8.810089111328125 19.37846374511719 6.188111305236816 23.7081298828125 4.3568115234375 C 28.1899299621582 2.461167097091675 32.95165252685547 1.500000476837158 37.86101913452148 1.500000476837158 C 42.7703857421875 1.500000476837158 47.53210830688477 2.461167097091675 52.01390838623047 4.3568115234375 C 56.34357452392578 6.188111305236816 60.23233032226562 8.810089111328125 63.57213973999023 12.14990043640137 C 66.91196441650391 15.48972225189209 69.53392791748047 19.37847900390625 71.36522674560547 23.70814514160156 C 73.26087188720703 28.18995666503906 74.22203826904297 32.95167922973633 74.22203826904297 37.86104583740234 C 74.22203826904297 42.77085494995117 73.26087188720703 47.53257751464844 71.36522674560547 52.01438903808594 C 69.53392791748047 56.34405517578125 66.91196441650391 60.23281097412109 63.57213973999023 63.57263565063477 C 60.23233032226562 66.91244506835938 56.34357452392578 69.534423828125 52.01390838623047 71.36572265625 C 47.53210830688477 73.26136779785156 42.7703857421875 74.2225341796875 37.86101913452148 74.2225341796875 Z" stroke="none"/>
              <path d="M 37.86101913452148 3.000007629394531 C 33.15349578857422 3.000007629394531 28.5883674621582 3.921302795410156 24.29245758056641 5.738327026367188 C 20.14159393310547 7.493995666503906 16.41309356689453 10.00801849365234 13.21055603027344 13.21056747436523 C 10.00800323486328 16.41310501098633 7.493980407714844 20.14160537719727 5.738319396972656 24.29246520996094 C 3.921295166015625 28.58837890625 2.999992370605469 33.15350341796875 2.999992370605469 37.86148071289062 C 2.999992370605469 42.56901550292969 3.921295166015625 47.13414001464844 5.738319396972656 51.4300537109375 C 7.493980407714844 55.58092880249023 10.00800323486328 59.30941772460938 13.21055603027344 62.51196670532227 C 16.41309356689453 65.71451568603516 20.14159393310547 68.22854614257812 24.29245758056641 69.98420715332031 C 28.5883674621582 71.80123138427734 33.15349578857422 72.72252655029297 37.86101913452148 72.72252655029297 C 42.56854248046875 72.72252655029297 47.1336669921875 71.80123138427734 51.42958068847656 69.98420715332031 C 55.5804443359375 68.22854614257812 59.30892944335938 65.71451568603516 62.51148223876953 62.51196670532227 C 65.71401977539062 59.30941772460938 68.22804260253906 55.58092880249023 69.98370361328125 51.4300537109375 C 71.80073547363281 47.13414001464844 72.72203063964844 42.56901550292969 72.72203063964844 37.86104202270508 C 72.72203063964844 33.15350341796875 71.80073547363281 28.58837890625 69.98370361328125 24.29246520996094 C 68.22804260253906 20.14160537719727 65.71401977539062 16.41310501098633 62.51148223876953 13.21056747436523 C 59.30892944335938 10.00801849365234 55.5804443359375 7.493995666503906 51.42958068847656 5.738327026367188 C 47.1336669921875 3.921302795410156 42.56854248046875 3.000007629394531 37.86101913452148 3.000007629394531 M 37.86101913452148 7.62939453125e-06 C 58.77108001708984 7.62939453125e-06 75.72203063964844 16.95096588134766 75.72203063964844 37.86104202270508 L 75.72203063964844 37.86148071289062 C 75.72203063964844 58.77156829833984 58.77108001708984 75.72252655029297 37.86101913452148 75.72252655029297 C 16.95095825195312 75.72252655029297 -7.62939453125e-06 58.77156829833984 -7.62939453125e-06 37.86148071289062 L -7.62939453125e-06 37.86104202270508 C -7.62939453125e-06 16.95096588134766 16.95095825195312 7.62939453125e-06 37.86101913452148 7.62939453125e-06 Z" stroke="none" fill="#fff"/>
            </g>
          </g>
          <g id="Trazado_874923" data-name="Trazado 874923" transform="translate(0 0)" fill="none">
            <path d="M37.861,0A37.861,37.861,0,0,1,75.722,37.861h0A37.861,37.861,0,1,1,0,37.861H0A37.861,37.861,0,0,1,37.861,0Z" stroke="none"/>
            <path d="M 37.86101913452148 3.000007629394531 C 33.15349578857422 3.000007629394531 28.5883674621582 3.921302795410156 24.29245758056641 5.738327026367188 C 20.14159393310547 7.493995666503906 16.41309356689453 10.00801849365234 13.21055603027344 13.21056747436523 C 10.00800323486328 16.41310501098633 7.493980407714844 20.14160537719727 5.738319396972656 24.29246520996094 C 3.921295166015625 28.58837890625 2.999992370605469 33.15350341796875 2.999992370605469 37.86148071289062 C 2.999992370605469 42.56901550292969 3.921295166015625 47.13414001464844 5.738319396972656 51.4300537109375 C 7.493980407714844 55.58092880249023 10.00800323486328 59.30941772460938 13.21055603027344 62.51196670532227 C 16.41309356689453 65.71451568603516 20.14159393310547 68.22854614257812 24.29245758056641 69.98420715332031 C 28.5883674621582 71.80123138427734 33.15349578857422 72.72252655029297 37.86101913452148 72.72252655029297 C 42.56854248046875 72.72252655029297 47.1336669921875 71.80123138427734 51.42958068847656 69.98420715332031 C 55.5804443359375 68.22854614257812 59.30892944335938 65.71451568603516 62.51148223876953 62.51196670532227 C 65.71401977539062 59.30941772460938 68.22804260253906 55.58092880249023 69.98370361328125 51.4300537109375 C 71.80073547363281 47.13414001464844 72.72203063964844 42.56901550292969 72.72203063964844 37.86104202270508 C 72.72203063964844 33.15350341796875 71.80073547363281 28.58837890625 69.98370361328125 24.29246520996094 C 68.22804260253906 20.14160537719727 65.71401977539062 16.41310501098633 62.51148223876953 13.21056747436523 C 59.30892944335938 10.00801849365234 55.5804443359375 7.493995666503906 51.42958068847656 5.738327026367188 C 47.1336669921875 3.921302795410156 42.56854248046875 3.000007629394531 37.86101913452148 3.000007629394531 M 37.86101913452148 7.62939453125e-06 C 58.77108001708984 7.62939453125e-06 75.72203063964844 16.95096588134766 75.72203063964844 37.86104202270508 L 75.72203063964844 37.86148071289062 C 75.72203063964844 58.77156829833984 58.77108001708984 75.72252655029297 37.86101913452148 75.72252655029297 C 16.95095825195312 75.72252655029297 -7.62939453125e-06 58.77156829833984 -7.62939453125e-06 37.86148071289062 L -7.62939453125e-06 37.86104202270508 C -7.62939453125e-06 16.95096588134766 16.95095825195312 7.62939453125e-06 37.86101913452148 7.62939453125e-06 Z" stroke="none" fill="#fff"/>
          </g>
        </g>
      </g>
    </g>
    <g id="Grupo_1114838" data-name="Grupo 1114838" transform="translate(957.051 2473.562)">
      <path id="Trazado_908087" data-name="Trazado 908087" d="M178.29,38.412h22.1V57.354h-22.1Z" transform="translate(-160.182 -6.747)" fill="#bacdea"/>
      <path id="Trazado_908088" data-name="Trazado 908088" d="M85.038,224.915h34.727v25.256H85.038Z" transform="translate(-76.401 -174.308)" fill="#dd8e3c"/>
      <path id="Trazado_908089" data-name="Trazado 908089" d="M85.038,224.915h3.049v25.256H85.038Z" transform="translate(-76.401 -174.308)" fill="#d46f30"/>
      <path id="Trazado_908090" data-name="Trazado 908090" d="M426.962,224.915l7.893,9.471h-7.893Z" transform="translate(-383.598 -174.308)" fill="#edba48"/>
      <path id="Trazado_908091" data-name="Trazado 908091" d="M15.221,224.915l-7.893,9.471h7.893Z" transform="translate(-6.584 -174.308)" fill="#edba48"/>
      <path id="Trazado_908092" data-name="Trazado 908092" d="M113.964,236.419l5.8-8.032v-3.472H85.038v3.472l5.8,8.032Z" transform="translate(-76.401 -174.308)" fill="#d46f30"/>
      <path id="Trazado_908093" data-name="Trazado 908093" d="M85.038,224.915l6.84,9.471h21.047l6.84-9.471Z" transform="translate(-76.401 -174.308)" fill="#edba48"/>
      <g id="Grupo_1114836" data-name="Grupo 1114836" transform="translate(11.794 34.822)">
        <path id="Trazado_908094" data-name="Trazado 908094" d="M147.6,69.5h22.059V85.281H147.6Z" transform="translate(-144.407 -69.496)" fill="#d8e2f3"/>
        <path id="Trazado_908095" data-name="Trazado 908095" d="M131.664,380.336h3.157v3.157h-3.157Z" transform="translate(-130.085 -348.766)" fill="#d8e2f3"/>
        <path id="Trazado_908096" data-name="Trazado 908096" d="M116.122,100.58h22.1v12.628h-22.1Z" transform="translate(-116.122 -97.423)" fill="#d8e2f3"/>
        <path id="Trazado_908097" data-name="Trazado 908097" d="M116.122,100.58h3.157v12.628h-3.157Z" transform="translate(-116.122 -97.423)" fill="#d8e2f3"/>
      </g>
      <path id="Trazado_908098" data-name="Trazado 908098" d="M147.206,131.664h15.785v3.157H147.206Z" transform="translate(-132.255 -90.528)" fill="#ff5c50"/>
      <g id="Grupo_1114837" data-name="Grupo 1114837" transform="translate(0 30.902)">
        <path id="Trazado_908099" data-name="Trazado 908099" d="M51.842,59.59,43.95,50.119a.762.762,0,0,0-.606-.274H40.969V31.664a.762.762,0,0,0-.762-.762H35.554a.762.762,0,0,0,0,1.524h3.891V49.845H37.812V34.822a.762.762,0,0,0-.762-.762H18.87V32.427H32.232a.762.762,0,0,0,0-1.524H18.107a.762.762,0,0,0-.762.762v2.4H14.991a.762.762,0,0,0-.762.762v2.394H11.794a.762.762,0,0,0-.762.762V49.845H8.661a.762.762,0,0,0-.61.274L.159,59.59q-.5,1,.586,1.25H7.875V75.864a.762.762,0,0,0,.762.762H43.364a.762.762,0,0,0,.762-.762V70.375a.762.762,0,0,0-1.524,0V75.1H9.4V52.964l5.46,7.559a.762.762,0,0,0,.618.316h5.7a.762.762,0,1,0,0-1.524H15.867l-5.739-7.946H41.873l-5.739,7.946H24.5a.762.762,0,0,0,0,1.524H36.524a.762.762,0,0,0,.618-.316l5.46-7.559V67.054a.762.762,0,0,0,1.524,0V60.84h7.131q1.088-.253.586-1.25ZM7.874,59.316h-5.5l5.5-6.6v6.6Zm4.682-20.575H33.131v11.1H12.556Zm21.337-1.524H15.753V35.584H36.288V49.845H34.655V37.979A.762.762,0,0,0,33.893,37.217Zm10.233,22.1v-6.6l5.5,6.6Z" transform="translate(0 -30.902)"/>
        <path id="Trazado_908100" data-name="Trazado 908100" d="M128.841,373.593a.762.762,0,0,0-.762-.762h-3.157a.762.762,0,0,0-.762.762v3.157a.762.762,0,0,0,.762.762h3.157a.762.762,0,0,0,.762-.762Zm-1.524,2.395h-1.633v-1.632h1.633Z" transform="translate(-111.549 -338.103)"/>
        <path id="Trazado_908101" data-name="Trazado 908101" d="M128.8,435h-3.076a.762.762,0,1,0,0,1.524H128.8a.762.762,0,1,0,0-1.524Z" transform="translate(-112.266 -393.957)"/>
        <path id="Trazado_908102" data-name="Trazado 908102" d="M156.248,124.159H140.463a.762.762,0,0,0-.762.762v3.157a.762.762,0,0,0,.762.762h15.785a.762.762,0,0,0,.762-.762v-3.157A.762.762,0,0,0,156.248,124.159Zm-.762,3.157H141.225v-1.633h14.261Z" transform="translate(-125.512 -114.687)"/>
        <path id="Trazado_908103" data-name="Trazado 908103" d="M145.2,186.327h-4.736a.762.762,0,0,0,0,1.524H145.2a.762.762,0,0,0,0-1.524Z" transform="translate(-125.512 -170.541)"/>
        <path id="Trazado_908104" data-name="Trazado 908104" d="M226.065,186.327h-7.893a.762.762,0,0,0,0,1.524h7.893a.762.762,0,0,0,0-1.524Z" transform="translate(-195.329 -170.541)"/>
      </g>
    </g>
  </g>
</svg>
