<svg xmlns="http://www.w3.org/2000/svg" xmlns:xlink="http://www.w3.org/1999/xlink" width="267.139" height="290.852" viewBox="0 0 267.139 290.852">
  <defs>
    <clipPath id="clip-path">
      <rect id="Rectángulo_406530" data-name="Rectángulo 406530" width="78.067" height="86.726" fill="none"/>
    </clipPath>
    <clipPath id="clip-path-2">
      <rect id="Rectángulo_406529" data-name="Rectángulo 406529" width="73.188" height="81.306" fill="none"/>
    </clipPath>
    <clipPath id="clip-path-3">
      <rect id="Rectángulo_406528" data-name="Rectángulo 406528" width="244.449" height="250.609" fill="none"/>
    </clipPath>
    <clipPath id="clip-path-5">
      <rect id="Rectángulo_406523" data-name="Rectángulo 406523" width="14.359" height="19.387" fill="none"/>
    </clipPath>
    <clipPath id="clip-path-6">
      <rect id="Rectángulo_406524" data-name="Rectángulo 406524" width="31.018" height="13.386" fill="none"/>
    </clipPath>
    <clipPath id="clip-path-7">
      <rect id="Rectángulo_406525" data-name="Rectángulo 406525" width="142.119" height="90.318" fill="none"/>
    </clipPath>
    <clipPath id="clip-path-8">
      <rect id="Rectángulo_406526" data-name="Rectángulo 406526" width="47.125" height="40.811" fill="none"/>
    </clipPath>
  </defs>
  <g id="Grupo_1114494" data-name="Grupo 1114494" transform="translate(-1020.051 -2856.012)">
    <rect id="Rectángulo_405770" data-name="Rectángulo 405770" width="267.139" height="290.852" rx="8" transform="translate(1020.051 2856.012)" fill="#cdb9f8"/>
    <g id="Grupo_1114493" data-name="Grupo 1114493" transform="translate(1179.381 2871.162)">
      <g id="Grupo_1114492" data-name="Grupo 1114492" clip-path="url(#clip-path)">
        <path id="Trazado_906948" data-name="Trazado 906948" d="M73.265,86.588H20.445a6.608,6.608,0,0,1-6.608-6.608V6.871A6.609,6.609,0,0,1,20.445.262h33.5l25.93,26.726V79.98a6.608,6.608,0,0,1-6.608,6.608" transform="translate(-1.992 -0.038)" fill="#ebebeb"/>
        <path id="Trazado_906949" data-name="Trazado 906949" d="M60.689.262V20.837a6.146,6.146,0,0,0,6.146,6.147l19.784,0Z" transform="translate(-8.738 -0.038)" fill="#f5f5f5"/>
        <path id="Trazado_906950" data-name="Trazado 906950" d="M61,26.408s-.26,4.991,5.421,6.631a6.249,6.249,0,0,0,.65.146c2.583.462,19.589,3.487,19.589,3.1V30.752H66.879S61.94,30.584,61,26.408" transform="translate(-8.783 -3.802)" fill="#e0e0e0"/>
        <path id="Trazado_906951" data-name="Trazado 906951" d="M73.227,86.551c0-.031.4.009,1.141-.134a6.622,6.622,0,0,0,3-1.4,6.534,6.534,0,0,0,2.366-4.663c.034-2.131-.005-4.6,0-7.366-.019-11.069-.046-26.907-.079-46.041l.052.129L53.752.373l.153.065L34.576.445l-10.11,0H21.9A16.979,16.979,0,0,0,19.362.54a6.391,6.391,0,0,0-4.148,2.587,6.3,6.3,0,0,0-1.169,3.251c-.046,1.172-.013,2.4-.023,3.585q0,3.59,0,7.132,0,7.08,0,13.942c-.005,9.141-.009,17.957-.013,26.356Q14,63.692,14,69.666q0,2.984-.006,5.88l0,2.871a15.242,15.242,0,0,0,.122,2.781,6.448,6.448,0,0,0,2.993,4.25,6.382,6.382,0,0,0,2.438.86,24.281,24.281,0,0,0,2.6.069l9.97.015,30.087.071,8.179.041,2.127.022c.479.008.725.023.725.023s-.246.015-.725.023l-2.127.021-8.179.042-30.087.071-9.97.015a24.452,24.452,0,0,1-2.647-.066,6.726,6.726,0,0,1-2.575-.9,6.805,6.805,0,0,1-3.171-4.484,15.454,15.454,0,0,1-.135-2.853l0-2.871q0-2.9-.005-5.88Q13.6,63.7,13.594,57.393c0-8.4-.009-17.215-.013-26.356q0-6.855,0-13.942,0-3.54,0-7.132c.01-1.2-.025-2.381.024-3.617a6.74,6.74,0,0,1,1.252-3.479A6.83,6.83,0,0,1,19.29.1,17.138,17.138,0,0,1,21.9,0h2.566l10.11,0L53.905.01H54l.062.065,25.91,26.746.053.054v.075c-.033,19.134-.06,34.972-.079,46.041-.018,2.766.005,5.224-.046,7.377a6.645,6.645,0,0,1-2.46,4.739,6.562,6.562,0,0,1-3.059,1.365,4.937,4.937,0,0,1-.86.078c-.193,0-.291,0-.291,0" transform="translate(-1.954 0)" fill="#263238"/>
        <path id="Trazado_906952" data-name="Trazado 906952" d="M86.581,26.988a2.155,2.155,0,0,1-.508.045l-1.457.042-5.359.07-7.948.046-4.7,0a6.376,6.376,0,0,1-5.887-4.444,7.34,7.34,0,0,1-.289-2.522c0-1.626.009-3.2.013-4.694.018-2.977.033-5.668.047-7.948.03-2.218.054-4.034.071-5.36.017-.592.031-1.075.042-1.457a2.173,2.173,0,0,1,.045-.508A2.211,2.211,0,0,1,60.7.77c.011.382.025.865.042,1.457.017,1.325.041,3.142.071,5.36.014,2.28.03,4.971.048,7.948,0,1.5.008,3.068.013,4.694a6.96,6.96,0,0,0,.276,2.388,5.958,5.958,0,0,0,5.477,4.141l4.687.022,7.948.05,5.359.071,1.457.042a2.238,2.238,0,0,1,.508.045" transform="translate(-8.7 -0.038)" fill="#263238"/>
        <path id="Trazado_906953" data-name="Trazado 906953" d="M54.836,21.674c0,.123-6.239.223-13.933.223s-13.934-.1-13.934-.223,6.238-.223,13.934-.223,13.933.1,13.933.223" transform="translate(-3.883 -3.088)" fill="#263238"/>
        <path id="Trazado_906954" data-name="Trazado 906954" d="M68.057,33.664c0,.123-9.2.223-20.544.223s-20.545-.1-20.545-.223,9.2-.223,20.545-.223,20.544.1,20.544.223" transform="translate(-3.883 -4.815)" fill="#263238"/>
        <path id="Trazado_906955" data-name="Trazado 906955" d="M68.057,45.655c0,.123-9.2.223-20.544.223s-20.545-.1-20.545-.223,9.2-.223,20.545-.223,20.544.1,20.544.223" transform="translate(-3.883 -6.541)" fill="#263238"/>
        <path id="Trazado_906956" data-name="Trazado 906956" d="M68.057,57.645c0,.123-9.2.223-20.544.223s-20.545-.1-20.545-.223,9.2-.223,20.545-.223,20.544.1,20.544.223" transform="translate(-3.883 -8.268)" fill="#263238"/>
        <path id="Trazado_906957" data-name="Trazado 906957" d="M68.057,69.636c0,.123-9.2.223-20.544.223s-20.545-.1-20.545-.223,9.2-.223,20.545-.223,20.544.1,20.544.223" transform="translate(-3.883 -9.994)" fill="#263238"/>
        <path id="Trazado_906958" data-name="Trazado 906958" d="M68.057,81.626c0,.123-9.2.223-20.544.223s-20.545-.1-20.545-.223,9.2-.223,20.545-.223,20.544.1,20.544.223" transform="translate(-3.883 -11.72)" fill="#263238"/>
        <path id="Trazado_906959" data-name="Trazado 906959" d="M41.249,81.071H3.614A3.614,3.614,0,0,1,0,77.457V64.526a3.614,3.614,0,0,1,3.614-3.613H41.249a3.613,3.613,0,0,1,3.613,3.613v12.93a3.614,3.614,0,0,1-3.614,3.614" transform="translate(0 -8.77)" fill="#412976"/>
        <path id="Trazado_906960" data-name="Trazado 906960" d="M19.409,71.344c0,1.7-1.273,2.752-3.308,2.752H14.568v2.1H12.8V68.58h3.3c2.035,0,3.308,1.056,3.308,2.764m-1.785,0c0-.838-.544-1.328-1.621-1.328H14.568v2.644H16c1.078,0,1.621-.49,1.621-1.317" transform="translate(-1.844 -9.874)" fill="#fff"/>
        <path id="Trazado_906961" data-name="Trazado 906961" d="M21.98,68.581h3.46c2.492,0,4.2,1.5,4.2,3.808S27.932,76.2,25.44,76.2H21.98Zm3.373,6.168a2.365,2.365,0,1,0,0-4.722h-1.61v4.722Z" transform="translate(-3.165 -9.874)" fill="#fff"/>
        <path id="Trazado_906962" data-name="Trazado 906962" d="M34.24,69.994v2.013h3.525v1.414H34.24V76.2H32.477V68.58h5.756v1.414Z" transform="translate(-4.676 -9.874)" fill="#fff"/>
      </g>
    </g>
    <rect id="Rectángulo_406531" data-name="Rectángulo 406531" width="149" height="215" rx="74.5" transform="translate(1037.051 2906)" fill="#e6dcfb"/>
    <g id="Grupo_1114491" data-name="Grupo 1114491" transform="matrix(0.966, -0.259, 0.259, 0.966, 1033.262, 2897.453)">
      <g id="Grupo_1114490" data-name="Grupo 1114490" transform="translate(0 0)" clip-path="url(#clip-path-2)">
        <path id="Trazado_906932" data-name="Trazado 906932" d="M69.532,81.193H20.014a6.2,6.2,0,0,1-6.2-6.2V6.458a6.2,6.2,0,0,1,6.2-6.2h31.4l24.31,25.056V75a6.2,6.2,0,0,1-6.2,6.2" transform="translate(-2.714 -0.051)" fill="#ebebeb"/>
        <path id="Trazado_906933" data-name="Trazado 906933" d="M60.609.262v19.29a5.762,5.762,0,0,0,5.762,5.762l18.548,0Z" transform="translate(-11.905 -0.051)" fill="#f5f5f5"/>
        <path id="Trazado_906934" data-name="Trazado 906934" d="M60.924,26.373s-.244,4.678,5.082,6.216a5.866,5.866,0,0,0,.61.137c2.422.433,18.365,3.269,18.365,2.9,0-.4,0-5.183,0-5.183H66.432s-4.631-.158-5.509-4.073" transform="translate(-11.966 -5.18)" fill="#e0e0e0"/>
        <path id="Trazado_906935" data-name="Trazado 906935" d="M69.48,81.141c0-.029.371.008,1.07-.126a6.194,6.194,0,0,0,2.809-1.309,6.123,6.123,0,0,0,2.219-4.371c.031-2,0-4.317,0-6.906-.018-10.377-.043-25.225-.074-43.163l.049.121L51.222.35l.144.06L33.245.418l-9.48,0H21.36a15.8,15.8,0,0,0-2.379.088,5.992,5.992,0,0,0-3.889,2.424A5.915,5.915,0,0,0,14,5.979c-.043,1.1-.012,2.247-.022,3.361q0,3.365,0,6.686,0,6.638,0,13.07c0,8.569-.008,16.835-.012,24.709q0,5.906-.009,11.506,0,2.8,0,5.513,0,1.356,0,2.692a14.267,14.267,0,0,0,.114,2.607,6.032,6.032,0,0,0,5.091,4.792,22.929,22.929,0,0,0,2.436.064l9.347.014,28.206.067,7.669.039,1.994.02c.45.007.68.022.68.022s-.23.014-.68.022l-1.994.02-7.669.039-28.206.067-9.347.014a23.082,23.082,0,0,1-2.481-.061,6.315,6.315,0,0,1-2.415-.846,6.384,6.384,0,0,1-2.972-4.2,14.394,14.394,0,0,1-.126-2.674q0-1.336,0-2.692,0-2.714,0-5.513,0-5.6-.009-11.506c0-7.874-.008-16.14-.012-24.709q0-6.427,0-13.07,0-3.32,0-6.686c.01-1.128-.023-2.233.022-3.39a6.329,6.329,0,0,1,1.173-3.263A6.411,6.411,0,0,1,18.914.094,16.144,16.144,0,0,1,21.36,0h2.405l9.48,0L51.366.01h.085l.059.061L75.8,25.144l.05.051v.071c-.031,17.938-.056,32.786-.074,43.163-.017,2.593,0,4.9-.043,6.916a6.23,6.23,0,0,1-2.306,4.443,6.142,6.142,0,0,1-2.868,1.28,4.619,4.619,0,0,1-.806.073c-.182,0-.273,0-.273,0" transform="translate(-2.662 0)" fill="#263238"/>
        <path id="Trazado_906936" data-name="Trazado 906936" d="M84.867,25.318a2.039,2.039,0,0,1-.477.043l-1.366.039L78,25.465l-7.452.043-4.406,0a5.978,5.978,0,0,1-5.519-4.166,6.914,6.914,0,0,1-.272-2.364c0-1.525.009-3,.012-4.4.017-2.792.032-5.314.045-7.452.027-2.079.051-3.782.067-5.023.016-.556.029-1.008.039-1.366a1.985,1.985,0,0,1,.043-.477A2.136,2.136,0,0,1,60.6.739c.01.358.023.81.039,1.366.016,1.242.039,2.944.066,5.023.014,2.138.028,4.661.045,7.452,0,1.4.008,2.876.013,4.4a6.5,6.5,0,0,0,.259,2.239A5.583,5.583,0,0,0,66.154,25.1l4.394.021L78,25.169l5.024.067,1.366.039a2.039,2.039,0,0,1,.477.043" transform="translate(-11.853 -0.051)" fill="#263238"/>
        <path id="Trazado_906937" data-name="Trazado 906937" d="M53.058,21.631c0,.116-5.849.209-13.062.209s-13.064-.093-13.064-.209S32.78,21.422,40,21.422s13.062.093,13.062.209" transform="translate(-5.29 -4.208)" fill="#263238"/>
        <path id="Trazado_906938" data-name="Trazado 906938" d="M65.454,33.606c0,.116-8.624.209-19.259.209s-19.262-.093-19.262-.209,8.622-.209,19.262-.209,19.259.093,19.259.209" transform="translate(-5.29 -6.56)" fill="#263238"/>
        <path id="Trazado_906939" data-name="Trazado 906939" d="M65.454,45.581c0,.116-8.624.209-19.259.209s-19.262-.093-19.262-.209,8.622-.209,19.262-.209,19.259.093,19.259.209" transform="translate(-5.29 -8.912)" fill="#263238"/>
        <path id="Trazado_906940" data-name="Trazado 906940" d="M65.454,57.555c0,.116-8.624.209-19.259.209s-19.262-.093-19.262-.209,8.622-.209,19.262-.209,19.259.093,19.259.209" transform="translate(-5.29 -11.264)" fill="#263238"/>
        <path id="Trazado_906941" data-name="Trazado 906941" d="M65.454,69.53c0,.116-8.624.209-19.259.209s-19.262-.093-19.262-.209,8.622-.209,19.262-.209,19.259.093,19.259.209" transform="translate(-5.29 -13.616)" fill="#263238"/>
        <path id="Trazado_906942" data-name="Trazado 906942" d="M65.454,84.3c0,.116-8.624.209-19.259.209s-19.262-.093-19.262-.209,8.622-.209,19.262-.209,19.259.093,19.259.209" transform="translate(-5.29 -16.517)" fill="#263238"/>
        <path id="Trazado_906943" data-name="Trazado 906943" d="M38.667,79.731H3.393A3.392,3.392,0,0,1,0,76.339V64.225a3.392,3.392,0,0,1,3.393-3.392H38.667a3.392,3.392,0,0,1,3.392,3.392V76.338a3.392,3.392,0,0,1-3.392,3.393" transform="translate(0 -11.949)" fill="#412976"/>
        <path id="Trazado_906944" data-name="Trazado 906944" d="M6.063,68.5H9.308c2.336,0,3.938,1.408,3.938,3.57s-1.6,3.57-3.938,3.57H6.063Zm3.163,5.784a2.218,2.218,0,1,0,0-4.428H7.716v4.428Z" transform="translate(-1.191 -13.455)" fill="#fff"/>
        <path id="Trazado_906945" data-name="Trazado 906945" d="M15.988,72.042A3.7,3.7,0,0,1,19.9,68.349a3.7,3.7,0,1,1,0,7.387,3.7,3.7,0,0,1-3.908-3.693m6.142,0A2.235,2.235,0,1,0,19.9,74.328a2.178,2.178,0,0,0,2.234-2.285" transform="translate(-3.14 -13.425)" fill="#fff"/>
        <path id="Trazado_906946" data-name="Trazado 906946" d="M26.7,72.042a3.669,3.669,0,0,1,3.876-3.693,3.685,3.685,0,0,1,2.938,1.266l-1.061.979a2.3,2.3,0,0,0-1.8-.837,2.285,2.285,0,1,0,0,4.571,2.277,2.277,0,0,0,1.8-.847l1.061.98a3.669,3.669,0,0,1-2.948,1.275A3.666,3.666,0,0,1,26.7,72.042" transform="translate(-5.244 -13.425)" fill="#fff"/>
        <path id="Trazado_906947" data-name="Trazado 906947" d="M40.684,75.643l-1.724-2.479-1.694,2.479h-1.9l2.642-3.632L35.5,68.5h1.877l1.643,2.316L40.634,68.5h1.785L39.93,71.949l2.662,3.693Z" transform="translate(-6.947 -13.455)" fill="#fff"/>
      </g>
    </g>
    <g id="Grupo_1114489" data-name="Grupo 1114489" transform="translate(1031.051 2895.755)">
      <g id="Grupo_1114488" data-name="Grupo 1114488" clip-path="url(#clip-path-3)">
        <g id="Grupo_1114487" data-name="Grupo 1114487">
          <g id="Grupo_1114486" data-name="Grupo 1114486" clip-path="url(#clip-path-3)">
            <path id="Trazado_906873" data-name="Trazado 906873" d="M135.558,46.825l-.809,65.1c-.138,11.071,1.922,27.362,19.437,26.782,15.158-1.65,19.179-16,19.3-26.331.055-4.9.113-8.988.151-9.491,0,0,16.593-1.353,17.993-17.742.677-7.92.742-24.346.63-39.207a30.638,30.638,0,0,0-28.416-30.307l-1.582-.116c-17.14-.25-26.926,14.168-26.7,31.308" transform="translate(-49.085 -5.651)" fill="#ffbe9d"/>
            <path id="Trazado_906874" data-name="Trazado 906874" d="M183.946,148.446a39.735,39.735,0,0,1-20.9-7.874s4.336,12.362,20.811,12.08Z" transform="translate(-59.396 -51.208)" fill="#eb996e"/>
            <path id="Trazado_906875" data-name="Trazado 906875" d="M175.364,72.278c-.326.332-2.218-1.192-4.964-1.266-2.742-.114-4.8,1.273-5.084.92-.142-.157.2-.763,1.092-1.392a6.874,6.874,0,0,1,4.082-1.158,6.63,6.63,0,0,1,3.94,1.433c.826.689,1.095,1.315.935,1.462" transform="translate(-60.21 -25.274)" fill="#263238"/>
            <path id="Trazado_906876" data-name="Trazado 906876" d="M177.686,81.631a2.222,2.222,0,0,1-2.3,2.079,2.125,2.125,0,0,1-2.138-2.165,2.223,2.223,0,0,1,2.3-2.081,2.127,2.127,0,0,1,2.14,2.167" transform="translate(-63.111 -28.948)" fill="#263238"/>
            <path id="Trazado_906877" data-name="Trazado 906877" d="M191.96,91.9c0-.144,1.585-.3,4.148-.44.648-.019,1.267-.1,1.407-.534a3.285,3.285,0,0,0-.291-1.94q-.737-2.4-1.545-5.041c-2.134-7.172-3.629-13.049-3.339-13.133s2.255,5.662,4.388,12.834q.767,2.651,1.464,5.064a3.74,3.74,0,0,1,.149,2.551,1.617,1.617,0,0,1-1.126.863,4.393,4.393,0,0,1-1.1.072c-2.565-.05-4.151-.153-4.15-.3" transform="translate(-69.928 -25.796)" fill="#263238"/>
            <path id="Trazado_906878" data-name="Trazado 906878" d="M173.444,56.52c-.265.609-2.463.151-5.1.285-2.634.079-4.8.716-5.1.13-.135-.28.275-.841,1.17-1.385a8.3,8.3,0,0,1,3.854-1.084,8.217,8.217,0,0,1,3.915.768c.928.469,1.374.995,1.259,1.285" transform="translate(-59.459 -19.839)" fill="#263238"/>
            <path id="Trazado_906879" data-name="Trazado 906879" d="M214.552,64.483c-.288.5-2.431-.055-5.027-.135-2.6-.127-4.752.252-5.026-.266-.12-.247.308-.693,1.213-1.087a9.069,9.069,0,0,1,3.841-.634,9.363,9.363,0,0,1,3.818.94c.893.466,1.308.945,1.181,1.182" transform="translate(-74.488 -22.714)" fill="#263238"/>
            <path id="Trazado_906880" data-name="Trazado 906880" d="M130.146,83.562c-.271-.141-11.028-4.156-11.489,7.084s10.92,9.385,10.953,9.063.536-16.147.536-16.147" transform="translate(-43.22 -30.145)" fill="#ffbe9d"/>
            <path id="Trazado_906881" data-name="Trazado 906881" d="M127.988,97.36c-.048-.038-.2.129-.538.267a1.959,1.959,0,0,1-1.465-.03c-1.17-.484-2.092-2.411-2.064-4.439a6.483,6.483,0,0,1,.663-2.781,2.266,2.266,0,0,1,1.535-1.443,1,1,0,0,1,1.133.584c.138.32.057.542.116.564.031.029.249-.179.177-.647a1.247,1.247,0,0,0-.413-.723,1.479,1.479,0,0,0-1.071-.33,2.753,2.753,0,0,0-2.117,1.659,6.653,6.653,0,0,0-.807,3.105c-.021,2.268,1.052,4.435,2.658,4.971a2.1,2.1,0,0,0,1.8-.224c.359-.264.429-.513.391-.535" transform="translate(-44.856 -32.195)" fill="#eb996e"/>
            <path id="Trazado_906882" data-name="Trazado 906882" d="M184.378,112.081c.123-.284-2.079-.943-3.627-3.009a12.6,12.6,0,0,1-1.556-2.936c-.328-.816-.577-1.328-.7-1.291s-.086.588.095,1.476a8.29,8.29,0,0,0,1.446,3.288,6.719,6.719,0,0,0,2.872,2.2c.858.348,1.439.369,1.469.273" transform="translate(-64.999 -38.193)" fill="#263238"/>
            <path id="Trazado_906883" data-name="Trazado 906883" d="M205.73,25.576a2.655,2.655,0,0,0-1.247-1.551,8.169,8.169,0,0,0-4.19-.68A23.67,23.67,0,0,1,187.968,19.6a55.135,55.135,0,0,0-5.735-6.951c-4.968-5.123-9.056-8.609-13.284-10.311C163.48.137,154.333-.756,148.631.74S137.807,6.863,137.014,12.7c-3.2-2.7-8-2.681-11.894-1.115l-.1-.043c-4.337,1.546-6.8,6.129-8.082,10.553s-1.826,9.154-4.168,13.119c-.49.829-1.071,1.822-.644,2.685a1.829,1.829,0,0,0,1.915.834,5.361,5.361,0,0,0,2.019-.914L114.611,41.3a10.253,10.253,0,0,0,4.718-.315,100.584,100.584,0,0,0,3.086,11.665c1.814-.005,3.473.125,4.591,1.13,1.519,1.366,2.2,3.936,4.723,2.961,1.285-.5,2.457-3.192,2.887-4.5a63.962,63.962,0,0,0,2.77-27.076,20.555,20.555,0,0,1,6.348-4.582l-.194.175c4.58-1.591,9.761-3.156,14.107-1.006,3.371,1.668,5.353,5.166,7.873,7.957a25.732,25.732,0,0,0,18.34,8.472c.242,4.615-.145,11.138.1,15.752l3.882-7.393,0,.037c.318-.541.58-1.086.835-1.633l.087-.166v-.02a28.618,28.618,0,0,1,1.3-2.626l.044.039c2.5,2.206,6.185-1.167,4.213-3.856a6.5,6.5,0,0,0-1.394-1.4,4.562,4.562,0,0,0,4.345,1.126A3.579,3.579,0,0,0,199.8,32.5a3.043,3.043,0,0,0-1.814-2.441,10.283,10.283,0,0,0,5.846-1.289c1.154-.659,2.287-1.742,1.9-3.194" transform="translate(-40.792 0)" fill="#263238"/>
            <path id="Trazado_906884" data-name="Trazado 906884" d="M145.688,22.946a14.1,14.1,0,0,0-1.645,1.5,11.755,11.755,0,0,0-2.516,5.443,20.631,20.631,0,0,0-.419,4.166c-.007,1.51.114,3.126.23,4.831a43.339,43.339,0,0,1,.123,5.376,18.933,18.933,0,0,1-.37,2.836,5.914,5.914,0,0,1-1.157,2.751,2.473,2.473,0,0,1-2.313.777,3.681,3.681,0,0,1-2.082-1.175,8.506,8.506,0,0,1-1.58-4.169l.345.041a13.723,13.723,0,0,1-1.995,3.435A4.88,4.88,0,0,1,129.12,50.5a3.149,3.149,0,0,1-1.69-.3,2.729,2.729,0,0,1-1.149-1.132,2.809,2.809,0,0,1-.348-1.453,2.041,2.041,0,0,1,.526-1.275l.174.155a10.575,10.575,0,0,1-3.522,2.643,9.442,9.442,0,0,1-1.092.423,1.816,1.816,0,0,1-.391.1A1.982,1.982,0,0,1,122,49.5c.243-.1.606-.246,1.058-.476a10.889,10.889,0,0,0,3.4-2.681l.174.155a2.1,2.1,0,0,0-.109,2.436,2.459,2.459,0,0,0,1.038,1,2.859,2.859,0,0,0,1.532.249,4.578,4.578,0,0,0,2.961-1.65,13.526,13.526,0,0,0,1.921-3.361l.236-.526.109.568a8.219,8.219,0,0,0,1.5,3.983,3.312,3.312,0,0,0,1.863,1.052,2.088,2.088,0,0,0,1.967-.659,5.6,5.6,0,0,0,1.068-2.574,18.794,18.794,0,0,0,.367-2.778,43.874,43.874,0,0,0-.1-5.332c-.106-1.7-.216-3.327-.2-4.856a20.558,20.558,0,0,1,.472-4.221,11.6,11.6,0,0,1,2.671-5.486,6.648,6.648,0,0,1,1.755-1.4" transform="translate(-44.307 -8.359)" fill="#455a64"/>
            <path id="Trazado_906885" data-name="Trazado 906885" d="M210.514,33.624c0,.005-.041.043-.132.112l-.409.3a5.528,5.528,0,0,1-.694.446,8.742,8.742,0,0,1-1,.524,14.532,14.532,0,0,1-7.017,1.263,18.576,18.576,0,0,1-9.895-3.653,32.182,32.182,0,0,1-8.5-9.8c-1.193-1.985-2.164-4.02-3.236-5.9a21.749,21.749,0,0,0-3.663-4.991,11.194,11.194,0,0,0-4.725-2.867,8.019,8.019,0,0,0-2.491-.287,8.818,8.818,0,0,0-2.281.438,9.489,9.489,0,0,0-5.268,4.458,11.357,11.357,0,0,0-.846,2.458.544.544,0,0,1,.013-.172c.021-.135.047-.3.078-.5a8.226,8.226,0,0,1,.622-1.851,9.338,9.338,0,0,1,1.835-2.489,9.6,9.6,0,0,1,3.478-2.158,9.022,9.022,0,0,1,2.353-.477,8.3,8.3,0,0,1,2.592.276,11.466,11.466,0,0,1,4.885,2.92,21.9,21.9,0,0,1,3.744,5.059c1.085,1.893,2.057,3.923,3.239,5.89a32.194,32.194,0,0,0,8.379,9.707,18.461,18.461,0,0,0,9.7,3.669,14.766,14.766,0,0,0,6.939-1.128,23.129,23.129,0,0,0,2.294-1.245" transform="translate(-58.415 -3.085)" fill="#455a64"/>
            <path id="Trazado_906886" data-name="Trazado 906886" d="M231.646,36.7a2.562,2.562,0,0,1-.588.409,12.674,12.674,0,0,1-1.741.884,16.959,16.959,0,0,1-2.757.905,17.849,17.849,0,0,1-7.074.226,17,17,0,0,1-2.809-.727,12.706,12.706,0,0,1-1.794-.771,2.574,2.574,0,0,1-.613-.371c.032-.065.937.4,2.491.884a19.425,19.425,0,0,0,2.78.636,19.147,19.147,0,0,0,6.94-.222,19.331,19.331,0,0,0,2.733-.812c1.521-.582,2.395-1.1,2.43-1.042" transform="translate(-78.056 -13.369)" fill="#455a64"/>
            <path id="Trazado_906887" data-name="Trazado 906887" d="M214.741,73.9c-.326.332-2.218-1.192-4.964-1.266-2.742-.114-4.8,1.273-5.084.92-.142-.157.2-.763,1.092-1.392a6.878,6.878,0,0,1,4.082-1.158,6.634,6.634,0,0,1,3.94,1.434c.826.689,1.095,1.314.935,1.462" transform="translate(-74.555 -25.866)" fill="#263238"/>
            <path id="Trazado_906888" data-name="Trazado 906888" d="M213.57,82.886a2.222,2.222,0,0,1-2.3,2.079,2.125,2.125,0,0,1-2.138-2.165,2.223,2.223,0,0,1,2.3-2.081,2.127,2.127,0,0,1,2.14,2.167" transform="translate(-76.183 -29.405)" fill="#263238"/>
            <path id="Trazado_906889" data-name="Trazado 906889" d="M356.729,174.771a4.526,4.526,0,0,0-4.551-4.763c-1.734-2.277-3.684-1.449-3.684-1.449l-7.368,4.97c-1.083,1.863-8.234,8.9-8.234,8.9-1.95-1.449-1.95-4.348-4.288-7.869s-7.631-3.106-7.631-3.106,4.118,9.318,4.551,15.116-3.165,21.97-3.165,21.97l20.83,5.854s1.315-8.872,3.649-9.588c2.809-.862,4.372-5.007,4.372-5.007,3.037-6.152,9.2-15.093,10.07-19.648s-4.551-5.384-4.551-5.384" transform="translate(-116.925 -61.35)" fill="#ffbe9d"/>
            <path id="Trazado_906890" data-name="Trazado 906890" d="M112.424,162.217c13.268,8.337,26.64,11.474,40.182,6.075l20.358,5.2,20.029,133.814L75.56,308.325l5.786-31.08L95.9,165.578Z" transform="translate(-27.525 -59.093)" fill="#455a64"/>
            <path id="Trazado_906891" data-name="Trazado 906891" d="M228.778,179.952s15.833,6.575,21.876,18.092,15.756,43.845,15.756,43.845L284.3,209.032l33.2,8.488s-24.715,68.172-30.92,74.379c-6.793,6.795-25.305,13.646-34.37,8.358S241.306,274.9,241.306,274.9Z" transform="translate(-83.34 -65.554)" fill="#455a64"/>
            <path id="Trazado_906892" data-name="Trazado 906892" d="M230.4,252.779c-.092,0-.165-5.943-.165-13.273s.074-13.276.165-13.276.165,5.943.165,13.276-.074,13.273-.165,13.273" transform="translate(-83.871 -82.412)" fill="#263238"/>
            <path id="Trazado_906893" data-name="Trazado 906893" d="M237.558,191.98a19.942,19.942,0,0,1-.772,2.192c-.5,1.344-1.16,3.209-1.807,5.3s-1.153,4-1.5,5.392a19.688,19.688,0,0,1-.6,2.245,2.3,2.3,0,0,1,.062-.624c.06-.4.165-.969.311-1.674.291-1.407.764-3.339,1.413-5.437s1.35-3.958,1.906-5.284c.277-.663.514-1.195.689-1.557a2.293,2.293,0,0,1,.3-.549" transform="translate(-84.83 -69.935)" fill="#263238"/>
            <path id="Trazado_906894" data-name="Trazado 906894" d="M66.23,217.436,69.9,167.015s-27.641,2.564-36.788,22.065c-7.708,16.433-28.985,65.875-31.263,72.639-6.683,19.847,3.757,47.134,46.8,45.553l4.906-26.982Z" transform="translate(0 -60.841)" fill="#455a64"/>
            <path id="Trazado_906895" data-name="Trazado 906895" d="M55.5,347.929a3.152,3.152,0,0,1,.225-.484l.7-1.357,2.636-4.96.88-1.641a4.869,4.869,0,0,1,1.264-1.624,3.437,3.437,0,0,1,2.126-.612,9.673,9.673,0,0,1,2.291.371,23.5,23.5,0,0,1,4.625,1.749,12.26,12.26,0,0,1,2.221,1.414l.256.222a.831.831,0,0,1,.217.341,2.875,2.875,0,0,1,.14.695,10.819,10.819,0,0,1,.03,1.369c-.067,1.823-.294,3.579-.52,5.273s-.492,3.32-.751,4.867c-.521,3.095-1.041,5.871-1.487,8.2l-1.08,5.512q-.185.941-.295,1.5a4.257,4.257,0,0,1-.111.522,2.6,2.6,0,0,1,.045-.532c.046-.347.125-.856.235-1.51l.976-5.532c.416-2.334.913-5.114,1.416-8.208.25-1.547.5-3.172.73-4.861s.445-3.443.511-5.239a10.669,10.669,0,0,0-.029-1.326,2.532,2.532,0,0,0-.12-.612.486.486,0,0,0-.131-.215l-.243-.212a12.015,12.015,0,0,0-2.158-1.379,23.52,23.52,0,0,0-4.555-1.742,9.446,9.446,0,0,0-2.217-.375,3.163,3.163,0,0,0-1.959.541,4.632,4.632,0,0,0-1.2,1.528l-.9,1.629-2.728,4.91-.757,1.327a3.2,3.2,0,0,1-.284.452" transform="translate(-20.216 -122.855)" fill="#263238"/>
            <path id="Trazado_906896" data-name="Trazado 906896" d="M24.056,316.365a1.2,1.2,0,0,1,.325-.01l.928.036c.8.039,1.969.107,3.406.241a44.23,44.23,0,0,1,5.02.73,25.69,25.69,0,0,1,5.9,1.956,23.147,23.147,0,0,1,5.194,3.427,13.875,13.875,0,0,1,3.153,3.984,8.829,8.829,0,0,1,.955,3.289,5.857,5.857,0,0,1,.018.932,1.189,1.189,0,0,1-.027.323c-.036,0-.024-.449-.12-1.241a9.259,9.259,0,0,0-1.036-3.2,14.038,14.038,0,0,0-3.147-3.864,23.566,23.566,0,0,0-5.136-3.357,26.34,26.34,0,0,0-5.823-1.956,48.817,48.817,0,0,0-4.98-.8c-1.429-.162-2.59-.266-3.392-.345l-.923-.1a1.2,1.2,0,0,1-.32-.056" transform="translate(-8.763 -115.242)" fill="#263238"/>
            <path id="Trazado_906897" data-name="Trazado 906897" d="M67.337,312.367a11.96,11.96,0,0,1-.687,1.984c-.474,1.207-1.179,2.853-1.988,4.655l-2.074,4.611a14.706,14.706,0,0,1-.9,1.894,11.913,11.913,0,0,1,.687-1.984c.474-1.207,1.179-2.854,1.989-4.656l2.074-4.611a14.62,14.62,0,0,1,.9-1.893" transform="translate(-22.469 -113.79)" fill="#263238"/>
            <path id="Trazado_906898" data-name="Trazado 906898" d="M94.545,241.764c-.092,0-.165-3.2-.165-7.137s.074-7.138.165-7.138.165,3.2.165,7.138-.074,7.137-.165,7.137" transform="translate(-34.381 -82.87)" fill="#263238"/>
            <g id="Grupo_1114476" data-name="Grupo 1114476" transform="translate(25.811 216.03)" opacity="0.3">
              <g id="Grupo_1114475" data-name="Grupo 1114475">
                <g id="Grupo_1114474" data-name="Grupo 1114474" clip-path="url(#clip-path-5)">
                  <path id="Trazado_906899" data-name="Trazado 906899" d="M54.96,339.822c-7.271,2.537-12.187,9.135-14.172,16.575a2.57,2.57,0,0,0,.175,2.318,1.83,1.83,0,0,0,2.283.187,5.339,5.339,0,0,0,1.619-1.865,190.967,190.967,0,0,0,10.1-17.215" transform="translate(-40.601 -339.822)"/>
                </g>
              </g>
            </g>
            <g id="Grupo_1114479" data-name="Grupo 1114479" transform="translate(8.198 198.335)" opacity="0.3">
              <g id="Grupo_1114478" data-name="Grupo 1114478">
                <g id="Grupo_1114477" data-name="Grupo 1114477" clip-path="url(#clip-path-6)">
                  <path id="Trazado_906900" data-name="Trazado 906900" d="M35.847,315.3a29.319,29.319,0,0,0-12.517-3.283,19.009,19.009,0,0,0-5.06.445c-2.269.477-4.88,1.624-5.375,3.254,5.219-1.634,12.9-.558,18.243.61a19.6,19.6,0,0,1,12.774,9.051A18.223,18.223,0,0,0,35.847,315.3" transform="translate(-12.896 -311.986)"/>
                </g>
              </g>
            </g>
            <path id="Trazado_906901" data-name="Trazado 906901" d="M82.186,205.875a4.05,4.05,0,0,1-.253-.8c-.136-.517-.358-1.261-.658-2.168a35,35,0,0,0-7.512-12.766c-.647-.7-1.189-1.257-1.575-1.627a4.073,4.073,0,0,1-.573-.608,4.036,4.036,0,0,1,.66.513c.414.342.985.874,1.659,1.561A31.518,31.518,0,0,1,81.5,202.841c.273.922.462,1.679.559,2.208a4.036,4.036,0,0,1,.128.826" transform="translate(-26.088 -68.452)" fill="#263238"/>
            <path id="Trazado_906902" data-name="Trazado 906902" d="M86.286,340.262l-30.8-74.311c-1.406-3.391.358-6.14,3.938-6.14h6.2c2.529,0,4.252-1.393,4.414-3.568l.205-2.732c.164-2.174,1.89-3.567,4.421-3.567h29.445a10.305,10.305,0,0,1,6.818,3.016l2.39,2.316a10.3,10.3,0,0,0,6.813,3.016h37.5a10.465,10.465,0,0,1,8.957,6.14l30.533,75.829Z" transform="translate(-20.037 -91.051)" fill="#412976"/>
            <g id="Grupo_1114482" data-name="Grupo 1114482" transform="translate(34.966 158.893)" opacity="0.3">
              <g id="Grupo_1114481" data-name="Grupo 1114481">
                <g id="Grupo_1114480" data-name="Grupo 1114480" clip-path="url(#clip-path-7)">
                  <path id="Trazado_906903" data-name="Trazado 906903" d="M86.286,340.262l-30.8-74.311c-1.406-3.391.358-6.14,3.938-6.14h6.2c2.529,0,4.252-1.393,4.414-3.568l.205-2.732c.164-2.174,1.89-3.567,4.421-3.567h29.445a10.305,10.305,0,0,1,6.818,3.016l2.39,2.316a10.3,10.3,0,0,0,6.813,3.016h37.5a10.465,10.465,0,0,1,8.957,6.14l30.533,75.829Z" transform="translate(-55.003 -249.944)"/>
                </g>
              </g>
            </g>
            <path id="Trazado_906904" data-name="Trazado 906904" d="M89.453,323.187,77.837,278.274c-.765-2.957,1.172-5.924,3.868-5.924h91.052a4.152,4.152,0,0,1,3.877,3.345l16.909,67.6c.743,2.968-.444,4.749-3.143,4.714l-91.612.029a4.155,4.155,0,0,1-3.826-3.318Z" transform="translate(-28.293 -99.213)" fill="#e0e0e0"/>
            <path id="Trazado_906905" data-name="Trazado 906905" d="M103.262,345.632,98.314,274.9a4.338,4.338,0,0,1,4.327-4.641h94.341v75.369Z" transform="translate(-35.81 -98.453)" fill="#ebebeb"/>
            <path id="Trazado_906906" data-name="Trazado 906906" d="M104.443,347.25l11.224-72.915a5.224,5.224,0,0,1,5.13-4.072h95.436a5.159,5.159,0,0,1,4.818,7.187l-20.607,66.728Z" transform="translate(-38.047 -98.453)" fill="#fafafa"/>
            <path id="Trazado_906907" data-name="Trazado 906907" d="M104.213,350.113l23.146-68.29a6.852,6.852,0,0,1,6.437-4.748h98.386a4.808,4.808,0,0,1,4.394,6.379l-21.528,66.69Z" transform="translate(-37.963 -100.934)" fill="#412976"/>
            <g id="Grupo_1114485" data-name="Grupo 1114485" transform="translate(68.257 208.401)" opacity="0.3">
              <g id="Grupo_1114484" data-name="Grupo 1114484">
                <g id="Grupo_1114483" data-name="Grupo 1114483" clip-path="url(#clip-path-8)">
                  <path id="Trazado_906908" data-name="Trazado 906908" d="M152.933,357.166s-3.714.17-5.427.287a50.555,50.555,0,0,1-23.906-4.241c-2.315-1.032-4.763-2.488-5.463-4.923-.784-2.728.982-5.568,3.135-7.416s4.774-3.165,6.643-5.3,2.755-5.592.913-7.751l-.509.373c-1.332,3.372-5.037,5-8.107,6.928a28.607,28.607,0,0,0-12.014,15.7c-1.08,3.535-1.369,7.659.775,10.671,1.521,2.137,4.011,3.352,6.47,4.264,7.443,2.76,15.4,2.863,23.337,2.872,2.507,0,10.205-.1,10.205-.1,2.42-.659,3.219-1.918,4.676-3.96,1.338-1.875,1.044-5.934-.729-7.4" transform="translate(-107.37 -327.821)"/>
                </g>
              </g>
            </g>
            <path id="Trazado_906909" data-name="Trazado 906909" d="M142.113,356.233l-25.661-3.858-9.962-5.732a4.494,4.494,0,0,1-2.29-3.619c0-.028,0-.057,0-.085a4.548,4.548,0,0,1,2.82-4.343c3.16-1.332,8.168-3.1,10.3-6.844,3.069-5.376,0-6.491,0-6.491L95.89,333.827,80.721,344.151l-3.052,17.215,21.165,6.912s23.584,1.329,30.092.6,6.508-3.762,6.508-3.762c1.207-.378,3.652-2.523,3.65-4.522,3.158-2.962,3.03-4.36,3.03-4.36" transform="translate(-28.294 -118.487)" fill="#ffbe9d"/>
            <path id="Trazado_906910" data-name="Trazado 906910" d="M127.413,385.631a5.078,5.078,0,0,1,1.057.2c.671.163,1.646.378,2.854.619a60.327,60.327,0,0,0,19.152.748c1.224-.146,2.213-.285,2.894-.4a5.126,5.126,0,0,1,1.069-.12,5,5,0,0,1-1.038.286c-.674.162-1.659.348-2.884.535a52.131,52.131,0,0,1-19.258-.751c-1.207-.281-2.175-.544-2.834-.757a5.124,5.124,0,0,1-1.013-.366" transform="translate(-46.414 -140.477)" fill="#eb996e"/>
            <path id="Trazado_906911" data-name="Trazado 906911" d="M131.1,379.392a5.314,5.314,0,0,1,1.073.2c.681.165,1.672.38,2.9.616a62.306,62.306,0,0,0,9.7,1.072,65.853,65.853,0,0,0,9.753-.448c1.242-.15,2.246-.292,2.938-.4a5.293,5.293,0,0,1,1.085-.123,5.244,5.244,0,0,1-1.054.289c-.684.164-1.684.354-2.927.544a55.19,55.19,0,0,1-9.808.578,52.7,52.7,0,0,1-9.749-1.206c-1.228-.277-2.212-.538-2.882-.755a5.189,5.189,0,0,1-1.029-.369" transform="translate(-47.757 -138.204)" fill="#eb996e"/>
            <path id="Trazado_906912" data-name="Trazado 906912" d="M331.918,189.279l-45.594,9a5.814,5.814,0,0,1-6.831-4.578L267.029,130.6a5.815,5.815,0,0,1,4.578-6.831l28.916-5.711,26.939,18.649,9.034,45.742a5.815,5.815,0,0,1-4.578,6.831" transform="translate(-97.234 -43.006)" fill="#ebebeb"/>
            <path id="Trazado_906913" data-name="Trazado 906913" d="M319.779,118.057l3.508,17.761a5.409,5.409,0,0,0,6.353,4.259l17.078-3.371Z" transform="translate(-116.49 -43.006)" fill="#f5f5f5"/>
            <path id="Trazado_906914" data-name="Trazado 906914" d="M326.148,148.017s.626,4.352,5.81,4.8a5.631,5.631,0,0,0,.586.015c2.309-.041,17.5-.33,17.437-.667-.072-.365-.943-4.772-.943-4.772l-17.077,3.372s-4.293.7-5.813-2.748" transform="translate(-118.811 -53.693)" fill="#e0e0e0"/>
            <path id="Trazado_906915" data-name="Trazado 906915" d="M331.825,189.183s.082-.028.246-.072a4.959,4.959,0,0,0,.718-.235,5.771,5.771,0,0,0,3.607-6.149c-.334-1.847-.788-3.975-1.256-6.36l-7.906-39.73.057.086-26.951-18.632.121.025-16.684,3.3-8.727,1.725-2.215.437a14.859,14.859,0,0,0-2.179.514,5.652,5.652,0,0,0-3.156,2.956,5.577,5.577,0,0,0-.458,3.022c.161,1.023.4,2.072.592,3.1q.611,3.1,1.215,6.156,1.206,6.112,2.374,12.035c1.556,7.891,3.055,15.5,4.484,22.752q1.07,5.438,2.086,10.6.506,2.577,1,5.076.246,1.249.488,2.479a13.365,13.365,0,0,0,.581,2.385,5.7,5.7,0,0,0,3.323,3.172,5.637,5.637,0,0,0,2.261.329,21.684,21.684,0,0,0,2.259-.385l8.608-1.689L322.29,191l7.067-1.364,1.84-.346c.414-.076.629-.107.629-.107s-.21.053-.622.14l-1.833.379-7.055,1.425-25.96,5.181-8.6,1.71a21.575,21.575,0,0,1-2.292.394,5.9,5.9,0,0,1-2.367-.339,5.967,5.967,0,0,1-3.486-3.317,13.541,13.541,0,0,1-.6-2.435l-.492-2.479q-.495-2.5-1.006-5.074-1.02-5.151-2.1-10.593c-1.435-7.25-2.941-14.859-4.5-22.748q-1.17-5.918-2.379-12.035-.6-3.055-1.217-6.155c-.2-1.04-.427-2.055-.6-3.124a5.907,5.907,0,0,1,.484-3.2,5.983,5.983,0,0,1,3.342-3.129,15.1,15.1,0,0,1,2.231-.529l2.215-.437,8.728-1.723L300.4,117.8l.066-.013.055.038L327.448,136.5l.046.032.011.055c3.239,16.523,5.919,30.2,7.792,39.754.458,2.39.9,4.509,1.221,6.374a5.837,5.837,0,0,1-1.31,4.5,5.77,5.77,0,0,1-2.4,1.7,4.317,4.317,0,0,1-.728.215c-.166.038-.251.052-.251.052" transform="translate(-97.141 -42.91)" fill="#263238"/>
            <path id="Trazado_906916" data-name="Trazado 906916" d="M346.716,136.706a2.263,2.263,0,0,1-.432.12l-1.252.278-4.616.964-6.854,1.389-4.055.8a5.579,5.579,0,0,1-5.807-2.817,6.454,6.454,0,0,1-.678-2.118l-.791-4.054c-.5-2.577-.942-4.9-1.32-6.868-.359-1.929-.651-3.5-.862-4.636-.09-.522-.162-.941-.217-1.263a2.247,2.247,0,0,1-.054-.445,2.2,2.2,0,0,1,.119.432c.071.318.164.734.279,1.252.236,1.128.564,2.695.965,4.615.4,1.962.869,4.283,1.39,6.855.258,1.292.529,2.646.81,4.05a6.134,6.134,0,0,0,.648,2.023,5.269,5.269,0,0,0,5.465,2.655l4.049-.781,6.868-1.319,4.636-.861,1.264-.217a2.243,2.243,0,0,1,.445-.054" transform="translate(-116.489 -43.006)" fill="#263238"/>
            <path id="Trazado_906917" data-name="Trazado 906917" d="M309.564,143.252c.018.09-5.353,1.226-11.995,2.538s-12.043,2.3-12.06,2.214,5.352-1.226,12-2.538,12.041-2.3,12.059-2.213" transform="translate(-104.006 -52.182)" fill="#263238"/>
            <path id="Trazado_906918" data-name="Trazado 906918" d="M323.73,153.644c.018.09-7.908,1.731-17.7,3.665s-17.749,3.43-17.767,3.341,7.906-1.73,17.7-3.666,17.747-3.43,17.765-3.34" transform="translate(-105.009 -55.969)" fill="#263238"/>
            <path id="Trazado_906919" data-name="Trazado 906919" d="M326.482,167.581c.018.09-7.908,1.731-17.7,3.665s-17.749,3.43-17.767,3.341,7.906-1.73,17.7-3.666,17.747-3.43,17.765-3.34" transform="translate(-106.012 -61.046)" fill="#263238"/>
            <path id="Trazado_906920" data-name="Trazado 906920" d="M293.767,188.523c-.018-.09,7.908-1.731,17.7-3.665s17.749-3.43,17.767-3.341-7.906,1.73-17.7,3.666-17.747,3.43-17.765,3.34" transform="translate(-107.015 -66.123)" fill="#263238"/>
            <path id="Trazado_906921" data-name="Trazado 906921" d="M331.988,195.455c.018.09-7.908,1.731-17.7,3.665s-17.749,3.43-17.767,3.341,7.906-1.73,17.7-3.666,17.747-3.43,17.765-3.34" transform="translate(-108.018 -71.2)" fill="#263238"/>
            <path id="Trazado_906922" data-name="Trazado 906922" d="M334.74,209.392c.018.09-7.908,1.731-17.7,3.665s-17.749,3.43-17.767,3.341,7.906-1.73,17.7-3.666,17.747-3.43,17.765-3.34" transform="translate(-109.02 -76.277)" fill="#263238"/>
            <path id="Trazado_906923" data-name="Trazado 906923" d="M302.96,208.643l-33.46,6.608a2.683,2.683,0,0,1-3.152-2.112L263.952,201a2.684,2.684,0,0,1,2.112-3.153l33.46-6.608a2.683,2.683,0,0,1,3.152,2.113l2.4,12.134a2.685,2.685,0,0,1-2.113,3.153" transform="translate(-96.135 -69.648)" fill="#412976"/>
            <path id="Trazado_906924" data-name="Trazado 906924" d="M279.85,208.049l2.987-.589c2.153-.425,3.882.58,4.275,2.57s-.825,3.579-2.976,4l-2.987.59Zm3.964,4.751a2.081,2.081,0,1,0-.806-4.076l-1.389.275.805,4.076Z" transform="translate(-101.945 -75.539)" fill="#fff"/>
            <path id="Trazado_906925" data-name="Trazado 906925" d="M292.382,208.929a3.673,3.673,0,1,1,4.269,2.689,3.47,3.47,0,0,1-4.269-2.689m5.655-1.117a2.1,2.1,0,1,0-1.641,2.51,2.045,2.045,0,0,0,1.641-2.51" transform="translate(-106.485 -74.582)" fill="#fff"/>
            <path id="Trazado_906926" data-name="Trazado 906926" d="M304.849,206.468a3.691,3.691,0,0,1,5.833-3.475l-.8,1.095a2.156,2.156,0,0,0-1.805-.443,2.145,2.145,0,1,0,.832,4.208,2.138,2.138,0,0,0,1.5-1.106l1.156.708a3.685,3.685,0,0,1-6.715-.987" transform="translate(-111.026 -73.687)" fill="#fff"/>
            <path id="Trazado_906927" data-name="Trazado 906927" d="M354.4,154.729s3.367-4.263,5.961-1.879,1.845,3.61-.62,7.379c0,0,5.5-.289,3.739,5.365,0,0,5.485-.606,4.957,4.02,0,0,4.142,4.053,1.988,6.665s-9.965,7.328-11.939,6.517-1.988-3.605-1.988-3.605-2.347-1.057-2.995-2.294.465-2.97.465-2.97-1.979-2.022-2.469-2.585.268-3.187.268-3.187l3.159-3.065s-4.35,1.891-5.256,1.17-1.928-1.345-.958-2.66a44.03,44.03,0,0,1,4.421-4.257Z" transform="translate(-126.886 -55.417)" fill="#ffbe9d"/>
            <path id="Trazado_906928" data-name="Trazado 906928" d="M361.873,189.532A15,15,0,0,1,363.3,187.8a16.652,16.652,0,0,1,4.018-3.681,38.767,38.767,0,0,0,4.516-2.9,21.292,21.292,0,0,0,1.54-1.584,4.014,4.014,0,0,1-1.292,1.86,26.684,26.684,0,0,1-4.484,3.071,20.211,20.211,0,0,0-4.025,3.488,7.078,7.078,0,0,1-1.7,1.481" transform="translate(-131.824 -65.437)" fill="#eb996e"/>
            <path id="Trazado_906929" data-name="Trazado 906929" d="M357.08,182.455a42.3,42.3,0,0,1,4.514-4.875c1.3-1.275,2.42-2.514,3.382-3.273a4.068,4.068,0,0,1,1.693-1c.038.071-.593.454-1.449,1.279-.87.8-1.939,2.075-3.256,3.365a42.255,42.255,0,0,1-4.884,4.5" transform="translate(-130.077 -63.13)" fill="#eb996e"/>
            <path id="Trazado_906930" data-name="Trazado 906930" d="M358.708,169.592a19.413,19.413,0,0,1,2.531-2.442,32.817,32.817,0,0,0,2.231-2.661,5.278,5.278,0,0,1-1.864,3.036,8.833,8.833,0,0,1-2.9,2.067" transform="translate(-130.669 -59.92)" fill="#eb996e"/>
            <path id="Trazado_906931" data-name="Trazado 906931" d="M354.3,154.643a1.386,1.386,0,0,1-.056.315c-.057.235-.128.531-.217.9-.214.825-.509,1.971-.886,3.428l-.008.032-.027.024c-.636.559-1.349,1.2-2.121,1.927a18.833,18.833,0,0,0-2.348,2.509,1.313,1.313,0,0,0-.238.8,1.261,1.261,0,0,0,.424.743,8.51,8.51,0,0,0,.775.64,1.171,1.171,0,0,0,.877.174,16.837,16.837,0,0,0,4.267-1.323l1.018-.421-.785.768-3.148,3.076.048-.067a4.016,4.016,0,0,0-.162,3.2A8.931,8.931,0,0,0,354.2,173.9l.214.161-.172.2c-.687.812-1.174,2.1-.275,2.888a11.691,11.691,0,0,0,2.983,2.041l-.37.205.005-.062s0-.029,0-.017v0c.065.076-.147-.182.151.224.71-.335.205-.138.36-.193h0v0l-.005.12,0,.257a4.889,4.889,0,0,0,.048.518,4.043,4.043,0,0,0,.273,1,2.637,2.637,0,0,0,.559.837,1.563,1.563,0,0,0,.816.469,4.964,4.964,0,0,0,2.081-.41,18.492,18.492,0,0,0,2.067-.929A34.049,34.049,0,0,0,366.619,179a21.432,21.432,0,0,0,3.217-2.639,2.6,2.6,0,0,0,.835-1.655,4.025,4.025,0,0,0-.339-1.852,10.532,10.532,0,0,0-2.165-3.146l-.078-.082.006-.121a3.961,3.961,0,0,0-.186-1.808,2.684,2.684,0,0,0-1.108-1.31,5.927,5.927,0,0,0-3.394-.65l-.317.02.076-.312c.083-.344.182-.683.252-1.021a5.722,5.722,0,0,0,.079-1.011,2.81,2.81,0,0,0-.568-1.79,4.128,4.128,0,0,0-3.276-1.282h-.369l.2-.3a30.6,30.6,0,0,0,1.772-2.891,4.248,4.248,0,0,0,.451-1.432,2.348,2.348,0,0,0-.282-1.333,5.95,5.95,0,0,0-1.73-1.88,2.542,2.542,0,0,0-2.058-.21,6.89,6.89,0,0,0-2.56,1.6c-.26.236-.444.432-.572.561a1.247,1.247,0,0,1-.2.19.888.888,0,0,1,.156-.228,7.583,7.583,0,0,1,.537-.6,8.368,8.368,0,0,1,.987-.87,5.242,5.242,0,0,1,1.589-.858,2.765,2.765,0,0,1,2.253.19l.527.385.476.456a5.431,5.431,0,0,1,.865,1.119,2.657,2.657,0,0,1,.339,1.5,4.548,4.548,0,0,1-.463,1.557,30.34,30.34,0,0,1-1.763,2.952l-.172-.3a5.75,5.75,0,0,1,1.918.273,3.547,3.547,0,0,1,1.711,1.134,3.237,3.237,0,0,1,.673,2.039,6.19,6.19,0,0,1-.078,1.1c-.072.36-.172.716-.259,1.08l-.24-.292a6.335,6.335,0,0,1,3.69.695,3.163,3.163,0,0,1,1.311,1.537,4.44,4.44,0,0,1,.225,2.041l-.072-.2a10.963,10.963,0,0,1,2.288,3.3,4.514,4.514,0,0,1,.38,2.095,3.247,3.247,0,0,1-.306,1.076,4.7,4.7,0,0,1-.662.882,21.8,21.8,0,0,1-3.3,2.716,34.268,34.268,0,0,1-3.735,2.261,18.93,18.93,0,0,1-2.125.954,5.35,5.35,0,0,1-2.338.435,2.6,2.6,0,0,1-1.776-1.617,4.521,4.521,0,0,1-.308-1.127,5.275,5.275,0,0,1-.052-.573l0-.289.008-.152,0-.03v-.008c.154-.057-.349.139.362-.2.3.4.086.146.151.224v.022l0,.051-.006.074-.035.384-.336-.179A12.083,12.083,0,0,1,353.6,177.5a2.451,2.451,0,0,1-.535-.858,2.025,2.025,0,0,1-.043-1.016,3.9,3.9,0,0,1,.859-1.682l.041.364a9.281,9.281,0,0,1-2.63-2.724,3.344,3.344,0,0,1-.29-1.866,5.919,5.919,0,0,1,.463-1.741l.016-.036.032-.032,3.17-3.053.232.346a16.957,16.957,0,0,1-4.407,1.316,1.548,1.548,0,0,1-1.135-.263,8.771,8.771,0,0,1-.8-.679,1.607,1.607,0,0,1-.515-.964,1.64,1.64,0,0,1,.3-1.009,18.386,18.386,0,0,1,2.439-2.538c.788-.716,1.515-1.345,2.166-1.892l-.036.057q.636-2.179,1-3.416l.271-.877a1.186,1.186,0,0,1,.11-.289" transform="translate(-126.789 -55.346)" fill="#eb996e"/>
          </g>
        </g>
      </g>
    </g>
  </g>
</svg>
