<svg xmlns="http://www.w3.org/2000/svg" xmlns:xlink="http://www.w3.org/1999/xlink" width="491" height="197" viewBox="0 0 491 197">
  <defs>
    <clipPath id="clip-path">
      <rect id="Rectángulo_405826" data-name="Rectángulo 405826" width="491" height="197" rx="8" transform="translate(194 3062.919)" fill="#ddeffd"/>
    </clipPath>
    <linearGradient id="linear-gradient" x1="0.54" y1="1.116" x2="0.499" y2="0.479" gradientUnits="objectBoundingBox">
      <stop offset="0" stop-color="#5a7eff"/>
      <stop offset="1" stop-color="#3d36bf"/>
    </linearGradient>
    <filter id="Trazado_901079" x="-29.036" y="110.036" width="179.767" height="179.767" filterUnits="userSpaceOnUse">
      <feOffset dx="2.92" dy="2.92" input="SourceAlpha"/>
      <feGaussianBlur stdDeviation="2.92" result="blur"/>
      <feFlood flood-opacity="0.102"/>
      <feComposite operator="in" in2="blur"/>
      <feComposite in="SourceGraphic"/>
    </filter>
    <filter id="Trazado_901080" x="398.964" y="-98.964" width="179.767" height="179.767" filterUnits="userSpaceOnUse">
      <feOffset dx="2.92" dy="2.92" input="SourceAlpha"/>
      <feGaussianBlur stdDeviation="2.92" result="blur-2"/>
      <feFlood flood-opacity="0.102"/>
      <feComposite operator="in" in2="blur-2"/>
      <feComposite in="SourceGraphic"/>
    </filter>
    <clipPath id="clip-path-2">
      <rect id="Rectángulo_405821" data-name="Rectángulo 405821" width="155.372" height="375.017" fill="none"/>
    </clipPath>
    <clipPath id="clip-path-4">
      <rect id="Rectángulo_405819" data-name="Rectángulo 405819" width="6.84" height="3.725" transform="translate(83.753 29.471)" fill="none"/>
    </clipPath>
    <clipPath id="clip-path-5">
      <rect id="Rectángulo_405822" data-name="Rectángulo 405822" width="98.263" height="81.496" fill="none"/>
    </clipPath>
    <clipPath id="clip-path-6">
      <rect id="Rectángulo_405823" data-name="Rectángulo 405823" width="93.142" height="80.737" fill="none"/>
    </clipPath>
    <clipPath id="clip-path-7">
      <rect id="Rectángulo_405824" data-name="Rectángulo 405824" width="91.98" height="102.784" fill="none"/>
    </clipPath>
    <clipPath id="clip-path-8">
      <rect id="Rectángulo_405825" data-name="Rectángulo 405825" width="53.877" height="50.08" transform="translate(0 0)" fill="#edf7fe"/>
    </clipPath>
    <clipPath id="clip-path-9">
      <rect id="Rectángulo_405827" data-name="Rectángulo 405827" width="41.943" height="42.043" transform="translate(0 0)" fill="none"/>
    </clipPath>
  </defs>
  <g id="Enmascarar_grupo_1098736" data-name="Enmascarar grupo 1098736" transform="translate(-194 -3062.919)" clip-path="url(#clip-path)">
    <path id="Trazado_901081" data-name="Trazado 901081" d="M8,0H483a8,8,0,0,1,8,8V189a8,8,0,0,1-8,8H8a8,8,0,0,1-8-8V8A8,8,0,0,1,8,0Z" transform="translate(194 3062.919)" fill="#bce0fc"/>
    <g transform="matrix(1, 0, 0, 1, 194, 3062.92)" filter="url(#Trazado_901079)">
      <path id="Trazado_901079-2" data-name="Trazado 901079" d="M322.664,20.65a81.124,81.124,0,1,0,81.124,81.124A81.126,81.126,0,0,0,322.664,20.65Z" transform="translate(-264.74 95.23)" fill="url(#linear-gradient)"/>
    </g>
    <g transform="matrix(1, 0, 0, 1, 194, 3062.92)" filter="url(#Trazado_901080)">
      <path id="Trazado_901080-2" data-name="Trazado 901080" d="M322.664,20.65a81.124,81.124,0,1,0,81.124,81.124A81.126,81.126,0,0,0,322.664,20.65Z" transform="translate(163.26 -113.77)" fill="url(#linear-gradient)"/>
    </g>
    <g id="Grupo_1113086" data-name="Grupo 1113086" transform="translate(217.051 3080.372)">
      <g id="Grupo_1113085" data-name="Grupo 1113085" clip-path="url(#clip-path-2)">
        <g id="Grupo_1113084" data-name="Grupo 1113084">
          <g id="Grupo_1113083" data-name="Grupo 1113083" clip-path="url(#clip-path-2)">
            <path id="Trazado_900941" data-name="Trazado 900941" d="M110.68,81.791l-3.829,5.468s8.232,8.785,3.884,18.255-7.755,11.412-7.755,11.412,11.093,12.027.384,14.374c-8.623,1.89-44.726.175-49.409.422-5.8.306-6.856-3.926-4.388-7.651a26.978,26.978,0,0,1,4.068-5.208c-.673-15.5-.795-42.084-.472-42.683.435-.807,3.7-8.528,8.666-12.8s39.526-.568,39.526-.568Z" fill="#a0d2f4"/>
            <path id="Trazado_900942" data-name="Trazado 900942" d="M78.81,91.214s-2.508,16.511-.031,18.928,15.431.5,15.431.5l1.11-18.651s-16.036-2.441-16.51-.777" fill="#fff"/>
            <path id="Trazado_900943" data-name="Trazado 900943" d="M113.244,352.678a24.42,24.42,0,0,1-2.3-1.451,28.909,28.909,0,0,1-7.563-11.093c-1.712-4.813,4.036-23.208,4.491-23.661l-20.388,4.213s1.387,16.691.648,22.043-5.306,18.5-3.681,21.766,25.222,7.637,34.1,8.428c13.784,1.229,18.707-4.627,18.8-6.4.061-1.214-20.206-11.026-24.1-13.848" fill="#cc8770"/>
            <path id="Trazado_900944" data-name="Trazado 900944" d="M137.086,366.109A13.934,13.934,0,0,0,135.473,365h0c-.3.18-9.242,5.359-24.564,4.516-15.582-.859-27.292-9.713-27.292-9.713-.29,2.064-.346,3.836.11,4.749a1.476,1.476,0,0,0,.217.311,3.633,3.633,0,0,0,.8.649c4.982,3.149,25.38,6.856,33.526,7.583,10.737.959,16.05-2.3,18.095-4.676,1.026-1.255,1.155-1.945.718-2.31" fill="#a0d2f4"/>
            <path id="Trazado_900945" data-name="Trazado 900945" d="M132.2,363.078l-18.751-10.4a23,23,0,0,1-5.771-5.555h0c-2.058-5.239-6.62-5.811-9.02-2.839-1.595,1.975-1.828,5.119-1.777,7.208-.225.01-.45.025-.676.022a14.492,14.492,0,0,1-9.614-4.307c-1.177,4.516-2.332,9.217-2.786,12.337,0,0,12.23,9.258,27.61,10.108s24.287-4.631,24.287-4.631Z" fill="#8380ff"/>
            <path id="Trazado_900946" data-name="Trazado 900946" d="M102.065,355.812c1.2-.847,2.1-2.038,3.309-2.9A16.37,16.37,0,0,1,109.7,350.8a.654.654,0,0,0-.347-1.26c-2.895.52-6.966,2.94-7.495,6.113-.018.109.1.24.21.161" fill="#421b36"/>
            <path id="Trazado_900947" data-name="Trazado 900947" d="M108.666,358.678c1.985-1.494,3.5-3.5,6.081-4.006.844-.164.634-1.484-.2-1.479a6.308,6.308,0,0,0-4.01,1.859c-.967.88-2.061,2.131-2.105,3.492a.156.156,0,0,0,.234.134" fill="#421b36"/>
            <path id="Trazado_900948" data-name="Trazado 900948" d="M114.751,361.674a20.911,20.911,0,0,0,2.32-2.5,13.5,13.5,0,0,1,3.175-1.875c.871-.473.221-1.6-.623-1.479-2.242.327-5.547,3.065-5.484,5.505a.41.41,0,0,0,.612.351" fill="#421b36"/>
            <path id="Trazado_900949" data-name="Trazado 900949" d="M94.726,359.278a21.613,21.613,0,0,0,7.69,2.4c.646.087.806-1.049.155-1.147a65.7,65.7,0,0,1-7.635-1.747.274.274,0,0,0-.21.5" fill="#fff"/>
            <path id="Trazado_900950" data-name="Trazado 900950" d="M84.1,360.3a52.386,52.386,0,0,0,41.05,9.222c3.757-.723,7.69-1.691,10.761-4.085.591-.462-.24-1.282-.825-.825-2.738,2.135-6.322,2.989-9.661,3.668a52.746,52.746,0,0,1-10.387,1.062,50.343,50.343,0,0,1-20.17-4.134,52.14,52.14,0,0,1-10.179-5.916c-.6-.447-1.187.566-.589,1.008" fill="#421b36"/>
            <path id="Trazado_900951" data-name="Trazado 900951" d="M20.14,329.876c.228.684.7,9.71-1.985,16.483s14.183,8.825,14.183,8.825,3.057-18.456,4.539-24.042-16.737-1.266-16.737-1.266" fill="#cc8770"/>
            <path id="Trazado_900952" data-name="Trazado 900952" d="M.613,368.521a22.247,22.247,0,0,0,.489,4.1c.456,1.938,7.182,2.85,15.96,2.166s13.68-4.9,14.022-5.358.989-7.157.989-7.157Z" fill="#a0d2f4"/>
            <path id="Trazado_900953" data-name="Trazado 900953" d="M18.544,345.836c-.314.265-8.55,12.768-11.286,14.706S.19,365.33.646,369.206s16.986,2.736,23.37.912,6.27-1.026,7.3-3.306,1.026-11.514,1.026-12.768-4.446-16.074-13.794-8.208" fill="#8380ff"/>
            <path id="Trazado_900954" data-name="Trazado 900954" d="M10.207,357.395c3.072-.873,6.749-.812,9.5.986.454.3.177,1.133-.39.926-2.991-1.1-5.667-1.754-8.86-1.017a.465.465,0,0,1-.247-.9" fill="#421b36"/>
            <path id="Trazado_900955" data-name="Trazado 900955" d="M13.448,354.249c2.786-.961,6.023-.291,8.643.868.62.274.172,1.36-.466,1.106a25.429,25.429,0,0,0-8.106-1.449.269.269,0,0,1-.071-.525" fill="#421b36"/>
            <path id="Trazado_900956" data-name="Trazado 900956" d="M16.174,350.833a13.172,13.172,0,0,1,8.626.194c.78.282.433,1.543-.345,1.248a14.494,14.494,0,0,0-8.069-.673.4.4,0,0,1-.212-.769" fill="#421b36"/>
            <path id="Trazado_900957" data-name="Trazado 900957" d="M.084,369.715c1.123,1.925,3.4,2.254,5.431,2.464a59.662,59.662,0,0,0,9.775.291,31.7,31.7,0,0,0,16.568-5.38c.608-.431.025-1.444-.589-1.007a30.092,30.092,0,0,1-15.092,5.156,53.608,53.608,0,0,1-8.222-.013c-2.109-.151-5.628.018-6.863-2.1a.584.584,0,0,0-1.008.589" fill="#421b36"/>
            <path id="Trazado_900958" data-name="Trazado 900958" d="M116.427,195.291A194.519,194.519,0,0,0,109,151.537c-2.347-7.984-9.53-24.288-9.53-24.288a146.313,146.313,0,0,0-42.485-1.5s-16.2,24.024-19.445,33.819c-4.735,14.3-6.869,31.836-11.192,56.731-4.657,26.82-8.781,51.747-9.976,60.271-1.623,11.573-6.973,49.544-6.823,56.1.144,6.313,36.72,7.845,40.5,2.092,3.416-5.194,22.555-118.311,24.687-141.2l2.969.279C77.235,193.557,76,278.864,76,278.864l-1.682,53.557c2.208,4.454,41.646,3.831,42.75-.252s-.016-121.846-.646-136.878" fill="#8380ff"/>
            <path id="Trazado_900959" data-name="Trazado 900959" d="M55.139,132.2s1.194-4.162,3.178-4.819,13.389-.831,14.546,0-.016,4.573-.827,4.819c-2.882.876-16.9,0-16.9,0" fill="#421b36"/>
            <path id="Trazado_900960" data-name="Trazado 900960" d="M75.936,127.76c-.052.217-1.46,4.608-.845,4.83s12.6,1.758,12.987.835.538-4.61,0-5-11.9-1.7-12.142-.67" fill="#421b36"/>
            <path id="Trazado_900961" data-name="Trazado 900961" d="M90.69,129.122s-.384,4.2.538,4.6,7.992.754,8.146,0-.154-3.582-1-4.012-7.634-1.364-7.685-.583" fill="#421b36"/>
            <path id="Trazado_900962" data-name="Trazado 900962" d="M148.13,98.8l-5.067,10.25s-7.623,2.838-10.358-3c-1.445-3.085.657-4.746,2.077-6S148.13,98.8,148.13,98.8" fill="#cc8770"/>
            <path id="Trazado_900963" data-name="Trazado 900963" d="M101.323,65.277s-1.578,2.536-.814,9.5c.593,5.386,1.317,11.86,2.029,17.866.192,1.572.374,3.106.557,4.587.786,6.371,1.512,11.64,1.959,13.591.169.734.381,1.646.622,2.685.025.089.044.172.063.262.079.318.155.65.236.987,2,8.3,5.955,22.86,11.056,27.862,6.071,5.946,13.268,3.391,16.655-6.876.008-.027-1.209,1.028-1.2,1a14.184,14.184,0,0,0,.418-4.477c-.18-5.561-2.068-13.985-4.552-22.718v-.006c-.05-.185-.106-.362-.155-.54-.084-.3-.171-.59-.254-.882-.693-2.385-1.425-4.779-2.175-7.133-2.4-7.561-4.978-14.741-6.994-19.836-.6-1.521-1.151-2.857-1.634-3.959-.508-1.177-.941-2.094-1.274-2.7-4.7-8.558-9.714-9.306-13.255-9.736-.559-.078-.925.5-1.286.535" fill="#cc8770"/>
            <path id="Trazado_900964" data-name="Trazado 900964" d="M110.792,81.425a28.906,28.906,0,0,1-2.437,2.293c-.579.523-1.876,1.214-1.774,2.1a.433.433,0,0,0,.3.4c.963.259,1.763-1.022,2.295-1.67a23.343,23.343,0,0,0,1.884-2.909c.1-.165-.14-.361-.272-.21" fill="#421b36"/>
            <path id="Trazado_900965" data-name="Trazado 900965" d="M96.5,62.427s-4.234,20.667-6.459,21.865c-.792.426-19.118-22.856-19.118-22.856.179-.506,16.857-1.588,25.577.991" fill="#cc8770"/>
            <path id="Trazado_900966" data-name="Trazado 900966" d="M105.739,113.762s-.194,7.4,2.315,7.246,21.136-8.086,20.979-11.869-9.391-38.375-14.4-42.131-14.949-4.357-14.949-4.357l-.637,41.409Z" fill="#a0d2f4"/>
            <path id="Trazado_900967" data-name="Trazado 900967" d="M103.87,117.2c4.086-4.224,8.544-9.01,9.378-15.048.921-6.664-1.23-12.116-5.237-17.294-.563-.728-1.57.291-1.013,1.013,4.011,5.182,6.4,11.607,4.435,18.215-1.395,4.7-5.243,8.656-8.576,12.1-.641.663.371,1.676,1.013,1.012" fill="#421b36"/>
            <path id="Trazado_900968" data-name="Trazado 900968" d="M95.376,104.314c-.159,4.038,3.054,7.32,6.732,6.869,13.006-1.593,39.466-5.55,41.682-7.241,2.87-2.189,5.075-33.464,5.566-37.59.028-.229.125-3.489-3.95-3.469-9.269.044-32.8,3.918-44.177,5.585-3.271.48-3.727,3.858-3.784,4.143-.485,2.433-1.942,28.472-1.942,28.472Z" fill="#421b36"/>
            <path id="Trazado_900969" data-name="Trazado 900969" d="M120.322,82.455A3.708,3.708,0,1,0,125.59,80.7a3.94,3.94,0,0,0-5.268,1.757" fill="#fff"/>
            <path id="Trazado_900970" data-name="Trazado 900970" d="M16.441,101.028S51.2,61.478,62.757,65.539c3.2,1.123,1.719,6.916-.626,12.876-2.167,5.5,1.627,8.8-2.63,13.812C50.634,102.66,28.692,128.834,21.44,130c-10.171,1.641-21.078-10.345-5-28.976" fill="#cc8770"/>
            <path id="Trazado_900971" data-name="Trazado 900971" d="M26.025,87.324c.574,3.371,20.184,21.815,20.184,21.815s11.3-12.851,18.02-19.747,3.147-27.577,1.617-27.356c-3.084.444-10.806-.264-24.9,12.384" fill="#a0d2f4"/>
            <path id="Trazado_900972" data-name="Trazado 900972" d="M22.172,109.391c.695-.422,18.533-11.261,22.988-10.549s8.592,5.516,6.477,9.184S27.148,131.385,20.7,129.935s-10.965-12.992,1.47-20.544" fill="#cc8770"/>
            <path id="Trazado_900973" data-name="Trazado 900973" d="M43.548,72.931A99.725,99.725,0,0,1,55.589,90.78c.436.784,1.606.09,1.2-.7A85.1,85.1,0,0,0,44.078,72.4c-.323-.361-.848.17-.53.53" fill="#421b36"/>
            <path id="Trazado_900974" data-name="Trazado 900974" d="M143.712,77.47s1.032-2.53,4.928-.461,6.43,4.262,6.712,6.139-2.507,3.727-2.507,3.727,3.287,2.336-.32,4.473c0,0,1.917,3.522-2.487,3.935,0,0,.834,3.039-3.206,3.946a17.969,17.969,0,0,1-6.67.155c-2.815-.689-3.546-2.841-2.891-3.75a6.8,6.8,0,0,1,2.494-1.608s-2.825-.793-2.488-2.835a2.417,2.417,0,0,1,1.834-2.242s-3.266-1.748-1.365-4.043,9.981-.724,9.981-.724-5.941-3.569-4.015-6.712" fill="#cc8770"/>
            <path id="Trazado_900975" data-name="Trazado 900975" d="M144.987,105.159s-8.084,30.522-13.554,35.5-12.147-7.9-11.711-13.879,14.445-19.984,14.445-19.984l9.449-2.432" fill="#cc8770"/>
            <path id="Trazado_900976" data-name="Trazado 900976" d="M65.951,77.466c.239.19,20.552,14.229,20.78,14.6.3.487,2.4,2.793,1.486,3.329-.647.379-2.429.116-3.421-.071a2.892,2.892,0,0,1-1.164-.5C80.586,92.617,64.46,81.622,63.3,80.669c-1.26-1.035-1.506-1.889-.754-3s2.107-1.237,3.407-.207" fill="#421b36"/>
            <path id="Trazado_900977" data-name="Trazado 900977" d="M89.147,95.352a3.105,3.105,0,0,1-.341-.227c-.2-.139-.391-.281-.584-.424q-.6-.444-1.2-.9l-.269-.2a.5.5,0,0,0-.68.178.513.513,0,0,0,.178.681c.655.5,1.312,1,1.982,1.475a3.56,3.56,0,0,0,.411.277.5.5,0,0,0,.5-.859" fill="#421b36"/>
            <path id="Trazado_900978" data-name="Trazado 900978" d="M51.9,93.5s9.243-12.283,15.863-12.969,19.514,4.036,20.514,6.816.035,4.166-2.559,4.033-4.085-4.022-9.721-4.159c0,0,3.346,5.4-.972,7.467a3.939,3.939,0,0,1-4.372,3.759s-2.252,3.671-5.008,3.06a2.414,2.414,0,0,1-1.974-3.037s-2.38,6.208-5.882,5.882-2.657-1.4-2.657-1.4-4.652,8.59-8.545,6.814-8.4-8.863-5.108-11.233S51.9,93.5,51.9,93.5" fill="#cc8770"/>
            <path id="Trazado_900979" data-name="Trazado 900979" d="M71.078,98.665c.416-2.724.769-5.876-1.341-8.034-.449-.458-1.152.246-.7.7,1.829,1.869,1.444,4.72,1.086,7.066a.514.514,0,0,0,.347.612.5.5,0,0,0,.612-.348" fill="#421b36"/>
            <path id="Trazado_900980" data-name="Trazado 900980" d="M75.359,95.046c-.114-2.662-.4-5.734-2.871-7.312-.541-.346-1.041.515-.5.859,2.131,1.361,2.281,4.187,2.378,6.453.028.638,1.022.641,1,0" fill="#421b36"/>
            <path id="Trazado_900981" data-name="Trazado 900981" d="M87.727,88.418c-.05.023-.043.02.02-.008l-.067.024c-.045.014-.091.027-.137.037a.388.388,0,0,1-.1.019c.074-.009.082-.011.026-.006-.023,0-.047,0-.071,0a.691.691,0,0,1-.249-.011c.073.011.082.011.026,0l-.07-.014c-.035-.008-.069-.017-.1-.027a.433.433,0,0,1-.135-.047l.02.009-.032-.016c-.065-.031-.205-.084-.244-.147l.044.035-.055-.046a1.352,1.352,0,0,1-.1-.1.32.32,0,0,1-.07-.081c.04.055.045.06.013.016q-.021-.03-.039-.06a1.2,1.2,0,0,1-.062-.111c-.058-.115.015.064-.015-.031s-.048-.16-.066-.243c-.01-.056-.009-.048,0,.025,0-.024,0-.048-.007-.072,0-.042,0-.085,0-.127s0-.085.005-.127c0-.024,0-.048.007-.072-.01.072-.01.08,0,.024a2.055,2.055,0,0,1,.065-.245c.008-.023.016-.046.025-.068-.025.057-.03.069-.015.035s.037-.076.058-.113.05-.082.076-.123c.063-.1-.069.075.01-.014a1.718,1.718,0,0,1,.207-.2.5.5,0,0,0,0-.7.512.512,0,0,0-.7,0,2.14,2.14,0,0,0-.668,2.117,2.038,2.038,0,0,0,1.58,1.482,2.149,2.149,0,0,0,1.341-.158.5.5,0,0,0,.179-.681.513.513,0,0,0-.681-.178" fill="#421b36"/>
            <path id="Trazado_900982" data-name="Trazado 900982" d="M67.351,98.389a2.14,2.14,0,0,0-2.128-1.912,2.665,2.665,0,0,0-2.42,1.852,3.553,3.553,0,0,0-.081,1.886.5.5,0,1,0,.959-.265,2.064,2.064,0,0,1,.976-2.348,1.486,1.486,0,0,1,.566-.13,1.3,1.3,0,0,1,.165.007c-.088-.009.052.01.07.014a1.714,1.714,0,0,1,.2.059c.088.03-.018-.019.071.032a1.224,1.224,0,0,1,.452.371c-.043-.056.044.072.052.087s.083.157.052.085a1.423,1.423,0,0,1,.047.144c0,.02.034.2.026.118a.512.512,0,0,0,.5.5.5.5,0,0,0,.5-.5" fill="#421b36"/>
            <path id="Trazado_900983" data-name="Trazado 900983" d="M70.662,44.33,64.5,29.157c-1.38-2.954-2.864-5.956-5.251-8.178s-5.894-3.528-8.976-2.463-5.082,5.039-3.4,7.832c-4.417-1.6-9.639-2.121-13.587.426-2.132,1.376-3.777,3.923-3.171,6.386a5.994,5.994,0,0,0,3.574,3.818,17.74,17.74,0,0,0,5.283,1.1A18.949,18.949,0,0,0,26.137,49.6a9.409,9.409,0,0,0-.26,6.985,8.78,8.78,0,0,0,4.236,4.068A15.074,15.074,0,0,0,48.133,56.7a10.172,10.172,0,0,0,3.11,7.989A7.438,7.438,0,0,0,59.471,65.9a5.9,5.9,0,0,0,2.556-7.566A19.374,19.374,0,0,0,68.713,56.9a8.322,8.322,0,0,0,4.61-4.827c.684-2.188-.712-6.537-2.661-7.743" fill="#421b36"/>
            <path id="Trazado_900984" data-name="Trazado 900984" d="M84.8,10.535a25.024,25.024,0,0,1,7.463-7.342c3.044-1.76,6.878-2.433,10.122-1.076s5.564,5.046,4.719,8.46a8.129,8.129,0,0,1,9.07,5.851,8.129,8.129,0,0,1-5.373,9.361,6.1,6.1,0,0,1-6.1,8.968" fill="#421b36"/>
            <path id="Trazado_900985" data-name="Trazado 900985" d="M95.1,8.787a13.88,13.88,0,0,0-8.474,1.651l20.92,13.577c0-8.983-7.292-14.7-12.446-15.228" fill="#421b36"/>
            <path id="Trazado_900986" data-name="Trazado 900986" d="M74.927,20.121C80.752,8.543,97.21,7.377,104.64,18c2.35,3.359,3.88,8.062,4.747,14.526C111.806,50.557,94.4,53.476,94.4,53.476l-1.08,16.561L76.376,66.573,77.984,47.28s-4.176-13.053-4.371-21.7a11.516,11.516,0,0,1,1.314-5.454" fill="#cc8770"/>
            <path id="Trazado_900987" data-name="Trazado 900987" d="M102.014,23.436a1.094,1.094,0,1,1-1.281-1,1.153,1.153,0,0,1,1.281,1" fill="#421b36"/>
            <path id="Trazado_900988" data-name="Trazado 900988" d="M90.478,25.608a1.094,1.094,0,1,1-1.281-1,1.152,1.152,0,0,1,1.281,1" fill="#421b36"/>
            <path id="Trazado_900989" data-name="Trazado 900989" d="M81.47,20.856c2.111-1.81,4.58-1.957,7.19-2a.529.529,0,0,0,.118-1.037c-2.858-.908-5.8.644-7.724,2.644-.261.27.142.627.416.392" fill="#421b36"/>
            <path id="Trazado_900990" data-name="Trazado 900990" d="M87.958,51.768A14.959,14.959,0,0,0,98.738,53c.589-.146.312-.989-.26-.887a25.117,25.117,0,0,1-10.489-.426.042.042,0,0,0-.031.078" fill="#421b36"/>
            <path id="Trazado_900991" data-name="Trazado 900991" d="M75.759,49.9c-7.375-9.124-12.631-6.9-11.513-18.575a28.889,28.889,0,0,1,.762-4.863,31.407,31.407,0,0,1,2.68-6.964,22.341,22.341,0,0,1,6.055-6.444c4.205-3.164,9.719-3.612,14.911-2.756l.134.469C85.281,13.938,76.7,22.223,76.7,27.465s-.035,5.9,1.44,11.18c3.03,10.852-.967,14.415-.967,14.415Z" fill="#421b36"/>
            <g id="Grupo_1113082" data-name="Grupo 1113082" opacity="0.3">
              <g id="Grupo_1113081" data-name="Grupo 1113081">
                <g id="Grupo_1113080" data-name="Grupo 1113080" clip-path="url(#clip-path-4)">
                  <path id="Trazado_900992" data-name="Trazado 900992" d="M90.579,30.737c.171.974-1.216,2.031-3.1,2.361s-3.544-.193-3.715-1.167,1.216-2.031,3.1-2.361,3.544.193,3.715,1.167" fill="#421b36"/>
                </g>
              </g>
            </g>
            <path id="Trazado_900993" data-name="Trazado 900993" d="M70.508,34.311a3.179,3.179,0,0,0-3.111.952,5.013,5.013,0,0,0-1.241,3.119,5.893,5.893,0,0,0,2.091,5.049,4.358,4.358,0,0,0,5.271.07Z" fill="#cc8770"/>
            <path id="Trazado_900994" data-name="Trazado 900994" d="M69.179,39.828a2.9,2.9,0,0,1,1.51-.664,2.084,2.084,0,0,1,1.459.511c.471.331.9-.394.559-.771a2.388,2.388,0,0,0-2.221-.657,2.141,2.141,0,0,0-1.031.539,2.077,2.077,0,0,0-.426.96c-.028.087.092.143.15.082" fill="#421b36"/>
            <path id="Trazado_900995" data-name="Trazado 900995" d="M100.379,16.714a4.318,4.318,0,0,0-6.586,1.557C92,22.306,95.024,27.927,97.7,30.837c.419.455,1.215-.184.846-.691-1.731-2.379-3.384-4.856-3.963-7.806-.746-3.81,1.784-6.6,5.591-5.254.2.071.378-.243.2-.372" fill="#421b36"/>
            <path id="Trazado_900996" data-name="Trazado 900996" d="M97.628,35.062c-.415-.373-.9-.257-1.418-.271a5.333,5.333,0,0,1-2.161-.482c-.777-.365-2.175-1.78-2.654-.264a.944.944,0,0,0,.248.936,5.656,5.656,0,0,0,3.966,1.479c.329-.013,2.928-.583,2.019-1.4" fill="#421b36"/>
            <path id="Trazado_900997" data-name="Trazado 900997" d="M64.427,28.484c-.278-4.218-.934-9.4-5.419-11.217-2.442-.988-6.985.155-5.334,3.556.35.718,1.421.089,1.073-.628L55.893,18.1l1.027-.151a4.818,4.818,0,0,1,2.112.507,6.926,6.926,0,0,1,2.8,2.634c1.319,2.224,1.622,4.874,1.905,7.393.049.434.724.453.694,0" fill="#421b36"/>
            <path id="Trazado_900998" data-name="Trazado 900998" d="M40.445,37.242c-4.337,1.129-9.63,1.389-12.675,5.168-2.167,2.689-2.091,6.645.752,8.778.554.416,1.3-.536.746-.967-3.564-2.786-1.317-7.264,1.848-9.2,2.846-1.745,6.334-2.239,9.463-3.289a.252.252,0,0,0-.134-.486" fill="#421b36"/>
            <path id="Trazado_900999" data-name="Trazado 900999" d="M86.047,10.364c1.73-6.953,8.4-11.356,15.057-7.12.946.6,1.809-.893.876-1.5-6.68-4.331-17.195-.278-16.241,8.576.018.165.262.227.308.042" fill="#421b36"/>
            <path id="Trazado_901000" data-name="Trazado 901000" d="M85.808,9.78a7.741,7.741,0,0,1-1.319-7.718c.351-.955-1.209-1.4-1.532-.423a7.73,7.73,0,0,0,2.455,8.537.28.28,0,0,0,.4-.4" fill="#421b36"/>
            <path id="Trazado_901001" data-name="Trazado 901001" d="M116.529,127.808a71.2,71.2,0,0,1,9.088-11.434c2.822-2.942,6.328-5.968,8.048-9.727.168-.368-.269-.773-.589-.454-3.469,3.458-6.637,7.445-9.934,11.092-2.828,3.127-5.465,6.394-6.788,10.45-.033.1.118.162.175.073" fill="#421b36"/>
            <path id="Trazado_901002" data-name="Trazado 901002" d="M55.139,126.309c12.345-1.118,24.773-1.205,37.028.873,1.345.228,5.553.446,6.41,1.259.652.618,1.008,2.187,1.387,3.008.922,2,1.77,4.052,2.81,5.994.357.666,1.531.205,1.248-.526-.9-2.336-2.042-4.59-3.081-6.866a10.875,10.875,0,0,0-1.2-2.621c-1.116-1.146-4.137-1.155-5.672-1.438a100.639,100.639,0,0,0-38.966.076c-.134.028-.106.254.033.241" fill="#421b36"/>
            <path id="Trazado_901003" data-name="Trazado 901003" d="M61.028,117.141c5.258.089,10.657-1.16,15.9-1.64,5.333-.49,10.708-.449,16.031-.948a.633.633,0,0,0,0-1.265,101.72,101.72,0,0,0-16.792.942c-5,.549-10.457.945-15.153,2.79a.062.062,0,0,0,.016.121" fill="#421b36"/>
            <path id="Trazado_901004" data-name="Trazado 901004" d="M79.473,174.16a94.484,94.484,0,0,0,3.314-42.335c-.087-.533-.981-.412-.945.128a141.682,141.682,0,0,1-2.919,42.055.285.285,0,0,0,.55.152" fill="#421b36"/>
            <path id="Trazado_901005" data-name="Trazado 901005" d="M139.3,94.674a21.962,21.962,0,0,1,11.014,1.044c.6.216.864-.745.265-.959a22.977,22.977,0,0,0-11.543-1.044c-.631.1-.363,1.063.264.959" fill="#421b36"/>
            <path id="Trazado_901006" data-name="Trazado 901006" d="M138.323,89.225a27.681,27.681,0,0,1,13.882,2.323c.572.283,1.077-.575.5-.859a28.661,28.661,0,0,0-14.384-2.459c-.636.038-.641,1.034,0,.995" fill="#421b36"/>
            <path id="Trazado_901007" data-name="Trazado 901007" d="M146.029,84.178a13.661,13.661,0,0,1,7.009,2.986c.492.4,1.2-.3.7-.7a14.882,14.882,0,0,0-7.713-3.277.5.5,0,0,0-.5.5.507.507,0,0,0,.5.5" fill="#421b36"/>
            <path id="Trazado_901008" data-name="Trazado 901008" d="M137.322,85.993a3,3,0,0,0,4.964-2.139.5.5,0,1,0-.995,0,2.08,2.08,0,0,1-1.2,1.716,2.058,2.058,0,0,1-2.065-.28.511.511,0,0,0-.7,0,.5.5,0,0,0,0,.7" fill="#421b36"/>
            <path id="Trazado_901009" data-name="Trazado 901009" d="M144.324,76.728a3.121,3.121,0,0,0,5.179,1.027c.444-.461-.259-1.166-.7-.7a2.132,2.132,0,0,1-3.516-.588.514.514,0,0,0-.612-.348.5.5,0,0,0-.347.612" fill="#421b36"/>
            <path id="Trazado_901010" data-name="Trazado 901010" d="M137.327,92.059a3.95,3.95,0,0,0,4.976-3.071.511.511,0,0,0-.347-.612.5.5,0,0,0-.612.348,2.958,2.958,0,0,1-3.752,2.376.5.5,0,0,0-.265.959" fill="#421b36"/>
            <path id="Trazado_901011" data-name="Trazado 901011" d="M137.615,97.1a3.045,3.045,0,0,0,2.643-.569,3.014,3.014,0,0,0,1.1-2.34.5.5,0,1,0-.994,0c0,.09-.005.178-.011.267-.006.055.011-.055-.006.036-.009.048-.018.1-.029.143a2.3,2.3,0,0,1-.066.233c-.015.046-.032.092-.05.137.026-.064-.006.011-.018.037a2.443,2.443,0,0,1-.265.435c.054-.069-.044.048-.046.049-.026.031-.054.06-.082.089a2.385,2.385,0,0,1-.2.18c.052-.043-.017.012-.038.026s-.068.047-.1.069a2.383,2.383,0,0,1-.238.13c-.025.012-.105.045-.041.02-.047.018-.093.035-.14.05-.079.026-.159.048-.239.067l-.147.028c-.089.016.014,0-.04,0-.091.007-.181.013-.272.012a2.279,2.279,0,0,1-.248-.016c.1.012-.059-.012-.063-.013-.049-.009-.1-.021-.146-.033a.5.5,0,0,0-.263.959" fill="#421b36"/>
            <path id="Trazado_901012" data-name="Trazado 901012" d="M19.815,111.654c5.254-3.182,10.551-6.295,15.985-9.16s10.986-5.5,16.535-8.14c.578-.274.073-1.132-.5-.859-5.549,2.636-11.1,5.274-16.535,8.14s-10.731,5.978-15.985,9.16a.5.5,0,0,0,.5.859" fill="#421b36"/>
            <path id="Trazado_901013" data-name="Trazado 901013" d="M26.5,333.758c10.769-50.814,16.851-102.652,29.143-153.134,2.005-8.234,4.489-16.548,5.542-24.976.1-.781-1.263-.973-1.385-.188-2.612,16.733-8.132,33.016-11.157,49.7-4.965,27.382-9.737,54.8-14.817,82.158q-4.29,23.106-7.779,46.316c-.043.291.389.427.453.125" fill="#421b36"/>
            <path id="Trazado_901014" data-name="Trazado 901014" d="M97.7,335.521c1.415-5.688,1.387-11.806,1.606-17.633.259-6.916.313-13.841.39-20.762q.2-17.843.732-35.669c.664-23.141.961-46.272-.365-69.4-.658-11.482-1.635-23.066-4.356-34.267-.221-.907-1.584-.521-1.392.384,4.563,21.519,4.769,43.907,4.726,65.811-.044,22.512-.967,45-1.108,67.511-.047,7.445-.073,14.891-.213,22.334-.135,7.155-.885,14.5-.372,21.639.014.193.3.254.352.048" fill="#421b36"/>
          </g>
        </g>
      </g>
    </g>
    <g id="Grupo_1113088" data-name="Grupo 1113088" transform="translate(376.92 3079.923)">
      <g id="Grupo_1113087" data-name="Grupo 1113087" transform="translate(0 0)" clip-path="url(#clip-path-5)">
        <path id="Trazado_901015" data-name="Trazado 901015" d="M88.539,80.489c-4.917,3.257-78-12.012-85.986-15.8C.637,63.785.168,59.728.566,54.072l0-.006C1.458,41.326,6.725,20.5,9.752,9.317l0-.01c1.246-4.577,2.1-7.535,2.143-7.666,1.8-6.443,80,14.586,84.424,17.974.9.682,1.314,3.5,1.361,7.555a168.634,168.634,0,0,1-1.471,20.706c-1.846,15.095-5.085,30.9-7.668,32.613" transform="translate(0.071 0.069)" fill="#fff"/>
        <path id="Trazado_901016" data-name="Trazado 901016" d="M96.365,27.17C59.171,16.017,9.172,10.317,8.439,9.317l0-.009c1.244-4.578,2.1-7.536,2.143-7.667C12.377-4.8,90.58,16.228,95,19.615c.9.683,1.315,3.5,1.362,7.555" transform="translate(1.384 0.069)" fill="#8380ff"/>
        <path id="Trazado_901017" data-name="Trazado 901017" d="M18.756,6.943a2.731,2.731,0,1,1-.9-3.757,2.733,2.733,0,0,1,.9,3.757" transform="translate(2.248 0.456)" fill="#fff"/>
        <path id="Trazado_901018" data-name="Trazado 901018" d="M85.4,81.5c-8.5,0-29.066-3.81-38.732-5.7C25.743,71.712,6.3,67.066,2.406,65.222.416,64.278-.328,60.642.132,54.107l.013-.14c.913-12.72,6.11-33.334,9.158-44.6l.03-.128c1.177-4.33,2.053-7.369,2.145-7.677A1.9,1.9,0,0,1,12.863.376c9.6-3.221,79.07,15.259,83.833,18.9.634.481,1.49,1.83,1.561,7.952a167.978,167.978,0,0,1-1.476,20.774c-1.778,14.54-5.007,31.06-7.89,32.974A7.538,7.538,0,0,1,85.4,81.5M1.134,54.312C.632,61.66,1.782,63.8,2.84,64.3,11.7,68.5,84.092,82.942,88.329,80.135c2.136-1.418,5.406-15.584,7.444-32.251a167.442,167.442,0,0,0,1.469-20.638c-.068-5.717-.835-6.91-1.162-7.158-4.49-3.438-73.918-21.747-82.9-18.75-.419.14-.679.321-.731.51-.008.03-.859,2.95-2.109,7.548l-.03.123C7.27,20.758,2.03,41.5,1.148,54.172Z" transform="translate(0 0)" fill="#421b36"/>
        <path id="Trazado_901019" data-name="Trazado 901019" d="M8.421,31.733A59.576,59.576,0,0,0,4.185,55.327c-.661,3.109,80.026,18.044,82.485,14.338,1.57-2.368,5.869-37.09,5.2-36.265L65.785,50.26s-4.116-6-4.677-6.054-9.518,4.641-9.518,4.641L42.562,31.624,18.36,45.536Z" transform="translate(0.68 5.189)" fill="#a0d2f4"/>
        <path id="Trazado_901020" data-name="Trazado 901020" d="M11.143,58.494c1.209-6.853,1.768-13.857,2.454-20.779.08-.811-1.189-.806-1.268,0-.674,6.809-1.22,13.7-2.41,20.442-.141.8,1.081,1.141,1.223.338" transform="translate(1.626 6.089)" fill="#fff"/>
        <path id="Trazado_901021" data-name="Trazado 901021" d="M19.957,59.5c.644-6.064,1.6-12.1,2.491-18.133.119-.8-1.1-1.143-1.223-.338-.911,6.143-1.881,12.3-2.535,18.471-.086.811,1.183.8,1.268,0" transform="translate(3.066 6.657)" fill="#fff"/>
        <path id="Trazado_901022" data-name="Trazado 901022" d="M30.856,33.61c-1.8,9.351-2.944,18.832-4.449,28.233-.128.8,1.094,1.142,1.223.338,1.505-9.4,2.646-18.882,4.449-28.233.154-.8-1.069-1.14-1.223-.338" transform="translate(4.332 5.44)" fill="#fff"/>
        <path id="Trazado_901023" data-name="Trazado 901023" d="M44.827,44.257c-1,6.39-1.412,12.86-2.426,19.246-.127.8,1.1,1.143,1.223.338,1.013-6.387,1.426-12.857,2.426-19.246.125-.8-1.1-1.143-1.223-.338" transform="translate(6.956 7.187)" fill="#fff"/>
        <path id="Trazado_901024" data-name="Trazado 901024" d="M38.3,37.574C37.388,46.041,36,54.5,34.657,62.909c-.128.8,1.094,1.142,1.223.338,1.363-8.519,2.765-17.092,3.69-25.672.087-.81-1.182-.8-1.269,0" transform="translate(5.686 6.066)" fill="#fff"/>
        <path id="Trazado_901025" data-name="Trazado 901025" d="M53.841,42.246c-1.211,8.116-2.147,16.289-2.9,24.46-.075.813,1.194.808,1.269,0,.74-8.058,1.658-16.119,2.852-24.122.119-.8-1.1-1.143-1.223-.338" transform="translate(8.359 6.857)" fill="#fff"/>
        <path id="Trazado_901026" data-name="Trazado 901026" d="M61.2,67.274c1.186-7.618,2.072-15.28,3.3-22.892.129-.8-1.092-1.142-1.222-.336-1.233,7.611-2.118,15.273-3.3,22.891-.125.8,1.1,1.143,1.223.338" transform="translate(9.841 7.152)" fill="#fff"/>
        <path id="Trazado_901027" data-name="Trazado 901027" d="M69.365,69.651c1.5-10.7,3.532-21.326,5.027-32.031.112-.8-1.109-1.143-1.222-.336-1.5,10.7-3.532,21.326-5.028,32.03-.111.8,1.111,1.144,1.223.338" transform="translate(11.181 6.042)" fill="#fff"/>
        <path id="Trazado_901028" data-name="Trazado 901028" d="M4.065,49.142c21.6,3.8,43.212,7.483,64.817,11.231q9.1,1.579,18.2,3.178c.8.141,1.14-1.081.335-1.223C65.819,58.526,44.2,54.846,22.6,51.1q-9.1-1.58-18.2-3.179c-.8-.14-1.141,1.083-.336,1.223" transform="translate(0.592 7.861)" fill="#fff"/>
        <path id="Trazado_901029" data-name="Trazado 901029" d="M5.158,40.829c21.9,3.854,43.853,7.4,65.776,11.122q9.083,1.54,18.158,3.133c.8.141,1.141-1.081.336-1.223-21.9-3.853-43.853-7.4-65.776-11.121Q14.57,41.2,5.5,39.606c-.8-.14-1.141,1.081-.338,1.223" transform="translate(0.771 6.497)" fill="#fff"/>
        <path id="Trazado_901030" data-name="Trazado 901030" d="M66.522,42.457c4.592.843,9.131,1.942,13.731,2.755.8.141,1.141-1.081.338-1.223-4.6-.813-9.138-1.911-13.731-2.755-.8-.146-1.141,1.076-.338,1.223" transform="translate(10.841 6.764)" fill="#fff"/>
        <path id="Trazado_901031" data-name="Trazado 901031" d="M30.468,36.117q6.345,1.118,12.685,2.263c.8.144,1.141-1.078.338-1.223q-6.34-1.147-12.685-2.263c-.8-.14-1.141,1.081-.338,1.223" transform="translate(4.924 5.724)" fill="#fff"/>
        <path id="Trazado_901032" data-name="Trazado 901032" d="M79.965,29.317,53.944,42.081s-10.633-18.115-10.867-18.6C42.31,21.89,16.234,37.1,16.234,37.1s-2.812-2.854-2.433-3.8S40.229,19.219,43.229,19.241,55.876,37.8,55.876,37.8,76.052,26.343,77.761,27.249a4.844,4.844,0,0,1,2.2,2.069" transform="translate(2.259 3.157)" fill="#8380ff"/>
        <path id="Trazado_901033" data-name="Trazado 901033" d="M66.806,25.181,71.066,30.6a.952.952,0,0,0,1.551-.076c1.257-1.958,3.613-5.9,2.819-6.78-.771-.853-5.465-.4-8.011-.079a.942.942,0,0,0-.619,1.52" transform="translate(10.929 3.815)" fill="#8380ff"/>
        <path id="Trazado_901034" data-name="Trazado 901034" d="M65.991,51.1l-5.007-7.5L51.371,50.6,41.814,32.426,17.672,46.3,7.465,32.128l.822-.593,9.672,13.433L42.221,31.021l9.5,18.067,9.518-6.925,5.02,7.517,24.9-17.311.579.832Z" transform="translate(1.225 5.09)" fill="#421b36"/>
        <path id="Trazado_901035" data-name="Trazado 901035" d="M40.2,32.061a2.863,2.863,0,1,1-2.324-3.317A2.864,2.864,0,0,1,40.2,32.061" transform="translate(5.664 4.709)" fill="#8380ff"/>
        <path id="Trazado_901036" data-name="Trazado 901036" d="M55.967,42.613a2.043,2.043,0,1,1-1.658-2.367,2.043,2.043,0,0,1,1.658,2.367" transform="translate(8.519 6.599)" fill="#8380ff"/>
        <path id="Trazado_901037" data-name="Trazado 901037" d="M60.157,48.3A2.043,2.043,0,1,1,58.5,45.935,2.043,2.043,0,0,1,60.157,48.3" transform="translate(9.206 7.533)" fill="#8380ff"/>
        <path id="Trazado_901038" data-name="Trazado 901038" d="M81.8,33.793a2.043,2.043,0,1,1-1.658-2.367A2.043,2.043,0,0,1,81.8,33.793" transform="translate(12.758 5.152)" fill="#8380ff"/>
        <path id="Trazado_901039" data-name="Trazado 901039" d="M47.2,47.061a2.043,2.043,0,1,1-1.658-2.367A2.043,2.043,0,0,1,47.2,47.061" transform="translate(7.08 7.329)" fill="#8380ff"/>
        <path id="Trazado_901040" data-name="Trazado 901040" d="M19.588,42.929a2.348,2.348,0,1,1-1.906-2.719,2.348,2.348,0,0,1,1.906,2.719" transform="translate(2.45 6.592)" fill="#8380ff"/>
        <path id="Trazado_901041" data-name="Trazado 901041" d="M11.16,32.148a2.348,2.348,0,1,1-1.906-2.719,2.348,2.348,0,0,1,1.906,2.719" transform="translate(1.066 4.823)" fill="#8380ff"/>
      </g>
    </g>
    <g id="Grupo_1113090" data-name="Grupo 1113090" transform="matrix(0.921, -0.391, 0.391, 0.921, 420.716, 3183.182)">
      <g id="Grupo_1113089" data-name="Grupo 1113089" transform="translate(0 0)" clip-path="url(#clip-path-6)">
        <path id="Trazado_901042" data-name="Trazado 901042" d="M74.994,79.84C70.9,79.693,6.738,62.187.949,56.726c-2.695-2.543,8.988-34,14.414-48.49.1-.29.2-.572.313-.852C17.194,3.338,18.212.769,18.212.769c1.1-2.828,68.608,20.4,73.291,23.324,1.04.653.918,3.6.054,7.826q-.1.482-.21.989C88,48.1,76.277,79.886,74.994,79.84" transform="translate(0.189 0.183)" fill="#fff"/>
        <path id="Trazado_901043" data-name="Trazado 901043" d="M87.56,32.906,11.575,8.235c.1-.29.2-.572.314-.852C13.406,3.336,14.426.769,14.426.769c1.1-2.828,68.607,20.4,73.291,23.324,1.039.652.916,3.6.052,7.826q-.1.482-.21.987" transform="translate(3.976 0.183)" fill="#8380ff"/>
        <path id="Trazado_901044" data-name="Trazado 901044" d="M16.12,11.288s-3.711,9.215-3.326,9.969,9.54,3.817,10.29,2.891,3.25-8.735,2.926-9.289c-1.024-1.755-8.162-3.634-9.889-3.571" transform="translate(4.384 3.877)" fill="#a0d2f4"/>
        <path id="Trazado_901045" data-name="Trazado 901045" d="M25.991,14.493s-3.711,9.215-3.326,9.969,9.54,3.817,10.29,2.892,3.25-8.737,2.926-9.29c-1.024-1.755-8.162-3.634-9.889-3.571" transform="translate(7.775 4.978)" fill="#a0d2f4"/>
        <path id="Trazado_901046" data-name="Trazado 901046" d="M35.861,17.7s-3.711,9.215-3.326,9.969,9.54,3.815,10.29,2.891,3.25-8.735,2.926-9.29c-1.024-1.753-8.162-3.633-9.889-3.57" transform="translate(11.165 6.078)" fill="#a0d2f4"/>
        <path id="Trazado_901047" data-name="Trazado 901047" d="M45.731,20.9S42.02,30.117,42.4,30.871s9.54,3.815,10.29,2.891,3.25-8.735,2.926-9.29c-1.024-1.753-8.162-3.633-9.889-3.57" transform="translate(14.555 7.179)" fill="#8380ff"/>
        <path id="Trazado_901048" data-name="Trazado 901048" d="M55.6,24.107s-3.711,9.215-3.326,9.969,9.54,3.817,10.29,2.891,3.25-8.735,2.926-9.29c-1.024-1.753-8.162-3.633-9.889-3.57" transform="translate(17.945 8.28)" fill="#a0d2f4"/>
        <path id="Trazado_901049" data-name="Trazado 901049" d="M12.723,21.75S9.012,30.965,9.4,31.719s9.54,3.817,10.29,2.891,3.25-8.735,2.926-9.289c-1.024-1.755-8.162-3.634-9.889-3.571" transform="translate(3.218 7.47)" fill="#8380ff"/>
        <path id="Trazado_901050" data-name="Trazado 901050" d="M22.594,24.955s-3.711,9.215-3.326,9.969,9.54,3.817,10.29,2.892,3.25-8.737,2.926-9.29c-1.024-1.755-8.162-3.634-9.889-3.571" transform="translate(6.608 8.571)" fill="#a0d2f4"/>
        <path id="Trazado_901051" data-name="Trazado 901051" d="M32.464,28.16s-3.711,9.215-3.326,9.969,9.54,3.817,10.29,2.892,3.25-8.737,2.926-9.29c-1.024-1.755-8.162-3.634-9.889-3.571" transform="translate(9.998 9.672)" fill="#a0d2f4"/>
        <path id="Trazado_901052" data-name="Trazado 901052" d="M42.334,31.365s-3.711,9.215-3.326,9.969,9.54,3.815,10.29,2.891,3.25-8.735,2.926-9.29c-1.024-1.753-8.162-3.633-9.889-3.57" transform="translate(13.388 10.773)" fill="#a0d2f4"/>
        <path id="Trazado_901053" data-name="Trazado 901053" d="M52.2,34.569s-3.712,9.215-3.328,9.969,9.541,3.817,10.29,2.891,3.25-8.735,2.927-9.29c-1.025-1.753-8.163-3.633-9.889-3.57" transform="translate(16.778 11.873)" fill="#8380ff"/>
        <path id="Trazado_901054" data-name="Trazado 901054" d="M9.326,32.213S5.615,41.428,6,42.182s9.54,3.817,10.29,2.891,3.25-8.735,2.926-9.289c-1.024-1.755-8.162-3.634-9.889-3.571" transform="translate(2.051 11.064)" fill="#a0d2f4"/>
        <path id="Trazado_901055" data-name="Trazado 901055" d="M19.2,35.417s-3.711,9.215-3.326,9.969,9.54,3.817,10.29,2.891,3.25-8.735,2.926-9.289c-1.024-1.755-8.162-3.634-9.889-3.571" transform="translate(5.441 12.164)" fill="#a0d2f4"/>
        <path id="Trazado_901056" data-name="Trazado 901056" d="M29.067,38.622s-3.711,9.215-3.326,9.969,9.54,3.817,10.29,2.892,3.25-8.737,2.926-9.29c-1.024-1.755-8.162-3.634-9.889-3.571" transform="translate(8.831 13.265)" fill="#8380ff"/>
        <path id="Trazado_901057" data-name="Trazado 901057" d="M38.937,41.827S35.226,51.042,35.61,51.8s9.54,3.817,10.29,2.892,3.25-8.737,2.926-9.29c-1.024-1.755-8.162-3.634-9.889-3.571" transform="translate(12.221 14.366)" fill="#a0d2f4"/>
        <path id="Trazado_901058" data-name="Trazado 901058" d="M48.808,45.032S45.1,54.247,45.48,55s9.541,3.815,10.29,2.891,3.25-8.735,2.927-9.29c-1.024-1.753-8.162-3.633-9.889-3.57" transform="translate(15.611 15.467)" fill="#a0d2f4"/>
        <path id="Trazado_901059" data-name="Trazado 901059" d="M20.822,6.389A2.737,2.737,0,1,1,19.063,2.94a2.739,2.739,0,0,1,1.759,3.449" transform="translate(5.317 0.964)" fill="#a0d2f4"/>
        <path id="Trazado_901060" data-name="Trazado 901060" d="M26.516,8.237a2.737,2.737,0,1,1-1.759-3.449,2.739,2.739,0,0,1,1.759,3.449" transform="translate(7.273 1.599)" fill="#a0d2f4"/>
        <path id="Trazado_901061" data-name="Trazado 901061" d="M75.183,79.311a35.834,35.834,0,0,1-5.7-1.209c-3.975-.966-7.932-2.011-11.88-3.078-10.385-2.805-20.728-5.782-30.991-9.005-4.643-1.458-9.273-2.964-13.851-4.613A70.877,70.877,0,0,1,3.41,57.544c-.591-.316-1.658-.846-1.845-1.267-.443-1,.009-2.743.2-3.79A117.2,117.2,0,0,1,6.1,36.992c3.922-11.972,8.616-23.644,12.853-35.5.189-.532.085-.106.013-.121-.128-.028-.153.007-.026.063a3.968,3.968,0,0,1,.717.005,20.14,20.14,0,0,1,2.952.493c3.441.739,6.833,1.713,10.208,2.7,9.723,2.837,19.35,6.012,28.937,9.274,8.311,2.829,16.627,5.692,24.8,8.9,1.106.435,2.213.872,3.3,1.354,1.017.45,1.708.623,1.842,1.874.355,3.318-.807,6.93-1.624,10.13-.729,2.863-1.548,5.7-2.4,8.527-1.89,6.232-3.97,12.408-6.176,18.534-1.685,4.681-3.376,9.4-5.448,13.928-.255.559-.513,1.12-.814,1.656a2.44,2.44,0,0,0-.308.513c-.036.171-.239.039.263-.011-.9.089-.911,1.511,0,1.421s1.338-1.3,1.679-2c.836-1.7,1.55-3.474,2.258-5.235,2.293-5.708,4.364-11.509,6.338-17.333,2.131-6.285,4.165-12.618,5.833-19.042a44.023,44.023,0,0,0,1.849-10.1c.03-1.639-.246-2.976-1.757-3.719C89,22.133,86.456,21.237,83.975,20.3c-4.19-1.583-8.407-3.093-12.633-4.579-10.2-3.587-20.466-7.03-30.8-10.24-4.3-1.333-8.6-2.633-12.948-3.789A41.9,41.9,0,0,0,19.653.02a2.139,2.139,0,0,0-1.73.386,5.529,5.529,0,0,0-.742,1.724c-.732,1.885-1.46,3.772-2.16,5.669-2.179,5.9-4.388,11.786-6.492,17.714C6.308,31.774,4.136,38.066,2.291,44.451,1.6,46.838.94,49.247.472,51.69A12.3,12.3,0,0,0,.113,56.3c.415,2,3.5,2.968,5.127,3.678,3.794,1.659,7.713,3.032,11.632,4.362,10.581,3.591,21.314,6.747,32.07,9.768,7.99,2.244,16.018,4.591,24.149,6.277a13.491,13.491,0,0,0,2.093.343c.915.042.912-1.38,0-1.421" transform="translate(0 0)" fill="#421b36"/>
      </g>
    </g>
    <g id="Grupo_1113092" data-name="Grupo 1113092" transform="translate(512.756 3080.372)">
      <g id="Grupo_1113091" data-name="Grupo 1113091" transform="translate(0 0)" clip-path="url(#clip-path-7)">
        <path id="Trazado_901062" data-name="Trazado 901062" d="M0,21.68s20.164,82.528,25.431,81.086S89.846,88.734,91.853,84.579,71.309.361,67.122,0-.618,19.161,0,21.68" transform="translate(0 0)" fill="#8380ff"/>
        <path id="Trazado_901063" data-name="Trazado 901063" d="M3.535,21.833s18.6,75.726,23.219,74.461S83.273,84.128,85,80.346,66.042,3.07,62.355,2.7,2.962,19.523,3.535,21.833" transform="translate(1.505 1.149)" fill="#fff"/>
        <path id="Trazado_901064" data-name="Trazado 901064" d="M3.052,22.245Q5.525,32.309,8.177,42.329C11.393,54.589,14.7,66.844,18.5,78.936a141.423,141.423,0,0,0,4.764,13.447c.618,1.438,1.8,5.1,3.894,4.827,1.229-.161,2.489-.6,3.7-.879q3.524-.807,7.049-1.6c6.446-1.465,12.888-2.95,19.311-4.514,6.309-1.536,12.62-3.112,18.836-4.994,2.174-.658,4.352-1.341,6.453-2.205,1.038-.426,2.563-.926,3.222-1.918a3.642,3.642,0,0,0,.248-2.332c-.147-1.566-.439-3.124-.74-4.665-.977-5.018-2.214-9.987-3.48-14.939-3.243-12.674-6.829-25.279-10.839-37.732-1.5-4.655-3.027-9.322-4.881-13.85-.586-1.432-1.623-5.255-3.591-5.391a12.522,12.522,0,0,0-3.4.589c-2.084.479-4.152,1.034-6.213,1.6-6,1.645-11.968,3.439-17.912,5.29-6.163,1.92-12.308,3.907-18.4,6.04a82.5,82.5,0,0,0-11.89,4.7c-.7.378-1.73.887-1.575,1.837.151.916,1.545.528,1.395-.385.09.551-.2.458.391.091a14.164,14.164,0,0,1,1.5-.782c1.717-.806,3.5-1.483,5.273-2.152,5.434-2.047,10.951-3.878,16.475-5.665C38.585,9.958,49.2,6.427,59.981,4.049c.589-.13,1.181-.261,1.779-.348.171-.026.251-.016.474-.056s.294.011.231-.007c-.234-.07.1.16.247.361a10.336,10.336,0,0,1,.78,1.386,87.936,87.936,0,0,1,4.239,11c3.989,11.73,7.427,23.661,10.649,35.622,1.486,5.516,2.92,11.048,4.2,16.615A69.654,69.654,0,0,1,84.559,79.1c.02.28.021,1.041.024,1.013-.034.285,0,.2-.275.391a16.586,16.586,0,0,1-4,1.817C75.067,84.2,69.631,85.59,64.24,86.974c-11.411,2.93-22.912,5.466-34.39,8.106-.687.158-1.376.317-2.062.482-.224.054-.456.1-.677.167-.138.044-.488.108-.282.077.188-.029.094.114-.021-.056.084.124-.2-.2-.264-.275a8.163,8.163,0,0,1-.747-1.151A61.5,61.5,0,0,1,21.607,83.8c-3.851-11.415-7.02-23.068-10.137-34.7Q8.006,36.186,4.779,23.2q-.167-.672-.332-1.344c-.223-.9-1.617-.521-1.395.385" transform="translate(1.291 0.931)" fill="#421b36"/>
        <path id="Trazado_901065" data-name="Trazado 901065" d="M15.563,18.395a3.2,3.2,0,0,1-3.306-1.048c-1.257-1.552-2.563-3.9-.391-5.169C15.3,10.162,45.2-.019,46.035,1.9s1.993,7.281.93,7.879c-.91.511-24.527,6.792-31.4,8.615" transform="translate(4.563 0.709)" fill="#421b36"/>
        <path id="Trazado_901066" data-name="Trazado 901066" d="M15.705,25.555l35.545-9.732a1.449,1.449,0,0,0-.769-2.791Q32.709,17.9,14.937,22.767a1.447,1.447,0,0,0,.769,2.788" transform="translate(5.932 5.532)" fill="#8380ff"/>
        <path id="Trazado_901067" data-name="Trazado 901067" d="M12.714,33.658,60.537,20.563a.724.724,0,0,0-.385-1.395L12.33,32.263a.724.724,0,0,0,.384,1.395" transform="translate(5.038 8.16)" fill="#421b36"/>
        <path id="Trazado_901068" data-name="Trazado 901068" d="M14.19,36.022l14.132-3.87a.724.724,0,0,0-.384-1.395L13.8,34.627a.724.724,0,0,0,.385,1.395" transform="translate(5.667 13.1)" fill="#421b36"/>
        <path id="Trazado_901069" data-name="Trazado 901069" d="M27.823,33.569l29.121-7.975A.724.724,0,0,0,56.56,24.2L27.438,32.174a.724.724,0,0,0,.385,1.395" transform="translate(11.479 10.305)" fill="#421b36"/>
        <path id="Trazado_901070" data-name="Trazado 901070" d="M18.724,51.591l14.132-3.87a.724.724,0,0,0-.384-1.395L18.339,50.2a.724.724,0,0,0,.385,1.395" transform="translate(7.6 19.738)" fill="#421b36"/>
        <path id="Trazado_901071" data-name="Trazado 901071" d="M32.357,49.138l29.121-7.975a.724.724,0,0,0-.384-1.395L31.972,47.743a.724.724,0,0,0,.385,1.395" transform="translate(13.412 16.942)" fill="#421b36"/>
        <path id="Trazado_901072" data-name="Trazado 901072" d="M15.715,43.779,63.66,30.65a.723.723,0,0,0-.384-1.394L15.33,42.385a.724.724,0,0,0,.385,1.395" transform="translate(6.318 12.461)" fill="#421b36"/>
        <path id="Trazado_901073" data-name="Trazado 901073" d="M17.332,49.343c15.871-4.35,31.627-9.106,47.5-13.456a.724.724,0,0,0-.385-1.395c-15.871,4.352-31.627,9.106-47.5,13.456a.724.724,0,0,0,.385,1.395" transform="translate(7.007 14.693)" fill="#421b36"/>
        <path id="Trazado_901074" data-name="Trazado 901074" d="M20.561,59.762c15.871-4.35,31.627-9.1,47.5-13.456a.723.723,0,0,0-.384-1.394c-15.871,4.35-31.629,9.1-47.5,13.454a.724.724,0,0,0,.385,1.395" transform="translate(8.383 19.135)" fill="#421b36"/>
        <path id="Trazado_901075" data-name="Trazado 901075" d="M46.834,57.44l4.76,2.159a1.506,1.506,0,0,0,1.978-.519L59.2,51.515a1.456,1.456,0,0,0-.519-1.978,1.479,1.479,0,0,0-1.978.519L51.074,57.62l1.98-.519-4.76-2.158a1.491,1.491,0,0,0-1.98.519,1.458,1.458,0,0,0,.519,1.978" transform="translate(19.665 21.034)" fill="#8380ff"/>
        <path id="Trazado_901076" data-name="Trazado 901076" d="M25.648,63.286c1.917.64,4.155.752,5.787-.635a3.451,3.451,0,0,0,.645-4.7,2.729,2.729,0,0,0-4.128-.151c-1.188,1.419-.556,3.446.69,4.584,2.749,2.512,7.765,2.379,9.349-1.374.69-1.632.4-3.918-1.355-4.758a2.5,2.5,0,0,0-3.557,2.325c-.029,2.121,1.94,3.852,3.837,4.4a5.741,5.741,0,0,0,5.8-1.723c.623-.689-.4-1.714-1.023-1.023a4.283,4.283,0,0,1-6.246.257c-.656-.662-1.53-2.312-.339-2.958.645-.349,1.336.218,1.6.78a2.554,2.554,0,0,1,.13,1.657c-.589,2.458-3.38,3.151-5.508,2.376-1.05-.382-2.341-1.214-2.532-2.409-.18-1.127.85-2.027,1.883-1.325,1.211.823.495,2.553-.506,3.186a4.821,4.821,0,0,1-4.132.1c-.886-.3-1.265,1.1-.385,1.395" transform="translate(10.721 23.875)" fill="#a0d2f4"/>
      </g>
    </g>
    <g id="Grupo_1113094" data-name="Grupo 1113094" transform="translate(600.051 3183.156)">
      <g id="Grupo_1113093" data-name="Grupo 1113093" clip-path="url(#clip-path-8)">
        <path id="Trazado_901077" data-name="Trazado 901077" d="M26.132,26.56,38.353,42.787c.73,1.017.5,1.909-.592,2.69C25.614,54.515,9.374,49.761,2.43,35.451A24.776,24.776,0,0,1,44.645,9.941c2.407,3.236,6.338,10.711,3.337,11.888L27.034,24.446a1.331,1.331,0,0,0-.9,2.114" fill="#edf7fe"/>
        <path id="Trazado_901078" data-name="Trazado 901078" d="M44.733,45.614l-.254-.282c-.449-.5-11.016-12.27-12.768-15.806a.619.619,0,0,1,.021-.593c.456-.791,3.2-1.671,20.044-2.75.789-.051,1.32-.085,1.487-.1l.361-.035.076.354c.022.1,2.111,10.551-8.669,18.981ZM32.5,29.281c1.714,3.27,10.7,13.395,12.332,15.225a21.211,21.211,0,0,0,7.823-11.919,16.549,16.549,0,0,0,.311-5.669c-.27.019-.656.043-1.135.074-15.319.982-18.744,1.833-19.331,2.289" fill="#edf7fe"/>
      </g>
    </g>
    <g id="Grupo_1113096" data-name="Grupo 1113096" transform="translate(376.92 3186.683)">
      <g id="Grupo_1113096-2" data-name="Grupo 1113096" clip-path="url(#clip-path-9)">
        <path id="Trazado_901082" data-name="Trazado 901082" d="M40.086,12.675a44.92,44.92,0,0,0-6.227.187L32.8,11.515s3.177-5.359,2.4-6.388S28.837.834,27.905,1.237,24.178,5.58,24.178,5.58l-1.957-.259S21.459-.1,19.254,0A24.445,24.445,0,0,0,11.861,2.1c-.865.559.434,5.862.434,5.862L10.868,9.1l-.614-.294S6.015,6.155,4.8,7.064.716,13.877.943,14.634,5.592,18.57,5.592,18.57l-.334,1.514S.262,21.6.035,23.036s.681,7.343,2.2,7.494A44.717,44.717,0,0,0,8.437,30l1.136,1.287S6.7,36.813,7.529,37.8s6.586,3.936,7.494,3.482S18.5,36.737,18.5,36.737l1.968.152s1.06,5.374,3.255,5.147A24.384,24.384,0,0,0,31,39.538c.833-.6-.757-5.829-.757-5.829l1.439-1.286S35.916,35,37.505,33.937s4.164-6.056,3.785-6.813-4.239-3.937-4.239-3.937l.021-.4c1.341-.375,4.551-1.381,4.793-2.505.306-1.424-.276-7.369-1.779-7.6M20.972,27.715a6.839,6.839,0,1,1,6.84-6.84,6.84,6.84,0,0,1-6.84,6.84" fill="#fff"/>
      </g>
    </g>
  </g>
</svg>
