<svg xmlns="http://www.w3.org/2000/svg" xmlns:xlink="http://www.w3.org/1999/xlink" width="93.722" height="93.723" viewBox="0 0 93.722 93.723">
  <defs>
    <filter id="Trazado_874925" x="0" y="0" width="93.722" height="93.723" filterUnits="userSpaceOnUse">
      <feOffset dy="3" input="SourceAlpha"/>
      <feGaussianBlur stdDeviation="3" result="blur"/>
      <feFlood flood-opacity="0.161"/>
      <feComposite operator="in" in2="blur"/>
      <feComposite in="SourceGraphic"/>
    </filter>
  </defs>
  <g id="Grupo_1114859" data-name="Grupo 1114859" transform="translate(-516.051 -3375)">
    <g id="Grupo_1112998" data-name="Grupo 1112998" transform="translate(525.051 3381)">
      <g id="Grupo_1109835" data-name="Grupo 1109835" transform="translate(0 0)">
        <g id="Grupo_1107913" data-name="Grupo 1107913" transform="translate(0 0)">
          <g transform="matrix(1, 0, 0, 1, -9, -6)" filter="url(#Trazado_874925)">
            <g id="Trazado_874925-2" data-name="Trazado 874925" transform="translate(9 6)" fill="#fd9826" opacity="0.859">
              <path d="M 37.86101913452148 74.2225341796875 C 32.95165252685547 74.2225341796875 28.1899299621582 73.26136779785156 23.7081298828125 71.36572265625 C 19.37846374511719 69.534423828125 15.48970794677734 66.91244506835938 12.1498966217041 63.57263565063477 C 8.810074806213379 60.23281097412109 6.188107967376709 56.34405517578125 4.356808185577393 52.01438903808594 C 2.461163520812988 47.53257751464844 1.499996900558472 42.77085494995117 1.499996900558472 37.86148834228516 C 1.499996900558472 32.95167922973633 2.461163520812988 28.18995666503906 4.356808185577393 23.70814514160156 C 6.188107967376709 19.37847900390625 8.810074806213379 15.48972225189209 12.1498966217041 12.14990043640137 C 15.48970794677734 8.810089111328125 19.37846374511719 6.188111305236816 23.7081298828125 4.3568115234375 C 28.1899299621582 2.461167097091675 32.95165252685547 1.500000476837158 37.86101913452148 1.500000476837158 C 42.7703857421875 1.500000476837158 47.53210830688477 2.461167097091675 52.01390838623047 4.3568115234375 C 56.34357452392578 6.188111305236816 60.23233032226562 8.810089111328125 63.57213973999023 12.14990043640137 C 66.91196441650391 15.48972225189209 69.53392791748047 19.37847900390625 71.36522674560547 23.70814514160156 C 73.26087188720703 28.18995666503906 74.22203826904297 32.95167922973633 74.22203826904297 37.86104583740234 C 74.22203826904297 42.77085494995117 73.26087188720703 47.53257751464844 71.36522674560547 52.01438903808594 C 69.53392791748047 56.34405517578125 66.91196441650391 60.23281097412109 63.57213973999023 63.57263565063477 C 60.23233032226562 66.91244506835938 56.34357452392578 69.534423828125 52.01390838623047 71.36572265625 C 47.53210830688477 73.26136779785156 42.7703857421875 74.2225341796875 37.86101913452148 74.2225341796875 Z" stroke="none"/>
              <path d="M 37.86101913452148 3.000007629394531 C 33.15349578857422 3.000007629394531 28.5883674621582 3.921302795410156 24.29245758056641 5.738327026367188 C 20.14159393310547 7.493995666503906 16.41309356689453 10.00801849365234 13.21055603027344 13.21056747436523 C 10.00800323486328 16.41310501098633 7.493980407714844 20.14160537719727 5.738319396972656 24.29246520996094 C 3.921295166015625 28.58837890625 2.999992370605469 33.15350341796875 2.999992370605469 37.86148071289062 C 2.999992370605469 42.56901550292969 3.921295166015625 47.13414001464844 5.738319396972656 51.4300537109375 C 7.493980407714844 55.58092880249023 10.00800323486328 59.30941772460938 13.21055603027344 62.51196670532227 C 16.41309356689453 65.71451568603516 20.14159393310547 68.22854614257812 24.29245758056641 69.98420715332031 C 28.5883674621582 71.80123138427734 33.15349578857422 72.72252655029297 37.86101913452148 72.72252655029297 C 42.56854248046875 72.72252655029297 47.1336669921875 71.80123138427734 51.42958068847656 69.98420715332031 C 55.5804443359375 68.22854614257812 59.30892944335938 65.71451568603516 62.51148223876953 62.51196670532227 C 65.71401977539062 59.30941772460938 68.22804260253906 55.58092880249023 69.98370361328125 51.4300537109375 C 71.80073547363281 47.13414001464844 72.72203063964844 42.56901550292969 72.72203063964844 37.86104202270508 C 72.72203063964844 33.15350341796875 71.80073547363281 28.58837890625 69.98370361328125 24.29246520996094 C 68.22804260253906 20.14160537719727 65.71401977539062 16.41310501098633 62.51148223876953 13.21056747436523 C 59.30892944335938 10.00801849365234 55.5804443359375 7.493995666503906 51.42958068847656 5.738327026367188 C 47.1336669921875 3.921302795410156 42.56854248046875 3.000007629394531 37.86101913452148 3.000007629394531 M 37.86101913452148 7.62939453125e-06 C 58.77108001708984 7.62939453125e-06 75.72203063964844 16.95096588134766 75.72203063964844 37.86104202270508 L 75.72203063964844 37.86148071289062 C 75.72203063964844 58.77156829833984 58.77108001708984 75.72252655029297 37.86101913452148 75.72252655029297 C 16.95095825195312 75.72252655029297 -7.62939453125e-06 58.77156829833984 -7.62939453125e-06 37.86148071289062 L -7.62939453125e-06 37.86104202270508 C -7.62939453125e-06 16.95096588134766 16.95095825195312 7.62939453125e-06 37.86101913452148 7.62939453125e-06 Z" stroke="none" fill="#fff"/>
            </g>
          </g>
          <g id="Trazado_874923" data-name="Trazado 874923" transform="translate(0 0)" fill="none">
            <path d="M37.861,0A37.861,37.861,0,0,1,75.722,37.861h0A37.861,37.861,0,1,1,0,37.861H0A37.861,37.861,0,0,1,37.861,0Z" stroke="none"/>
            <path d="M 37.86101913452148 3.000007629394531 C 33.15349578857422 3.000007629394531 28.5883674621582 3.921302795410156 24.29245758056641 5.738327026367188 C 20.14159393310547 7.493995666503906 16.41309356689453 10.00801849365234 13.21055603027344 13.21056747436523 C 10.00800323486328 16.41310501098633 7.493980407714844 20.14160537719727 5.738319396972656 24.29246520996094 C 3.921295166015625 28.58837890625 2.999992370605469 33.15350341796875 2.999992370605469 37.86148071289062 C 2.999992370605469 42.56901550292969 3.921295166015625 47.13414001464844 5.738319396972656 51.4300537109375 C 7.493980407714844 55.58092880249023 10.00800323486328 59.30941772460938 13.21055603027344 62.51196670532227 C 16.41309356689453 65.71451568603516 20.14159393310547 68.22854614257812 24.29245758056641 69.98420715332031 C 28.5883674621582 71.80123138427734 33.15349578857422 72.72252655029297 37.86101913452148 72.72252655029297 C 42.56854248046875 72.72252655029297 47.1336669921875 71.80123138427734 51.42958068847656 69.98420715332031 C 55.5804443359375 68.22854614257812 59.30892944335938 65.71451568603516 62.51148223876953 62.51196670532227 C 65.71401977539062 59.30941772460938 68.22804260253906 55.58092880249023 69.98370361328125 51.4300537109375 C 71.80073547363281 47.13414001464844 72.72203063964844 42.56901550292969 72.72203063964844 37.86104202270508 C 72.72203063964844 33.15350341796875 71.80073547363281 28.58837890625 69.98370361328125 24.29246520996094 C 68.22804260253906 20.14160537719727 65.71401977539062 16.41310501098633 62.51148223876953 13.21056747436523 C 59.30892944335938 10.00801849365234 55.5804443359375 7.493995666503906 51.42958068847656 5.738327026367188 C 47.1336669921875 3.921302795410156 42.56854248046875 3.000007629394531 37.86101913452148 3.000007629394531 M 37.86101913452148 7.62939453125e-06 C 58.77108001708984 7.62939453125e-06 75.72203063964844 16.95096588134766 75.72203063964844 37.86104202270508 L 75.72203063964844 37.86148071289062 C 75.72203063964844 58.77156829833984 58.77108001708984 75.72252655029297 37.86101913452148 75.72252655029297 C 16.95095825195312 75.72252655029297 -7.62939453125e-06 58.77156829833984 -7.62939453125e-06 37.86148071289062 L -7.62939453125e-06 37.86104202270508 C -7.62939453125e-06 16.95096588134766 16.95095825195312 7.62939453125e-06 37.86101913452148 7.62939453125e-06 Z" stroke="none" fill="#fff"/>
          </g>
        </g>
      </g>
    </g>
    <g id="Grupo_1114858" data-name="Grupo 1114858" transform="translate(522.807 3389.75)">
      <g id="Grupo_1114856" data-name="Grupo 1114856" transform="translate(23.956 5.96)">
        <path id="Trazado_908156" data-name="Trazado 908156" d="M25,93.249V80.482a4.867,4.867,0,0,1,4.086-4.8l8.4-1.364h6.673l8.4,1.364a4.867,4.867,0,0,1,4.085,4.8V93.249Z" transform="translate(-25 -47.013)" fill="#4d5e80"/>
        <path id="Trazado_908157" data-name="Trazado 908157" d="M55.772,63.928V68.14a3.578,3.578,0,0,0,6.674,0V63.928Z" transform="translate(-43.292 -40.84)" fill="#f9bbaf"/>
        <path id="Trazado_908158" data-name="Trazado 908158" d="M55.878,22.861l3.016-.839v-4.16a2.028,2.028,0,0,0-.7-1.534l-1.341-1.159A8.169,8.169,0,0,0,48.682,7H47.175a8.169,8.169,0,0,0-8.169,8.169l-1.341,1.159a2.028,2.028,0,0,0-.7,1.534v4.16l3.016.839Z" transform="translate(-32.111 -7)" fill="#4d5e80"/>
        <path id="Trazado_908159" data-name="Trazado 908159" d="M36.963,29.835v4.16l3.016.839h15.9l3.016-.839v-4.16a2.028,2.028,0,0,0-.7-1.534l-1.341-1.159H39.006L37.665,28.3A2.028,2.028,0,0,0,36.963,29.835Z" transform="translate(-32.111 -18.973)" fill="#3c4566"/>
        <path id="Trazado_908160" data-name="Trazado 908160" d="M60.223,34.974V37.6a11.094,11.094,0,0,1-4.774,9.117,5.858,5.858,0,0,1-6.674,0A11.094,11.094,0,0,1,44,37.6V34.974Z" transform="translate(-36.294 -23.629)" fill="#ffd3c2"/>
        <path id="Trazado_908161" data-name="Trazado 908161" d="M98.632,93.881H95.651v4.6l2.981,1.432Z" transform="translate(-66.997 -58.645)" fill="#e1e4fb"/>
        <path id="Trazado_908162" data-name="Trazado 908162" d="M25,93.881h2.981v4.6L25,99.909Z" transform="translate(-25 -58.645)" fill="#e1e4fb"/>
        <path id="Trazado_908163" data-name="Trazado 908163" d="M40,94.047v-17.9l3.042-.494v7.411a1.622,1.622,0,0,0,1.622,1.622H54.8a1.622,1.622,0,0,0,1.622-1.622V75.658l3.042.494v17.9Z" transform="translate(-33.916 -47.812)" fill="#ba7401"/>
        <path id="Trazado_908164" data-name="Trazado 908164" d="M52,105.965h9.734v3.65H52Z" transform="translate(-41.05 -65.828)" fill="#ffd92e"/>
        <g id="Grupo_1114855" data-name="Grupo 1114855" transform="translate(5.577 31.901)">
          <path id="Trazado_908165" data-name="Trazado 908165" d="M38.75,85.657h4.056V88.09H38.75Z" transform="translate(-38.75 -85.657)" fill="#b25d00"/>
          <path id="Trazado_908166" data-name="Trazado 908166" d="M0,0H4.056V2.433H0Z" transform="translate(20.481 2.433) rotate(180)" fill="#b25d00"/>
        </g>
      </g>
      <g id="Grupo_1114857" data-name="Grupo 1114857" transform="translate(23.244 5.25)">
        <path id="Trazado_908167" data-name="Trazado 908167" d="M53.665,33.924l-7.8-1.267V29.406a11.8,11.8,0,0,0,4.511-7.018l2.6-.722a.71.71,0,0,0,.52-.684v-4.16a2.737,2.737,0,0,0-.948-2.071l-1.1-.951a8.775,8.775,0,0,0-.868-3.517A.71.71,0,1,0,49.3,10.9a7.354,7.354,0,0,1,.7,2.521H33.643a7.467,7.467,0,0,1,7.423-6.75h1.507a7.473,7.473,0,0,1,4.719,1.683.71.71,0,1,0,.9-1.1,8.9,8.9,0,0,0-5.618-2H41.066A8.89,8.89,0,0,0,32.194,13.8l-1.1.952a2.736,2.736,0,0,0-.947,2.071v4.16a.71.71,0,0,0,.52.684l2.6.722a11.8,11.8,0,0,0,4.51,7.016v3.251l-7.8,1.268a5.54,5.54,0,0,0-3.085,1.6.71.71,0,0,0,1.014.994,4.127,4.127,0,0,1,2.3-1.191l1.174-.191v2.049a.707.707,0,0,0-.508.677v2.433a.707.707,0,0,0,.507.676V52.195a.71.71,0,0,0,1.42,0V41h1.622v.212a2.335,2.335,0,0,0,2.332,2.332H46.889a2.335,2.335,0,0,0,2.332-2.332V41H52.06a.71.71,0,0,0,.71-.71V37.861a.707.707,0,0,0-.507-.677V35.135l1.174.191a4.14,4.14,0,0,1,3.49,4.1v1.058H54.656a.71.71,0,0,0-.71.71v4.6a.709.709,0,0,0,.4.64l2.578,1.239v4.524a.71.71,0,0,0,1.42,0V39.428a5.556,5.556,0,0,0-4.682-5.5ZM39.192,30.246a6.57,6.57,0,0,0,5.255,0v2.891a2.88,2.88,0,0,1-5.255,0Zm-7.628-9.8V16.822a1.317,1.317,0,0,1,.456-1l1.141-.986H50.479l1.141.986a1.317,1.317,0,0,1,.456,1v3.621l-1.476.41c.024-.306.041-.613.041-.923V17.305a.71.71,0,0,0-.71-.71H33.708a.71.71,0,0,0-.71.71V19.93c0,.309.017.617.041.923Zm2.854-.512V18.015h14.8V19.93a10.386,10.386,0,0,1-4.468,8.534,5.173,5.173,0,0,1-5.866,0,10.386,10.386,0,0,1-4.469-8.535ZM32.289,39.584V38.571h2.636v1.014Zm2.129-4.944v2.511H32.8V34.9Zm12.471,7.488H36.75a.913.913,0,0,1-.913-.913v-.245a.707.707,0,0,0,.507-.676V37.861a.707.707,0,0,0-.507-.677V34.409l2.215-.36a4.318,4.318,0,0,0,7.535,0l2.215.36v2.775a.707.707,0,0,0-.507.677v2.433a.707.707,0,0,0,.507.676v.245A.913.913,0,0,1,46.889,42.129Zm4.461-2.544H48.715V38.571h2.636Zm-.507-2.433H49.221V34.64l1.622.264Zm4.523,8.193V41.9h1.561v4.19Z" transform="translate(-25.29 -5.25)"/>
        <path id="Trazado_908168" data-name="Trazado 908168" d="M26.937,89.174H24.666V88.116c0-.071,0-.142.005-.213a.711.711,0,1,0-1.42-.072q-.007.141-.007.284v1.768a.71.71,0,0,0,.712.71h2.271v3.439l-1.561.751v-1.2a.71.71,0,1,0-1.42,0v7.3a.71.71,0,1,0,1.42,0V96.359l2.578-1.239a.709.709,0,0,0,.4-.64v-4.6A.71.71,0,0,0,26.937,89.174Z" transform="translate(-23.244 -53.938)"/>
        <path id="Trazado_908169" data-name="Trazado 908169" d="M86.96,99.023a.71.71,0,0,0-.71.71v8.2a.71.71,0,0,0,1.42,0v-8.2A.71.71,0,0,0,86.96,99.023Z" transform="translate(-60.697 -60.991)"/>
        <path id="Trazado_908170" data-name="Trazado 908170" d="M60.693,104.215H50.96a.71.71,0,0,0-.71.71v3.65a.71.71,0,0,0,.71.71h9.734a.71.71,0,0,0,.71-.71v-3.65a.71.71,0,0,0-.71-.71Zm-.71,3.65H51.67v-2.231h8.314Z" transform="translate(-39.297 -64.078)"/>
      </g>
    </g>
  </g>
</svg>
