<svg xmlns="http://www.w3.org/2000/svg" xmlns:xlink="http://www.w3.org/1999/xlink" width="93.722" height="93.723" viewBox="0 0 93.722 93.723">
  <defs>
    <filter id="Trazado_874925" x="0" y="0" width="93.722" height="93.723" filterUnits="userSpaceOnUse">
      <feOffset dy="3" input="SourceAlpha"/>
      <feGaussianBlur stdDeviation="3" result="blur"/>
      <feFlood flood-opacity="0.161"/>
      <feComposite operator="in" in2="blur"/>
      <feComposite in="SourceGraphic"/>
    </filter>
  </defs>
  <g id="Grupo_1114889" data-name="Grupo 1114889" transform="translate(-621.051 -8311)">
    <g id="Grupo_1113065" data-name="Grupo 1113065" transform="translate(630.051 8317)">
      <g id="Grupo_1109835" data-name="Grupo 1109835" transform="translate(0 0)">
        <g id="Grupo_1107913" data-name="Grupo 1107913" transform="translate(0 0)">
          <g transform="matrix(1, 0, 0, 1, -9, -6)" filter="url(#Trazado_874925)">
            <g id="Trazado_874925-2" data-name="Trazado 874925" transform="translate(9 6)" fill="#e2dacc" opacity="0.859">
              <path d="M 37.86101913452148 74.2225341796875 C 32.95165252685547 74.2225341796875 28.1899299621582 73.26136779785156 23.7081298828125 71.36572265625 C 19.37846374511719 69.534423828125 15.48970794677734 66.91244506835938 12.1498966217041 63.57263565063477 C 8.810074806213379 60.23281097412109 6.188107967376709 56.34405517578125 4.356808185577393 52.01438903808594 C 2.461163520812988 47.53257751464844 1.499996900558472 42.77085494995117 1.499996900558472 37.86148834228516 C 1.499996900558472 32.95167922973633 2.461163520812988 28.18995666503906 4.356808185577393 23.70814514160156 C 6.188107967376709 19.37847900390625 8.810074806213379 15.48972225189209 12.1498966217041 12.14990043640137 C 15.48970794677734 8.810089111328125 19.37846374511719 6.188111305236816 23.7081298828125 4.3568115234375 C 28.1899299621582 2.461167097091675 32.95165252685547 1.500000476837158 37.86101913452148 1.500000476837158 C 42.7703857421875 1.500000476837158 47.53210830688477 2.461167097091675 52.01390838623047 4.3568115234375 C 56.34357452392578 6.188111305236816 60.23233032226562 8.810089111328125 63.57213973999023 12.14990043640137 C 66.91196441650391 15.48972225189209 69.53392791748047 19.37847900390625 71.36522674560547 23.70814514160156 C 73.26087188720703 28.18995666503906 74.22203826904297 32.95167922973633 74.22203826904297 37.86104583740234 C 74.22203826904297 42.77085494995117 73.26087188720703 47.53257751464844 71.36522674560547 52.01438903808594 C 69.53392791748047 56.34405517578125 66.91196441650391 60.23281097412109 63.57213973999023 63.57263565063477 C 60.23233032226562 66.91244506835938 56.34357452392578 69.534423828125 52.01390838623047 71.36572265625 C 47.53210830688477 73.26136779785156 42.7703857421875 74.2225341796875 37.86101913452148 74.2225341796875 Z" stroke="none"/>
              <path d="M 37.86101913452148 3.000007629394531 C 33.15349578857422 3.000007629394531 28.5883674621582 3.921302795410156 24.29245758056641 5.738327026367188 C 20.14159393310547 7.493995666503906 16.41309356689453 10.00801849365234 13.21055603027344 13.21056747436523 C 10.00800323486328 16.41310501098633 7.493980407714844 20.14160537719727 5.738319396972656 24.29246520996094 C 3.921295166015625 28.58837890625 2.999992370605469 33.15350341796875 2.999992370605469 37.86148071289062 C 2.999992370605469 42.56901550292969 3.921295166015625 47.13414001464844 5.738319396972656 51.4300537109375 C 7.493980407714844 55.58092880249023 10.00800323486328 59.30941772460938 13.21055603027344 62.51196670532227 C 16.41309356689453 65.71451568603516 20.14159393310547 68.22854614257812 24.29245758056641 69.98420715332031 C 28.5883674621582 71.80123138427734 33.15349578857422 72.72252655029297 37.86101913452148 72.72252655029297 C 42.56854248046875 72.72252655029297 47.1336669921875 71.80123138427734 51.42958068847656 69.98420715332031 C 55.5804443359375 68.22854614257812 59.30892944335938 65.71451568603516 62.51148223876953 62.51196670532227 C 65.71401977539062 59.30941772460938 68.22804260253906 55.58092880249023 69.98370361328125 51.4300537109375 C 71.80073547363281 47.13414001464844 72.72203063964844 42.56901550292969 72.72203063964844 37.86104202270508 C 72.72203063964844 33.15350341796875 71.80073547363281 28.58837890625 69.98370361328125 24.29246520996094 C 68.22804260253906 20.14160537719727 65.71401977539062 16.41310501098633 62.51148223876953 13.21056747436523 C 59.30892944335938 10.00801849365234 55.5804443359375 7.493995666503906 51.42958068847656 5.738327026367188 C 47.1336669921875 3.921302795410156 42.56854248046875 3.000007629394531 37.86101913452148 3.000007629394531 M 37.86101913452148 7.62939453125e-06 C 58.77108001708984 7.62939453125e-06 75.72203063964844 16.95096588134766 75.72203063964844 37.86104202270508 L 75.72203063964844 37.86148071289062 C 75.72203063964844 58.77156829833984 58.77108001708984 75.72252655029297 37.86101913452148 75.72252655029297 C 16.95095825195312 75.72252655029297 -7.62939453125e-06 58.77156829833984 -7.62939453125e-06 37.86148071289062 L -7.62939453125e-06 37.86104202270508 C -7.62939453125e-06 16.95096588134766 16.95095825195312 7.62939453125e-06 37.86101913452148 7.62939453125e-06 Z" stroke="none" fill="#fff"/>
            </g>
          </g>
          <g id="Trazado_874923" data-name="Trazado 874923" transform="translate(0 0)" fill="none">
            <path d="M37.861,0A37.861,37.861,0,0,1,75.722,37.861h0A37.861,37.861,0,1,1,0,37.861H0A37.861,37.861,0,0,1,37.861,0Z" stroke="none"/>
            <path d="M 37.86101913452148 3.000007629394531 C 33.15349578857422 3.000007629394531 28.5883674621582 3.921302795410156 24.29245758056641 5.738327026367188 C 20.14159393310547 7.493995666503906 16.41309356689453 10.00801849365234 13.21055603027344 13.21056747436523 C 10.00800323486328 16.41310501098633 7.493980407714844 20.14160537719727 5.738319396972656 24.29246520996094 C 3.921295166015625 28.58837890625 2.999992370605469 33.15350341796875 2.999992370605469 37.86148071289062 C 2.999992370605469 42.56901550292969 3.921295166015625 47.13414001464844 5.738319396972656 51.4300537109375 C 7.493980407714844 55.58092880249023 10.00800323486328 59.30941772460938 13.21055603027344 62.51196670532227 C 16.41309356689453 65.71451568603516 20.14159393310547 68.22854614257812 24.29245758056641 69.98420715332031 C 28.5883674621582 71.80123138427734 33.15349578857422 72.72252655029297 37.86101913452148 72.72252655029297 C 42.56854248046875 72.72252655029297 47.1336669921875 71.80123138427734 51.42958068847656 69.98420715332031 C 55.5804443359375 68.22854614257812 59.30892944335938 65.71451568603516 62.51148223876953 62.51196670532227 C 65.71401977539062 59.30941772460938 68.22804260253906 55.58092880249023 69.98370361328125 51.4300537109375 C 71.80073547363281 47.13414001464844 72.72203063964844 42.56901550292969 72.72203063964844 37.86104202270508 C 72.72203063964844 33.15350341796875 71.80073547363281 28.58837890625 69.98370361328125 24.29246520996094 C 68.22804260253906 20.14160537719727 65.71401977539062 16.41310501098633 62.51148223876953 13.21056747436523 C 59.30892944335938 10.00801849365234 55.5804443359375 7.493995666503906 51.42958068847656 5.738327026367188 C 47.1336669921875 3.921302795410156 42.56854248046875 3.000007629394531 37.86101913452148 3.000007629394531 M 37.86101913452148 7.62939453125e-06 C 58.77108001708984 7.62939453125e-06 75.72203063964844 16.95096588134766 75.72203063964844 37.86104202270508 L 75.72203063964844 37.86148071289062 C 75.72203063964844 58.77156829833984 58.77108001708984 75.72252655029297 37.86101913452148 75.72252655029297 C 16.95095825195312 75.72252655029297 -7.62939453125e-06 58.77156829833984 -7.62939453125e-06 37.86148071289062 L -7.62939453125e-06 37.86104202270508 C -7.62939453125e-06 16.95096588134766 16.95095825195312 7.62939453125e-06 37.86101913452148 7.62939453125e-06 Z" stroke="none" fill="#fff"/>
          </g>
        </g>
      </g>
    </g>
    <g id="Grupo_1114888" data-name="Grupo 1114888" transform="translate(644.646 8331)">
      <path id="Trazado_908271" data-name="Trazado 908271" d="M89.9,157.085a2.6,2.6,0,0,1-2.6,2.6H70.886a2.6,2.6,0,0,0-2.6,2.6v21.966a2.6,2.6,0,0,0,2.6,2.6h33.368a2.6,2.6,0,0,0,2.6-2.6v-27.16a2.6,2.6,0,0,0-2.6-2.6H92.5A2.6,2.6,0,0,0,89.9,157.085Zm0,0" transform="translate(-61.521 -140.204)" fill="#e58e13"/>
      <path id="Trazado_908272" data-name="Trazado 908272" d="M148.375,83.016H176.5v35.937H148.375Zm0,0" transform="translate(-134.202 -75.34)" fill="#cbcbcb"/>
      <path id="Trazado_908273" data-name="Trazado 908273" d="M99.441,7.605h28.123V31.452H99.441Zm0,0" transform="translate(-89.793 -6.902)" fill="#cbcbcb"/>
      <path id="Trazado_908274" data-name="Trazado 908274" d="M50.508,83.016H78.63V99.889H50.508Zm0,0" transform="translate(-45.384 -75.34)" fill="#e6e6e6"/>
      <path id="Trazado_908275" data-name="Trazado 908275" d="M29.715,157.085a2.6,2.6,0,0,1-2.6,2.6H10.7a2.6,2.6,0,0,0-2.6,2.6v21.966a2.6,2.6,0,0,0,2.6,2.6H44.067a2.6,2.6,0,0,0,2.6-2.6v-27.16a2.6,2.6,0,0,0-2.6-2.6H32.312A2.6,2.6,0,0,0,29.715,157.085Zm0,0" transform="translate(-6.899 -140.204)" fill="#f7d360"/>
      <path id="Trazado_908276" data-name="Trazado 908276" d="M230.492,251.816h14.624v5.2H230.492Zm0,0" transform="translate(-208.726 -228.532)" fill="#fc5f61"/>
      <path id="Trazado_908277" data-name="Trazado 908277" d="M43,13.593V7.676a.7.7,0,0,0-.7-.7H38.474V.7a.7.7,0,0,0-.7-.7H9.648a.7.7,0,0,0-.7.7v6.27H5.124a.7.7,0,0,0-.7.7v11.1H3.8a3.3,3.3,0,0,0-3.3,3.3V44.042a3.3,3.3,0,0,0,3.3,3.3H42.733a3.3,3.3,0,0,0,3.3-3.3V16.882A3.3,3.3,0,0,0,43,13.593ZM10.351,1.406H37.068V13.582H33.949V7.676a.7.7,0,0,0-.7-.7H10.351ZM1.906,44.042V22.076A1.9,1.9,0,0,1,3.8,20.182H6.552a.7.7,0,0,0,0-1.406H5.827V8.379H32.543v5.2H25.414a3.3,3.3,0,0,0-3.3,3.3,1.9,1.9,0,0,1-1.894,1.894H9.365a.7.7,0,0,0,0,1.406H20.22a3.3,3.3,0,0,0,3.3-3.3,1.9,1.9,0,0,1,1.894-1.894H37.168a1.9,1.9,0,0,1,1.894,1.894v27.16a1.9,1.9,0,0,1-1.892,1.894H3.8A1.9,1.9,0,0,1,1.906,44.042Zm42.721,0a1.9,1.9,0,0,1-1.894,1.894H39.868a3.28,3.28,0,0,0,.588-1.62H42.3a.7.7,0,0,0,.7-.7V24.972a.7.7,0,0,0-1.406,0V42.909H40.468V16.882a3.3,3.3,0,0,0-1.993-3.03V8.379h3.118v13.78a.7.7,0,0,0,1.406,0v-7.15a1.9,1.9,0,0,1,1.628,1.873Zm0,0"/>
      <path id="Trazado_908278" data-name="Trazado 908278" d="M91.293,116.356h16.874a.7.7,0,0,0,0-1.406H91.293a.7.7,0,0,0,0,1.406Zm0,0" transform="translate(-81.76 -104.321)"/>
      <path id="Trazado_908279" data-name="Trazado 908279" d="M91.293,154.375h9.652a.7.7,0,0,0,0-1.406H91.293a.7.7,0,0,0,0,1.406Zm0,0" transform="translate(-81.76 -138.825)"/>
      <path id="Trazado_908280" data-name="Trazado 908280" d="M238.217,244.211H223.593a.7.7,0,0,0-.7.7v5.2a.7.7,0,0,0,.7.7h14.624a.7.7,0,0,0,.7-.7v-5.2A.7.7,0,0,0,238.217,244.211Zm-.7,5.2H224.3v-3.8h13.218Zm0,0" transform="translate(-201.827 -221.63)"/>
    </g>
  </g>
</svg>
