<svg xmlns="http://www.w3.org/2000/svg" xmlns:xlink="http://www.w3.org/1999/xlink" width="93.722" height="93.723" viewBox="0 0 93.722 93.723">
  <defs>
    <filter id="Trazado_874925" x="0" y="0" width="93.722" height="93.723" filterUnits="userSpaceOnUse">
      <feOffset dy="3" input="SourceAlpha"/>
      <feGaussianBlur stdDeviation="3" result="blur"/>
      <feFlood flood-opacity="0.161"/>
      <feComposite operator="in" in2="blur"/>
      <feComposite in="SourceGraphic"/>
    </filter>
  </defs>
  <g id="Grupo_1114887" data-name="Grupo 1114887" transform="translate(-621.051 -8425)">
    <g id="Grupo_1113067" data-name="Grupo 1113067" transform="translate(630.051 8431)">
      <g id="Grupo_1109835" data-name="Grupo 1109835" transform="translate(0 0)">
        <g id="Grupo_1107913" data-name="Grupo 1107913" transform="translate(0 0)">
          <g transform="matrix(1, 0, 0, 1, -9, -6)" filter="url(#Trazado_874925)">
            <g id="Trazado_874925-2" data-name="Trazado 874925" transform="translate(9 6)" fill="#e2dacc" opacity="0.859">
              <path d="M 37.86101913452148 74.2225341796875 C 32.95165252685547 74.2225341796875 28.1899299621582 73.26136779785156 23.7081298828125 71.36572265625 C 19.37846374511719 69.534423828125 15.48970794677734 66.91244506835938 12.1498966217041 63.57263565063477 C 8.810074806213379 60.23281097412109 6.188107967376709 56.34405517578125 4.356808185577393 52.01438903808594 C 2.461163520812988 47.53257751464844 1.499996900558472 42.77085494995117 1.499996900558472 37.86148834228516 C 1.499996900558472 32.95167922973633 2.461163520812988 28.18995666503906 4.356808185577393 23.70814514160156 C 6.188107967376709 19.37847900390625 8.810074806213379 15.48972225189209 12.1498966217041 12.14990043640137 C 15.48970794677734 8.810089111328125 19.37846374511719 6.188111305236816 23.7081298828125 4.3568115234375 C 28.1899299621582 2.461167097091675 32.95165252685547 1.500000476837158 37.86101913452148 1.500000476837158 C 42.7703857421875 1.500000476837158 47.53210830688477 2.461167097091675 52.01390838623047 4.3568115234375 C 56.34357452392578 6.188111305236816 60.23233032226562 8.810089111328125 63.57213973999023 12.14990043640137 C 66.91196441650391 15.48972225189209 69.53392791748047 19.37847900390625 71.36522674560547 23.70814514160156 C 73.26087188720703 28.18995666503906 74.22203826904297 32.95167922973633 74.22203826904297 37.86104583740234 C 74.22203826904297 42.77085494995117 73.26087188720703 47.53257751464844 71.36522674560547 52.01438903808594 C 69.53392791748047 56.34405517578125 66.91196441650391 60.23281097412109 63.57213973999023 63.57263565063477 C 60.23233032226562 66.91244506835938 56.34357452392578 69.534423828125 52.01390838623047 71.36572265625 C 47.53210830688477 73.26136779785156 42.7703857421875 74.2225341796875 37.86101913452148 74.2225341796875 Z" stroke="none"/>
              <path d="M 37.86101913452148 3.000007629394531 C 33.15349578857422 3.000007629394531 28.5883674621582 3.921302795410156 24.29245758056641 5.738327026367188 C 20.14159393310547 7.493995666503906 16.41309356689453 10.00801849365234 13.21055603027344 13.21056747436523 C 10.00800323486328 16.41310501098633 7.493980407714844 20.14160537719727 5.738319396972656 24.29246520996094 C 3.921295166015625 28.58837890625 2.999992370605469 33.15350341796875 2.999992370605469 37.86148071289062 C 2.999992370605469 42.56901550292969 3.921295166015625 47.13414001464844 5.738319396972656 51.4300537109375 C 7.493980407714844 55.58092880249023 10.00800323486328 59.30941772460938 13.21055603027344 62.51196670532227 C 16.41309356689453 65.71451568603516 20.14159393310547 68.22854614257812 24.29245758056641 69.98420715332031 C 28.5883674621582 71.80123138427734 33.15349578857422 72.72252655029297 37.86101913452148 72.72252655029297 C 42.56854248046875 72.72252655029297 47.1336669921875 71.80123138427734 51.42958068847656 69.98420715332031 C 55.5804443359375 68.22854614257812 59.30892944335938 65.71451568603516 62.51148223876953 62.51196670532227 C 65.71401977539062 59.30941772460938 68.22804260253906 55.58092880249023 69.98370361328125 51.4300537109375 C 71.80073547363281 47.13414001464844 72.72203063964844 42.56901550292969 72.72203063964844 37.86104202270508 C 72.72203063964844 33.15350341796875 71.80073547363281 28.58837890625 69.98370361328125 24.29246520996094 C 68.22804260253906 20.14160537719727 65.71401977539062 16.41310501098633 62.51148223876953 13.21056747436523 C 59.30892944335938 10.00801849365234 55.5804443359375 7.493995666503906 51.42958068847656 5.738327026367188 C 47.1336669921875 3.921302795410156 42.56854248046875 3.000007629394531 37.86101913452148 3.000007629394531 M 37.86101913452148 7.62939453125e-06 C 58.77108001708984 7.62939453125e-06 75.72203063964844 16.95096588134766 75.72203063964844 37.86104202270508 L 75.72203063964844 37.86148071289062 C 75.72203063964844 58.77156829833984 58.77108001708984 75.72252655029297 37.86101913452148 75.72252655029297 C 16.95095825195312 75.72252655029297 -7.62939453125e-06 58.77156829833984 -7.62939453125e-06 37.86148071289062 L -7.62939453125e-06 37.86104202270508 C -7.62939453125e-06 16.95096588134766 16.95095825195312 7.62939453125e-06 37.86101913452148 7.62939453125e-06 Z" stroke="none" fill="#fff"/>
            </g>
          </g>
          <g id="Trazado_874923" data-name="Trazado 874923" transform="translate(0 0)" fill="none">
            <path d="M37.861,0A37.861,37.861,0,0,1,75.722,37.861h0A37.861,37.861,0,1,1,0,37.861H0A37.861,37.861,0,0,1,37.861,0Z" stroke="none"/>
            <path d="M 37.86101913452148 3.000007629394531 C 33.15349578857422 3.000007629394531 28.5883674621582 3.921302795410156 24.29245758056641 5.738327026367188 C 20.14159393310547 7.493995666503906 16.41309356689453 10.00801849365234 13.21055603027344 13.21056747436523 C 10.00800323486328 16.41310501098633 7.493980407714844 20.14160537719727 5.738319396972656 24.29246520996094 C 3.921295166015625 28.58837890625 2.999992370605469 33.15350341796875 2.999992370605469 37.86148071289062 C 2.999992370605469 42.56901550292969 3.921295166015625 47.13414001464844 5.738319396972656 51.4300537109375 C 7.493980407714844 55.58092880249023 10.00800323486328 59.30941772460938 13.21055603027344 62.51196670532227 C 16.41309356689453 65.71451568603516 20.14159393310547 68.22854614257812 24.29245758056641 69.98420715332031 C 28.5883674621582 71.80123138427734 33.15349578857422 72.72252655029297 37.86101913452148 72.72252655029297 C 42.56854248046875 72.72252655029297 47.1336669921875 71.80123138427734 51.42958068847656 69.98420715332031 C 55.5804443359375 68.22854614257812 59.30892944335938 65.71451568603516 62.51148223876953 62.51196670532227 C 65.71401977539062 59.30941772460938 68.22804260253906 55.58092880249023 69.98370361328125 51.4300537109375 C 71.80073547363281 47.13414001464844 72.72203063964844 42.56901550292969 72.72203063964844 37.86104202270508 C 72.72203063964844 33.15350341796875 71.80073547363281 28.58837890625 69.98370361328125 24.29246520996094 C 68.22804260253906 20.14160537719727 65.71401977539062 16.41310501098633 62.51148223876953 13.21056747436523 C 59.30892944335938 10.00801849365234 55.5804443359375 7.493995666503906 51.42958068847656 5.738327026367188 C 47.1336669921875 3.921302795410156 42.56854248046875 3.000007629394531 37.86101913452148 3.000007629394531 M 37.86101913452148 7.62939453125e-06 C 58.77108001708984 7.62939453125e-06 75.72203063964844 16.95096588134766 75.72203063964844 37.86104202270508 L 75.72203063964844 37.86148071289062 C 75.72203063964844 58.77156829833984 58.77108001708984 75.72252655029297 37.86101913452148 75.72252655029297 C 16.95095825195312 75.72252655029297 -7.62939453125e-06 58.77156829833984 -7.62939453125e-06 37.86148071289062 L -7.62939453125e-06 37.86104202270508 C -7.62939453125e-06 16.95096588134766 16.95095825195312 7.62939453125e-06 37.86101913452148 7.62939453125e-06 Z" stroke="none" fill="#fff"/>
          </g>
        </g>
      </g>
    </g>
    <g id="File_folder" data-name="File folder" transform="translate(641.051 8441)">
      <path id="Trazado_908259" data-name="Trazado 908259" d="M41.821,23.345V3H13V23.345Z" transform="translate(-1.675 -0.152)" fill="#005ece"/>
      <path id="Trazado_908260" data-name="Trazado 908260" d="M11.006,24.563h.47V11a3.391,3.391,0,0,0-3.391,3.391v1.7h-1.7A3.391,3.391,0,0,0,3,19.477V53.384L7.653,27.451a3.391,3.391,0,0,1,3.353-2.888Z" transform="translate(-0.152 -1.371)" fill="#cca400"/>
      <path id="Trazado_908261" data-name="Trazado 908261" d="M54.391,25.477V20.391A3.391,3.391,0,0,0,51,17v8.477Z" transform="translate(-7.463 -2.285)" fill="#cca400"/>
      <path id="Trazado_908262" data-name="Trazado 908262" d="M47.513,52.933l4.069-22.04A3.391,3.391,0,0,0,48.228,27H11.006a3.391,3.391,0,0,0-3.353,2.888L3,55.821H44.16a3.391,3.391,0,0,0,3.353-2.888Z" transform="translate(-0.152 -3.808)" fill="#ffcd00"/>
      <path id="Trazado_908263" data-name="Trazado 908263" d="M48.228,27H44.82a3.341,3.341,0,0,1-.019.5l-4.069,22.04a3.391,3.391,0,0,1-3.353,2.888H3.609L3,55.821H44.16a3.391,3.391,0,0,0,3.353-2.888l4.069-22.04A3.391,3.391,0,0,0,48.228,27Z" transform="translate(-0.152 -3.808)" fill="#ebbf00"/>
      <path id="Trazado_908264" data-name="Trazado 908264" d="M42.431,7H17V23.954H45.821V7Z" transform="translate(-2.285 -0.762)" fill="#57a4ff"/>
      <path id="Trazado_908265" data-name="Trazado 908265" d="M26,23.954H47.192V7C47.192,16.371,37.713,23.954,26,23.954Z" transform="translate(-3.655 -0.762)" fill="#2488ff"/>
      <g id="Grupo_1114886" data-name="Grupo 1114886" transform="translate(2 2)">
        <path id="Trazado_908266" data-name="Trazado 908266" d="M51.288,23.817a4.238,4.238,0,0,0-3.212-1.472h-.3V18.106a4.246,4.246,0,0,0-3.391-4.154V6.238a.848.848,0,0,0-.848-.848H40.994V2.848A.848.848,0,0,0,40.146,2H11.325a.848.848,0,0,0-.848.848V8.866A4.246,4.246,0,0,0,7.086,13.02v.848H6.238A4.244,4.244,0,0,0,2,18.106V52.014a1.4,1.4,0,0,0,.2.544.848.848,0,0,0,.65.3h41.16a4.205,4.205,0,0,0,4.188-3.581l4.073-22.068a4.238,4.238,0,0,0-.98-3.395ZM46.08,18.106v4.238h-1.7V15.719a2.543,2.543,0,0,1,1.7,2.387Zm-3.391,4.238H15.563V7.086H42.689ZM12.172,3.7H39.3v1.7H14.715a.848.848,0,0,0-.848.848V22.345h-1.7ZM3.7,18.106a2.543,2.543,0,0,1,2.543-2.543h1.7a.848.848,0,0,0,.848-.848v-1.7a2.543,2.543,0,0,1,1.7-2.387V22.378A4.19,4.19,0,0,0,6.662,25.93L3.7,42.488Zm46.9,8.826L46.522,49a2.559,2.559,0,0,1-2.515,2.166H3.865l4.474-24.96a2.559,2.559,0,0,1,2.515-2.166H48.076a2.543,2.543,0,0,1,2.52,2.892Z" transform="translate(-2 -2)" fill="#231f20"/>
        <path id="Trazado_908267" data-name="Trazado 908267" d="M42.888,14H20.848a.848.848,0,1,0,0,1.7h22.04a.848.848,0,0,0,0-1.7Z" transform="translate(-4.742 -3.828)" fill="#231f20"/>
        <path id="Trazado_908268" data-name="Trazado 908268" d="M20.848,10a.848.848,0,1,0,0,1.7h22.04a.848.848,0,0,0,0-1.7Z" transform="translate(-4.742 -3.218)" fill="#231f20"/>
        <path id="Trazado_908269" data-name="Trazado 908269" d="M42.888,18H20.848a.848.848,0,1,0,0,1.7h22.04a.848.848,0,0,0,0-1.7Z" transform="translate(-4.742 -4.437)" fill="#231f20"/>
        <path id="Trazado_908270" data-name="Trazado 908270" d="M42.888,22H20.848a.848.848,0,1,0,0,1.7h22.04a.848.848,0,0,0,0-1.7Z" transform="translate(-4.742 -5.046)" fill="#231f20"/>
      </g>
    </g>
  </g>
</svg>
