<svg xmlns="http://www.w3.org/2000/svg" xmlns:xlink="http://www.w3.org/1999/xlink" width="315" height="470" viewBox="0 0 315 470">
  <defs>
    <clipPath id="clip-path">
      <rect id="Rectángulo_405946" data-name="Rectángulo 405946" width="13.332" height="10.949" fill="none"/>
    </clipPath>
    <clipPath id="clip-path-2">
      <rect id="Rectángulo_405955" data-name="Rectángulo 405955" width="21.955" height="17.462" fill="none"/>
    </clipPath>
    <clipPath id="clip-path-3">
      <rect id="Rectángulo_405956" data-name="Rectángulo 405956" width="29.574" height="29.574" fill="none"/>
    </clipPath>
    <clipPath id="clip-path-4">
      <rect id="Rectángulo_405957" data-name="Rectángulo 405957" width="29.253" height="29.253" fill="none"/>
    </clipPath>
    <clipPath id="clip-path-5">
      <rect id="Rectángulo_405958" data-name="Rectángulo 405958" width="11.073" height="17.836" fill="none"/>
    </clipPath>
    <clipPath id="clip-path-6">
      <rect id="Rectángulo_406145" data-name="Rectángulo 406145" width="315" height="470" rx="8" transform="translate(1000 8461.797)" fill="#5ab4f9"/>
    </clipPath>
    <clipPath id="clip-path-7">
      <rect id="Rectángulo_405993" data-name="Rectángulo 405993" width="84.155" height="93.098" fill="none"/>
    </clipPath>
    <clipPath id="clip-path-8">
      <rect id="Rectángulo_405994" data-name="Rectángulo 405994" width="37.612" height="38.3" fill="none"/>
    </clipPath>
    <clipPath id="clip-path-9">
      <rect id="Rectángulo_405995" data-name="Rectángulo 405995" width="47.561" height="15.655" fill="none"/>
    </clipPath>
    <clipPath id="clip-path-10">
      <rect id="Rectángulo_405996" data-name="Rectángulo 405996" width="45.784" height="15.055" fill="none"/>
    </clipPath>
    <clipPath id="clip-path-11">
      <rect id="Rectángulo_405997" data-name="Rectángulo 405997" width="44.896" height="27.827" fill="none"/>
    </clipPath>
    <clipPath id="clip-path-12">
      <rect id="Rectángulo_405998" data-name="Rectángulo 405998" width="28.653" height="112.628" fill="none"/>
    </clipPath>
    <clipPath id="clip-path-13">
      <rect id="Rectángulo_405999" data-name="Rectángulo 405999" width="25.66" height="16.367" fill="none"/>
    </clipPath>
  </defs>
  <g id="Grupo_1113894" data-name="Grupo 1113894" transform="translate(-1000 -8461.797)">
    <rect id="Rectángulo_405676" data-name="Rectángulo 405676" width="315" height="470" rx="8" transform="translate(1000 8461.797)" fill="#cdb9f8"/>
    <g id="Grupo_1113889" data-name="Grupo 1113889" transform="translate(7715.807 11628.744)">
      <path id="Trazado_905236" data-name="Trazado 905236" d="M322.01,58.915l-59.188-12.5a2.817,2.817,0,0,1-2.175-3.335l7.725-36.563A2.814,2.814,0,0,1,271.7,4.343l59.192,12.5a2.815,2.815,0,0,1,2.167,3.333l-7.721,36.566a2.818,2.818,0,0,1-3.333,2.171" transform="translate(-6950.667 -3130.013)" fill="#ebebeb"/>
      <path id="Trazado_905237" data-name="Trazado 905237" d="M273.665,49.8l-.761,3.6-.367-.079.693-3.261-.849-.18.071-.34Z" transform="translate(-6955.337 -3147.93)" fill="#fff"/>
      <path id="Trazado_905238" data-name="Trazado 905238" d="M277.788,54.288l-.071.339-2.518-.533.056-.262,1.8-1.148c.49-.312.616-.538.672-.786.088-.414-.152-.732-.7-.85a1.262,1.262,0,0,0-1.067.193l-.213-.28a1.66,1.66,0,0,1,1.382-.246c.727.155,1.111.622.985,1.24-.071.34-.243.629-.825,1l-1.476.941Z" transform="translate(-6956.453 -3148.375)" fill="#fff"/>
      <path id="Trazado_905239" data-name="Trazado 905239" d="M283.91,55.068l-.72-.152-.2.944-.371-.078.2-.942-2.038-.428.08-.281,2.4-1.977.411.088-2.326,1.93,1.559.329.175-.832.36.076-.178.832.72.152Z" transform="translate(-6958.665 -3148.967)" fill="#fff"/>
      <path id="Trazado_905240" data-name="Trazado 905240" d="M293.019,57l-.717-.152-.2.944-.373-.078.2-.945-2.038-.428.058-.265,2.4-1.981.411.088-2.326,1.93,1.559.329.175-.829.36.073-.175.832.717.153Z" transform="translate(-6962.269 -3149.736)" fill="#fff"/>
      <path id="Trazado_905241" data-name="Trazado 905241" d="M298.518,57.851c-.129.611-.655,1-1.533.81a1.909,1.909,0,0,1-1.191-.734l.242-.256a1.589,1.589,0,0,0,1.013.648c.611.129.99-.093,1.092-.535s-.133-.81-1.043-1l-.764-.161.563-1.765,1.967.414-.071.339-1.641-.345-.364,1.116.462.1c1.084.224,1.4.737,1.268,1.372" transform="translate(-6964.607 -3150.037)" fill="#fff"/>
      <path id="Trazado_905242" data-name="Trazado 905242" d="M304.47,59.178a1.141,1.141,0,0,1-1.463.843c-.95-.2-1.33-.974-1.09-2.108a1.665,1.665,0,0,1,2.032-1.523,1.7,1.7,0,0,1,.811.377l-.211.266a1.269,1.269,0,0,0-.663-.317c-.774-.164-1.376.23-1.585,1.2-.016.081-.033.186-.046.294a1.172,1.172,0,0,1,1.229-.382,1.128,1.128,0,0,1,.986,1.346m-.369-.068c.1-.472-.183-.849-.74-.966a.85.85,0,0,0-1.072.541c-.005.017-.01.034-.015.051-.082.394.166.837.788.968a.8.8,0,0,0,1.013-.5.847.847,0,0,0,.027-.095" transform="translate(-6967.002 -3150.627)" fill="#fff"/>
      <path id="Trazado_905243" data-name="Trazado 905243" d="M312.521,60.79c-.127.6-.661.971-1.528.786a1.915,1.915,0,0,1-1.195-.733l.243-.256a1.59,1.59,0,0,0,1.023.65c.594.127.99-.093,1.076-.527s-.15-.779-.819-.922l-.255-.053.058-.272,1.258-1.037-1.838-.387.068-.339,2.31.489-.056.262-1.285,1.066c.762.211,1.061.7.939,1.274" transform="translate(-6970.151 -3151.162)" fill="#fff"/>
      <path id="Trazado_905244" data-name="Trazado 905244" d="M318.591,62.153a1.139,1.139,0,0,1-1.459.843c-.954-.2-1.333-.973-1.093-2.1a1.739,1.739,0,0,1,2.843-1.146l-.211.266a1.274,1.274,0,0,0-.663-.317c-.774-.164-1.377.229-1.581,1.2a2.307,2.307,0,0,0-.046.294,1.174,1.174,0,0,1,1.226-.382,1.147,1.147,0,0,1,.985,1.343m-.366-.069c.1-.472-.186-.848-.74-.963a.849.849,0,0,0-1.074.535c-.006.018-.011.036-.016.053-.083.394.166.84.787.972a.805.805,0,0,0,1.011-.524q.009-.029.016-.058Z" transform="translate(-6972.594 -3151.806)" fill="#fff"/>
      <path id="Trazado_905245" data-name="Trazado 905245" d="M324.775,60.618l-.056.262-2.208,3.011-.4-.083,2.167-2.951-1.849-.392-.143.679-.364-.076.211-1.019Z" transform="translate(-6974.953 -3152.092)" fill="#fff"/>
      <path id="Trazado_905246" data-name="Trazado 905246" d="M333.261,62.424l-.056.262L331,65.7l-.4-.086,2.167-2.951-1.848-.389-.14.679-.367-.079.213-1Z" transform="translate(-6978.313 -3152.815)" fill="#fff"/>
      <path id="Trazado_905247" data-name="Trazado 905247" d="M338.237,66.36c-.134.635-.756.917-1.612.738s-1.3-.69-1.167-1.326a.912.912,0,0,1,.875-.748.823.823,0,0,1-.4-.909c.121-.588.7-.845,1.458-.686s1.188.634,1.068,1.232a.839.839,0,0,1-.743.669.925.925,0,0,1,.517,1.031m-.378-.085c.092-.442-.228-.8-.864-.935s-1.069.064-1.165.506.222.8.86.935,1.073-.061,1.165-.506Zm-.8-1.226c.561.117.947-.062,1.03-.453s-.215-.726-.745-.842-.94.062-1.022.458.181.719.738.837" transform="translate(-6980.3 -3153.412)" fill="#fff"/>
      <path id="Trazado_905248" data-name="Trazado 905248" d="M344.274,66.764a1.664,1.664,0,0,1-2.035,1.523,1.683,1.683,0,0,1-.811-.376l.211-.266a1.32,1.32,0,0,0,.662.317c.775.164,1.377-.229,1.585-1.2.016-.082.033-.187.046-.294a1.177,1.177,0,0,1-1.229.382,1.107,1.107,0,0,1-.981-1.333,1.153,1.153,0,0,1,1.459-.843c.954.19,1.329.96,1.093,2.095m-.36-.819c.086-.394-.165-.84-.784-.972a.805.805,0,0,0-1.019.51.86.86,0,0,0-.024.088c-.1.469.183.845.74.963A.845.845,0,0,0,343.9,66c.006-.018.011-.037.016-.056" transform="translate(-6982.674 -3153.908)" fill="#fff"/>
      <path id="Trazado_905249" data-name="Trazado 905249" d="M351.941,66.337l-.758,3.594-.37-.079.692-3.265-.846-.177.068-.339Z" transform="translate(-6986.329 -3154.476)" fill="#fff"/>
      <path id="Trazado_905250" data-name="Trazado 905250" d="M356.059,70.823l-.068.34-2.518-.542.056-.262,1.8-1.148c.49-.312.616-.538.672-.786.088-.414-.152-.732-.7-.846a1.237,1.237,0,0,0-1.064.193l-.213-.283a1.659,1.659,0,0,1,1.382-.243c.727.152,1.111.622.984,1.22a1.524,1.524,0,0,1-.829,1l-1.473.941Z" transform="translate(-6987.442 -3154.918)" fill="#fff"/>
      <path id="Trazado_905251" data-name="Trazado 905251" d="M361.55,71.144c-.127.6-.661.968-1.528.786a1.914,1.914,0,0,1-1.195-.737l.243-.253a1.6,1.6,0,0,0,1.023.65c.594.127.99-.093,1.076-.527s-.153-.778-.819-.922l-.255-.053.057-.275,1.258-1.034-1.838-.39.068-.339,2.31.486-.056.262L360.6,69.878c.772.207,1.063.689.948,1.266" transform="translate(-6989.562 -3155.26)" fill="#fff"/>
      <rect id="Rectángulo_405944" data-name="Rectángulo 405944" width="1.595" height="29.4" transform="matrix(0.207, -0.978, 0.978, 0.207, -6656.695, -3084.695)" fill="#fff"/>
      <rect id="Rectángulo_405945" data-name="Rectángulo 405945" width="1.594" height="15.078" transform="matrix(0.207, -0.978, 0.978, 0.207, -6643.337, -3078.618)" fill="#fff"/>
      <g id="Grupo_1112908" data-name="Grupo 1112908" transform="translate(-6683.417 -3110.198)" opacity="0.5">
        <g id="Grupo_1112907" data-name="Grupo 1112907">
          <g id="Grupo_1112906" data-name="Grupo 1112906" clip-path="url(#clip-path)">
            <path id="Trazado_905252" data-name="Trazado 905252" d="M274.845,30.032l8.811,1.9a1.638,1.638,0,0,1,1.257,1.946l-1.244,5.773a1.639,1.639,0,0,1-1.947,1.257l-8.811-1.9a1.639,1.639,0,0,1-1.257-1.947l1.244-5.773a1.638,1.638,0,0,1,1.946-1.257" transform="translate(-271.617 -29.995)" fill="#fafafa"/>
          </g>
        </g>
      </g>
      <path id="Trazado_905253" data-name="Trazado 905253" d="M272.85,37.494l.122-.578,6.214,1.311a1.329,1.329,0,0,0,.552-2.6l-6.217-1.314.122-.578,6.217,1.311a1.923,1.923,0,0,1-.8,3.761Z" transform="translate(-6955.523 -3141.675)" fill="#e0e0e0"/>
      <rect id="Rectángulo_405947" data-name="Rectángulo 405947" width="0.59" height="4.36" transform="translate(-6674.545 -3104.128) rotate(-78.013)" fill="#e0e0e0"/>
      <rect id="Rectángulo_405948" data-name="Rectángulo 405948" width="2.722" height="31.728" transform="matrix(0.207, -0.978, 0.978, 0.207, -6678.871, -3115.16)" fill="#fff"/>
      <path id="Trazado_905254" data-name="Trazado 905254" d="M358.842,31.2l4.2.888a1.044,1.044,0,0,1,.806,1.237l-.887,4.2a1.045,1.045,0,0,1-1.238.806l-4.2-.888a1.044,1.044,0,0,1-.806-1.238L357.6,32a1.045,1.045,0,0,1,1.238-.806" transform="translate(-6988.717 -3140.659)" fill="#fff"/>
      <path id="Trazado_905259" data-name="Trazado 905259" d="M436.974,212.518a16.755,16.755,0,1,1-6.228-22.833,16.736,16.736,0,0,1,6.228,22.833" transform="translate(-7008.114 -3202.535)" fill="#f5f5f5"/>
      <path id="Trazado_905260" data-name="Trazado 905260" d="M436.126,213.146a12.768,12.768,0,1,1-4.746-17.4,12.754,12.754,0,0,1,4.746,17.4" transform="translate(-7010.727 -3205.144)" fill="#ebebeb"/>
      <path id="Trazado_905261" data-name="Trazado 905261" d="M437.3,212.494a7.537,7.537,0,0,1,.471-1.5,13.55,13.55,0,0,0,.667-4.128,13.094,13.094,0,0,0-.313-2.854,12.794,12.794,0,0,0-1.133-3.078,12.532,12.532,0,0,0-2.116-2.927,12.2,12.2,0,0,0-1.435-1.266,12.441,12.441,0,0,0-3.468-1.846,12.386,12.386,0,0,0-1.852-.483,12.56,12.56,0,0,0-3.611-.12,12.8,12.8,0,0,0-3.185.782,13.115,13.115,0,0,0-2.541,1.334,13.538,13.538,0,0,0-3.049,2.862c-.616.787-.912,1.266-.98,1.228a3.749,3.749,0,0,1,.669-1.447,11.79,11.79,0,0,1,2.958-3.2,12.866,12.866,0,0,1,2.636-1.523,13.036,13.036,0,0,1,3.382-.925,12.45,12.45,0,0,1,1.9-.112,12.681,12.681,0,0,1,1.983.181,13.117,13.117,0,0,1,2,.506,14.24,14.24,0,0,1,1.952.844,13.978,13.978,0,0,1,1.789,1.148,13.045,13.045,0,0,1,1.538,1.377,13.016,13.016,0,0,1,2.229,3.184,12.792,12.792,0,0,1,1.334,6.359,11.83,11.83,0,0,1-1,4.244,3.731,3.731,0,0,1-.826,1.363" transform="translate(-7011.7 -3204.842)" fill="#e0e0e0"/>
      <path id="Trazado_905262" data-name="Trazado 905262" d="M425.733,217.223l-1.078,1.946-1.737-.962,1.049-1.893a9.41,9.41,0,0,1-3.555-3.786l2.129-1.59a8.032,8.032,0,0,0,2.687,3.1l1.607-2.9c-1.669-1.537-3.466-3.373-2.09-5.857,1.02-1.841,3.233-2.681,6.151-1.473l1.068-1.929,1.737.962-1.049,1.894a8.982,8.982,0,0,1,2.939,3.013l-2.052,1.656a8.136,8.136,0,0,0-2.157-2.376l-1.636,2.954c1.678,1.519,3.441,3.336,2.085,5.785-1,1.807-3.188,2.639-6.1,1.458m2.517-8.64,1.366-2.467c-1.036-.3-1.679,0-2,.573-.336.608,0,1.228.631,1.893m.669,5.842c.337-.608.016-1.217-.587-1.892L427,214.93c.974.291,1.606.051,1.914-.505" transform="translate(-7013.944 -3208.243)" fill="#e0e0e0"/>
      <path id="Trazado_905287" data-name="Trazado 905287" d="M355.631,88.083a19.5,19.5,0,1,1-24.767,12.126,19.5,19.5,0,0,1,24.767-12.126" transform="translate(-6978.072 -3162.772)" fill="#8454ee"/>
      <g id="Grupo_1112927" data-name="Grupo 1112927" transform="translate(-6648.056 -3075.751)" opacity="0.1">
        <g id="Grupo_1112926" data-name="Grupo 1112926">
          <g id="Grupo_1112925" data-name="Grupo 1112925" clip-path="url(#clip-path-2)">
            <path id="Trazado_905288" data-name="Trazado 905288" d="M352.109,87.2a19.489,19.489,0,0,0-21.954,16.663v.007s13.49,2.476,17.507-2.543S352.109,87.2,352.109,87.2" transform="translate(-330.154 -87.018)" fill="#fff"/>
          </g>
        </g>
      </g>
      <path id="Trazado_905289" data-name="Trazado 905289" d="M354.8,91.826a14.785,14.785,0,1,1-16.633,12.67A14.785,14.785,0,0,1,354.8,91.826" transform="translate(-6981.328 -3164.62)" fill="#8454ee"/>
      <g id="Grupo_1112930" data-name="Grupo 1112930" transform="translate(-6643.298 -3072.928)" opacity="0.2">
        <g id="Grupo_1112929" data-name="Grupo 1112929">
          <g id="Grupo_1112928" data-name="Grupo 1112928" clip-path="url(#clip-path-3)">
            <path id="Trazado_905290" data-name="Trazado 905290" d="M354.8,91.826a14.785,14.785,0,1,1-16.633,12.67A14.785,14.785,0,0,1,354.8,91.826" transform="translate(-338.03 -91.691)"/>
          </g>
        </g>
      </g>
      <path id="Trazado_905291" data-name="Trazado 905291" d="M367.44,112.289a14.625,14.625,0,1,1-12.514-16.467h.013a14.626,14.626,0,0,1,12.5,16.466" transform="translate(-6981.444 -3166.201)" fill="#8454ee"/>
      <g id="Grupo_1112933" data-name="Grupo 1112933" transform="translate(-6643.121 -3070.516)" opacity="0.2">
        <g id="Grupo_1112932" data-name="Grupo 1112932">
          <g id="Grupo_1112931" data-name="Grupo 1112931" clip-path="url(#clip-path-4)">
            <path id="Trazado_905292" data-name="Trazado 905292" d="M367.44,112.289a14.625,14.625,0,1,1-12.514-16.467h.013a14.626,14.626,0,0,1,12.5,16.466" transform="translate(-338.323 -95.685)" fill="#fff"/>
          </g>
        </g>
      </g>
      <path id="Trazado_905293" data-name="Trazado 905293" d="M359.294,112.464l.509-3.7a7.835,7.835,0,0,1,1.9.787,6.417,6.417,0,0,1,.84.712l.062-.113.756-1.255.162-.294-.564-.783-.339.094a7.053,7.053,0,0,0-2.567-1.134l.277-2.043-.564-.6-.07.51-.869-.115-.289,2.075c-2.9-.119-4.5,1.351-4.745,3.2-.348,2.553,1.745,3.515,3.718,4.29l-.505,3.673a7.093,7.093,0,0,1-3.476-1.916l-1.081,1.741a8.084,8.084,0,0,0,4.288,2.146l-.21,1.538-.72-.084.65.582,1.513.2.286-2.058c2.923.1,4.527-1.335,4.782-3.2.356-2.523-1.777-3.469-3.748-4.249m-1.45-.588c-1.022-.462-1.757-.969-1.639-1.855s.767-1.39,2.083-1.405Zm.7,6.066.446-3.252c1.06.463,1.812,1,1.688,1.894-.112.794-.764,1.34-2.134,1.358" transform="translate(-6987.039 -3169.546)" fill="#8454ee"/>
      <g id="Grupo_1112936" data-name="Grupo 1112936" transform="translate(-6634.585 -3065.412)" opacity="0.3">
        <g id="Grupo_1112935" data-name="Grupo 1112935">
          <g id="Grupo_1112934" data-name="Grupo 1112934" clip-path="url(#clip-path-5)">
            <path id="Trazado_905294" data-name="Trazado 905294" d="M359.294,112.464l.509-3.7a7.835,7.835,0,0,1,1.9.787,6.417,6.417,0,0,1,.84.712l.062-.113.756-1.255.162-.294-.564-.783-.339.094a7.053,7.053,0,0,0-2.567-1.134l.277-2.043-.564-.6-.07.51-.869-.115-.289,2.075c-2.9-.119-4.5,1.351-4.745,3.2-.348,2.553,1.745,3.515,3.718,4.29l-.505,3.673a7.093,7.093,0,0,1-3.476-1.916l-1.081,1.741a8.084,8.084,0,0,0,4.288,2.146l-.21,1.538-.72-.084.65.582,1.513.2.286-2.058c2.923.1,4.527-1.335,4.782-3.2.356-2.523-1.777-3.469-3.748-4.249m-1.45-.588c-1.022-.462-1.757-.969-1.639-1.855s.767-1.39,2.083-1.405Zm.7,6.066.446-3.252c1.06.463,1.812,1,1.688,1.894-.112.794-.764,1.34-2.134,1.358" transform="translate(-352.453 -104.134)"/>
          </g>
        </g>
      </g>
      <path id="Trazado_905295" data-name="Trazado 905295" d="M357.357,119.237l-.28,2.061-1.513-.2.282-2.04a8.063,8.063,0,0,1-4.3-2.145l1.08-1.74a7.151,7.151,0,0,0,3.477,1.916l.505-3.673c-1.971-.78-4.064-1.742-3.711-4.293.256-1.876,1.832-3.324,4.74-3.2l.289-2.075,1.513.2-.282,2.041a7.937,7.937,0,0,1,3.571,1.629l-1.011,1.754a7.718,7.718,0,0,0-2.839-1.405l-.51,3.715c1.974.775,4.107,1.722,3.752,4.277-.24,1.859-1.833,3.292-4.767,3.182m-.424-8.067.451-3.274c-1.334.024-1.976.608-2.058,1.418s.582,1.4,1.607,1.856m2.833,4.716c.121-.9-.625-1.437-1.685-1.9l-.446,3.252c1.365-.021,2.022-.564,2.131-1.353" transform="translate(-6986.681 -3169.433)" fill="#8454ee"/>
      <path id="Trazado_905296" data-name="Trazado 905296" d="M355.126,113.043a1.272,1.272,0,0,1-.371-.485,2.337,2.337,0,0,1-.22-1.443,2.3,2.3,0,0,1,.707-1.283,1.192,1.192,0,0,1,.52-.352,3.839,3.839,0,0,0-.431.4,2.42,2.42,0,0,0-.631,1.235,2.474,2.474,0,0,0,.175,1.374,5.6,5.6,0,0,0,.251.553" transform="translate(-6987.85 -3171.663)" fill="#fff"/>
      <path id="Trazado_905297" data-name="Trazado 905297" d="M362.229,106.009a1.4,1.4,0,0,1,.02-.627c.057-.346.1-.582.154-.592s.031.279-.02.627-.114.6-.154.592" transform="translate(-6990.899 -3169.805)" fill="#fff"/>
      <path id="Trazado_905343" data-name="Trazado 905343" d="M372.6,175.609V120.1a3.4,3.4,0,0,0-3.4-3.4H283.519a3.4,3.4,0,0,0-3.4,3.4v55.508a3.4,3.4,0,0,0,3.4,3.4H369.2a3.4,3.4,0,0,0,3.4-3.4" transform="translate(-6958.402 -3174.522)" fill="#fff"/>
      <path id="Trazado_905344" data-name="Trazado 905344" d="M368.714,193.689H283.371a3.5,3.5,0,0,1-3.5-3.5V153.378h92.753v36.4a3.91,3.91,0,0,1-3.91,3.91" transform="translate(-6958.303 -3189.042)" fill="#e0e0e0"/>
      <path id="Trazado_905345" data-name="Trazado 905345" d="M420.048,203.332H407.737v-25.6h15.38v22.527a3.07,3.07,0,0,1-3.069,3.069" transform="translate(-7008.926 -3198.686)" fill="#8454ee"/>
      <rect id="Rectángulo_405971" data-name="Rectángulo 405971" width="45.917" height="11.089" transform="translate(-6661.262 -3006.442)" fill="#f5f5f5"/>
      <path id="Trazado_905346" data-name="Trazado 905346" d="M348.343,186.284v.488l-2.032,4.538h-.761l1.989-4.4h-2.3v.9h-.689v-1.522Z" transform="translate(-6983.911 -3202.07)" fill="#263238"/>
      <path id="Trazado_905347" data-name="Trazado 905347" d="M373.1,189.851c0,.912-.776,1.479-2,1.479s-1.989-.567-1.989-1.479a1.246,1.246,0,0,1,.883-1.214,1.137,1.137,0,0,1-.7-1.084c0-.84.725-1.364,1.81-1.364s1.824.524,1.824,1.364a1.144,1.144,0,0,1-.711,1.084,1.25,1.25,0,0,1,.89,1.214m-.718-.022c0-.553-.488-.9-1.285-.9s-1.271.345-1.271.9.474.919,1.271.919,1.285-.352,1.285-.919M370,187.582c0,.5.409.8,1.1.8s1.12-.309,1.12-.8-.445-.811-1.12-.811-1.1.309-1.1.811" transform="translate(-6993.631 -3202.032)" fill="#263238"/>
      <path id="Trazado_905348" data-name="Trazado 905348" d="M294.151,207.894a2.318,2.318,0,0,1-2.377,2.635,2.424,2.424,0,0,1-1.249-.294l.272-.56a1.771,1.771,0,0,0,.97.237c1.02,0,1.665-.639,1.665-1.9v-.179a1.676,1.676,0,0,1-1.45.66,1.546,1.546,0,0,1-1.716-1.522,1.619,1.619,0,0,1,1.773-1.586c1.35,0,2.111.9,2.111,2.506m-.883-.955c0-.516-.416-.969-1.2-.969a.988.988,0,0,0-1.105.976c0,.589.438.97,1.142.97a1.045,1.045,0,0,0,1.163-.977" transform="translate(-6962.418 -3209.633)" fill="#263238"/>
      <path id="Trazado_905349" data-name="Trazado 905349" d="M372.87,167.574h-.955v1.235h-.7v-1.235h-2.793v-.5l2.57-3.288h.776l-2.463,3.173h1.931v-1.092h.675v1.092h.955Z" transform="translate(-6993.362 -3193.161)" fill="#263238"/>
      <path id="Trazado_905350" data-name="Trazado 905350" d="M294.128,188.177c0,.869-.617,1.565-1.9,1.565a2.878,2.878,0,0,1-1.845-.61l.33-.567a2.256,2.256,0,0,0,1.507.538c.761,0,1.192-.352,1.192-.9,0-.567-.359-.919-1.522-.919h-1.142l.266-2.628h2.836v.625h-2.233l-.137,1.379h.56c1.5,0,2.09.625,2.09,1.515" transform="translate(-6962.463 -3201.427)" fill="#263238"/>
      <path id="Trazado_905351" data-name="Trazado 905351" d="M321.647,188.084a1.626,1.626,0,0,1-1.781,1.587c-1.35,0-2.111-.9-2.111-2.506a2.318,2.318,0,0,1,2.376-2.635,2.418,2.418,0,0,1,1.249.295l-.273.56a1.743,1.743,0,0,0-.962-.237c-1.02,0-1.673.639-1.673,1.9a1.543,1.543,0,0,0,.007.179,1.673,1.673,0,0,1,1.443-.66,1.553,1.553,0,0,1,1.723,1.522m-.7.029c0-.589-.445-.969-1.149-.969a1.042,1.042,0,0,0-1.156.976c0,.517.416.97,1.192.97a1,1,0,0,0,1.113-.977" transform="translate(-6973.301 -3201.375)" fill="#263238"/>
      <path id="Trazado_905352" data-name="Trazado 905352" d="M293.646,163.286v5.026h-.711v-4.4H291.8v-.625Z" transform="translate(-6963.025 -3192.965)" fill="#263238"/>
      <path id="Trazado_905353" data-name="Trazado 905353" d="M322.17,168.194v.625h-3.611v-.488l2.046-1.975c.532-.517.632-.832.632-1.148,0-.517-.366-.833-1.07-.833a1.58,1.58,0,0,0-1.286.546l-.488-.423a2.318,2.318,0,0,1,1.838-.761c1.048,0,1.723.539,1.723,1.4a2.036,2.036,0,0,1-.825,1.58l-1.537,1.479Z" transform="translate(-6973.554 -3193.143)" fill="#263238"/>
      <path id="Trazado_905354" data-name="Trazado 905354" d="M347.313,167.282c0,.848-.625,1.537-1.9,1.537a2.849,2.849,0,0,1-1.845-.611l.33-.567a2.261,2.261,0,0,0,1.515.538c.754,0,1.185-.344,1.185-.89s-.381-.877-1.242-.877h-.4v-.5l1.263-1.551h-2.419v-.625h3.317v.488l-1.314,1.623c1.005.093,1.515.66,1.515,1.436" transform="translate(-6983.52 -3193.143)" fill="#263238"/>
      <path id="Trazado_905355" data-name="Trazado 905355" d="M343.607,210.3c0-1.636.876-2.57,2.053-2.57s2.047.934,2.047,2.57-.877,2.57-2.047,2.57-2.053-.933-2.053-2.57m3.382,0c0-1.285-.545-1.931-1.328-1.931s-1.335.646-1.335,1.931.546,1.931,1.335,1.931,1.328-.646,1.328-1.931" transform="translate(-6983.536 -3210.562)" fill="#263238"/>
      <path id="Trazado_905356" data-name="Trazado 905356" d="M396.753,211.218a1.459,1.459,0,0,1,.122-.517l.338-1h.452l-.266,1.07a.456.456,0,0,1,.3.445.469.469,0,0,1-.481.488.463.463,0,0,1-.467-.488" transform="translate(-7004.577 -3211.342)" fill="#263238"/>
      <rect id="Rectángulo_405972" data-name="Rectángulo 405972" width="4.903" height="0.516" transform="translate(-6595.95 -3010.423)" fill="#263238"/>
      <rect id="Rectángulo_405973" data-name="Rectángulo 405973" width="4.903" height="0.516" transform="translate(-6595.95 -3008.868)" fill="#263238"/>
      <rect id="Rectángulo_405974" data-name="Rectángulo 405974" width="3.671" height="0.387" transform="translate(-6594.762 -3027.059)" fill="#263238"/>
      <path id="Trazado_905357" data-name="Trazado 905357" d="M422.111,168.074h-4.049v-.764h4.049Zm-3.67-.378,3.293-.009Z" transform="translate(-7013.014 -3194.558)" fill="#263238"/>
      <rect id="Rectángulo_405975" data-name="Rectángulo 405975" width="0.387" height="3.671" transform="translate(-6593.12 -3028.701)" fill="#263238"/>
      <path id="Trazado_905358" data-name="Trazado 905358" d="M421.545,168.64h-.764v-4.049h.764Zm-.386-.378h.008l-.008-3.293Z" transform="translate(-7014.09 -3193.481)" fill="#263238"/>
      <path id="Trazado_905359" data-name="Trazado 905359" d="M397.141,188.594l-.54-.541-1.162,1.162-1.161-1.162-.541.541,1.161,1.162-1.161,1.161.541.54,1.161-1.161,1.161,1.161.541-.541-1.161-1.161Z" transform="translate(-7003.383 -3202.771)" fill="#263238"/>
      <rect id="Rectángulo_405976" data-name="Rectángulo 405976" width="3.671" height="0.387" transform="translate(-6609.512 -3027.059)" fill="#263238"/>
      <path id="Trazado_905360" data-name="Trazado 905360" d="M397.695,168.074h-4.049v-.764h4.049Zm-3.67-.378,3.293-.009Z" transform="translate(-7003.347 -3194.558)" fill="#263238"/>
      <path id="Trazado_905361" data-name="Trazado 905361" d="M375.957,129.408v9.421h-.687v-8.8h-2.3v-.619Z" transform="translate(-6995.161 -3179.552)" fill="#263238"/>
      <path id="Trazado_905362" data-name="Trazado 905362" d="M388.145,129.408v.484l-4.051,8.936h-.753l4.01-8.8h-5.289v1.8h-.673v-2.422Z" transform="translate(-6998.495 -3179.552)" fill="#263238"/>
      <path id="Trazado_905363" data-name="Trazado 905363" d="M400.284,136.177c0,1.562-1.13,2.718-3.3,2.718a4.529,4.529,0,0,1-3.324-1.265l.35-.525a4.013,4.013,0,0,0,2.974,1.157c1.7,0,2.6-.807,2.6-2.086s-.861-2.087-2.745-2.087h-.593v-.5l2.785-3.566h-5.019v-.619h5.908v.484l-2.827,3.62c2.14.054,3.19,1.13,3.19,2.665" transform="translate(-7003.354 -3179.552)" fill="#263238"/>
      <path id="Trazado_905364" data-name="Trazado 905364" d="M414.071,136.2c0,1.642-1.359,2.651-3.58,2.651s-3.553-1.009-3.553-2.651a2.363,2.363,0,0,1,2.006-2.342,2.153,2.153,0,0,1-1.669-2.126c0-1.507,1.265-2.436,3.217-2.436s3.243.928,3.243,2.436a2.163,2.163,0,0,1-1.7,2.126,2.386,2.386,0,0,1,2.032,2.342m-.686,0c0-1.252-1.077-2.046-2.894-2.046s-2.867.794-2.867,2.046,1.05,2.059,2.867,2.059,2.894-.794,2.894-2.059m-2.894-2.611c1.6,0,2.557-.713,2.557-1.83,0-1.157-1-1.871-2.557-1.871s-2.53.713-2.53,1.858.928,1.844,2.53,1.844" transform="translate(-7008.609 -3179.508)" fill="#263238"/>
      <path id="Trazado_905365" data-name="Trazado 905365" d="M289.576,123.528a1.5,1.5,0,1,1-1.08-1.08,1.5,1.5,0,0,1,1.08,1.08" transform="translate(-6960.977 -3176.779)" fill="#e0e0e0"/>
      <path id="Trazado_905366" data-name="Trazado 905366" d="M297.931,123.528a1.5,1.5,0,1,1-1.079-1.08,1.5,1.5,0,0,1,1.079,1.08" transform="translate(-6964.285 -3176.779)" fill="#e0e0e0"/>
      <path id="Trazado_905367" data-name="Trazado 905367" d="M305.6,123.528a1.5,1.5,0,1,1-1.08-1.08,1.5,1.5,0,0,1,1.08,1.08" transform="translate(-6967.321 -3176.779)" fill="#e0e0e0"/>
      <path id="Trazado_905368" data-name="Trazado 905368" d="M279.968,175.6s.008.069.016.2a3.44,3.44,0,0,0,.088.6,3.48,3.48,0,0,0,1.208,1.939,3.11,3.11,0,0,0,1.5.661,5.893,5.893,0,0,0,.953.037l1.045,0,5-.012,31.885-.042,47.289-.029a3.157,3.157,0,0,0,2.819-1.392,3.467,3.467,0,0,0,.582-1.592c.039-.57.01-1.192.019-1.788q0-3.614,0-7.309,0-7.388,0-15.074c0-10.239,0-20.84,0-31.7a3.369,3.369,0,0,0-1.918-3.081,3.253,3.253,0,0,0-.886-.246c-.3-.03-.622-.022-.94-.022h-9.462l-14.774,0-27.93-.008-25.274-.012-5.833,0h-1.426a5.707,5.707,0,0,0-1.383.086,3.245,3.245,0,0,0-2.091,1.67,3.5,3.5,0,0,0-.376,1.338c-.027.463-.008.954-.014,1.426q0,1.427,0,2.824,0,2.794,0,5.463c-.017,14.231-.031,25.747-.04,33.711-.01,3.977-.018,7.066-.024,9.165-.005,1.045-.01,1.842-.013,2.384s-.013.812-.013.812-.008-.275-.013-.812-.007-1.339-.013-2.384c-.005-2.1-.013-5.188-.024-9.165-.01-7.963-.024-19.48-.04-33.711q0-2.669,0-5.463,0-1.4,0-2.824c.006-.479-.014-.946.013-1.442a3.721,3.721,0,0,1,.4-1.421A3.446,3.446,0,0,1,282.5,116.6a5.884,5.884,0,0,1,1.427-.093h1.426l5.833,0,25.274-.012,27.93-.008,14.774,0h9.462c.317,0,.634-.008.968.024a3.477,3.477,0,0,1,.957.266,3.637,3.637,0,0,1,2.071,3.326c0,10.858,0,21.459,0,31.7q0,7.679,0,15.074,0,3.694,0,7.309c-.01.608.021,1.19-.022,1.814a3.726,3.726,0,0,1-.626,1.711,3.39,3.39,0,0,1-3.009,1.493l-47.289-.028-31.885-.042-5-.013-1.045,0a5.966,5.966,0,0,1-.962-.043,3.161,3.161,0,0,1-1.525-.685,3.488,3.488,0,0,1-1.2-1.975,3.217,3.217,0,0,1-.077-.6c0-.136,0-.2,0-.2" transform="translate(-6958.303 -3174.435)" fill="#263238"/>
      <path id="Trazado_905369" data-name="Trazado 905369" d="M308.19,194.1c-.087,0-.157-8.955-.157-20s.07-20,.157-20,.157,8.953.157,20-.07,20-.157,20" transform="translate(-6969.452 -3189.327)" fill="#263238"/>
      <path id="Trazado_905370" data-name="Trazado 905370" d="M334.07,182.886c-.087,0-.157-6.444-.157-14.393s.07-14.394.157-14.394.157,6.444.157,14.394-.07,14.393-.157,14.393" transform="translate(-6979.698 -3189.327)" fill="#263238"/>
      <path id="Trazado_905371" data-name="Trazado 905371" d="M359.8,182.886c-.087,0-.157-6.444-.157-14.393s.07-14.394.157-14.394.157,6.444.157,14.394-.07,14.393-.157,14.393" transform="translate(-6989.885 -3189.327)" fill="#263238"/>
      <path id="Trazado_905372" data-name="Trazado 905372" d="M384.2,194.077c-.087,0-.157-8.95-.157-19.988s.07-19.99.157-19.99.157,8.948.157,19.99-.07,19.988-.157,19.988" transform="translate(-6999.546 -3189.327)" fill="#263238"/>
      <path id="Trazado_905373" data-name="Trazado 905373" d="M407.635,194.077c-.087,0-.157-8.95-.157-19.988s.07-19.99.157-19.99.157,8.948.157,19.99-.07,19.988-.157,19.988" transform="translate(-7008.823 -3189.327)" fill="#263238"/>
      <path id="Trazado_905374" data-name="Trazado 905374" d="M280.43,178.029c0-.087,20.613-.157,46.034-.157s46.04.07,46.04.157-20.609.157-46.04.157-46.034-.07-46.034-.157" transform="translate(-6958.523 -3198.74)" fill="#263238"/>
      <path id="Trazado_905375" data-name="Trazado 905375" d="M280.43,201.857c0-.087,17.217-.158,38.451-.158s38.454.071,38.454.158-17.214.157-38.454.157-38.451-.07-38.451-.157" transform="translate(-6958.523 -3208.173)" fill="#263238"/>
    </g>
    <g id="Grupo_1113892" data-name="Grupo 1113892" transform="translate(7854.051 11419)">
      <path id="Trazado_905255" data-name="Trazado 905255" d="M365.165,339.216a21.172,21.172,0,1,1-7.869-28.854,21.15,21.15,0,0,1,7.869,28.854" transform="translate(-6966.06 -3201.782)" fill="#f5f5f5"/>
      <path id="Trazado_905256" data-name="Trazado 905256" d="M362.354,338.27a16.135,16.135,0,1,1-6-21.988,16.116,16.116,0,0,1,6,21.988" transform="translate(-6967.621 -3203.341)" fill="#ebebeb"/>
      <path id="Trazado_905257" data-name="Trazado 905257" d="M363.184,337.649a9.535,9.535,0,0,1,.595-1.9,17.12,17.12,0,0,0,.844-5.216,16.548,16.548,0,0,0-.4-3.606,16.153,16.153,0,0,0-1.431-3.89,15.833,15.833,0,0,0-2.674-3.7,15.559,15.559,0,0,0-1.813-1.6,15.775,15.775,0,0,0-4.382-2.333,15.742,15.742,0,0,0-2.34-.61,15.83,15.83,0,0,0-4.563-.15,16.168,16.168,0,0,0-4.025.988,16.576,16.576,0,0,0-3.211,1.687,17.124,17.124,0,0,0-3.853,3.614c-.778.995-1.153,1.6-1.239,1.553a4.737,4.737,0,0,1,.845-1.828,14.91,14.91,0,0,1,3.737-4.049,16.294,16.294,0,0,1,3.331-1.924,16.474,16.474,0,0,1,4.274-1.169,15.537,15.537,0,0,1,2.4-.141,15.84,15.84,0,0,1,2.505.229,16.487,16.487,0,0,1,2.53.64,16.542,16.542,0,0,1,4.728,2.516,16.485,16.485,0,0,1,1.943,1.74,16.442,16.442,0,0,1,2.817,4.023,16.169,16.169,0,0,1,1.685,8.036,14.942,14.942,0,0,1-1.268,5.363,4.753,4.753,0,0,1-1.044,1.723" transform="translate(-6968.203 -3203.16)" fill="#e0e0e0"/>
      <path id="Trazado_905258" data-name="Trazado 905258" d="M347.077,341.358l-1.362,2.459L343.52,342.6l1.325-2.392a11.891,11.891,0,0,1-4.492-4.784l2.69-2.009a10.15,10.15,0,0,0,3.4,3.918l2.03-3.666c-2.108-1.942-4.38-4.262-2.641-7.4,1.289-2.327,4.085-3.388,7.772-1.862l1.35-2.437,2.2,1.216-1.325,2.393a11.357,11.357,0,0,1,3.714,3.807l-2.593,2.093a10.281,10.281,0,0,0-2.726-3l-2.067,3.733c2.121,1.919,4.348,4.216,2.634,7.311-1.265,2.283-4.028,3.334-7.705,1.842m3.18-10.918,1.726-3.117c-1.309-.381-2.122,0-2.524.725-.425.768,0,1.55.8,2.392m.845,7.382c.426-.769.02-1.538-.741-2.391l-1.678,3.029c1.231.367,2.03.064,2.419-.638" transform="translate(-6969.544 -3205.193)" fill="#e0e0e0"/>
      <path id="Trazado_905333" data-name="Trazado 905333" d="M409.316,258.083l-51.706-8.3a4.79,4.79,0,0,0-5.489,3.97l-8.3,51.706a4.79,4.79,0,0,0,3.97,5.488l1.546.248,14.388,2.31,35.772,5.742a4.791,4.791,0,0,0,5.489-3.971l8.3-51.7a4.79,4.79,0,0,0-3.97-5.489" transform="translate(-6970.351 -3188.097)" fill="#fff"/>
      <path id="Trazado_905334" data-name="Trazado 905334" d="M351.647,268.312l61.165,9.818,2.4-14.927a4.442,4.442,0,0,0-3.681-5.089l-52.574-8.438a4.26,4.26,0,0,0-4.882,3.531Z" transform="translate(-6972.217 -3188.073)" fill="#8454ee"/>
      <path id="Trazado_905335" data-name="Trazado 905335" d="M381.787,289.506,378.449,310.3l-4.812-.772,2.718-16.931-4.159-.668.62-3.861Z" transform="translate(-6977.08 -3197.171)" fill="#263238"/>
      <path id="Trazado_905336" data-name="Trazado 905336" d="M405.3,293.308l-.5,3.119-10.56,16.433-5.227-.839,10.164-15.675-6.892-1.106-.543,3.386-4.277-.686,1.173-7.308Z" transform="translate(-6980.693 -3197.778)" fill="#263238"/>
      <path id="Trazado_905337" data-name="Trazado 905337" d="M382.277,267.79c-.018.108,4.171.87,9.354,1.7s9.4,1.419,9.417,1.311-4.169-.87-9.355-1.7-9.4-1.419-9.417-1.311" transform="translate(-6979.465 -3192.369)" fill="#263238"/>
      <path id="Trazado_905338" data-name="Trazado 905338" d="M409.264,258.04a4.235,4.235,0,0,1,.606.124,4.586,4.586,0,0,1,1.619.817,4.825,4.825,0,0,1,1.831,4.3c-.079.673-.208,1.373-.32,2.124-.95,6-2.321,14.655-4.015,25.355-.853,5.352-1.787,11.214-2.789,17.505l-.766,4.8c-.137.815-.246,1.627-.408,2.463a4.9,4.9,0,0,1-1.181,2.287,4.956,4.956,0,0,1-2.213,1.386,5.331,5.331,0,0,1-2.639.084l-5.239-.837-46.032-7.375a4.986,4.986,0,0,1-4.137-4.277,5.325,5.325,0,0,1,.048-1.57l.241-1.5.481-2.993q.96-5.964,1.888-11.744c1.24-7.7,2.435-15.126,3.574-22.2q.855-5.306,1.666-10.338.2-1.256.4-2.495a6.351,6.351,0,0,1,.3-1.24,4.926,4.926,0,0,1,4.943-3.159c6.322.975,12.159,1.952,17.516,2.809l25.336,4.121,6.885,1.137,1.789.3c.4.071.608.115.608.115s-.208-.021-.613-.081l-1.795-.271-6.9-1.075L374.608,252.6c-5.347-.84-11.224-1.808-17.5-2.766a4.735,4.735,0,0,0-2.275.425,4.709,4.709,0,0,0-2.377,2.557,6.02,6.02,0,0,0-.287,1.183q-.2,1.238-.4,2.5-.8,5.028-1.653,10.34c-1.133,7.076-2.321,14.5-3.554,22.2q-.925,5.774-1.882,11.745-.239,1.491-.48,2.993a11.441,11.441,0,0,0-.287,2.979,4.647,4.647,0,0,0,3.856,3.985l46.027,7.4,5.238.844a5.024,5.024,0,0,0,2.5-.072,4.612,4.612,0,0,0,3.194-3.447c.157-.8.273-1.639.408-2.447q.394-2.438.775-4.8c1.017-6.29,1.965-12.149,2.83-17.5,1.74-10.692,3.147-19.346,4.121-25.337.117-.747.252-1.455.334-2.115a4.7,4.7,0,0,0-.157-1.841,4.763,4.763,0,0,0-1.6-2.395,4.7,4.7,0,0,0-1.586-.837,4.5,4.5,0,0,0-.446-.117c-.1-.024-.151-.041-.151-.041" transform="translate(-6970.299 -3188.054)" fill="#263238"/>
      <path id="Trazado_905339" data-name="Trazado 905339" d="M381.662,259.273l.132.021a1.95,1.95,0,0,0,2.234-1.616l1.6-9.966a1.949,1.949,0,0,0-1.615-2.234l-.132-.021a1.948,1.948,0,0,0-2.233,1.615l-1.6,9.966a1.949,1.949,0,0,0,1.615,2.234" transform="translate(-6978.932 -3187.082)" fill="#e0e0e0"/>
      <path id="Trazado_905340" data-name="Trazado 905340" d="M381.628,259.212a2.5,2.5,0,0,1-1.056-.647,1.883,1.883,0,0,1-.47-1.317c.06-.553.208-1.231.324-1.953.25-1.48.543-3.212.866-5.124.159-.967.325-1.979.5-3.027a1.766,1.766,0,0,1,2.157-1.529,1.761,1.761,0,0,1,1.211.808,1.849,1.849,0,0,1,.207,1.43c-.164,1.05-.323,2.064-.475,3.032-.292,1.918-.556,3.654-.782,5.138l-.153,1.044a5.113,5.113,0,0,1-.169.9,1.9,1.9,0,0,1-.934,1.043,2.574,2.574,0,0,1-1.224.2.846.846,0,0,0,.327.082,1.93,1.93,0,0,0,.961-.145,2.049,2.049,0,0,0,1.076-1.1,5.1,5.1,0,0,0,.21-.94c.058-.331.118-.678.182-1.04.25-1.48.543-3.212.866-5.124.159-.967.325-1.979.5-3.028a2.242,2.242,0,0,0-.256-1.7,2.154,2.154,0,0,0-1.484-.992,2.153,2.153,0,0,0-2.6,1.859c-.165,1.05-.324,2.063-.476,3.031-.292,1.917-.556,3.653-.782,5.137-.1.74-.223,1.377-.268,1.993a2.021,2.021,0,0,0,.579,1.427,1.878,1.878,0,0,0,.835.5.744.744,0,0,0,.334.044" transform="translate(-6978.898 -3187.021)" fill="#263238"/>
      <path id="Trazado_905341" data-name="Trazado 905341" d="M406.122,263.2l.132.021a1.949,1.949,0,0,0,2.233-1.616l1.6-9.966a1.95,1.95,0,0,0-1.615-2.234l-.132-.021A1.949,1.949,0,0,0,406.106,251l-1.6,9.966a1.948,1.948,0,0,0,1.615,2.234" transform="translate(-6984.72 -3188.011)" fill="#e0e0e0"/>
      <path id="Trazado_905342" data-name="Trazado 905342" d="M406.089,263.139a2.49,2.49,0,0,1-1.056-.647,1.88,1.88,0,0,1-.47-1.317c.06-.553.207-1.231.324-1.953.25-1.48.543-3.212.866-5.124.159-.967.325-1.979.5-3.027a1.766,1.766,0,0,1,2.156-1.529,1.764,1.764,0,0,1,1.212.808,1.849,1.849,0,0,1,.207,1.43c-.164,1.05-.323,2.064-.475,3.032-.292,1.918-.556,3.654-.782,5.138l-.153,1.044a5.111,5.111,0,0,1-.169.9,1.906,1.906,0,0,1-.934,1.043,2.574,2.574,0,0,1-1.224.2.863.863,0,0,0,.327.082,1.932,1.932,0,0,0,.962-.145,2.049,2.049,0,0,0,1.076-1.1,5.1,5.1,0,0,0,.21-.94c.058-.331.118-.678.182-1.04.25-1.48.542-3.212.865-5.124.16-.967.326-1.979.5-3.028a2.238,2.238,0,0,0-.255-1.7,2.154,2.154,0,0,0-1.484-.992,2.154,2.154,0,0,0-2.6,1.859c-.164,1.05-.323,2.063-.475,3.031-.292,1.917-.556,3.653-.782,5.137-.1.74-.224,1.377-.268,1.993a2.018,2.018,0,0,0,.579,1.427,1.878,1.878,0,0,0,.835.5.744.744,0,0,0,.334.044" transform="translate(-6984.687 -3187.95)" fill="#263238"/>
    </g>
    <g id="Enmascarar_grupo_1098740" data-name="Enmascarar grupo 1098740" clip-path="url(#clip-path-6)">
      <g id="Grupo_1113893" data-name="Grupo 1113893" transform="translate(934.419 8493.514)">
        <path id="Trazado_905271" data-name="Trazado 905271" d="M16.028,364.834A28.706,28.706,0,1,0,26.7,325.714a28.673,28.673,0,0,0-10.67,39.119" transform="translate(336.987 -34.336)" fill="#f5f5f5"/>
        <path id="Trazado_905272" data-name="Trazado 905272" d="M20.671,360.157a21.875,21.875,0,1,0,8.13-29.812,21.849,21.849,0,0,0-8.13,29.812" transform="translate(338.27 -33.054)" fill="#ebebeb"/>
        <path id="Trazado_905273" data-name="Trazado 905273" d="M23.013,359.708a13.029,13.029,0,0,0-.807-2.57,23.25,23.25,0,0,1-1.144-7.071,22.463,22.463,0,0,1,.537-4.889A21.9,21.9,0,0,1,23.54,339.9a20.145,20.145,0,0,1,1.594-2.587,20.448,20.448,0,0,1,2.031-2.428,21.351,21.351,0,0,1,2.458-2.167,21.4,21.4,0,0,1,5.942-3.163,21.42,21.42,0,0,1,3.172-.827,21.479,21.479,0,0,1,6.186-.2,21.968,21.968,0,0,1,5.458,1.339,22.392,22.392,0,0,1,4.353,2.288,23.194,23.194,0,0,1,5.223,4.9c1.055,1.347,1.563,2.169,1.68,2.1a6.385,6.385,0,0,0-1.145-2.479,20.252,20.252,0,0,0-5.066-5.49A21.91,21.91,0,0,0,45.113,327a22.226,22.226,0,0,0-6.656.119,22.183,22.183,0,0,0-3.43.867,22.4,22.4,0,0,0-6.41,3.411,22.213,22.213,0,0,0-2.635,2.36,21.418,21.418,0,0,0-2.156,2.643,21.179,21.179,0,0,0-1.663,2.81,21.911,21.911,0,0,0-2.286,10.9,20.261,20.261,0,0,0,1.719,7.271,6.433,6.433,0,0,0,1.416,2.336" transform="translate(335.592 -33.203)" fill="#e0e0e0"/>
        <path id="Trazado_905274" data-name="Trazado 905274" d="M41.5,360.31l1.846,3.334,2.975-1.649-1.8-3.244a16.137,16.137,0,0,0,6.091-6.485l-3.648-2.725a13.743,13.743,0,0,1-4.6,5.311l-2.754-4.97c2.86-2.633,5.939-5.778,3.581-10.034-1.747-3.155-5.539-4.594-10.537-2.525l-1.831-3.3-2.977,1.649,1.8,3.245a15.393,15.393,0,0,0-5.036,5.161l3.516,2.837a13.924,13.924,0,0,1,3.7-4.071l2.8,5.06c-2.876,2.6-5.9,5.717-3.571,9.912,1.714,3.095,5.46,4.521,10.445,2.5m-4.311-14.8-2.34-4.227c1.775-.516,2.878,0,3.422.983.576,1.042,0,2.1-1.082,3.244m-1.145,10.008c-.578-1.042-.027-2.085,1-3.241l2.276,4.107c-1.67.5-2.754.086-3.281-.866" transform="translate(340.758 -31.531)" fill="#e0e0e0"/>
        <path id="Trazado_905323" data-name="Trazado 905323" d="M342.162,437.866c-.232,0-.419-2.052-.419-4.584s.187-4.584.419-4.584.419,2.052.419,4.584-.187,4.584-.419,4.584" transform="translate(-341.743 -9.614)" fill="#e0e0e0"/>
        <path id="Trazado_905324" data-name="Trazado 905324" d="M337.522,437.866c-.232,0-.419-2.052-.419-4.584s.187-4.584.419-4.584.419,2.052.419,4.584-.187,4.584-.419,4.584" transform="translate(-331.389 -9.614)" fill="#e0e0e0"/>
        <rect id="Rectángulo_405985" data-name="Rectángulo 405985" width="6.476" height="16.097" transform="translate(283.277 45.401)" fill="#8454ee"/>
        <rect id="Rectángulo_405986" data-name="Rectángulo 405986" width="6.476" height="49.247" transform="translate(273.029 12.251)" fill="#455a64"/>
        <rect id="Rectángulo_405988" data-name="Rectángulo 405988" width="6.476" height="19.305" transform="translate(229.232 42.193)" fill="#455a64"/>
        <path id="Trazado_905380" data-name="Trazado 905380" d="M107.311,146.669h13.184a1.019,1.019,0,0,0,1.02-1.02v-.635a1.019,1.019,0,0,0-1.02-1.02H107.311a1.02,1.02,0,0,0-1.02,1.02v.635a1.019,1.019,0,0,0,1.02,1.02" transform="translate(169.279 -75.519)" fill="#e0e0e0"/>
        <path id="Trazado_905381" data-name="Trazado 905381" d="M138.93,146.669h13.184a1.019,1.019,0,0,0,1.02-1.02v-.635a1.019,1.019,0,0,0-1.02-1.02H138.93a1.019,1.019,0,0,0-1.02,1.02v.635a1.019,1.019,0,0,0,1.02,1.02" transform="translate(98.721 -75.519)" fill="#e0e0e0"/>
        <path id="Trazado_905387" data-name="Trazado 905387" d="M187.6,405l-6.8-50.6L39.441,358.381s-12.3,73.463-11.677,104h81.713l.681-10.234,4.358.946s1.011,4.1,2.166,9.288l79.26.145Z" transform="translate(191.585 -26.814)" fill="#263238"/>
        <path id="Trazado_905388" data-name="Trazado 905388" d="M183.778,308.023,142.6,293.988s22.59-89.31,54.108-89.31Z" transform="translate(49.38 -61.472)" fill="#8454ee"/>
        <path id="Trazado_905389" data-name="Trazado 905389" d="M172.278,336.994,167.39,203.278c-7.714-3.521-40.726-7.758-40.726-7.758l-42.953,6.043L47.931,207.7l-9.6,91.329L34.294,425.345c45.974,16.964,102.067,11.25,151.4-1.3Z" transform="translate(193.763 -63.592)" fill="#8454ee"/>
        <g id="Grupo_1112952" data-name="Grupo 1112952" transform="translate(284.438 196.864)" opacity="0.3">
          <g id="Grupo_1112951" data-name="Grupo 1112951">
            <g id="Grupo_1112950" data-name="Grupo 1112950" clip-path="url(#clip-path-7)">
              <path id="Trazado_905390" data-name="Trazado 905390" d="M43.116,248.25s24,51.043,45.273,70,38.882,23.1,38.882,23.1l-2.552-16.56Z" transform="translate(-43.116 -248.25)"/>
            </g>
          </g>
        </g>
        <path id="Trazado_905391" data-name="Trazado 905391" d="M155.528,233.456c.177.007-.243,13.965-.937,31.171s-1.4,31.157-1.578,31.149.243-13.961.937-31.174,1.4-31.154,1.578-31.147" transform="translate(77.736 -54.81)" fill="#263238"/>
        <path id="Trazado_905392" data-name="Trazado 905392" d="M15.561,199.93S53.608,203.33,58.67,243c2.341,18.347,6.672,47.315,6.672,47.315L27.971,293.58l-5.155-3.82c-2.871-8.569-7.845-26.233-7.146-26.862.947-.853-.108-62.967-.108-62.967" transform="translate(337.184 -62.571)" fill="#8454ee"/>
        <path id="Trazado_905393" data-name="Trazado 905393" d="M84.732,346.093a13.33,13.33,0,0,1,1.661-1.307c1.091-.81,2.7-1.945,4.707-3.314,4.016-2.74,9.677-6.364,16.119-10.048s12.445-6.713,16.846-8.78c2.2-1.034,3.992-1.842,5.245-2.371a13.31,13.31,0,0,1,1.969-.767,13.152,13.152,0,0,1-1.864.994l-5.151,2.552c-4.343,2.169-10.294,5.26-16.726,8.931s-12.112,7.229-16.185,9.868l-4.816,3.142a13.435,13.435,0,0,1-1.8,1.1" transform="translate(186.066 -34.892)" fill="#263238"/>
        <path id="Trazado_905394" data-name="Trazado 905394" d="M87.593,336.795a14.7,14.7,0,0,1,2.873-1.863,57.149,57.149,0,0,1,15.413-5.856,14.672,14.672,0,0,1,3.385-.516,23.511,23.511,0,0,1-3.277.956c-2.027.554-4.805,1.394-7.8,2.529s-5.625,2.357-7.51,3.288a23.59,23.59,0,0,1-3.085,1.462" transform="translate(204.556 -32.8)" fill="#263238"/>
        <path id="Trazado_905395" data-name="Trazado 905395" d="M49.47,281.853c-.177-.009.314-12.024,1.1-26.832s1.559-26.809,1.736-26.8-.314,12.021-1.1,26.834-1.559,26.807-1.736,26.8" transform="translate(308.473 -56.022)" fill="#263238"/>
        <path id="Trazado_905396" data-name="Trazado 905396" d="M164.505,142.4a11.2,11.2,0,0,1-13.075-3.946,6.665,6.665,0,0,1-1.308-4.16,3.792,3.792,0,0,1,2.474-3.372,8.95,8.95,0,0,1-5.154-4.731,7.021,7.021,0,0,1,.7-6.835,5.8,5.8,0,0,1,6.4-2.034,6.928,6.928,0,0,1,2.234-7l10.831-.222Z" transform="translate(73.217 -83.367)" fill="#263238"/>
        <path id="Trazado_905397" data-name="Trazado 905397" d="M120.594,225.34l-1.885-7.333s-22.292,1.9-27.793-19.513c-2.655-10.34-6.393-32.076-9.548-51.788a41.183,41.183,0,0,1,30.915-46.518l2.073-.5c22.658-4.141,38.835,12.788,42.348,35.554l11.613,83.407-34.184,25.7Z" transform="translate(153.813 -85.922)" fill="#ae7461"/>
        <path id="Trazado_905398" data-name="Trazado 905398" d="M99.568,198.049a60.673,60.673,0,0,0,26.551-12.777s-3.247,14.953-25.146,18.242Z" transform="translate(172.953 -65.964)" fill="#6f4439"/>
        <path id="Trazado_905399" data-name="Trazado 905399" d="M137.362,155.441a3.156,3.156,0,0,0,3.71,2.373,3.02,3.02,0,0,0,2.488-3.536,3.158,3.158,0,0,0-3.708-2.376,3.021,3.021,0,0,0-2.49,3.538" transform="translate(108.983 -73.702)" fill="#263238"/>
        <path id="Trazado_905400" data-name="Trazado 905400" d="M135.9,146.295c.478.307,2.38-1.979,5.683-2.775,3.287-.842,6.123.265,6.382-.227.133-.222-.43-.848-1.671-1.36a8.667,8.667,0,0,0-5.231-.314,8.325,8.325,0,0,0-4.4,2.708c-.825,1.026-.993,1.834-.761,1.967" transform="translate(106.456 -76.129)" fill="#263238"/>
        <path id="Trazado_905401" data-name="Trazado 905401" d="M114.539,150.322a3.156,3.156,0,0,0,3.71,2.373,3.019,3.019,0,0,0,2.488-3.536,3.159,3.159,0,0,0-3.709-2.376,3.021,3.021,0,0,0-2.489,3.538" transform="translate(159.912 -74.887)" fill="#263238"/>
        <path id="Trazado_905402" data-name="Trazado 905402" d="M109.439,140.372c.479.307,2.385-1.979,5.686-2.775,3.286-.842,6.122.266,6.382-.225.132-.222-.427-.851-1.674-1.36a8.651,8.651,0,0,0-5.229-.314,8.315,8.315,0,0,0-4.4,2.707c-.823,1.026-.991,1.834-.762,1.967" transform="translate(165.506 -77.5)" fill="#263238"/>
        <path id="Trazado_905403" data-name="Trazado 905403" d="M133.134,166.926c-.031-.192-2.169-.047-5.6.339-.863.119-1.7.147-1.984-.4a4.425,4.425,0,0,1-.047-2.634q.443-3.347.927-7.024c1.234-9.979,1.908-18.1,1.506-18.147s-1.729,8-2.962,17.985c-.284,2.456-.558,4.8-.814,7.037a5.019,5.019,0,0,0,.369,3.414,2.176,2.176,0,0,0,1.686.894,5.89,5.89,0,0,0,1.479-.15c3.389-.635,5.468-1.127,5.435-1.316" transform="translate(135.802 -76.661)" fill="#263238"/>
        <path id="Trazado_905404" data-name="Trazado 905404" d="M109.783,136.646c.708.681,3.559-1.208,7.346-2.534,3.762-1.4,7.16-1.776,7.269-2.751.037-.461-.848-.993-2.41-1.222a13.506,13.506,0,0,0-11.134,4.028c-1.053,1.174-1.394,2.15-1.071,2.479" transform="translate(162.237 -78.75)" fill="#263238"/>
        <path id="Trazado_905405" data-name="Trazado 905405" d="M137.69,138.323c.764.608,2.846-.724,5.571-1.427,2.7-.8,5.171-.727,5.512-1.64.142-.438-.405-1.1-1.591-1.563a8.329,8.329,0,0,0-8.931,2.472c-.778,1.006-.906,1.856-.562,2.159" transform="translate(103.553 -78.005)" fill="#263238"/>
        <path id="Trazado_905406" data-name="Trazado 905406" d="M85.533,136.893s2.385-14.828,8.1-19.547c6.923-5.713,12.4,2.081,19.376-1.834s13.576-9.389,22.631-5.469c9.912,4.289,7.074,9.686,9.913,19.088,11.513,38.118,21.231,47.322,18.8,28.637-.265-2.047,4.88-4.98,3.646-13.6-1.6-11.181-4.412-24.542-8.739-31.7-3.648-6.032-8.471-9.638-16.364-12.985-12.458-5.284-26.982-1.922-36.575,1.464s-25.8,19.328-20.795,35.947" transform="translate(149.312 -86.46)" fill="#263238"/>
        <path id="Trazado_905407" data-name="Trazado 905407" d="M75.905,147.46a6,6,0,0,1,4.925-7.151c4.1-.6,9.108.591,10.862,8.932,3.111,14.795-12.386,14.865-12.5,14.447-.079-.284-2.041-10.024-3.287-16.227" transform="translate(236.257 -76.403)" fill="#ae7461"/>
        <path id="Trazado_905408" data-name="Trazado 905408" d="M81.2,156.52c.055-.062.3.127.773.234a2.634,2.634,0,0,0,1.936-.366c1.442-.9,2.236-3.66,1.747-6.341a8.7,8.7,0,0,0-1.5-3.538,3.038,3.038,0,0,0-2.355-1.571,1.341,1.341,0,0,0-1.372,1.026c-.112.456.044.731-.028.773-.034.046-.369-.182-.379-.818a1.688,1.688,0,0,1,.387-1.049,1.989,1.989,0,0,1,1.346-.676,3.7,3.7,0,0,1,3.175,1.728,8.938,8.938,0,0,1,1.761,3.936c.532,3-.408,6.112-2.417,7.18a2.826,2.826,0,0,1-2.44.1c-.534-.27-.682-.585-.637-.622" transform="translate(236.293 -75.478)" fill="#6f4439"/>
        <path id="Trazado_905409" data-name="Trazado 905409" d="M136.3,123.166c-.037.009-.065.028-.1.038-.087.027-.175.049-.26.08Z" transform="translate(117.983 -80.341)" fill="#8454ee"/>
        <path id="Trazado_905410" data-name="Trazado 905410" d="M82.5,112.151c.411-4.041,3.327-7.535,6.917-9.434a23.95,23.95,0,0,1,11.831-2.291c-1.536-5.277,3.465-10.638,8.874-11.61s10.852,1.108,15.954,3.151c5.66-5.416,16.036-4.553,20.723,1.724a13.021,13.021,0,0,1,21.334,7.352,10.091,10.091,0,0,1,8.7,15.552,7.118,7.118,0,0,1-.626,13.551l-12.726-7.2c-5.63,2.3-12.875-1.293-14.461-7.164a12.681,12.681,0,0,1-13.88-.2,9.136,9.136,0,0,1-13.629,6.72,10.744,10.744,0,0,1-16.642,10.191,9.835,9.835,0,0,1-16.217-11.053c-3.965-.878-6.561-5.245-6.151-9.285" transform="translate(138.672 -88.391)" fill="#263238"/>
        <path id="Trazado_905411" data-name="Trazado 905411" d="M84.451,114.389c-.049.025.076.467.541,1.161a7.353,7.353,0,0,0,2.671,2.344,7.519,7.519,0,0,0,5.353.661,8.114,8.114,0,0,0,5.271-4.226l-.861.156a9.322,9.322,0,0,0,3.479,2.076,9.651,9.651,0,0,0,8.056-.883,9.161,9.161,0,0,0,3.9-5.366,8.975,8.975,0,0,0,.1-4.453,3.213,3.213,0,0,0-.643-1.494c-.225.022.89,2.282-.2,5.723a8.621,8.621,0,0,1-3.681,4.726,8.821,8.821,0,0,1-7.182.7,8.417,8.417,0,0,1-3.076-1.81l-.543-.506-.318.663a7.289,7.289,0,0,1-4.539,3.779,7.007,7.007,0,0,1-4.8-.381c-2.6-1.213-3.373-3-3.52-2.873" transform="translate(204.513 -84.693)" fill="#455a64"/>
        <path id="Trazado_905412" data-name="Trazado 905412" d="M120.828,166.76c.009.191-1.815.2-3.6,1.385-1.808,1.145-2.56,2.805-2.731,2.72-.073-.028.007-.491.372-1.15a6.293,6.293,0,0,1,4.756-3.085c.749-.064,1.2.052,1.2.129" transform="translate(159.887 -70.284)" fill="#263238"/>
        <path id="Trazado_905413" data-name="Trazado 905413" d="M153.622,249.447l-2.816,3.686c-2,1.133-3.724.264-4.676-2.25l-23.2-43.079,6.883-3.576,26.143,41.651s.235,2.108-2.334,3.568" transform="translate(114.343 -61.576)" fill="#455a64"/>
        <path id="Trazado_905414" data-name="Trazado 905414" d="M174.29,218.335a29.935,29.935,0,1,0-27.117-3.489,29.713,29.713,0,0,0,27.117,3.489m16.064-37.618a27.932,27.932,0,1,1-10.434-13.49,27.715,27.715,0,0,1,10.434,13.49" transform="translate(62.401 -71.744)" fill="#263238"/>
        <path id="Trazado_905415" data-name="Trazado 905415" d="M173.171,217.411a29.935,29.935,0,1,0-27.117-3.489,29.712,29.712,0,0,0,27.117,3.489m16.063-37.619A27.931,27.931,0,1,1,178.8,166.3a27.729,27.729,0,0,1,10.434,13.49" transform="translate(64.898 -71.959)" fill="#455a64"/>
        <path id="Trazado_905416" data-name="Trazado 905416" d="M144.735,204.053c.027-.071,1.344.553,3.611,1.068l.892.187c.31.063.64.092.977.143.674.115,1.4.142,2.169.195a23.221,23.221,0,0,0,9.748-1.734c.7-.313,1.376-.59,1.968-.93.3-.164.6-.3.868-.47l.772-.483c1.951-1.265,2.97-2.3,3.021-2.247a6.081,6.081,0,0,1-.717.72,8.982,8.982,0,0,1-.905.777,14.224,14.224,0,0,1-1.275.938l-.77.507c-.27.172-.569.321-.869.491a21.062,21.062,0,0,1-1.98.968,22.477,22.477,0,0,1-9.874,1.756,21.374,21.374,0,0,1-2.193-.225c-.34-.058-.672-.094-.985-.163l-.9-.211a14.342,14.342,0,0,1-1.52-.442,8.812,8.812,0,0,1-1.118-.417,6.271,6.271,0,0,1-.921-.429" transform="translate(74.691 -62.606)" fill="#fff"/>
        <path id="Trazado_905417" data-name="Trazado 905417" d="M165.531,252.528c-7.145-6.843-40.968-40.781-41.794-41.258-1.038-.6-17.1-7.939-20.439-6.325S90.51,216.5,90.51,216.5s.227,6.717,8.069,2.611l7.015-3.675-.011.007,7.731,2.534s-9.979,3.178-12.2,5.114-6.149,9.748-4.3,11.789a7.826,7.826,0,0,0,4.164,2.4s-4.468,5.3,2.284,9.32c0,0,.613,4.836,3.928,7s9.852,2.073,9.852,2.073a3.063,3.063,0,0,0,1.186-4.655c-1.974-3.142-6.056-3.909-6.056-3.909l5.364-2.531a23.59,23.59,0,0,1,6.25,4.427s10.752,11.57,15.7,8.606l7,8.322c5.331-3.246,19.052-13.406,19.052-13.406" transform="translate(144.696 -61.464)" fill="#ae7461"/>
        <path id="Trazado_905418" data-name="Trazado 905418" d="M143.551,229.3a2.611,2.611,0,0,0-.761-.022,11.651,11.651,0,0,0-2.058.292A13.366,13.366,0,0,0,131,238.458a11.555,11.555,0,0,0-.477,2.022,2.635,2.635,0,0,0-.048.76c.071.012.181-1.071.777-2.694a13.893,13.893,0,0,1,9.549-8.719c1.67-.447,2.76-.458,2.754-.53" transform="translate(117.478 -55.78)" fill="#6f4439"/>
        <path id="Trazado_905419" data-name="Trazado 905419" d="M146.183,222.344a3.372,3.372,0,0,0-.814-.014,7.565,7.565,0,0,0-.953.071c-.369.048-.8.081-1.254.185a18.5,18.5,0,0,0-3.18.89,19.54,19.54,0,0,0-6.778,4.336,18.539,18.539,0,0,0-2.142,2.512,12.629,12.629,0,0,0-.692,1.062,7.411,7.411,0,0,0-.465.835,3.351,3.351,0,0,0-.329.745c.067.036.583-1,1.7-2.483a20.662,20.662,0,0,1,2.169-2.421,22.815,22.815,0,0,1,3.125-2.452,26.648,26.648,0,0,1,3.7-2.061,16.134,16.134,0,0,1,2.945-.7c1.811-.4,2.973-.43,2.968-.5" transform="translate(115.937 -57.388)" fill="#6f4439"/>
        <path id="Trazado_905420" data-name="Trazado 905420" d="M134.356,214.506a2.189,2.189,0,0,0-1.052-.335,5.922,5.922,0,0,0-2.655.239,4.984,4.984,0,0,0-2.289,1.369c-.488.485-.688.865-.653.889a7.538,7.538,0,0,1,6.649-2.162" transform="translate(130.069 -59.288)" fill="#6f4439"/>
        <g id="Grupo_1112955" data-name="Grupo 1112955" transform="translate(213.643 103.147)" opacity="0.1">
          <g id="Grupo_1112954" data-name="Grupo 1112954">
            <g id="Grupo_1112953" data-name="Grupo 1112953" clip-path="url(#clip-path-8)">
              <path id="Trazado_905421" data-name="Trazado 905421" d="M173.374,174.863c-.616-1.171-1.465-2.4-2.761-2.664a3.4,3.4,0,0,0-3.411,1.835,10.066,10.066,0,0,0-1,3.986,39.738,39.738,0,0,1-2.085,10.305,13.848,13.848,0,0,1-6.765,7.75c-2.591,1.175-5.529,1.228-8.372,1.356s-5.81.393-8.22,1.905l-.073.046a5.112,5.112,0,0,0,.762,8.939c8.476,3.778,19.185,2.495,26.258-3.609a25.183,25.183,0,0,0,5.665-29.849" transform="translate(-138.396 -172.149)"/>
            </g>
          </g>
        </g>
        <path id="Trazado_905422" data-name="Trazado 905422" d="M131.308,281.771,96.32,284.708c-8.063-5.326-64.3-48.943-65.941-50.081L15.743,251.4c30.687,37.2,52.185,64.373,78.027,83.458,12.771,9.432,33.565,4.34,38.948-12.873,2.633-8.42-1.41-40.218-1.41-40.218" transform="translate(268.694 -54.539)" fill="#ae7461"/>
        <g id="Grupo_1112958" data-name="Grupo 1112958" transform="translate(223.237 422.628)" opacity="0.3">
          <g id="Grupo_1112957" data-name="Grupo 1112957">
            <g id="Grupo_1112956" data-name="Grupo 1112956" clip-path="url(#clip-path-9)">
              <path id="Trazado_905423" data-name="Trazado 905423" d="M122.528,445.112s12.577,1.755,13.471,2.028c.3.091,34.09.091,34.09.091l-.889-15.656-38.421.853Z" transform="translate(-122.528 -431.576)"/>
            </g>
          </g>
        </g>
        <g id="Grupo_1112961" data-name="Grupo 1112961" transform="translate(224.124 408.794)" opacity="0.3">
          <g id="Grupo_1112960" data-name="Grupo 1112960">
            <g id="Grupo_1112959" data-name="Grupo 1112959" clip-path="url(#clip-path-10)">
              <path id="Trazado_905424" data-name="Trazado 905424" d="M123.25,433.278s12.762,2.638,13.471,2.028,32.313-1.131,32.313-1.131l-.888-12.566-38.469-1.267Z" transform="translate(-123.25 -420.343)"/>
            </g>
          </g>
        </g>
        <g id="Grupo_1112964" data-name="Grupo 1112964" transform="translate(224.125 382.236)" opacity="0.3">
          <g id="Grupo_1112963" data-name="Grupo 1112963">
            <g id="Grupo_1112962" data-name="Grupo 1112962" clip-path="url(#clip-path-11)">
              <path id="Trazado_905425" data-name="Trazado 905425" d="M123.971,424.553s11.71,1.539,12.42.93,32.477,1.121,32.477,1.121l-1.718-27.827-36.974,10Z" transform="translate(-123.971 -398.776)"/>
            </g>
          </g>
        </g>
        <path id="Trazado_905426" data-name="Trazado 905426" d="M122.528,240.678s84.527,130.9,78.6,219.942l50.423,30.855h36.978c-2.018-23.132-1.743-60.972-13.025-114.055C246.467,240.833,194.877,240.45,194.877,240.45Z" transform="translate(-17.73 -53.191)" fill="#e0e0e0"/>
        <path id="Trazado_905427" data-name="Trazado 905427" d="M249.009,409.694l-84.44,14.437c.706,2.7-.642,6.08-2.5,7.934s-4.467,2.724-7.007,3.392a70.937,70.937,0,0,1-15.242,2.271,36.135,36.135,0,0,0-8.071.767c-2.616.708-5.146,2.315-6.205,4.809s-.149,8.9,6.284,8.9h85.75c-6.435,0-7.343-6.41-6.284-8.9s3.59-4.1,6.2-4.809a36.149,36.149,0,0,1,8.071-.767,70.925,70.925,0,0,0,15.242-2.271c2.541-.668,5.148-1.537,7.007-3.392s1.59-19.254,1.193-22.371" transform="translate(18.251 -14.014)" fill="#e0e0e0"/>
        <path id="Trazado_905428" data-name="Trazado 905428" d="M247,399.555l-83.022,12.316c.706,2.7-.642,6.08-2.5,7.933s-4.467,2.725-7.007,3.393a71.018,71.018,0,0,1-15.242,2.271,36.142,36.142,0,0,0-8.071.767c-2.616.708-5.146,2.315-6.205,4.809s-.149,8.9,6.284,8.9h85.75c-6.434,0-7.343-6.41-6.284-8.9s3.59-4.1,6.2-4.809a36.142,36.142,0,0,1,8.071-.767,71.007,71.007,0,0,0,15.242-2.271c2.541-.667,5.148-1.537,7.007-3.393s.171-17.132-.225-20.249" transform="translate(20.186 -16.361)" fill="#e0e0e0"/>
        <path id="Trazado_905429" data-name="Trazado 905429" d="M248.793,397.1l-84.025,2.773c.706,2.544-.642,5.729-2.5,7.476s-4.467,2.568-7.007,3.2a74.987,74.987,0,0,1-15.242,2.139,38.352,38.352,0,0,0-8.071.724c-2.614.666-5.145,2.181-6.2,4.531a6.238,6.238,0,0,0,6.284,8.388l85.486-.957c-6.435,0-7.081-5.081-6.022-7.431s3.59-3.864,6.205-4.531a38.34,38.34,0,0,1,8.07-.724,74.975,74.975,0,0,0,15.242-2.139c2.541-.628,5.148-1.448,7.008-3.2s1.175-7.313.778-10.25" transform="translate(18.052 -16.929)" fill="#e0e0e0"/>
        <path id="Trazado_905430" data-name="Trazado 905430" d="M220.653,300.869s-9.886-21.4-11.809-27.316,3.021-9.21,7.689-12.78,21.7-4.943,22.519-1.922.549,7.415-1.922,7.689-11.809-.254-17.3,7.013c0,0,22.794-5.07,28.287,0s-4.669,6.992-4.669,6.992,3.021,4.944.273,6.318-17.85,4.394-17.85,4.394l-.275,2.2s7.415-.549,12.358.824,7.141,6.591,7.141,6.591c-1.1,4.119-3.021,4.119-5.768,2.2a12.148,12.148,0,0,0-4.669-2.2s-4.394,5.492-7.415,5.767-6.591-5.767-6.591-5.767" transform="translate(-84.72 -49.316)" fill="#ae7461"/>
        <g id="Grupo_1112967" data-name="Grupo 1112967" transform="translate(144.361 187.249)" opacity="0.3">
          <g id="Grupo_1112966" data-name="Grupo 1112966">
            <g id="Grupo_1112965" data-name="Grupo 1112965" clip-path="url(#clip-path-12)">
              <path id="Trazado_905431" data-name="Trazado 905431" d="M230.584,240.442s-17.441,19.228-14.41,49.256,2.98,63.372,2.98,63.372l-10.129-24.477-7.095-70.479L216.258,242.4Z" transform="translate(-201.931 -240.442)"/>
            </g>
          </g>
        </g>
        <path id="Trazado_905432" data-name="Trazado 905432" d="M332.388,240.442l-71.926.012s-29.7.611-29.7,59.162c0,75.832,17.413,101.728-28.832,145.02l74.634,9.372s35.312-3.394,35.275-66.572c-.016-28.832-1.334-80-2.912-104.66-1.149-17.967,12.1-41.108,23.461-42.334" transform="translate(-159.375 -53.193)" fill="#fff"/>
        <path id="Trazado_905433" data-name="Trazado 905433" d="M333.1,240.479l-1.149.23a13.934,13.934,0,0,0-3.187,1.281c-2.669,1.446-6.107,4.5-9.406,9.292a57.657,57.657,0,0,0-8.439,19.395c-2.218,8.146-.469,17.759-.23,28.336.929,21.2,1.7,46.662,2.054,75.353.042,7.17.241,14.549-.179,22.116a106.63,106.63,0,0,1-3.6,22.946,59.974,59.974,0,0,1-10.642,21.7,40.822,40.822,0,0,1-9.225,8.439,30.294,30.294,0,0,1-11.793,4.782l-.028,0-.041,0-67.5-8.468-7.135-.9-.669-.084.489-.468c3.734-3.576,7.4-7.186,10.739-11.043a107.163,107.163,0,0,0,9.18-12.075,72.215,72.215,0,0,0,10.625-27.431c1.618-9.591,1.568-19.207,1.185-28.549s-1.106-18.5-1.642-27.429c-.555-8.928-.968-17.642-1.161-26.112q-.15-6.353-.134-12.517.1-3.083.2-6.116c.071-2.022.085-4.031.354-6.006q.312-2.969.618-5.885a26.9,26.9,0,0,1,.457-2.883q.268-1.428.533-2.845t.528-2.818c.2-.93.5-1.831.743-2.743s.512-1.809.766-2.708a19.316,19.316,0,0,1,.86-2.648c2.4-6.974,6.114-13.307,11.2-17.845a25.782,25.782,0,0,1,8.384-5.24,19.507,19.507,0,0,1,4.634-1.2c1.6-.126,3.119-.032,4.65-.058l17.206.033,27.492.1,23.259.054-23.476.063-27.4.11-17.1.039c-6.066-.7-12.458,1.882-17.349,6.431-5,4.48-8.666,10.748-11.039,17.674a19.392,19.392,0,0,0-.848,2.63q-.375,1.339-.755,2.692c-.24.9-.538,1.8-.734,2.724q-.259,1.4-.521,2.8t-.526,2.83a26.55,26.55,0,0,0-.45,2.869q-.3,2.9-.607,5.861c-.265,1.965-.276,3.968-.344,5.983s-.128,4.047-.193,6.095q0,6.153.149,12.5c.2,8.462.626,17.167,1.188,26.09.544,8.926,1.271,18.067,1.665,27.44.389,9.357.448,19.013-1.176,28.679a72.813,72.813,0,0,1-10.707,27.67,107.675,107.675,0,0,1-9.234,12.152c-3.357,3.878-7.035,7.5-10.782,11.089l-.179-.553,7.135.9,67.5,8.484h-.069a29.788,29.788,0,0,0,11.514-4.677,40.193,40.193,0,0,0,9.088-8.306,59.4,59.4,0,0,0,10.548-21.482,106.145,106.145,0,0,0,3.6-22.818c.426-7.528.236-14.908.2-22.078-.317-28.683-1.041-54.148-1.914-75.341-.238-5.3-.465-10.328-.759-15.073a43.769,43.769,0,0,1,1.085-13.351,57.591,57.591,0,0,1,8.569-19.449c3.34-4.793,6.825-7.841,9.529-9.264a13.467,13.467,0,0,1,3.228-1.239c.376-.079.659-.1.857-.131l.305-.044" transform="translate(-160.083 -53.23)" fill="#263238"/>
        <g id="Grupo_1112970" data-name="Grupo 1112970" transform="translate(95.907 384.523)" opacity="0.3">
          <g id="Grupo_1112969" data-name="Grupo 1112969">
            <g id="Grupo_1112968" data-name="Grupo 1112968" clip-path="url(#clip-path-13)">
              <path id="Trazado_905434" data-name="Trazado 905434" d="M243.707,400.635h12.08s.659,16.042,13.581,14.955a10.309,10.309,0,0,1-6.426,1.336c-3.69-.464-15.205,2.366-19.235-16.291" transform="translate(-243.707 -400.635)"/>
            </g>
          </g>
        </g>
        <path id="Trazado_905435" data-name="Trazado 905435" d="M248.89,394.062s-1.905,22.991,26.72,24.366,80.538,0,80.538,0-18.028-3.251-18.028-22.858Z" transform="translate(-240.931 -17.632)" fill="#e0e0e0"/>
        <path id="Trazado_905436" data-name="Trazado 905436" d="M246.9,394.065a3.019,3.019,0,0,1,.417-.013l1.268,0,4.946.042,18.566.228,64.037.94.3,0v.305a22.092,22.092,0,0,0,17.775,22.54l2.448.573-2.5.064-.158,0c-16.714.4-32.638.6-47.123.581-7.242-.017-14.125-.073-20.566-.227a178.377,178.377,0,0,1-17.908-.988,28.748,28.748,0,0,1-13.585-5.667,21.008,21.008,0,0,1-6.473-9.029,23.47,23.47,0,0,1-1.477-6.9,17.232,17.232,0,0,1-.031-1.836,3.26,3.26,0,0,1,.053-.624c.007.015.006.209.012.624s.026,1.027.095,1.827a24.241,24.241,0,0,0,1.58,6.818,20.865,20.865,0,0,0,6.467,8.84,28.484,28.484,0,0,0,13.431,5.5c5.4.714,11.421.725,17.848.906,6.435.128,13.315.163,20.553.165,14.479-.015,30.4-.227,47.106-.631.054,0,.108,0,.158,0l-.048.637a24.974,24.974,0,0,1-7.654-3.144,21.836,21.836,0,0,1-6.028-5.4,23.939,23.939,0,0,1-4.6-14.624l.3.309-63.828-1.22-18.631-.4-5.007-.124-1.3-.042a4.509,4.509,0,0,1-.454-.028" transform="translate(-238.936 -17.635)" fill="#263238"/>
        <path id="Trazado_905437" data-name="Trazado 905437" d="M261.972,323.886c0,.332-6.488.6-14.488.6s-14.491-.27-14.491-.6,6.486-.6,14.491-.6,14.488.27,14.488.6" transform="translate(-127.21 -34.017)" fill="#263238"/>
        <path id="Trazado_905438" data-name="Trazado 905438" d="M267.114,323.961c0-.332,1.81-.6,4.043-.6s4.043.27,4.043.6-1.81.6-4.043.6-4.043-.27-4.043-.6" transform="translate(-182.458 -33.999)" fill="#263238"/>
        <path id="Trazado_905439" data-name="Trazado 905439" d="M260.517,315.3c0,.332-6.487.6-14.488.6s-14.491-.27-14.491-.6,6.486-.6,14.491-.6,14.488.27,14.488.6" transform="translate(-123.963 -36.004)" fill="#263238"/>
        <path id="Trazado_905440" data-name="Trazado 905440" d="M267.114,315.788c0-.332,1.81-.6,4.043-.6s4.043.27,4.043.6-1.81.6-4.043.6-4.043-.27-4.043-.6" transform="translate(-182.458 -35.891)" fill="#263238"/>
        <path id="Trazado_905441" data-name="Trazado 905441" d="M260.785,308.031c0,.332-6.487.6-14.488.6s-14.491-.27-14.491-.6,6.486-.6,14.491-.6,14.488.27,14.488.6" transform="translate(-124.562 -37.687)" fill="#263238"/>
        <path id="Trazado_905442" data-name="Trazado 905442" d="M267.114,308.106c0-.333,1.81-.6,4.043-.6s4.043.27,4.043.6-1.81.6-4.043.6-4.043-.27-4.043-.6" transform="translate(-182.458 -37.669)" fill="#263238"/>
        <path id="Trazado_905443" data-name="Trazado 905443" d="M261.7,299.5c0,.332-6.487.6-14.488.6s-14.49-.27-14.49-.6,6.486-.6,14.49-.6,14.488.27,14.488.6" transform="translate(-126.614 -39.662)" fill="#263238"/>
        <path id="Trazado_905444" data-name="Trazado 905444" d="M268.3,299.987c0-.332,1.81-.6,4.043-.6s4.043.27,4.043.6-1.81.6-4.043.6-4.043-.27-4.043-.6" transform="translate(-185.108 -39.549)" fill="#263238"/>
        <path id="Trazado_905445" data-name="Trazado 905445" d="M261.972,292.23c0,.332-6.488.6-14.488.6s-14.491-.27-14.491-.6,6.486-.6,14.491-.6,14.488.27,14.488.6" transform="translate(-127.21 -41.344)" fill="#263238"/>
        <path id="Trazado_905446" data-name="Trazado 905446" d="M268.3,292.305c0-.332,1.81-.6,4.043-.6s4.043.27,4.043.6-1.81.6-4.043.6-4.043-.27-4.043-.6" transform="translate(-185.108 -41.327)" fill="#263238"/>
        <path id="Trazado_905447" data-name="Trazado 905447" d="M262.807,283.7c0,.332-6.487.6-14.488.6s-14.491-.27-14.491-.6,6.486-.6,14.491-.6,14.488.27,14.488.6" transform="translate(-129.074 -43.32)" fill="#263238"/>
        <path id="Trazado_905448" data-name="Trazado 905448" d="M269.4,284.186c0-.332,1.81-.6,4.043-.6s4.043.27,4.043.6-1.81.6-4.043.6-4.043-.27-4.043-.6" transform="translate(-187.566 -43.206)" fill="#263238"/>
        <path id="Trazado_905449" data-name="Trazado 905449" d="M263.074,276.429c0,.332-6.487.6-14.488.6s-14.491-.27-14.491-.6,6.486-.6,14.491-.6,14.488.27,14.488.6" transform="translate(-129.67 -45.002)" fill="#263238"/>
        <path id="Trazado_905450" data-name="Trazado 905450" d="M261.621,268.982c0,.333-6.486.6-14.488.6s-14.49-.27-14.49-.6,6.485-.6,14.49-.6,14.488.27,14.488.6" transform="translate(-126.428 -46.726)" fill="#263238"/>
        <path id="Trazado_905451" data-name="Trazado 905451" d="M269.4,276.5c0-.332,1.81-.6,4.043-.6s4.043.27,4.043.6-1.81.6-4.043.6-4.043-.27-4.043-.6" transform="translate(-187.566 -44.985)" fill="#263238"/>
        <path id="Trazado_905452" data-name="Trazado 905452" d="M268.3,268.505c0-.332,1.81-.6,4.043-.6s4.043.27,4.043.6-1.81.6-4.043.6-4.043-.27-4.043-.6" transform="translate(-185.108 -46.836)" fill="#263238"/>
        <path id="Trazado_905453" data-name="Trazado 905453" d="M260.1,261.7c0,.333-6.487.6-14.488.6s-14.491-.27-14.491-.6,6.486-.6,14.491-.6,14.488.27,14.488.6" transform="translate(-123.038 -48.412)" fill="#263238"/>
        <path id="Trazado_905454" data-name="Trazado 905454" d="M266.782,261.222c0-.333,1.81-.6,4.043-.6s4.043.27,4.043.6-1.81.6-4.043.6-4.043-.27-4.043-.6" transform="translate(-181.717 -48.522)" fill="#263238"/>
        <path id="Trazado_905455" data-name="Trazado 905455" d="M258.582,254.416c0,.332-6.487.6-14.488.6s-14.491-.27-14.491-.6,6.486-.6,14.491-.6,14.488.27,14.488.6" transform="translate(-119.646 -50.098)" fill="#263238"/>
        <path id="Trazado_905456" data-name="Trazado 905456" d="M265.262,253.939c0-.333,1.81-.6,4.043-.6s4.043.27,4.043.6-1.81.6-4.043.6-4.043-.27-4.043-.6" transform="translate(-178.325 -50.208)" fill="#263238"/>
        <path id="Trazado_905457" data-name="Trazado 905457" d="M253.079,247.861c0,.332-6.487.6-14.488.6s-14.491-.27-14.491-.6,6.486-.6,14.491-.6,14.488.27,14.488.6" transform="translate(-107.366 -51.615)" fill="#263238"/>
        <path id="Trazado_905458" data-name="Trazado 905458" d="M259.759,247.384c0-.332,1.81-.6,4.043-.6s4.043.27,4.043.6-1.81.6-4.043.6-4.043-.27-4.043-.6" transform="translate(-166.045 -51.725)" fill="#263238"/>
        <path id="Trazado_905459" data-name="Trazado 905459" d="M261.972,333.264c0,.332-6.488.6-14.488.6s-14.491-.27-14.491-.6,6.486-.6,14.491-.6,14.488.27,14.488.6" transform="translate(-127.21 -31.846)" fill="#263238"/>
        <path id="Trazado_905460" data-name="Trazado 905460" d="M267.114,333.339c0-.332,1.81-.6,4.043-.6s4.043.27,4.043.6-1.81.6-4.043.6-4.043-.27-4.043-.6" transform="translate(-182.458 -31.828)" fill="#263238"/>
        <path id="Trazado_905461" data-name="Trazado 905461" d="M260.785,342.461c0,.333-6.487.6-14.488.6s-14.491-.27-14.491-.6,6.486-.6,14.491-.6,14.488.27,14.488.6" transform="translate(-124.562 -29.717)" fill="#263238"/>
        <path id="Trazado_905462" data-name="Trazado 905462" d="M265.927,342.536c0-.332,1.81-.6,4.043-.6s4.043.27,4.043.6-1.81.6-4.043.6-4.043-.27-4.043-.6" transform="translate(-179.809 -29.699)" fill="#263238"/>
        <path id="Trazado_905463" data-name="Trazado 905463" d="M260.411,350.4c0,.332-6.487.6-14.488.6s-14.491-.27-14.491-.6,6.486-.6,14.491-.6,14.488.27,14.488.6" transform="translate(-123.727 -27.878)" fill="#263238"/>
        <path id="Trazado_905464" data-name="Trazado 905464" d="M265.553,350.477c0-.332,1.81-.6,4.043-.6s4.043.27,4.043.6-1.81.6-4.043.6-4.043-.27-4.043-.6" transform="translate(-178.975 -27.861)" fill="#263238"/>
        <path id="Trazado_905465" data-name="Trazado 905465" d="M260.037,358.344c0,.332-6.488.6-14.488.6s-14.491-.27-14.491-.6,6.487-.6,14.491-.6,14.488.27,14.488.6" transform="translate(-122.893 -26.04)" fill="#263238"/>
        <path id="Trazado_905466" data-name="Trazado 905466" d="M265.18,358.419c0-.333,1.81-.6,4.043-.6s4.042.27,4.042.6-1.809.6-4.042.6-4.043-.27-4.043-.6" transform="translate(-178.141 -26.023)" fill="#263238"/>
        <path id="Trazado_905467" data-name="Trazado 905467" d="M259.663,366.286c0,.332-6.487.6-14.488.6s-14.491-.27-14.491-.6,6.486-.6,14.491-.6,14.488.27,14.488.6" transform="translate(-122.058 -24.202)" fill="#263238"/>
        <path id="Trazado_905468" data-name="Trazado 905468" d="M264.805,366.361c0-.332,1.81-.6,4.043-.6s4.043.27,4.043.6-1.81.6-4.043.6-4.043-.27-4.043-.6" transform="translate(-177.305 -24.184)" fill="#263238"/>
        <path id="Trazado_905469" data-name="Trazado 905469" d="M259.528,374.008c0,.333-6.488.6-14.488.6s-14.491-.27-14.491-.6,6.486-.6,14.491-.6,14.488.27,14.488.6" transform="translate(-121.757 -22.414)" fill="#263238"/>
        <path id="Trazado_905470" data-name="Trazado 905470" d="M264.67,374.083c0-.332,1.81-.6,4.043-.6s4.043.27,4.043.6-1.81.6-4.043.6-4.043-.27-4.043-.6" transform="translate(-177.004 -22.397)" fill="#263238"/>
        <path id="Trazado_905471" data-name="Trazado 905471" d="M260.785,381.693c0,.333-6.487.6-14.488.6s-14.491-.27-14.491-.6,6.486-.6,14.491-.6,14.488.27,14.488.6" transform="translate(-124.562 -20.635)" fill="#263238"/>
        <path id="Trazado_905472" data-name="Trazado 905472" d="M265.927,381.768c0-.332,1.81-.6,4.043-.6s4.043.27,4.043.6-1.81.6-4.043.6-4.043-.27-4.043-.6" transform="translate(-179.809 -20.618)" fill="#263238"/>
        <path id="Trazado_905473" data-name="Trazado 905473" d="M263.8,389.853c0,.333-6.487.6-14.488.6s-14.491-.27-14.491-.6,6.486-.6,14.491-.6,14.488.27,14.488.6" transform="translate(-131.297 -18.746)" fill="#263238"/>
        <path id="Trazado_905474" data-name="Trazado 905474" d="M268.945,389.928c0-.332,1.81-.6,4.043-.6s4.043.27,4.043.6-1.81.6-4.043.6-4.043-.27-4.043-.6" transform="translate(-186.544 -18.729)" fill="#263238"/>
        <path id="Trazado_905475" data-name="Trazado 905475" d="M266.077,397.284c0,.333-6.487.6-14.488.6s-14.491-.27-14.491-.6,6.486-.6,14.491-.6,14.488.27,14.488.6" transform="translate(-136.371 -17.026)" fill="#263238"/>
        <path id="Trazado_905476" data-name="Trazado 905476" d="M240.322,421.738a1.065,1.065,0,0,1-.3.015l-.883-.022-3.388-.147c-2.941-.15-7.2-.335-12.458-.532-10.521-.4-25.063-.679-41.128-.6s-30.616.363-41.146.507l-12.471.145-3.392,0-.882-.015a1.037,1.037,0,0,1-.3-.027,1.1,1.1,0,0,1,.3-.038l.88-.049,3.389-.124,12.468-.349c10.528-.261,25.074-.621,41.153-.7s30.627.277,41.149.793c5.261.254,9.517.507,12.454.735l3.382.266.878.086a1.038,1.038,0,0,1,.3.051" transform="translate(28.699 -11.675)" fill="#263238"/>
        <path id="Trazado_905477" data-name="Trazado 905477" d="M232.847,432.115c0,.177-23.706.4-52.943.49s-52.949.026-52.95-.151,23.7-.4,52.948-.49,52.945-.026,52.945.152" transform="translate(32.5 -8.868)" fill="#263238"/>
        <path id="Trazado_905478" data-name="Trazado 905478" d="M203.1,400.636a4.848,4.848,0,0,1,.889.228l2.5.772,1.805.573a3.112,3.112,0,0,1,1.994,1.2,1.151,1.151,0,0,1-.312,1.347,3.127,3.127,0,0,1-1.261.643l-2.841.661a119.681,119.681,0,0,1-14.166,2.1c-5.369.494-11.293.741-17.5.862l-31.809.425-9.64.052-2.622-.018a4.946,4.946,0,0,1-.915-.049,4.8,4.8,0,0,1,.913-.079l2.619-.1,9.638-.256,31.8-.613c6.205-.119,12.113-.348,17.465-.809a127.538,127.538,0,0,0,14.125-1.951l2.825-.611a2.792,2.792,0,0,0,1.11-.532.778.778,0,0,0,.245-.919c-.319-.622-1.137-.829-1.763-1.057l-1.788-.626-2.468-.885a4.846,4.846,0,0,1-.847-.351" transform="translate(52.144 -16.112)" fill="#263238"/>
      </g>
    </g>
  </g>
</svg>
