<svg xmlns="http://www.w3.org/2000/svg" xmlns:xlink="http://www.w3.org/1999/xlink" width="505" height="476.373" viewBox="0 0 505 476.373">
  <defs>
    <clipPath id="clip-path">
      <rect id="Rectángulo_406351" data-name="Rectángulo 406351" width="446.134" height="451.521" fill="none"/>
    </clipPath>
  </defs>
  <g id="Grupo_1114233" data-name="Grupo 1114233" transform="translate(-915.051 -12320)">
    <rect id="Rectángulo_405692" data-name="Rectángulo 405692" width="505" height="476.373" rx="8" transform="translate(915.051 12320)" fill="#bce0fc"/>
    <g id="Grupo_1114232" data-name="Grupo 1114232" transform="translate(944.051 12332)">
      <g id="Grupo_1114225" data-name="Grupo 1114225">
        <g id="Grupo_1114224" data-name="Grupo 1114224" clip-path="url(#clip-path)">
          <path id="Trazado_906225" data-name="Trazado 906225" d="M337.6,315.722H8.687A7.687,7.687,0,0,1,1,308.035V55.943a7.687,7.687,0,0,1,7.687-7.687H337.6a7.688,7.688,0,0,1,7.687,7.687V308.035a7.688,7.688,0,0,1-7.687,7.687" fill="#303030"/>
          <rect id="Rectángulo_406349" data-name="Rectángulo 406349" width="344.282" height="267.466" rx="7.687" transform="translate(1 48.256)" fill="none" stroke="#303030" stroke-linecap="round" stroke-linejoin="round" stroke-width="2"/>
          <path id="Trazado_906226" data-name="Trazado 906226" d="M349.871,303.972H20.963a7.688,7.688,0,0,1-7.687-7.687V44.193a7.688,7.688,0,0,1,7.687-7.687H349.871a7.688,7.688,0,0,1,7.687,7.687V296.285a7.688,7.688,0,0,1-7.687,7.687" fill="#5ab4f9"/>
          <rect id="Rectángulo_406350" data-name="Rectángulo 406350" width="344.282" height="267.466" rx="7.687" transform="translate(13.276 36.506)" fill="none" stroke="#303030" stroke-linecap="round" stroke-linejoin="round" stroke-width="2"/>
          <line id="Línea_1906" data-name="Línea 1906" x2="309.943" transform="translate(30.445 285.079)" fill="none" stroke="#fff" stroke-miterlimit="10" stroke-width="1.5"/>
          <path id="Trazado_906227" data-name="Trazado 906227" d="M30.445,162.071c40.819,0,22.719,69.159,55.889,69.159,23.9,0,28.746-31.259,34.164-60.426,5.653-30.43,6.591-54.663,33.981-54.663,43.944,0,20.886,69.366,61.02,69.366s27.243-102.15,67.4-102.15,16.847,67.087,57.49,67.087" fill="none" stroke="#fff" stroke-linecap="round" stroke-linejoin="round" stroke-width="2"/>
          <line id="Línea_1907" data-name="Línea 1907" y2="3.5" transform="translate(30.445 170.239)" fill="none" stroke="#fff" stroke-linecap="round" stroke-linejoin="round" stroke-width="1.5"/>
          <line id="Línea_1908" data-name="Línea 1908" y2="91.14" transform="translate(30.445 180.49)" fill="none" stroke="#fff" stroke-linecap="round" stroke-linejoin="round" stroke-width="1.5" stroke-dasharray="6.751 6.751"/>
          <line id="Línea_1909" data-name="Línea 1909" y2="3.5" transform="translate(30.445 275.005)" fill="none" stroke="#fff" stroke-linecap="round" stroke-linejoin="round" stroke-width="1.5"/>
          <line id="Línea_1910" data-name="Línea 1910" y2="3.5" transform="translate(154.192 116.271)" fill="none" stroke="#fff" stroke-linecap="round" stroke-linejoin="round" stroke-width="1.5"/>
          <line id="Línea_1911" data-name="Línea 1911" y2="145.11" transform="translate(154.192 126.52)" fill="none" stroke="#fff" stroke-linecap="round" stroke-linejoin="round" stroke-width="1.5" stroke-dasharray="6.749 6.749"/>
          <line id="Línea_1912" data-name="Línea 1912" y2="3.5" transform="translate(154.192 275.005)" fill="none" stroke="#fff" stroke-linecap="round" stroke-linejoin="round" stroke-width="1.5"/>
          <line id="Línea_1913" data-name="Línea 1913" y2="3.5" transform="translate(282.929 83.504)" fill="none" stroke="#fff" stroke-linecap="round" stroke-linejoin="round" stroke-width="1.5"/>
          <line id="Línea_1914" data-name="Línea 1914" y2="177.556" transform="translate(282.929 93.967)" fill="none" stroke="#fff" stroke-linecap="round" stroke-linejoin="round" stroke-width="1.5" stroke-dasharray="6.963 6.963"/>
          <line id="Línea_1915" data-name="Línea 1915" y2="3.5" transform="translate(282.929 275.005)" fill="none" stroke="#fff" stroke-linecap="round" stroke-linejoin="round" stroke-width="1.5"/>
          <path id="Trazado_906228" data-name="Trazado 906228" d="M334.025,144.455l6.915,5.786-6.915,5.363" fill="none" stroke="#fff" stroke-linecap="round" stroke-linejoin="round" stroke-width="2"/>
          <path id="Trazado_906229" data-name="Trazado 906229" d="M35.272,162.071a4.826,4.826,0,1,1-4.826-4.826,4.826,4.826,0,0,1,4.826,4.826" fill="#303030"/>
          <path id="Trazado_906230" data-name="Trazado 906230" d="M35.272,162.071a4.826,4.826,0,1,1-4.826-4.826A4.826,4.826,0,0,1,35.272,162.071Z" fill="none" stroke="#303030" stroke-linecap="round" stroke-linejoin="round" stroke-width="2"/>
          <path id="Trazado_906231" data-name="Trazado 906231" d="M159.018,116.271a4.826,4.826,0,1,1-4.826-4.826,4.826,4.826,0,0,1,4.826,4.826" fill="#303030"/>
          <path id="Trazado_906232" data-name="Trazado 906232" d="M159.018,116.271a4.826,4.826,0,1,1-4.826-4.826A4.826,4.826,0,0,1,159.018,116.271Z" fill="none" stroke="#303030" stroke-linecap="round" stroke-linejoin="round" stroke-width="2"/>
          <path id="Trazado_906233" data-name="Trazado 906233" d="M287.755,83.356a4.827,4.827,0,1,1-4.826-4.826,4.826,4.826,0,0,1,4.826,4.826" fill="#303030"/>
          <path id="Trazado_906234" data-name="Trazado 906234" d="M287.755,83.356a4.827,4.827,0,1,1-4.826-4.826A4.826,4.826,0,0,1,287.755,83.356Z" fill="none" stroke="#303030" stroke-linecap="round" stroke-linejoin="round" stroke-width="2"/>
        </g>
      </g>
      <g id="Grupo_1114227" data-name="Grupo 1114227">
        <g id="Grupo_1114226" data-name="Grupo 1114226" clip-path="url(#clip-path)">
          <path id="Trazado_906235" data-name="Trazado 906235" d="M437.286,396.626h-203.7a7.848,7.848,0,0,1-7.848-7.848V244.669a7.848,7.848,0,0,1,7.848-7.848h203.7a7.848,7.848,0,0,1,7.848,7.848V388.778a7.848,7.848,0,0,1-7.848,7.848" fill="#fff"/>
          <rect id="Rectángulo_406352" data-name="Rectángulo 406352" width="219.394" height="159.805" rx="7.848" transform="translate(225.74 236.821)" fill="none" stroke="#303030" stroke-linecap="round" stroke-linejoin="round" stroke-width="2"/>
          <path id="Trazado_906236" data-name="Trazado 906236" d="M295.713,343.121l-3.928,30.816a58.561,58.561,0,0,1-47-64.835c2.551-19.949,13.572-35.649,31.206-44.565l12.5,28.418a27.586,27.586,0,0,0,7.223,50.166" fill="#5ab4f9"/>
          <path id="Trazado_906237" data-name="Trazado 906237" d="M361.257,317.365A58.217,58.217,0,0,1,299,374.84l3.906-30.768a27.559,27.559,0,0,0,27.452-25.233Z" fill="#fd9826"/>
          <path id="Trazado_906238" data-name="Trazado 906238" d="M360.93,310.126l-30.9,1.454a27.189,27.189,0,0,0-1.894-6.184,27.5,27.5,0,0,0-15.516-14.716l7.121-30.135a57.055,57.055,0,0,1,41.19,49.581" fill="#303030"/>
          <path id="Trazado_906239" data-name="Trazado 906239" d="M360.93,310.126l-30.9,1.454a27.189,27.189,0,0,0-1.894-6.184,27.5,27.5,0,0,0-15.516-14.716l7.121-30.135A57.055,57.055,0,0,1,360.93,310.126Z" fill="none" stroke="#303030" stroke-linecap="round" stroke-linejoin="round" stroke-width="1.5"/>
          <path id="Trazado_906240" data-name="Trazado 906240" d="M369.271,308.668l-35.018,1.648a31.305,31.305,0,0,0-19.73-23.685l8.07-34.15c26.016,7.733,43.843,29.186,46.678,56.187" fill="#fff"/>
          <path id="Trazado_906241" data-name="Trazado 906241" d="M369.271,308.668l-35.018,1.648a31.305,31.305,0,0,0-19.73-23.685l8.07-34.15C348.609,260.214,366.436,281.667,369.271,308.668Z" fill="none" stroke="#303030" stroke-linecap="round" stroke-linejoin="round" stroke-width="1.5"/>
          <path id="Trazado_906242" data-name="Trazado 906242" d="M312.672,258.869l-7.119,30.162a27.368,27.368,0,0,0-10.437.986l-12.475-28.393a54.831,54.831,0,0,1,30.031-2.755" fill="#303030"/>
          <path id="Trazado_906243" data-name="Trazado 906243" d="M284.617,324.514a19.953,19.953,0,1,0,10.242-26.294,19.954,19.954,0,0,0-10.242,26.294" fill="#8454ee"/>
          <path id="Trazado_906244" data-name="Trazado 906244" d="M345.08,283.914l16.993-16.993H424.75" fill="none" stroke="#fd9826" stroke-linecap="round" stroke-linejoin="round" stroke-width="1.5"/>
          <path id="Trazado_906245" data-name="Trazado 906245" d="M423.811,260.978H370.189a1.529,1.529,0,0,1,0-3.058h53.622a1.529,1.529,0,0,1,0,3.058" fill="#fd9826"/>
          <line id="Línea_1916" data-name="Línea 1916" x1="34.672" transform="translate(390.078 280.166)" fill="none" stroke="#303030" stroke-linecap="round" stroke-linejoin="round" stroke-width="2"/>
          <line id="Línea_1917" data-name="Línea 1917" x1="34.672" transform="translate(390.078 288.267)" fill="none" stroke="#303030" stroke-linecap="round" stroke-linejoin="round" stroke-width="2"/>
          <line id="Línea_1918" data-name="Línea 1918" x1="34.672" transform="translate(390.078 296.368)" fill="none" stroke="#303030" stroke-linecap="round" stroke-linejoin="round" stroke-width="2"/>
          <line id="Línea_1919" data-name="Línea 1919" x1="34.672" transform="translate(390.078 319.237)" fill="none" stroke="#303030" stroke-linecap="round" stroke-linejoin="round" stroke-width="2"/>
          <line id="Línea_1920" data-name="Línea 1920" x1="34.672" transform="translate(390.078 327.338)" fill="none" stroke="#303030" stroke-linecap="round" stroke-linejoin="round" stroke-width="2"/>
          <line id="Línea_1921" data-name="Línea 1921" x1="34.672" transform="translate(390.078 335.439)" fill="none" stroke="#303030" stroke-linecap="round" stroke-linejoin="round" stroke-width="2"/>
          <line id="Línea_1922" data-name="Línea 1922" x1="34.672" transform="translate(390.078 358.308)" fill="none" stroke="#303030" stroke-linecap="round" stroke-linejoin="round" stroke-width="2"/>
          <line id="Línea_1923" data-name="Línea 1923" x1="34.672" transform="translate(390.078 366.409)" fill="none" stroke="#303030" stroke-linecap="round" stroke-linejoin="round" stroke-width="2"/>
          <line id="Línea_1924" data-name="Línea 1924" x1="34.672" transform="translate(390.078 374.51)" fill="none" stroke="#303030" stroke-linecap="round" stroke-linejoin="round" stroke-width="2"/>
        </g>
      </g>
      <g id="Grupo_1114229" data-name="Grupo 1114229">
        <g id="Grupo_1114228" data-name="Grupo 1114228" clip-path="url(#clip-path)">
          <path id="Trazado_906246" data-name="Trazado 906246" d="M96,223.941c.721,14.11-10.4,25.959-25.172,26.714s-27.335-10.074-28.055-24.183,5.169-19.693,13.238-24.809c26.233-14.887,48.487-.256,39.989,22.278" fill="#303030"/>
          <path id="Trazado_906247" data-name="Trazado 906247" d="M79.487,229.765c-2.873,1.256-4.489-.929-5.707-3.2l-17.773-24.9c-20.5,5.864-20.735,22.971-18.267,36.005-19.968,5.517-17.429,41.364,4.91,38.924,1.261.054,1.257.168,2.321,1.155A34.283,34.283,0,0,0,54,283.686c9.164,4.581,42.265.691,31.85-14.678,29.521-1.434,19.285-45.267-6.366-39.243" fill="#303030"/>
          <path id="Trazado_906248" data-name="Trazado 906248" d="M91.636,232.85c8.2.937,13.181,7.441,14.683,14.607,1.125,5.364-.456,18.071-15.654,19.656" fill="none" stroke="#303030" stroke-linecap="round" stroke-linejoin="round" stroke-width="1.5"/>
          <path id="Trazado_906249" data-name="Trazado 906249" d="M57.292,208.074c1.175,17.616-7.685,21.895-7.685,21.895a31.383,31.383,0,0,1,3.029,7.038,11.819,11.819,0,0,0-8.425-4.475c-3.32-.1-6.791,1.994-7.488,5.1-.689,3.071,1.506,6.27,4.5,7.55a12.005,12.005,0,0,0,10.526-.848l0,0a17.275,17.275,0,0,0,8.738,7.624l-1.017,13-8.114,2.534s3.353,16.517,32.8,16.785c21.979.2,6.56-19.665,6.56-19.665l-10.047-1.1-1.721-9.379c5.517-.836,21.38-6.676,17.618-27.637a30.372,30.372,0,0,0-4.483-11.279h0c-8.985-13.146-24.682-12.34-34.79-7.137" fill="#ffc4b0"/>
          <path id="Trazado_906250" data-name="Trazado 906250" d="M41.3,237.222a6.072,6.072,0,0,1,4.5-.547,5.788,5.788,0,0,1,4.092,3.679" fill="none" stroke="#303030" stroke-linecap="round" stroke-linejoin="round" stroke-width="1.5"/>
          <path id="Trazado_906251" data-name="Trazado 906251" d="M44.565,239.188a4.48,4.48,0,0,1,4.446-.448" fill="none" stroke="#303030" stroke-linecap="round" stroke-linejoin="round" stroke-width="1.5"/>
          <path id="Trazado_906252" data-name="Trazado 906252" d="M67.276,253.639a27.36,27.36,0,0,0,11.672.488l.564,3.068s-7.064.8-12.236-3.556" fill="#303030"/>
          <path id="Trazado_906253" data-name="Trazado 906253" d="M59.355,231.13a.859.859,0,1,1-.867-.851.858.858,0,0,1,.867.851" fill="#303030"/>
          <path id="Trazado_906254" data-name="Trazado 906254" d="M76.192,221.823c.184,1.786.755,3.937,2.982,7.169a4.053,4.053,0,0,1,.656,1.193,2.429,2.429,0,0,1-.416,1.944,6.661,6.661,0,0,1-1.455,1.433" fill="none" stroke="#303030" stroke-linecap="round" stroke-linejoin="round" stroke-width="1.5"/>
          <path id="Trazado_906255" data-name="Trazado 906255" d="M91.932,223.325a5.434,5.434,0,0,0-5.336-2.573c-2.125.276-4.917,1.9-4.847,4.935,1.4,2.776,8.213,2.255,10.183-2.362" fill="#fff"/>
          <path id="Trazado_906256" data-name="Trazado 906256" d="M91.248,225.033a2.832,2.832,0,0,1-3.833,1.084,2.786,2.786,0,0,1-1.249-3.755A2.833,2.833,0,0,1,90,221.278a2.786,2.786,0,0,1,1.248,3.755" fill="#303030"/>
          <path id="Trazado_906257" data-name="Trazado 906257" d="M85.971,222.278l2.736,1.42-3.178.1Z" fill="#fff"/>
          <path id="Trazado_906258" data-name="Trazado 906258" d="M81.75,225.687a6.185,6.185,0,0,1,4.566-4.268,5.5,5.5,0,0,1,5.557,1.18" fill="none" stroke="#303030" stroke-linecap="round" stroke-linejoin="round" stroke-width="1.5"/>
          <path id="Trazado_906259" data-name="Trazado 906259" d="M93.628,220.962a2.289,2.289,0,0,1-1.759,1.593" fill="none" stroke="#303030" stroke-linecap="round" stroke-linejoin="round" stroke-width="1.5"/>
          <path id="Trazado_906260" data-name="Trazado 906260" d="M82.24,215.08a10.507,10.507,0,0,1,8.424,1.516" fill="none" stroke="#303030" stroke-linecap="round" stroke-linejoin="round" stroke-width="1.5"/>
          <path id="Trazado_906261" data-name="Trazado 906261" d="M61.454,226.646a5.431,5.431,0,0,1,4.775-3.5c2.139-.117,5.181.966,5.667,3.966-.868,2.985-7.661,3.717-10.442-.462" fill="#fff"/>
          <path id="Trazado_906262" data-name="Trazado 906262" d="M71.138,227.966a2.973,2.973,0,0,1-4.056,1.019,2.925,2.925,0,0,1-1.194-3.979,2.972,2.972,0,0,1,4.056-1.018,2.924,2.924,0,0,1,1.194,3.978" fill="#303030"/>
          <path id="Trazado_906263" data-name="Trazado 906263" d="M65.685,224.912l2.828,1.574-3.338.005Z" fill="#fff"/>
          <path id="Trazado_906264" data-name="Trazado 906264" d="M71.9,227.108a6.181,6.181,0,0,0-5.269-3.361,5.5,5.5,0,0,0-5.248,2.175" fill="none" stroke="#303030" stroke-linecap="round" stroke-linejoin="round" stroke-width="1.5"/>
          <path id="Trazado_906265" data-name="Trazado 906265" d="M59.355,224.634a2.285,2.285,0,0,0,2.02,1.244" fill="none" stroke="#303030" stroke-linecap="round" stroke-linejoin="round" stroke-width="1.5"/>
          <path id="Trazado_906266" data-name="Trazado 906266" d="M68.869,216.345c-3.779-.173-6.132.519-8.689,3.2" fill="none" stroke="#303030" stroke-linecap="round" stroke-linejoin="round" stroke-width="1.5"/>
          <path id="Trazado_906267" data-name="Trazado 906267" d="M75.174,238.919c1.691.113,3.747.471,4.334,1.955a4.578,4.578,0,0,1,2.206-2.275,6.431,6.431,0,0,0-3.347-.742,8.271,8.271,0,0,0-3.193,1.062" fill="#303030"/>
          <path id="Trazado_906268" data-name="Trazado 906268" d="M72.355,239.685a6.457,6.457,0,0,0,6.125,2.3c.749-.126.783-.594,1.028-1.111-.116-.711-1.27-2.061-4.334-1.955a5.98,5.98,0,0,1-2.819.766" fill="#fff"/>
          <path id="Trazado_906269" data-name="Trazado 906269" d="M83.355,238.672c-1.691.058-3.3-.918-4.989-.816a12.679,12.679,0,0,0-3.722,1.284c-1.227.484-2.743.694-3.769-.135" fill="none" stroke="#303030" stroke-linecap="round" stroke-linejoin="round" stroke-width="1.5"/>
          <path id="Trazado_906270" data-name="Trazado 906270" d="M81.867,238.647a5.141,5.141,0,0,0-2.506,2.545,1.1,1.1,0,0,1-.881.792c-1.245.271-4.681-.083-6.192-2.4" fill="none" stroke="#303030" stroke-linecap="round" stroke-linejoin="round" stroke-width="1.5"/>
          <path id="Trazado_906271" data-name="Trazado 906271" d="M179.5,296.371c4.539-10.883,10.795-33.853,13.858-36.705,2.65-2.467,6.37-3.149,9.117-10.426a19.194,19.194,0,0,0,.88-5.561,18.831,18.831,0,0,0,3.068-2.609c.957-1.535,1.364-2.955.35-4.789a2.659,2.659,0,0,0-.612-.74,2.38,2.38,0,0,0-2.32-.717,4.4,4.4,0,0,0-.971-3.692c-1-.881-1.918-1.338-2.88-.42.335-2.658-3.587-4.965-4.413-5.126,0,0,1.8-4.563,2.923-6.974s1.774-4.446,1.581-5.824c-.441-3.153-2.493-3.622-3.651-2.392-1.237,1.312-2,2.675-4.061,5.912-1.637,2.568-5.818,9.038-7.126,11.074a54.746,54.746,0,0,0-3.4,5.487c-1.815,4.11-1.619,7.962-2.477,11.778-.744,3.314-2.711,6.4-5.262,10.479-4.878,7.8-14.275,21.556-14.275,21.556s-34.419-7.929-40.014-9.616-19.5-1.983-19.5-1.983L106.45,295.9s32.694,4.658,46.026,6.725c13.3,2.061,22.3,5.067,27.02-6.255" fill="#ffc4b0"/>
          <path id="Trazado_906272" data-name="Trazado 906272" d="M192.046,233.513c1.232-.689,2.057-2.5,2.517-3.945" fill="none" stroke="#303030" stroke-linecap="round" stroke-linejoin="round" stroke-width="1.5"/>
          <path id="Trazado_906273" data-name="Trazado 906273" d="M199.985,230.712c-.614,4.241-3.8,5.139-4.955,6.406" fill="none" stroke="#303030" stroke-linecap="round" stroke-linejoin="round" stroke-width="1.5"/>
          <path id="Trazado_906274" data-name="Trazado 906274" d="M203.837,234.824c-.79,3.238-4.1,6.207-6.95,6" fill="none" stroke="#303030" stroke-linecap="round" stroke-linejoin="round" stroke-width="1.5"/>
          <path id="Trazado_906275" data-name="Trazado 906275" d="M203.461,243.286c-1.177,1.3-5.309,2.315-7.224-.107" fill="none" stroke="#303030" stroke-linecap="round" stroke-linejoin="round" stroke-width="1.5"/>
          <path id="Trazado_906276" data-name="Trazado 906276" d="M185.706,232.744a43.621,43.621,0,0,1,4.818,1.067,4.592,4.592,0,0,1,1.8.988,10.154,10.154,0,0,1,1.458,1.9c.452.731.845,1.5,1.25,2.263a9.592,9.592,0,0,1,1.074,2.337c.161.774-.491,1.157-1.164,1.248a3.174,3.174,0,0,1-2.215-.716c-1.583-1.109-2.741-2.7-4.82-2.849-.964-.068-.959,1.432,0,1.5a4.5,4.5,0,0,1,2.494,1.351,11.57,11.57,0,0,0,2.244,1.7c1.478.763,3.893.81,4.736-.929a3.343,3.343,0,0,0-.351-2.991c-.385-.844-.835-1.655-1.276-2.471-.817-1.512-1.813-3.325-3.388-4.172-1.934-1.039-4.157-1.209-6.263-1.675-.941-.209-1.343,1.237-.4,1.446" fill="#303030"/>
          <path id="Trazado_906277" data-name="Trazado 906277" d="M191.245,242.495a5.517,5.517,0,0,1,.3,4.581,5.438,5.438,0,0,1-3.822,3.249.75.75,0,0,0,.4,1.446,6.854,6.854,0,0,0,4.417-10.033c-.464-.847-1.76-.091-1.295.757" fill="#303030"/>
          <path id="Trazado_906278" data-name="Trazado 906278" d="M26.954,381.278c-4.59-3.907-5.683-6.8-3.18-15.368,2.257-7.73,8.365-22.008,7.136-33.6-4.8-45.2-9.427-50.836,4.361-61.074l20.659-5.886c7.883,11.345,30.32,8.516,27.613-1.895l16.766,1.626s14.356,15.9,18.59,23.462c8.994,16.049,7.846,33.241-1.481,43.922.1,3.686,1.826,13.237,1.826,13.237,5.346,6.91,6.627,10.03,9.74,17.349-12.317,32.806-74.878,36.506-102.03,18.224" fill="#fff"/>
          <path id="Trazado_906279" data-name="Trazado 906279" d="M26.954,381.278c-4.59-3.907-5.683-6.8-3.18-15.368,2.257-7.73,8.365-22.008,7.136-33.6-4.8-45.2-9.427-50.836,4.361-61.074l20.659-5.886c7.883,11.345,30.32,8.516,27.613-1.895l16.766,1.626s14.356,15.9,18.59,23.462c8.994,16.049,7.846,33.241-1.481,43.922.1,3.686,1.826,13.237,1.826,13.237,5.346,6.91,6.627,10.03,9.74,17.349C116.667,395.86,54.106,399.56,26.954,381.278Z" fill="none" stroke="#303030" stroke-linecap="round" stroke-linejoin="round" stroke-width="1.5"/>
          <path id="Trazado_906280" data-name="Trazado 906280" d="M93.873,315.122,114.816,261.3a2.121,2.121,0,0,1,1.98-1.354l86.3-1.769a2.853,2.853,0,0,1,2.123.937c.624.666,2.614,2.851,3.156,3.445a2.768,2.768,0,0,1,.64,2.835L188.07,319.216a2.12,2.12,0,0,1-1.981,1.354l-21.965.45-64.332,1.319a2.883,2.883,0,0,1-2.171-.981c-.61-.669-2.558-2.8-3.1-3.392a2.77,2.77,0,0,1-.648-2.844" fill="#fff"/>
          <path id="Trazado_906281" data-name="Trazado 906281" d="M93.873,315.122,114.816,261.3a2.121,2.121,0,0,1,1.98-1.354l86.3-1.769a2.853,2.853,0,0,1,2.123.937c.624.666,2.614,2.851,3.156,3.445a2.768,2.768,0,0,1,.64,2.835L188.07,319.216a2.12,2.12,0,0,1-1.981,1.354l-21.965.45-64.332,1.319a2.883,2.883,0,0,1-2.171-.981c-.61-.669-2.558-2.8-3.1-3.392A2.77,2.77,0,0,1,93.873,315.122Z" fill="none" stroke="#303030" stroke-linecap="round" stroke-linejoin="round" stroke-width="1.5"/>
          <path id="Trazado_906282" data-name="Trazado 906282" d="M99.792,322.339l64.332-1.319,21.965-.45a2.12,2.12,0,0,0,1.981-1.354l20.943-53.822a2.949,2.949,0,0,0-2.794-3.805l-86.3,1.769a2.143,2.143,0,0,0-2,1.413L96.976,318.592a2.946,2.946,0,0,0,2.816,3.747" fill="#fd9826"/>
          <path id="Trazado_906283" data-name="Trazado 906283" d="M99.792,322.339l64.332-1.319,21.965-.45a2.12,2.12,0,0,0,1.981-1.354l20.943-53.822a2.949,2.949,0,0,0-2.794-3.805l-86.3,1.769a2.143,2.143,0,0,0-2,1.413L96.976,318.592A2.946,2.946,0,0,0,99.792,322.339Z" fill="none" stroke="#303030" stroke-linecap="round" stroke-linejoin="round" stroke-width="1.5"/>
          <path id="Trazado_906284" data-name="Trazado 906284" d="M151.271,296.369h.029c3.787-.077,7.624-2.113,8.571-4.546s-1.356-4.343-5.142-4.265H154.7c-3.787.078-7.624,2.113-8.571,4.547s1.356,4.343,5.142,4.265" fill="#fff"/>
          <path id="Trazado_906285" data-name="Trazado 906285" d="M28.018,323.009c3.677,8.023,6.833,14.947,10.008,20.7,5.336,9.66,13.608,19.554,27.464,12.667,13.989-6.953,30.726-21.949,38.805-28.958,8.485-7.36,8.237-13.511,9.379-15.6s7.357-5.78,13.569-8.156c5.784-2.211,7.589-5.474,5.609-7.657,3.679-1.528,4.175-6.925,1.236-6.746-3.492.212-20.687,6.5-20.687,6.5a60.464,60.464,0,0,1,9.051-5.7c2.411-1.239,7.527-3.021,8.626-3.437,3.528-1.332,3.085-4.8,1.156-4.728s-8.86.958-11.695,2.2-11.421,5.617-11.421,5.617l2.6-4.979s5.326-3.149,8.419-5.13,2.322-5.916-.719-4.769c-3.248.767-11.208,3.794-13.132,5.274s-7.939,6.936-8.624,9.842a56.893,56.893,0,0,0-1.278,9.464c-.217,3.433.019,6.836-7.243,10.071-7.086,3.158-22.165,9.9-22.165,9.9L56.213,299.272c-6.452-11.584-13.463-26.431-20.941-28.034C21.813,272.917,17.716,285.6,18.064,292.7c.561,11.468,4.147,17.64,9.954,30.31" fill="#ffc4b0"/>
          <path id="Trazado_906286" data-name="Trazado 906286" d="M110.931,296.481a135.323,135.323,0,0,1,19.487-6.414" fill="none" stroke="#303030" stroke-linecap="round" stroke-linejoin="round" stroke-width="1.5"/>
          <path id="Trazado_906287" data-name="Trazado 906287" d="M132.852,296.005c-.058-.45-2.15-.153-5.983,1.289-3.387,1.276-11.428,4.526-11.428,4.526" fill="none" stroke="#303030" stroke-linecap="round" stroke-linejoin="round" stroke-width="1.5"/>
          <path id="Trazado_906288" data-name="Trazado 906288" d="M35.272,270.345c6.939,2.765,10.068,9.233,19.943,27.116,9.268,16.786,11.765,21.934,11.765,21.934-9.509,3.882-17.316,12.665-18.425,19.953" fill="none" stroke="#303030" stroke-linecap="round" stroke-linejoin="round" stroke-width="1.5"/>
          <path id="Trazado_906289" data-name="Trazado 906289" d="M243.028,387.927c-12.78-8.2-46.036-24.327-108.41-28.482-1.018,0-61.325-12.064-61.325-12.064s-5.5,25.454-2.036,49.482,23.621,35.765,42.354,34.784,127.428.452,127.428.452Z" fill="#3e7dad"/>
          <path id="Trazado_906290" data-name="Trazado 906290" d="M179.534,399.466c-7.514.51-16.391,10.681-9.962,23.544,7.023,14.053,12.4,17.817,21.092,18.29s16.752-11.45,11.935-24.044c-4.036-10.549-10.195-17.769-23.065-17.79" fill="#303030"/>
          <path id="Trazado_906291" data-name="Trazado 906291" d="M121.543,408.3l32.5,27.932s19.223.986,59.6,4.228c36.145,2.9,45.658-11.621,44.192-23.723-1.679-13.873-16.727-19.764-36.355-22.116-14.829-1.777-16.3,5.953-48.136,9.4-29.191,3.158-51.8,4.28-51.8,4.28" fill="#ffc4b0"/>
          <path id="Trazado_906292" data-name="Trazado 906292" d="M164.653,404.921c.067-3.341-3.376-3.4-7.807-2.875a53.432,53.432,0,0,1-14.107-.549c-5.074-.856-8.128-4.129-14.847-3.573,5.122,7.959,7.789,15.221,8.829,26.847a37.4,37.4,0,0,1-5.711,23.57c7.3-1.591,9.884-1.767,14.42-2.544,7.544-1.292,10.153-1.477,14.864-2.011,7.376-.838,8.729-2.87,8.729-7.075l-3.965-.142s3.582-1.1,4.594-3.638c2.052-5.147.029-19.228-3.191-24.321-1.495-2.363-6.356-3.247-6.356-3.247Z" fill="#cdb9f8"/>
          <path id="Trazado_906293" data-name="Trazado 906293" d="M127.892,397.924c5.121,7.959,7.788,15.221,8.829,26.847a37.39,37.39,0,0,1-5.712,23.57,26.981,26.981,0,0,1-10.085,1.1,37.4,37.4,0,0,0,5.711-23.571c-1.04-11.626-3.707-18.887-8.828-26.847,2.441-1,5.678-1.455,10.085-1.1" fill="#fff"/>
          <path id="Trazado_906294" data-name="Trazado 906294" d="M127.892,397.924c5.121,7.959,7.788,15.221,8.829,26.847a37.39,37.39,0,0,1-5.712,23.57,26.981,26.981,0,0,1-10.085,1.1,37.4,37.4,0,0,0,5.711-23.571c-1.04-11.626-3.707-18.887-8.828-26.847C120.248,398.025,123.485,397.572,127.892,397.924Z" fill="none" stroke="#303030" stroke-linecap="round" stroke-linejoin="round" stroke-width="1.5"/>
          <path id="Trazado_906295" data-name="Trazado 906295" d="M117.807,399.028c5.121,7.959,7.788,15.221,8.828,26.847a37.386,37.386,0,0,1-5.711,23.57c-1.224,1.126-5.55-10.408-6.819-25.231s1.842-25.912,3.7-25.186" fill="#303030"/>
          <path id="Trazado_906296" data-name="Trazado 906296" d="M117.807,399.028c5.121,7.959,7.788,15.221,8.828,26.847a37.386,37.386,0,0,1-5.711,23.57c-1.224,1.126-5.55-10.408-6.819-25.231S115.947,398.3,117.807,399.028Z" fill="none" stroke="#303030" stroke-linecap="round" stroke-linejoin="round" stroke-width="1.5"/>
          <line id="Línea_1925" data-name="Línea 1925" x1="24.262" y2="0.483" transform="translate(144.761 436.711)" fill="none" stroke="#303030" stroke-linecap="round" stroke-linejoin="round" stroke-width="1.5"/>
          <path id="Trazado_906297" data-name="Trazado 906297" d="M164.653,404.921c-8.233,1.53-21.008,4.9-21.008,4.9" fill="none" stroke="#303030" stroke-linecap="round" stroke-linejoin="round" stroke-width="1.5"/>
          <path id="Trazado_906298" data-name="Trazado 906298" d="M133.174,444.505c23.491-4.82,17.592-41.079-2.694-42.216" fill="none" stroke="#303030" stroke-linecap="round" stroke-linejoin="round" stroke-width="1.5"/>
          <path id="Trazado_906299" data-name="Trazado 906299" d="M179.534,399.466c12.663,2.02,30.336,38.687,11.13,41.834,0,0,35.663,2.747,49.576-.077s20-14.141,20.025-22.909c.03-9.528-3.429-22.671-17.237-30.387-8.212-.212-18.458,2.747-27.012,3.954-13.492,1.906-20.531,5.02-36.482,7.585" fill="#3e7dad"/>
          <path id="Trazado_906300" data-name="Trazado 906300" d="M179.534,399.466c15.951-2.565,14.422-4.26,27.9-6.245,13.235-1.949,20.822,1.153,20.822,1.153" fill="none" stroke="#303030" stroke-linecap="round" stroke-linejoin="round" stroke-width="1.5"/>
          <path id="Trazado_906301" data-name="Trazado 906301" d="M193.248,397.094c13.934,7.476,23.273,38.942,9.208,44.821" fill="none" stroke="#303030" stroke-linecap="round" stroke-linejoin="round" stroke-width="1.5"/>
          <path id="Trazado_906302" data-name="Trazado 906302" d="M218.49,387.927c-10.834,1.93-13.733,3.481-18.526,6.608" fill="none" stroke="#303030" stroke-linecap="round" stroke-linejoin="round" stroke-width="1.5"/>
          <path id="Trazado_906303" data-name="Trazado 906303" d="M168.147,418.725l-46.758-28.161s-21.43,27.964-36.326,35.519-30.837,8.386-43.643,0-18.293-22.974-12.8-46.756c0,0,43.13-30.388,56.072-38.406,24.043-14.9,37.782-17.132,48.165-8.362,7.38,6.234,18.477,19.844,36.295,37.651,20.409,20.4,28.374,31.331,33.908,35.976s9.092,6.424,19.284,10.606,23.189,9.4,29.722,11.51,10.46,4.783,10.449,11.517l-69.369,1.468a13.13,13.13,0,0,1-11.917-7.048l-3.187-6.1a21.147,21.147,0,0,0-9.89-9.414" fill="#ffc4b0"/>
          <path id="Trazado_906304" data-name="Trazado 906304" d="M205.389,405.974c-3.674-3.757-4.988-6.042-6.792-8.168s-3.7-5.035-6.078-3.512l2.035,2.8s-2.252,5.2-13.737,12.731a46.212,46.212,0,0,1-16.565,6.554l-3.04-1.83s-1.775,1.618,1.621,3.048,4.815.828,4.815.828L170.3,423.1s-.142,11.315,1.344,14.392,10.931,3.181,25.364,3.342,66.222-.582,66.222-.582.637-6.368-6.686-9.552-20.164-6.872-30.988-11.66a70.7,70.7,0,0,1-20.164-13.067" fill="#303030"/>
          <path id="Trazado_906305" data-name="Trazado 906305" d="M205.389,405.974c-3.674-3.757-4.988-6.042-6.792-8.168s-3.7-5.035-6.078-3.512l2.035,2.8s-2.252,5.2-13.737,12.731a46.212,46.212,0,0,1-16.565,6.554l-3.04-1.83s-1.775,1.618,1.621,3.048,4.815.828,4.815.828L170.3,423.1s-.142,11.315,1.344,14.392,10.931,3.181,25.364,3.342,66.222-.582,66.222-.582.637-6.368-6.686-9.552-20.164-6.872-30.988-11.66A70.7,70.7,0,0,1,205.389,405.974Z" fill="none" stroke="#303030" stroke-linecap="round" stroke-linejoin="round" stroke-width="1.5"/>
          <line id="Línea_1926" data-name="Línea 1926" x1="46.758" y1="28.161" transform="translate(121.389 390.564)" fill="none" stroke="#303030" stroke-linecap="round" stroke-linejoin="round" stroke-width="1.5"/>
          <path id="Trazado_906306" data-name="Trazado 906306" d="M264.177,435.85a38.769,38.769,0,0,1,1.717,5.955,105.924,105.924,0,0,1-21.57,2.7c-14.571-.027-32-1.714-38.432-1.663-10.677.085-29.973,1.2-36.425-2.018a9.613,9.613,0,0,1-.414-1.174c-1.223-4.492-.734-7.341.094-12.973-3.3-1.434-4.22-5.976-1-7.952l4.047,2.218c3.6,1.972,9.177,1.442,12.706-.242,5.267-2.514,7.155-4.2,8.284-6.53a8.914,8.914,0,0,1-1.626-4.232c-.01-3.992,6.227-5.166,9.413-6.558,4.339-1.9,5.647,1.647,9.07,4.174a73.752,73.752,0,0,0,9.739,6.061c4.495,2.5,8.844,4.472,19.242,8.5,3.277,1.269,7.04,2.492,14.445,5.115,6.169,2.186,9.161,4.856,10.71,8.62" fill="#cdb9f8"/>
          <path id="Trazado_906307" data-name="Trazado 906307" d="M169.053,439.651c-1.223-4.492-.734-7.341.094-12.974-3.3-1.434-4.22-5.975-1-7.951" fill="none" stroke="#303030" stroke-linecap="round" stroke-linejoin="round" stroke-width="1.5"/>
          <path id="Trazado_906308" data-name="Trazado 906308" d="M197.341,415.755a99.3,99.3,0,0,0,17.755,9.962,107.842,107.842,0,0,0,15.366,5.092c2.732.705,5.479,1.347,8.221,2.014.938.228,1.338-1.218.4-1.446-4.9-1.193-9.827-2.323-14.648-3.827a90.619,90.619,0,0,1-16.044-6.722A106.9,106.9,0,0,1,198.1,414.46c-.794-.553-1.545.747-.757,1.3" fill="#303030"/>
          <path id="Trazado_906309" data-name="Trazado 906309" d="M168.736,419.688c3.944,2.948,8.837,4.29,13.656,4.917a57.927,57.927,0,0,0,12.107.263,20.256,20.256,0,0,0,6.564-1.345c.882-.388.119-1.681-.757-1.3a17.269,17.269,0,0,1-5.367,1.1,59.609,59.609,0,0,1-6.226.21,44.169,44.169,0,0,1-11.979-1.622,22.938,22.938,0,0,1-7.241-3.525c-.774-.578-1.522.723-.757,1.295" fill="#303030"/>
          <path id="Trazado_906310" data-name="Trazado 906310" d="M168.768,427.324a50.225,50.225,0,0,0,15.568,4.229,122.614,122.614,0,0,0,16.161.43,32.083,32.083,0,0,1,8.009.681,29.438,29.438,0,0,1,5.868,2.19c2.034.975,4.039,2,6.119,2.877,2.433,1.022,4.949,1.841,7.4,2.811,3.816,1.509,7.542,3.132,11.717,3.156a.75.75,0,0,0,0-1.5c-3.559-.02-6.776-1.29-10.035-2.591-2.34-.935-4.711-1.778-7.066-2.673-2.181-.828-4.271-1.853-6.363-2.88a40.454,40.454,0,0,0-5.662-2.4,27.225,27.225,0,0,0-7.3-1.161c-2.735-.088-5.473.075-8.208.084-2.662.009-5.326-.059-7.981-.267a50.357,50.357,0,0,1-17.476-4.283c-.869-.407-1.631.886-.757,1.3" fill="#303030"/>
          <path id="Trazado_906311" data-name="Trazado 906311" d="M241.933,423.426c-4.382,4.968-4.37,12.558-3.053,18.679.2.943,1.649.544,1.446-.4-1.193-5.548-1.326-12.691,2.668-17.219.636-.722-.421-1.787-1.061-1.061" fill="#303030"/>
          <path id="Trazado_906312" data-name="Trazado 906312" d="M265.96,444.365a4.579,4.579,0,0,1-4.044,5.971c-4.558.349-13.241.464-31.706.429l-48.4-.09c-6.516-.012-10.311-.233-11.8-2.953-1.09-1.994-.956-4.9-.549-6.9,6.451,3.217,24.194,1.867,36.424,2.018,6.45.08,22.39.085,36.961.112,7.076.014,22.385-.709,22.385-.709a13.189,13.189,0,0,1,.722,2.12" fill="#fff"/>
          <path id="Trazado_906313" data-name="Trazado 906313" d="M265.96,444.365a4.579,4.579,0,0,1-4.044,5.971c-4.558.349-13.241.464-31.706.429l-48.4-.09c-6.516-.012-10.311-.233-11.8-2.953-1.09-1.994-.956-4.9-.549-6.9,6.451,3.217,24.194,1.867,36.424,2.018,6.45.08,22.39.085,36.961.112,7.076.014,22.385-.709,22.385-.709A13.189,13.189,0,0,1,265.96,444.365Z" fill="none" stroke="#303030" stroke-linecap="round" stroke-linejoin="round" stroke-width="1.5"/>
          <path id="Trazado_906314" data-name="Trazado 906314" d="M187.306,384.354a123.8,123.8,0,0,1-34.784,27.106c-7.833-4.577-30.382-18.882-30.382-18.882s-22.8,27.1-28.407,32.542-12.608,13.131-31.9,13.131-31.518-13.3-35.333-21.566-6.815-21.769-3.177-35.216c3.444-12.726,5.271-11.694,5.271-11.694,6.3-5.252,20.363-9.817,24.571-11.262l1.776-1.172s36.5-23.269,47.092-27.975c10.806-4.8,24.151-6.16,35.12,3.6,10.863,9.669,50.157,51.386,50.157,51.386" fill="#3e7dad"/>
          <path id="Trazado_906315" data-name="Trazado 906315" d="M54.936,357.341s36.5-23.268,47.092-27.974c10.806-4.8,24.152-6.16,35.12,3.6,10.863,9.669,50.157,51.385,50.157,51.385a123.743,123.743,0,0,1-34.784,27.106c-7.833-4.577-30.381-18.882-30.381-18.882s-22.8,27.1-28.407,32.542-12.609,13.132-31.905,13.132" fill="none" stroke="#303030" stroke-linecap="round" stroke-linejoin="round" stroke-width="1.5"/>
          <path id="Trazado_906316" data-name="Trazado 906316" d="M28.589,369.775c6.3-5.252,20.363-9.817,24.571-11.261" fill="none" stroke="#303030" stroke-linecap="round" stroke-linejoin="round" stroke-width="1.5"/>
          <path id="Trazado_906317" data-name="Trazado 906317" d="M181.443,378.156c-5.092,6.795-24.551,20.838-36.675,28.554" fill="none" stroke="#303030" stroke-linecap="round" stroke-linejoin="round" stroke-width="1.5"/>
          <path id="Trazado_906318" data-name="Trazado 906318" d="M100.034,381.962c7.575,6.313,13.774,7.778,22.106,10.616-13-10.616-19.09-17.686-26-33.143" fill="none" stroke="#303030" stroke-linecap="round" stroke-linejoin="round" stroke-width="1.5"/>
          <path id="Trazado_906319" data-name="Trazado 906319" d="M54.936,357.341c-12.413,9.047-21.807,20.042-23.611,34.472" fill="none" stroke="#303030" stroke-linecap="round" stroke-linejoin="round" stroke-width="1.5"/>
        </g>
      </g>
      <path id="Trazado_906320" data-name="Trazado 906320" d="M434.1,111.924,406.93,72.568l-27.166,39.356h14.607v86.262H419.49V111.924Z" fill="#fff"/>
      <path id="Trazado_906321" data-name="Trazado 906321" d="M434.1,111.924,406.93,72.568l-27.166,39.356h14.607v86.262H419.49V111.924Z" fill="none" stroke="#8454ee" stroke-linecap="round" stroke-linejoin="round" stroke-width="2"/>
      <line id="Línea_1927" data-name="Línea 1927" x2="25.119" transform="translate(394.37 205.644)" fill="none" stroke="#8454ee" stroke-linecap="round" stroke-linejoin="round" stroke-width="2"/>
      <g id="Grupo_1114231" data-name="Grupo 1114231">
        <g id="Grupo_1114230" data-name="Grupo 1114230" clip-path="url(#clip-path)">
          <path id="Trazado_906322" data-name="Trazado 906322" d="M201.359,1H107.024a7.64,7.64,0,0,0-7.64,7.639V68.227a7.64,7.64,0,0,0,7.64,7.639h37.027l6.2,12.4a4.4,4.4,0,0,0,7.879,0l6.2-12.4h37.027A7.639,7.639,0,0,0,209,68.227V8.639A7.639,7.639,0,0,0,201.359,1" fill="#fd9826"/>
          <path id="Trazado_906323" data-name="Trazado 906323" d="M201.359,1H107.024a7.64,7.64,0,0,0-7.64,7.639V68.227a7.64,7.64,0,0,0,7.64,7.639h37.027l6.2,12.4a4.4,4.4,0,0,0,7.879,0l6.2-12.4h37.027A7.639,7.639,0,0,0,209,68.227V8.639A7.639,7.639,0,0,0,201.359,1Z" fill="none" stroke="#303030" stroke-linecap="round" stroke-linejoin="round" stroke-width="2"/>
          <path id="Trazado_906324" data-name="Trazado 906324" d="M136.5,32.094a11.2,11.2,0,0,1-9.764-5.6,11.239,11.239,0,0,1-1.5-5.745,10.842,10.842,0,0,1,1.5-5.67,11.35,11.35,0,0,1,4.056-4.018,11.05,11.05,0,0,1,5.708-1.5,11.4,11.4,0,0,1,5.82,1.5,11.258,11.258,0,0,1,4.093,4.018,10.852,10.852,0,0,1,1.5,5.67,11.046,11.046,0,0,1-1.539,5.745,11.459,11.459,0,0,1-4.093,4.093,11.179,11.179,0,0,1-5.783,1.5m-2.183,21.494,30.273-40.752a6.247,6.247,0,1,1,10.03,7.451L144.346,61.039a6.248,6.248,0,0,1-10.031-7.451M136.474,24.5a3.526,3.526,0,0,0,2.681-1.043,3.667,3.667,0,0,0,.993-2.632,3.565,3.565,0,0,0-3.674-3.675A3.284,3.284,0,0,0,133.99,18.2,3.668,3.668,0,0,0,133,20.828a3.663,3.663,0,0,0,.993,2.632,3.284,3.284,0,0,0,2.484,1.043m35.334,39.809a11.251,11.251,0,0,1-5.745-1.5,11.058,11.058,0,0,1-4.094-4.093,11.239,11.239,0,0,1-1.5-5.745,10.842,10.842,0,0,1,1.5-5.67,11.35,11.35,0,0,1,4.056-4.018,11.05,11.05,0,0,1,5.708-1.5,11.4,11.4,0,0,1,5.82,1.5,11.269,11.269,0,0,1,4.094,4.018,10.852,10.852,0,0,1,1.5,5.67,11.152,11.152,0,0,1-11.341,11.34m-.012-7.677a3.666,3.666,0,0,0,2.632-.993,3.4,3.4,0,0,0,1.042-2.583,3.565,3.565,0,0,0-3.674-3.675,3.4,3.4,0,0,0-2.583,1.043,3.666,3.666,0,0,0-.993,2.632,3.408,3.408,0,0,0,1.043,2.583,3.538,3.538,0,0,0,2.533.993" fill="#fff"/>
        </g>
      </g>
    </g>
  </g>
</svg>
