<svg xmlns="http://www.w3.org/2000/svg" xmlns:xlink="http://www.w3.org/1999/xlink" width="93.722" height="93.723" viewBox="0 0 93.722 93.723">
  <defs>
    <filter id="Trazado_874925" x="0" y="0" width="93.722" height="93.723" filterUnits="userSpaceOnUse">
      <feOffset dy="3" input="SourceAlpha"/>
      <feGaussianBlur stdDeviation="3" result="blur"/>
      <feFlood flood-opacity="0.161"/>
      <feComposite operator="in" in2="blur"/>
      <feComposite in="SourceGraphic"/>
    </filter>
  </defs>
  <g id="Grupo_1114775" data-name="Grupo 1114775" transform="translate(-765.051 -13184)">
    <g id="Grupo_1112924" data-name="Grupo 1112924" transform="translate(774.051 13190)">
      <g id="Grupo_1109835" data-name="Grupo 1109835" transform="translate(0 0)">
        <g id="Grupo_1107913" data-name="Grupo 1107913" transform="translate(0 0)">
          <g transform="matrix(1, 0, 0, 1, -9, -6)" filter="url(#Trazado_874925)">
            <g id="Trazado_874925-2" data-name="Trazado 874925" transform="translate(9 6)" fill="#5ab4f9" opacity="0.859">
              <path d="M 37.86101913452148 74.2225341796875 C 32.95165252685547 74.2225341796875 28.1899299621582 73.26136779785156 23.7081298828125 71.36572265625 C 19.37846374511719 69.534423828125 15.48970794677734 66.91244506835938 12.1498966217041 63.57263565063477 C 8.810074806213379 60.23281097412109 6.188107967376709 56.34405517578125 4.356808185577393 52.01438903808594 C 2.461163520812988 47.53257751464844 1.499996900558472 42.77085494995117 1.499996900558472 37.86148834228516 C 1.499996900558472 32.95167922973633 2.461163520812988 28.18995666503906 4.356808185577393 23.70814514160156 C 6.188107967376709 19.37847900390625 8.810074806213379 15.48972225189209 12.1498966217041 12.14990043640137 C 15.48970794677734 8.810089111328125 19.37846374511719 6.188111305236816 23.7081298828125 4.3568115234375 C 28.1899299621582 2.461167097091675 32.95165252685547 1.500000476837158 37.86101913452148 1.500000476837158 C 42.7703857421875 1.500000476837158 47.53210830688477 2.461167097091675 52.01390838623047 4.3568115234375 C 56.34357452392578 6.188111305236816 60.23233032226562 8.810089111328125 63.57213973999023 12.14990043640137 C 66.91196441650391 15.48972225189209 69.53392791748047 19.37847900390625 71.36522674560547 23.70814514160156 C 73.26087188720703 28.18995666503906 74.22203826904297 32.95167922973633 74.22203826904297 37.86104583740234 C 74.22203826904297 42.77085494995117 73.26087188720703 47.53257751464844 71.36522674560547 52.01438903808594 C 69.53392791748047 56.34405517578125 66.91196441650391 60.23281097412109 63.57213973999023 63.57263565063477 C 60.23233032226562 66.91244506835938 56.34357452392578 69.534423828125 52.01390838623047 71.36572265625 C 47.53210830688477 73.26136779785156 42.7703857421875 74.2225341796875 37.86101913452148 74.2225341796875 Z" stroke="none"/>
              <path d="M 37.86101913452148 3.000007629394531 C 33.15349578857422 3.000007629394531 28.5883674621582 3.921302795410156 24.29245758056641 5.738327026367188 C 20.14159393310547 7.493995666503906 16.41309356689453 10.00801849365234 13.21055603027344 13.21056747436523 C 10.00800323486328 16.41310501098633 7.493980407714844 20.14160537719727 5.738319396972656 24.29246520996094 C 3.921295166015625 28.58837890625 2.999992370605469 33.15350341796875 2.999992370605469 37.86148071289062 C 2.999992370605469 42.56901550292969 3.921295166015625 47.13414001464844 5.738319396972656 51.4300537109375 C 7.493980407714844 55.58092880249023 10.00800323486328 59.30941772460938 13.21055603027344 62.51196670532227 C 16.41309356689453 65.71451568603516 20.14159393310547 68.22854614257812 24.29245758056641 69.98420715332031 C 28.5883674621582 71.80123138427734 33.15349578857422 72.72252655029297 37.86101913452148 72.72252655029297 C 42.56854248046875 72.72252655029297 47.1336669921875 71.80123138427734 51.42958068847656 69.98420715332031 C 55.5804443359375 68.22854614257812 59.30892944335938 65.71451568603516 62.51148223876953 62.51196670532227 C 65.71401977539062 59.30941772460938 68.22804260253906 55.58092880249023 69.98370361328125 51.4300537109375 C 71.80073547363281 47.13414001464844 72.72203063964844 42.56901550292969 72.72203063964844 37.86104202270508 C 72.72203063964844 33.15350341796875 71.80073547363281 28.58837890625 69.98370361328125 24.29246520996094 C 68.22804260253906 20.14160537719727 65.71401977539062 16.41310501098633 62.51148223876953 13.21056747436523 C 59.30892944335938 10.00801849365234 55.5804443359375 7.493995666503906 51.42958068847656 5.738327026367188 C 47.1336669921875 3.921302795410156 42.56854248046875 3.000007629394531 37.86101913452148 3.000007629394531 M 37.86101913452148 7.62939453125e-06 C 58.77108001708984 7.62939453125e-06 75.72203063964844 16.95096588134766 75.72203063964844 37.86104202270508 L 75.72203063964844 37.86148071289062 C 75.72203063964844 58.77156829833984 58.77108001708984 75.72252655029297 37.86101913452148 75.72252655029297 C 16.95095825195312 75.72252655029297 -7.62939453125e-06 58.77156829833984 -7.62939453125e-06 37.86148071289062 L -7.62939453125e-06 37.86104202270508 C -7.62939453125e-06 16.95096588134766 16.95095825195312 7.62939453125e-06 37.86101913452148 7.62939453125e-06 Z" stroke="none" fill="#fff"/>
            </g>
          </g>
          <g id="Trazado_874923" data-name="Trazado 874923" transform="translate(0 0)" fill="none">
            <path d="M37.861,0A37.861,37.861,0,0,1,75.722,37.861h0A37.861,37.861,0,1,1,0,37.861H0A37.861,37.861,0,0,1,37.861,0Z" stroke="none"/>
            <path d="M 37.86101913452148 3.000007629394531 C 33.15349578857422 3.000007629394531 28.5883674621582 3.921302795410156 24.29245758056641 5.738327026367188 C 20.14159393310547 7.493995666503906 16.41309356689453 10.00801849365234 13.21055603027344 13.21056747436523 C 10.00800323486328 16.41310501098633 7.493980407714844 20.14160537719727 5.738319396972656 24.29246520996094 C 3.921295166015625 28.58837890625 2.999992370605469 33.15350341796875 2.999992370605469 37.86148071289062 C 2.999992370605469 42.56901550292969 3.921295166015625 47.13414001464844 5.738319396972656 51.4300537109375 C 7.493980407714844 55.58092880249023 10.00800323486328 59.30941772460938 13.21055603027344 62.51196670532227 C 16.41309356689453 65.71451568603516 20.14159393310547 68.22854614257812 24.29245758056641 69.98420715332031 C 28.5883674621582 71.80123138427734 33.15349578857422 72.72252655029297 37.86101913452148 72.72252655029297 C 42.56854248046875 72.72252655029297 47.1336669921875 71.80123138427734 51.42958068847656 69.98420715332031 C 55.5804443359375 68.22854614257812 59.30892944335938 65.71451568603516 62.51148223876953 62.51196670532227 C 65.71401977539062 59.30941772460938 68.22804260253906 55.58092880249023 69.98370361328125 51.4300537109375 C 71.80073547363281 47.13414001464844 72.72203063964844 42.56901550292969 72.72203063964844 37.86104202270508 C 72.72203063964844 33.15350341796875 71.80073547363281 28.58837890625 69.98370361328125 24.29246520996094 C 68.22804260253906 20.14160537719727 65.71401977539062 16.41310501098633 62.51148223876953 13.21056747436523 C 59.30892944335938 10.00801849365234 55.5804443359375 7.493995666503906 51.42958068847656 5.738327026367188 C 47.1336669921875 3.921302795410156 42.56854248046875 3.000007629394531 37.86101913452148 3.000007629394531 M 37.86101913452148 7.62939453125e-06 C 58.77108001708984 7.62939453125e-06 75.72203063964844 16.95096588134766 75.72203063964844 37.86104202270508 L 75.72203063964844 37.86148071289062 C 75.72203063964844 58.77156829833984 58.77108001708984 75.72252655029297 37.86101913452148 75.72252655029297 C 16.95095825195312 75.72252655029297 -7.62939453125e-06 58.77156829833984 -7.62939453125e-06 37.86148071289062 L -7.62939453125e-06 37.86104202270508 C -7.62939453125e-06 16.95096588134766 16.95095825195312 7.62939453125e-06 37.86101913452148 7.62939453125e-06 Z" stroke="none" fill="#fff"/>
          </g>
        </g>
      </g>
    </g>
    <g id="Grupo_1114774" data-name="Grupo 1114774" transform="translate(786.491 13204)">
      <g id="Grupo_1114772" data-name="Grupo 1114772" transform="translate(2.252 2.74)">
        <path id="Trazado_907769" data-name="Trazado 907769" d="M95.192,38.539v-.98a2.244,2.244,0,0,1,2.244-2.244h.539a2.244,2.244,0,0,1,2.244,2.244v.98Z" transform="translate(-87.235 -34.793)" fill="#7a8c98"/>
        <path id="Trazado_907770" data-name="Trazado 907770" d="M52.712,74.915l-4.738,27.138h13.75L56.986,74.915Z" transform="translate(-44.379 -70.735)" fill="#7a8c98"/>
        <path id="Trazado_907771" data-name="Trazado 907771" d="M118.612,74.915h-2.74l4.738,27.138h2.74Z" transform="translate(-106.005 -70.735)" fill="#596c76"/>
        <path id="Trazado_907772" data-name="Trazado 907772" d="M34.772,132.152V126.4a.534.534,0,0,1,.675-.515l5.639,1.54a.767.767,0,0,1,.565.74v3.984Z" transform="translate(-32.396 -116.981)" fill="#fed402"/>
        <path id="Trazado_907773" data-name="Trazado 907773" d="M9.056,177.289v23.837a.865.865,0,0,0,.865.865h9.9a.865.865,0,0,0,.865-.865V177.289a.865.865,0,0,0-.865-.865h-9.9A.865.865,0,0,0,9.056,177.289Z" transform="translate(-9.056 -162.867)" fill="#ccf49e"/>
        <path id="Trazado_907774" data-name="Trazado 907774" d="M98.839,176.423H96.116a.865.865,0,0,1,.865.865v23.837a.865.865,0,0,1-.865.865h2.723a.865.865,0,0,0,.865-.865V177.288A.865.865,0,0,0,98.839,176.423Z" transform="translate(-88.074 -162.866)" fill="#b3e59e"/>
        <path id="Trazado_907775" data-name="Trazado 907775" d="M337.023,194.728v21.9a1.034,1.034,0,0,0,1.034,1.034h13.258a1.034,1.034,0,0,0,1.034-1.034v-21.9a1.034,1.034,0,0,0-1.034-1.034H338.057A1.034,1.034,0,0,0,337.023,194.728Z" transform="translate(-306.727 -178.542)" fill="#faf6f6"/>
        <path id="Trazado_907776" data-name="Trazado 907776" d="M461.361,193.694h-3.093a1.034,1.034,0,0,1,1.034,1.034v21.9a1.034,1.034,0,0,1-1.034,1.034h3.093a1.034,1.034,0,0,0,1.034-1.034v-21.9A1.034,1.034,0,0,0,461.361,193.694Z" transform="translate(-416.772 -178.542)" fill="#e5e1e5"/>
        <g id="Grupo_1114769" data-name="Grupo 1114769" transform="translate(33.168 18.651)">
          <path id="Trazado_907777" data-name="Trazado 907777" d="M368.112,232.041v1.815a.467.467,0,0,0,.467.466h1.815a.466.466,0,0,0,.466-.466v-1.815a.466.466,0,0,0-.466-.466h-1.815A.466.466,0,0,0,368.112,232.041Z" transform="translate(-368.112 -231.575)" fill="#7a8c98"/>
          <path id="Trazado_907778" data-name="Trazado 907778" d="M442.105,232.041v1.815a.466.466,0,0,0,.466.466h1.815a.466.466,0,0,0,.466-.466v-1.815a.466.466,0,0,0-.466-.466h-1.815A.466.466,0,0,0,442.105,232.041Z" transform="translate(-435.27 -231.575)" fill="#7a8c98"/>
          <path id="Trazado_907779" data-name="Trazado 907779" d="M442.105,309.034v1.815a.467.467,0,0,0,.466.466h1.815a.466.466,0,0,0,.466-.466v-1.815a.466.466,0,0,0-.466-.466h-1.815A.467.467,0,0,0,442.105,309.034Z" transform="translate(-435.27 -301.455)" fill="#7a8c98"/>
          <path id="Trazado_907780" data-name="Trazado 907780" d="M442.105,386.027v1.815a.466.466,0,0,0,.466.466h1.815a.466.466,0,0,0,.466-.466v-1.815a.467.467,0,0,0-.466-.467h-1.815A.466.466,0,0,0,442.105,386.027Z" transform="translate(-435.27 -371.336)" fill="#7a8c98"/>
        </g>
        <g id="Grupo_1114771" data-name="Grupo 1114771" transform="translate(8.217 24.36)">
          <path id="Trazado_907781" data-name="Trazado 907781" d="M98.013,294.5v14.738a1.126,1.126,0,0,0,1.126,1.126h26.937a1.126,1.126,0,0,0,1.126-1.126V295.827a2.457,2.457,0,0,0-2.457-2.457H99.139A1.126,1.126,0,0,0,98.013,294.5Z" transform="translate(-98.013 -293.37)" fill="#fed402"/>
          <path id="Trazado_907782" data-name="Trazado 907782" d="M361.71,295.827a2.457,2.457,0,0,0-2.457-2.457h-2.864a2.457,2.457,0,0,1,2.457,2.457v13.406a1.126,1.126,0,0,1-1.126,1.126h2.864a1.126,1.126,0,0,0,1.126-1.126Z" transform="translate(-332.522 -293.37)" fill="#fdb441"/>
          <path id="Trazado_907783" data-name="Trazado 907783" d="M98.013,342.31V347.5h18.966a.709.709,0,0,0,.709-.709v-3.771a.709.709,0,0,0-.709-.709H98.013Z" transform="translate(-98.013 -337.789)" fill="#90d8f9"/>
          <path id="Trazado_907784" data-name="Trazado 907784" d="M367.792,342.311h-3.429a1.272,1.272,0,0,0-1.272,1.272v5.96a1.272,1.272,0,0,0,1.272,1.272h3.429Z" transform="translate(-338.604 -337.79)" fill="#90d8f9"/>
          <path id="Trazado_907785" data-name="Trazado 907785" d="M382.987,342.311h2.864v8.5h-2.864Z" transform="translate(-356.663 -337.79)" fill="#75cef8"/>
          <g id="Grupo_1114770" data-name="Grupo 1114770" transform="translate(4.701 15.148)">
            <circle id="Elipse_12829" data-name="Elipse 12829" cx="2.178" cy="2.178" r="2.178" fill="#7a8c98"/>
            <circle id="Elipse_12830" data-name="Elipse 12830" cx="2.178" cy="2.178" r="2.178" transform="translate(15.43)" fill="#7a8c98"/>
          </g>
        </g>
        <path id="Trazado_907786" data-name="Trazado 907786" d="M213.864,31.021a4.631,4.631,0,0,0-6.6.055,4.68,4.68,0,0,0,.109,6.546l2.795,2.795a.6.6,0,0,0,.852,0l2.848-2.848A4.63,4.63,0,0,0,213.864,31.021Zm-2.117,4.43a1.636,1.636,0,1,1,0-2.314A1.636,1.636,0,0,1,211.747,35.451Z" transform="translate(-187.788 -29.664)" fill="#fe646f"/>
        <path id="Trazado_907787" data-name="Trazado 907787" d="M80.687,67.624v2.311a.376.376,0,0,0,.376.376h6.954a.376.376,0,0,0,.376-.376V67.624a.376.376,0,0,0-.376-.376H81.063A.376.376,0,0,0,80.687,67.624Z" transform="translate(-74.07 -63.776)" fill="#fed402"/>
      </g>
      <g id="Grupo_1114773" data-name="Grupo 1114773" transform="translate(1.56 0)">
        <path id="Trazado_907788" data-name="Trazado 907788" d="M37.325,215.808h-.589a.693.693,0,0,0,0,1.386h.589a.693.693,0,0,0,0-1.386Z" transform="translate(-32.858 -195.873)"/>
        <path id="Trazado_907789" data-name="Trazado 907789" d="M87.29,217.194h.589a.693.693,0,0,0,0-1.386H87.29a.693.693,0,0,0,0,1.386Z" transform="translate(-78.742 -195.873)"/>
        <path id="Trazado_907790" data-name="Trazado 907790" d="M37.325,261.557h-.589a.693.693,0,0,0,0,1.386h.589a.693.693,0,0,0,0-1.386Z" transform="translate(-32.858 -237.396)"/>
        <path id="Trazado_907791" data-name="Trazado 907791" d="M87.879,262.943a.693.693,0,0,0,0-1.386H87.29a.693.693,0,0,0,0,1.386Z" transform="translate(-78.742 -237.396)"/>
        <path id="Trazado_907792" data-name="Trazado 907792" d="M37.325,307.306h-.589a.693.693,0,1,0,0,1.386h.589a.693.693,0,1,0,0-1.386Z" transform="translate(-32.858 -278.919)"/>
        <path id="Trazado_907793" data-name="Trazado 907793" d="M37.325,353.055h-.589a.693.693,0,1,0,0,1.386h.589a.693.693,0,0,0,0-1.386Z" transform="translate(-32.858 -320.442)"/>
        <path id="Trazado_907794" data-name="Trazado 907794" d="M37.325,398.8h-.589a.693.693,0,1,0,0,1.386h.589a.693.693,0,1,0,0-1.386Z" transform="translate(-32.858 -361.965)"/>
        <path id="Trazado_907795" data-name="Trazado 907795" d="M47.875,21.842a.693.693,0,0,0,.693-.693V18.927A1.729,1.729,0,0,0,46.841,17.2H33.583a1.729,1.729,0,0,0-1.727,1.727v7.481H18.965L17.51,18.074a.693.693,0,0,0-1.365.238l1.413,8.095H14.576V17.161A1.559,1.559,0,0,0,13.018,15.6H12.2V13.926a1.464,1.464,0,0,0-1.076-1.408l-.776-.212.408-2.339h3.931l.887,5.08a.693.693,0,0,0,1.365-.238l-.846-4.841H16.2A1.07,1.07,0,0,0,17.268,8.9V6.588A1.07,1.07,0,0,0,16.2,5.519h-.271V5.506A2.941,2.941,0,0,0,13.415,2.6V.693a.693.693,0,1,0-1.386,0V2.6A2.941,2.941,0,0,0,9.516,5.506v.014H9.245A1.07,1.07,0,0,0,8.177,6.588V8.9A1.07,1.07,0,0,0,9.245,9.967h.105L9.006,11.94l-3.52-.961a1.227,1.227,0,0,0-1.551,1.184V15.6H3.117A1.559,1.559,0,0,0,1.56,17.161V41a1.559,1.559,0,0,0,1.557,1.557H9.777v.407A1.82,1.82,0,0,0,11.6,44.781H14.5a2.87,2.87,0,0,0,5.7,0h9.735a2.87,2.87,0,0,0,5.7,0h2.906a1.82,1.82,0,0,0,1.819-1.818v-.407h6.49a1.729,1.729,0,0,0,1.726-1.727V24.382a.693.693,0,1,0-1.386,0V40.829a.342.342,0,0,1-.341.342h-6.49V29.557a3.154,3.154,0,0,0-3.15-3.15h-3.96V18.927a.342.342,0,0,1,.342-.342H46.841a.342.342,0,0,1,.341.342v2.223a.693.693,0,0,0,.693.693ZM9.562,6.9h6.321V8.582H9.562Zm1.34-1.4a1.553,1.553,0,0,1,1.551-1.551h.539a1.553,1.553,0,0,1,1.551,1.551v.014H10.9ZM5.321,12.37l5.439,1.485a.075.075,0,0,1,.056.072V15.6H5.321Zm-2.2,28.8A.172.172,0,0,1,2.946,41V17.161a.172.172,0,0,1,.172-.172h9.9a.172.172,0,0,1,.172.172v9.246H11.6a1.821,1.821,0,0,0-1.819,1.819V41.171Zm19.776-8.857v3.8H17.721v-3.8Zm6.542,0a.016.016,0,0,1,.016.016V36.1a.016.016,0,0,1-.016.016H24.279v-3.8Zm-13.1,3.8H11.162v-3.8h5.173Zm1.014,9.793a1.485,1.485,0,1,1,1.485-1.485A1.487,1.487,0,0,1,17.349,45.91Zm15.43,0a1.485,1.485,0,1,1,1.485-1.485A1.487,1.487,0,0,1,32.779,45.91Zm6.187-6.478H36.229a.58.58,0,0,1-.579-.579v-5.96a.58.58,0,0,1,.579-.579h2.737Zm0-9.875v1.371H36.229a1.967,1.967,0,0,0-1.965,1.965v5.96a1.967,1.967,0,0,0,1.965,1.965h2.737v2.146a.433.433,0,0,1-.433.432H35.458a2.869,2.869,0,0,0-5.358,0H20.028a2.869,2.869,0,0,0-5.357,0H11.6a.433.433,0,0,1-.433-.432V37.5H29.436a1.4,1.4,0,0,0,1.4-1.4V32.33a1.4,1.4,0,0,0-1.4-1.4H11.162v-2.7a.434.434,0,0,1,.433-.433H37.2a1.766,1.766,0,0,1,1.764,1.764Z" transform="translate(-1.56 0)"/>
        <path id="Trazado_907796" data-name="Trazado 907796" d="M438.739,225.234a1.161,1.161,0,0,0-1.159-1.159h-1.815a1.161,1.161,0,0,0-1.159,1.159v1.815a1.161,1.161,0,0,0,1.159,1.159h1.815a1.161,1.161,0,0,0,1.159-1.159Zm-1.386,1.589h-1.363v-1.363h1.363Z" transform="translate(-394.603 -203.376)"/>
        <path id="Trazado_907797" data-name="Trazado 907797" d="M438.739,302.226a1.161,1.161,0,0,0-1.159-1.159h-1.815a1.161,1.161,0,0,0-1.159,1.159v1.815a1.161,1.161,0,0,0,1.159,1.159h1.815a1.161,1.161,0,0,0,1.159-1.159Zm-1.386,1.589h-1.363v-1.362h1.363Z" transform="translate(-394.603 -273.256)"/>
        <path id="Trazado_907798" data-name="Trazado 907798" d="M437.579,378.059h-1.815a1.161,1.161,0,0,0-1.159,1.159v1.815a1.161,1.161,0,0,0,1.159,1.159h1.815a1.161,1.161,0,0,0,1.159-1.159v-1.815A1.161,1.161,0,0,0,437.579,378.059Zm-.226,2.748h-1.363v-1.363h1.363Z" transform="translate(-394.603 -343.136)"/>
        <path id="Trazado_907799" data-name="Trazado 907799" d="M361.771,224.074a1.161,1.161,0,0,0-1.159,1.159v1.815a1.161,1.161,0,0,0,1.159,1.159h1.815a1.161,1.161,0,0,0,1.159-1.159v-1.815a1.161,1.161,0,0,0-1.159-1.159Zm1.589,2.748H362V225.46h1.363Z" transform="translate(-327.445 -203.375)"/>
        <path id="Trazado_907800" data-name="Trazado 907800" d="M233.027,59.236a2.329,2.329,0,1,0-1.647-.682A2.314,2.314,0,0,0,233.027,59.236Zm0-3.272a.943.943,0,1,1-.943.943A.943.943,0,0,1,233.027,55.964Z" transform="translate(-209.533 -49.536)"/>
        <path id="Trazado_907801" data-name="Trazado 907801" d="M202.922,34.1a1.295,1.295,0,0,0,1.831,0l2.848-2.848a5.323,5.323,0,1,0-7.591-7.464,5.386,5.386,0,0,0,.117,7.518Zm-1.916-9.349a3.909,3.909,0,0,1,2.8-1.2h.034a3.938,3.938,0,0,1,2.784,6.722l-2.784,2.784-2.731-2.731a3.994,3.994,0,0,1-.1-5.574Z" transform="translate(-180.343 -20.117)"/>
        <path id="Trazado_907802" data-name="Trazado 907802" d="M249.886,171.255a.693.693,0,0,0-1.386,0v.362a.693.693,0,1,0,1.386,0Z" transform="translate(-225.689 -154.806)"/>
        <path id="Trazado_907803" data-name="Trazado 907803" d="M249.886,208.345a.693.693,0,1,0-1.386,0v.362a.693.693,0,1,0,1.386,0Z" transform="translate(-225.689 -188.47)"/>
        <path id="Trazado_907804" data-name="Trazado 907804" d="M249.193,244.742a.693.693,0,0,0-.693.693v.362a.693.693,0,1,0,1.386,0v-.362A.693.693,0,0,0,249.193,244.742Z" transform="translate(-225.689 -222.134)"/>
      </g>
    </g>
  </g>
</svg>
