<svg xmlns="http://www.w3.org/2000/svg" xmlns:xlink="http://www.w3.org/1999/xlink" width="93.722" height="93.723" viewBox="0 0 93.722 93.723">
  <defs>
    <filter id="Trazado_874925" x="0" y="0" width="93.722" height="93.723" filterUnits="userSpaceOnUse">
      <feOffset dy="3" input="SourceAlpha"/>
      <feGaussianBlur stdDeviation="3" result="blur"/>
      <feFlood flood-opacity="0.161"/>
      <feComposite operator="in" in2="blur"/>
      <feComposite in="SourceGraphic"/>
    </filter>
  </defs>
  <g id="Grupo_1114779" data-name="Grupo 1114779" transform="translate(-765.051 -13299)">
    <g id="Grupo_1112928" data-name="Grupo 1112928" transform="translate(774.051 13305)">
      <g id="Grupo_1109835" data-name="Grupo 1109835" transform="translate(0 0)">
        <g id="Grupo_1107913" data-name="Grupo 1107913" transform="translate(0 0)">
          <g transform="matrix(1, 0, 0, 1, -9, -6)" filter="url(#Trazado_874925)">
            <g id="Trazado_874925-2" data-name="Trazado 874925" transform="translate(9 6)" fill="#5ab4f9" opacity="0.859">
              <path d="M 37.86101913452148 74.2225341796875 C 32.95165252685547 74.2225341796875 28.1899299621582 73.26136779785156 23.7081298828125 71.36572265625 C 19.37846374511719 69.534423828125 15.48970794677734 66.91244506835938 12.1498966217041 63.57263565063477 C 8.810074806213379 60.23281097412109 6.188107967376709 56.34405517578125 4.356808185577393 52.01438903808594 C 2.461163520812988 47.53257751464844 1.499996900558472 42.77085494995117 1.499996900558472 37.86148834228516 C 1.499996900558472 32.95167922973633 2.461163520812988 28.18995666503906 4.356808185577393 23.70814514160156 C 6.188107967376709 19.37847900390625 8.810074806213379 15.48972225189209 12.1498966217041 12.14990043640137 C 15.48970794677734 8.810089111328125 19.37846374511719 6.188111305236816 23.7081298828125 4.3568115234375 C 28.1899299621582 2.461167097091675 32.95165252685547 1.500000476837158 37.86101913452148 1.500000476837158 C 42.7703857421875 1.500000476837158 47.53210830688477 2.461167097091675 52.01390838623047 4.3568115234375 C 56.34357452392578 6.188111305236816 60.23233032226562 8.810089111328125 63.57213973999023 12.14990043640137 C 66.91196441650391 15.48972225189209 69.53392791748047 19.37847900390625 71.36522674560547 23.70814514160156 C 73.26087188720703 28.18995666503906 74.22203826904297 32.95167922973633 74.22203826904297 37.86104583740234 C 74.22203826904297 42.77085494995117 73.26087188720703 47.53257751464844 71.36522674560547 52.01438903808594 C 69.53392791748047 56.34405517578125 66.91196441650391 60.23281097412109 63.57213973999023 63.57263565063477 C 60.23233032226562 66.91244506835938 56.34357452392578 69.534423828125 52.01390838623047 71.36572265625 C 47.53210830688477 73.26136779785156 42.7703857421875 74.2225341796875 37.86101913452148 74.2225341796875 Z" stroke="none"/>
              <path d="M 37.86101913452148 3.000007629394531 C 33.15349578857422 3.000007629394531 28.5883674621582 3.921302795410156 24.29245758056641 5.738327026367188 C 20.14159393310547 7.493995666503906 16.41309356689453 10.00801849365234 13.21055603027344 13.21056747436523 C 10.00800323486328 16.41310501098633 7.493980407714844 20.14160537719727 5.738319396972656 24.29246520996094 C 3.921295166015625 28.58837890625 2.999992370605469 33.15350341796875 2.999992370605469 37.86148071289062 C 2.999992370605469 42.56901550292969 3.921295166015625 47.13414001464844 5.738319396972656 51.4300537109375 C 7.493980407714844 55.58092880249023 10.00800323486328 59.30941772460938 13.21055603027344 62.51196670532227 C 16.41309356689453 65.71451568603516 20.14159393310547 68.22854614257812 24.29245758056641 69.98420715332031 C 28.5883674621582 71.80123138427734 33.15349578857422 72.72252655029297 37.86101913452148 72.72252655029297 C 42.56854248046875 72.72252655029297 47.1336669921875 71.80123138427734 51.42958068847656 69.98420715332031 C 55.5804443359375 68.22854614257812 59.30892944335938 65.71451568603516 62.51148223876953 62.51196670532227 C 65.71401977539062 59.30941772460938 68.22804260253906 55.58092880249023 69.98370361328125 51.4300537109375 C 71.80073547363281 47.13414001464844 72.72203063964844 42.56901550292969 72.72203063964844 37.86104202270508 C 72.72203063964844 33.15350341796875 71.80073547363281 28.58837890625 69.98370361328125 24.29246520996094 C 68.22804260253906 20.14160537719727 65.71401977539062 16.41310501098633 62.51148223876953 13.21056747436523 C 59.30892944335938 10.00801849365234 55.5804443359375 7.493995666503906 51.42958068847656 5.738327026367188 C 47.1336669921875 3.921302795410156 42.56854248046875 3.000007629394531 37.86101913452148 3.000007629394531 M 37.86101913452148 7.62939453125e-06 C 58.77108001708984 7.62939453125e-06 75.72203063964844 16.95096588134766 75.72203063964844 37.86104202270508 L 75.72203063964844 37.86148071289062 C 75.72203063964844 58.77156829833984 58.77108001708984 75.72252655029297 37.86101913452148 75.72252655029297 C 16.95095825195312 75.72252655029297 -7.62939453125e-06 58.77156829833984 -7.62939453125e-06 37.86148071289062 L -7.62939453125e-06 37.86104202270508 C -7.62939453125e-06 16.95096588134766 16.95095825195312 7.62939453125e-06 37.86101913452148 7.62939453125e-06 Z" stroke="none" fill="#fff"/>
            </g>
          </g>
          <g id="Trazado_874923" data-name="Trazado 874923" transform="translate(0 0)" fill="none">
            <path d="M37.861,0A37.861,37.861,0,0,1,75.722,37.861h0A37.861,37.861,0,1,1,0,37.861H0A37.861,37.861,0,0,1,37.861,0Z" stroke="none"/>
            <path d="M 37.86101913452148 3.000007629394531 C 33.15349578857422 3.000007629394531 28.5883674621582 3.921302795410156 24.29245758056641 5.738327026367188 C 20.14159393310547 7.493995666503906 16.41309356689453 10.00801849365234 13.21055603027344 13.21056747436523 C 10.00800323486328 16.41310501098633 7.493980407714844 20.14160537719727 5.738319396972656 24.29246520996094 C 3.921295166015625 28.58837890625 2.999992370605469 33.15350341796875 2.999992370605469 37.86148071289062 C 2.999992370605469 42.56901550292969 3.921295166015625 47.13414001464844 5.738319396972656 51.4300537109375 C 7.493980407714844 55.58092880249023 10.00800323486328 59.30941772460938 13.21055603027344 62.51196670532227 C 16.41309356689453 65.71451568603516 20.14159393310547 68.22854614257812 24.29245758056641 69.98420715332031 C 28.5883674621582 71.80123138427734 33.15349578857422 72.72252655029297 37.86101913452148 72.72252655029297 C 42.56854248046875 72.72252655029297 47.1336669921875 71.80123138427734 51.42958068847656 69.98420715332031 C 55.5804443359375 68.22854614257812 59.30892944335938 65.71451568603516 62.51148223876953 62.51196670532227 C 65.71401977539062 59.30941772460938 68.22804260253906 55.58092880249023 69.98370361328125 51.4300537109375 C 71.80073547363281 47.13414001464844 72.72203063964844 42.56901550292969 72.72203063964844 37.86104202270508 C 72.72203063964844 33.15350341796875 71.80073547363281 28.58837890625 69.98370361328125 24.29246520996094 C 68.22804260253906 20.14160537719727 65.71401977539062 16.41310501098633 62.51148223876953 13.21056747436523 C 59.30892944335938 10.00801849365234 55.5804443359375 7.493995666503906 51.42958068847656 5.738327026367188 C 47.1336669921875 3.921302795410156 42.56854248046875 3.000007629394531 37.86101913452148 3.000007629394531 M 37.86101913452148 7.62939453125e-06 C 58.77108001708984 7.62939453125e-06 75.72203063964844 16.95096588134766 75.72203063964844 37.86104202270508 L 75.72203063964844 37.86148071289062 C 75.72203063964844 58.77156829833984 58.77108001708984 75.72252655029297 37.86101913452148 75.72252655029297 C 16.95095825195312 75.72252655029297 -7.62939453125e-06 58.77156829833984 -7.62939453125e-06 37.86148071289062 L -7.62939453125e-06 37.86104202270508 C -7.62939453125e-06 16.95096588134766 16.95095825195312 7.62939453125e-06 37.86101913452148 7.62939453125e-06 Z" stroke="none" fill="#fff"/>
          </g>
        </g>
      </g>
    </g>
    <g id="Grupo_1114778" data-name="Grupo 1114778" transform="translate(785.051 13315)">
      <path id="Trazado_907823" data-name="Trazado 907823" d="M2,22H46.28V45.78a4.1,4.1,0,0,1-4.1,4.1H6.1A4.1,4.1,0,0,1,2,45.78Z" transform="translate(-0.18 -2.7)" fill="#67ac5c"/>
      <path id="Trazado_907824" data-name="Trazado 907824" d="M2,22V40.04H37.26a2.46,2.46,0,0,0,2.46-2.46V22Z" transform="translate(-0.18 -2.7)" fill="#85bd7d"/>
      <circle id="Elipse_12832" data-name="Elipse 12832" cx="10.5" cy="10.5" r="10.5" transform="translate(30 8)" fill="#e0e0e0"/>
      <path id="Trazado_907825" data-name="Trazado 907825" d="M46.66,8a10.66,10.66,0,0,0-9.84,14.76H50.76a2.46,2.46,0,0,0,2.46-2.46V10.269A10.6,10.6,0,0,0,46.66,8Z" transform="translate(-6.3 -0.18)" fill="#f5f5f5"/>
      <path id="Trazado_907826" data-name="Trazado 907826" d="M6,26H28.96V40.76H6Z" transform="translate(-0.9 -3.42)" fill="#e0e0e0"/>
      <path id="Trazado_907827" data-name="Trazado 907827" d="M6,26V36.66H22.4a2.46,2.46,0,0,0,2.46-2.46V26Z" transform="translate(-0.9 -3.42)" fill="#f5f5f5"/>
      <path id="Trazado_907828" data-name="Trazado 907828" d="M0,0H9.84V3.28A1.64,1.64,0,0,1,8.2,4.92H1.64A1.64,1.64,0,0,1,0,3.28Z" transform="translate(45.28 24.22) rotate(180)" fill="#f7c244"/>
      <rect id="Rectángulo_406656" data-name="Rectángulo 406656" width="5" height="7" rx="2.5" transform="translate(43 18) rotate(180)" fill="#fddfb1"/>
      <path id="Trazado_907829" data-name="Trazado 907829" d="M47.92,25.28a2.46,2.46,0,0,0,2.46-2.46V22H44.64A1.64,1.64,0,0,0,43,23.64v1.64Z" transform="translate(-7.56 -2.7)" fill="#f9ce69"/>
      <path id="Trazado_907830" data-name="Trazado 907830" d="M48.46,12A2.46,2.46,0,0,0,46,14.46V16.1a2.429,2.429,0,0,0,.151.82h.669a2.46,2.46,0,0,0,2.46-2.46V12.151A2.429,2.429,0,0,0,48.46,12Z" transform="translate(-8.1 -0.9)" fill="#fde5c1"/>
      <path id="Trazado_907831" data-name="Trazado 907831" d="M51.02,21H44.46A2.46,2.46,0,0,0,42,23.46v3.28a.82.82,0,0,0,.82.82h9.84a.82.82,0,0,0,.82-.82V23.46A2.46,2.46,0,0,0,51.02,21Zm.82,4.92h-8.2V23.46a.82.82,0,0,1,.82-.82h6.56a.82.82,0,0,1,.82.82Z" transform="translate(-7.38 -2.52)"/>
      <path id="Trazado_907832" data-name="Trazado 907832" d="M51.56,15.92V14.28a3.28,3.28,0,1,0-6.56,0v1.64a3.28,3.28,0,1,0,6.56,0Zm-1.64,0a1.64,1.64,0,1,1-3.28,0V14.28a1.64,1.64,0,0,1,3.28,0Z" transform="translate(-7.92 -0.72)"/>
      <path id="Trazado_907833" data-name="Trazado 907833" d="M51.84,18.48a11.48,11.48,0,1,0-22.96,0H1.82A.82.82,0,0,0,1,19.3V43.08A4.925,4.925,0,0,0,5.92,48H42a4.925,4.925,0,0,0,4.92-4.92V27.888a11.469,11.469,0,0,0,4.92-9.408ZM42,46.36H5.92a3.28,3.28,0,0,1-3.28-3.28V41.44H45.28v1.64A3.28,3.28,0,0,1,42,46.36Zm3.28-6.56H2.64V20.12H29.011A11.437,11.437,0,0,0,45.28,28.837ZM40.36,28.32a9.84,9.84,0,1,1,9.84-9.84A9.84,9.84,0,0,1,40.36,28.32Z"/>
      <path id="Trazado_907834" data-name="Trazado 907834" d="M11.46,36.38a.82.82,0,0,1-.82-.82H9a2.46,2.46,0,0,0,1.64,2.309v.971h1.64v-.971a2.454,2.454,0,0,0-.82-4.769.82.82,0,1,1,.82-.82h1.64a2.46,2.46,0,0,0-1.64-2.309V29H10.64v.971a2.454,2.454,0,0,0,.82,4.769.82.82,0,1,1,0,1.64Z" transform="translate(-1.44 -3.96)"/>
      <path id="Trazado_907835" data-name="Trazado 907835" d="M19.46,36.38a.82.82,0,0,1-.82-.82H17a2.46,2.46,0,0,0,1.64,2.309v.971h1.64v-.971a2.454,2.454,0,0,0-.82-4.769.82.82,0,1,1,.82-.82h1.64a2.46,2.46,0,0,0-1.64-2.309V29H18.64v.971a2.454,2.454,0,0,0,.82,4.769.82.82,0,1,1,0,1.64Z" transform="translate(-2.88 -3.96)"/>
      <path id="Trazado_907836" data-name="Trazado 907836" d="M27.46,36.38a.82.82,0,0,1-.82-.82H25a2.46,2.46,0,0,0,1.64,2.309v.971h1.64v-.971a2.454,2.454,0,0,0-.82-4.769.82.82,0,1,1,.82-.82h1.64a2.46,2.46,0,0,0-1.64-2.309V29H26.64v.971a2.454,2.454,0,0,0,.82,4.769.82.82,0,0,1,0,1.64Z" transform="translate(-4.32 -3.96)"/>
      <path id="Trazado_907837" data-name="Trazado 907837" d="M28.78,25H5.82a.82.82,0,0,0-.82.82V40.58a.82.82,0,0,0,.82.82H28.78a.82.82,0,0,0,.82-.82V25.82A.82.82,0,0,0,28.78,25Zm-.82,14.76H6.64V26.64H27.96Z" transform="translate(-0.72 -3.24)"/>
      <path id="Trazado_907838" data-name="Trazado 907838" d="M37,43H50.12v1.64H37Z" transform="translate(-6.48 -6.48)"/>
      <path id="Trazado_907839" data-name="Trazado 907839" d="M37,39h5.74v1.64H37Z" transform="translate(-6.48 -5.76)"/>
      <path id="Trazado_907840" data-name="Trazado 907840" d="M46,39h5.74v1.64H46Z" transform="translate(-8.1 -5.76)"/>
    </g>
  </g>
</svg>
