<svg xmlns="http://www.w3.org/2000/svg" xmlns:xlink="http://www.w3.org/1999/xlink" width="93.722" height="93.723" viewBox="0 0 93.722 93.723">
  <defs>
    <filter id="Trazado_874925" x="0" y="0" width="93.722" height="93.723" filterUnits="userSpaceOnUse">
      <feOffset dy="3" input="SourceAlpha"/>
      <feGaussianBlur stdDeviation="3" result="blur"/>
      <feFlood flood-opacity="0.161"/>
      <feComposite operator="in" in2="blur"/>
      <feComposite in="SourceGraphic"/>
    </filter>
  </defs>
  <g id="Grupo_1114789" data-name="Grupo 1114789" transform="translate(-1080.051 -13299)">
    <g id="Grupo_1112927" data-name="Grupo 1112927" transform="translate(1089.051 13305)">
      <g id="Grupo_1109835" data-name="Grupo 1109835" transform="translate(0 0)">
        <g id="Grupo_1107913" data-name="Grupo 1107913" transform="translate(0 0)">
          <g transform="matrix(1, 0, 0, 1, -9, -6)" filter="url(#Trazado_874925)">
            <g id="Trazado_874925-2" data-name="Trazado 874925" transform="translate(9 6)" fill="#5ab4f9" opacity="0.859">
              <path d="M 37.86101913452148 74.2225341796875 C 32.95165252685547 74.2225341796875 28.1899299621582 73.26136779785156 23.7081298828125 71.36572265625 C 19.37846374511719 69.534423828125 15.48970794677734 66.91244506835938 12.1498966217041 63.57263565063477 C 8.810074806213379 60.23281097412109 6.188107967376709 56.34405517578125 4.356808185577393 52.01438903808594 C 2.461163520812988 47.53257751464844 1.499996900558472 42.77085494995117 1.499996900558472 37.86148834228516 C 1.499996900558472 32.95167922973633 2.461163520812988 28.18995666503906 4.356808185577393 23.70814514160156 C 6.188107967376709 19.37847900390625 8.810074806213379 15.48972225189209 12.1498966217041 12.14990043640137 C 15.48970794677734 8.810089111328125 19.37846374511719 6.188111305236816 23.7081298828125 4.3568115234375 C 28.1899299621582 2.461167097091675 32.95165252685547 1.500000476837158 37.86101913452148 1.500000476837158 C 42.7703857421875 1.500000476837158 47.53210830688477 2.461167097091675 52.01390838623047 4.3568115234375 C 56.34357452392578 6.188111305236816 60.23233032226562 8.810089111328125 63.57213973999023 12.14990043640137 C 66.91196441650391 15.48972225189209 69.53392791748047 19.37847900390625 71.36522674560547 23.70814514160156 C 73.26087188720703 28.18995666503906 74.22203826904297 32.95167922973633 74.22203826904297 37.86104583740234 C 74.22203826904297 42.77085494995117 73.26087188720703 47.53257751464844 71.36522674560547 52.01438903808594 C 69.53392791748047 56.34405517578125 66.91196441650391 60.23281097412109 63.57213973999023 63.57263565063477 C 60.23233032226562 66.91244506835938 56.34357452392578 69.534423828125 52.01390838623047 71.36572265625 C 47.53210830688477 73.26136779785156 42.7703857421875 74.2225341796875 37.86101913452148 74.2225341796875 Z" stroke="none"/>
              <path d="M 37.86101913452148 3.000007629394531 C 33.15349578857422 3.000007629394531 28.5883674621582 3.921302795410156 24.29245758056641 5.738327026367188 C 20.14159393310547 7.493995666503906 16.41309356689453 10.00801849365234 13.21055603027344 13.21056747436523 C 10.00800323486328 16.41310501098633 7.493980407714844 20.14160537719727 5.738319396972656 24.29246520996094 C 3.921295166015625 28.58837890625 2.999992370605469 33.15350341796875 2.999992370605469 37.86148071289062 C 2.999992370605469 42.56901550292969 3.921295166015625 47.13414001464844 5.738319396972656 51.4300537109375 C 7.493980407714844 55.58092880249023 10.00800323486328 59.30941772460938 13.21055603027344 62.51196670532227 C 16.41309356689453 65.71451568603516 20.14159393310547 68.22854614257812 24.29245758056641 69.98420715332031 C 28.5883674621582 71.80123138427734 33.15349578857422 72.72252655029297 37.86101913452148 72.72252655029297 C 42.56854248046875 72.72252655029297 47.1336669921875 71.80123138427734 51.42958068847656 69.98420715332031 C 55.5804443359375 68.22854614257812 59.30892944335938 65.71451568603516 62.51148223876953 62.51196670532227 C 65.71401977539062 59.30941772460938 68.22804260253906 55.58092880249023 69.98370361328125 51.4300537109375 C 71.80073547363281 47.13414001464844 72.72203063964844 42.56901550292969 72.72203063964844 37.86104202270508 C 72.72203063964844 33.15350341796875 71.80073547363281 28.58837890625 69.98370361328125 24.29246520996094 C 68.22804260253906 20.14160537719727 65.71401977539062 16.41310501098633 62.51148223876953 13.21056747436523 C 59.30892944335938 10.00801849365234 55.5804443359375 7.493995666503906 51.42958068847656 5.738327026367188 C 47.1336669921875 3.921302795410156 42.56854248046875 3.000007629394531 37.86101913452148 3.000007629394531 M 37.86101913452148 7.62939453125e-06 C 58.77108001708984 7.62939453125e-06 75.72203063964844 16.95096588134766 75.72203063964844 37.86104202270508 L 75.72203063964844 37.86148071289062 C 75.72203063964844 58.77156829833984 58.77108001708984 75.72252655029297 37.86101913452148 75.72252655029297 C 16.95095825195312 75.72252655029297 -7.62939453125e-06 58.77156829833984 -7.62939453125e-06 37.86148071289062 L -7.62939453125e-06 37.86104202270508 C -7.62939453125e-06 16.95096588134766 16.95095825195312 7.62939453125e-06 37.86101913452148 7.62939453125e-06 Z" stroke="none" fill="#fff"/>
            </g>
          </g>
          <g id="Trazado_874923" data-name="Trazado 874923" transform="translate(0 0)" fill="none">
            <path d="M37.861,0A37.861,37.861,0,0,1,75.722,37.861h0A37.861,37.861,0,1,1,0,37.861H0A37.861,37.861,0,0,1,37.861,0Z" stroke="none"/>
            <path d="M 37.86101913452148 3.000007629394531 C 33.15349578857422 3.000007629394531 28.5883674621582 3.921302795410156 24.29245758056641 5.738327026367188 C 20.14159393310547 7.493995666503906 16.41309356689453 10.00801849365234 13.21055603027344 13.21056747436523 C 10.00800323486328 16.41310501098633 7.493980407714844 20.14160537719727 5.738319396972656 24.29246520996094 C 3.921295166015625 28.58837890625 2.999992370605469 33.15350341796875 2.999992370605469 37.86148071289062 C 2.999992370605469 42.56901550292969 3.921295166015625 47.13414001464844 5.738319396972656 51.4300537109375 C 7.493980407714844 55.58092880249023 10.00800323486328 59.30941772460938 13.21055603027344 62.51196670532227 C 16.41309356689453 65.71451568603516 20.14159393310547 68.22854614257812 24.29245758056641 69.98420715332031 C 28.5883674621582 71.80123138427734 33.15349578857422 72.72252655029297 37.86101913452148 72.72252655029297 C 42.56854248046875 72.72252655029297 47.1336669921875 71.80123138427734 51.42958068847656 69.98420715332031 C 55.5804443359375 68.22854614257812 59.30892944335938 65.71451568603516 62.51148223876953 62.51196670532227 C 65.71401977539062 59.30941772460938 68.22804260253906 55.58092880249023 69.98370361328125 51.4300537109375 C 71.80073547363281 47.13414001464844 72.72203063964844 42.56901550292969 72.72203063964844 37.86104202270508 C 72.72203063964844 33.15350341796875 71.80073547363281 28.58837890625 69.98370361328125 24.29246520996094 C 68.22804260253906 20.14160537719727 65.71401977539062 16.41310501098633 62.51148223876953 13.21056747436523 C 59.30892944335938 10.00801849365234 55.5804443359375 7.493995666503906 51.42958068847656 5.738327026367188 C 47.1336669921875 3.921302795410156 42.56854248046875 3.000007629394531 37.86101913452148 3.000007629394531 M 37.86101913452148 7.62939453125e-06 C 58.77108001708984 7.62939453125e-06 75.72203063964844 16.95096588134766 75.72203063964844 37.86104202270508 L 75.72203063964844 37.86148071289062 C 75.72203063964844 58.77156829833984 58.77108001708984 75.72252655029297 37.86101913452148 75.72252655029297 C 16.95095825195312 75.72252655029297 -7.62939453125e-06 58.77156829833984 -7.62939453125e-06 37.86148071289062 L -7.62939453125e-06 37.86104202270508 C -7.62939453125e-06 16.95096588134766 16.95095825195312 7.62939453125e-06 37.86101913452148 7.62939453125e-06 Z" stroke="none" fill="#fff"/>
          </g>
        </g>
      </g>
    </g>
    <g id="Grupo_1114788" data-name="Grupo 1114788" transform="translate(1101.051 13232.737)">
      <g id="Grupo_1114786" data-name="Grupo 1114786" transform="translate(0.749 95.012)">
        <g id="Grupo_1114780" data-name="Grupo 1114780" transform="translate(41.645 7.515)">
          <path id="Trazado_907841" data-name="Trazado 907841" d="M431.765,177.057h-7.048l7.964,7.964v-7.048A.916.916,0,0,0,431.765,177.057Z" transform="translate(-424.717 -177.057)" fill="#62dbfb"/>
        </g>
        <g id="Grupo_1114781" data-name="Grupo 1114781" transform="translate(41.531 7.629)">
          <path id="Trazado_907842" data-name="Trazado 907842" d="M423.582,185.241v-7.048l7.964,7.964H424.5A.916.916,0,0,1,423.582,185.241Z" transform="translate(-423.582 -178.193)" fill="#c8effe"/>
        </g>
        <g id="Grupo_1114782" data-name="Grupo 1114782" transform="translate(0 3.758)">
          <path id="Trazado_907843" data-name="Trazado 907843" d="M49.145,143.168H17.8L7.5,139.41v22.652a4.381,4.381,0,0,0,4.381,4.381H52.727a4.381,4.381,0,0,0,4.381-4.381v-10.93Z" transform="translate(-7.5 -139.41)" fill="#99e6fc"/>
        </g>
        <g id="Grupo_1114783" data-name="Grupo 1114783" transform="translate(0.116 12.485)">
          <path id="Trazado_907844" data-name="Trazado 907844" d="M55.159,226.84v10.731a4.381,4.381,0,0,1-4.381,4.381H9.932a4.379,4.379,0,0,1-1.271-.188,4.382,4.382,0,0,0,4.265,3.382H53.772a4.381,4.381,0,0,0,4.381-4.381v-10.93Z" transform="translate(-8.661 -226.84)" fill="#62dbfb"/>
        </g>
        <g id="Grupo_1114784" data-name="Grupo 1114784" transform="translate(41.531 7.629)">
          <path id="Trazado_907845" data-name="Trazado 907845" d="M423.582,185.241v-7.048l7.964,7.964H424.5A.916.916,0,0,1,423.582,185.241Z" transform="translate(-423.582 -178.193)" fill="#01c0fa"/>
        </g>
        <g id="Grupo_1114785" data-name="Grupo 1114785">
          <path id="Trazado_907846" data-name="Trazado 907846" d="M17.456,109.279h-6.2a3.758,3.758,0,0,1,0-7.516h6.2Z" transform="translate(-7.5 -101.763)" fill="#01c0fa"/>
        </g>
      </g>
      <g id="Grupo_1114787" data-name="Grupo 1114787" transform="translate(0 94.263)">
        <path id="Trazado_907847" data-name="Trazado 907847" d="M129.643,219.664a.86.86,0,0,0-.8-.535h0a.86.86,0,0,0-.8.536l-.007.017-1.9,4.989a.749.749,0,1,0,1.4.533l.29-.76h2.019l.286.758a.749.749,0,0,0,1.4-.529l-1.883-4.989Zm-1.245,3.282.444-1.166.44,1.166Z" transform="translate(-113.504 -206.665)"/>
        <path id="Trazado_907848" data-name="Trazado 907848" d="M63.777,219.172a.749.749,0,0,0-.526.715v5.05a.749.749,0,0,0,1.5,0v-2.649l2.05,2.969a.813.813,0,0,0,.92.336.839.839,0,0,0,.575-.834l-.047-4.889a.749.749,0,0,0-.748-.741h-.007a.749.749,0,0,0-.741.756l.026,2.7-2.16-3.128A.748.748,0,0,0,63.777,219.172Z" transform="translate(-56.938 -206.665)"/>
        <path id="Trazado_907849" data-name="Trazado 907849" d="M194.438,225.029l.414-2.292.688,2.333.008.026a.861.861,0,0,0,.818.588h0a.861.861,0,0,0,.816-.6l.008-.026.664-2.33.441,2.305a.749.749,0,1,0,1.471-.281l-.944-4.938a.863.863,0,0,0-1.666-.094l-.008.026-.8,2.795-.827-2.8-.008-.027a.863.863,0,0,0-1.667.12l-.889,4.927a.749.749,0,0,0,1.473.266Z" transform="translate(-173.693 -206.664)"/>
        <path id="Trazado_907850" data-name="Trazado 907850" d="M278.792,220.857a.749.749,0,1,0,0-1.5H276.68a.749.749,0,0,0-.749.749v5.014a.749.749,0,0,0,.749.749h2.113a.749.749,0,0,0,0-1.5h-1.364v-1.01h1.208a.749.749,0,0,0,0-1.5h-1.208v-1.01Z" transform="translate(-248.389 -206.873)"/>
        <path id="Trazado_907851" data-name="Trazado 907851" d="M223.133,169.557H193.7a.749.749,0,1,0,0,1.5h21.523v6.412a1.666,1.666,0,0,0,1.665,1.665H223.3V189.2a3.637,3.637,0,0,1-3.632,3.632h-1.893a.749.749,0,0,0,0,1.5h1.893a5.135,5.135,0,0,0,5.13-5.13V171.221A1.666,1.666,0,0,0,223.133,169.557Zm0,1.5a.168.168,0,0,1,.167.167v5.24l-5.408-5.408h5.24Zm-6.245,6.58a.168.168,0,0,1-.167-.167v-5.24l5.408,5.408h-5.24Z" transform="translate(-173.692 -162.042)"/>
        <path id="Trazado_907852" data-name="Trazado 907852" d="M40.39,125.053H5.13A3.637,3.637,0,0,1,1.5,121.421v-19.3a4.488,4.488,0,0,0,3.009,1.155H16.515a.749.749,0,1,0,0-1.5H11.453V95.012a.749.749,0,0,0-.749-.749h-6.2A4.511,4.511,0,0,0,0,98.769v22.652a5.135,5.135,0,0,0,5.13,5.13H40.39a.749.749,0,1,0,0-1.5ZM4.506,95.76h5.45v6.018H4.506a3.009,3.009,0,0,1,0-6.018Z" transform="translate(0 -94.263)"/>
        <path id="Trazado_907853" data-name="Trazado 907853" d="M63.25,310.733a.749.749,0,0,0,.749.749H94.467a.749.749,0,1,0,0-1.5H64A.749.749,0,0,0,63.25,310.733Z" transform="translate(-56.937 -288.452)"/>
        <path id="Trazado_907854" data-name="Trazado 907854" d="M64,343.447a.749.749,0,1,0,0,1.5H75.957a.749.749,0,1,0,0-1.5Z" transform="translate(-56.937 -318.575)"/>
      </g>
    </g>
  </g>
</svg>
