<svg xmlns="http://www.w3.org/2000/svg" xmlns:xlink="http://www.w3.org/1999/xlink" width="249" height="200" viewBox="0 0 249 200">
  <defs>
    <clipPath id="clip-path">
      <rect id="Rectángulo_406356" data-name="Rectángulo 406356" width="231.408" height="192.997" fill="none"/>
    </clipPath>
    <clipPath id="clip-path-3">
      <rect id="Rectángulo_406357" data-name="Rectángulo 406357" width="37.418" height="31.041" fill="none"/>
    </clipPath>
    <clipPath id="clip-path-4">
      <rect id="Rectángulo_406358" data-name="Rectángulo 406358" width="36.209" height="28.697" fill="none"/>
    </clipPath>
    <clipPath id="clip-path-5">
      <rect id="Rectángulo_406359" data-name="Rectángulo 406359" width="27.64" height="37.916" fill="none"/>
    </clipPath>
    <clipPath id="clip-path-6">
      <rect id="Rectángulo_406360" data-name="Rectángulo 406360" width="41.235" height="34.606" fill="none"/>
    </clipPath>
    <clipPath id="clip-path-7">
      <rect id="Rectángulo_406361" data-name="Rectángulo 406361" width="34.364" height="17.768" fill="none"/>
    </clipPath>
    <clipPath id="clip-path-8">
      <rect id="Rectángulo_406362" data-name="Rectángulo 406362" width="34.594" height="29.633" fill="none"/>
    </clipPath>
    <clipPath id="clip-path-9">
      <rect id="Rectángulo_406363" data-name="Rectángulo 406363" width="31.159" height="27.695" fill="none"/>
    </clipPath>
    <clipPath id="clip-path-10">
      <rect id="Rectángulo_406364" data-name="Rectángulo 406364" width="32.254" height="25.58" fill="none"/>
    </clipPath>
    <clipPath id="clip-path-11">
      <rect id="Rectángulo_406365" data-name="Rectángulo 406365" width="83.453" height="69.438" fill="none"/>
    </clipPath>
    <clipPath id="clip-path-12">
      <path id="Trazado_906416" data-name="Trazado 906416" d="M68.463,50.728c-20.888,6.307-40.308,18.566-53.17,36.19s-18.628,40.8-13.334,61.964c6.458,25.821,28.467,45.8,53.37,55.19s52.392,9.494,78.819,6.32c16.164-1.942,32.6-5.219,46.434-13.809,13.888-8.626,24.179-22.042,32.331-36.214,9.348-16.251,16.425-35.186,12.52-53.523-4.061-19.072-19.563-34.1-37.136-42.551s-36.241-15.411-55-17.776a189.063,189.063,0,0,0-23.616-1.533,142.433,142.433,0,0,0-41.224,5.742" transform="translate(0 -44.986)" fill="none"/>
    </clipPath>
    <clipPath id="clip-path-13">
      <rect id="Rectángulo_406381" data-name="Rectángulo 406381" width="41.351" height="96.914" fill="none"/>
    </clipPath>
    <clipPath id="clip-path-14">
      <rect id="Rectángulo_406382" data-name="Rectángulo 406382" width="79.067" height="163.977" fill="none"/>
    </clipPath>
    <clipPath id="clip-path-16">
      <rect id="Rectángulo_406384" data-name="Rectángulo 406384" width="45.571" height="41.616" fill="none"/>
    </clipPath>
    <clipPath id="clip-path-17">
      <rect id="Rectángulo_406390" data-name="Rectángulo 406390" width="45.571" height="41.617" fill="none"/>
    </clipPath>
  </defs>
  <g id="Grupo_1114285" data-name="Grupo 1114285" transform="translate(-226.051 -13854)">
    <rect id="Rectángulo_405718" data-name="Rectángulo 405718" width="249" height="200" rx="8" transform="translate(226.051 13854)" fill="#fbfbf9"/>
    <g id="Grupo_1114283" data-name="Grupo 1114283" transform="translate(235.051 13858)">
      <g id="Grupo_1114284" data-name="Grupo 1114284">
        <g id="Grupo_1114236" data-name="Grupo 1114236">
          <g id="Grupo_1114235" data-name="Grupo 1114235" clip-path="url(#clip-path)">
            <path id="Trazado_906325" data-name="Trazado 906325" d="M133.3,46.519c-21.647-2.73-43.953-2.1-64.84,4.208s-40.307,18.566-53.17,36.19-18.628,40.8-13.334,61.964c6.458,25.821,28.467,45.8,53.371,55.19s52.391,9.495,78.819,6.32c16.164-1.941,32.6-5.218,46.434-13.809,13.889-8.626,24.179-22.041,32.331-36.214,9.347-16.251,16.425-35.186,12.52-53.523-4.061-19.073-19.563-34.1-37.136-42.551s-36.241-15.411-55-17.776" transform="translate(0 -25.757)" fill="#e2dacc"/>
          </g>
        </g>
        <g id="Grupo_1114265" data-name="Grupo 1114265">
          <g id="Grupo_1114264" data-name="Grupo 1114264" clip-path="url(#clip-path)">
            <g id="Grupo_1114239" data-name="Grupo 1114239" transform="translate(25.958 64.562)" opacity="0.15" style="mix-blend-mode: multiply;isolation: isolate">
              <g id="Grupo_1114238" data-name="Grupo 1114238">
                <g id="Grupo_1114237" data-name="Grupo 1114237" clip-path="url(#clip-path-3)">
                  <path id="Trazado_906326" data-name="Trazado 906326" d="M83.792,182.082c-1.682-4.183-5.312-7.259-9.069-9.753s-7.81-4.621-11.056-7.751a8.83,8.83,0,0,1-2.862-4.625,6.861,6.861,0,0,1,2.8-6.331,13.514,13.514,0,0,1,6.773-2.406,26.848,26.848,0,0,1,27.765,16.07L96.58,177.352Z" transform="translate(-60.728 -151.04)" fill="#2e2854"/>
                </g>
              </g>
            </g>
            <path id="Trazado_906327" data-name="Trazado 906327" d="M85.54,174.677c-1.078-4.378-4.242-7.932-7.612-10.928s-7.085-5.671-9.86-9.225a8.83,8.83,0,0,1-2.186-4.98,6.861,6.861,0,0,1,3.665-5.875,13.515,13.515,0,0,1,7.042-1.433,26.847,26.847,0,0,1,25.238,19.8l-2.962,9.747Z" transform="translate(-37.72 -81.432)" fill="#76c9bf"/>
            <path id="Trazado_906328" data-name="Trazado 906328" d="M89.03,165.789A43.321,43.321,0,0,1,112.9,187.253" transform="translate(-50.974 -94.922)" fill="none" stroke="#2e2854" stroke-linecap="round" stroke-linejoin="round" stroke-width="1.5"/>
            <g id="Grupo_1114242" data-name="Grupo 1114242" transform="translate(30.109 120.013)" opacity="0.15" style="mix-blend-mode: multiply;isolation: isolate">
              <g id="Grupo_1114241" data-name="Grupo 1114241">
                <g id="Grupo_1114240" data-name="Grupo 1114240" clip-path="url(#clip-path-4)">
                  <path id="Trazado_906329" data-name="Trazado 906329" d="M103.227,281.425c-4.537-1.754-9.8.189-13.452,3.4s-6.127,7.512-8.9,11.51c-2.471,3.567-5.6,7.173-10.439,8.169a24.372,24.372,0,0,0,24,3.15c4.934-2.039,9.285-5.842,11.208-10.823a15.889,15.889,0,0,0-2.418-15.4" transform="translate(-70.439 -280.764)" fill="#2e2854"/>
                </g>
              </g>
            </g>
            <path id="Trazado_906330" data-name="Trazado 906330" d="M98.846,279.215c-4.363-2.148-9.774-.677-13.7,2.193s-6.767,6.941-9.88,10.679c-2.777,3.335-6.214,6.65-11.121,7.214a24.371,24.371,0,0,0,23.625,5.259c5.095-1.595,9.766-5,12.121-9.789a15.888,15.888,0,0,0-1.046-15.555" transform="translate(-36.727 -159.278)" fill="#49ad9f"/>
            <path id="Trazado_906331" data-name="Trazado 906331" d="M94.836,295.933a26.373,26.373,0,0,0,22.9-21.251" transform="translate(-54.298 -157.269)" fill="none" stroke="#2e2854" stroke-linecap="round" stroke-linejoin="round" stroke-width="1.5"/>
            <g id="Grupo_1114245" data-name="Grupo 1114245" transform="translate(126.781 108.369)" opacity="0.15" style="mix-blend-mode: multiply;isolation: isolate">
              <g id="Grupo_1114244" data-name="Grupo 1114244">
                <g id="Grupo_1114243" data-name="Grupo 1114243" clip-path="url(#clip-path-5)">
                  <path id="Trazado_906332" data-name="Trazado 906332" d="M296.6,275.631c1.4,5.306,4.308,10.41,8.913,13.392s11.059,3.406,15.469.141a7.366,7.366,0,0,0,3.258-5.631c0-2.345-1.508-4.393-3-6.2-6.084-7.4-13.23-14.528-15.617-23.8Z" transform="translate(-296.598 -253.526)" fill="#2e2854"/>
                </g>
              </g>
            </g>
            <path id="Trazado_906333" data-name="Trazado 906333" d="M295.58,269.1c1.674,5.226,4.843,10.172,9.6,12.911s11.221,2.827,15.455-.663a7.366,7.366,0,0,0,2.961-5.793c-.119-2.342-1.735-4.308-3.317-6.04-6.461-7.07-13.967-13.821-16.834-22.959Z" transform="translate(-169.234 -141.166)" fill="#49ad9f"/>
            <path id="Trazado_906334" data-name="Trazado 906334" d="M300.819,274.709A32.787,32.787,0,0,0,313.2,288.537" transform="translate(-172.234 -157.284)" fill="none" stroke="#2e2854" stroke-linecap="round" stroke-linejoin="round" stroke-width="1.5"/>
            <g id="Grupo_1114248" data-name="Grupo 1114248" transform="translate(170.131 100.097)" opacity="0.15" style="mix-blend-mode: multiply;isolation: isolate">
              <g id="Grupo_1114247" data-name="Grupo 1114247">
                <g id="Grupo_1114246" data-name="Grupo 1114246" clip-path="url(#clip-path-6)">
                  <path id="Trazado_906335" data-name="Trazado 906335" d="M398.854,249.817c4.113,5.317,8.322,10.726,13.876,14.512s12.781,5.751,19.11,3.483c3.3-1.181,6.322-3.691,7.171-7.087.866-3.463-.717-7.191-3.255-9.7s-5.9-4-9.26-5.2-6.83-2.182-9.954-3.908-5.942-4.34-7.016-7.744l-11.511,4.244Z" transform="translate(-398.014 -234.171)" fill="#2e2854"/>
                </g>
              </g>
            </g>
            <path id="Trazado_906336" data-name="Trazado 906336" d="M395.856,241.767c4.276,5.187,8.65,10.462,14.32,14.074s12.953,5.351,19.209,2.887c3.256-1.283,6.2-3.886,6.947-7.306.757-3.488-.94-7.166-3.555-9.6s-6.021-3.814-9.418-4.91-6.895-1.968-10.07-3.6-6.075-4.154-7.254-7.522l-11.374,4.6Z" transform="translate(-225.963 -129.28)" fill="#49ad9f"/>
            <path id="Trazado_906337" data-name="Trazado 906337" d="M393.933,235.263A30.95,30.95,0,0,0,424.248,253.3" transform="translate(-225.546 -134.7)" fill="none" stroke="#2e2854" stroke-linecap="round" stroke-linejoin="round" stroke-width="1.5"/>
            <g id="Grupo_1114251" data-name="Grupo 1114251" transform="translate(189.241 90.949)" opacity="0.15" style="mix-blend-mode: multiply;isolation: isolate">
              <g id="Grupo_1114250" data-name="Grupo 1114250">
                <g id="Grupo_1114249" data-name="Grupo 1114249" clip-path="url(#clip-path-7)">
                  <path id="Trazado_906338" data-name="Trazado 906338" d="M444.148,228.591a74.2,74.2,0,0,0,14.215,1.946,24.881,24.881,0,0,0,13.722-3.528,11.562,11.562,0,0,0,4.266-4.518,6.643,6.643,0,0,0,.006-6.05c-1.3-2.282-4.066-3.3-6.676-3.572-4.558-.467-9.087.811-13.607,1.569s-9.468.916-13.354-1.512Z" transform="translate(-442.72 -212.77)" fill="#2e2854"/>
                </g>
              </g>
            </g>
            <path id="Trazado_906339" data-name="Trazado 906339" d="M441.34,223.231a74.2,74.2,0,0,0,14.215,1.946,24.881,24.881,0,0,0,13.722-3.528,11.559,11.559,0,0,0,4.266-4.518,6.642,6.642,0,0,0,.006-6.05c-1.3-2.282-4.066-3.3-6.676-3.572-4.558-.467-9.087.811-13.607,1.569s-9.468.916-13.354-1.512Z" transform="translate(-251.871 -118.752)" fill="#76c9bf"/>
            <path id="Trazado_906340" data-name="Trazado 906340" d="M439.686,229.1a39.492,39.492,0,0,0,23.163.671" transform="translate(-251.742 -131.168)" fill="none" stroke="#2e2854" stroke-linecap="round" stroke-linejoin="round" stroke-width="1.5"/>
            <g id="Grupo_1114254" data-name="Grupo 1114254" transform="translate(196.814 56.078)" opacity="0.15" style="mix-blend-mode: multiply;isolation: isolate">
              <g id="Grupo_1114253" data-name="Grupo 1114253">
                <g id="Grupo_1114252" data-name="Grupo 1114252" clip-path="url(#clip-path-8)">
                  <path id="Trazado_906341" data-name="Trazado 906341" d="M460.808,160.165c-.768-5.631-.5-11.622,2.219-16.615,2.872-5.284,8.232-8.9,13.969-10.71A43.009,43.009,0,0,1,495.03,131.6c-3.265,2.294-4.668,6.348-6.255,10.009-2.352,5.425-5.579,10.587-10.128,14.364a19.4,19.4,0,0,1-17.839,4.2" transform="translate(-460.436 -131.191)" fill="#2e2854"/>
                </g>
              </g>
            </g>
            <path id="Trazado_906342" data-name="Trazado 906342" d="M461.657,154.2c-1.181-5.559-1.352-11.554.986-16.733,2.474-5.482,7.552-9.486,13.139-11.713a43.011,43.011,0,0,1,17.893-2.572c-3.087,2.528-4.186,6.675-5.5,10.443-1.945,5.584-4.782,10.97-9.04,15.073a19.406,19.406,0,0,1-17.481,5.5" transform="translate(-263.837 -70.494)" fill="#76c9bf"/>
            <path id="Trazado_906343" data-name="Trazado 906343" d="M462.808,165.366a51.257,51.257,0,0,1,22.883-23.359" transform="translate(-264.98 -81.306)" fill="none" stroke="#2e2854" stroke-linecap="round" stroke-linejoin="round" stroke-width="1.5"/>
            <g id="Grupo_1114257" data-name="Grupo 1114257" transform="translate(92.37 1.592)" opacity="0.15" style="mix-blend-mode: multiply;isolation: isolate">
              <g id="Grupo_1114256" data-name="Grupo 1114256">
                <g id="Grupo_1114255" data-name="Grupo 1114255" clip-path="url(#clip-path-9)">
                  <path id="Trazado_906344" data-name="Trazado 906344" d="M216.094,28.56A35.533,35.533,0,0,1,232.119,6.351c2.5-1.518,5.327-2.747,8.254-2.618S246.3,5.669,247.058,8.5c.58,2.181-.226,4.481-1.211,6.511-2.625,5.409-6.678,10.414-7.13,16.409Z" transform="translate(-216.094 -3.724)" fill="#2e2854"/>
                </g>
              </g>
            </g>
            <path id="Trazado_906345" data-name="Trazado 906345" d="M214.05,26.662a35.532,35.532,0,0,1,14.23-23.4C230.658,1.552,233.375.1,236.3,0s6.065,1.463,7.039,4.226c.75,2.129.127,4.485-.7,6.587-2.192,5.6-5.839,10.907-5.818,16.918Z" transform="translate(-122.554 0)" fill="#76c9bf"/>
            <path id="Trazado_906346" data-name="Trazado 906346" d="M249.63,19.031a32.756,32.756,0,0,0-10.559,21.791" transform="translate(-136.88 -10.896)" fill="none" stroke="#2e2854" stroke-linecap="round" stroke-linejoin="round" stroke-width="1.5"/>
            <g id="Grupo_1114260" data-name="Grupo 1114260" transform="translate(113.914 10.337)" opacity="0.15" style="mix-blend-mode: multiply;isolation: isolate">
              <g id="Grupo_1114259" data-name="Grupo 1114259">
                <g id="Grupo_1114258" data-name="Grupo 1114258" clip-path="url(#clip-path-10)">
                  <path id="Trazado_906347" data-name="Trazado 906347" d="M266.495,41.949a38.912,38.912,0,0,1,9.219-11.736,25.364,25.364,0,0,1,13.55-5.943,11.679,11.679,0,0,1,5.61.62,6.175,6.175,0,0,1,3.731,4.033,7.8,7.8,0,0,1-1.327,5.721c-3.441,5.682-9.858,9.191-12.852,15.12Z" transform="translate(-266.495 -24.184)" fill="#2e2854"/>
                </g>
              </g>
            </g>
            <path id="Trazado_906348" data-name="Trazado 906348" d="M264.523,38.159a38.907,38.907,0,0,1,7.854-12.69,25.365,25.365,0,0,1,12.8-7.415,11.686,11.686,0,0,1,5.644-.009,6.174,6.174,0,0,1,4.157,3.592,7.8,7.8,0,0,1-.681,5.833c-2.787,6.03-8.773,10.231-11.089,16.457Z" transform="translate(-151.452 -10.135)" fill="#49ad9f"/>
            <path id="Trazado_906349" data-name="Trazado 906349" d="M286.535,50.631a38.962,38.962,0,0,1,13.021-15.91" transform="translate(-164.055 -19.879)" fill="none" stroke="#2e2854" stroke-linecap="round" stroke-linejoin="round" stroke-width="1.5"/>
            <g id="Grupo_1114263" data-name="Grupo 1114263" transform="translate(122.97 40.705)" opacity="0.15" style="mix-blend-mode: multiply;isolation: isolate">
              <g id="Grupo_1114262" data-name="Grupo 1114262">
                <g id="Grupo_1114261" data-name="Grupo 1114261" clip-path="url(#clip-path-11)">
                  <path id="Trazado_906350" data-name="Trazado 906350" d="M295.173,96.244a550.094,550.094,0,0,1,68.384.1,7.264,7.264,0,0,1,6.75,6.791,379.093,379.093,0,0,1-.235,53.439,7.286,7.286,0,0,1-7.122,6.717c-22.38.426-44.775.859-67.348,1.376a7.28,7.28,0,0,1-7.447-7.071c-.489-17.629-.821-35.409.156-54.435a7.289,7.289,0,0,1,6.861-6.914" transform="translate(-287.682 -95.228)" fill="#2e2854"/>
                </g>
              </g>
            </g>
            <path id="Trazado_906351" data-name="Trazado 906351" d="M285.583,89.369a550.093,550.093,0,0,1,68.384.1,7.264,7.264,0,0,1,6.75,6.791,379.157,379.157,0,0,1-.235,53.439,7.286,7.286,0,0,1-7.122,6.717c-22.38.426-44.775.859-67.348,1.376a7.28,7.28,0,0,1-7.447-7.071c-.489-17.629-.821-35.409.156-54.435a7.289,7.289,0,0,1,6.861-6.914" transform="translate(-159.221 -50.587)" fill="#fff"/>
            <path id="Trazado_906352" data-name="Trazado 906352" d="M285.583,89.369a550.093,550.093,0,0,1,68.384.1,7.264,7.264,0,0,1,6.75,6.791,379.157,379.157,0,0,1-.235,53.439,7.286,7.286,0,0,1-7.122,6.717c-22.38.426-44.775.859-67.348,1.376a7.28,7.28,0,0,1-7.447-7.071c-.489-17.629-.821-35.409.156-54.435A7.289,7.289,0,0,1,285.583,89.369Z" transform="translate(-159.221 -50.587)" fill="none" stroke="#2e2854" stroke-linecap="round" stroke-linejoin="round" stroke-width="1.5"/>
            <rect id="Rectángulo_406366" data-name="Rectángulo 406366" width="70.285" height="20.331" transform="translate(125.455 59.452)" fill="#f7a145"/>
            <rect id="Rectángulo_406367" data-name="Rectángulo 406367" width="2.758" height="12.188" transform="translate(129.887 67.595)" fill="#2e2854"/>
            <rect id="Rectángulo_406368" data-name="Rectángulo 406368" width="2.758" height="7.186" transform="translate(135.689 72.597)" fill="#2e2854"/>
            <rect id="Rectángulo_406369" data-name="Rectángulo 406369" width="2.758" height="14.58" transform="translate(141.491 65.203)" fill="#2e2854"/>
            <rect id="Rectángulo_406370" data-name="Rectángulo 406370" width="2.758" height="15.668" transform="translate(147.292 64.115)" fill="#2e2854"/>
            <rect id="Rectángulo_406371" data-name="Rectángulo 406371" width="2.758" height="4.359" transform="translate(153.093 75.424)" fill="#2e2854"/>
            <rect id="Rectángulo_406372" data-name="Rectángulo 406372" width="2.758" height="9.687" transform="translate(158.895 70.096)" fill="#2e2854"/>
            <rect id="Rectángulo_406373" data-name="Rectángulo 406373" width="2.758" height="12.188" transform="translate(164.696 67.595)" fill="#2e2854"/>
            <rect id="Rectángulo_406374" data-name="Rectángulo 406374" width="2.758" height="12.188" transform="translate(170.498 67.595)" fill="#2e2854"/>
            <rect id="Rectángulo_406375" data-name="Rectángulo 406375" width="2.758" height="9.687" transform="translate(176.299 70.096)" fill="#2e2854"/>
            <rect id="Rectángulo_406376" data-name="Rectángulo 406376" width="2.758" height="14.58" transform="translate(182.1 65.203)" fill="#2e2854"/>
            <rect id="Rectángulo_406377" data-name="Rectángulo 406377" width="2.758" height="12.623" transform="translate(187.902 67.16)" fill="#2e2854"/>
            <rect id="Rectángulo_406378" data-name="Rectángulo 406378" width="20.165" height="3.822" transform="translate(125.328 50.718)" fill="#6d7fe3"/>
            <rect id="Rectángulo_406379" data-name="Rectángulo 406379" width="37.848" height="3.822" transform="translate(148.526 50.718)" fill="#6d7fe3"/>
            <line id="Línea_1928" data-name="Línea 1928" x2="61.107" transform="translate(129.984 87.417)" fill="none" stroke="#2e2854" stroke-linecap="round" stroke-linejoin="round" stroke-width="1.5"/>
            <line id="Línea_1929" data-name="Línea 1929" x2="61.107" transform="translate(129.984 92.331)" fill="none" stroke="#2e2854" stroke-linecap="round" stroke-linejoin="round" stroke-width="1.5"/>
            <line id="Línea_1930" data-name="Línea 1930" x2="29.331" transform="translate(129.984 97.245)" fill="none" stroke="#2e2854" stroke-linecap="round" stroke-linejoin="round" stroke-width="1.5"/>
          </g>
        </g>
        <g id="Grupo_1114273" data-name="Grupo 1114273" transform="translate(0 19.229)">
          <g id="Grupo_1114272" data-name="Grupo 1114272" clip-path="url(#clip-path-12)">
            <g id="Grupo_1114268" data-name="Grupo 1114268" transform="translate(136.712 74.43)" opacity="0.15" style="mix-blend-mode: multiply;isolation: isolate">
              <g id="Grupo_1114267" data-name="Grupo 1114267">
                <g id="Grupo_1114266" data-name="Grupo 1114266" clip-path="url(#clip-path-13)">
                  <path id="Trazado_906353" data-name="Trazado 906353" d="M350.316,291.724c3.617-9.708,14.706-21.841,9.5-35.694q1.346-18.175,1.344-36.418c-7.854-.38-15.8-.606-23.729-.453-.739,13.048-1.417,26.246-1.774,39.454a23.541,23.541,0,0,0-2.528,14.594q-1.917,4.3-3.645,8.674-.874,2.214-1.7,4.446a217.144,217.144,0,0,0-7.952,26.638l27.013,3.059A121.769,121.769,0,0,0,352.677,298c-1.268-.447-2.528-.92-3.784-1.406a33.064,33.064,0,0,1,1.423-4.873" transform="translate(-319.831 -219.111)" fill="#2e2854"/>
                </g>
              </g>
            </g>
            <path id="Trazado_906354" data-name="Trazado 906354" d="M376.062,256.95h0q1.529-16.5,1.938-33.08.055-2.171.093-4.342-1.79-.116-3.587-.219l-.225-.013q-1.763-.1-3.531-.189h-.006q-4.773-.237-9.569-.35h0q-1.609-.035-3.22-.053l-.227,0q-1.676-.017-3.353-.014-.288,3.946-.566,7.911v.011c-.626,8.914-1.2,17.885-1.639,26.871h0q-.092,1.884-.177,3.768-.1,2.171-.184,4.342c.793.139,1.589.268,2.385.39.289.045.577.09.866.133q.9.131,1.794.25a124.556,124.556,0,0,0,13.294,1.054q.966.026,1.936.039c.265,0,.53,0,.8,0,.844.005,1.69,0,2.541-.008q.226-2.121.427-4.244.11-1.129.215-2.259v0" transform="translate(-201.427 -144.438)" fill="#2f9c8d"/>
            <path id="Trazado_906355" data-name="Trazado 906355" d="M355.646,336.367c3.146-10.071,13.9-23.071,7.218-36.906L339.5,303.48a23.735,23.735,0,0,0-2.011,15.322q-1.682,4.394-3.172,8.858l12.459,7.72Z" transform="translate(-191.411 -190.685)" fill="#e8614e"/>
            <path id="Trazado_906356" data-name="Trazado 906356" d="M352.245,383.205a28.653,28.653,0,0,1,1.449-9.067c-6.87-2.449-14.62-5.662-21.333-8.706q-.754,2.258-1.458,4.531Z" transform="translate(-189.458 -228.457)" fill="#fff"/>
            <path id="Trazado_906357" data-name="Trazado 906357" d="M342.82,404.661a121.69,121.69,0,0,0,4.854-18.31,141.481,141.481,0,0,1-25.486-10.317,217.048,217.048,0,0,0-6.506,27.027Z" transform="translate(-180.744 -234.527)" fill="#33a1bd"/>
            <path id="Trazado_906358" data-name="Trazado 906358" d="M375.87,256.667h0q1.289-16.521,1.457-33.1.024-2.172.03-4.343-1.792-.09-3.591-.167l-.225-.009q-1.764-.076-3.533-.138H370q-4.775-.167-9.573-.21h0q-1.61-.012-3.22-.007h-.227q-1.676.008-3.352.035-.231,3.95-.451,7.919v.011c-.5,8.922-.939,17.9-1.248,26.892h0q-.065,1.885-.122,3.771-.067,2.172-.121,4.345c.8.128,1.592.244,2.391.355q.433.062.868.121.9.119,1.8.224a124.5,124.5,0,0,0,13.308.861q.966.012,1.937.011c.264,0,.53,0,.795-.007.844-.007,1.69-.02,2.541-.045q.194-2.124.365-4.25.094-1.131.183-2.262v0" transform="translate(-201.358 -144.438)" fill="#2f9c8d"/>
            <path id="Trazado_906359" data-name="Trazado 906359" d="M374.288,256.2h0q1.194-16.528,1.269-33.112.012-2.172.005-4.343-1.793-.08-3.591-.147l-.225-.008q-1.764-.066-3.534-.118h-.006q-4.776-.14-9.574-.156h0q-1.61,0-3.22.012h-.227q-1.676.017-3.352.054-.208,3.951-.406,7.921v.011c-.446,8.925-.837,17.905-1.095,26.9h0q-.054,1.886-.1,3.771-.054,2.172-.1,4.345c.8.124,1.594.235,2.392.342.289.039.579.078.869.115q.9.113,1.8.214a124.472,124.472,0,0,0,13.313.785q.966.006,1.937,0c.265,0,.53-.007.795-.011.844-.012,1.69-.03,2.54-.06q.183-2.125.341-4.252.087-1.131.17-2.262v0" transform="translate(-200.468 -144.225)" fill="#39ad9e"/>
            <path id="Trazado_906360" data-name="Trazado 906360" d="M373.986,217.782q.482,22.006-1.016,44a125.049,125.049,0,0,1-23.665-.972c.017-14.374.448-28.762.949-42.971,7.929-.322,15.873-.266,23.733-.053" transform="translate(-199.994 -143.82)" fill="#61c9bb"/>
            <path id="Trazado_906361" data-name="Trazado 906361" d="M353.3,258.146q.493-15.815.987-31.63l3.549-3.719,14.07.018,2.469,3.056q.105,16.837-.843,33.657l-3.025,3.57a109.627,109.627,0,0,1-13.292-.522Z" transform="translate(-202.283 -146.792)" fill="#39ad9e"/>
            <path id="Trazado_906362" data-name="Trazado 906362" d="M374.926,259.41a5.222,5.222,0,1,0,1.26,6.262,5.257,5.257,0,0,0-1.26-6.262" transform="translate(-209.719 -167.04)" fill="#8cded3"/>
            <path id="Trazado_906363" data-name="Trazado 906363" d="M378.526,240.977a1.97,1.97,0,1,1-2.779.293,2.047,2.047,0,0,1,2.779-.293" transform="translate(-214.901 -156.963)" fill="#8cded3"/>
            <path id="Trazado_906364" data-name="Trazado 906364" d="M377.7,294.293a1.97,1.97,0,1,1-2.778.293,2.047,2.047,0,0,1,2.778-.293" transform="translate(-214.427 -187.489)" fill="#8cded3"/>
            <path id="Trazado_906365" data-name="Trazado 906365" d="M350.9,225.828a7.87,7.87,0,0,0,7.067-8.124q-3.4.053-6.8.186-.14,3.96-.268,7.938" transform="translate(-200.906 -143.876)" fill="#8cded3"/>
            <path id="Trazado_906366" data-name="Trazado 906366" d="M349.36,299.673q-.046,4.059-.055,8.12c2.206.3,4.421.539,6.647.722a6.952,6.952,0,0,0-6.592-8.842" transform="translate(-199.994 -190.807)" fill="#8cded3"/>
            <path id="Trazado_906367" data-name="Trazado 906367" d="M395.686,312.2q.223-3.261.4-6.525a7.087,7.087,0,0,0-7.1,6.7c2.218,0,4.451-.054,6.706-.172" transform="translate(-222.71 -194.246)" fill="#61c9bb"/>
            <path id="Trazado_906368" data-name="Trazado 906368" d="M392.776,222.534a6.048,6.048,0,0,0,4.506,1.633q-.028-3.173-.094-6.344-3.669-.1-7.359-.144a11.954,11.954,0,0,0,2.947,4.855" transform="translate(-223.196 -143.861)" fill="#61c9bb"/>
            <path id="Trazado_906369" data-name="Trazado 906369" d="M368.682,215.978q1.2,21.979.415,44.007a125.076,125.076,0,0,1-23.684-.2c-.451-14.368-.489-28.761-.45-42.98,7.914-.58,15.855-.782,23.718-.825" transform="translate(-197.502 -142.887)" fill="#8cded3"/>
            <path id="Trazado_906370" data-name="Trazado 906370" d="M349.54,257.048q-.022-15.823-.043-31.645l3.426-3.833,14.064-.44,2.567,2.974q.653,16.824.252,33.666l-2.907,3.667a109.7,109.7,0,0,1-13.3-.089Z" transform="translate(-200.104 -145.837)" fill="#61c9bb"/>
            <path id="Trazado_906371" data-name="Trazado 906371" d="M369.937,258.166a5.223,5.223,0,1,0,1.463,6.218,5.257,5.257,0,0,0-1.463-6.218" transform="translate(-206.939 -166.391)" fill="#8cded3"/>
            <path id="Trazado_906372" data-name="Trazado 906372" d="M372.791,239.767a1.97,1.97,0,1,1-2.768.383,2.047,2.047,0,0,1,2.768-.383" transform="translate(-211.646 -156.293)" fill="#8cded3"/>
            <path id="Trazado_906373" data-name="Trazado 906373" d="M373.7,293.082a1.97,1.97,0,1,1-2.767.383,2.047,2.047,0,0,1,2.767-.383" transform="translate(-212.164 -186.818)" fill="#8cded3"/>
            <path id="Trazado_906374" data-name="Trazado 906374" d="M344.955,225.305a7.87,7.87,0,0,0,6.8-8.349q-3.4.163-6.789.406-.011,3.962-.01,7.943" transform="translate(-197.504 -143.447)" fill="#8cded3"/>
            <path id="Trazado_906375" data-name="Trazado 906375" d="M345.542,299.466q.087,4.059.209,8.117c2.215.23,4.437.395,6.667.506a6.953,6.953,0,0,0-6.876-8.623" transform="translate(-197.84 -190.688)" fill="#8cded3"/>
            <path id="Trazado_906376" data-name="Trazado 906376" d="M392.468,310.176q.116-3.266.184-6.534a7.087,7.087,0,0,0-6.881,6.925c2.217-.074,4.447-.2,6.7-.391" transform="translate(-220.873 -193.079)" fill="#8cded3"/>
            <path id="Trazado_906377" data-name="Trazado 906377" d="M386.352,220.83a6.049,6.049,0,0,0,4.557,1.486q-.131-3.17-.3-6.338-3.67.02-7.36.1a11.955,11.955,0,0,0,3.1,4.757" transform="translate(-219.428 -142.887)" fill="#8cded3"/>
            <path id="Trazado_906378" data-name="Trazado 906378" d="M371.889,302.255c-.1-5.306-.212-10.7-1.829-15.755a4.876,4.876,0,0,0-.984-1.925,1.88,1.88,0,0,0-1.975-.564,2.758,2.758,0,0,0-1.32,1.923,46.087,46.087,0,0,0-1.947,12.31,20.954,20.954,0,0,0-5.93,15.032" transform="translate(-204.914 -181.783)" fill="#e8614e"/>
            <path id="Trazado_906379" data-name="Trazado 906379" d="M371.889,302.255c-.1-5.306-.212-10.7-1.829-15.755a4.876,4.876,0,0,0-.984-1.925,1.88,1.88,0,0,0-1.975-.564,2.758,2.758,0,0,0-1.32,1.923,46.087,46.087,0,0,0-1.947,12.31,20.954,20.954,0,0,0-5.93,15.032" transform="translate(-204.914 -181.783)" fill="none" stroke="#2e2854" stroke-linecap="round" stroke-linejoin="round" stroke-width="1.5"/>
            <g id="Grupo_1114271" data-name="Grupo 1114271" transform="translate(61.289 9.791)" opacity="0.15" style="mix-blend-mode: multiply;isolation: isolate">
              <g id="Grupo_1114270" data-name="Grupo 1114270">
                <g id="Grupo_1114269" data-name="Grupo 1114269" clip-path="url(#clip-path-14)">
                  <path id="Trazado_906380" data-name="Trazado 906380" d="M220.767,386.493Z" transform="translate(-187.689 -250.307)" fill="#2e2854"/>
                  <path id="Trazado_906381" data-name="Trazado 906381" d="M222.25,77.6a7.377,7.377,0,0,0-6.4-7.092,312.426,312.426,0,0,0-63.606-1.776,7.376,7.376,0,0,0-6.875,7.162c-.8,30.947-1.9,62.258-1.982,93.722A7.38,7.38,0,0,0,148,176.479c-.546,8.856,3.936,17.959,5.11,26.955h0a29.811,29.811,0,0,1,.253,4.974c-1.32.189-2.646.345-3.979.445a121.745,121.745,0,0,0,.928,18.92l26.876,4.1a217.17,217.17,0,0,0-.725-27.79h0q-.213-2.351-.476-4.7-.527-4.694-1.259-9.362a41.021,41.021,0,0,0,3.133-11.458q16.782.632,33.581.494a7.373,7.373,0,0,0,7.285-6.849c2.289-32.082,4.393-63.479,3.525-94.6" transform="translate(-143.383 -67.892)" fill="#2e2854"/>
                </g>
              </g>
            </g>
            <path id="Trazado_906382" data-name="Trazado 906382" d="M178.983,310.264a38.163,38.163,0,0,1-2.852,15.1q.878,4.641,1.553,9.318l-8.543,5.659-14.194-.885c-1.708-10.488-7.962-20.981-5.341-31.331Z" transform="translate(-85.294 -195.645)" fill="#e8614e"/>
            <path id="Trazado_906383" data-name="Trazado 906383" d="M179.185,310.217l1.432,9.772,5.638,7.287s2.368-5.389,2.7-8.861h6.8a33.245,33.245,0,0,0,.525-6.954Z" transform="translate(-102.592 -196.844)" fill="#d15046"/>
            <path id="Trazado_906384" data-name="Trazado 906384" d="M186.31,374.933q-.287-2.344-.624-4.681-11.253,2.9-22.738,4.774h0a25.584,25.584,0,0,1,.006,9.147Z" transform="translate(-93.296 -231.217)" fill="#fff"/>
            <path id="Trazado_906385" data-name="Trazado 906385" d="M181.553,381.2c-9.168,1.3-17.82,4.654-26.914,5.627a121.661,121.661,0,0,0,1.525,18.881l26.991,3.245a217.2,217.2,0,0,0-1.6-27.754" transform="translate(-88.539 -237.486)" fill="#33a1bd"/>
            <path id="Trazado_906386" data-name="Trazado 906386" d="M204.716,172.572q-30.626,1.238-61.28-.121a7.376,7.376,0,0,1-7.041-7.16c-.913-31.451-.806-62.781-.981-93.738a7.376,7.376,0,0,1,6.645-7.376,312.483,312.483,0,0,1,63.631-.235,7.377,7.377,0,0,1,6.625,6.887c1.851,31.082.74,62.529-.534,94.668a7.372,7.372,0,0,1-7.065,7.075" transform="translate(-77.532 -54.973)" fill="#fff"/>
            <path id="Trazado_906387" data-name="Trazado 906387" d="M135.564,117.89h77.694q-.127-8.272-.479-16.5H135.5q.037,8.237.066,16.5" transform="translate(-77.579 -77.278)" fill="#d24d84"/>
            <path id="Trazado_906388" data-name="Trazado 906388" d="M204.716,172.572q-30.626,1.238-61.28-.121a7.376,7.376,0,0,1-7.041-7.16c-.913-31.451-.806-62.781-.981-93.738a7.376,7.376,0,0,1,6.645-7.376,312.483,312.483,0,0,1,63.631-.235,7.377,7.377,0,0,1,6.625,6.887c1.851,31.082.74,62.529-.534,94.668A7.372,7.372,0,0,1,204.716,172.572Z" transform="translate(-77.532 -54.973)" fill="none" stroke="#2e2854" stroke-linecap="round" stroke-linejoin="round" stroke-width="1.5"/>
            <path id="Trazado_906389" data-name="Trazado 906389" d="M166.347,159.245a28.466,28.466,0,0,0-6.358.02,55.512,55.512,0,0,0,.235,6.143c2.085-.071,4.169-.141,6.3-.2C166.447,163.335,166.365,161.467,166.347,159.245Z" transform="translate(-91.593 -110.308)" fill="none" stroke="#2e2854" stroke-linecap="round" stroke-linejoin="round" stroke-width="1.5"/>
            <path id="Trazado_906390" data-name="Trazado 906390" d="M160.256,156.922a19.128,19.128,0,0,1,2.976,4.2l1.24-5.618" transform="translate(-91.755 -108.263)" fill="none" stroke="#d14b56" stroke-linecap="round" stroke-linejoin="round" stroke-width="3"/>
            <line id="Línea_1931" data-name="Línea 1931" x2="41.573" transform="translate(80.594 48.768)" fill="none" stroke="#2e2854" stroke-linecap="round" stroke-linejoin="round" stroke-width="1.5"/>
            <line id="Línea_1932" data-name="Línea 1932" x2="41.573" transform="translate(80.594 52.858)" fill="none" stroke="#2e2854" stroke-linecap="round" stroke-linejoin="round" stroke-width="1.5"/>
            <line id="Línea_1933" data-name="Línea 1933" x2="14.896" transform="translate(80.594 56.949)" fill="none" stroke="#2e2854" stroke-linecap="round" stroke-linejoin="round" stroke-width="1.5"/>
            <path id="Trazado_906391" data-name="Trazado 906391" d="M166.347,197.826a28.465,28.465,0,0,0-6.358.02,55.511,55.511,0,0,0,.235,6.143c2.085-.071,4.169-.141,6.3-.2C166.447,201.916,166.365,200.048,166.347,197.826Z" transform="translate(-91.593 -132.398)" fill="none" stroke="#2e2854" stroke-linecap="round" stroke-linejoin="round" stroke-width="1.5"/>
            <path id="Trazado_906392" data-name="Trazado 906392" d="M160.256,195.5a19.128,19.128,0,0,1,2.976,4.2l1.24-5.618" transform="translate(-91.755 -130.353)" fill="none" stroke="#d14b56" stroke-linecap="round" stroke-linejoin="round" stroke-width="3"/>
            <line id="Línea_1934" data-name="Línea 1934" x2="41.573" transform="translate(80.594 65.26)" fill="none" stroke="#2e2854" stroke-linecap="round" stroke-linejoin="round" stroke-width="1.5"/>
            <line id="Línea_1935" data-name="Línea 1935" x2="41.573" transform="translate(80.594 69.35)" fill="none" stroke="#2e2854" stroke-linecap="round" stroke-linejoin="round" stroke-width="1.5"/>
            <line id="Línea_1936" data-name="Línea 1936" x2="20.884" transform="translate(80.594 73.44)" fill="none" stroke="#2e2854" stroke-linecap="round" stroke-linejoin="round" stroke-width="1.5"/>
            <path id="Trazado_906393" data-name="Trazado 906393" d="M166.347,236.407a28.467,28.467,0,0,0-6.358.02,55.512,55.512,0,0,0,.235,6.143c2.085-.071,4.169-.141,6.3-.2C166.447,240.5,166.365,238.629,166.347,236.407Z" transform="translate(-91.593 -154.488)" fill="none" stroke="#2e2854" stroke-linecap="round" stroke-linejoin="round" stroke-width="1.5"/>
            <path id="Trazado_906394" data-name="Trazado 906394" d="M160.256,234.084a19.132,19.132,0,0,1,2.976,4.2l1.24-5.618" transform="translate(-91.755 -152.443)" fill="none" stroke="#d14b56" stroke-linecap="round" stroke-linejoin="round" stroke-width="3"/>
            <line id="Línea_1937" data-name="Línea 1937" x2="41.573" transform="translate(80.594 81.751)" fill="none" stroke="#2e2854" stroke-linecap="round" stroke-linejoin="round" stroke-width="1.5"/>
            <line id="Línea_1938" data-name="Línea 1938" x2="41.573" transform="translate(80.594 85.842)" fill="none" stroke="#2e2854" stroke-linecap="round" stroke-linejoin="round" stroke-width="1.5"/>
            <line id="Línea_1939" data-name="Línea 1939" x2="14.896" transform="translate(80.594 89.932)" fill="none" stroke="#2e2854" stroke-linecap="round" stroke-linejoin="round" stroke-width="1.5"/>
            <rect id="Rectángulo_406383" data-name="Rectángulo 406383" width="33.81" height="5.138" transform="translate(68.381 98.11)" fill="#33a1bd"/>
            <path id="Trazado_906395" data-name="Trazado 906395" d="M270.186,274.393a63.41,63.41,0,0,0-14.158.044,123.577,123.577,0,0,0,.522,13.679c4.642-.157,9.284-.314,14.04-.456C270.408,283.5,270.226,279.341,270.186,274.393Z" transform="translate(-146.57 -176.118)" fill="none" stroke="#2e2854" stroke-linecap="round" stroke-linejoin="round" stroke-width="1.5"/>
            <path id="Trazado_906396" data-name="Trazado 906396" d="M266.06,273.691a34.112,34.112,0,0,1,4.375,6.143c.921-4.171,1.193-9.6,2.114-13.772" transform="translate(-152.333 -171.562)" fill="none" stroke="#d14b56" stroke-linecap="round" stroke-linejoin="round" stroke-width="5"/>
            <path id="Trazado_906397" data-name="Trazado 906397" d="M173.223,110.293v-5.677a.12.12,0,0,1,.115-.125h2.468a1.965,1.965,0,0,1,1,3.592l1.151,2.158a.177.177,0,0,1,.021.073c0,.155-.344.155-.683.155-.391,0-.781,0-.846-.129l-.969-1.935h-.786v1.888c0,.171-.369.176-.738.176s-.733,0-.733-.176m2.9-3.841a.533.533,0,0,0-.533-.536h-.893v1.073h.893a.533.533,0,0,0,.533-.536" transform="translate(-99.179 -79.056)"/>
            <path id="Trazado_906398" data-name="Trazado 906398" d="M186.133,110.306v-5.69a.117.117,0,0,1,.116-.121l3.913,0c.185,0,.189.352.189.708s0,.716-.189.716H187.6v.829h2.115c.176,0,.18.313.18.622s0,.627-.18.627H187.6v1.012l2.553,0c.189,0,.193.356.193.716s0,.712-.189.712h-3.913a.123.123,0,0,1-.116-.124" transform="translate(-106.57 -79.056)"/>
            <path id="Trazado_906399" data-name="Trazado 906399" d="M197.176,107.346a3,3,0,0,1,3.107-3.055,3.158,3.158,0,0,1,1.965.558.167.167,0,0,1,.056.146,1.937,1.937,0,0,1-.172.618c-.129.3-.3.584-.451.584a.114.114,0,0,1-.06-.022,2.351,2.351,0,0,0-1.322-.4,1.573,1.573,0,0,0,0,3.145,2.426,2.426,0,0,0,1.322-.4.121.121,0,0,1,.064-.017c.129,0,.3.218.446.549a1.924,1.924,0,0,1,.172.635c0,.073-.013.133-.056.159a3.215,3.215,0,0,1-1.965.562,3,3,0,0,1-3.107-3.06" transform="translate(-112.893 -78.941)"/>
            <path id="Trazado_906400" data-name="Trazado 906400" d="M211,110.231v-5.664c0-.172.365-.176.738-.176s.734,0,.734.176v5.664c0,.176-.365.18-.734.18s-.738,0-.738-.18" transform="translate(-120.809 -78.998)"/>
            <path id="Trazado_906401" data-name="Trazado 906401" d="M217.557,110.306v-5.69a.12.12,0,0,1,.115-.124h1.957a1.68,1.68,0,0,1,1.858,1.6,1.164,1.164,0,0,1-.408.918,1.7,1.7,0,0,1,.936,1.467,1.906,1.906,0,0,1-2.141,1.953h-2.2a.123.123,0,0,1-.115-.124m2.489-4.06a.412.412,0,0,0-.408-.416h-.609v.828h.609a.411.411,0,0,0,.408-.412m.356,2.21a.559.559,0,0,0-.626-.549h-.747V109h.747a.558.558,0,0,0,.626-.545" transform="translate(-124.562 -79.056)"/>
            <path id="Trazado_906402" data-name="Trazado 906402" d="M228.961,107.346a3.085,3.085,0,1,1,3.085,3.06,3.072,3.072,0,0,1-3.085-3.06m4.575,0a1.493,1.493,0,1,0-1.489,1.558,1.495,1.495,0,0,0,1.489-1.558" transform="translate(-131.092 -78.941)"/>
            <path id="Trazado_906403" data-name="Trazado 906403" d="M248.8,110.307v-5.694a.119.119,0,0,1,.116-.12h1.961a2.973,2.973,0,1,1,0,5.939h-1.961a.123.123,0,0,1-.116-.124m3.613-2.845a1.536,1.536,0,0,0-1.631-1.545h-.511V109h.511a1.533,1.533,0,0,0,1.631-1.541" transform="translate(-142.45 -79.056)"/>
            <path id="Trazado_906404" data-name="Trazado 906404" d="M263.165,110.306v-5.69a.117.117,0,0,1,.116-.121l3.913,0c.185,0,.189.352.189.708s0,.716-.189.716h-2.558v.829h2.116c.176,0,.18.313.18.622s0,.627-.18.627h-2.116v1.012l2.554,0c.189,0,.193.356.193.716s0,.712-.189.712h-3.913a.123.123,0,0,1-.116-.124" transform="translate(-150.675 -79.056)"/>
            <path id="Trazado_906405" data-name="Trazado 906405" d="M168.172,123.848a3,3,0,0,1,3.107-3.055,3.158,3.158,0,0,1,1.965.558.167.167,0,0,1,.056.146,1.938,1.938,0,0,1-.172.618c-.129.3-.3.584-.451.584a.114.114,0,0,1-.06-.022,2.352,2.352,0,0,0-1.322-.4,1.573,1.573,0,0,0,0,3.145,2.426,2.426,0,0,0,1.322-.4.121.121,0,0,1,.064-.018c.129,0,.3.219.446.549a1.924,1.924,0,0,1,.172.635c0,.073-.013.133-.056.159a3.215,3.215,0,0,1-1.965.562,3,3,0,0,1-3.107-3.06" transform="translate(-96.287 -88.389)"/>
            <path id="Trazado_906406" data-name="Trazado 906406" d="M181.023,126.677a.147.147,0,0,1,.017-.065l2.755-5.763c.043-.085.15-.085.257-.085s.21,0,.253.085l2.759,5.768a.117.117,0,0,1,.017.06c0,.154-.373.163-.742.163-.416,0-.828,0-.884-.142l-.3-.751h-2.192l-.309.751c-.06.138-.471.142-.888.142-.369,0-.738,0-.738-.163m2.463-1.922h1.15l-.575-1.339Z" transform="translate(-103.645 -88.373)"/>
            <path id="Trazado_906407" data-name="Trazado 906407" d="M195.08,127.991a2.28,2.28,0,0,1-.082-.527c0-.12.026-.211.086-.228a.8.8,0,0,0,.644-.759l0-5.407c0-.172.373-.176.742-.176s.738,0,.738.176v5.471a2.177,2.177,0,0,1-1.733,2.042c-.172.035-.3-.244-.391-.592" transform="translate(-111.646 -88.447)"/>
            <path id="Trazado_906408" data-name="Trazado 906408" d="M201.513,126.677a.146.146,0,0,1,.017-.065l2.755-5.763c.043-.085.15-.085.257-.085s.21,0,.253.085l2.759,5.768a.117.117,0,0,1,.017.06c0,.154-.373.163-.742.163-.416,0-.828,0-.884-.142l-.3-.751h-2.192l-.309.751c-.06.138-.471.142-.888.142-.369,0-.738,0-.738-.163m2.463-1.922h1.15l-.575-1.339Z" transform="translate(-115.376 -88.373)"/>
            <path id="Trazado_906409" data-name="Trazado 906409" d="M219.574,126.648a.094.094,0,0,1,0-.034l1.369-5.763c.026-.107.133-.107.24-.107s.215,0,.266.077l2.008,3.549,2.008-3.549c.047-.077.155-.077.262-.077s.215,0,.241.107l1.369,5.763a.094.094,0,0,1,0,.034c0,.171-.373.171-.751.171-.4,0-.794,0-.832-.154l-.6-2.789-1.476,2.836c-.043.082-.133.082-.223.082s-.185,0-.232-.082l-1.468-2.836-.6,2.789c-.043.154-.438.154-.837.154-.378,0-.751,0-.751-.171" transform="translate(-125.717 -88.361)"/>
            <path id="Trazado_906410" data-name="Trazado 906410" d="M239.512,126.809v-5.69a.116.116,0,0,1,.116-.12l3.913,0c.185,0,.189.352.189.708s0,.716-.189.716h-2.558v.828H243.1c.176,0,.18.313.18.622s0,.627-.18.627h-2.116v1.013l2.554,0c.189,0,.193.356.193.717s0,.712-.189.712h-3.913a.123.123,0,0,1-.116-.124" transform="translate(-137.133 -88.504)"/>
            <path id="Trazado_906411" data-name="Trazado 906411" d="M256.322,126.84l-3.244-3.132v2.952c0,.18-.365.18-.733.18s-.734,0-.734-.176v-5.772c0-.129.1-.129.21-.129a.419.419,0,0,1,.271.056l3.235,3.2V121c0-.176.365-.176.734-.176s.738,0,.738.176v5.768c0,.133-.1.133-.206.133a.409.409,0,0,1-.27-.056" transform="translate(-144.059 -88.373)"/>
            <path id="Trazado_906412" data-name="Trazado 906412" d="M265.756,123.848a3.085,3.085,0,1,1,3.085,3.06,3.072,3.072,0,0,1-3.085-3.06m4.575,0a1.493,1.493,0,1,0-1.489,1.558,1.495,1.495,0,0,0,1.489-1.558" transform="translate(-152.158 -88.389)"/>
            <path id="Trazado_906413" data-name="Trazado 906413" d="M282.372,126.8v-5.677a.12.12,0,0,1,.116-.125h2.467a1.965,1.965,0,0,1,1,3.592l1.15,2.158a.177.177,0,0,1,.021.073c0,.155-.344.155-.683.155-.39,0-.781,0-.845-.129l-.97-1.935h-.785V126.8c0,.171-.369.176-.738.176s-.733,0-.733-.176m2.9-3.841a.533.533,0,0,0-.532-.536h-.893v1.073h.893a.533.533,0,0,0,.532-.536" transform="translate(-161.672 -88.504)"/>
            <path id="Trazado_906414" data-name="Trazado 906414" d="M167.564,298.968c1.04-5.2,2.109-10.493,4.6-15.18a4.88,4.88,0,0,1,1.31-1.719,1.88,1.88,0,0,1,2.043-.2,2.758,2.758,0,0,1,.957,2.127,46.08,46.08,0,0,1-.27,12.46,20.954,20.954,0,0,1,3.165,15.846" transform="translate(-95.939 -180.486)" fill="#e8614e"/>
            <path id="Trazado_906415" data-name="Trazado 906415" d="M167.564,298.968c1.04-5.2,2.109-10.493,4.6-15.18a4.88,4.88,0,0,1,1.31-1.719,1.88,1.88,0,0,1,2.043-.2,2.758,2.758,0,0,1,.957,2.127,46.08,46.08,0,0,1-.27,12.46,20.954,20.954,0,0,1,3.165,15.846" transform="translate(-95.939 -180.486)" fill="none" stroke="#2e2854" stroke-linecap="round" stroke-linejoin="round" stroke-width="1.5"/>
          </g>
        </g>
        <g id="Grupo_1114281" data-name="Grupo 1114281">
          <g id="Grupo_1114280" data-name="Grupo 1114280" clip-path="url(#clip-path)">
            <g id="Grupo_1114276" data-name="Grupo 1114276" transform="translate(27.722 15.431)" opacity="0.15" style="mix-blend-mode: multiply;isolation: isolate">
              <g id="Grupo_1114275" data-name="Grupo 1114275">
                <g id="Grupo_1114274" data-name="Grupo 1114274" clip-path="url(#clip-path-16)">
                  <path id="Trazado_906417" data-name="Trazado 906417" d="M104.315,76.551q-16.067,1.161-32.189,1.167A6.4,6.4,0,0,1,65.759,71.8a277.645,277.645,0,0,1-.8-29.454,6.392,6.392,0,0,1,6.356-6.213c10.647-.051,21.35-.068,32.405.125a6.392,6.392,0,0,1,6.263,6.1c.441,9.229.607,18.512.257,28.04a6.4,6.4,0,0,1-5.921,6.154" transform="translate(-64.854 -36.101)" fill="#2e2854"/>
                </g>
              </g>
            </g>
            <path id="Trazado_906418" data-name="Trazado 906418" d="M97.77,70.089Q81.7,71.25,65.581,71.256a6.4,6.4,0,0,1-6.367-5.914,277.76,277.76,0,0,1-.8-29.454,6.393,6.393,0,0,1,6.357-6.213c10.647-.051,21.35-.068,32.405.125a6.392,6.392,0,0,1,6.263,6.1c.44,9.229.607,18.512.257,28.04a6.4,6.4,0,0,1-5.921,6.154" transform="translate(-33.385 -16.97)" fill="#fff"/>
            <path id="Trazado_906419" data-name="Trazado 906419" d="M97.77,70.089Q81.7,71.25,65.581,71.256a6.4,6.4,0,0,1-6.367-5.914,277.76,277.76,0,0,1-.8-29.454,6.393,6.393,0,0,1,6.357-6.213c10.647-.051,21.35-.068,32.405.125a6.392,6.392,0,0,1,6.263,6.1c.44,9.229.607,18.512.257,28.04A6.4,6.4,0,0,1,97.77,70.089Z" transform="translate(-33.385 -16.97)" fill="none" stroke="#2e2854" stroke-linecap="round" stroke-linejoin="round" stroke-width="1.5"/>
            <path id="Trazado_906420" data-name="Trazado 906420" d="M79.419,49.462a9.608,9.608,0,1,0,9.608,9.608,9.608,9.608,0,0,0-9.608-9.608m0,15.912a6.3,6.3,0,1,1,6.3-6.3,6.3,6.3,0,0,1-6.3,6.3" transform="translate(-39.97 -28.319)" fill="#49ad9f"/>
            <path id="Trazado_906421" data-name="Trazado 906421" d="M109.306,67.815a9.367,9.367,0,0,0-.868-5.865l-2.96,1.462a6.144,6.144,0,0,1,.574,3.847Z" transform="translate(-60.391 -35.469)" fill="#2e2854"/>
            <path id="Trazado_906422" data-name="Trazado 906422" d="M73.115,68.7a6.289,6.289,0,0,1,.209-1.587l-3.195-.832a9.575,9.575,0,0,0,9.289,12.027V75a6.3,6.3,0,0,1-6.3-6.3" transform="translate(-39.97 -37.95)" fill="#2e2854"/>
            <rect id="Rectángulo_406385" data-name="Rectángulo 406385" width="13.34" height="2.488" transform="translate(52.239 36.24)" fill="#2e2854"/>
            <line id="Línea_1940" data-name="Línea 1940" x2="10.77" transform="translate(42.639 37.484)" fill="none" stroke="#2e2854" stroke-linecap="round" stroke-linejoin="round" stroke-width="1.5"/>
            <path id="Trazado_906423" data-name="Trazado 906423" d="M99.577,87a.513.513,0,1,0-.513.513A.514.514,0,0,0,99.577,87Z" transform="translate(-56.425 -49.52)" fill="none" stroke="#2e2854" stroke-linecap="round" stroke-linejoin="round" stroke-width="1.5"/>
            <rect id="Rectángulo_406386" data-name="Rectángulo 406386" width="13.34" height="2.488" transform="translate(52.239 29.143)" fill="#2e2854"/>
            <line id="Línea_1941" data-name="Línea 1941" x2="5.802" transform="translate(47.607 30.387)" fill="none" stroke="#2e2854" stroke-linecap="round" stroke-linejoin="round" stroke-width="1.5"/>
            <path id="Trazado_906424" data-name="Trazado 906424" d="M111.2,70.4a.513.513,0,1,0-.513.513A.514.514,0,0,0,111.2,70.4Z" transform="translate(-63.079 -40.014)" fill="none" stroke="#2e2854" stroke-linecap="round" stroke-linejoin="round" stroke-width="1.5"/>
            <rect id="Rectángulo_406387" data-name="Rectángulo 406387" width="13.34" height="2.488" transform="translate(52.239 22.046)" fill="#2e2854"/>
            <line id="Línea_1942" data-name="Línea 1942" x2="11.221" transform="translate(42.187 23.29)" fill="none" stroke="#2e2854" stroke-linecap="round" stroke-linejoin="round" stroke-width="1.5"/>
            <path id="Trazado_906425" data-name="Trazado 906425" d="M98.521,53.8a.513.513,0,1,0-.513.513A.514.514,0,0,0,98.521,53.8Z" transform="translate(-55.82 -30.508)" fill="none" stroke="#2e2854" stroke-linecap="round" stroke-linejoin="round" stroke-width="1.5"/>
            <rect id="Rectángulo_406388" data-name="Rectángulo 406388" width="12.306" height="2.677" transform="translate(30.846 45.103)" fill="#d24d84"/>
            <rect id="Rectángulo_406389" data-name="Rectángulo 406389" width="19.493" height="2.677" transform="translate(46.086 45.103)" fill="#d24d84"/>
            <g id="Grupo_1114279" data-name="Grupo 1114279" transform="translate(23.282 82.634)" opacity="0.15" style="mix-blend-mode: multiply;isolation: isolate">
              <g id="Grupo_1114278" data-name="Grupo 1114278">
                <g id="Grupo_1114277" data-name="Grupo 1114277" clip-path="url(#clip-path-17)">
                  <path id="Trazado_906426" data-name="Trazado 906426" d="M93.928,233.767q-16.067,1.161-32.189,1.167a6.4,6.4,0,0,1-6.367-5.914,277.65,277.65,0,0,1-.8-29.455,6.393,6.393,0,0,1,6.356-6.213c10.647-.051,21.35-.068,32.405.125a6.392,6.392,0,0,1,6.263,6.1c.441,9.228.607,18.511.257,28.04a6.4,6.4,0,0,1-5.921,6.154" transform="translate(-54.467 -193.318)" fill="#2e2854"/>
                </g>
              </g>
            </g>
            <path id="Trazado_906427" data-name="Trazado 906427" d="M87.107,229.746q-16.067,1.161-32.189,1.167A6.4,6.4,0,0,1,48.551,225a277.764,277.764,0,0,1-.8-29.455,6.393,6.393,0,0,1,6.357-6.213c10.647-.051,21.35-.068,32.405.125a6.392,6.392,0,0,1,6.263,6.1c.441,9.229.607,18.512.257,28.04a6.4,6.4,0,0,1-5.921,6.154" transform="translate(-27.28 -108.382)" fill="#fff"/>
            <path id="Trazado_906428" data-name="Trazado 906428" d="M87.107,229.746q-16.067,1.161-32.189,1.167A6.4,6.4,0,0,1,48.551,225a277.764,277.764,0,0,1-.8-29.455,6.393,6.393,0,0,1,6.357-6.213c10.647-.051,21.35-.068,32.405.125a6.392,6.392,0,0,1,6.263,6.1c.441,9.229.607,18.512.257,28.04A6.4,6.4,0,0,1,87.107,229.746Z" transform="translate(-27.28 -108.382)" fill="none" stroke="#2e2854" stroke-linecap="round" stroke-linejoin="round" stroke-width="1.5"/>
            <path id="Trazado_906429" data-name="Trazado 906429" d="M71.967,205.878a6.227,6.227,0,1,0,1.706,7.446,6.259,6.259,0,0,0-1.706-7.446" transform="translate(-35.389 -117.091)" fill="#2e2854"/>
            <path id="Trazado_906430" data-name="Trazado 906430" d="M75.736,212.348a1.816,1.816,0,1,0-1.817,1.817,1.817,1.817,0,0,0,1.817-1.817" transform="translate(-41.283 -120.539)" fill="#f7a145"/>
            <path id="Trazado_906431" data-name="Trazado 906431" d="M70.292,221.631a4.859,4.859,0,0,0-4.525,3.1,6.313,6.313,0,0,0,3.873,1.97,6.409,6.409,0,0,0,5.183-1.954,4.858,4.858,0,0,0-4.531-3.111" transform="translate(-37.655 -126.895)" fill="#f7a145"/>
            <rect id="Rectángulo_406391" data-name="Rectángulo 406391" width="17.409" height="2.674" transform="translate(42.355 88.405)" fill="#d24d84"/>
            <rect id="Rectángulo_406392" data-name="Rectángulo 406392" width="32.516" height="2.674" transform="translate(27.248 104.752)" fill="#d24d84"/>
            <rect id="Rectángulo_406393" data-name="Rectángulo 406393" width="19.628" height="2.674" transform="translate(27.248 109.881)" fill="#d24d84"/>
            <rect id="Rectángulo_406394" data-name="Rectángulo 406394" width="9.122" height="2.674" transform="translate(27.248 115.011)" fill="#d24d84"/>
            <rect id="Rectángulo_406395" data-name="Rectángulo 406395" width="10.147" height="2.674" transform="translate(49.617 109.881)" fill="#d24d84"/>
            <line id="Línea_1943" data-name="Línea 1943" x2="17.071" transform="translate(42.693 94.736)" fill="none" stroke="#2e2854" stroke-linecap="round" stroke-linejoin="round" stroke-width="1.5"/>
            <line id="Línea_1944" data-name="Línea 1944" x2="8.366" transform="translate(42.693 97.512)" fill="none" stroke="#2e2854" stroke-linecap="round" stroke-linejoin="round" stroke-width="1.5"/>
            <path id="Trazado_906432" data-name="Trazado 906432" d="M192.586,14.305a1.6,1.6,0,0,0-2.087,2.416,1.659,1.659,0,0,0,2.181.069,1.59,1.59,0,0,0-.094-2.485" transform="translate(-108.811 -8.019)" fill="#f5decf"/>
            <path id="Trazado_906433" data-name="Trazado 906433" d="M442.428,48.178a1.6,1.6,0,1,0,.095,2.485,1.591,1.591,0,0,0-.095-2.485" transform="translate(-251.858 -27.413)" fill="#f5decf"/>
            <path id="Trazado_906434" data-name="Trazado 906434" d="M502.871,102.12a1.6,1.6,0,1,0,.095,2.485,1.591,1.591,0,0,0-.095-2.485" transform="translate(-286.465 -58.297)" fill="#f5decf"/>
            <path id="Trazado_906435" data-name="Trazado 906435" d="M488.386,393.521a1.6,1.6,0,1,0,.095,2.485,1.591,1.591,0,0,0-.095-2.485" transform="translate(-278.171 -225.139)" fill="#f5decf"/>
            <path id="Trazado_906436" data-name="Trazado 906436" d="M6.773,102.12a1.659,1.659,0,0,0-2.17.234,1.659,1.659,0,0,0,.083,2.182,1.658,1.658,0,0,0,2.181.069,1.591,1.591,0,0,0-.094-2.485" transform="translate(-2.424 -58.297)" fill="#f5decf"/>
            <path id="Trazado_906437" data-name="Trazado 906437" d="M356.965,72.274a1.6,1.6,0,1,0,.094,2.485,1.591,1.591,0,0,0-.094-2.485" transform="translate(-202.926 -41.209)" fill="#fff"/>
            <path id="Trazado_906438" data-name="Trazado 906438" d="M294.391,346.519a1.6,1.6,0,1,0,.094,2.485,1.59,1.59,0,0,0-.094-2.485" transform="translate(-167.1 -198.228)" fill="#fff"/>
            <path id="Trazado_906439" data-name="Trazado 906439" d="M53.278,302.318a1.6,1.6,0,1,0,.094,2.485,1.59,1.59,0,0,0-.094-2.485" transform="translate(-29.051 -172.92)" fill="#fff"/>
            <path id="Trazado_906440" data-name="Trazado 906440" d="M444.834,342.084a2.331,2.331,0,1,0,1.124,3.33,2.344,2.344,0,0,0-1.124-3.33" transform="translate(-252.857 -195.769)" fill="#fff"/>
            <path id="Trazado_906441" data-name="Trazado 906441" d="M260.034,366.754a2.967,2.967,0,0,0-3.423,1.015,2.487,2.487,0,1,0,4.063,2.869c.8-1.065,1.024-3.248-.64-3.884" transform="translate(-146.678 -209.878)" fill="#fff"/>
            <path id="Trazado_906442" data-name="Trazado 906442" d="M86.916,415.269a2.967,2.967,0,0,0-3.423,1.015,2.487,2.487,0,1,0,4.063,2.869c.8-1.065,1.024-3.248-.64-3.884" transform="translate(-47.56 -237.656)" fill="#f5decf"/>
            <path id="Trazado_906443" data-name="Trazado 906443" d="M423.9,56.173a2.966,2.966,0,0,0-3.423,1.015,2.487,2.487,0,1,0,4.063,2.869c.8-1.065,1.024-3.248-.64-3.884" transform="translate(-240.5 -32.056)" fill="#f5decf"/>
            <circle id="Elipse_12806" data-name="Elipse 12806" cx="1.16" cy="1.16" r="1.16" transform="translate(48.456 162.187)" fill="none" stroke="#2e2854" stroke-linecap="round" stroke-linejoin="round" stroke-width="1.5"/>
            <circle id="Elipse_12807" data-name="Elipse 12807" cx="1.16" cy="1.16" r="1.16" transform="translate(15.329 72.889) rotate(-15.804)" fill="none" stroke="#2e2854" stroke-linecap="round" stroke-linejoin="round" stroke-width="1.5"/>
            <circle id="Elipse_12808" data-name="Elipse 12808" cx="1.16" cy="1.16" r="1.16" transform="translate(7.534 169.699)" fill="none" stroke="#2e2854" stroke-linecap="round" stroke-linejoin="round" stroke-width="1.5"/>
            <circle id="Elipse_12809" data-name="Elipse 12809" cx="1.16" cy="1.16" r="1.16" transform="translate(13.009 19.665) rotate(-15.804)" fill="none" stroke="#2e2854" stroke-linecap="round" stroke-linejoin="round" stroke-width="1.5"/>
            <circle id="Elipse_12810" data-name="Elipse 12810" cx="1.16" cy="1.16" r="1.16" transform="matrix(0.997, -0.071, 0.071, 0.997, 219.471, 146.221)" fill="none" stroke="#2e2854" stroke-linecap="round" stroke-linejoin="round" stroke-width="1.5"/>
            <circle id="Elipse_12811" data-name="Elipse 12811" cx="1.16" cy="1.16" r="1.16" transform="matrix(1, -0.022, 0.022, 1, 170.691, 183.883)" fill="none" stroke="#2e2854" stroke-linecap="round" stroke-linejoin="round" stroke-width="1.5"/>
            <circle id="Elipse_12812" data-name="Elipse 12812" cx="1.16" cy="1.16" r="1.16" transform="matrix(0.987, -0.16, 0.16, 0.987, 155.89, 8.187)" fill="none" stroke="#2e2854" stroke-linecap="round" stroke-linejoin="round" stroke-width="1.5"/>
          </g>
        </g>
      </g>
    </g>
  </g>
</svg>
