<svg xmlns="http://www.w3.org/2000/svg" xmlns:xlink="http://www.w3.org/1999/xlink" width="108.914" height="108.914" viewBox="0 0 108.914 108.914">
  <defs>
    <filter id="Trazado_874925" x="0" y="0" width="108.914" height="108.914" filterUnits="userSpaceOnUse">
      <feOffset dy="3" input="SourceAlpha"/>
      <feGaussianBlur stdDeviation="3" result="blur"/>
      <feFlood flood-opacity="0.161"/>
      <feComposite operator="in" in2="blur"/>
      <feComposite in="SourceGraphic"/>
    </filter>
  </defs>
  <g id="Grupo_1114799" data-name="Grupo 1114799" transform="translate(-326.051 -15054.367)">
    <g id="Grupo_1112933" data-name="Grupo 1112933" transform="translate(-473.449 13108.156)">
      <g id="Grupo_1109835" data-name="Grupo 1109835">
        <g id="Grupo_1107913" data-name="Grupo 1107913" transform="translate(808.5 1952.211)">
          <g transform="matrix(1, 0, 0, 1, -9, -6)" filter="url(#Trazado_874925)">
            <g id="Trazado_874925-2" data-name="Trazado 874925" transform="translate(9 6)" fill="#fd9826" opacity="0.859">
              <path d="M 45.45676803588867 89.41407012939453 C 39.52198028564453 89.41407012939453 33.76551818847656 88.25206756591797 28.34726715087891 85.96034240722656 C 23.11311721801758 83.74648284912109 18.41204261779785 80.57682800292969 14.37464332580566 76.5394287109375 C 10.33724308013916 72.50202941894531 7.167593002319336 67.80095672607422 4.953730583190918 62.56679534912109 C 2.662005424499512 57.14855575561523 1.500005483627319 51.39208221435547 1.500005483627319 45.45729446411133 C 1.500005483627319 39.52198028564453 2.662005424499512 33.76551818847656 4.953730583190918 28.34726905822754 C 7.167593002319336 23.11310577392578 10.33724308013916 18.41203117370605 14.37464332580566 14.37464332580566 C 18.41204261779785 10.33724403381348 23.11311721801758 7.167593955993652 28.34726715087891 4.953731060028076 C 33.76551818847656 2.662006139755249 39.52198028564453 1.500006198883057 45.45676803588867 1.500006198883057 C 51.39155578613281 1.500006198883057 57.14802932739258 2.662006139755249 62.56626892089844 4.953731060028076 C 67.80043029785156 7.167593955993652 72.50150299072266 10.33724403381348 76.53890228271484 14.37464332580566 C 80.57630920410156 18.41203117370605 83.74595642089844 23.11310577392578 85.95981597900391 28.34726905822754 C 88.25154113769531 33.76551818847656 89.41354370117188 39.52198028564453 89.41354370117188 45.45676803588867 C 89.41354370117188 51.39208221435547 88.25154113769531 57.14855575561523 85.95981597900391 62.56679534912109 C 83.74595642089844 67.80095672607422 80.57630920410156 72.50202941894531 76.53890228271484 76.5394287109375 C 72.50150299072266 80.57682800292969 67.80043029785156 83.74648284912109 62.56626892089844 85.96034240722656 C 57.14802932739258 88.25206756591797 51.39155578613281 89.41407012939453 45.45676803588867 89.41407012939453 Z" stroke="none"/>
              <path d="M 45.45676803588867 3 C 39.72381210327148 3 34.1639404296875 4.12213134765625 28.93159484863281 6.335227966308594 C 23.87622833251953 8.473472595214844 19.33542633056641 11.53517150878906 15.43529510498047 15.435302734375 C 11.53517150878906 19.33543395996094 8.473464965820312 23.87622833251953 6.335227966308594 28.93160247802734 C 4.122123718261719 34.16394424438477 3 39.72381591796875 3 45.4572868347168 C 3 51.19024658203125 4.122123718261719 56.75011825561523 6.335227966308594 61.98246002197266 C 8.473464965820312 67.03782653808594 11.53517150878906 71.57862854003906 15.43529510498047 75.478759765625 C 19.33542633056641 79.37889099121094 23.87622833251953 82.44058990478516 28.93159484863281 84.57883453369141 C 34.1639404296875 86.79193115234375 39.72381210327148 87.9140625 45.45676803588867 87.9140625 C 51.18972396850586 87.9140625 56.74959564208984 86.79193115234375 61.98194122314453 84.57883453369141 C 67.03730773925781 82.44058990478516 71.57810974121094 79.37889099121094 75.47824096679688 75.478759765625 C 79.37837219238281 71.57862854003906 82.44007110595703 67.03782653808594 84.57830810546875 61.98246002197266 C 86.79141235351562 56.75011825561523 87.91353607177734 51.19024658203125 87.91353607177734 45.4567756652832 C 87.91353607177734 39.72381591796875 86.79141235351562 34.16394424438477 84.57830810546875 28.93160247802734 C 82.44007110595703 23.87622833251953 79.37837219238281 19.33543395996094 75.47824096679688 15.435302734375 C 71.57810974121094 11.53517150878906 67.03730773925781 8.473472595214844 61.98194122314453 6.335227966308594 C 56.74959564208984 4.12213134765625 51.18972396850586 3 45.45676803588867 3 M 45.45676803588867 0 C 70.56185150146484 0 90.91353607177734 20.35169219970703 90.91353607177734 45.4567756652832 L 90.91353607177734 45.4572868347168 C 90.91353607177734 70.5623779296875 70.56185150146484 90.9140625 45.45676803588867 90.9140625 C 20.3516845703125 90.9140625 0 70.5623779296875 0 45.4572868347168 L 0 45.4567756652832 C 0 20.35169219970703 20.3516845703125 0 45.45676803588867 0 Z" stroke="none" fill="#fff"/>
            </g>
          </g>
          <g id="Trazado_874923" data-name="Trazado 874923" transform="translate(0 0)" fill="none">
            <path d="M45.457,0A45.457,45.457,0,0,1,90.914,45.457h0A45.457,45.457,0,0,1,0,45.457H0A45.457,45.457,0,0,1,45.457,0Z" stroke="none"/>
            <path d="M 45.45676803588867 3 C 39.72381210327148 3 34.1639404296875 4.12213134765625 28.93159484863281 6.335227966308594 C 23.87622833251953 8.473472595214844 19.33542633056641 11.53517150878906 15.43529510498047 15.435302734375 C 11.53517150878906 19.33543395996094 8.473464965820312 23.87622833251953 6.335227966308594 28.93160247802734 C 4.122123718261719 34.16394424438477 3 39.72381591796875 3 45.4572868347168 C 3 51.19024658203125 4.122123718261719 56.75011825561523 6.335227966308594 61.98246002197266 C 8.473464965820312 67.03782653808594 11.53517150878906 71.57862854003906 15.43529510498047 75.478759765625 C 19.33542633056641 79.37889099121094 23.87622833251953 82.44058990478516 28.93159484863281 84.57883453369141 C 34.1639404296875 86.79193115234375 39.72381210327148 87.9140625 45.45676803588867 87.9140625 C 51.18972396850586 87.9140625 56.74959564208984 86.79193115234375 61.98194122314453 84.57883453369141 C 67.03730773925781 82.44058990478516 71.57810974121094 79.37889099121094 75.47824096679688 75.478759765625 C 79.37837219238281 71.57862854003906 82.44007110595703 67.03782653808594 84.57830810546875 61.98246002197266 C 86.79141235351562 56.75011825561523 87.91353607177734 51.19024658203125 87.91353607177734 45.4567756652832 C 87.91353607177734 39.72381591796875 86.79141235351562 34.16394424438477 84.57830810546875 28.93160247802734 C 82.44007110595703 23.87622833251953 79.37837219238281 19.33543395996094 75.47824096679688 15.435302734375 C 71.57810974121094 11.53517150878906 67.03730773925781 8.473472595214844 61.98194122314453 6.335227966308594 C 56.74959564208984 4.12213134765625 51.18972396850586 3 45.45676803588867 3 M 45.45676803588867 0 C 70.56185150146484 0 90.91353607177734 20.35169219970703 90.91353607177734 45.4567756652832 L 90.91353607177734 45.4572868347168 C 90.91353607177734 70.5623779296875 70.56185150146484 90.9140625 45.45676803588867 90.9140625 C 20.3516845703125 90.9140625 0 70.5623779296875 0 45.4572868347168 L 0 45.4567756652832 C 0 20.35169219970703 20.3516845703125 0 45.45676803588867 0 Z" stroke="none" fill="#fff"/>
          </g>
        </g>
      </g>
    </g>
    <g id="Grupo_1114798" data-name="Grupo 1114798" transform="translate(353.563 15079.338)">
      <g id="Grupo_1114797" data-name="Grupo 1114797" transform="translate(1.811 1.793)">
        <g id="Grupo_1114792" data-name="Grupo 1114792" transform="translate(0 7.189)">
          <path id="Trazado_907873" data-name="Trazado 907873" d="M151.857,428.91l-17.134.22-3.807,6.532a.4.4,0,0,0,.346.6h24.184a.4.4,0,0,0,.346-.6Z" transform="translate(-118.692 -394.12)" fill="#004960" fill-rule="evenodd"/>
          <path id="Trazado_907874" data-name="Trazado 907874" d="M55.9,80.908a2.583,2.583,0,0,1,2.575,2.575v30a2.583,2.583,0,0,1-2.575,2.575H11.73a2.583,2.583,0,0,1-2.575-2.575v-30a2.582,2.582,0,0,1,2.575-2.575Z" transform="translate(-9.155 -80.908)" fill="#e6f8ff" fill-rule="evenodd"/>
          <path id="Trazado_907875" data-name="Trazado 907875" d="M58.478,399.355H9.155v1.737a2.582,2.582,0,0,0,2.575,2.575H55.9a2.582,2.582,0,0,0,2.575-2.575Z" transform="translate(-9.155 -367.52)" fill="#003748" fill-rule="evenodd"/>
        </g>
        <g id="Grupo_1114793" data-name="Grupo 1114793" transform="translate(3.191)">
          <path id="Trazado_907876" data-name="Trazado 907876" d="M44.091,9H59.239c.906,0-7.135,2.043-7.135,3.014v1.329H41.077V12.014A3.023,3.023,0,0,1,44.091,9Z" transform="translate(-41.077 -9)" fill="#e2e3e3" fill-rule="evenodd"/>
          <path id="Trazado_907877" data-name="Trazado 907877" d="M102.113,9a3.023,3.023,0,0,1,3.014,3.014v36.05H74.243V12.014A3.023,3.023,0,0,0,71.229,9Z" transform="translate(-68.215 -9)" fill="#eff4f7" fill-rule="evenodd"/>
        </g>
        <g id="Grupo_1114794" data-name="Grupo 1114794" transform="translate(12.755 4.24)">
          <path id="Trazado_907878" data-name="Trazado 907878" d="M160.153,51.413H137.139a.4.4,0,0,0-.4.4V72.879a.4.4,0,0,0,.4.4h23.014a.4.4,0,0,0,.4-.4V51.813a.4.4,0,0,0-.4-.4Z" transform="translate(-136.739 -51.413)" fill="#72d561" fill-rule="evenodd"/>
        </g>
        <g id="Grupo_1114796" data-name="Grupo 1114796" transform="translate(29.143 24.408)">
          <path id="Trazado_907879" data-name="Trazado 907879" d="M302.3,253.148h16.97a1.625,1.625,0,0,1,1.621,1.621v21.736a1.625,1.625,0,0,1-1.621,1.621H302.3a1.625,1.625,0,0,1-1.621-1.621V254.769A1.625,1.625,0,0,1,302.3,253.148Z" transform="translate(-300.675 -253.148)" fill="#465759" fill-rule="evenodd"/>
          <path id="Trazado_907880" data-name="Trazado 907880" d="M329.6,281.757h13.864a.314.314,0,0,1,.314.314v3.043a.314.314,0,0,1-.314.314H329.6a.314.314,0,0,1-.314-.314v-3.043A.314.314,0,0,1,329.6,281.757Z" transform="translate(-326.423 -278.897)" fill="#e6f8ff" fill-rule="evenodd"/>
          <g id="Grupo_1114795" data-name="Grupo 1114795" transform="translate(2.86 8.723)">
            <path id="Trazado_907881" data-name="Trazado 907881" d="M329.6,446.64h2.614a.314.314,0,0,0,.314-.314v-2.614a.314.314,0,0,0-.314-.314H329.6a.314.314,0,0,0-.314.314v2.614A.314.314,0,0,0,329.6,446.64Z" transform="translate(-329.283 -433.102)" fill="#ffda2d" fill-rule="evenodd"/>
            <path id="Trazado_907882" data-name="Trazado 907882" d="M385.862,446.64h2.614a.314.314,0,0,0,.314-.314v-2.614a.314.314,0,0,0-.314-.314h-2.614a.314.314,0,0,0-.314.314v2.614A.314.314,0,0,0,385.862,446.64Z" transform="translate(-379.923 -433.102)" fill="#ffda2d" fill-rule="evenodd"/>
            <path id="Trazado_907883" data-name="Trazado 907883" d="M329.6,395.142h2.614a.314.314,0,0,0,.314-.314v-2.614a.314.314,0,0,0-.314-.314H329.6a.314.314,0,0,0-.314.314v2.614A.314.314,0,0,0,329.6,395.142Z" transform="translate(-329.283 -386.752)" fill="#ffda2d" fill-rule="evenodd"/>
            <path id="Trazado_907884" data-name="Trazado 907884" d="M385.862,395.142h2.614a.314.314,0,0,0,.314-.314v-2.614a.314.314,0,0,0-.314-.314h-2.614a.314.314,0,0,0-.314.314v2.614A.314.314,0,0,0,385.862,395.142Z" transform="translate(-379.923 -386.752)" fill="#ffda2d" fill-rule="evenodd"/>
            <path id="Trazado_907885" data-name="Trazado 907885" d="M329.6,343.645h2.614a.314.314,0,0,0,.314-.314v-2.614a.314.314,0,0,0-.314-.314H329.6a.314.314,0,0,0-.314.314v2.614A.314.314,0,0,0,329.6,343.645Z" transform="translate(-329.283 -340.403)" fill="#ffda2d" fill-rule="evenodd"/>
            <path id="Trazado_907886" data-name="Trazado 907886" d="M385.862,343.645h2.614a.314.314,0,0,0,.314-.314v-2.614a.314.314,0,0,0-.314-.314h-2.614a.314.314,0,0,0-.314.314v2.614A.314.314,0,0,0,385.862,343.645Z" transform="translate(-379.923 -340.403)" fill="#ffda2d" fill-rule="evenodd"/>
            <path id="Trazado_907887" data-name="Trazado 907887" d="M442.126,343.645h2.614a.314.314,0,0,0,.314-.314v-2.614a.314.314,0,0,0-.314-.314h-2.614a.314.314,0,0,0-.314.314v2.614A.314.314,0,0,0,442.126,343.645Z" transform="translate(-430.562 -340.403)" fill="#ffda2d" fill-rule="evenodd"/>
          </g>
          <path id="Trazado_907888" data-name="Trazado 907888" d="M442.126,400.29h2.614a.314.314,0,0,0,.314-.314v-7.763a.314.314,0,0,0-.314-.314h-2.614a.314.314,0,0,0-.314.314v7.763A.314.314,0,0,0,442.126,400.29Z" transform="translate(-427.702 -378.029)" fill="#72d561" fill-rule="evenodd"/>
        </g>
      </g>
      <path id="Trazado_907889" data-name="Trazado 907889" d="M47.52,37.364H45.877V35.721H47.52Zm.8-3.242H45.078a.8.8,0,0,0-.8.8v3.243a.8.8,0,0,0,.8.8H48.32a.8.8,0,0,0,.8-.8V34.922A.8.8,0,0,0,48.32,34.122ZM41.9,37.364H40.254V35.721H41.9Zm.8-3.242H39.456a.8.8,0,0,0-.8.8v3.243a.8.8,0,0,0,.8.8h3.239a.8.8,0,0,0,.8-.8V34.922A.8.8,0,0,0,42.695,34.122Zm-6.421,3.242H34.63V35.721h1.643Zm.8-3.242H33.83a.8.8,0,0,0-.8.8v3.243a.8.8,0,0,0,.8.8h3.242a.8.8,0,0,0,.8-.8V34.922A.8.8,0,0,0,37.072,34.122ZM41.9,42.514H40.254V40.87H41.9Zm.8-3.242H39.456a.8.8,0,0,0-.8.8v3.242a.8.8,0,0,0,.8.8h3.239a.8.8,0,0,0,.8-.8V40.071A.8.8,0,0,0,42.695,39.272Zm-6.421,3.242H34.63V40.87h1.643Zm.8-3.242H33.83a.8.8,0,0,0-.8.8v3.242a.8.8,0,0,0,.8.8h3.242a.8.8,0,0,0,.8-.8V40.071A.8.8,0,0,0,37.072,39.272ZM47.52,47.662H45.877V40.87H47.52Zm.8-8.391H45.078a.8.8,0,0,0-.8.8v8.392a.8.8,0,0,0,.8.8H48.32a.8.8,0,0,0,.8-.8V40.071A.8.8,0,0,0,48.32,39.272ZM41.9,47.662H40.254V46.019H41.9Zm.8-3.241H39.456a.8.8,0,0,0-.8.8v3.242a.8.8,0,0,0,.8.8h3.239a.8.8,0,0,0,.8-.8V45.22A.8.8,0,0,0,42.695,44.421Zm-6.421,3.241H34.63V46.019h1.643Zm.8-3.241H33.83a.8.8,0,0,0-.8.8v3.242a.8.8,0,0,0,.8.8h3.242a.8.8,0,0,0,.8-.8V45.22A.8.8,0,0,0,37.072,44.421ZM47.52,31.932H34.63V29.86H47.52Zm.8-3.67H33.83a.8.8,0,0,0-.8.8v3.67a.8.8,0,0,0,.8.8H48.32a.8.8,0,0,0,.8-.8v-3.67A.8.8,0,0,0,48.32,28.262ZM13.954,32.621a.8.8,0,0,1,.8-.8h1.76a.8.8,0,1,1,0,1.6h-1.76A.8.8,0,0,1,13.954,32.621Zm0,3.514a.8.8,0,0,1,.8-.8h1.76a.8.8,0,1,1,0,1.6h-1.76A.8.8,0,0,1,13.954,36.135ZM50.384,49.559V27.82A.834.834,0,0,0,49.56,27H32.59a.833.833,0,0,0-.822.822V49.559a.833.833,0,0,0,.822.822H49.561A.834.834,0,0,0,50.384,49.559ZM17.641,45.974H30.169v3.585a2.415,2.415,0,0,0,.144.822H15.073ZM2.593,42.6v-.941H30.169v2.72H4.373A1.782,1.782,0,0,1,2.593,42.6ZM4.373,9.781h5.875V40.057H2.593V11.56A1.782,1.782,0,0,1,4.373,9.781ZM5.816,4.807a2.216,2.216,0,1,1,4.432,0v.53H5.816Zm15.5,19.907h6.121V27.1H21.314Zm-5.934,0h4.336V27.1H15.38Zm0-3.984h4.336v2.386H15.38Zm0-3.982h4.336v2.383H15.38Zm0-3.984h4.336V15.15H15.38Zm4.336-1.6H15.38V6.834h4.336Zm7.72,0H21.314V6.834h6.121Zm10.162,0H29.033V6.834H37.6ZM29.033,20.73H37.6v2.386H29.033Zm-1.6,0v2.386H21.314V20.73Zm0-3.982v2.383H21.314V16.748Zm0-1.6H21.314V12.765h6.121Zm10.162,0H29.033V12.765H37.6Zm0,3.982H29.033V16.748H37.6ZM30.278,27.1H29.033V24.714H37.6V25.4H32.59A2.427,2.427,0,0,0,30.278,27.1ZM41.13,4.807a2.219,2.219,0,0,0-2.215-2.216H11.133a3.8,3.8,0,0,1,.713,2.216v35.25H30.169V36.933H19.861a.8.8,0,1,1,0-1.6H30.169V33.419H19.861a.8.8,0,1,1,0-1.6H30.169V28.7H14.581a.8.8,0,0,1-.8-.8V6.034a.8.8,0,0,1,.8-.8H38.4a.8.8,0,0,1,.8.8V25.4H41.13ZM48.6,9.781a1.782,1.782,0,0,1,1.781,1.779V25.544a2.417,2.417,0,0,0-.823-.144H42.729V9.781Zm0-1.6H42.729V4.807A3.817,3.817,0,0,0,38.915.993H8.032A3.819,3.819,0,0,0,4.217,4.807v1.33a.8.8,0,0,0,.8.8h5.231V8.182H4.373A3.382,3.382,0,0,0,1,11.56V42.6a3.382,3.382,0,0,0,3.378,3.378H15.792l-2.448,4.2a1.182,1.182,0,0,0-.007,1.2,1.208,1.208,0,0,0,1.043.609H49.56a2.423,2.423,0,0,0,2.42-2.42v-38A3.382,3.382,0,0,0,48.6,8.182Z" fill-rule="evenodd"/>
    </g>
  </g>
</svg>
