<svg xmlns="http://www.w3.org/2000/svg" xmlns:xlink="http://www.w3.org/1999/xlink" width="400" height="376.339" viewBox="0 0 400 376.339">
  <defs>
    <clipPath id="clip-path">
      <rect id="Rectángulo_406603" data-name="Rectángulo 406603" width="400" height="376.339" rx="8" transform="translate(180 2716.661)" fill="#cdb9f8"/>
    </clipPath>
    <clipPath id="clip-path-2">
      <rect id="Rectángulo_406602" data-name="Rectángulo 406602" width="422.268" height="436.731" fill="none"/>
    </clipPath>
    <clipPath id="clip-path-4">
      <path id="Trazado_907088" data-name="Trazado 907088" d="M116.475,31.249,86.8,233.08H317.294L287.618,31.249Z" fill="none"/>
    </clipPath>
    <clipPath id="clip-path-5">
      <rect id="Rectángulo_406574" data-name="Rectángulo 406574" width="230.5" height="84.4" transform="translate(86.797 148.676)" fill="none"/>
    </clipPath>
    <clipPath id="clip-path-8">
      <path id="Trazado_907095" data-name="Trazado 907095" d="M137.027,49.206a1.9,1.9,0,0,0-1.861,2.27l.83,4.13,11.571,57.52a3.7,3.7,0,0,0,3.629,2.98H252.9a3.7,3.7,0,0,0,3.631-2.98l11.3-56.19,1.1-5.46a1.9,1.9,0,0,0-1.859-2.27Z" fill="none"/>
    </clipPath>
    <clipPath id="clip-path-9">
      <rect id="Rectángulo_406576" data-name="Rectángulo 406576" width="131.83" height="60.5" transform="translate(135.997 55.606)" fill="none"/>
    </clipPath>
    <clipPath id="clip-path-11">
      <path id="Trazado_907101" data-name="Trazado 907101" d="M135.467,63.947a1.913,1.913,0,0,0-1.9,2.269l1.06,5.15,11.63,56.32a3.773,3.773,0,0,0,3.721,2.96h104.14a3.769,3.769,0,0,0,3.719-2.96l11.591-56.13,1.1-5.34a1.91,1.91,0,0,0-1.9-2.269Z" fill="none"/>
    </clipPath>
    <clipPath id="clip-path-12">
      <rect id="Rectángulo_406578" data-name="Rectángulo 406578" width="134.8" height="59.28" transform="translate(134.627 71.366)" fill="none"/>
    </clipPath>
    <clipPath id="clip-path-14">
      <path id="Trazado_907115" data-name="Trazado 907115" d="M130.8,102.187a1.937,1.937,0,0,0-2.04,2.239l3.34,14.99,10.24,45.93a3.989,3.989,0,0,0,3.98,2.94h111.46a3.99,3.99,0,0,0,3.98-2.94l5.02-22.53,8.56-38.39a1.937,1.937,0,0,0-2.04-2.239Z" fill="none"/>
    </clipPath>
    <clipPath id="clip-path-15">
      <rect id="Rectángulo_406580" data-name="Rectángulo 406580" width="134.68" height="48.87" transform="translate(132.097 119.416)" fill="none"/>
    </clipPath>
    <clipPath id="clip-path-17">
      <path id="Trazado_907121" data-name="Trazado 907121" d="M278.137,169.626l-154.81,7.12c-1.42.061-2.44,1.18-2.11,2.311l.81,2.749,16.71,56.7a4.284,4.284,0,0,0,4.459,2.7l121.071-5.56a4.292,4.292,0,0,0,4.189-3.1l10.571-53.63,1.419-7.18c.224-1.117-.817-2.112-2.189-2.112l-.12,0" fill="none"/>
    </clipPath>
    <clipPath id="clip-path-18">
      <rect id="Rectángulo_406582" data-name="Rectángulo 406582" width="157" height="62.296" transform="translate(122.027 178.916)" fill="none"/>
    </clipPath>
    <clipPath id="clip-path-20">
      <path id="Trazado_907127" data-name="Trazado 907127" d="M122.226,187.9l1.461,7.451,10.45,53.27a4.384,4.384,0,0,0,4.26,3.119l123.47,6.45a4.364,4.364,0,0,0,4.56-2.66l15.14-49.26,3.04-9.88c.35-1.12-.69-2.24-2.14-2.32l-157.87-8.25c-.054,0-.108,0-.161,0-1.373,0-2.431.977-2.21,2.084" fill="none"/>
    </clipPath>
    <clipPath id="clip-path-21">
      <rect id="Rectángulo_406584" data-name="Rectángulo 406584" width="157.88" height="62.849" transform="translate(123.687 195.346)" fill="none"/>
    </clipPath>
    <clipPath id="clip-path-23">
      <path id="Trazado_907139" data-name="Trazado 907139" d="M72.117,240.842l39.56,112.191H292.416l39.561-112.191Z" fill="none"/>
    </clipPath>
    <clipPath id="clip-path-24">
      <rect id="Rectángulo_406587" data-name="Rectángulo 406587" width="259.86" height="112.191" transform="translate(72.117 240.842)" fill="none"/>
    </clipPath>
    <clipPath id="clip-path-28">
      <path id="Trazado_907162" data-name="Trazado 907162" d="M178.867,77.6l-.29,2.25-17.721-2.285a2,2,0,0,0-2.4,2l6.306,65.138,120.022,15.469,22.615-61.411a1.994,1.994,0,0,0-1.82-2.541L207.679,83.6l-.826-2.348a3.931,3.931,0,0,0-3.258-2.468L181.36,75.917a2.647,2.647,0,0,0-.33-.021,2.087,2.087,0,0,0-2.163,1.7" fill="none"/>
    </clipPath>
    <clipPath id="clip-path-29">
      <rect id="Rectángulo_406590" data-name="Rectángulo 406590" width="149.056" height="84.272" transform="translate(158.443 75.896)" fill="none"/>
    </clipPath>
    <clipPath id="clip-path-31">
      <path id="Trazado_907166" data-name="Trazado 907166" d="M156.416,82.856l6.151,63.5a4.152,4.152,0,0,0,3.74,3.51l115.659,14.9a4.146,4.146,0,0,0,4.51-2.44l1.581-4.28,20.469-55.589a2,2,0,0,0-1.82-2.541l-49.459-6.369-98.42-12.69a2.382,2.382,0,0,0-.313-.02,1.963,1.963,0,0,0-2.1,2.019" fill="none"/>
    </clipPath>
    <clipPath id="clip-path-32">
      <rect id="Rectángulo_406593" data-name="Rectángulo 406593" width="70.67" height="64.5" transform="translate(237.962 93.546)" fill="none"/>
    </clipPath>
    <clipPath id="clip-path-35">
      <rect id="Rectángulo_406594" data-name="Rectángulo 406594" width="117.083" height="108.268" transform="translate(238.504 68.048)" fill="none"/>
    </clipPath>
    <clipPath id="clip-path-36">
      <rect id="Rectángulo_406595" data-name="Rectángulo 406595" width="85.21" height="63.38" transform="translate(309.897 74.586)" fill="none"/>
    </clipPath>
    <clipPath id="clip-path-37">
      <rect id="Rectángulo_406596" data-name="Rectángulo 406596" width="0.03" height="0.01" transform="translate(395.107 137.966)" fill="none"/>
    </clipPath>
    <clipPath id="clip-path-39">
      <rect id="Rectángulo_406598" data-name="Rectángulo 406598" width="54.2" height="42.747" transform="translate(113.567 380.219)" fill="none"/>
    </clipPath>
    <clipPath id="clip-path-40">
      <rect id="Rectángulo_406599" data-name="Rectángulo 406599" width="167.74" height="107.684" transform="translate(45.437 291.812)" fill="none"/>
    </clipPath>
    <clipPath id="clip-path-41">
      <rect id="Rectángulo_406600" data-name="Rectángulo 406600" width="13.01" height="13.685" transform="translate(218.147 320.241)" fill="none"/>
    </clipPath>
  </defs>
  <g id="Enmascarar_grupo_1098756" data-name="Enmascarar grupo 1098756" transform="translate(-180 -2716.661)" clip-path="url(#clip-path)">
    <rect id="Rectángulo_405788" data-name="Rectángulo 405788" width="400" height="376.339" rx="8" transform="translate(180 2716.661)" fill="#cdb9f8"/>
    <g id="Grupo_1114654" data-name="Grupo 1114654" transform="translate(168.866 2705.195)">
      <g id="Grupo_1114653" data-name="Grupo 1114653" clip-path="url(#clip-path-2)">
        <path id="Trazado_907065" data-name="Trazado 907065" d="M67.991,148.26l8.7,25.441L34.967,187.969,24.643,157.777,66.367,143.51Z" fill="none" stroke="#263238" stroke-linecap="round" stroke-linejoin="round" stroke-width="1"/>
        <path id="Trazado_907066" data-name="Trazado 907066" d="M72.323,160.924,76.692,173.7,34.967,187.969l-2.141-6.26,8.41-12.741L54.925,174.3,64.7,157.813Z" fill="none" stroke="#263238" stroke-linecap="round" stroke-linejoin="round" stroke-width="1"/>
        <g id="Grupo_1114558" data-name="Grupo 1114558">
          <g id="Grupo_1114557" data-name="Grupo 1114557" clip-path="url(#clip-path-2)">
            <path id="Trazado_907067" data-name="Trazado 907067" d="M46.271,159.32a4.541,4.541,0,1,1-5.766-2.827A4.541,4.541,0,0,1,46.271,159.32Z" fill="none" stroke="#263238" stroke-linecap="round" stroke-linejoin="round" stroke-width="1"/>
            <path id="Trazado_907068" data-name="Trazado 907068" d="M316.612,357.069l-5.752,26.265L267.784,373.9l6.826-31.17,43.076,9.434Z" fill="none" stroke="#263238" stroke-linecap="round" stroke-linejoin="round" stroke-width="1"/>
            <line id="Línea_2051" data-name="Línea 2051" x2="29.593" y2="6.481" transform="translate(276.322 367.178)" fill="none" stroke="#263238" stroke-linecap="round" stroke-linejoin="round" stroke-width="1"/>
            <path id="Trazado_907069" data-name="Trazado 907069" d="M278.75,353.37s-3.011,13.75,12.354,17.115S309.481,360.1,309.481,360.1" fill="none" stroke="#263238" stroke-linecap="round" stroke-linejoin="round" stroke-width="1"/>
            <path id="Trazado_907070" data-name="Trazado 907070" d="M280.044,353.653a1.325,1.325,0,1,1-1.011-1.578,1.324,1.324,0,0,1,1.011,1.578" fill="#fff"/>
            <path id="Trazado_907071" data-name="Trazado 907071" d="M280.044,353.653a1.325,1.325,0,1,1-1.011-1.578A1.324,1.324,0,0,1,280.044,353.653Z" fill="none" stroke="#263238" stroke-linecap="round" stroke-linejoin="round" stroke-width="1"/>
            <path id="Trazado_907072" data-name="Trazado 907072" d="M310.775,360.383a1.325,1.325,0,1,1-1.011-1.578,1.325,1.325,0,0,1,1.011,1.578" fill="#fff"/>
            <path id="Trazado_907073" data-name="Trazado 907073" d="M310.775,360.383a1.325,1.325,0,1,1-1.011-1.578A1.325,1.325,0,0,1,310.775,360.383Z" fill="none" stroke="#263238" stroke-linecap="round" stroke-linejoin="round" stroke-width="1"/>
            <rect id="Rectángulo_406566" data-name="Rectángulo 406566" width="2.33" height="2.331" transform="translate(274.351 368.008) rotate(-77.634)" fill="#fff"/>
            <rect id="Rectángulo_406567" data-name="Rectángulo 406567" width="2.33" height="2.331" transform="translate(274.351 368.008) rotate(-77.634)" fill="none" stroke="#263238" stroke-linecap="round" stroke-linejoin="round" stroke-width="1"/>
            <rect id="Rectángulo_406568" data-name="Rectángulo 406568" width="2.33" height="2.331" transform="translate(289.717 371.372) rotate(-77.634)" fill="#fff"/>
            <rect id="Rectángulo_406569" data-name="Rectángulo 406569" width="2.33" height="2.331" transform="translate(289.717 371.372) rotate(-77.634)" fill="none" stroke="#263238" stroke-linecap="round" stroke-linejoin="round" stroke-width="1"/>
            <rect id="Rectángulo_406570" data-name="Rectángulo 406570" width="2.33" height="2.33" transform="matrix(0.214, -0.977, 0.977, 0.214, 305.082, 374.738)" fill="#fff"/>
            <rect id="Rectángulo_406571" data-name="Rectángulo 406571" width="2.33" height="2.33" transform="matrix(0.214, -0.977, 0.977, 0.214, 305.082, 374.738)" fill="none" stroke="#263238" stroke-linecap="round" stroke-linejoin="round" stroke-width="1"/>
            <path id="Trazado_907074" data-name="Trazado 907074" d="M117.3,71.339,106.411,95.924,66.09,78.069,79.01,48.894l40.321,17.854Z" fill="none" stroke="#263238" stroke-linecap="round" stroke-linejoin="round" stroke-width="1"/>
            <path id="Trazado_907075" data-name="Trazado 907075" d="M96.129,81.476c-.773,1.745-3.558,2.2-6.22,1.025s-4.195-3.549-3.422-5.295,3.558-2.2,6.22-1.025,4.195,3.55,3.422,5.295" fill="#263238"/>
            <path id="Trazado_907076" data-name="Trazado 907076" d="M98.167,62.268,87.409,77.616l-.921-.408,7.865-11.223L96.4,63.071a6.526,6.526,0,0,0,1.765-.8Z" fill="#263238"/>
            <path id="Trazado_907077" data-name="Trazado 907077" d="M98.161,62.272l-2.617,3.7a5.694,5.694,0,0,1-1.191.009,8.4,8.4,0,0,1-3.369-1.022,4.252,4.252,0,0,0-4.527.314c.128-.164,2.666-3.332,6.167-2.218a6.359,6.359,0,0,0,3.772.013,6.546,6.546,0,0,0,1.765-.8" fill="#263238"/>
            <path id="Trazado_907078" data-name="Trazado 907078" d="M386.074,270.678l-9.386,25.2-41.323-15.394,11.138-29.9,41.324,15.393Z" fill="none" stroke="#263238" stroke-linecap="round" stroke-linejoin="round" stroke-width="1"/>
            <path id="Trazado_907079" data-name="Trazado 907079" d="M358.271,265.142l-10.363,4.738,4.737,10.364" fill="none" stroke="#263238" stroke-linecap="round" stroke-linejoin="round" stroke-width="1"/>
            <path id="Trazado_907080" data-name="Trazado 907080" d="M363.778,284.39l10.364-4.738L369.4,269.288" fill="none" stroke="#263238" stroke-linecap="round" stroke-linejoin="round" stroke-width="1"/>
            <line id="Línea_2052" data-name="Línea 2052" x1="9.253" y2="13.791" transform="translate(356.398 267.87)" fill="none" stroke="#263238" stroke-linecap="round" stroke-linejoin="round" stroke-width="1"/>
            <path id="Trazado_907081" data-name="Trazado 907081" d="M344.847,36.54,335.637,61.8,294.208,46.7,305.137,16.72l41.43,15.1Z" fill="none" stroke="#263238" stroke-linecap="round" stroke-linejoin="round" stroke-width="1"/>
            <path id="Trazado_907082" data-name="Trazado 907082" d="M315.493,38.441s-.494-2.833-4.679-2.212c-3.861.573-4.958,4.918-1.7,6.1,3.831,1.4,6.836-1.836,10.56-5.022,3.892-3.33,7.427-6.914,7.874-7.337,0,0-8.773,15.691-9.908,17.757s2.288,1.312,2.909.393" fill="none" stroke="#263238" stroke-linecap="round" stroke-linejoin="round" stroke-width="1"/>
            <path id="Trazado_907083" data-name="Trazado 907083" d="M330.311,43.107a5.179,5.179,0,0,0-6.966,1.183c-1.218,1.465-.577,3.023.475,3.407,2.7.982,4.368-.2,7.207-4.329,0,0-3.932,5.522-3.09,5.829a2.166,2.166,0,0,0,2.192-.488" fill="none" stroke="#263238" stroke-linecap="round" stroke-linejoin="round" stroke-width="1"/>
            <line id="Línea_2053" data-name="Línea 2053" x2="6.943" y2="2.531" transform="translate(318.483 38.795)" fill="none" stroke="#263238" stroke-linecap="round" stroke-linejoin="round" stroke-width="1"/>
            <path id="Trazado_907084" data-name="Trazado 907084" d="M71.4,328.511l-43.079-9.423L34.2,292.212l43.228,9.455Z" fill="none" stroke="#263238" stroke-linecap="round" stroke-linejoin="round" stroke-width="1"/>
            <line id="Línea_2054" data-name="Línea 2054" x2="25.178" y2="5.507" transform="translate(43.966 298.939)" fill="none" stroke="#263238" stroke-linecap="round" stroke-linejoin="round" stroke-width="1"/>
            <line id="Línea_2055" data-name="Línea 2055" x2="28.719" y2="6.282" transform="translate(39.897 300.58)" fill="none" stroke="#263238" stroke-linecap="round" stroke-linejoin="round" stroke-width="1"/>
            <line id="Línea_2056" data-name="Línea 2056" x2="28.719" y2="6.282" transform="translate(39.368 302.996)" fill="none" stroke="#263238" stroke-linecap="round" stroke-linejoin="round" stroke-width="1"/>
            <line id="Línea_2057" data-name="Línea 2057" x2="28.719" y2="6.282" transform="translate(38.84 305.412)" fill="none" stroke="#263238" stroke-linecap="round" stroke-linejoin="round" stroke-width="1"/>
            <line id="Línea_2058" data-name="Línea 2058" x2="28.719" y2="6.282" transform="translate(38.312 307.828)" fill="none" stroke="#263238" stroke-linecap="round" stroke-linejoin="round" stroke-width="1"/>
            <line id="Línea_2059" data-name="Línea 2059" x2="28.719" y2="6.282" transform="translate(37.783 310.244)" fill="none" stroke="#263238" stroke-linecap="round" stroke-linejoin="round" stroke-width="1"/>
            <line id="Línea_2060" data-name="Línea 2060" x2="28.719" y2="6.282" transform="translate(37.255 312.659)" fill="none" stroke="#263238" stroke-linecap="round" stroke-linejoin="round" stroke-width="1"/>
            <line id="Línea_2061" data-name="Línea 2061" x2="25.177" y2="5.507" transform="translate(36.726 315.075)" fill="none" stroke="#263238" stroke-linecap="round" stroke-linejoin="round" stroke-width="1"/>
          </g>
        </g>
        <path id="Trazado_907085" data-name="Trazado 907085" d="M282.623,128.033H121.47L101.359,28H302.734Z" fill="#263238"/>
        <path id="Trazado_907086" data-name="Trazado 907086" d="M116.475,31.25,86.8,233.08H317.294L287.618,31.25" fill="#412976"/>
        <g id="Grupo_1114566" data-name="Grupo 1114566">
          <g id="Grupo_1114565" data-name="Grupo 1114565" clip-path="url(#clip-path-4)">
            <g id="Grupo_1114564" data-name="Grupo 1114564" opacity="0.3">
              <g id="Grupo_1114563" data-name="Grupo 1114563">
                <g id="Grupo_1114562" data-name="Grupo 1114562" clip-path="url(#clip-path-5)">
                  <g id="Grupo_1114561" data-name="Grupo 1114561" opacity="0.7">
                    <g id="Grupo_1114560" data-name="Grupo 1114560">
                      <g id="Grupo_1114559" data-name="Grupo 1114559" clip-path="url(#clip-path-5)">
                        <path id="Trazado_907087" data-name="Trazado 907087" d="M317.3,233.076H86.8l12.41-84.4h205.68Z"/>
                      </g>
                    </g>
                  </g>
                </g>
              </g>
            </g>
          </g>
        </g>
        <path id="Trazado_907089" data-name="Trazado 907089" d="M116.475,31.25,86.8,233.08H317.294L287.618,31.25" fill="none" stroke="#263238" stroke-linecap="round" stroke-linejoin="round" stroke-width="1"/>
        <path id="Trazado_907090" data-name="Trazado 907090" d="M281.347,31.25h-158.6l-27.5,201.83h213.6Z" fill="#263238"/>
        <g id="Grupo_1114568" data-name="Grupo 1114568">
          <g id="Grupo_1114567" data-name="Grupo 1114567" clip-path="url(#clip-path-2)">
            <path id="Trazado_907091" data-name="Trazado 907091" d="M265.678,46.63H179.59l-.976-2.2a3.382,3.382,0,0,0-3.093-2.013H155.967A1.969,1.969,0,0,0,154,44.382V46.63H138.415a1.9,1.9,0,0,0-1.858,2.268l12.716,63.249H254.819L267.535,48.9a1.894,1.894,0,0,0-1.857-2.268" fill="#bfbfbf"/>
            <path id="Trazado_907092" data-name="Trazado 907092" d="M265.678,46.63H179.59l-.976-2.2a3.382,3.382,0,0,0-3.093-2.013H155.967A1.969,1.969,0,0,0,154,44.382V46.63H138.415a1.9,1.9,0,0,0-1.858,2.268l12.716,63.249H254.819L267.535,48.9A1.894,1.894,0,0,0,265.678,46.63Z" fill="none" stroke="#263238" stroke-linecap="round" stroke-linejoin="round" stroke-width="1"/>
            <path id="Trazado_907093" data-name="Trazado 907093" d="M268.927,51.476l-1.1,5.46-11.3,56.19a3.7,3.7,0,0,1-3.63,2.98H151.2a3.7,3.7,0,0,1-3.63-2.98L136,55.606l-.83-4.13a1.9,1.9,0,0,1,1.86-2.27h130.04a1.9,1.9,0,0,1,1.86,2.27" fill="#fff"/>
          </g>
        </g>
        <g id="Grupo_1114573" data-name="Grupo 1114573">
          <g id="Grupo_1114572" data-name="Grupo 1114572" clip-path="url(#clip-path-8)">
            <g id="Grupo_1114571" data-name="Grupo 1114571" opacity="0.4">
              <g id="Grupo_1114570" data-name="Grupo 1114570">
                <g id="Grupo_1114569" data-name="Grupo 1114569" clip-path="url(#clip-path-9)">
                  <path id="Trazado_907094" data-name="Trazado 907094" d="M267.827,56.936l-11.3,56.19a3.7,3.7,0,0,1-3.63,2.98H151.2a3.7,3.7,0,0,1-3.63-2.98L136,55.606Z" fill="#412976"/>
                </g>
              </g>
            </g>
          </g>
        </g>
        <g id="Grupo_1114575" data-name="Grupo 1114575">
          <g id="Grupo_1114574" data-name="Grupo 1114574" clip-path="url(#clip-path-2)">
            <path id="Trazado_907096" data-name="Trazado 907096" d="M268.927,51.476l-1.1,5.46-11.3,56.19a3.7,3.7,0,0,1-3.63,2.98H151.2a3.7,3.7,0,0,1-3.63-2.98L136,55.606l-.83-4.13a1.9,1.9,0,0,1,1.86-2.27h130.04A1.9,1.9,0,0,1,268.927,51.476Z" fill="none" stroke="#263238" stroke-linecap="round" stroke-linejoin="round" stroke-width="1"/>
            <path id="Trazado_907097" data-name="Trazado 907097" d="M267.2,61.2H179.052l-1-2.2a3.47,3.47,0,0,0-3.167-2.007H154.863a1.99,1.99,0,0,0-2.016,1.963V61.2H136.89a1.9,1.9,0,0,0-1.9,2.261l13.021,63.06H256.084l13.021-63.06a1.9,1.9,0,0,0-1.9-2.261" fill="#bfbfbf"/>
            <path id="Trazado_907098" data-name="Trazado 907098" d="M267.2,61.2H179.052l-1-2.2a3.47,3.47,0,0,0-3.167-2.007H154.863a1.99,1.99,0,0,0-2.016,1.963V61.2H136.89a1.9,1.9,0,0,0-1.9,2.261l13.021,63.06H256.084l13.021-63.06A1.9,1.9,0,0,0,267.2,61.2Z" fill="none" stroke="#263238" stroke-linecap="round" stroke-linejoin="round" stroke-width="1"/>
            <path id="Trazado_907099" data-name="Trazado 907099" d="M270.527,66.216l-1.1,5.34-11.59,56.13a3.771,3.771,0,0,1-3.72,2.96H149.977a3.771,3.771,0,0,1-3.72-2.96l-11.63-56.32-1.06-5.15a1.912,1.912,0,0,1,1.9-2.27h133.16a1.912,1.912,0,0,1,1.9,2.27" fill="#fff"/>
          </g>
        </g>
        <g id="Grupo_1114580" data-name="Grupo 1114580">
          <g id="Grupo_1114579" data-name="Grupo 1114579" clip-path="url(#clip-path-11)">
            <g id="Grupo_1114578" data-name="Grupo 1114578" opacity="0.4">
              <g id="Grupo_1114577" data-name="Grupo 1114577">
                <g id="Grupo_1114576" data-name="Grupo 1114576" clip-path="url(#clip-path-12)">
                  <path id="Trazado_907100" data-name="Trazado 907100" d="M269.427,71.556l-11.59,56.13a3.771,3.771,0,0,1-3.72,2.96H149.977a3.771,3.771,0,0,1-3.72-2.96l-11.63-56.32Z" fill="#412976"/>
                </g>
              </g>
            </g>
          </g>
        </g>
        <g id="Grupo_1114582" data-name="Grupo 1114582">
          <g id="Grupo_1114581" data-name="Grupo 1114581" clip-path="url(#clip-path-2)">
            <path id="Trazado_907102" data-name="Trazado 907102" d="M270.527,66.216l-1.1,5.34-11.59,56.13a3.771,3.771,0,0,1-3.72,2.96H149.977a3.771,3.771,0,0,1-3.72-2.96l-11.63-56.32-1.06-5.15a1.912,1.912,0,0,1,1.9-2.27h133.16A1.912,1.912,0,0,1,270.527,66.216Z" fill="none" stroke="#263238" stroke-linecap="round" stroke-linejoin="round" stroke-width="1"/>
            <path id="Trazado_907103" data-name="Trazado 907103" d="M268.728,75.77H178.514l-1.022-2.191a3.559,3.559,0,0,0-3.242-2H153.76a2.012,2.012,0,0,0-2.064,1.957V75.77h-16.33a1.914,1.914,0,0,0-1.947,2.254L146.745,140.9h110.6l13.325-62.873a1.913,1.913,0,0,0-1.946-2.254" fill="#bfbfbf"/>
            <path id="Trazado_907104" data-name="Trazado 907104" d="M268.728,75.77H178.514l-1.022-2.191a3.559,3.559,0,0,0-3.242-2H153.76a2.012,2.012,0,0,0-2.064,1.957V75.77h-16.33a1.914,1.914,0,0,0-1.947,2.254L146.745,140.9h110.6l13.325-62.873A1.913,1.913,0,0,0,268.728,75.77Z" fill="none" stroke="#263238" stroke-linecap="round" stroke-linejoin="round" stroke-width="1"/>
            <path id="Trazado_907105" data-name="Trazado 907105" d="M270.185,78.694H133.909a1.913,1.913,0,0,0-1.946,2.254l12.99,61.29a3.836,3.836,0,0,0,3.8,2.956H255.336a3.836,3.836,0,0,0,3.8-2.956l12.99-61.29a1.913,1.913,0,0,0-1.946-2.254" fill="#fff"/>
            <path id="Trazado_907106" data-name="Trazado 907106" d="M270.185,78.694H133.909a1.913,1.913,0,0,0-1.946,2.254l12.99,61.29a3.836,3.836,0,0,0,3.8,2.956H255.336a3.836,3.836,0,0,0,3.8-2.956l12.99-61.29A1.913,1.913,0,0,0,270.185,78.694Z" fill="none" stroke="#263238" stroke-linecap="round" stroke-linejoin="round" stroke-width="1"/>
            <path id="Trazado_907107" data-name="Trazado 907107" d="M270.253,87.34H177.976l-1.046-2.185a3.647,3.647,0,0,0-3.315-1.995H152.656a2.035,2.035,0,0,0-2.111,1.951V87.34h-16.7a1.925,1.925,0,0,0-1.991,2.248l13.63,62.684H258.614l13.63-62.684a1.925,1.925,0,0,0-1.991-2.248" fill="#bfbfbf"/>
            <path id="Trazado_907108" data-name="Trazado 907108" d="M270.253,87.34H177.976l-1.046-2.185a3.647,3.647,0,0,0-3.315-1.995H152.656a2.035,2.035,0,0,0-2.111,1.951V87.34h-16.7a1.925,1.925,0,0,0-1.991,2.248l13.63,62.684H258.614l13.63-62.684A1.925,1.925,0,0,0,270.253,87.34Z" fill="none" stroke="#263238" stroke-linecap="round" stroke-linejoin="round" stroke-width="1"/>
            <path id="Trazado_907109" data-name="Trazado 907109" d="M271.743,90.438H132.351a1.924,1.924,0,0,0-1.991,2.247l13.287,61.107a3.906,3.906,0,0,0,3.892,2.947H256.555a3.906,3.906,0,0,0,3.892-2.947l13.287-61.107a1.924,1.924,0,0,0-1.991-2.247" fill="#fff"/>
            <path id="Trazado_907110" data-name="Trazado 907110" d="M271.743,90.438H132.351a1.924,1.924,0,0,0-1.991,2.247l13.287,61.107a3.906,3.906,0,0,0,3.892,2.947H256.555a3.906,3.906,0,0,0,3.892-2.947l13.287-61.107A1.924,1.924,0,0,0,271.743,90.438Z" fill="none" stroke="#263238" stroke-linecap="round" stroke-linejoin="round" stroke-width="1"/>
            <path id="Trazado_907111" data-name="Trazado 907111" d="M271.777,98.91h-94.34l-1.069-2.178a3.742,3.742,0,0,0-3.389-1.99H151.551a2.06,2.06,0,0,0-2.158,1.946V98.91H132.316a1.936,1.936,0,0,0-2.036,2.241l13.935,62.5H259.878l13.934-62.5a1.935,1.935,0,0,0-2.035-2.241" fill="#bfbfbf"/>
            <path id="Trazado_907112" data-name="Trazado 907112" d="M271.777,98.91h-94.34l-1.069-2.178a3.742,3.742,0,0,0-3.389-1.99H151.551a2.06,2.06,0,0,0-2.158,1.946V98.91H132.316a1.936,1.936,0,0,0-2.036,2.241l13.935,62.5H259.878l13.934-62.5A1.935,1.935,0,0,0,271.777,98.91Z" fill="none" stroke="#263238" stroke-linecap="round" stroke-linejoin="round" stroke-width="1"/>
            <path id="Trazado_907113" data-name="Trazado 907113" d="M273.3,102.186H130.8a1.937,1.937,0,0,0-2.04,2.24l3.34,14.99,10.24,45.93a3.989,3.989,0,0,0,3.98,2.94h111.46a3.989,3.989,0,0,0,3.98-2.94l5.02-22.53,8.56-38.39a1.937,1.937,0,0,0-2.04-2.24" fill="#fff"/>
          </g>
        </g>
        <g id="Grupo_1114587" data-name="Grupo 1114587">
          <g id="Grupo_1114586" data-name="Grupo 1114586" clip-path="url(#clip-path-14)">
            <g id="Grupo_1114585" data-name="Grupo 1114585" opacity="0.4">
              <g id="Grupo_1114584" data-name="Grupo 1114584">
                <g id="Grupo_1114583" data-name="Grupo 1114583" clip-path="url(#clip-path-15)">
                  <path id="Trazado_907114" data-name="Trazado 907114" d="M132.1,119.416l10.24,45.93a3.989,3.989,0,0,0,3.98,2.94h111.46a3.989,3.989,0,0,0,3.98-2.94l5.02-22.53Z" fill="#412976"/>
                </g>
              </g>
            </g>
          </g>
        </g>
        <g id="Grupo_1114589" data-name="Grupo 1114589">
          <g id="Grupo_1114588" data-name="Grupo 1114588" clip-path="url(#clip-path-2)">
            <path id="Trazado_907116" data-name="Trazado 907116" d="M273.3,102.186H130.8a1.937,1.937,0,0,0-2.04,2.24l3.34,14.99,10.24,45.93a3.989,3.989,0,0,0,3.98,2.94h111.46a3.989,3.989,0,0,0,3.98-2.94l5.02-22.53,8.56-38.39A1.937,1.937,0,0,0,273.3,102.186Z" fill="none" stroke="#263238" stroke-linecap="round" stroke-linejoin="round" stroke-width="1"/>
            <path id="Trazado_907117" data-name="Trazado 907117" d="M173.818,170.452l-1.26-2.1a4.149,4.149,0,0,0-3.772-1.794l-23.278,1.07a2.166,2.166,0,0,0-2.256,2.028l.1,2.193-18.551.853c-1.424.065-2.443,1.182-2.109,2.313L140.665,236l125.646-5.774,12.3-62.377c.229-1.156-.888-2.175-2.312-2.11Z" fill="#bfbfbf"/>
            <path id="Trazado_907118" data-name="Trazado 907118" d="M173.818,170.452l-1.26-2.1a4.149,4.149,0,0,0-3.772-1.794l-23.278,1.07a2.166,2.166,0,0,0-2.256,2.028l.1,2.193-18.551.853c-1.424.065-2.443,1.182-2.109,2.313L140.665,236l125.646-5.774,12.3-62.377c.229-1.156-.888-2.175-2.312-2.11Z" fill="none" stroke="#263238" stroke-linecap="round" stroke-linejoin="round" stroke-width="1"/>
            <path id="Trazado_907119" data-name="Trazado 907119" d="M280.447,171.736l-1.42,7.18-10.57,53.63a4.294,4.294,0,0,1-4.19,3.1l-121.07,5.56a4.286,4.286,0,0,1-4.46-2.7l-16.71-56.7-.81-2.75c-.33-1.13.69-2.25,2.11-2.31l154.81-7.12c1.43-.06,2.54.96,2.31,2.11" fill="#fff"/>
          </g>
        </g>
        <g id="Grupo_1114594" data-name="Grupo 1114594">
          <g id="Grupo_1114593" data-name="Grupo 1114593" clip-path="url(#clip-path-17)">
            <g id="Grupo_1114592" data-name="Grupo 1114592" opacity="0.4">
              <g id="Grupo_1114591" data-name="Grupo 1114591">
                <g id="Grupo_1114590" data-name="Grupo 1114590" clip-path="url(#clip-path-18)">
                  <path id="Trazado_907120" data-name="Trazado 907120" d="M279.027,178.916l-10.57,53.63a4.294,4.294,0,0,1-4.19,3.1l-121.07,5.56a4.286,4.286,0,0,1-4.46-2.7l-16.71-56.7Z" fill="#412976"/>
                </g>
              </g>
            </g>
          </g>
        </g>
        <g id="Grupo_1114596" data-name="Grupo 1114596">
          <g id="Grupo_1114595" data-name="Grupo 1114595" clip-path="url(#clip-path-2)">
            <path id="Trazado_907122" data-name="Trazado 907122" d="M280.447,171.736l-1.42,7.18-10.57,53.63a4.294,4.294,0,0,1-4.19,3.1l-121.07,5.56a4.286,4.286,0,0,1-4.46-2.7l-16.71-56.7-.81-2.75c-.33-1.13.69-2.25,2.11-2.31l154.81-7.12C279.567,169.566,280.677,170.586,280.447,171.736Z" fill="none" stroke="#263238" stroke-linecap="round" stroke-linejoin="round" stroke-width="1"/>
            <path id="Trazado_907123" data-name="Trazado 907123" d="M176.485,184.378l-1.072-2.205a4.257,4.257,0,0,0-3.653-2.153l-23.738-1.241a2.2,2.2,0,0,0-2.491,1.789l-.114,2.186-18.918-.989c-1.453-.076-2.6.931-2.37,2.086l12.223,62.282,128.133,6.7,18.651-60.668c.345-1.125-.688-2.246-2.14-2.322Z" fill="#bfbfbf"/>
            <path id="Trazado_907124" data-name="Trazado 907124" d="M176.485,184.378l-1.072-2.205a4.257,4.257,0,0,0-3.653-2.153l-23.738-1.241a2.2,2.2,0,0,0-2.491,1.789l-.114,2.186-18.918-.989c-1.453-.076-2.6.931-2.37,2.086l12.223,62.282,128.133,6.7,18.651-60.668c.345-1.125-.688-2.246-2.14-2.322Z" fill="none" stroke="#263238" stroke-linecap="round" stroke-linejoin="round" stroke-width="1"/>
            <path id="Trazado_907125" data-name="Trazado 907125" d="M284.607,196.386l-3.04,9.88-15.14,49.26a4.364,4.364,0,0,1-4.56,2.66l-123.47-6.45a4.384,4.384,0,0,1-4.26-3.12l-10.45-53.27-1.46-7.45c-.23-1.15.92-2.16,2.37-2.08l157.87,8.25c1.45.08,2.49,1.2,2.14,2.32" fill="#fff"/>
          </g>
        </g>
        <g id="Grupo_1114601" data-name="Grupo 1114601">
          <g id="Grupo_1114600" data-name="Grupo 1114600" clip-path="url(#clip-path-20)">
            <g id="Grupo_1114599" data-name="Grupo 1114599" opacity="0.4">
              <g id="Grupo_1114598" data-name="Grupo 1114598">
                <g id="Grupo_1114597" data-name="Grupo 1114597" clip-path="url(#clip-path-21)">
                  <path id="Trazado_907126" data-name="Trazado 907126" d="M281.567,206.266l-15.14,49.26a4.364,4.364,0,0,1-4.56,2.66l-123.47-6.45a4.384,4.384,0,0,1-4.26-3.12l-10.45-53.27Z" fill="#412976"/>
                </g>
              </g>
            </g>
          </g>
        </g>
        <g id="Grupo_1114603" data-name="Grupo 1114603">
          <g id="Grupo_1114602" data-name="Grupo 1114602" clip-path="url(#clip-path-2)">
            <path id="Trazado_907128" data-name="Trazado 907128" d="M284.607,196.386l-3.04,9.88-15.14,49.26a4.364,4.364,0,0,1-4.56,2.66l-123.47-6.45a4.384,4.384,0,0,1-4.26-3.12l-10.45-53.27-1.46-7.45c-.23-1.15.92-2.16,2.37-2.08l157.87,8.25C283.917,194.146,284.957,195.266,284.607,196.386Z" fill="none" stroke="#263238" stroke-linecap="round" stroke-linejoin="round" stroke-width="1"/>
            <path id="Trazado_907129" data-name="Trazado 907129" d="M174.209,200.328,173,198.189a4.367,4.367,0,0,0-3.834-1.954h-24.24a2.226,2.226,0,0,0-2.441,1.911v2.182H123.168c-1.483,0-2.6,1.062-2.3,2.2L136.628,263.9H267.465l15.763-61.371c.292-1.139-.819-2.2-2.3-2.2Z" fill="#bfbfbf"/>
            <path id="Trazado_907130" data-name="Trazado 907130" d="M174.209,200.328,173,198.189a4.367,4.367,0,0,0-3.834-1.954h-24.24a2.226,2.226,0,0,0-2.441,1.911v2.182H123.168c-1.483,0-2.6,1.062-2.3,2.2L136.628,263.9H267.465l15.763-61.371c.292-1.139-.819-2.2-2.3-2.2Z" fill="none" stroke="#263238" stroke-linecap="round" stroke-linejoin="round" stroke-width="1"/>
            <path id="Trazado_907131" data-name="Trazado 907131" d="M265.084,269.558H139.009c-2.186,0-4.07-1.207-4.5-2.886l-15.366-59.825c-.292-1.138.82-2.2,2.3-2.2h161.2c1.483,0,2.594,1.063,2.3,2.2l-15.366,59.825c-.431,1.679-2.314,2.886-4.5,2.886" fill="#fff"/>
            <path id="Trazado_907132" data-name="Trazado 907132" d="M265.084,269.558H139.009c-2.186,0-4.07-1.207-4.5-2.886l-15.366-59.825c-.292-1.138.82-2.2,2.3-2.2h161.2c1.483,0,2.594,1.063,2.3,2.2l-15.366,59.825C269.154,268.351,267.271,269.558,265.084,269.558Z" fill="none" stroke="#263238" stroke-linecap="round" stroke-linejoin="round" stroke-width="1"/>
            <path id="Trazado_907133" data-name="Trazado 907133" d="M173.671,214.9l-1.233-2.132a4.476,4.476,0,0,0-3.908-1.948H143.823a2.256,2.256,0,0,0-2.489,1.905V214.9H121.643c-1.511,0-2.645,1.059-2.346,2.194l16.067,61.183H268.73L284.8,217.092c.3-1.135-.835-2.194-2.346-2.194Z" fill="#bfbfbf"/>
            <path id="Trazado_907134" data-name="Trazado 907134" d="M173.671,214.9l-1.233-2.132a4.476,4.476,0,0,0-3.908-1.948H143.823a2.256,2.256,0,0,0-2.489,1.905V214.9H121.643c-1.511,0-2.645,1.059-2.346,2.194l16.067,61.183H268.73L284.8,217.092c.3-1.135-.835-2.194-2.346-2.194Z" fill="none" stroke="#263238" stroke-linecap="round" stroke-linejoin="round" stroke-width="1"/>
            <path id="Trazado_907135" data-name="Trazado 907135" d="M266.3,284.1H137.79c-2.229,0-4.149-1.2-4.588-2.877l-15.663-59.642c-.3-1.135.835-2.194,2.347-2.194h164.32c1.512,0,2.645,1.059,2.347,2.194L270.89,281.226c-.439,1.673-2.359,2.877-4.588,2.877" fill="#fff"/>
            <path id="Trazado_907136" data-name="Trazado 907136" d="M266.3,284.1H137.79c-2.229,0-4.149-1.2-4.588-2.877l-15.663-59.642c-.3-1.135.835-2.194,2.347-2.194h164.32c1.512,0,2.645,1.059,2.347,2.194L270.89,281.226C270.451,282.9,268.531,284.1,266.3,284.1Z" fill="none" stroke="#263238" stroke-linecap="round" stroke-linejoin="round" stroke-width="1"/>
            <path id="Trazado_907137" data-name="Trazado 907137" d="M292.416,353.033H111.677L72.116,240.843h259.86Z" fill="#412976"/>
          </g>
        </g>
        <g id="Grupo_1114611" data-name="Grupo 1114611">
          <g id="Grupo_1114610" data-name="Grupo 1114610" clip-path="url(#clip-path-23)">
            <g id="Grupo_1114609" data-name="Grupo 1114609" opacity="0.3">
              <g id="Grupo_1114608" data-name="Grupo 1114608">
                <g id="Grupo_1114607" data-name="Grupo 1114607" clip-path="url(#clip-path-24)">
                  <g id="Grupo_1114606" data-name="Grupo 1114606" opacity="0.7">
                    <g id="Grupo_1114605" data-name="Grupo 1114605">
                      <g id="Grupo_1114604" data-name="Grupo 1114604" clip-path="url(#clip-path-24)">
                        <path id="Trazado_907138" data-name="Trazado 907138" d="M292.416,353.033H111.677L72.116,240.843h259.86Z"/>
                      </g>
                    </g>
                  </g>
                </g>
              </g>
            </g>
          </g>
        </g>
        <g id="Grupo_1114613" data-name="Grupo 1114613">
          <g id="Grupo_1114612" data-name="Grupo 1114612" clip-path="url(#clip-path-2)">
            <path id="Trazado_907140" data-name="Trazado 907140" d="M292.416,353.033H111.677L72.116,240.843h259.86Z" fill="none" stroke="#263238" stroke-linecap="round" stroke-linejoin="round" stroke-width="1"/>
            <path id="Trazado_907141" data-name="Trazado 907141" d="M328.538,226.08H75.556l-3.439,14.763h259.86Z" fill="#412976"/>
            <path id="Trazado_907142" data-name="Trazado 907142" d="M328.538,226.08H75.556l-3.439,14.763h259.86Z" fill="none" stroke="#263238" stroke-linecap="round" stroke-linejoin="round" stroke-width="1"/>
            <path id="Trazado_907143" data-name="Trazado 907143" d="M139.317,292.243l-2.534,23.95H267.311l-2.534-23.95h-5.76l1.643,17.1H143.434l1.643-17.1Z" fill="#bfbfbf"/>
            <path id="Trazado_907144" data-name="Trazado 907144" d="M139.317,292.243l-2.534,23.95H267.311l-2.534-23.95h-5.76l1.643,17.1H143.434l1.643-17.1Z" fill="none" stroke="#263238" stroke-linecap="round" stroke-linejoin="round" stroke-width="1"/>
            <path id="Trazado_907145" data-name="Trazado 907145" d="M266.328,321.7H137.766l-.982-5.5H267.31Z" fill="#757575"/>
            <path id="Trazado_907146" data-name="Trazado 907146" d="M266.328,321.7H137.766l-.982-5.5H267.31Z" fill="none" stroke="#263238" stroke-linecap="round" stroke-linejoin="round" stroke-width="1"/>
            <path id="Trazado_907147" data-name="Trazado 907147" d="M259.017,292.243l-.805,6.349.805,10.749h1.643Z" fill="#757575"/>
            <path id="Trazado_907148" data-name="Trazado 907148" d="M259.017,292.243l-.805,6.349.805,10.749h1.643Z" fill="none" stroke="#263238" stroke-linecap="round" stroke-linejoin="round" stroke-width="1"/>
            <path id="Trazado_907149" data-name="Trazado 907149" d="M145.077,292.243l.8,6.349-.8,10.749h-1.643Z" fill="#757575"/>
            <path id="Trazado_907150" data-name="Trazado 907150" d="M145.077,292.243l.8,6.349-.8,10.749h-1.643Z" fill="none" stroke="#263238" stroke-linecap="round" stroke-linejoin="round" stroke-width="1"/>
            <path id="Trazado_907151" data-name="Trazado 907151" d="M244.1,280.228h-84.11L155.978,259.9h92.138Z" fill="#fff"/>
            <path id="Trazado_907152" data-name="Trazado 907152" d="M244.1,280.228h-84.11L155.978,259.9h92.138Z" fill="none" stroke="#263238" stroke-linecap="round" stroke-linejoin="round" stroke-width="1"/>
            <path id="Trazado_907153" data-name="Trazado 907153" d="M184.467,273.009h.032l.554-8.613h2.564l.754,11.947h-1.652l-.6-8.436h-.034l-.577,8.436H183.86l-2.017-8.314h-.033l.747,8.314h-1.525L179.874,264.4h2.564Z" fill="#263238"/>
            <path id="Trazado_907154" data-name="Trazado 907154" d="M191.091,272.523l-2.733-8.128h1.927l1.645,5.6h.033l1.138-5.6h1.76l-1.992,8.128.159,3.819h-1.747Z" fill="#263238"/>
            <path id="Trazado_907155" data-name="Trazado 907155" d="M200.091,269.861h2.323l0,1.7h-2.3l.042,4.778H198.4l-.2-11.947h4.877l-.008,1.787h-3.01Z" fill="#263238"/>
            <path id="Trazado_907156" data-name="Trazado 907156" d="M203.967,264.4h1.844l-.2,11.947h-1.747Z" fill="#263238"/>
            <path id="Trazado_907157" data-name="Trazado 907157" d="M207.152,264.4H209l-.314,10.317h2.9l-.071,1.63h-4.623Z" fill="#263238"/>
            <path id="Trazado_907158" data-name="Trazado 907158" d="M214.393,269.587h2.473l-.113,1.707H214.3l-.189,3.419h3.041l-.113,1.63h-4.765l.563-11.947h5.028l-.123,1.787h-3.16Z" fill="#263238"/>
            <path id="Trazado_907159" data-name="Trazado 907159" d="M221.5,264.251c1.8,0,2.606,1.148,2.414,3.13l-.038.385h-1.717l.045-.508c.079-.882-.224-1.218-.806-1.218s-.943.336-1.014,1.218.236,1.552,1.323,2.638c1.374,1.38,1.751,2.359,1.622,3.694-.179,1.842-1.168,2.881-2.883,2.881s-2.528-1.039-2.393-2.881l.052-.715h1.678l-.067.83c-.066.827.261,1.122.821,1.122s.938-.295,1.011-1.122c.076-.847-.223-1.484-1.3-2.548-1.393-1.381-1.795-2.382-1.693-3.776.145-1.982,1.151-3.13,2.946-3.13" fill="#263238"/>
          </g>
        </g>
        <g id="Grupo_1114615" data-name="Grupo 1114615">
          <g id="Grupo_1114614" data-name="Grupo 1114614" clip-path="url(#clip-path-2)">
            <path id="Trazado_907160" data-name="Trazado 907160" d="M207.678,83.6l-.825-2.348a3.933,3.933,0,0,0-3.258-2.468L181.36,75.917a2.135,2.135,0,0,0-2.493,1.682l-.29,2.249-17.721-2.284a2,2,0,0,0-2.4,2l6.3,65.138,120.022,15.469,22.616-61.411a2,2,0,0,0-1.82-2.541Z" fill="#fff"/>
          </g>
        </g>
        <g id="Grupo_1114620" data-name="Grupo 1114620">
          <g id="Grupo_1114619" data-name="Grupo 1114619" clip-path="url(#clip-path-28)">
            <g id="Grupo_1114618" data-name="Grupo 1114618" opacity="0.4">
              <g id="Grupo_1114617" data-name="Grupo 1114617">
                <g id="Grupo_1114616" data-name="Grupo 1114616" clip-path="url(#clip-path-29)">
                  <path id="Trazado_907161" data-name="Trazado 907161" d="M207.678,83.6l-.825-2.348a3.933,3.933,0,0,0-3.258-2.468L181.36,75.917a2.135,2.135,0,0,0-2.493,1.682l-.29,2.249-17.721-2.284a2,2,0,0,0-2.4,2l6.3,65.138,120.022,15.469,22.616-61.411a2,2,0,0,0-1.82-2.541Z" fill="#412976"/>
                </g>
              </g>
            </g>
          </g>
        </g>
        <g id="Grupo_1114622" data-name="Grupo 1114622">
          <g id="Grupo_1114621" data-name="Grupo 1114621" clip-path="url(#clip-path-2)">
            <path id="Trazado_907163" data-name="Trazado 907163" d="M207.678,83.6l-.825-2.348a3.933,3.933,0,0,0-3.258-2.468L181.36,75.917a2.135,2.135,0,0,0-2.493,1.682l-.29,2.249-17.721-2.284a2,2,0,0,0-2.4,2l6.3,65.138,120.022,15.469,22.616-61.411a2,2,0,0,0-1.82-2.541Z" fill="none" stroke="#263238" stroke-linecap="round" stroke-linejoin="round" stroke-width="1"/>
            <path id="Trazado_907164" data-name="Trazado 907164" d="M308.527,102.456l-20.47,55.59-1.58,4.28a4.147,4.147,0,0,1-4.51,2.44l-115.66-14.9a4.152,4.152,0,0,1-3.74-3.51l-6.15-63.5a2.006,2.006,0,0,1,2.41-2l98.42,12.69,49.46,6.37a2,2,0,0,1,1.82,2.54" fill="#fff"/>
          </g>
        </g>
        <g id="Grupo_1114630" data-name="Grupo 1114630">
          <g id="Grupo_1114629" data-name="Grupo 1114629" clip-path="url(#clip-path-31)">
            <g id="Grupo_1114628" data-name="Grupo 1114628" opacity="0.3">
              <g id="Grupo_1114627" data-name="Grupo 1114627">
                <g id="Grupo_1114626" data-name="Grupo 1114626" clip-path="url(#clip-path-32)">
                  <g id="Grupo_1114625" data-name="Grupo 1114625" opacity="0.7">
                    <g id="Grupo_1114624" data-name="Grupo 1114624">
                      <g id="Grupo_1114623" data-name="Grupo 1114623" clip-path="url(#clip-path-32)">
                        <path id="Trazado_907165" data-name="Trazado 907165" d="M308.527,102.456l-20.47,55.59c-14.51-3.43-15.06-12.47-17.49-17.15-2.68-5.16-19.67-7.9-24.42-8.73s-7.64-5.64-7.64-5.64c-4.28-12.02,18.06-22.5,18.06-22.5-.44-1.65.21-7.06.68-10.48l49.46,6.37a2,2,0,0,1,1.82,2.54"/>
                      </g>
                    </g>
                  </g>
                </g>
              </g>
            </g>
          </g>
        </g>
        <g id="Grupo_1114641" data-name="Grupo 1114641">
          <g id="Grupo_1114640" data-name="Grupo 1114640" clip-path="url(#clip-path-2)">
            <path id="Trazado_907167" data-name="Trazado 907167" d="M308.527,102.456l-20.47,55.59-1.58,4.28a4.147,4.147,0,0,1-4.51,2.44l-115.66-14.9a4.152,4.152,0,0,1-3.74-3.51l-6.15-63.5a2.006,2.006,0,0,1,2.41-2l98.42,12.69,49.46,6.37A2,2,0,0,1,308.527,102.456Z" fill="none" stroke="#263238" stroke-linecap="round" stroke-linejoin="round" stroke-width="1"/>
            <path id="Trazado_907168" data-name="Trazado 907168" d="M178.168,99.967l1.582,39.3,14.242,1.846,1.671-39.165Z" fill="#412976"/>
            <path id="Trazado_907169" data-name="Trazado 907169" d="M178.168,99.967l1.582,39.3,14.242,1.846,1.671-39.165Z" fill="none" stroke="#263238" stroke-linecap="round" stroke-linejoin="round" stroke-width="1"/>
            <path id="Trazado_907170" data-name="Trazado 907170" d="M186.855,136.38a5.082,5.082,0,0,0-.693-4.114,15.107,15.107,0,0,0-2.89-3.169,14.143,14.143,0,0,0,5.377,1.775c-.02-2.047-1.971-3.469-3.714-4.543a2.82,2.82,0,0,1,2.419.182,1.954,1.954,0,0,0-.709-1.693c.217.187.563-.108.552-.394a1.855,1.855,0,0,0-.354-.772,3.8,3.8,0,0,1-.31-1.927q.051-3.528.1-7.056a1.114,1.114,0,0,0,.823.9c-.028-.931-.115-1.86-.2-2.788q-.335-3.531-.668-7.061" fill="none" stroke="#263238" stroke-linecap="round" stroke-linejoin="round" stroke-width="1"/>
            <path id="Trazado_907171" data-name="Trazado 907171" d="M413.091,227.747s-80.7-72.2-85.846-76.747-8.9-4.352-11.671-7.121-4.153-4.746-15.428-4.55-26.308-5.933-29.67-8.109-8.11-.594-11.275-1.824-11.275-.155-16.22,0-5.341-4.9-3.363-10.638,17.011-9.3,18.989-8.11,9.89-2.175,9.89-2.175c-1.186-4.155-.791-14.242-.791-14.242s-8.307-3.56-11.472-4.748a20.27,20.27,0,0,0-7.517-.79s.989-4.537,2.572-6.225,9.1-3.27,16.417-8.413,11.868-6.33,13.055-5.934,9.3,2.77,11.473,2.77,5.34-1.979,8.505-1.386,8.9,5.539,11.473,6.132,3.351,1.129,6.725,1.129c1.484,0,7.517,4.41,7.517,4.41a31.166,31.166,0,0,1,7.318,2.373c3.758,1.78,7.715,10.286,9.495,13.055s1.978,9.5,1.978,9.5,4.747,2.572,6.527,6.133S419.025,151,419.025,151s10.352,40.483-5.934,76.747" fill="#fff"/>
            <g id="Grupo_1114633" data-name="Grupo 1114633" opacity="0.4">
              <g id="Grupo_1114632" data-name="Grupo 1114632">
                <g id="Grupo_1114631" data-name="Grupo 1114631" clip-path="url(#clip-path-35)">
                  <path id="Trazado_907172" data-name="Trazado 907172" d="M355.587,176.316c-14.46-12.94-26.46-23.66-28.34-25.32-5.15-4.55-8.9-4.35-11.67-7.12s-4.16-4.74-15.43-4.55-26.31-5.93-29.67-8.11-8.11-.59-11.28-1.82-11.27-.15-16.22,0-5.34-4.9-3.36-10.64,17.01-9.29,18.99-8.11,9.89-2.17,9.89-2.17c-1.19-4.16-.79-14.25-.79-14.25s-8.31-3.56-11.47-4.74a20.2,20.2,0,0,0-7.52-.79s.99-4.54,2.57-6.23,9.1-3.27,16.42-8.41,11.87-6.33,13.05-5.94,9.3,2.77,11.48,2.77c1.65,0,3.88-1.14,6.25-1.43-1.92,1.07-3.25,3.11-2.89,4.2.57,1.72,2.18,6.1,2.27,6.38-.43-.42-10.8-10.66-17.5-10.13-5.79.45-11.67,10.2-10.68,17.36s-1.41,7.16-.11,12.5,2.48,12.86.5,15.83-5.93-2.31-5.93-2.31a9.638,9.638,0,0,0-5.01,8.24c0,5.74,5.95,6.13,9.54,6.73s16.6,7.75,25.52,8.13l8.92.37s-5.15-7.01-2.97-7.36,8.7.28,13.05,6.99,7.6,8.21,15.57,11.51c4.6,1.9,17.02,15.31,26.82,28.42" fill="#412976"/>
                </g>
              </g>
            </g>
            <g id="Grupo_1114636" data-name="Grupo 1114636" opacity="0.4">
              <g id="Grupo_1114635" data-name="Grupo 1114635">
                <g id="Grupo_1114634" data-name="Grupo 1114634" clip-path="url(#clip-path-36)">
                  <path id="Trazado_907173" data-name="Trazado 907173" d="M395.107,137.966c-1.21-.57-40-18.85-41.95-21.58-1.98-2.77-4.35-3.4-6.53-6.15s-9.49-4.53-10.48-8.29-2.18-15.17-3.96-16.58a33.129,33.129,0,0,0-4.74-2.9l2.94,7.33s-6.7-9.49-8.29-9.75,1.72,6.9,1.43,6.68c-.19-.14-7.55-7-13.63-12.14a9.4,9.4,0,0,0,2.31,1.05c2.58.59,3.36,1.13,6.73,1.13,1.48,0,7.52,4.41,7.52,4.41a31.043,31.043,0,0,1,7.32,2.37c3.75,1.78,7.71,10.29,9.49,13.06s1.98,9.49,1.98,9.49,4.75,2.57,6.53,6.13c1.05,2.11,24.44,15.32,43.33,25.74" fill="#412976"/>
                </g>
              </g>
            </g>
            <g id="Grupo_1114639" data-name="Grupo 1114639" opacity="0.4">
              <g id="Grupo_1114638" data-name="Grupo 1114638">
                <g id="Grupo_1114637" data-name="Grupo 1114637" clip-path="url(#clip-path-37)">
                  <path id="Trazado_907174" data-name="Trazado 907174" d="M395.137,137.976a.078.078,0,0,1-.03-.01h.02Z" fill="#412976"/>
                </g>
              </g>
            </g>
            <path id="Trazado_907175" data-name="Trazado 907175" d="M413.091,227.747s-80.7-72.2-85.846-76.747-8.9-4.352-11.671-7.121-4.153-4.746-15.428-4.55-26.308-5.933-29.67-8.109-8.11-.594-11.275-1.824-11.275-.155-16.22,0-5.341-4.9-3.363-10.638,17.011-9.3,18.989-8.11,9.89-2.175,9.89-2.175c-1.186-4.155-.791-14.242-.791-14.242s-8.307-3.56-11.472-4.748a20.27,20.27,0,0,0-7.517-.79s.989-4.537,2.572-6.225,9.1-3.27,16.417-8.413,11.868-6.33,13.055-5.934,9.3,2.77,11.473,2.77,5.34-1.979,8.505-1.386,8.9,5.539,11.473,6.132,3.351,1.129,6.725,1.129c1.484,0,7.517,4.41,7.517,4.41a31.166,31.166,0,0,1,7.318,2.373c3.758,1.78,7.715,10.286,9.495,13.055s1.978,9.5,1.978,9.5,4.747,2.572,6.527,6.133S419.025,151,419.025,151" fill="none" stroke="#263238" stroke-linecap="round" stroke-linejoin="round" stroke-width="1"/>
            <path id="Trazado_907176" data-name="Trazado 907176" d="M267.706,94.231s.923-7.781,0-8.868" fill="none" stroke="#263238" stroke-linecap="round" stroke-linejoin="round" stroke-width="1"/>
            <path id="Trazado_907177" data-name="Trazado 907177" d="M292.1,75.176s13.451,11.393,14.505,12.092" fill="none" stroke="#263238" stroke-linecap="round" stroke-linejoin="round" stroke-width="1"/>
            <path id="Trazado_907178" data-name="Trazado 907178" d="M304.739,71.344c1.846,1.156,16.769,14.382,21.648,17.415" fill="none" stroke="#263238" stroke-linecap="round" stroke-linejoin="round" stroke-width="1"/>
            <path id="Trazado_907179" data-name="Trazado 907179" d="M345.245,106.1c-1.452-.857-5.276-2.7-5.671-4.154" fill="none" stroke="#263238" stroke-linecap="round" stroke-linejoin="round" stroke-width="1"/>
            <path id="Trazado_907180" data-name="Trazado 907180" d="M268.5,108.473s.791,3.231,0,4.813" fill="none" stroke="#263238" stroke-linecap="round" stroke-linejoin="round" stroke-width="1"/>
            <path id="Trazado_907181" data-name="Trazado 907181" d="M256.629,118.693s-1.846,5.143,2.505,8.571" fill="none" stroke="#263238" stroke-linecap="round" stroke-linejoin="round" stroke-width="1"/>
            <path id="Trazado_907182" data-name="Trazado 907182" d="M274.563,69.9a10.121,10.121,0,0,0-2.638,5.274" fill="none" stroke="#263238" stroke-linecap="round" stroke-linejoin="round" stroke-width="1"/>
            <path id="Trazado_907183" data-name="Trazado 907183" d="M253.992,85.362a9.067,9.067,0,0,0,5.143,5.272" fill="none" stroke="#263238" stroke-linecap="round" stroke-linejoin="round" stroke-width="1"/>
            <path id="Trazado_907184" data-name="Trazado 907184" d="M313.2,141.68a97.174,97.174,0,0,0-8.46-10.591" fill="none" stroke="#263238" stroke-linecap="round" stroke-linejoin="round" stroke-width="1"/>
          </g>
        </g>
        <g id="Grupo_1114652" data-name="Grupo 1114652">
          <g id="Grupo_1114651" data-name="Grupo 1114651" clip-path="url(#clip-path-2)">
            <path id="Trazado_907185" data-name="Trazado 907185" d="M36.533,405.374s64.6-42.462,68.558-47.942a42.385,42.385,0,0,1,7.121-7.97s1.846-15.824,6.593-24,6.593-14.242,8.7-18.462,12.132-7.384,15.033-8.967,7.912-4.747,10.813-4.747a16.232,16.232,0,0,1,6.33,1.846s9.758-5.011,14.242-1.846c0,0,11.077.528,13.714.264s6.594,1.582,6.594,1.582,6.593-4.733,11.076-2.894,6.616,2.631,6.737,5.268-1.11,11.6-1.11,11.6h-2.2s-7.385,9.6-8.176,11.528-5.011,12.472-5.011,12.472,5.539-4.22,8.967-7.384,9.5-9.231,15.824-10.814,10.814,1.956,10.814,5.726c0,0-7.385,5.879-8.967,7.725s-4.441,6.593-7.627,10.022-10.571,17.67-16.9,24.527-34.022,21.627-40.352,23.737c0,0-38.5,26.9-55.384,49.582,0,0-45.885.264-65.393-30.857" fill="#fff"/>
            <g id="Grupo_1114644" data-name="Grupo 1114644" opacity="0.4">
              <g id="Grupo_1114643" data-name="Grupo 1114643">
                <g id="Grupo_1114642" data-name="Grupo 1114642" clip-path="url(#clip-path-39)">
                  <path id="Trazado_907186" data-name="Trazado 907186" d="M161.8,380.846c.55.56,2.8.9,5.97.96a96.826,96.826,0,0,1-10.46,4.84s-25.18,17.59-43.74,36.32c6.39-10.17,18.66-22.86,23.22-25.5,6.35-3.7,18.55-15.64,18.55-15.64s4.63-2.83,6.46-.98" fill="#412976"/>
                </g>
              </g>
            </g>
            <g id="Grupo_1114647" data-name="Grupo 1114647" opacity="0.4">
              <g id="Grupo_1114646" data-name="Grupo 1114646">
                <g id="Grupo_1114645" data-name="Grupo 1114645" clip-path="url(#clip-path-40)">
                  <path id="Trazado_907187" data-name="Trazado 907187" d="M204.517,325.726a76.263,76.263,0,0,1,8.66-7.33,44.292,44.292,0,0,0-7.84,12.08c-1.22,6.63-12.66,20.3-12.66,20.3,3.69-11.86.52-14.24,1.56-17.67s1.71-11.84,1.71-11.84,2-3.45,4.11-4.24,7.65-14.77,8.68-16.66-6.83-4.97-8.94-5.23-2.9,3.42-7.12,5.23-9.52,5.13-11.47,7.07c-1.88,1.88-5.34,10.52-5.56,11.05.15-.6,2.54-10.23,3.16-12.15.52-1.6,5.59-4.55,7.47-5.6-3.12,1.45-4.87-1.3-7.47-3.8-2.79-2.68-6.95-3.53-11.5-2.14s-7.6,4.82-7.62,4.56-6.8-1.45-8.97-.8-7.28,2.95-7.28,2.95-4.62-2.66-12.21,4.83c-3.17,3.13-13.72,27.04-12.14,24.14,1.54-2.81,8.47-11.4,8.9-11.93-.49,1.12-14.48,32.54-17.34,34.49-2.9,1.99-3.69,9.08-13.97,14.89-9.78,5.51-47.5,29.22-51.24,31.57,17.86-11.86,56.62-37.85,59.65-42.06a42.619,42.619,0,0,1,7.12-7.97s1.85-15.83,6.6-24,6.59-14.25,8.7-18.47,12.13-7.38,15.03-8.96,7.92-4.75,10.82-4.75a16.221,16.221,0,0,1,6.33,1.85s9.76-5.02,14.24-1.85c0,0,11.08.53,13.71.26s6.6,1.59,6.6,1.59,6.59-4.74,11.07-2.9,6.62,2.63,6.74,5.27-1.108,11.6-1.108,11.6l-2.2,0s-7.38,9.61-8.17,11.53-5.01,12.47-5.01,12.47,5.53-4.22,8.96-7.38" fill="#412976"/>
                </g>
              </g>
            </g>
            <g id="Grupo_1114650" data-name="Grupo 1114650" opacity="0.4">
              <g id="Grupo_1114649" data-name="Grupo 1114649">
                <g id="Grupo_1114648" data-name="Grupo 1114648" clip-path="url(#clip-path-41)">
                  <path id="Trazado_907188" data-name="Trazado 907188" d="M231.157,320.636s-7.38,5.88-8.97,7.73c-.95,1.11-2.36,3.27-4.04,5.56a43.885,43.885,0,0,0,1.69-8.2,13.587,13.587,0,0,1,6.33-5.01,12.008,12.008,0,0,1,4.97-.38,1.513,1.513,0,0,1,.02.3" fill="#412976"/>
                </g>
              </g>
            </g>
            <path id="Trazado_907189" data-name="Trazado 907189" d="M36.533,405.374s64.6-42.462,68.558-47.942a42.385,42.385,0,0,1,7.121-7.97s1.846-15.824,6.593-24,6.593-14.242,8.7-18.462,12.132-7.384,15.033-8.967,7.912-4.747,10.813-4.747a16.232,16.232,0,0,1,6.33,1.846s9.758-5.011,14.242-1.846c0,0,11.077.528,13.714.264s6.594,1.582,6.594,1.582,6.593-4.733,11.076-2.894,6.616,2.631,6.737,5.268-1.11,11.6-1.11,11.6h-2.2s-7.385,9.6-8.176,11.528-5.011,12.472-5.011,12.472,5.539-4.22,8.967-7.384,9.5-9.231,15.824-10.814,10.814,1.956,10.814,5.726c0,0-7.385,5.879-8.967,7.725s-4.441,6.593-7.627,10.022-10.571,17.67-16.9,24.527-34.022,21.627-40.352,23.737c0,0-38.5,26.9-55.384,49.582" fill="none" stroke="#263238" stroke-linecap="round" stroke-linejoin="round" stroke-width="1"/>
            <path id="Trazado_907190" data-name="Trazado 907190" d="M195.552,333.11s1.582,7.912-1.582,15.033" fill="none" stroke="#263238" stroke-linecap="round" stroke-linejoin="round" stroke-width="1"/>
            <path id="Trazado_907191" data-name="Trazado 907191" d="M185.266,301.2a32.963,32.963,0,0,0,8.967-6.066" fill="none" stroke="#263238" stroke-linecap="round" stroke-linejoin="round" stroke-width="1"/>
            <path id="Trazado_907192" data-name="Trazado 907192" d="M208.739,309.11a18.931,18.931,0,0,0,1.714-5.538" fill="none" stroke="#263238" stroke-linecap="round" stroke-linejoin="round" stroke-width="1"/>
            <path id="Trazado_907193" data-name="Trazado 907193" d="M173.926,293.286a13.587,13.587,0,0,0-8.835,3.033" fill="none" stroke="#263238" stroke-linecap="round" stroke-linejoin="round" stroke-width="1"/>
            <path id="Trazado_907194" data-name="Trazado 907194" d="M159.684,295.132s-7.912,3.692-10.681,3.692-7.253,3.693-7.253,4.748" fill="none" stroke="#263238" stroke-linecap="round" stroke-linejoin="round" stroke-width="1"/>
            <path id="Trazado_907195" data-name="Trazado 907195" d="M112.212,349.462a54.869,54.869,0,0,0,5.67-11.472" fill="none" stroke="#263238" stroke-linecap="round" stroke-linejoin="round" stroke-width="1"/>
            <path id="Trazado_907196" data-name="Trazado 907196" d="M186.981,303.572s-5.011,1.319-6.725,5.538-9.627,18.858-9.627,18.858" fill="none" stroke="#263238" stroke-linecap="round" stroke-linejoin="round" stroke-width="1"/>
            <path id="Trazado_907197" data-name="Trazado 907197" d="M161.794,301.2c-1.055,2.505-12.923,24.527-12.923,24.527" fill="none" stroke="#263238" stroke-linecap="round" stroke-linejoin="round" stroke-width="1"/>
          </g>
        </g>
      </g>
    </g>
  </g>
</svg>
