<svg xmlns="http://www.w3.org/2000/svg" xmlns:xlink="http://www.w3.org/1999/xlink" width="93.722" height="93.723" viewBox="0 0 93.722 93.723">
  <defs>
    <filter id="Trazado_874925" x="0" y="0" width="93.722" height="93.723" filterUnits="userSpaceOnUse">
      <feOffset dy="3" input="SourceAlpha"/>
      <feGaussianBlur stdDeviation="3" result="blur"/>
      <feFlood flood-opacity="0.161"/>
      <feComposite operator="in" in2="blur"/>
      <feComposite in="SourceGraphic"/>
    </filter>
  </defs>
  <g id="Grupo_1114726" data-name="Grupo 1114726" transform="translate(-1041.051 -2111)">
    <g id="Grupo_1112904" data-name="Grupo 1112904" transform="translate(1050.051 2117)">
      <g id="Grupo_1109835" data-name="Grupo 1109835" transform="translate(0 0)">
        <g id="Grupo_1107913" data-name="Grupo 1107913" transform="translate(0 0)">
          <g transform="matrix(1, 0, 0, 1, -9, -6)" filter="url(#Trazado_874925)">
            <g id="Trazado_874925-2" data-name="Trazado 874925" transform="translate(9 6)" fill="#fd9826" opacity="0.859">
              <path d="M 37.86101913452148 74.2225341796875 C 32.95165252685547 74.2225341796875 28.1899299621582 73.26136779785156 23.7081298828125 71.36572265625 C 19.37846374511719 69.534423828125 15.48970794677734 66.91244506835938 12.1498966217041 63.57263565063477 C 8.810074806213379 60.23281097412109 6.188107967376709 56.34405517578125 4.356808185577393 52.01438903808594 C 2.461163520812988 47.53257751464844 1.499996900558472 42.77085494995117 1.499996900558472 37.86148834228516 C 1.499996900558472 32.95167922973633 2.461163520812988 28.18995666503906 4.356808185577393 23.70814514160156 C 6.188107967376709 19.37847900390625 8.810074806213379 15.48972225189209 12.1498966217041 12.14990043640137 C 15.48970794677734 8.810089111328125 19.37846374511719 6.188111305236816 23.7081298828125 4.3568115234375 C 28.1899299621582 2.461167097091675 32.95165252685547 1.500000476837158 37.86101913452148 1.500000476837158 C 42.7703857421875 1.500000476837158 47.53210830688477 2.461167097091675 52.01390838623047 4.3568115234375 C 56.34357452392578 6.188111305236816 60.23233032226562 8.810089111328125 63.57213973999023 12.14990043640137 C 66.91196441650391 15.48972225189209 69.53392791748047 19.37847900390625 71.36522674560547 23.70814514160156 C 73.26087188720703 28.18995666503906 74.22203826904297 32.95167922973633 74.22203826904297 37.86104583740234 C 74.22203826904297 42.77085494995117 73.26087188720703 47.53257751464844 71.36522674560547 52.01438903808594 C 69.53392791748047 56.34405517578125 66.91196441650391 60.23281097412109 63.57213973999023 63.57263565063477 C 60.23233032226562 66.91244506835938 56.34357452392578 69.534423828125 52.01390838623047 71.36572265625 C 47.53210830688477 73.26136779785156 42.7703857421875 74.2225341796875 37.86101913452148 74.2225341796875 Z" stroke="none"/>
              <path d="M 37.86101913452148 3.000007629394531 C 33.15349578857422 3.000007629394531 28.5883674621582 3.921302795410156 24.29245758056641 5.738327026367188 C 20.14159393310547 7.493995666503906 16.41309356689453 10.00801849365234 13.21055603027344 13.21056747436523 C 10.00800323486328 16.41310501098633 7.493980407714844 20.14160537719727 5.738319396972656 24.29246520996094 C 3.921295166015625 28.58837890625 2.999992370605469 33.15350341796875 2.999992370605469 37.86148071289062 C 2.999992370605469 42.56901550292969 3.921295166015625 47.13414001464844 5.738319396972656 51.4300537109375 C 7.493980407714844 55.58092880249023 10.00800323486328 59.30941772460938 13.21055603027344 62.51196670532227 C 16.41309356689453 65.71451568603516 20.14159393310547 68.22854614257812 24.29245758056641 69.98420715332031 C 28.5883674621582 71.80123138427734 33.15349578857422 72.72252655029297 37.86101913452148 72.72252655029297 C 42.56854248046875 72.72252655029297 47.1336669921875 71.80123138427734 51.42958068847656 69.98420715332031 C 55.5804443359375 68.22854614257812 59.30892944335938 65.71451568603516 62.51148223876953 62.51196670532227 C 65.71401977539062 59.30941772460938 68.22804260253906 55.58092880249023 69.98370361328125 51.4300537109375 C 71.80073547363281 47.13414001464844 72.72203063964844 42.56901550292969 72.72203063964844 37.86104202270508 C 72.72203063964844 33.15350341796875 71.80073547363281 28.58837890625 69.98370361328125 24.29246520996094 C 68.22804260253906 20.14160537719727 65.71401977539062 16.41310501098633 62.51148223876953 13.21056747436523 C 59.30892944335938 10.00801849365234 55.5804443359375 7.493995666503906 51.42958068847656 5.738327026367188 C 47.1336669921875 3.921302795410156 42.56854248046875 3.000007629394531 37.86101913452148 3.000007629394531 M 37.86101913452148 7.62939453125e-06 C 58.77108001708984 7.62939453125e-06 75.72203063964844 16.95096588134766 75.72203063964844 37.86104202270508 L 75.72203063964844 37.86148071289062 C 75.72203063964844 58.77156829833984 58.77108001708984 75.72252655029297 37.86101913452148 75.72252655029297 C 16.95095825195312 75.72252655029297 -7.62939453125e-06 58.77156829833984 -7.62939453125e-06 37.86148071289062 L -7.62939453125e-06 37.86104202270508 C -7.62939453125e-06 16.95096588134766 16.95095825195312 7.62939453125e-06 37.86101913452148 7.62939453125e-06 Z" stroke="none" fill="#fff"/>
            </g>
          </g>
          <g id="Trazado_874923" data-name="Trazado 874923" transform="translate(0 0)" fill="none">
            <path d="M37.861,0A37.861,37.861,0,0,1,75.722,37.861h0A37.861,37.861,0,1,1,0,37.861H0A37.861,37.861,0,0,1,37.861,0Z" stroke="none"/>
            <path d="M 37.86101913452148 3.000007629394531 C 33.15349578857422 3.000007629394531 28.5883674621582 3.921302795410156 24.29245758056641 5.738327026367188 C 20.14159393310547 7.493995666503906 16.41309356689453 10.00801849365234 13.21055603027344 13.21056747436523 C 10.00800323486328 16.41310501098633 7.493980407714844 20.14160537719727 5.738319396972656 24.29246520996094 C 3.921295166015625 28.58837890625 2.999992370605469 33.15350341796875 2.999992370605469 37.86148071289062 C 2.999992370605469 42.56901550292969 3.921295166015625 47.13414001464844 5.738319396972656 51.4300537109375 C 7.493980407714844 55.58092880249023 10.00800323486328 59.30941772460938 13.21055603027344 62.51196670532227 C 16.41309356689453 65.71451568603516 20.14159393310547 68.22854614257812 24.29245758056641 69.98420715332031 C 28.5883674621582 71.80123138427734 33.15349578857422 72.72252655029297 37.86101913452148 72.72252655029297 C 42.56854248046875 72.72252655029297 47.1336669921875 71.80123138427734 51.42958068847656 69.98420715332031 C 55.5804443359375 68.22854614257812 59.30892944335938 65.71451568603516 62.51148223876953 62.51196670532227 C 65.71401977539062 59.30941772460938 68.22804260253906 55.58092880249023 69.98370361328125 51.4300537109375 C 71.80073547363281 47.13414001464844 72.72203063964844 42.56901550292969 72.72203063964844 37.86104202270508 C 72.72203063964844 33.15350341796875 71.80073547363281 28.58837890625 69.98370361328125 24.29246520996094 C 68.22804260253906 20.14160537719727 65.71401977539062 16.41310501098633 62.51148223876953 13.21056747436523 C 59.30892944335938 10.00801849365234 55.5804443359375 7.493995666503906 51.42958068847656 5.738327026367188 C 47.1336669921875 3.921302795410156 42.56854248046875 3.000007629394531 37.86101913452148 3.000007629394531 M 37.86101913452148 7.62939453125e-06 C 58.77108001708984 7.62939453125e-06 75.72203063964844 16.95096588134766 75.72203063964844 37.86104202270508 L 75.72203063964844 37.86148071289062 C 75.72203063964844 58.77156829833984 58.77108001708984 75.72252655029297 37.86101913452148 75.72252655029297 C 16.95095825195312 75.72252655029297 -7.62939453125e-06 58.77156829833984 -7.62939453125e-06 37.86148071289062 L -7.62939453125e-06 37.86104202270508 C -7.62939453125e-06 16.95096588134766 16.95095825195312 7.62939453125e-06 37.86101913452148 7.62939453125e-06 Z" stroke="none" fill="#fff"/>
          </g>
        </g>
      </g>
    </g>
    <g id="Grupo_1114725" data-name="Grupo 1114725" transform="translate(1066.051 2154.219)">
      <g id="Grupo_1114723" data-name="Grupo 1114723" transform="translate(0.902 -23.219)">
        <g id="Grupo_1114722" data-name="Grupo 1114722" transform="translate(0 6.594)">
          <path id="Trazado_907580" data-name="Trazado 907580" d="M95.555,58.166v9.925H125.33V49.865H95.555Z" transform="translate(-87.836 -49.865)" fill="#fff" fill-rule="evenodd"/>
          <path id="Trazado_907581" data-name="Trazado 907581" d="M17.719,151.792v-9.925H12.206A2.212,2.212,0,0,0,10,144.073v28.071a2.212,2.212,0,0,0,2.206,2.206h1.1a2.212,2.212,0,0,0,2.206-2.206V154A2.212,2.212,0,0,1,17.719,151.792Z" transform="translate(-10 -133.566)" fill="#ffda8f" fill-rule="evenodd"/>
          <path id="Trazado_907582" data-name="Trazado 907582" d="M80.853,251.867H51.078a2.212,2.212,0,0,0-2.206,2.206v18.146a2.212,2.212,0,0,1-2.206,2.206H80.853a2.212,2.212,0,0,0,2.206-2.206V254.073A2.212,2.212,0,0,0,80.853,251.867Z" transform="translate(-43.359 -233.641)" fill="#ffc144" fill-rule="evenodd"/>
        </g>
        <circle id="Elipse_12824" data-name="Elipse 12824" cx="7.218" cy="7.218" r="7.218" transform="translate(26.962 10.206) rotate(-45)" fill="#ffc144"/>
        <path id="Trazado_907583" data-name="Trazado 907583" d="M161.279,109.926a7.213,7.213,0,0,1-2.4-4.06h-18.32v4.06Z" transform="translate(-128.775 -94.219)" fill="#8690af" fill-rule="evenodd"/>
        <path id="Trazado_907584" data-name="Trazado 907584" d="M151.382,195.865H140.555v21.294l1.8.9,1.8-.9,1.8.9,1.8-.9,1.8.9,1.8-.9Z" transform="translate(-128.775 -176.098)" fill="#e8eaf0" fill-rule="evenodd"/>
      </g>
      <g id="Grupo_1114724" data-name="Grupo 1114724" transform="translate(0 -21.112)">
        <path id="Trazado_907585" data-name="Trazado 907585" d="M46.2,8.23A8.136,8.136,0,0,0,31.327,3.719H8.622a.9.9,0,0,0-.9.9v7.4H3.108A3.111,3.111,0,0,0,0,15.128V43.2a3.111,3.111,0,0,0,3.108,3.108H38.4A3.111,3.111,0,0,0,41.5,43.2V25.053A3.114,3.114,0,0,0,39.3,22.079v-5.82A8.133,8.133,0,0,0,46.2,8.23Zm-8.12-6.316A6.323,6.323,0,0,1,44.392,8.23c-.318,8.367-12.316,8.365-12.632,0A6.323,6.323,0,0,1,38.076,1.915ZM30.419,5.524a8.136,8.136,0,0,0-.446,3.248h-4.1a.9.9,0,0,0,0,1.8H30.3a8.1,8.1,0,0,0,1.087,2.256h-17.8V10.576H17.75a.9.9,0,0,0,0-1.8H12.682a.9.9,0,0,0-.9.9v4.06a.9.9,0,0,0,.9.9H33.091a8.079,8.079,0,0,0,4.4,1.694v5.615H24.411V17.794a.9.9,0,0,0-.9-.9H12.682a.9.9,0,0,0-.9.9v4.151H9.524V5.524ZM22.607,18.7V38.531l-.9.451-1.4-.7a.9.9,0,0,0-.807,0l-1.4.7-1.4-.7a.9.9,0,0,0-.807,0l-1.4.7-.9-.451V18.7h9.023ZM5.514,25.053V43.2a1.3,1.3,0,0,1-1.3,1.3h-1.1a1.3,1.3,0,0,1-1.3-1.3V15.128a1.3,1.3,0,0,1,1.3-1.3H7.719v8.254A3.114,3.114,0,0,0,5.514,25.053Zm34.186,0V43.2a1.3,1.3,0,0,1-1.3,1.3H7.032a3.089,3.089,0,0,0,.287-1.3V25.053a1.3,1.3,0,0,1,1.3-1.3H11.78V39.088a.9.9,0,0,0,.5.807l1.8.9a.9.9,0,0,0,.807,0l1.4-.7,1.4.7a.9.9,0,0,0,.807,0l1.4-.7,1.4.7a.9.9,0,0,0,.807,0l1.8-.9a.9.9,0,0,0,.5-.807V23.75H38.4a1.3,1.3,0,0,1,1.3,1.3Z" transform="translate(0 -0.134)"/>
        <path id="Trazado_907586" data-name="Trazado 907586" d="M398.489,39.026l.825.342a.623.623,0,0,1-.476,1.151l-.413-.171a.9.9,0,1,0-.691,1.667l.413.171q.1.04.2.072v.317a.9.9,0,0,0,1.8,0v-.456A2.428,2.428,0,0,0,400,37.7l-.825-.342a.623.623,0,0,1,.477-1.151l.413.171a.9.9,0,0,0,.69-1.667l-.413-.171c-.065-.027-.131-.051-.2-.072v-.317a.9.9,0,0,0-1.8,0v.456a2.427,2.427,0,0,0,.144,4.418Z" transform="translate(-361.171 -30.267)"/>
        <path id="Trazado_907587" data-name="Trazado 907587" d="M296.516,187.671h4.962a.9.9,0,0,0,0-1.8h-4.962A.9.9,0,0,0,296.516,187.671Z" transform="translate(-268.946 -169.108)"/>
        <path id="Trazado_907588" data-name="Trazado 907588" d="M171.516,234.87h3.609a.9.9,0,0,0,0-1.8h-3.609A.9.9,0,0,0,171.516,234.87Z" transform="translate(-155.225 -212.048)"/>
        <path id="Trazado_907589" data-name="Trazado 907589" d="M171.516,282.071h3.609a.9.9,0,0,0,0-1.8h-3.609A.9.9,0,0,0,171.516,282.071Z" transform="translate(-155.225 -254.991)"/>
        <path id="Trazado_907590" data-name="Trazado 907590" d="M171.516,329.271h3.609a.9.9,0,0,0,0-1.8h-3.609A.9.9,0,0,0,171.516,329.271Z" transform="translate(-155.225 -297.932)"/>
        <path id="Trazado_907591" data-name="Trazado 907591" d="M171.516,376.471h3.609a.9.9,0,0,0,0-1.8h-3.609A.9.9,0,0,0,171.516,376.471Z" transform="translate(-155.225 -340.873)"/>
        <path id="Trazado_907592" data-name="Trazado 907592" d="M232.684,97.671a.9.9,0,0,0,0-1.8h0A.9.9,0,0,0,232.684,97.671Z" transform="translate(-210.873 -87.228)"/>
      </g>
    </g>
  </g>
</svg>
