<svg xmlns="http://www.w3.org/2000/svg" xmlns:xlink="http://www.w3.org/1999/xlink" width="272.36" height="274" viewBox="0 0 272.36 274">
  <defs>
    <clipPath id="clip-path">
      <rect id="Rectángulo_406519" data-name="Rectángulo 406519" width="175.328" height="240.547" fill="none"/>
    </clipPath>
    <clipPath id="clip-path-2">
      <rect id="Rectángulo_406520" data-name="Rectángulo 406520" width="228.36" height="203.766" fill="none"/>
    </clipPath>
    <clipPath id="clip-path-3">
      <rect id="Rectángulo_406521" data-name="Rectángulo 406521" width="78.033" height="71.066" fill="none"/>
    </clipPath>
  </defs>
  <g id="Grupo_1114473" data-name="Grupo 1114473" transform="translate(-308.051 -1840)">
    <rect id="Rectángulo_405756" data-name="Rectángulo 405756" width="248" height="274" rx="8" transform="translate(308.051 1840)" fill="#fbfbf9"/>
    <g id="Grupo_1114468" data-name="Grupo 1114468" transform="translate(308.051 1840)">
      <g id="Grupo_1114467" data-name="Grupo 1114467" clip-path="url(#clip-path)">
        <path id="Trazado_906814" data-name="Trazado 906814" d="M185.294,277.3H32.9a5.511,5.511,0,0,1-5.51-5.511V70.566a5.51,5.51,0,0,1,5.51-5.51H185.294a5.511,5.511,0,0,1,5.511,5.51V271.792a5.511,5.511,0,0,1-5.511,5.511" transform="translate(-15.476 -36.756)" fill="#9d83c6"/>
        <path id="Trazado_906815" data-name="Trazado 906815" d="M175.153,279.73H58.525V95.6H194.851V260.032a19.7,19.7,0,0,1-19.7,19.7" transform="translate(-33.066 -54.016)" fill="#ead5cc"/>
        <path id="Trazado_906817" data-name="Trazado 906817" d="M317.274,457.61h0a15.187,15.187,0,0,1-15.187-15.187V410.444h30.374v31.979a15.187,15.187,0,0,1-15.187,15.187" transform="translate(-170.676 -231.896)" fill="#ead5cc"/>
        <path id="Trazado_906818" data-name="Trazado 906818" d="M137.612,170.782a16.565,16.565,0,1,1-16.565-16.565,16.565,16.565,0,0,1,16.565,16.565" transform="translate(-59.031 -87.131)" fill="#fff"/>
        <path id="Trazado_906819" data-name="Trazado 906819" d="M137.612,265.188a16.565,16.565,0,1,1-16.565-16.565,16.565,16.565,0,0,1,16.565,16.565" transform="translate(-59.031 -140.469)" fill="#fff"/>
        <path id="Trazado_906820" data-name="Trazado 906820" d="M137.612,359.593a16.565,16.565,0,1,1-16.565-16.565,16.565,16.565,0,0,1,16.565,16.565" transform="translate(-59.031 -193.807)" fill="#fff"/>
        <path id="Trazado_906821" data-name="Trazado 906821" d="M132.291,188.7h0a1.4,1.4,0,0,1-1.04-.466l-6.642-7.449a.437.437,0,0,1,.651-.582l6.642,7.449a.523.523,0,0,0,.78,0l10.613-11.9a.436.436,0,0,1,.651.581l-10.612,11.9a1.4,1.4,0,0,1-1.042.466" transform="translate(-70.34 -99.216)" fill="#1b0202"/>
        <path id="Trazado_906822" data-name="Trazado 906822" d="M126.912,188.7a12.049,12.049,0,1,1,7.671-21.341.436.436,0,0,1-.556.673,11.177,11.177,0,1,0,4.06,8.619.437.437,0,0,1,.873,0A12.062,12.062,0,0,1,126.912,188.7" transform="translate(-64.896 -92.997)" fill="#1b0202"/>
        <path id="Trazado_906823" data-name="Trazado 906823" d="M132.291,377.513h0a1.391,1.391,0,0,1-1.04-.467l-6.642-7.447a.436.436,0,0,1,.651-.581l6.642,7.448a.523.523,0,0,0,.78,0l10.613-11.9a.436.436,0,0,1,.651.581l-10.612,11.9a1.4,1.4,0,0,1-1.042.466" transform="translate(-70.34 -205.892)" fill="#1b0202"/>
        <path id="Trazado_906824" data-name="Trazado 906824" d="M126.912,377.508a12.049,12.049,0,1,1,7.671-21.341.436.436,0,0,1-.556.673,11.176,11.176,0,1,0,4.06,8.618.437.437,0,0,1,.873,0,12.062,12.062,0,0,1-12.049,12.049" transform="translate(-64.896 -199.673)" fill="#1b0202"/>
        <path id="Trazado_906825" data-name="Trazado 906825" d="M126.912,283.1a12.049,12.049,0,1,1,6.4-22.261.437.437,0,0,1-.464.74,11.178,11.178,0,1,0,5.24,9.471.437.437,0,0,1,.873,0A12.062,12.062,0,0,1,126.912,283.1" transform="translate(-64.896 -146.334)" fill="#1b0202"/>
        <path id="Trazado_906826" data-name="Trazado 906826" d="M127.819,280.64a.437.437,0,0,1-.265-.783l17.779-13.608a.437.437,0,0,1,.53.694L128.084,280.55a.434.434,0,0,1-.265.09" transform="translate(-71.97 -150.377)" fill="#1b0202"/>
        <path id="Trazado_906827" data-name="Trazado 906827" d="M140.152,285.047a.438.438,0,0,1-.279-.1L127.54,274.731a.436.436,0,0,1,.557-.672l12.333,10.215a.436.436,0,0,1-.279.772" transform="translate(-71.97 -154.784)" fill="#1b0202"/>
        <path id="Trazado_906828" data-name="Trazado 906828" d="M256.584,188.705h-52.2a.437.437,0,0,1,0-.873h52.2a.437.437,0,0,1,0,.873" transform="translate(-115.227 -106.123)" fill="#1b0202"/>
        <path id="Trazado_906829" data-name="Trazado 906829" d="M229.942,177.648H204.38a.437.437,0,0,1,0-.873h25.562a.437.437,0,0,1,0,.873" transform="translate(-115.226 -99.876)" fill="#1b0202"/>
        <path id="Trazado_906830" data-name="Trazado 906830" d="M256.584,199.764h-52.2a.437.437,0,0,1,0-.873h52.2a.437.437,0,0,1,0,.873" transform="translate(-115.227 -112.371)" fill="#1b0202"/>
        <path id="Trazado_906831" data-name="Trazado 906831" d="M256.584,288.19h-52.2a.437.437,0,0,1,0-.873h52.2a.437.437,0,0,1,0,.873" transform="translate(-115.227 -162.331)" fill="#1b0202"/>
        <path id="Trazado_906832" data-name="Trazado 906832" d="M229.942,277.133H204.38a.437.437,0,0,1,0-.873h25.562a.437.437,0,0,1,0,.873" transform="translate(-115.226 -156.084)" fill="#1b0202"/>
        <path id="Trazado_906833" data-name="Trazado 906833" d="M256.584,299.248h-52.2a.437.437,0,0,1,0-.873h52.2a.437.437,0,0,1,0,.873" transform="translate(-115.227 -168.579)" fill="#1b0202"/>
        <path id="Trazado_906834" data-name="Trazado 906834" d="M256.584,384.439h-52.2a.437.437,0,0,1,0-.873h52.2a.437.437,0,0,1,0,.873" transform="translate(-115.227 -216.71)" fill="#1b0202"/>
        <path id="Trazado_906835" data-name="Trazado 906835" d="M229.942,373.38H204.38a.437.437,0,0,1,0-.873h25.562a.437.437,0,0,1,0,.873" transform="translate(-115.226 -210.462)" fill="#1b0202"/>
        <path id="Trazado_906836" data-name="Trazado 906836" d="M256.584,395.5h-52.2a.437.437,0,0,1,0-.873h52.2a.437.437,0,0,1,0,.873" transform="translate(-115.227 -222.958)" fill="#1b0202"/>
        <rect id="Rectángulo_406518" data-name="Rectángulo 406518" width="70.472" height="27.916" transform="translate(58.386 21.618)" fill="#ffb850"/>
        <path id="Trazado_906837" data-name="Trazado 906837" d="M208.275,23.235A23.235,23.235,0,1,1,185.039,0a23.235,23.235,0,0,1,23.235,23.235" transform="translate(-91.417)" fill="#ffb850"/>
        <path id="Trazado_906838" data-name="Trazado 906838" d="M177.541,49.565H133.652a.435.435,0,0,1,0-.87h43.889a.435.435,0,0,1,0,.87" transform="translate(-75.266 -27.512)" fill="#1c0102"/>
        <path id="Trazado_906839" data-name="Trazado 906839" d="M270.191,49.565h-19.6a.435.435,0,0,1,0-.87h19.6a.435.435,0,0,1,0,.87" transform="translate(-141.333 -27.512)" fill="#1c0102"/>
        <path id="Trazado_906840" data-name="Trazado 906840" d="M221.019,113.739H186.8a.435.435,0,0,1,0-.87h34.215a.435.435,0,1,1,0,.87" transform="translate(-105.296 -63.77)" fill="#1c0102"/>
        <path id="Trazado_906841" data-name="Trazado 906841" d="M97.82,533.348H65.951a.435.435,0,1,1,0-.87H97.82a.435.435,0,1,1,0,.87" transform="translate(-37.016 -300.844)" fill="#fff"/>
        <path id="Trazado_906842" data-name="Trazado 906842" d="M173.194,533.348H156.342a.435.435,0,1,1,0-.87h16.852a.435.435,0,1,1,0,.87" transform="translate(-88.086 -300.844)" fill="#fff"/>
      </g>
    </g>
    <g id="Grupo_1114470" data-name="Grupo 1114470" transform="translate(352.051 1910.234)">
      <g id="Grupo_1114469" data-name="Grupo 1114469" clip-path="url(#clip-path-2)">
        <path id="Trazado_906843" data-name="Trazado 906843" d="M225.606,109.729s28.7,12.138,34.2,17.639c0,0-27.241,16.553-59.666,8.264-23.422-5.988,25.47-25.9,25.47-25.9" transform="translate(-65.605 -37.148)" fill="#ff926c"/>
        <path id="Trazado_906844" data-name="Trazado 906844" d="M81.914,111.632s-26.661-4.38-35.344,2.174c0,0,11.882,11.255,10.995,11.054s23.3-11.253,23.3-11.253Z" transform="translate(-15.766 -37.307)" fill="#c43737"/>
        <path id="Trazado_906845" data-name="Trazado 906845" d="M3.6,37.121.073,41.83A.359.359,0,0,0,.4,42.4l5.857-.577,65.361-36.8a2.474,2.474,0,0,0,.941-3.369l-.223-.4A2.473,2.473,0,0,0,68.964.318Z" transform="translate(0 0)" fill="#1b0202"/>
        <path id="Trazado_906846" data-name="Trazado 906846" d="M45.437,90.617A42.089,42.089,0,0,0,32.8,59.784a24.163,24.163,0,0,1-4.059-4.419,9.513,9.513,0,0,1-.5-8.87,6.787,6.787,0,0,0,.788-2.029c.229-1.965-2.159-3.369-3.9-4.3.632-.768.122-2.048.722-2.842a2.333,2.333,0,0,1,.942-.642,17.454,17.454,0,0,1,7.247-1.759,10.026,10.026,0,0,1,6.858,2.691,18.3,18.3,0,0,1,7.017-2.582A108.777,108.777,0,0,1,71.489,90.316c-1.3.334-2.322.222-3.619.556A59.385,59.385,0,0,1,57.14,92.94a24.178,24.178,0,0,1-11.7-2.323" transform="translate(-8.505 -11.822)" fill="#ff926c"/>
        <path id="Trazado_906847" data-name="Trazado 906847" d="M54.453,41.835a.624.624,0,0,0,.341-1.145A25.329,25.329,0,0,0,48.416,37.7a.636.636,0,0,0-.779.414.625.625,0,0,0,.414.78,24.032,24.032,0,0,1,6.06,2.842.608.608,0,0,0,.341.1" transform="translate(-16.118 -12.754)" fill="#1b0202"/>
        <path id="Trazado_906848" data-name="Trazado 906848" d="M37.968,46.1a.624.624,0,0,0,.19-1.218,7.783,7.783,0,0,1-2.027-1.142c-.232-.161-.465-.324-.7-.478a13.831,13.831,0,0,0-10.55-1.837.623.623,0,0,0-.463.75.61.61,0,0,0,.75.463,12.558,12.558,0,0,1,9.581,1.669c.227.148.446.3.667.455a8.928,8.928,0,0,0,2.361,1.308.652.652,0,0,0,.19.029" transform="translate(-8.261 -13.905)" fill="#362b29"/>
        <path id="Trazado_906849" data-name="Trazado 906849" d="M33.291,51.8a.624.624,0,0,0,.443-1.062l-2.192-2.207a.624.624,0,0,0-.887.877l2.193,2.207a.617.617,0,0,0,.443.185" transform="translate(-10.317 -16.367)" fill="#1b0202"/>
        <path id="Trazado_906850" data-name="Trazado 906850" d="M30.733,57.786a.643.643,0,0,0,.3-.073.627.627,0,0,0,.255-.845,9.935,9.935,0,0,0-1.943-2.539.624.624,0,0,0-.858.906,8.654,8.654,0,0,1,1.7,2.222.625.625,0,0,0,.55.329" transform="translate(-9.577 -18.335)" fill="#1b0202"/>
        <path id="Trazado_906851" data-name="Trazado 906851" d="M38.365,56.771a.624.624,0,0,0,.565-.358c1.3-2.755,4.088-4.36,7.33-6.027l2.792-1.44c1.429-.736,2.84-1.386,4.151-1.128a.625.625,0,1,0,.233-1.228c-1.71-.321-3.322.407-4.957,1.248L45.69,49.276c-2.66,1.369-6.3,3.242-7.89,6.606a.626.626,0,0,0,.3.831.636.636,0,0,0,.265.058" transform="translate(-12.777 -15.747)" fill="#1b0202"/>
        <path id="Trazado_906852" data-name="Trazado 906852" d="M208.243,126.377a181.682,181.682,0,0,1,20.582,19.242c5.773,6.077,11.6,12.566,14.012,20.592,2.924,9.713.421,20.205-3.027,29.746a154.926,154.926,0,0,1-18.939,36.4c.86,2.336,1.546,7.135,2.406,9.471H121.536c-4.69-12.1-8.484-27.385-11.742-39.949-4.467,2.934-29.8,7.1-43.463-6.05-5.222-5.026-18.757-22.441-19.762-81.268,10,3.87,25.787,2.821,35.295-2.132.963,9.472,2.957,19.932,3.92,29.4.445,4.378,1.9,9.871,6.267,10.445,2.146.282,4.224-.861,5.913-2.214,4.938-3.954,8.049-9.928,13.277-13.492,4.3-2.93,9.6-3.932,14.764-4.577,27.04-3.377,55.919,1.445,82.237-5.62" transform="translate(-15.766 -38.063)" fill="#f45a56"/>
        <path id="Trazado_906853" data-name="Trazado 906853" d="M160.316,56.067a23.852,23.852,0,0,1-6.94-8.469c-1.362-2.791-1.878-6.746.69-8.491,1.1-.749,2.515-.869,3.7-1.483,3.264-1.694,3.965-6.607,7.386-7.958,3.369-1.331,6.746,1.612,10.126,2.916,3.43,1.324,7.261.935,10.892.359,2.66-.422,5.376-.935,8.025-.446a12.493,12.493,0,0,1,5.511,2.614,14.7,14.7,0,0,1,4.793,7.081c.808,2.634.883,5.522,2.215,7.934,1.279,2.316,3.545,3.885,5.384,5.788,6.486,6.714,6.939,18.371.994,25.568-1.564,1.894-3.477,3.472-5.083,5.331-2.8,3.236-4.567,7.207-6.717,10.9s-4.889,7.306-8.8,9.045c-3.338,1.486-7.129,1.434-10.782,1.356l-15.256-.326c-3.969-.085-7.942-.17-11.892-.564a30.272,30.272,0,0,0-6.607-.265,13.7,13.7,0,0,0-6.611,3.022,59.532,59.532,0,0,1,5-12.037c1.951-3.7,4.884-7.043,8.738-8.678,3.98-1.688,8.622-1.454,12.464-3.436,2.742-1.414,4.824-3.832,7.379-5.561,1.834-1.241,3.9-2.114,5.745-3.332A18.2,18.2,0,0,0,184.7,50.155c-1.754-2.125-4.668-3.938-7.146-2.734-2.369,1.15-2.987,4.429-5.245,5.784a8.19,8.19,0,0,1-2.58.848c-2.888.6-6.523,1.41-9.411,2.014" transform="translate(-47.851 -9.929)" fill="#1b0202"/>
        <path id="Trazado_906854" data-name="Trazado 906854" d="M201.956,70.5a17.774,17.774,0,1,1-17.775-17.775A17.775,17.775,0,0,1,201.956,70.5" transform="translate(-56.336 -17.851)" fill="#ff926c"/>
        <path id="Trazado_906855" data-name="Trazado 906855" d="M222.769,83.125c-.918,2.551-5.681,4.152-7.861,3.367s-.953-3.658-.035-6.209,3.43-3.983,5.611-3.2,3.2,3.49,2.285,6.041" transform="translate(-72.343 -26.024)" fill="#ff926c"/>
        <path id="Trazado_906856" data-name="Trazado 906856" d="M164.579,79.285c-.392.243-.873.383-1.077.9a1.78,1.78,0,0,0,.591,1.861,14.541,14.541,0,0,1,1.466.976c.263.269.529.663.852.584.344-.085.489-.649.538-1.125a11.454,11.454,0,0,0-.215-3.643c-.1-.446-.216-1.2-.544-1.437-.38-.278-.458.339-.616.681a2.77,2.77,0,0,1-.994,1.2" transform="translate(-55.324 -26.18)" fill="#ff926c"/>
        <path id="Trazado_906857" data-name="Trazado 906857" d="M177.055,64.209c-.347.667-.005,1.531,1.621,2.377s3.922,1.352,4.269.685-1.387-2.256-3.014-3.1-2.53-.628-2.877.038" transform="translate(-59.9 -21.538)" fill="#1b0202"/>
        <path id="Trazado_906858" data-name="Trazado 906858" d="M174.319,74.674c0,1.179.5,2.134,1.124,2.134s1.124-.955,1.124-2.134-.5-2.134-1.124-2.134-1.124.956-1.124,2.134" transform="translate(-59.015 -24.558)" fill="#1b0202"/>
        <path id="Trazado_906859" data-name="Trazado 906859" d="M187.778,52.122a21.59,21.59,0,0,1,7.4,4.454,9.988,9.988,0,0,1,3.162,7.8,16.854,16.854,0,0,0-.323,3.129,2.366,2.366,0,0,0,1.818,2.268,2.73,2.73,0,0,0,1.9-.748c1.373-1.1,2.469-2.656,4.143-3.192a6.328,6.328,0,0,0,1.794-.613,2.356,2.356,0,0,0,.818-2.267,6.492,6.492,0,0,0-.983-2.321c-2.816-4.721-6.3-9.162-10.849-12.24s-10.3-4.674-15.655-3.446c-1.694.388-3.47,1.18-4.215,2.749-.63,1.326.065,3.9,1.839,3.832a12.093,12.093,0,0,0,2.1-.487,8.489,8.489,0,0,1,3.17-.062,18.065,18.065,0,0,1,3.881,1.142" transform="translate(-59.775 -15.076)" fill="#1b0202"/>
        <path id="Trazado_906860" data-name="Trazado 906860" d="M172.619,84.481c0,1.683,1.729,3.048,3.862,3.048s3.862-1.365,3.862-3.048-1.729-3.048-3.862-3.048-3.862,1.365-3.862,3.048" transform="translate(-58.439 -27.569)" fill="#e45a53"/>
        <path id="Trazado_906861" data-name="Trazado 906861" d="M146.207,109.557a.617.617,0,0,0,.46-.2,15.478,15.478,0,0,1,11.909-4.981,33.838,33.838,0,0,1,9.052,2.117c4.475,1.484,9.1,3.018,13.646,1.469,4.211-1.433,6.925-5.042,9.549-8.535a44.871,44.871,0,0,1,4.2-5.059,41.433,41.433,0,0,1,5.472-4.285,35,35,0,0,0,6.642-5.5,18.33,18.33,0,0,0,1.362-21.6c-.656-.98-1.411-1.9-2.139-2.782a23.947,23.947,0,0,1-2.7-3.729,24.182,24.182,0,0,1-1.5-3.622,31.309,31.309,0,0,0-1.225-3.108,16.18,16.18,0,0,0-13.327-9.028.307.307,0,0,0-.042,0,.623.623,0,0,0-.041,1.244,15.118,15.118,0,0,1,12.284,8.324,30.078,30.078,0,0,1,1.174,2.986,25.764,25.764,0,0,0,1.581,3.8A25.486,25.486,0,0,0,205.4,61c.708.863,1.445,1.754,2.063,2.68A17.053,17.053,0,0,1,206.2,83.764a34.128,34.128,0,0,1-6.416,5.29,42.679,42.679,0,0,0-5.634,4.419,46.086,46.086,0,0,0-4.324,5.2c-2.623,3.493-5.1,6.794-8.949,8.1-4.153,1.41-8.377.01-12.854-1.474a34.833,34.833,0,0,0-9.4-2.18,16.807,16.807,0,0,0-12.879,5.391.621.621,0,0,0,.042.879.613.613,0,0,0,.419.163" transform="translate(-49.287 -13.784)" fill="#664d4a"/>
        <path id="Trazado_906862" data-name="Trazado 906862" d="M179.586,123.238a.651.651,0,0,0,.122-.013l5.554-1.1a16.049,16.049,0,0,0,4.158-1.226c3.152-1.583,4.769-4.772,6.335-7.853.607-1.191,1.233-2.424,1.931-3.524a38.312,38.312,0,0,1,4.9-5.812c.726-.753,1.451-1.505,2.15-2.277,2-2.215,4.714-5.634,5.174-9.776a.62.62,0,0,0-.55-.687.63.63,0,0,0-.687.55c-.321,2.877-1.868,5.761-4.862,9.074-.689.765-1.406,1.507-2.122,2.251a39.192,39.192,0,0,0-5.059,6.009c-.731,1.15-1.372,2.409-1.99,3.627-1.542,3.037-3,5.9-5.785,7.3a14.908,14.908,0,0,1-3.842,1.118l-5.554,1.1a.624.624,0,0,0,.122,1.235" transform="translate(-60.587 -30.797)" fill="#664d4a"/>
        <path id="Trazado_906863" data-name="Trazado 906863" d="M176.233,167.8a.6.6,0,0,0,.112-.01.626.626,0,0,0,.5-.726,39.976,39.976,0,0,0-8.124-17.785.624.624,0,0,0-.974.779,38.7,38.7,0,0,1,7.871,17.23.624.624,0,0,0,.614.511" transform="translate(-56.744 -50.46)" fill="#1b0202"/>
        <path id="Trazado_906864" data-name="Trazado 906864" d="M102.3,188.253a3.315,3.315,0,0,0,1-.156,2.949,2.949,0,0,0,2.017-1.975c.4-1.464-.343-2.826-1-4.027l-.222-.409c-.551-1.038-.923-2.494-.156-3.192a1.734,1.734,0,0,1,1.2-.38,2.74,2.74,0,0,1,2.416,1.664.623.623,0,0,0,1.155-.468,4.012,4.012,0,0,0-3.547-2.443,3.064,3.064,0,0,0-2.058.7c-1.3,1.179-.909,3.2-.11,4.7l.229.423c.57,1.042,1.16,2.119.892,3.1a1.874,1.874,0,0,1-2.8.882.624.624,0,0,0-.8.96,2.778,2.778,0,0,0,1.791.621" transform="translate(-33.952 -59.877)" fill="#1b0202"/>
        <path id="Trazado_906865" data-name="Trazado 906865" d="M133.568,237.307a.489.489,0,0,0,.1-.01,51.235,51.235,0,0,0,15.314-4.711A27.818,27.818,0,0,0,160.753,221.7a44.627,44.627,0,0,0,3.825-10.983.623.623,0,0,0-1.208-.307,43.7,43.7,0,0,1-3.707,10.681,26.548,26.548,0,0,1-11.246,10.382,50.106,50.106,0,0,1-14.95,4.594.623.623,0,0,0,.1,1.238" transform="translate(-45.008 -71.073)" fill="#1b0202"/>
        <path id="Trazado_906866" data-name="Trazado 906866" d="M302.339,250.646a.581.581,0,0,0,.146-.017.625.625,0,0,0,.46-.753l-14.235-58.624c-2.533-10.433-4.448-20.5-.114-28.961a.625.625,0,0,0-1.111-.57c-4.528,8.847-2.577,19.156.013,29.822l14.235,58.625a.626.626,0,0,0,.607.478" transform="translate(-96.408 -54.635)" fill="#1b0202"/>
        <path id="Trazado_906867" data-name="Trazado 906867" d="M306.252,223.6a.623.623,0,0,0,.1-1.238,1.745,1.745,0,0,1-1.318-1.588,2.726,2.726,0,0,1,.992-2.168,7.949,7.949,0,0,1,.682-.517,5.845,5.845,0,0,0,1.218-1.038,2.523,2.523,0,0,0,.57-1.827,1.679,1.679,0,0,0-.643-1.177c-.96-.738-2.246-.136-2.733.093l-4.294,2.012a.623.623,0,1,0,.526,1.13l4.295-2.012c.736-.341,1.206-.421,1.447-.233a.427.427,0,0,1,.163.326,1.292,1.292,0,0,1-.29.894,4.972,4.972,0,0,1-.974.811,9.279,9.279,0,0,0-.789.6,3.939,3.939,0,0,0-1.411,3.205,2.99,2.99,0,0,0,2.355,2.719.49.49,0,0,0,.1.01" transform="translate(-101.721 -72.345)" fill="#1b0202"/>
      </g>
    </g>
    <g id="Grupo_1114471" data-name="Grupo 1114471" transform="translate(466.231 1849.887)">
      <path id="Trazado_906868" data-name="Trazado 906868" d="M54.252,74.712,64.876,60.48l-13.3,3.814Z" transform="translate(-9.287 -34.161)" fill="#d68a25"/>
      <path id="Trazado_906869" data-name="Trazado 906869" d="M35.747,0,14.5,36.066,0,30.134Z" transform="translate(42.286)" fill="#ffb850"/>
      <path id="Trazado_906870" data-name="Trazado 906870" d="M44.138,0,8.391,30.134,11.07,40.551,0,26.652Z" transform="translate(33.895)" fill="#1c0102"/>
      <path id="Trazado_906871" data-name="Trazado 906871" d="M54.774,0,10.636,26.652,0,26.39Z" transform="translate(23.259)" fill="#ffb850"/>
      <g id="Grupo_1114472" data-name="Grupo 1114472">
        <g id="Grupo_1114471-2" data-name="Grupo 1114471" clip-path="url(#clip-path-3)">
          <path id="Trazado_906872" data-name="Trazado 906872" d="M93.43,117.995l2.471-2.279a.42.42,0,0,0-.569-.618l-2.471,2.279a.42.42,0,0,0,.389.716.416.416,0,0,0,.18-.1m4.942-4.558,2.471-2.279a.42.42,0,1,0-.569-.618L97.8,112.818a.42.42,0,0,0,.569.618m4.941-4.559,2.472-2.279a.42.42,0,0,0-.569-.618l-2.471,2.279a.42.42,0,0,0,.389.716.413.413,0,0,0,.18-.1m4.943-4.559,2.47-2.279a.42.42,0,1,0-.569-.618l-2.471,2.279a.42.42,0,0,0,.389.716.413.413,0,0,0,.18-.1M113.2,99.76l2.47-2.279a.42.42,0,0,0-.571-.618l-2.47,2.279a.42.42,0,0,0,.39.716.427.427,0,0,0,.181-.1M118.14,95.2l2.47-2.279a.421.421,0,0,0-.571-.618l-2.47,2.279a.421.421,0,0,0,.571.618m4.941-4.559,2.471-2.279a.42.42,0,1,0-.569-.618l-2.471,2.279a.42.42,0,1,0,.569.618m4.942-4.558,2.247-2.073a.42.42,0,0,0-.569-.618l-2.247,2.073a.42.42,0,0,0,.389.716.416.416,0,0,0,.18-.1" transform="translate(-92.725 -47.04)" fill="#1c0102"/>
        </g>
      </g>
    </g>
  </g>
</svg>
