<svg xmlns="http://www.w3.org/2000/svg" xmlns:xlink="http://www.w3.org/1999/xlink" width="295" height="328.12" viewBox="0 0 295 328.12">
  <defs>
    <clipPath id="clip-path">
      <rect id="Rectángulo_406651" data-name="Rectángulo 406651" width="161.656" height="202.245" fill="none"/>
    </clipPath>
    <clipPath id="clip-path-2">
      <rect id="Rectángulo_406623" data-name="Rectángulo 406623" width="251.494" height="255.733" fill="none"/>
    </clipPath>
    <clipPath id="clip-path-5">
      <rect id="Rectángulo_406619" data-name="Rectángulo 406619" width="62.933" height="38.956" fill="none"/>
    </clipPath>
    <clipPath id="clip-path-6">
      <rect id="Rectángulo_406620" data-name="Rectángulo 406620" width="22.329" height="22.621" fill="none"/>
    </clipPath>
    <clipPath id="clip-path-7">
      <rect id="Rectángulo_406621" data-name="Rectángulo 406621" width="24.137" height="23.048" fill="none"/>
    </clipPath>
    <clipPath id="clip-path-8">
      <rect id="Rectángulo_406652" data-name="Rectángulo 406652" width="91.06" height="88.384" fill="none"/>
    </clipPath>
  </defs>
  <g id="Grupo_1114710" data-name="Grupo 1114710" transform="translate(-285.051 -3286)">
    <rect id="Rectángulo_405789" data-name="Rectángulo 405789" width="295" height="328.12" rx="8" transform="translate(285.051 3286)" fill="#e2dacc"/>
    <g id="Grupo_1114707" data-name="Grupo 1114707" transform="translate(299.172 3296)">
      <path id="Trazado_907383" data-name="Trazado 907383" d="M.281,16.166.4,202.064H146.368l.062-185.9Z" fill="#fff"/>
      <rect id="Rectángulo_406624" data-name="Rectángulo 406624" width="146.149" height="35.777" transform="translate(0.219 15.502)" fill="#f5f5f5"/>
      <rect id="Rectángulo_406625" data-name="Rectángulo 406625" width="55.695" height="9.012" transform="translate(7.521 45.87)" fill="#9d978d"/>
      <rect id="Rectángulo_406626" data-name="Rectángulo 406626" width="130.571" height="12.943" transform="translate(7.521 90.755)" fill="#fafafa"/>
      <rect id="Rectángulo_406627" data-name="Rectángulo 406627" width="130.571" height="12.944" transform="translate(7.521 103.681)" fill="#e0e0e0"/>
      <rect id="Rectángulo_406628" data-name="Rectángulo 406628" width="0.25" height="2.368" transform="translate(13.479 48.909)" fill="#fff"/>
      <g id="Grupo_1114706" data-name="Grupo 1114706">
        <g id="Grupo_1114705" data-name="Grupo 1114705" clip-path="url(#clip-path)">
          <path id="Trazado_907384" data-name="Trazado 907384" d="M16.088,50.246v1.032h-.24V50.27a.5.5,0,0,0-.535-.568.583.583,0,0,0-.622.642v.934h-.24V49.5h.23v.329a.745.745,0,0,1,.676-.342.681.681,0,0,1,.731.761" fill="#fff"/>
          <path id="Trazado_907385" data-name="Trazado 907385" d="M18.2,49.5l-.791,1.779h-.247L16.376,49.5h.251l.666,1.515.673-1.515Z" fill="#fff"/>
          <path id="Trazado_907386" data-name="Trazado 907386" d="M18.313,50.388a.9.9,0,1,1,.907.907.875.875,0,0,1-.907-.907m1.566,0a.662.662,0,1,0-.659.694.649.649,0,0,0,.659-.694" fill="#fff"/>
          <path id="Trazado_907387" data-name="Trazado 907387" d="M20.56,48.937a.174.174,0,0,1,.176-.17.171.171,0,0,1,.176.166.176.176,0,0,1-.352,0m.054.561h.24v1.779h-.24Z" fill="#fff"/>
          <path id="Trazado_907388" data-name="Trazado 907388" d="M21.345,50.388a.876.876,0,0,1,.917-.9.776.776,0,0,1,.7.352l-.18.121a.6.6,0,0,0-.517-.263.694.694,0,0,0,0,1.387.6.6,0,0,0,.517-.261l.18.122a.785.785,0,0,1-.7.352.879.879,0,0,1-.917-.907" fill="#fff"/>
          <path id="Trazado_907389" data-name="Trazado 907389" d="M24.948,50.463H23.46a.659.659,0,0,0,.7.619.7.7,0,0,0,.545-.234L24.84,51a.94.94,0,0,1-1.62-.616.857.857,0,0,1,.869-.9.848.848,0,0,1,.863.9c0,.021,0,.048,0,.075m-1.488-.18h1.262a.632.632,0,0,0-1.262,0" fill="#fff"/>
          <path id="Trazado_907390" data-name="Trazado 907390" d="M28.634,49.738l-.088.711h.48v.185h-.5l-.078.643h-.182l.078-.643h-.694l-.081.643h-.183l.078-.643h-.48v-.185h.5l.089-.711h-.484v-.186h.507l.078-.643h.186l-.081.643h.7l.078-.643h.182l-.078.643h.477v.186Zm-.183,0h-.693l-.092.711h.7Z" fill="#fff"/>
          <path id="Trazado_907391" data-name="Trazado 907391" d="M30.98,50.6c0,.4-.288.7-.859.7a1.233,1.233,0,0,1-.853-.3l.119-.193a1.037,1.037,0,0,0,.734.274c.392,0,.609-.183.609-.477s-.2-.47-.64-.47h-.169v-.18l.656-.822H29.366V48.91h1.523v.172l-.67.843c.507.027.761.294.761.673" fill="#fff"/>
          <path id="Trazado_907392" data-name="Trazado 907392" d="M33.335,50.655h-.474v.622h-.243v-.622H31.281v-.176l1.256-1.569h.27L31.6,50.439h1.028v-.548h.237v.548h.474Z" fill="#fff"/>
          <path id="Trazado_907393" data-name="Trazado 907393" d="M35.153,50.58c0,.4-.281.718-.859.718a1.221,1.221,0,0,1-.849-.305l.118-.193a1.026,1.026,0,0,0,.727.274c.4,0,.616-.2.616-.484,0-.3-.189-.493-.792-.493h-.5l.121-1.188h1.3v.217H33.945l-.081.754h.305c.713,0,.984.281.984.7" fill="#fff"/>
          <path id="Trazado_907394" data-name="Trazado 907394" d="M37.241,50.57a.738.738,0,0,1-.808.728c-.63,0-.971-.437-.971-1.184,0-.806.44-1.225,1.082-1.225a1.082,1.082,0,0,1,.562.129l-.1.2a.834.834,0,0,0-.46-.112c-.511,0-.839.329-.839.971,0,.054,0,.122.01.193a.756.756,0,0,1,.724-.406.716.716,0,0,1,.8.71m-.24.007c0-.311-.23-.511-.6-.511a.548.548,0,0,0-.609.518c0,.26.216.507.625.507A.518.518,0,0,0,37,50.577" fill="#fff"/>
          <path id="Trazado_907395" data-name="Trazado 907395" d="M39.14,51.061v.217H37.479V51.1l.984-.964c.267-.264.318-.423.318-.585,0-.274-.193-.443-.555-.443a.8.8,0,0,0-.646.264l-.172-.15a1.064,1.064,0,0,1,.839-.337c.48,0,.785.243.785.639a.978.978,0,0,1-.389.741l-.806.791Z" fill="#fff"/>
          <rect id="Rectángulo_406629" data-name="Rectángulo 406629" width="1.413" height="7.606" transform="translate(89.114 30.013)" fill="#263238"/>
          <path id="Trazado_907396" data-name="Trazado 907396" d="M99.341,30.013v7.606H98.178l-4.194-5.15v5.15h-1.4V30.013h1.162l4.195,5.15v-5.15Z" fill="#263238"/>
          <path id="Trazado_907397" data-name="Trazado 907397" d="M108.288,30.013l-3.315,7.606h-1.391l-3.324-7.606h1.532l2.531,5.867,2.554-5.867Z" fill="#263238"/>
          <path id="Trazado_907398" data-name="Trazado 907398" d="M108.476,33.816a4.1,4.1,0,1,1,4.1,3.912,3.9,3.9,0,0,1-4.1-3.912m6.77,0a2.673,2.673,0,1,0-2.673,2.673,2.593,2.593,0,0,0,2.673-2.673" fill="#263238"/>
          <rect id="Rectángulo_406630" data-name="Rectángulo 406630" width="1.413" height="7.606" transform="translate(118.173 30.013)" fill="#263238"/>
          <path id="Trazado_907399" data-name="Trazado 907399" d="M121.1,33.816a4.113,4.113,0,0,1,7.083-2.64l-.911.858a2.677,2.677,0,0,0-2.032-.891,2.673,2.673,0,1,0,0,5.346,2.649,2.649,0,0,0,2.032-.9l.911.869a4.113,4.113,0,0,1-7.083-2.64" fill="#263238"/>
          <path id="Trazado_907400" data-name="Trazado 907400" d="M135.249,36.435v1.184h-5.705V30.013H135.1V31.2h-4.14v1.978h3.673v1.163h-3.673v2.1Z" fill="#263238"/>
          <path id="Trazado_907401" data-name="Trazado 907401" d="M116.354,61.931a12.046,12.046,0,0,1-4.573,0,12.046,12.046,0,0,1,4.573,0" fill="#263238"/>
          <path id="Trazado_907402" data-name="Trazado 907402" d="M117.156,63.839a5.392,5.392,0,0,1,.56-2.071,5.388,5.388,0,0,1,.968-1.914,5.4,5.4,0,0,1-.56,2.071,5.4,5.4,0,0,1-.968,1.914" fill="#263238"/>
          <path id="Trazado_907403" data-name="Trazado 907403" d="M123.037,61.931c0,.121-.761.219-1.7.219s-1.7-.1-1.7-.219.761-.219,1.7-.219,1.7.1,1.7.219" fill="#263238"/>
          <path id="Trazado_907404" data-name="Trazado 907404" d="M124.435,63.373a3.979,3.979,0,0,1,.422-1.782c.346-.943.719-1.673.832-1.631a3.968,3.968,0,0,1-.422,1.782c-.346.942-.719,1.673-.832,1.631" fill="#263238"/>
          <path id="Trazado_907405" data-name="Trazado 907405" d="M133,61.931a13.39,13.39,0,0,1-3.4.219,13.388,13.388,0,0,1-3.4-.219,13.388,13.388,0,0,1,3.4-.219,13.39,13.39,0,0,1,3.4.219" fill="#263238"/>
          <rect id="Rectángulo_406631" data-name="Rectángulo 406631" width="130.571" height="9.013" transform="translate(7.521 81.742)" fill="#9d978d"/>
          <path id="Trazado_907406" data-name="Trazado 907406" d="M46.816,97.908c0,.121-6.276.219-14.015.219s-14.017-.1-14.017-.219,6.274-.219,14.017-.219,14.015.1,14.015.219"/>
          <path id="Trazado_907407" data-name="Trazado 907407" d="M92.667,98.206a42.842,42.842,0,0,1-6.113.219,42.851,42.851,0,0,1-6.114-.219,42.851,42.851,0,0,1,6.114-.219,42.842,42.842,0,0,1,6.113.219"/>
          <path id="Trazado_907408" data-name="Trazado 907408" d="M109.868,97.46c0,.121-.6.219-1.342.219s-1.342-.1-1.342-.219.6-.219,1.342-.219,1.342.1,1.342.219"/>
          <path id="Trazado_907409" data-name="Trazado 907409" d="M133.277,97.759a34,34,0,0,1-5.442.219,34.007,34.007,0,0,1-5.443-.219,34,34,0,0,1,5.443-.219,34,34,0,0,1,5.442.219"/>
          <path id="Trazado_907410" data-name="Trazado 907410" d="M61.279,110.432c0,.121-9.514.219-21.247.219s-21.248-.1-21.248-.219,9.511-.219,21.248-.219,21.247.1,21.247.219"/>
          <path id="Trazado_907411" data-name="Trazado 907411" d="M90.43,110.582a28.673,28.673,0,0,1-5,.219,28.664,28.664,0,0,1-4.995-.219,28.664,28.664,0,0,1,4.995-.219,28.673,28.673,0,0,1,5,.219"/>
          <path id="Trazado_907412" data-name="Trazado 907412" d="M110.464,110.432a8.689,8.689,0,0,1-3.877,0,8.689,8.689,0,0,1,3.877,0"/>
          <path id="Trazado_907413" data-name="Trazado 907413" d="M131.786,110.134a31.276,31.276,0,0,1-5.218.219,31.274,31.274,0,0,1-5.219-.219,31.272,31.272,0,0,1,5.219-.219,31.274,31.274,0,0,1,5.218.219"/>
          <rect id="Rectángulo_406632" data-name="Rectángulo 406632" width="61.521" height="8.02" transform="translate(76.204 135.86)" fill="#9d978d"/>
          <path id="Trazado_907414" data-name="Trazado 907414" d="M124.232,124.536a61.219,61.219,0,0,1-7.312.219,61.215,61.215,0,0,1-7.313-.219,61.212,61.212,0,0,1,7.313-.219,61.216,61.216,0,0,1,7.312.219" fill="#263238"/>
          <path id="Trazado_907415" data-name="Trazado 907415" d="M124.232,129.915a61.215,61.215,0,0,1-7.312.219,61.211,61.211,0,0,1-7.313-.219,61.217,61.217,0,0,1,7.313-.219,61.221,61.221,0,0,1,7.312.219" fill="#263238"/>
          <path id="Trazado_907416" data-name="Trazado 907416" d="M97.063,129.915a61.215,61.215,0,0,1-7.312.219,61.211,61.211,0,0,1-7.313-.219,61.217,61.217,0,0,1,7.313-.219,61.221,61.221,0,0,1,7.312.219" fill="#263238"/>
          <path id="Trazado_907417" data-name="Trazado 907417" d="M97.063,124.266c0,.121-4.884.219-10.907.219s-10.908-.1-10.908-.219,4.883-.219,10.908-.219,10.907.1,10.907.219" fill="#263238"/>
          <path id="Trazado_907418" data-name="Trazado 907418" d="M124.232,140.275a61.215,61.215,0,0,1-7.312.219,61.211,61.211,0,0,1-7.313-.219,61.217,61.217,0,0,1,7.313-.219,61.221,61.221,0,0,1,7.312.219" fill="#fff"/>
          <path id="Trazado_907419" data-name="Trazado 907419" d="M97.87,140.275a61.215,61.215,0,0,1-7.312.219,61.211,61.211,0,0,1-7.313-.219,61.217,61.217,0,0,1,7.313-.219,61.221,61.221,0,0,1,7.312.219" fill="#fff"/>
          <path id="Trazado_907420" data-name="Trazado 907420" d="M14.416,32.828H13.4a1.6,1.6,0,0,1-1.6-1.6V30.21a1.6,1.6,0,0,1,1.6-1.6h1.02a1.6,1.6,0,0,1,1.6,1.6v1.02a1.6,1.6,0,0,1-1.6,1.6" fill="#9d978d"/>
          <path id="Trazado_907421" data-name="Trazado 907421" d="M12.745,33.711v.053a.245.245,0,0,0,.245.245h4.047V29.815a.245.245,0,1,0-.49,0v3.621l-3.559.03a.245.245,0,0,0-.243.245" fill="#9d978d"/>
          <path id="Trazado_907422" data-name="Trazado 907422" d="M43.208,30.07c0,.121-5.416.219-12.095.219s-12.1-.1-12.1-.219,5.415-.219,12.1-.219,12.095.1,12.095.219" fill="#9d978d"/>
          <path id="Trazado_907423" data-name="Trazado 907423" d="M31.991,32.393a45.9,45.9,0,0,1-6.328.219,45.9,45.9,0,0,1-6.329-.219,45.9,45.9,0,0,1,6.329-.219,45.9,45.9,0,0,1,6.328.219" fill="#9d978d"/>
          <path id="Trazado_907424" data-name="Trazado 907424" d="M146.368,202.064c0-1.722-.08-75.832-.2-186.562l.2.2L.235,15.721H.219L.438,15.5C.424,84.665.411,148.892.4,202.064l-.181-.181,146.149.181L.219,202.245H.038v-.181C.027,148.892.014,84.665,0,15.5v-.219H.235l146.133.023h.2v.2c-.116,110.73-.194,184.841-.2,186.562" fill="#263238"/>
          <path id="Trazado_907425" data-name="Trazado 907425" d="M72.814,66.741c0,.121-7.819.219-17.462.219s-17.464-.1-17.464-.219,7.817-.219,17.464-.219,17.462.1,17.462.219" fill="#263238"/>
          <path id="Trazado_907426" data-name="Trazado 907426" d="M72.814,70.085c0,.121-7.819.219-17.462.219s-17.464-.1-17.464-.219,7.817-.219,17.464-.219,17.462.1,17.462.219" fill="#263238"/>
          <path id="Trazado_907427" data-name="Trazado 907427" d="M50.945,73.429a48.832,48.832,0,0,1-6.528.219,48.829,48.829,0,0,1-6.529-.219,48.829,48.829,0,0,1,6.529-.219,48.832,48.832,0,0,1,6.528.219" fill="#263238"/>
          <path id="Trazado_907428" data-name="Trazado 907428" d="M73.355,63.15c0,.121-14.7.219-32.83.219s-32.833-.1-32.833-.219,14.7-.219,32.833-.219,32.83.1,32.83.219" fill="#263238"/>
          <path id="Trazado_907429" data-name="Trazado 907429" d="M47.625,86.249c0,.121-6.558.219-14.644.219s-14.644-.1-14.644-.219,6.555-.219,14.644-.219,14.644.1,14.644.219" fill="#fff"/>
          <path id="Trazado_907430" data-name="Trazado 907430" d="M93.183,86.249a68.707,68.707,0,0,1-7.748.219,68.693,68.693,0,0,1-7.748-.219,68.693,68.693,0,0,1,7.748-.219,68.707,68.707,0,0,1,7.748.219" fill="#fff"/>
          <path id="Trazado_907431" data-name="Trazado 907431" d="M115.354,86.249a37.878,37.878,0,0,1-5.746.219,37.875,37.875,0,0,1-5.747-.219,37.875,37.875,0,0,1,5.747-.219,37.878,37.878,0,0,1,5.746.219" fill="#fff"/>
          <path id="Trazado_907432" data-name="Trazado 907432" d="M134.522,86.249a37.878,37.878,0,0,1-5.746.219,37.875,37.875,0,0,1-5.747-.219,37.875,37.875,0,0,1,5.747-.219,37.878,37.878,0,0,1,5.746.219" fill="#fff"/>
          <path id="Trazado_907433" data-name="Trazado 907433" d="M136.221,150.6c0,.144-28.394.26-63.411.26s-63.417-.116-63.417-.26,28.387-.26,63.417-.26,63.411.116,63.411.26" fill="#263238"/>
          <path id="Trazado_907434" data-name="Trazado 907434" d="M67.346,162.939c0,.144-12.614.26-28.17.26S11,163.083,11,162.939s12.611-.26,28.173-.26,28.17.116,28.17.26" fill="#263238"/>
          <path id="Trazado_907435" data-name="Trazado 907435" d="M54.681,167.591c0,.144-9.779.26-21.838.26S11,167.735,11,167.591s9.777-.26,21.841-.26,21.838.116,21.838.26" fill="#263238"/>
          <path id="Trazado_907436" data-name="Trazado 907436" d="M47.625,172.243c0,.144-8.2.26-18.31.26S11,172.387,11,172.243s8.2-.26,18.313-.26,18.31.116,18.31.26" fill="#263238"/>
          <path id="Trazado_907437" data-name="Trazado 907437" d="M132.555,165.84a1.864,1.864,0,0,1-.348.1l-1.032.25c-.907.216-2.251.514-3.984.886-3.467.736-8.5,1.74-14.754,2.771-3.128.515-6.561,1.034-10.256,1.528-1.848.246-3.76.491-5.732.719l-3,.338c-.509.052-1.012.124-1.552.146a3.07,3.07,0,0,1-1.64-.329,1.593,1.593,0,0,1,.062-2.932,26.426,26.426,0,0,1,2.968-1.424,31.02,31.02,0,0,1,13.466-2.305,14.173,14.173,0,0,1,3.567.558,5.911,5.911,0,0,1,3.1,2.021,4.458,4.458,0,0,1,.7,3.639,6.762,6.762,0,0,1-1.742,3.209,14.431,14.431,0,0,1-2.789,2.212,27.7,27.7,0,0,1-3.018,1.736,6.805,6.805,0,0,1-3.4.76,3.871,3.871,0,0,1-2.922-1.78,7.806,7.806,0,0,1-1.095-3.151,21.527,21.527,0,0,1-.2-3.209,22.875,22.875,0,0,1,3.2-11.439,7.973,7.973,0,0,1,1.732-2.206,2.519,2.519,0,0,1,2.675-.478,3.144,3.144,0,0,1,1.622,2.07,4.828,4.828,0,0,1-.135,2.5,14.959,14.959,0,0,1-.879,2.173c-.318.686-.648,1.345-.98,1.979-.663,1.269-1.342,2.437-2.021,3.5a48.253,48.253,0,0,1-3.816,5.222c-1.144,1.358-2.1,2.355-2.762,3.01-.328.332-.593.57-.767.735a1.83,1.83,0,0,1-.275.235,1.79,1.79,0,0,1,.238-.273l.729-.77c.639-.678,1.566-1.694,2.681-3.066a50.358,50.358,0,0,0,3.725-5.247c.663-1.065,1.327-2.233,1.974-3.5a28.681,28.681,0,0,0,1.8-4.1,4.462,4.462,0,0,0,.116-2.3,2.759,2.759,0,0,0-1.416-1.8,2.107,2.107,0,0,0-2.245.437,7.582,7.582,0,0,0-1.623,2.1,22.5,22.5,0,0,0-3.091,11.223,20.924,20.924,0,0,0,.206,3.131,7.324,7.324,0,0,0,1.024,2.948,3.36,3.36,0,0,0,2.555,1.554,6.32,6.32,0,0,0,3.135-.72,27.481,27.481,0,0,0,2.955-1.706A13.925,13.925,0,0,0,112,174.663a6.249,6.249,0,0,0,1.613-2.962,3.941,3.941,0,0,0-.614-3.224,5.409,5.409,0,0,0-2.838-1.833,13.714,13.714,0,0,0-3.44-.537,30.6,30.6,0,0,0-13.249,2.248,26.328,26.328,0,0,0-2.9,1.379,1.121,1.121,0,0,0-.078,2.1,5.2,5.2,0,0,0,2.9.131l3-.327,5.729-.692c3.692-.475,7.125-.972,10.253-1.464,6.256-.983,11.295-1.931,14.773-2.606l4-.79,1.043-.2a1.822,1.822,0,0,1,.359-.05" fill="#263238"/>
          <path id="Trazado_907438" data-name="Trazado 907438" d="M94.836,183.571a17.809,17.809,0,0,1-4.279.26,17.809,17.809,0,0,1-4.279-.26,17.809,17.809,0,0,1,4.279-.26,17.809,17.809,0,0,1,4.279.26" fill="#263238"/>
          <path id="Trazado_907439" data-name="Trazado 907439" d="M154.27,194.612H8.3L8.183,8.715H154.332Z" fill="#fff"/>
          <rect id="Rectángulo_406633" data-name="Rectángulo 406633" width="146.149" height="35.777" transform="translate(8.121 8.05)" fill="#f5f5f5"/>
          <rect id="Rectángulo_406634" data-name="Rectángulo 406634" width="55.695" height="9.012" transform="translate(15.423 38.418)" fill="#9d978d"/>
          <rect id="Rectángulo_406635" data-name="Rectángulo 406635" width="130.571" height="12.943" transform="translate(15.423 83.304)" fill="#fafafa"/>
          <rect id="Rectángulo_406636" data-name="Rectángulo 406636" width="130.571" height="12.944" transform="translate(15.423 96.23)" fill="#e0e0e0"/>
          <rect id="Rectángulo_406637" data-name="Rectángulo 406637" width="0.25" height="2.368" transform="translate(21.382 41.458)" fill="#fff"/>
          <path id="Trazado_907440" data-name="Trazado 907440" d="M23.99,42.794v1.033h-.24V42.818a.5.5,0,0,0-.535-.567.582.582,0,0,0-.622.642v.934h-.24v-1.78h.23v.329a.745.745,0,0,1,.676-.342.681.681,0,0,1,.731.76" fill="#fff"/>
          <path id="Trazado_907441" data-name="Trazado 907441" d="M26.105,42.047l-.791,1.779h-.247l-.789-1.779h.251l.666,1.515.673-1.515Z" fill="#fff"/>
          <path id="Trazado_907442" data-name="Trazado 907442" d="M26.215,42.936a.9.9,0,1,1,.907.907.875.875,0,0,1-.907-.907m1.566,0a.662.662,0,1,0-.659.694.649.649,0,0,0,.659-.694" fill="#fff"/>
          <path id="Trazado_907443" data-name="Trazado 907443" d="M28.462,41.485a.174.174,0,0,1,.176-.169.171.171,0,0,1,.176.166.176.176,0,0,1-.352,0m.054.562h.24v1.779h-.24Z" fill="#fff"/>
          <path id="Trazado_907444" data-name="Trazado 907444" d="M29.247,42.936a.876.876,0,0,1,.917-.9.776.776,0,0,1,.7.352l-.18.121a.6.6,0,0,0-.517-.263.694.694,0,0,0,0,1.387.6.6,0,0,0,.517-.261l.18.122a.785.785,0,0,1-.7.352.879.879,0,0,1-.917-.907" fill="#fff"/>
          <path id="Trazado_907445" data-name="Trazado 907445" d="M32.85,43.011H31.362a.659.659,0,0,0,.7.619.7.7,0,0,0,.545-.234l.135.156a.94.94,0,0,1-1.62-.616.857.857,0,0,1,.869-.9.848.848,0,0,1,.863.9c0,.021,0,.048,0,.075m-1.488-.18h1.262a.632.632,0,0,0-1.262,0" fill="#fff"/>
          <path id="Trazado_907446" data-name="Trazado 907446" d="M36.536,42.287,36.448,43h.48v.185h-.5l-.078.643h-.182l.079-.643h-.694l-.082.643h-.182l.077-.643h-.48V43h.5l.089-.711H34.99V42.1H35.5l.078-.643h.186l-.08.643h.7l.078-.643h.182l-.078.643h.477v.186Zm-.182,0H35.66L35.568,43h.7Z" fill="#fff"/>
          <path id="Trazado_907447" data-name="Trazado 907447" d="M38.882,43.146c0,.4-.288.7-.859.7a1.233,1.233,0,0,1-.853-.3l.119-.193a1.037,1.037,0,0,0,.734.274c.392,0,.608-.183.608-.477s-.2-.47-.639-.47h-.169V42.5l.656-.822H37.268v-.216h1.523v.172l-.67.843c.507.027.761.294.761.673" fill="#fff"/>
          <path id="Trazado_907448" data-name="Trazado 907448" d="M41.237,43.2h-.474v.622H40.52V43.2H39.184v-.176l1.255-1.569h.27L39.5,42.988h1.028V42.44h.237v.548h.474Z" fill="#fff"/>
          <path id="Trazado_907449" data-name="Trazado 907449" d="M43.055,43.129c0,.4-.281.718-.859.718a1.221,1.221,0,0,1-.849-.305l.118-.193a1.026,1.026,0,0,0,.727.274c.4,0,.616-.2.616-.484,0-.3-.189-.493-.792-.493h-.5l.121-1.188h1.3v.217H41.847l-.081.754h.305c.713,0,.984.281.984.7" fill="#fff"/>
          <path id="Trazado_907450" data-name="Trazado 907450" d="M45.143,43.119a.738.738,0,0,1-.808.728c-.63,0-.971-.437-.971-1.184,0-.806.44-1.225,1.082-1.225a1.082,1.082,0,0,1,.562.129l-.1.2a.834.834,0,0,0-.46-.112c-.511,0-.839.329-.839.971,0,.054,0,.122.01.193a.756.756,0,0,1,.724-.406.716.716,0,0,1,.8.71m-.24.007c0-.311-.23-.511-.6-.511a.549.549,0,0,0-.609.518c0,.26.216.507.625.507a.518.518,0,0,0,.579-.514" fill="#fff"/>
          <path id="Trazado_907451" data-name="Trazado 907451" d="M47.042,43.61v.217H45.381v-.173l.984-.964c.267-.264.318-.423.318-.585,0-.274-.193-.443-.555-.443a.8.8,0,0,0-.646.264l-.172-.15a1.064,1.064,0,0,1,.839-.337c.48,0,.785.243.785.639a.978.978,0,0,1-.389.741l-.806.791Z" fill="#fff"/>
          <rect id="Rectángulo_406638" data-name="Rectángulo 406638" width="1.413" height="7.606" transform="translate(97.016 22.562)" fill="#263238"/>
          <path id="Trazado_907452" data-name="Trazado 907452" d="M107.243,22.562v7.606H106.08l-4.194-5.15v5.15h-1.4V22.562h1.162l4.195,5.15v-5.15Z" fill="#263238"/>
          <path id="Trazado_907453" data-name="Trazado 907453" d="M116.19,22.562l-3.315,7.606h-1.391l-3.324-7.606h1.532l2.531,5.867,2.554-5.867Z" fill="#263238"/>
          <path id="Trazado_907454" data-name="Trazado 907454" d="M116.379,26.365a4.1,4.1,0,1,1,4.1,3.912,3.9,3.9,0,0,1-4.1-3.912m6.77,0a2.673,2.673,0,1,0-2.673,2.673,2.593,2.593,0,0,0,2.673-2.673" fill="#263238"/>
          <rect id="Rectángulo_406639" data-name="Rectángulo 406639" width="1.413" height="7.606" transform="translate(126.075 22.562)" fill="#263238"/>
          <path id="Trazado_907455" data-name="Trazado 907455" d="M129,26.365a4.114,4.114,0,0,1,7.084-2.64l-.912.858a2.675,2.675,0,0,0-2.032-.891,2.673,2.673,0,1,0,0,5.346,2.648,2.648,0,0,0,2.032-.9l.912.869A4.114,4.114,0,0,1,129,26.365" fill="#263238"/>
          <path id="Trazado_907456" data-name="Trazado 907456" d="M143.152,28.984v1.184h-5.705V22.562H143v1.184h-4.139v1.978h3.673v1.163h-3.673v2.1Z" fill="#263238"/>
          <path id="Trazado_907457" data-name="Trazado 907457" d="M124.256,54.479a12.046,12.046,0,0,1-4.573,0,12.046,12.046,0,0,1,4.573,0" fill="#263238"/>
          <path id="Trazado_907458" data-name="Trazado 907458" d="M125.059,56.387a5.358,5.358,0,0,1,.559-2.071,5.362,5.362,0,0,1,.969-1.914,5.387,5.387,0,0,1-.561,2.071,5.407,5.407,0,0,1-.967,1.914" fill="#263238"/>
          <path id="Trazado_907459" data-name="Trazado 907459" d="M130.94,54.479c0,.121-.761.219-1.7.219s-1.7-.1-1.7-.219.761-.219,1.7-.219,1.7.1,1.7.219" fill="#263238"/>
          <path id="Trazado_907460" data-name="Trazado 907460" d="M132.337,55.922a3.979,3.979,0,0,1,.422-1.782c.346-.943.719-1.673.832-1.631a3.968,3.968,0,0,1-.422,1.782c-.346.942-.719,1.673-.832,1.631" fill="#263238"/>
          <path id="Trazado_907461" data-name="Trazado 907461" d="M140.906,54.479a13.39,13.39,0,0,1-3.4.219,13.388,13.388,0,0,1-3.4-.219,13.388,13.388,0,0,1,3.4-.219,13.39,13.39,0,0,1,3.4.219" fill="#263238"/>
          <rect id="Rectángulo_406640" data-name="Rectángulo 406640" width="130.571" height="9.013" transform="translate(15.423 74.291)" fill="#9d978d"/>
          <path id="Trazado_907462" data-name="Trazado 907462" d="M54.718,90.456c0,.121-6.276.219-14.015.219s-14.017-.1-14.017-.219,6.274-.219,14.017-.219,14.015.1,14.015.219"/>
          <path id="Trazado_907463" data-name="Trazado 907463" d="M100.569,90.754a42.842,42.842,0,0,1-6.113.219,42.851,42.851,0,0,1-6.114-.219,42.853,42.853,0,0,1,6.114-.219,42.844,42.844,0,0,1,6.113.219"/>
          <path id="Trazado_907464" data-name="Trazado 907464" d="M117.77,90.009c0,.121-.6.219-1.342.219s-1.342-.1-1.342-.219.6-.219,1.342-.219,1.342.1,1.342.219"/>
          <path id="Trazado_907465" data-name="Trazado 907465" d="M141.179,90.307a34,34,0,0,1-5.442.219,34,34,0,0,1-5.443-.219,34,34,0,0,1,5.443-.219,34,34,0,0,1,5.442.219"/>
          <path id="Trazado_907466" data-name="Trazado 907466" d="M69.181,102.981c0,.121-9.514.219-21.247.219s-21.248-.1-21.248-.219,9.511-.219,21.248-.219,21.247.1,21.247.219"/>
          <path id="Trazado_907467" data-name="Trazado 907467" d="M98.332,103.13a28.673,28.673,0,0,1-5,.219,28.664,28.664,0,0,1-4.995-.219,28.665,28.665,0,0,1,4.995-.219,28.675,28.675,0,0,1,5,.219"/>
          <path id="Trazado_907468" data-name="Trazado 907468" d="M118.366,102.981a8.689,8.689,0,0,1-3.877,0,8.689,8.689,0,0,1,3.877,0"/>
          <path id="Trazado_907469" data-name="Trazado 907469" d="M139.688,102.683a31.274,31.274,0,0,1-5.218.219,31.272,31.272,0,0,1-5.219-.219,31.272,31.272,0,0,1,5.219-.219,31.274,31.274,0,0,1,5.218.219"/>
          <rect id="Rectángulo_406641" data-name="Rectángulo 406641" width="61.521" height="8.02" transform="translate(84.107 128.408)" fill="#9d978d"/>
          <path id="Trazado_907470" data-name="Trazado 907470" d="M132.134,117.085a61.216,61.216,0,0,1-7.312.219,61.212,61.212,0,0,1-7.313-.219,61.212,61.212,0,0,1,7.313-.219,61.216,61.216,0,0,1,7.312.219" fill="#263238"/>
          <path id="Trazado_907471" data-name="Trazado 907471" d="M132.134,122.463a61.216,61.216,0,0,1-7.312.219,61.212,61.212,0,0,1-7.313-.219,61.215,61.215,0,0,1,7.313-.219,61.219,61.219,0,0,1,7.312.219" fill="#263238"/>
          <path id="Trazado_907472" data-name="Trazado 907472" d="M104.965,122.463a61.216,61.216,0,0,1-7.312.219,61.213,61.213,0,0,1-7.313-.219,61.216,61.216,0,0,1,7.313-.219,61.219,61.219,0,0,1,7.312.219" fill="#263238"/>
          <path id="Trazado_907473" data-name="Trazado 907473" d="M104.965,116.814c0,.121-4.884.219-10.907.219s-10.908-.1-10.908-.219,4.883-.219,10.908-.219,10.907.1,10.907.219" fill="#263238"/>
          <path id="Trazado_907474" data-name="Trazado 907474" d="M132.134,132.824a61.217,61.217,0,0,1-7.312.219,61.214,61.214,0,0,1-7.313-.219,61.211,61.211,0,0,1,7.313-.219,61.215,61.215,0,0,1,7.312.219" fill="#fff"/>
          <path id="Trazado_907475" data-name="Trazado 907475" d="M105.772,132.824a61.217,61.217,0,0,1-7.312.219,61.214,61.214,0,0,1-7.313-.219,61.211,61.211,0,0,1,7.313-.219,61.215,61.215,0,0,1,7.312.219" fill="#fff"/>
          <path id="Trazado_907476" data-name="Trazado 907476" d="M22.318,25.377H21.3a1.6,1.6,0,0,1-1.6-1.6v-1.02a1.6,1.6,0,0,1,1.6-1.6h1.02a1.6,1.6,0,0,1,1.6,1.6v1.02a1.6,1.6,0,0,1-1.6,1.6" fill="#9d978d"/>
          <path id="Trazado_907477" data-name="Trazado 907477" d="M20.647,26.26v.053a.245.245,0,0,0,.245.245h4.047V22.364a.245.245,0,1,0-.49,0v3.621l-3.559.03a.245.245,0,0,0-.243.245" fill="#9d978d"/>
          <path id="Trazado_907478" data-name="Trazado 907478" d="M51.11,22.619c0,.121-5.416.219-12.1.219s-12.1-.1-12.1-.219,5.415-.219,12.1-.219,12.1.1,12.1.219" fill="#9d978d"/>
          <path id="Trazado_907479" data-name="Trazado 907479" d="M39.893,24.941a45.9,45.9,0,0,1-6.328.219,45.9,45.9,0,0,1-6.329-.219,45.9,45.9,0,0,1,6.329-.219,45.9,45.9,0,0,1,6.328.219" fill="#9d978d"/>
          <path id="Trazado_907480" data-name="Trazado 907480" d="M154.27,194.612c0-1.722-.08-75.832-.2-186.562l.2.2L8.137,8.269H8.121L8.34,8.05C8.325,77.213,8.313,141.44,8.3,194.612l-.181-.181,146.149.181-146.149.181H7.94v-.181C7.929,141.44,7.916,77.213,7.9,8.05V7.831h.235l146.133.023h.2v.2c-.116,110.73-.194,184.841-.2,186.562" fill="#263238"/>
          <path id="Trazado_907481" data-name="Trazado 907481" d="M80.716,59.29c0,.121-7.819.219-17.462.219s-17.464-.1-17.464-.219,7.817-.219,17.464-.219,17.462.1,17.462.219" fill="#263238"/>
          <path id="Trazado_907482" data-name="Trazado 907482" d="M80.716,62.634c0,.121-7.819.219-17.462.219s-17.464-.1-17.464-.219,7.817-.219,17.464-.219,17.462.1,17.462.219" fill="#263238"/>
          <path id="Trazado_907483" data-name="Trazado 907483" d="M58.847,65.978a48.832,48.832,0,0,1-6.528.219,48.829,48.829,0,0,1-6.529-.219,48.831,48.831,0,0,1,6.529-.219,48.834,48.834,0,0,1,6.528.219" fill="#263238"/>
          <path id="Trazado_907484" data-name="Trazado 907484" d="M81.257,55.7c0,.121-14.7.219-32.83.219s-32.833-.1-32.833-.219,14.7-.219,32.833-.219,32.83.1,32.83.219" fill="#263238"/>
          <path id="Trazado_907485" data-name="Trazado 907485" d="M55.527,78.8c0,.121-6.557.219-14.643.219s-14.645-.1-14.645-.219,6.556-.219,14.645-.219,14.643.1,14.643.219" fill="#fff"/>
          <path id="Trazado_907486" data-name="Trazado 907486" d="M101.085,78.8a68.707,68.707,0,0,1-7.748.219,68.693,68.693,0,0,1-7.748-.219,68.7,68.7,0,0,1,7.748-.219,68.711,68.711,0,0,1,7.748.219" fill="#fff"/>
          <path id="Trazado_907487" data-name="Trazado 907487" d="M123.256,78.8a37.878,37.878,0,0,1-5.746.219,37.875,37.875,0,0,1-5.747-.219,37.877,37.877,0,0,1,5.747-.219,37.88,37.88,0,0,1,5.746.219" fill="#fff"/>
          <path id="Trazado_907488" data-name="Trazado 907488" d="M142.424,78.8a37.878,37.878,0,0,1-5.746.219,37.875,37.875,0,0,1-5.747-.219,37.877,37.877,0,0,1,5.747-.219,37.88,37.88,0,0,1,5.746.219" fill="#fff"/>
          <path id="Trazado_907489" data-name="Trazado 907489" d="M144.123,143.151c0,.144-28.394.26-63.411.26s-63.417-.116-63.417-.26,28.387-.26,63.417-.26,63.411.116,63.411.26" fill="#263238"/>
          <path id="Trazado_907490" data-name="Trazado 907490" d="M75.248,155.488c0,.144-12.614.26-28.17.26s-28.173-.116-28.173-.26,12.611-.26,28.173-.26,28.17.116,28.17.26" fill="#263238"/>
          <path id="Trazado_907491" data-name="Trazado 907491" d="M62.583,160.14c0,.144-9.779.26-21.838.26s-21.841-.116-21.841-.26,9.777-.26,21.841-.26,21.838.116,21.838.26" fill="#263238"/>
          <path id="Trazado_907492" data-name="Trazado 907492" d="M55.527,164.792c0,.144-8.2.26-18.31.26s-18.312-.116-18.312-.26,8.2-.26,18.312-.26,18.31.116,18.31.26" fill="#263238"/>
          <path id="Trazado_907493" data-name="Trazado 907493" d="M140.457,158.389a1.866,1.866,0,0,1-.348.1l-1.032.25c-.907.216-2.251.514-3.984.886-3.467.736-8.5,1.74-14.755,2.771-3.127.515-6.56,1.034-10.255,1.528-1.848.246-3.76.491-5.732.718l-3,.339c-.509.052-1.012.124-1.552.146a3.07,3.07,0,0,1-1.64-.329,1.593,1.593,0,0,1,.062-2.932,26.612,26.612,0,0,1,2.968-1.425,31,31,0,0,1,13.466-2.3,14.172,14.172,0,0,1,3.567.558,5.911,5.911,0,0,1,3.1,2.021,4.458,4.458,0,0,1,.7,3.639,6.762,6.762,0,0,1-1.742,3.209,14.431,14.431,0,0,1-2.789,2.212,27.706,27.706,0,0,1-3.018,1.736,6.794,6.794,0,0,1-3.4.759,3.867,3.867,0,0,1-2.922-1.779,7.806,7.806,0,0,1-1.095-3.151,21.532,21.532,0,0,1-.2-3.21,22.874,22.874,0,0,1,3.2-11.438,7.973,7.973,0,0,1,1.732-2.206,2.519,2.519,0,0,1,2.675-.478,3.144,3.144,0,0,1,1.622,2.07,4.828,4.828,0,0,1-.135,2.5,14.958,14.958,0,0,1-.879,2.173c-.318.686-.648,1.345-.98,1.979-.663,1.269-1.342,2.437-2.021,3.5a48.252,48.252,0,0,1-3.816,5.222c-1.144,1.358-2.1,2.354-2.762,3.01-.328.332-.593.57-.767.734a1.81,1.81,0,0,1-.275.236,1.818,1.818,0,0,1,.238-.274l.729-.769c.639-.678,1.566-1.694,2.681-3.066a50.573,50.573,0,0,0,3.725-5.247c.663-1.065,1.327-2.233,1.974-3.5a28.68,28.68,0,0,0,1.8-4.1,4.462,4.462,0,0,0,.116-2.3,2.759,2.759,0,0,0-1.416-1.8,2.109,2.109,0,0,0-2.245.436,7.6,7.6,0,0,0-1.623,2.1,22.5,22.5,0,0,0-3.091,11.222,20.927,20.927,0,0,0,.206,3.132,7.324,7.324,0,0,0,1.024,2.948,3.36,3.36,0,0,0,2.555,1.554,6.32,6.32,0,0,0,3.135-.72,27.481,27.481,0,0,0,2.955-1.706,13.925,13.925,0,0,0,2.688-2.133,6.237,6.237,0,0,0,1.612-2.963,3.935,3.935,0,0,0-.613-3.223,5.409,5.409,0,0,0-2.838-1.833,13.713,13.713,0,0,0-3.44-.537,30.623,30.623,0,0,0-13.249,2.247,26.514,26.514,0,0,0-2.9,1.38,1.121,1.121,0,0,0-.078,2.1,5.2,5.2,0,0,0,2.9.13l3-.326,5.729-.692c3.692-.475,7.125-.973,10.253-1.464,6.256-.983,11.295-1.931,14.773-2.606l4-.79,1.043-.2a1.821,1.821,0,0,1,.359-.05" fill="#263238"/>
          <path id="Trazado_907494" data-name="Trazado 907494" d="M102.738,176.12a17.808,17.808,0,0,1-4.279.26,17.808,17.808,0,0,1-4.279-.26,17.809,17.809,0,0,1,4.279-.26,17.809,17.809,0,0,1,4.279.26" fill="#263238"/>
          <path id="Trazado_907495" data-name="Trazado 907495" d="M161.46,186.781H15.492L15.373.884H161.522Z" fill="#fff"/>
          <rect id="Rectángulo_406642" data-name="Rectángulo 406642" width="146.149" height="35.777" transform="translate(15.311 0.219)" fill="#f5f5f5"/>
          <rect id="Rectángulo_406643" data-name="Rectángulo 406643" width="55.695" height="9.012" transform="translate(22.613 30.587)" fill="#9d978d"/>
          <rect id="Rectángulo_406644" data-name="Rectángulo 406644" width="130.571" height="12.944" transform="translate(22.613 75.472)" fill="#fafafa"/>
          <rect id="Rectángulo_406645" data-name="Rectángulo 406645" width="130.571" height="12.943" transform="translate(22.613 88.399)" fill="#e0e0e0"/>
          <rect id="Rectángulo_406646" data-name="Rectángulo 406646" width="0.25" height="2.368" transform="translate(28.571 33.627)" fill="#fff"/>
          <path id="Trazado_907496" data-name="Trazado 907496" d="M31.18,34.963v1.032h-.24V34.987a.5.5,0,0,0-.535-.569.583.583,0,0,0-.622.643v.934h-.24v-1.78h.23v.328a.747.747,0,0,1,.676-.341.681.681,0,0,1,.731.761" fill="#fff"/>
          <path id="Trazado_907497" data-name="Trazado 907497" d="M33.295,34.215,32.5,36h-.247l-.789-1.78h.251l.666,1.516.673-1.516Z" fill="#fff"/>
          <path id="Trazado_907498" data-name="Trazado 907498" d="M33.4,35.1a.9.9,0,1,1,.907.907A.875.875,0,0,1,33.4,35.1m1.566,0a.662.662,0,1,0-.659.694.649.649,0,0,0,.659-.694" fill="#fff"/>
          <path id="Trazado_907499" data-name="Trazado 907499" d="M35.652,33.654a.174.174,0,0,1,.176-.17.171.171,0,1,1,0,.342.174.174,0,0,1-.176-.172m.054.561h.24v1.78h-.24Z" fill="#fff"/>
          <path id="Trazado_907500" data-name="Trazado 907500" d="M36.437,35.1a.876.876,0,0,1,.917-.9.776.776,0,0,1,.7.352l-.18.121a.6.6,0,0,0-.517-.263.694.694,0,0,0,0,1.387.6.6,0,0,0,.517-.261l.18.122a.785.785,0,0,1-.7.352.879.879,0,0,1-.917-.907" fill="#fff"/>
          <path id="Trazado_907501" data-name="Trazado 907501" d="M40.04,35.18H38.552a.659.659,0,0,0,.7.619.7.7,0,0,0,.545-.234l.135.156a.94.94,0,0,1-1.62-.616.857.857,0,0,1,.869-.9.848.848,0,0,1,.863.9c0,.021,0,.047,0,.075M38.552,35h1.262a.632.632,0,0,0-1.262,0" fill="#fff"/>
          <path id="Trazado_907502" data-name="Trazado 907502" d="M43.726,34.455l-.088.711h.48v.185h-.5l-.078.643h-.182l.078-.643h-.694l-.081.643h-.183l.078-.643h-.48v-.185h.5l.089-.711H42.18v-.186h.507l.078-.643h.186l-.081.643h.7l.078-.643h.182l-.078.643h.477v.186Zm-.183,0H42.85l-.092.711h.7Z" fill="#fff"/>
          <path id="Trazado_907503" data-name="Trazado 907503" d="M46.071,35.315c0,.4-.288.7-.859.7a1.233,1.233,0,0,1-.853-.3l.119-.193a1.037,1.037,0,0,0,.734.274c.392,0,.608-.183.608-.477s-.2-.47-.639-.47h-.169v-.179l.656-.823H44.457v-.216H45.98V33.8l-.67.842c.507.027.761.294.761.673" fill="#fff"/>
          <path id="Trazado_907504" data-name="Trazado 907504" d="M48.427,35.372h-.474v.622H47.71v-.622H46.374V35.2l1.255-1.569h.27l-1.211,1.529h1.028v-.548h.237v.548h.474Z" fill="#fff"/>
          <path id="Trazado_907505" data-name="Trazado 907505" d="M50.245,35.3c0,.4-.281.718-.859.718a1.221,1.221,0,0,1-.849-.305l.118-.193a1.026,1.026,0,0,0,.727.274c.4,0,.616-.2.616-.484,0-.3-.189-.493-.792-.493h-.5l.121-1.188h1.295v.217H49.037l-.081.754h.305c.713,0,.984.281.984.7" fill="#fff"/>
          <path id="Trazado_907506" data-name="Trazado 907506" d="M52.333,35.287a.738.738,0,0,1-.808.728c-.63,0-.971-.437-.971-1.184,0-.806.44-1.225,1.082-1.225a1.076,1.076,0,0,1,.561.129l-.1.2a.835.835,0,0,0-.461-.112c-.51,0-.839.329-.839.971,0,.054,0,.122.011.193a.755.755,0,0,1,.724-.406.717.717,0,0,1,.8.71m-.24.007c0-.311-.23-.511-.595-.511a.548.548,0,0,0-.609.518c0,.26.216.507.625.507a.518.518,0,0,0,.579-.514" fill="#fff"/>
          <path id="Trazado_907507" data-name="Trazado 907507" d="M54.232,35.778v.217H52.571v-.173l.985-.964c.266-.264.317-.423.317-.585,0-.274-.192-.443-.554-.443a.8.8,0,0,0-.647.264l-.172-.15a1.065,1.065,0,0,1,.839-.337c.48,0,.785.243.785.639a.978.978,0,0,1-.389.741l-.806.791Z" fill="#fff"/>
          <rect id="Rectángulo_406647" data-name="Rectángulo 406647" width="1.413" height="7.606" transform="translate(104.206 14.731)" fill="#263238"/>
          <path id="Trazado_907508" data-name="Trazado 907508" d="M114.432,14.73v7.606h-1.163l-4.194-5.15v5.15h-1.4V14.73h1.162l4.195,5.15V14.73Z" fill="#263238"/>
          <path id="Trazado_907509" data-name="Trazado 907509" d="M123.38,14.73l-3.315,7.606h-1.391L115.35,14.73h1.532l2.531,5.867,2.554-5.867Z" fill="#263238"/>
          <path id="Trazado_907510" data-name="Trazado 907510" d="M123.568,18.533a4.1,4.1,0,1,1,4.1,3.912,3.9,3.9,0,0,1-4.1-3.912m6.77,0a2.673,2.673,0,1,0-2.673,2.673,2.592,2.592,0,0,0,2.673-2.673" fill="#263238"/>
          <rect id="Rectángulo_406648" data-name="Rectángulo 406648" width="1.413" height="7.606" transform="translate(133.265 14.731)" fill="#263238"/>
          <path id="Trazado_907511" data-name="Trazado 907511" d="M136.19,18.533a4.115,4.115,0,0,1,7.084-2.64l-.912.858a2.675,2.675,0,0,0-2.033-.89,2.673,2.673,0,1,0,0,5.345,2.648,2.648,0,0,0,2.033-.9l.912.869a4.115,4.115,0,0,1-7.084-2.641" fill="#263238"/>
          <path id="Trazado_907512" data-name="Trazado 907512" d="M150.341,21.152v1.184h-5.705V14.73h5.553v1.184h-4.14v1.978h3.673v1.163h-3.673v2.1Z" fill="#263238"/>
          <path id="Trazado_907513" data-name="Trazado 907513" d="M131.446,46.648a12.046,12.046,0,0,1-4.573,0,12.046,12.046,0,0,1,4.573,0" fill="#263238"/>
          <path id="Trazado_907514" data-name="Trazado 907514" d="M132.248,48.556a5.392,5.392,0,0,1,.56-2.071,5.388,5.388,0,0,1,.968-1.914,5.4,5.4,0,0,1-.56,2.071,5.4,5.4,0,0,1-.968,1.914" fill="#263238"/>
          <path id="Trazado_907515" data-name="Trazado 907515" d="M138.129,46.648c0,.121-.761.219-1.7.219s-1.7-.1-1.7-.219.761-.219,1.7-.219,1.7.1,1.7.219" fill="#263238"/>
          <path id="Trazado_907516" data-name="Trazado 907516" d="M139.527,48.09a3.979,3.979,0,0,1,.422-1.781c.346-.943.719-1.673.832-1.631a3.968,3.968,0,0,1-.422,1.782c-.346.942-.719,1.673-.832,1.63" fill="#263238"/>
          <path id="Trazado_907517" data-name="Trazado 907517" d="M148.1,46.648a13.389,13.389,0,0,1-3.4.219,13.388,13.388,0,0,1-3.4-.219,13.388,13.388,0,0,1,3.4-.219,13.39,13.39,0,0,1,3.4.219" fill="#263238"/>
          <rect id="Rectángulo_406649" data-name="Rectángulo 406649" width="130.571" height="9.012" transform="translate(22.613 66.46)" fill="#9d978d"/>
          <path id="Trazado_907518" data-name="Trazado 907518" d="M61.908,82.625c0,.121-6.276.219-14.015.219s-14.017-.1-14.017-.219,6.274-.219,14.017-.219,14.015.1,14.015.219"/>
          <path id="Trazado_907519" data-name="Trazado 907519" d="M107.758,82.923a42.842,42.842,0,0,1-6.113.219,42.851,42.851,0,0,1-6.114-.219,42.853,42.853,0,0,1,6.114-.219,42.844,42.844,0,0,1,6.113.219"/>
          <path id="Trazado_907520" data-name="Trazado 907520" d="M124.96,82.177c0,.121-.6.219-1.342.219s-1.342-.1-1.342-.219.6-.219,1.342-.219,1.342.1,1.342.219"/>
          <path id="Trazado_907521" data-name="Trazado 907521" d="M148.369,82.476a34,34,0,0,1-5.442.219,34,34,0,0,1-5.443-.219,34.007,34.007,0,0,1,5.443-.219,34,34,0,0,1,5.442.219"/>
          <path id="Trazado_907522" data-name="Trazado 907522" d="M76.371,95.149c0,.122-9.514.219-21.246.219s-21.249-.1-21.249-.219,9.512-.218,21.249-.218,21.246.1,21.246.218"/>
          <path id="Trazado_907523" data-name="Trazado 907523" d="M105.522,95.3a28.675,28.675,0,0,1-5,.219,28.665,28.665,0,0,1-5-.219,28.664,28.664,0,0,1,5-.219,28.673,28.673,0,0,1,5,.219"/>
          <path id="Trazado_907524" data-name="Trazado 907524" d="M125.556,95.149a8.689,8.689,0,0,1-3.877,0,8.728,8.728,0,0,1,3.877,0"/>
          <path id="Trazado_907525" data-name="Trazado 907525" d="M146.878,94.851a31.274,31.274,0,0,1-5.218.219,31.272,31.272,0,0,1-5.219-.219,31.344,31.344,0,0,1,5.219-.218,31.346,31.346,0,0,1,5.218.218"/>
          <rect id="Rectángulo_406650" data-name="Rectángulo 406650" width="61.521" height="8.02" transform="translate(91.296 120.577)" fill="#9d978d"/>
          <path id="Trazado_907526" data-name="Trazado 907526" d="M139.324,109.253a61.216,61.216,0,0,1-7.312.219,61.213,61.213,0,0,1-7.313-.219,61.354,61.354,0,0,1,7.313-.218,61.358,61.358,0,0,1,7.312.218" fill="#263238"/>
          <path id="Trazado_907527" data-name="Trazado 907527" d="M139.324,114.632a61.219,61.219,0,0,1-7.312.219,61.216,61.216,0,0,1-7.313-.219,61.213,61.213,0,0,1,7.313-.219,61.216,61.216,0,0,1,7.312.219" fill="#263238"/>
          <path id="Trazado_907528" data-name="Trazado 907528" d="M112.155,114.632a61.229,61.229,0,0,1-7.313.219,61.191,61.191,0,0,1-7.312-.219,61.188,61.188,0,0,1,7.312-.219,61.226,61.226,0,0,1,7.313.219" fill="#263238"/>
          <path id="Trazado_907529" data-name="Trazado 907529" d="M112.155,108.983c0,.121-4.884.219-10.908.219s-10.907-.1-10.907-.219,4.883-.219,10.907-.219,10.908.1,10.908.219" fill="#263238"/>
          <path id="Trazado_907530" data-name="Trazado 907530" d="M139.324,124.993a61.216,61.216,0,0,1-7.312.219,61.213,61.213,0,0,1-7.313-.219,61.216,61.216,0,0,1,7.313-.219,61.219,61.219,0,0,1,7.312.219" fill="#fff"/>
          <path id="Trazado_907531" data-name="Trazado 907531" d="M112.962,124.993a61.226,61.226,0,0,1-7.313.219,61.188,61.188,0,0,1-7.312-.219,61.191,61.191,0,0,1,7.312-.219,61.229,61.229,0,0,1,7.313.219" fill="#fff"/>
          <path id="Trazado_907532" data-name="Trazado 907532" d="M29.508,17.545h-1.02a1.6,1.6,0,0,1-1.6-1.6v-1.02a1.6,1.6,0,0,1,1.6-1.6h1.02a1.6,1.6,0,0,1,1.6,1.6v1.02a1.6,1.6,0,0,1-1.6,1.6" fill="#9d978d"/>
          <path id="Trazado_907533" data-name="Trazado 907533" d="M27.837,18.428v.053a.245.245,0,0,0,.245.245h4.047V14.532a.245.245,0,0,0-.49,0v3.621l-3.559.03a.245.245,0,0,0-.243.245" fill="#9d978d"/>
          <path id="Trazado_907534" data-name="Trazado 907534" d="M58.3,14.787c0,.121-5.416.219-12.1.219s-12.1-.1-12.1-.219,5.415-.219,12.1-.219,12.1.1,12.1.219" fill="#9d978d"/>
          <path id="Trazado_907535" data-name="Trazado 907535" d="M47.083,17.11a45.9,45.9,0,0,1-6.328.219,45.9,45.9,0,0,1-6.329-.219,45.9,45.9,0,0,1,6.329-.219,45.9,45.9,0,0,1,6.328.219" fill="#9d978d"/>
          <path id="Trazado_907536" data-name="Trazado 907536" d="M161.46,186.781c0-1.722-.08-75.832-.2-186.562l.2.2L15.327.438h-.016L15.53.219c-.015,69.163-.027,133.39-.038,186.562l-.181-.181,146.149.181-146.149.181H15.13v-.181c-.011-53.172-.024-117.4-.038-186.562V0h.235L161.46.023h.2v.2c-.116,110.73-.194,184.841-.2,186.562" fill="#263238"/>
          <path id="Trazado_907537" data-name="Trazado 907537" d="M87.906,51.458c0,.121-7.819.219-17.462.219s-17.464-.1-17.464-.219,7.817-.219,17.464-.219,17.462.1,17.462.219" fill="#263238"/>
          <path id="Trazado_907538" data-name="Trazado 907538" d="M87.906,54.8c0,.121-7.819.219-17.462.219s-17.464-.1-17.464-.219,7.817-.219,17.464-.219,17.462.1,17.462.219" fill="#263238"/>
          <path id="Trazado_907539" data-name="Trazado 907539" d="M66.037,58.146a48.833,48.833,0,0,1-6.528.219,48.83,48.83,0,0,1-6.529-.219,48.83,48.83,0,0,1,6.529-.219,48.833,48.833,0,0,1,6.528.219" fill="#263238"/>
          <path id="Trazado_907540" data-name="Trazado 907540" d="M88.447,47.867c0,.121-14.7.219-32.83.219s-32.833-.1-32.833-.219,14.7-.219,32.833-.219,32.83.1,32.83.219" fill="#263238"/>
          <path id="Trazado_907541" data-name="Trazado 907541" d="M62.716,70.966c0,.121-6.557.219-14.643.219s-14.645-.1-14.645-.219,6.556-.219,14.645-.219,14.643.1,14.643.219" fill="#fff"/>
          <path id="Trazado_907542" data-name="Trazado 907542" d="M108.275,70.966a68.711,68.711,0,0,1-7.748.219,68.7,68.7,0,0,1-7.748-.219,68.693,68.693,0,0,1,7.748-.219,68.707,68.707,0,0,1,7.748.219" fill="#fff"/>
          <path id="Trazado_907543" data-name="Trazado 907543" d="M130.445,70.966a37.88,37.88,0,0,1-5.746.219,37.877,37.877,0,0,1-5.747-.219,37.875,37.875,0,0,1,5.747-.219,37.878,37.878,0,0,1,5.746.219" fill="#fff"/>
          <path id="Trazado_907544" data-name="Trazado 907544" d="M149.613,70.966a37.88,37.88,0,0,1-5.746.219,37.877,37.877,0,0,1-5.747-.219,37.875,37.875,0,0,1,5.747-.219,37.878,37.878,0,0,1,5.746.219" fill="#fff"/>
          <path id="Trazado_907545" data-name="Trazado 907545" d="M151.312,135.319c0,.144-28.394.26-63.411.26s-63.417-.116-63.417-.26,28.387-.26,63.417-.26,63.411.116,63.411.26" fill="#263238"/>
          <path id="Trazado_907546" data-name="Trazado 907546" d="M82.437,147.656c0,.144-12.614.26-28.17.26s-28.173-.116-28.173-.26,12.611-.26,28.173-.26,28.17.116,28.17.26" fill="#263238"/>
          <path id="Trazado_907547" data-name="Trazado 907547" d="M69.773,152.308c0,.144-9.778.26-21.838.26s-21.841-.116-21.841-.26,9.777-.26,21.841-.26,21.838.116,21.838.26" fill="#263238"/>
          <path id="Trazado_907548" data-name="Trazado 907548" d="M62.716,156.96c0,.144-8.2.26-18.31.26s-18.312-.116-18.312-.26,8.2-.26,18.312-.26,18.31.116,18.31.26" fill="#263238"/>
          <path id="Trazado_907549" data-name="Trazado 907549" d="M147.647,150.557a1.866,1.866,0,0,1-.348.1l-1.032.25c-.907.216-2.251.514-3.984.886-3.467.736-8.5,1.74-14.755,2.771-3.127.515-6.56,1.034-10.255,1.528-1.848.246-3.76.491-5.732.719l-3,.338c-.509.052-1.012.124-1.552.146a3.07,3.07,0,0,1-1.64-.329,1.593,1.593,0,0,1,.062-2.932,26.43,26.43,0,0,1,2.968-1.424,31.02,31.02,0,0,1,13.466-2.3,14.172,14.172,0,0,1,3.567.558,5.911,5.911,0,0,1,3.1,2.021,4.458,4.458,0,0,1,.7,3.639,6.762,6.762,0,0,1-1.742,3.209,14.431,14.431,0,0,1-2.789,2.212,27.706,27.706,0,0,1-3.018,1.736,6.805,6.805,0,0,1-3.4.76,3.868,3.868,0,0,1-2.922-1.78,7.791,7.791,0,0,1-1.1-3.151,21.527,21.527,0,0,1-.2-3.209,22.875,22.875,0,0,1,3.2-11.439,7.973,7.973,0,0,1,1.732-2.206,2.519,2.519,0,0,1,2.675-.478,3.144,3.144,0,0,1,1.622,2.07,4.828,4.828,0,0,1-.135,2.5,14.958,14.958,0,0,1-.879,2.173c-.318.686-.648,1.345-.98,1.979-.663,1.269-1.342,2.437-2.021,3.5a48.251,48.251,0,0,1-3.816,5.222c-1.144,1.358-2.1,2.355-2.762,3.01-.328.332-.593.57-.767.735a1.83,1.83,0,0,1-.275.235,1.792,1.792,0,0,1,.238-.273l.729-.77c.639-.678,1.566-1.694,2.681-3.066a50.465,50.465,0,0,0,3.725-5.247c.663-1.065,1.326-2.233,1.974-3.5a28.679,28.679,0,0,0,1.8-4.1,4.462,4.462,0,0,0,.116-2.3,2.759,2.759,0,0,0-1.416-1.8,2.107,2.107,0,0,0-2.245.437,7.582,7.582,0,0,0-1.623,2.1,22.5,22.5,0,0,0-3.091,11.223,20.924,20.924,0,0,0,.206,3.131,7.324,7.324,0,0,0,1.024,2.948,3.36,3.36,0,0,0,2.555,1.554,6.319,6.319,0,0,0,3.135-.72,27.48,27.48,0,0,0,2.955-1.706,13.925,13.925,0,0,0,2.688-2.133,6.238,6.238,0,0,0,1.612-2.962,3.937,3.937,0,0,0-.613-3.224,5.409,5.409,0,0,0-2.838-1.833,13.713,13.713,0,0,0-3.44-.537,30.6,30.6,0,0,0-13.249,2.248,26.325,26.325,0,0,0-2.9,1.379,1.121,1.121,0,0,0-.078,2.1,5.2,5.2,0,0,0,2.9.131l3-.327,5.729-.692c3.692-.475,7.125-.972,10.253-1.464,6.256-.983,11.295-1.931,14.773-2.606l4-.79,1.043-.2a1.821,1.821,0,0,1,.359-.05" fill="#263238"/>
          <path id="Trazado_907550" data-name="Trazado 907550" d="M155.376,180.169c0,.144-28.674.26-64.036.26s-64.042-.116-64.042-.26,28.667-.26,64.042-.26,64.036.116,64.036.26" fill="#263238"/>
          <path id="Trazado_907551" data-name="Trazado 907551" d="M109.928,168.289a17.809,17.809,0,0,1-4.279.26,17.809,17.809,0,0,1-4.279-.26,17.809,17.809,0,0,1,4.279-.26,17.809,17.809,0,0,1,4.279.26" fill="#263238"/>
        </g>
      </g>
    </g>
    <g id="Grupo_1114704" data-name="Grupo 1114704" transform="translate(307.051 3358)">
      <g id="Grupo_1114703" data-name="Grupo 1114703" clip-path="url(#clip-path-2)">
        <g id="Grupo_1114691" data-name="Grupo 1114691">
          <g id="Grupo_1114690" data-name="Grupo 1114690" clip-path="url(#clip-path-2)">
            <path id="Trazado_907313" data-name="Trazado 907313" d="M230.079,343.418H289.71l23.007-9.391v-2.345l-37.563.233L257.312,340.6l-23.869-.391a3.311,3.311,0,0,0-3.363,3.209" transform="translate(-61.224 -88.26)" fill="#263238"/>
            <path id="Trazado_907314" data-name="Trazado 907314" d="M323.671,334.867a3.05,3.05,0,0,1-.554.051l-1.59.07-5.848.189-19.3.479-9.213.191.081-.021-11.479,6.116-3.317,1.731-.891.448a1.517,1.517,0,0,1-.317.137,1.477,1.477,0,0,1,.288-.19l.863-.5,3.268-1.822,11.414-6.237.037-.021h.044l9.213-.213,19.3-.368,5.851-.068h1.591a3.012,3.012,0,0,1,.556.026" transform="translate(-72.177 -89.1)" fill="#455a64"/>
          </g>
        </g>
        <g id="Grupo_1114702" data-name="Grupo 1114702">
          <g id="Grupo_1114701" data-name="Grupo 1114701" clip-path="url(#clip-path-2)">
            <path id="Trazado_907315" data-name="Trazado 907315" d="M143.227,2.086c-9.421-2.051-19.52,1.117-27.065,7.12S103.436,23.79,100.145,32.852s-4.818,18.659-6.106,28.216q-3.206,23.782-4.58,47.762a13.183,13.183,0,0,0,.578,5.932c1.124,2.644,3.89,4.3,6.71,4.85a26.567,26.567,0,0,0,8.577-.206" transform="translate(-23.785 -0.389)" fill="#263238"/>
            <path id="Trazado_907316" data-name="Trazado 907316" d="M174.832,7.719c7.328-.583,16.227,2.175,20.407,8.222,3.249,4.7,2.5,12.908,3.633,18.508,1.808,8.972,3.623,18,3.876,27.147.28,10.056-1.331,20.058-2.936,29.988q-2.662,16.465-5.322,32.93c-.79,4.884-1.611,9.866-3.911,14.246s-6.381,8.132-11.295,8.71c-4.5.529-9.015-1.714-12.046-5.079s-4.744-7.724-5.8-12.126" transform="translate(-42.958 -2.034)" fill="#263238"/>
            <path id="Trazado_907317" data-name="Trazado 907317" d="M207.01,117.417c-.241-.117.12-1.4.934-3.639s2.1-5.413,3.513-9.365a87.363,87.363,0,0,0,3.937-14.047A46.727,46.727,0,0,0,215.4,72.92c-1.157-6.163-3.181-11.949-4.833-17.331A84.755,84.755,0,0,1,207.1,40.861a35.438,35.438,0,0,1,.064-10.288c.429-2.4.992-3.643,1.226-3.594.6.1-.37,5.311,1.376,13.444a110.683,110.683,0,0,0,4.149,14.067c1.815,5.277,4,11.147,5.246,17.734.314,1.642.523,3.294.673,4.928.058.821.123,1.635.123,2.446s.055,1.614,0,2.407a47.716,47.716,0,0,1-1.113,9.042,71.331,71.331,0,0,1-4.887,14.382,90.091,90.091,0,0,1-4.676,8.99c-1.232,2.048-2.042,3.111-2.276,3" transform="translate(-55.019 -7.179)" fill="#263238"/>
            <path id="Trazado_907318" data-name="Trazado 907318" d="M121.523,38.114c.981-17.224,16.232-30.3,33.933-28.689,16.683,1.513,29.028,16.211,28.513,32.662-.452,14.421-1.231,28.918-2.252,34.046-3.082,15.464-13.439,19.782-17.52,20.9a21.157,21.157,0,0,1-4.342.243.105.105,0,0,0-.11.1l.2,18.446c-.578,11.953-9.138,21.12-21.306,20.613-12.209-.508-19.841-11.191-19.488-23.194Z" transform="translate(-31.702 -2.473)" fill="#ffbe9d"/>
            <path id="Trazado_907319" data-name="Trazado 907319" d="M196.623,65.669a2.511,2.511,0,0,1-2.55,2.426,2.442,2.442,0,0,1-2.545-2.369,2.512,2.512,0,0,1,2.547-2.428,2.443,2.443,0,0,1,2.548,2.371" transform="translate(-50.965 -16.844)" fill="#263238"/>
            <path id="Trazado_907320" data-name="Trazado 907320" d="M197.8,57.754c-.328.313-2.208-1.171-4.952-1.278-2.738-.146-4.8,1.157-5.087.815-.142-.152.2-.728,1.1-1.319a7.053,7.053,0,0,1,4.088-1.057,6.832,6.832,0,0,1,3.927,1.425c.821.672,1.084,1.275.923,1.414" transform="translate(-49.954 -14.611)" fill="#263238"/>
            <path id="Trazado_907321" data-name="Trazado 907321" d="M161.669,64.843a2.512,2.512,0,0,1-2.55,2.426,2.441,2.441,0,0,1-2.545-2.368,2.512,2.512,0,0,1,2.547-2.428,2.443,2.443,0,0,1,2.548,2.371" transform="translate(-41.664 -16.624)" fill="#263238"/>
            <path id="Trazado_907322" data-name="Trazado 907322" d="M161.03,56.911c-.329.313-2.211-1.171-4.953-1.278-2.738-.145-4.8,1.158-5.088.815-.14-.152.2-.728,1.1-1.318a7.052,7.052,0,0,1,4.088-1.058,6.839,6.839,0,0,1,3.927,1.425c.818.672,1.084,1.274.924,1.414" transform="translate(-40.17 -14.386)" fill="#263238"/>
            <path id="Trazado_907323" data-name="Trazado 907323" d="M177.084,77.588c-.007-.154,1.709-.372,4.485-.6.7-.042,1.371-.15,1.505-.616a3.456,3.456,0,0,0-.393-2.059q-.9-2.541-1.88-5.33c-2.605-7.584-4.464-13.808-4.153-13.907s2.675,5.969,5.28,13.554q.938,2.8,1.792,5.356a3.93,3.93,0,0,1,.265,2.718,1.737,1.737,0,0,1-1.188.958,4.821,4.821,0,0,1-1.2.113c-2.786.032-4.511-.029-4.516-.182" transform="translate(-46.997 -14.654)" fill="#263238"/>
            <path id="Trazado_907324" data-name="Trazado 907324" d="M165.914,126.281s-10.622.414-23.585-7.965c0,0,3.678,13.936,23.639,12.935Z" transform="translate(-37.873 -31.484)" fill="#eb996e"/>
            <path id="Trazado_907325" data-name="Trazado 907325" d="M172.362,93.817A5.013,5.013,0,0,0,168,91.828a4.512,4.512,0,0,0-3.176,1.513,2.772,2.772,0,0,0-.335,3.206,3.372,3.372,0,0,0,3.564,1.044,10.355,10.355,0,0,0,3.581-1.912,2.983,2.983,0,0,0,.812-.764.889.889,0,0,0,.032-1" transform="translate(-43.671 -24.433)" fill="#eb996e"/>
            <path id="Trazado_907326" data-name="Trazado 907326" d="M165.981,87.837c.446-.007.346,2.92,2.82,5.1s5.653,1.993,5.661,2.4c.036.185-.727.539-2.067.519a7.544,7.544,0,0,1-4.734-1.841,6.354,6.354,0,0,1-2.172-4.271c-.07-1.229.288-1.939.492-1.914" transform="translate(-44.034 -23.373)" fill="#263238"/>
            <path id="Trazado_907327" data-name="Trazado 907327" d="M162.043,50.764c-.3.721-3.024.261-6.256.508-3.238.183-5.867,1-6.27.327-.179-.323.3-.994,1.374-1.66a10.509,10.509,0,0,1,4.69-1.4,10.626,10.626,0,0,1,4.853.765c1.165.517,1.739,1.118,1.609,1.461" transform="translate(-39.777 -12.909)" fill="#263238"/>
            <path id="Trazado_907328" data-name="Trazado 907328" d="M196.967,50.135c-.5.592-2.371-.122-4.643-.246-2.267-.2-4.212.236-4.632-.422-.182-.319.143-.92,1-1.465a6.83,6.83,0,0,1,7.473.539c.78.663,1.021,1.3.8,1.594" transform="translate(-49.932 -12.543)" fill="#263238"/>
            <path id="Trazado_907329" data-name="Trazado 907329" d="M145.873,138.432S181.666,152.267,186,154.745s5.747,4.235,5.747,4.235l-25.159,23.851H118.267L81.3,157.636l6.445-16.393,20.605-4.687" transform="translate(-21.634 -36.337)" fill="#ffbe9d"/>
            <path id="Trazado_907330" data-name="Trazado 907330" d="M64,324.354a21.153,21.153,0,0,1-.821-9.369c.114.007.032,2.116.264,4.7s.668,4.645.557,4.671" transform="translate(-16.756 -83.817)" fill="#eb996e"/>
            <path id="Trazado_907331" data-name="Trazado 907331" d="M228.832,167.11l-6.582,4.36-1.6,116.624,31.479-17.821s-15.644-100.743-23.3-103.162" transform="translate(-58.715 -44.468)" fill="#9d978d"/>
            <path id="Trazado_907332" data-name="Trazado 907332" d="M66.113,142.941s-24.187,1.612-29.831,10.078S12.5,242.11,12.5,242.11,2.839,256.548,2.051,260.1C.987,264.88,0,274.428,0,274.428L6.029,283.2l2.414,2.437s-1.588-27.047,26.63-19.161l8.063-.7,8.1-48.5,4,39.482L45.108,293.331l116.8-.064,3.181-129.259s-15.239,8.014-31.252,5.942c-9.411-1.217-54.02-12.9-67.725-27.009" transform="translate(0 -38.036)" fill="#9d978d"/>
            <path id="Trazado_907333" data-name="Trazado 907333" d="M44.7,299.623c-.035.013-.255-.567-.737-1.573a20.866,20.866,0,0,0-2.522-3.972,21.437,21.437,0,0,0-5.162-4.651,20.683,20.683,0,0,0-7.9-3.046,20.675,20.675,0,0,0-8.454.531A21.42,21.42,0,0,0,13.6,289.8a20.917,20.917,0,0,0-3.6,3.031c-.76.815-1.146,1.3-1.175,1.278a2.011,2.011,0,0,1,.255-.371,12.753,12.753,0,0,1,.811-1.007,19.249,19.249,0,0,1,3.556-3.154,21.1,21.1,0,0,1,6.38-3A20.667,20.667,0,0,1,28.434,286a20.687,20.687,0,0,1,8.035,3.128,21.123,21.123,0,0,1,5.182,4.778,19.285,19.285,0,0,1,2.445,4.078,12.809,12.809,0,0,1,.47,1.2,1.984,1.984,0,0,1,.131.432" transform="translate(-2.349 -76.048)" fill="#263238"/>
            <path id="Trazado_907334" data-name="Trazado 907334" d="M50.8,292.778a9.3,9.3,0,0,1-.263-1.2,26.409,26.409,0,0,0-.879-3.223,24.336,24.336,0,0,0-14.9-15.177,26.457,26.457,0,0,0-3.206-.94,9.294,9.294,0,0,1-1.2-.285,1.055,1.055,0,0,1,.32.015c.208.026.517.051.907.125a21.461,21.461,0,0,1,3.267.83,23.646,23.646,0,0,1,15.064,15.348,21.365,21.365,0,0,1,.77,3.281c.068.393.086.7.109.91a1.026,1.026,0,0,1,.008.32" transform="translate(-8.079 -72.363)" fill="#263238"/>
            <path id="Trazado_907335" data-name="Trazado 907335" d="M62.956,231.707a1.554,1.554,0,0,1-.229-.33c-.156-.262-.351-.587-.589-.984-.506-.858-1.217-2.112-2.083-3.668-1.733-3.112-4.05-7.453-6.593-12.252s-4.868-9.136-6.6-12.242l-2.067-3.673-.559-1a1.574,1.574,0,0,1-.172-.363,1.6,1.6,0,0,1,.239.323l.621.964c.531.843,1.281,2.075,2.174,3.616,1.8,3.077,4.161,7.394,6.706,12.2l6.492,12.3,1.976,3.725.528,1.019a1.609,1.609,0,0,1,.161.368" transform="translate(-11.724 -52.473)" fill="#263238"/>
            <path id="Trazado_907336" data-name="Trazado 907336" d="M67.63,185.434a3.271,3.271,0,0,1,.032.575c0,.412.01.961.017,1.648.01,1.43.023,3.5.079,6.058.093,5.115.353,12.177.782,19.971s.945,14.845,1.356,19.945c.206,2.52.374,4.573.495,6.039.053.685.1,1.231.128,1.643a3.214,3.214,0,0,1,.018.575,3.233,3.233,0,0,1-.1-.567l-.2-1.637c-.162-1.422-.381-3.482-.616-6.03-.48-5.1-1.033-12.148-1.468-19.948s-.646-14.868-.67-19.988c-.022-2.56.007-4.632.042-6.063.023-.687.042-1.235.055-1.648a3.226,3.226,0,0,1,.046-.574" transform="translate(-17.956 -49.344)" fill="#263238"/>
            <path id="Trazado_907337" data-name="Trazado 907337" d="M150.75,315.787a.842.842,0,0,1-.2-.066l-.565-.23-2.159-.917c-.939-.4-2.081-.895-3.386-1.522s-2.812-1.3-4.425-2.142l-2.549-1.3c-.885-.454-1.784-.966-2.726-1.476-1.893-1.005-3.857-2.183-5.936-3.4-4.118-2.5-8.555-5.4-13.048-8.682-4.477-3.3-8.577-6.667-12.2-9.845-1.786-1.618-3.5-3.138-5.025-4.643-.769-.746-1.528-1.45-2.227-2.158l-2-2.042c-1.291-1.287-2.385-2.52-3.37-3.58s-1.808-2-2.467-2.772l-1.523-1.784-.388-.47a.874.874,0,0,1-.123-.169.84.84,0,0,1,.153.143l.417.445,1.575,1.736c.676.761,1.51,1.685,2.514,2.726s2.1,2.264,3.406,3.536l2.017,2.022c.7.7,1.466,1.4,2.238,2.138,1.533,1.492,3.25,3,5.039,4.608,3.628,3.158,7.725,6.505,12.192,9.8,4.483,3.272,8.9,6.176,13,8.689,2.07,1.224,4.023,2.41,5.906,3.425.937.514,1.831,1.033,2.711,1.493l2.533,1.317c1.6.859,3.1,1.55,4.395,2.188s2.426,1.164,3.355,1.58l2.128.983.55.264a.868.868,0,0,1,.182.1" transform="translate(-23 -71.471)" fill="#263238"/>
            <path id="Trazado_907338" data-name="Trazado 907338" d="M23.429,282.367,62.209,324.4l2.925,6.243-6.195-3.09-39.378-41.57a2.648,2.648,0,1,1,3.868-3.617" transform="translate(-5.012 -74.91)" fill="#263238"/>
            <path id="Trazado_907339" data-name="Trazado 907339" d="M222.022,219.862a.924.924,0,0,1,.012.22c0,.167,0,.379,0,.645-.01.593-.023,1.423-.041,2.478-.052,2.18-.126,5.286-.217,9.114-.185,7.718-.44,18.336-.722,30.065-.208,11.734-.4,22.355-.534,30.074-.068,3.828-.124,6.935-.163,9.114-.027,1.055-.048,1.884-.063,2.478-.01.266-.019.478-.026.644a.944.944,0,0,1-.022.219.986.986,0,0,1-.017-.22c0-.167-.007-.379-.012-.644,0-.594-.006-1.423-.01-2.478.01-2.18.024-5.288.042-9.116.059-7.7.178-18.332.422-30.079s.572-22.372.834-30.065c.142-3.826.258-6.932.338-9.11.048-1.055.086-1.884.113-2.477.016-.265.029-.477.039-.644a.951.951,0,0,1,.026-.219" transform="translate(-58.597 -58.505)" fill="#263238"/>
            <g id="Grupo_1114694" data-name="Grupo 1114694" transform="translate(66.987 201.172)" opacity="0.3">
              <g id="Grupo_1114693" data-name="Grupo 1114693">
                <g id="Grupo_1114692" data-name="Grupo 1114692" clip-path="url(#clip-path-5)">
                  <path id="Trazado_907340" data-name="Trazado 907340" d="M91.275,274.113s17.634,12.183,27.59,16.167,20.226,7.238,29.839,11.991c2.817,1.392,6.012,3.763,5.435,6.852a5.145,5.145,0,0,1-4,3.7,15.129,15.129,0,0,1-5.727-.1l-2.456-.156s-31.244-16.058-50.681-38.461" transform="translate(-91.275 -274.113)"/>
                </g>
              </g>
            </g>
            <path id="Trazado_907341" data-name="Trazado 907341" d="M245.167,289.313a10.825,10.825,0,0,1-1.32.188,29.885,29.885,0,0,0-3.553.686,27.729,27.729,0,0,0-18.032,14.453,29.976,29.976,0,0,0-1.444,3.318,10.883,10.883,0,0,1-.47,1.247,1.226,1.226,0,0,1,.064-.341c.059-.219.131-.546.266-.954a24.43,24.43,0,0,1,1.342-3.39,26.931,26.931,0,0,1,18.21-14.6,24.444,24.444,0,0,1,3.6-.572c.428-.043.763-.042.989-.051a1.181,1.181,0,0,1,.346.012" transform="translate(-58.633 -76.982)" fill="#263238"/>
            <g id="Grupo_1114697" data-name="Grupo 1114697" transform="translate(161.659 208.747)" opacity="0.3">
              <g id="Grupo_1114696" data-name="Grupo 1114696">
                <g id="Grupo_1114695" data-name="Grupo 1114695" clip-path="url(#clip-path-6)">
                  <path id="Trazado_907342" data-name="Trazado 907342" d="M220.273,306.96a27.936,27.936,0,0,1,17.109-21.924,5.931,5.931,0,0,1,3.166-.547,2.37,2.37,0,0,1,2.052,2.172c-.045,1.585-1.959,2.282-3.47,2.762a26.494,26.494,0,0,0-10.857,7.192,79.107,79.107,0,0,0-7.984,10.44" transform="translate(-220.273 -284.434)"/>
                </g>
              </g>
            </g>
            <g id="Grupo_1114700" data-name="Grupo 1114700" transform="translate(18.879 201.099)" opacity="0.3">
              <g id="Grupo_1114699" data-name="Grupo 1114699">
                <g id="Grupo_1114698" data-name="Grupo 1114698" clip-path="url(#clip-path-7)">
                  <path id="Trazado_907343" data-name="Trazado 907343" d="M49.86,297.061a26.449,26.449,0,0,0-17.422-22.449,8.394,8.394,0,0,0-3.511-.573,3.624,3.624,0,0,0-2.917,1.816,3.752,3.752,0,0,0,1.014,4.168,10.28,10.28,0,0,0,4.031,2.1c4.106,1.381,8.388,2.558,11.884,5.115s4.536,5.664,6.92,9.82" transform="translate(-25.724 -274.013)"/>
                </g>
              </g>
            </g>
            <path id="Trazado_907344" data-name="Trazado 907344" d="M187.164,175.383s-.107.073-.325.2l-.975.553-1.592.888c-.631.347-1.349.769-2.2,1.165a99.644,99.644,0,0,1-14.66,6l-2.451.778-2.594.7c-.886.225-1.78.5-2.709.7l-2.837.612-1.456.314-1.493.25-3.059.51c-1.038.148-2.1.256-3.168.389s-2.157.266-3.263.324l-3.355.239-3.439.091-1.748.035-1.765-.041c-1.182-.04-2.379-.026-3.581-.113a103.63,103.63,0,0,1-14.789-1.9,108.986,108.986,0,0,1-14.367-4.006c-4.554-1.578-8.869-3.308-12.952-5.012-8.156-3.432-15.43-6.676-21.668-9.083s-11.364-4.2-15.066-4.742a22.447,22.447,0,0,0-4.28-.287c-.492.015-.865.041-1.116.066s-.382.02-.382.02a10.673,10.673,0,0,1,1.494-.163,21.256,21.256,0,0,1,4.306.217c3.733.5,8.89,2.266,15.141,4.638s13.55,5.6,21.707,9.009c4.083,1.693,8.394,3.413,12.938,4.983a109.476,109.476,0,0,0,14.321,3.986,104.116,104.116,0,0,0,14.733,1.9c1.2.087,2.39.075,3.567.117l1.759.043,1.742-.032,3.427-.085,3.344-.231c1.1-.057,2.185-.188,3.253-.316s2.124-.235,3.159-.379l3.05-.5,1.49-.244,1.453-.308,2.831-.6c.928-.195,1.819-.462,2.7-.683l2.59-.682,2.448-.764a103.531,103.531,0,0,0,14.676-5.879c.853-.385,1.574-.8,2.211-1.132l1.607-.855.993-.519c.225-.115.345-.166.345-.166" transform="translate(-12.208 -43.596)" fill="#fafafa"/>
            <path id="Trazado_907345" data-name="Trazado 907345" d="M59.19,196.168a4.1,4.1,0,0,1-.8-.433l-2.116-1.285a52.875,52.875,0,0,0-7.2-3.788,23.621,23.621,0,0,0-7.859-1.84c-2.078-.09-3.356.179-3.366.1a3.617,3.617,0,0,1,.89-.2,14.414,14.414,0,0,1,2.484-.17,21.981,21.981,0,0,1,8,1.757,44.263,44.263,0,0,1,7.2,3.912c.876.573,1.575,1.052,2.053,1.39a4.155,4.155,0,0,1,.721.557" transform="translate(-10.072 -50.173)" fill="#fafafa"/>
            <path id="Trazado_907346" data-name="Trazado 907346" d="M182.02,220.632a1.84,1.84,0,0,1-.264.153l-.794.413-1.3.659-1.81.82a66.27,66.27,0,0,1-12.029,3.915,83.919,83.919,0,0,1-18.648,2.019,119.118,119.118,0,0,1-22.851-2.361c-8.016-1.546-15.514-3.632-22.283-5.649s-12.816-4-17.868-5.74-9.109-3.231-11.9-4.286l-3.211-1.236-.83-.335a1.68,1.68,0,0,1-.278-.125,1.871,1.871,0,0,1,.292.089l.843.3,3.234,1.169c2.809,1.012,6.879,2.464,11.939,4.169s11.112,3.654,17.882,5.658,14.258,4.069,22.255,5.611a120.405,120.405,0,0,0,22.778,2.384,85.006,85.006,0,0,0,18.588-1.93,68.967,68.967,0,0,0,12.029-3.788l1.821-.785,1.311-.626.81-.379a1.8,1.8,0,0,1,.283-.117" transform="translate(-18.082 -55.582)" fill="#fafafa"/>
            <path id="Trazado_907347" data-name="Trazado 907347" d="M238.763,208.771a21.632,21.632,0,0,1-2.5.757c-1.548.445-3.677,1.089-5.964,1.974s-4.294,1.848-5.737,2.562a21.645,21.645,0,0,1-2.357,1.127,2.52,2.52,0,0,1,.577-.405c.382-.241.948-.57,1.655-.961a46.608,46.608,0,0,1,11.758-4.558c.786-.187,1.425-.326,1.871-.406a2.505,2.505,0,0,1,.7-.09" transform="translate(-59.128 -55.551)" fill="#fafafa"/>
            <path id="Trazado_907348" data-name="Trazado 907348" d="M57.031,239.8a7.768,7.768,0,0,1-1.049-.672c-.327-.23-.73-.506-1.215-.8s-1.016-.664-1.642-1.009a45.553,45.553,0,0,0-4.454-2.3,49.028,49.028,0,0,0-5.755-2.116,49.007,49.007,0,0,0-5.992-1.308,45.753,45.753,0,0,0-4.991-.454c-.713-.045-1.359-.025-1.927-.032s-1.057.006-1.456.024a7.721,7.721,0,0,1-1.246,0,7.923,7.923,0,0,1,1.237-.152c.4-.04.89-.079,1.46-.089s1.22-.054,1.939-.025a40.825,40.825,0,0,1,5.034.376,45.629,45.629,0,0,1,6.05,1.289,45.733,45.733,0,0,1,5.793,2.162,40.791,40.791,0,0,1,4.448,2.387c.621.362,1.149.744,1.622,1.062s.868.611,1.184.86a7.68,7.68,0,0,1,.962.793" transform="translate(-7.265 -61.431)" fill="#fafafa"/>
            <path id="Trazado_907349" data-name="Trazado 907349" d="M181.2,265.145a1.625,1.625,0,0,1-.278.091l-.824.23c-.728.185-1.791.515-3.187.819a100.818,100.818,0,0,1-11.929,2.053,122.7,122.7,0,0,1-17.938.67,170.022,170.022,0,0,1-21.865-2.24,305.437,305.437,0,0,1-38.759-9.542c-4.886-1.494-8.824-2.751-11.542-3.628l-3.127-1.021-.811-.275a1.714,1.714,0,0,1-.272-.106,1.612,1.612,0,0,1,.284.068l.821.239,3.148.952L86.5,256.967a320.765,320.765,0,0,0,38.742,9.423,173.4,173.4,0,0,0,21.816,2.265,125.656,125.656,0,0,0,17.9-.586,108.251,108.251,0,0,0,11.924-1.929c1.4-.28,2.467-.588,3.2-.748l.834-.193a1.6,1.6,0,0,1,.288-.054" transform="translate(-18.804 -67.108)" fill="#fafafa"/>
            <path id="Trazado_907350" data-name="Trazado 907350" d="M244.307,243.341a4.239,4.239,0,0,1-.893.215l-2.445.495c-2.06.433-4.889,1.118-7.948,2.089s-5.763,2.053-7.694,2.892l-2.281,1.01a4.242,4.242,0,0,1-.854.34,4.256,4.256,0,0,1,.787-.474c.517-.286,1.281-.672,2.236-1.123a63.786,63.786,0,0,1,15.7-5c1.041-.184,1.887-.311,2.474-.376a4.2,4.2,0,0,1,.917-.068" transform="translate(-59.125 -64.75)" fill="#fafafa"/>
            <path id="Trazado_907351" data-name="Trazado 907351" d="M51.858,278.033a13.379,13.379,0,0,1-.782-1.214,29.537,29.537,0,0,0-2.317-3.162,27.736,27.736,0,0,0-22.817-9.991,29.521,29.521,0,0,0-3.895.442,13.152,13.152,0,0,1-1.422.248,1.438,1.438,0,0,1,.354-.123c.236-.063.582-.176,1.038-.271a24.947,24.947,0,0,1,3.909-.566,27.1,27.1,0,0,1,23.041,10.089,24.868,24.868,0,0,1,2.235,3.256c.241.4.392.73.506.947a1.4,1.4,0,0,1,.149.344" transform="translate(-5.488 -70.071)" fill="#fafafa"/>
            <path id="Trazado_907352" data-name="Trazado 907352" d="M113.062,304.092c-.019.1-8.416-1.362-18.751-3.274s-18.7-3.546-18.683-3.65,8.413,1.361,18.753,3.274,18.7,3.546,18.681,3.65" transform="translate(-20.124 -79.074)" fill="#fafafa"/>
            <path id="Trazado_907353" data-name="Trazado 907353" d="M198.25,315.193a3.446,3.446,0,0,1-.592.054l-1.7.082c-1.477.065-3.617.131-6.26.189-5.287.117-12.594.161-20.663-.012s-15.37-.541-20.647-.889c-2.638-.173-4.773-.332-6.245-.462l-1.7-.156a3.561,3.561,0,0,1-.589-.08,3.467,3.467,0,0,1,.6,0l1.7.084,6.251.341c5.279.279,12.575.6,20.64.776s15.364.172,20.651.125l6.26-.068,1.7-.01a3.491,3.491,0,0,1,.594.023" transform="translate(-37.215 -83.531)" fill="#fafafa"/>
            <path id="Trazado_907354" data-name="Trazado 907354" d="M249.07,280.585a6.75,6.75,0,0,1-1.161.045c-.746,0-1.825.027-3.154.107s-2.907.241-4.646.5a48.308,48.308,0,0,0-11,3.086c-1.623.68-3.057,1.358-4.23,1.987s-2.115,1.158-2.749,1.55a6.876,6.876,0,0,1-1.014.566,6.591,6.591,0,0,1,.934-.691c.612-.432,1.533-1,2.7-1.662A43.59,43.59,0,0,1,228.978,284a44.753,44.753,0,0,1,11.078-3.11,43.441,43.441,0,0,1,4.686-.426c1.339-.045,2.423-.036,3.17.015a6.766,6.766,0,0,1,1.158.1" transform="translate(-58.839 -74.624)" fill="#fafafa"/>
            <path id="Trazado_907355" data-name="Trazado 907355" d="M43.285,307.2c-.039.02-.325-.6-.974-1.643a16.445,16.445,0,0,0-3.43-3.862,20.121,20.121,0,0,0-6.717-3.63,22.818,22.818,0,0,0-9.285-.956,29.243,29.243,0,0,0-9.011,2.609,39.985,39.985,0,0,0-6.62,3.936c-1.778,1.292-3.143,2.439-4.069,3.251-.47.4-.816.728-1.064.938a2.452,2.452,0,0,1-.387.311,2.346,2.346,0,0,1,.334-.367c.231-.228.561-.576,1.017-.992a46.937,46.937,0,0,1,4.009-3.359,38.514,38.514,0,0,1,6.63-4.036,29.043,29.043,0,0,1,9.118-2.671,22.858,22.858,0,0,1,9.437,1,19.992,19.992,0,0,1,6.782,3.758,15.677,15.677,0,0,1,3.382,3.99,10.648,10.648,0,0,1,.655,1.265,2.434,2.434,0,0,1,.192.457" transform="translate(-0.46 -78.925)" fill="#fafafa"/>
            <path id="Trazado_907356" data-name="Trazado 907356" d="M145.126,342.017a.824.824,0,0,1-.2,0l-.6-.029-2.3-.149c-2-.131-4.88-.377-8.439-.74s-7.788-.871-12.47-1.545c-4.679-.692-9.809-1.552-15.162-2.623-5.352-1.087-10.416-2.286-14.994-3.477-4.573-1.212-8.664-2.406-12.07-3.5-1.711-.522-3.238-1.059-4.585-1.508s-2.5-.86-3.439-1.207l-2.161-.8-.558-.216a.817.817,0,0,1-.186-.087.853.853,0,0,1,.2.05l.572.181,2.183.729c.945.324,2.1.718,3.457,1.143s2.885.948,4.6,1.453c3.413,1.058,7.506,2.224,12.079,3.416,4.577,1.171,9.636,2.357,14.98,3.443,5.346,1.069,10.468,1.938,15.139,2.649,4.673.691,8.895,1.232,12.448,1.624s6.43.684,8.422.86l2.292.221.6.067a.836.836,0,0,1,.2.036" transform="translate(-18.083 -86.786)" fill="#fafafa"/>
            <path id="Trazado_907357" data-name="Trazado 907357" d="M47.222,306.681l10.372,3.325,3.857-.665,6.535,1.8a4.832,4.832,0,0,1,3.532,5.045,28.549,28.549,0,0,1-.892,5.055c-1.6,6.053-4.256,5.92-7.048,5.122s-4.078-3.074-4.3-6.656l-6.607-3.614Z" transform="translate(-12.566 -81.607)" fill="#ffbe9d"/>
            <path id="Trazado_907358" data-name="Trazado 907358" d="M62.326,322.114a8.13,8.13,0,0,1-3.3-7.041,12.726,12.726,0,0,0,3.3,7.041" transform="translate(-15.69 -83.84)" fill="#eb996e"/>
            <path id="Trazado_907359" data-name="Trazado 907359" d="M24.381,305.645s-8.534,1.054-10.923,5.135-5.245,15.612-5.245,15.612l8.084,9.461s32.831,1.365,33.856,0-.357-2.867-.357-2.867,4.039,1.811,5.746.617,2.235-4.2,1.678-5.672c-1.049-2.757-2.986-5.5-7.424-7.6a143.17,143.17,0,0,1-12.785-7.686s-6.144-6.144-7.339-7-5.291,0-5.291,0" transform="translate(-2.185 -81.231)" fill="#ffbe9d"/>
            <path id="Trazado_907360" data-name="Trazado 907360" d="M54.675,336.267a1.294,1.294,0,0,1-.351-.09l-.979-.33-3.576-1.279c-3.013-1.1-7.167-2.634-11.746-4.356a18.221,18.221,0,0,1-6.093-3.283,16.068,16.068,0,0,1-3.371-4.545,36.34,36.34,0,0,1-1.549-3.477c-.161-.418-.283-.745-.36-.968a1.274,1.274,0,0,1-.1-.348,1.327,1.327,0,0,1,.171.319l.426.94c.368.816.89,2,1.65,3.408a16.313,16.313,0,0,0,3.366,4.409,18.312,18.312,0,0,0,5.993,3.189c4.579,1.722,8.718,3.3,11.707,4.461l3.533,1.393.953.4a1.3,1.3,0,0,1,.324.163" transform="translate(-7.065 -84.51)" fill="#eb996e"/>
            <path id="Trazado_907361" data-name="Trazado 907361" d="M37.7,345.571a7.9,7.9,0,0,1-1.683-.7c-1.014-.487-2.391-1.209-3.868-2.082s-2.773-1.733-3.687-2.388a7.907,7.907,0,0,1-1.423-1.138,9.434,9.434,0,0,1,1.573.913c.95.6,2.262,1.414,3.732,2.284s2.819,1.625,3.8,2.171a9.471,9.471,0,0,1,1.558.939" transform="translate(-7.195 -90.276)" fill="#eb996e"/>
            <path id="Trazado_907362" data-name="Trazado 907362" d="M17.054,333.15a.761.761,0,0,1-.033-.7,7.838,7.838,0,0,1,1.066-1.568,1.6,1.6,0,0,0,.279-1.138,5.2,5.2,0,0,0-.453-1.37,14.532,14.532,0,0,1-1.055-3.3,6.343,6.343,0,0,1,.323-3.47,4,4,0,0,1,1.919-2.1,3.251,3.251,0,0,1,1.891-.335,1.372,1.372,0,0,1,.667.221c-.01.032-.247-.051-.681-.073a3.351,3.351,0,0,0-1.753.426,3.812,3.812,0,0,0-1.717,2,6.179,6.179,0,0,0-.272,3.274,15.381,15.381,0,0,0,1,3.225,5.293,5.293,0,0,1,.443,1.472,1.874,1.874,0,0,1-.371,1.322,10.453,10.453,0,0,0-1.151,1.47,1.68,1.68,0,0,0-.106.652" transform="translate(-4.459 -84.921)" fill="#eb996e"/>
            <path id="Trazado_907363" data-name="Trazado 907363" d="M41.255,317.909a11.73,11.73,0,0,0-3.2,2.073,11.71,11.71,0,0,0-2.068,3.206,2.456,2.456,0,0,1,.255-1.132,6.971,6.971,0,0,1,3.882-3.889,2.477,2.477,0,0,1,1.132-.258" transform="translate(-9.572 -84.591)" fill="#eb996e"/>
            <path id="Trazado_907364" data-name="Trazado 907364" d="M71.734,331.36c.008.022-.156.109-.471.214a5.316,5.316,0,0,1-1.391.242,6.162,6.162,0,0,1-6.474-5.575,5.314,5.314,0,0,1,.034-1.411,1.208,1.208,0,0,1,.142-.5,17.372,17.372,0,0,0,.093,1.874,6.2,6.2,0,0,0,6.2,5.339,17.612,17.612,0,0,0,1.868-.186" transform="translate(-16.862 -86.304)" fill="#eb996e"/>
            <path id="Trazado_907365" data-name="Trazado 907365" d="M223.875,315.274l17.25-11.007a14.963,14.963,0,0,1,4.107,0,4.533,4.533,0,0,1,2.957,2.136l3.943.328,10.35,9.365,5.4.821,1.007,1.972-1.971,7.474s-4.929,5.035-8.543,3.052l-4.6.462-4.108-.462s.329,3.931-1.15,3.931-3.943-.493-4.6-1.643a41,41,0,0,1-1.807-4.6l-3.943,4.107s-3.636,3.967-5.75,2.136c-1.786-1.549-1.971-2.464-1.971-2.464s-2.93.493-4.587-.492-4.285-.495-4.941-4.026-.24-9.049,2.957-11.089" transform="translate(-58.715 -80.926)" fill="#ffbe9d"/>
            <path id="Trazado_907366" data-name="Trazado 907366" d="M249.309,332.5a2.57,2.57,0,0,1-.335-.676,13.874,13.874,0,0,1-.612-1.96,58.662,58.662,0,0,1-.938-6.681,18.685,18.685,0,0,0-1.764-6.4,21.7,21.7,0,0,0-1.516-2.316,2.5,2.5,0,0,1,.553.513,9.425,9.425,0,0,1,1.2,1.673,17.23,17.23,0,0,1,1.906,6.483c.305,2.624.461,4.993.822,6.67.332,1.683.745,2.671.683,2.695" transform="translate(-64.966 -83.678)" fill="#eb996e"/>
            <path id="Trazado_907367" data-name="Trazado 907367" d="M261.3,316.649c.059.023-.273.927-.682,2.421a32.295,32.295,0,0,0-.98,11.979c.16,1.54.341,2.487.279,2.5a2.337,2.337,0,0,1-.2-.65c-.109-.423-.23-1.044-.345-1.817a27.311,27.311,0,0,1,.989-12.089c.239-.744.459-1.337.636-1.736a2.359,2.359,0,0,1,.3-.608" transform="translate(-68.945 -84.26)" fill="#eb996e"/>
            <path id="Trazado_907368" data-name="Trazado 907368" d="M262.182,328.131a4.435,4.435,0,0,0-2.74,2.8c-.046,0-.083-.252.008-.641a3.02,3.02,0,0,1,2.091-2.135c.387-.1.636-.068.641-.022" transform="translate(-69.024 -87.304)" fill="#eb996e"/>
            <path id="Trazado_907369" data-name="Trazado 907369" d="M265.965,321.454a410.954,410.954,0,0,1-3.425,5.228,13.375,13.375,0,0,1,3.425-5.228" transform="translate(-69.859 -85.537)" fill="#eb996e"/>
            <path id="Trazado_907370" data-name="Trazado 907370" d="M264.851,321.53c-.033.095-1-.377-1.546-1.512a2.6,2.6,0,0,1-.249-2.148,6.27,6.27,0,0,0,1.794,3.66" transform="translate(-69.966 -84.584)" fill="#eb996e"/>
            <path id="Trazado_907371" data-name="Trazado 907371" d="M271,333.895a17.258,17.258,0,0,1,1.555-1.566,11.144,11.144,0,0,0,2.912-4.3,10.8,10.8,0,0,0,.229-5.181,17.52,17.52,0,0,1-.324-2.183,9.988,9.988,0,0,1,.59,2.136,10.174,10.174,0,0,1-.133,5.352,10.458,10.458,0,0,1-3.088,4.373,10,10,0,0,1-1.742,1.37" transform="translate(-72.112 -85.328)" fill="#eb996e"/>
            <path id="Trazado_907372" data-name="Trazado 907372" d="M278.268,334.731c-.032.031-.35-.227-.669-.795a4.162,4.162,0,0,1,.534-4.763c.436-.484.8-.664.827-.627s-.261.3-.616.8a4.493,4.493,0,0,0-.5,4.476,7.473,7.473,0,0,1,.425.913" transform="translate(-73.732 -87.424)" fill="#eb996e"/>
            <path id="Trazado_907373" data-name="Trazado 907373" d="M241.661,326a16.946,16.946,0,0,0,2.191-8.9,3.753,3.753,0,0,1,.219,1.366,11.782,11.782,0,0,1-1.582,6.424,3.736,3.736,0,0,1-.828,1.108" transform="translate(-64.304 -84.38)" fill="#eb996e"/>
            <path id="Trazado_907374" data-name="Trazado 907374" d="M239.888,325.733a19.935,19.935,0,0,1-.791-5.454,19.935,19.935,0,0,1,.791,5.454" transform="translate(-63.612 -85.226)" fill="#eb996e"/>
            <path id="Trazado_907375" data-name="Trazado 907375" d="M240.913,337.012a6.475,6.475,0,0,0,1.292-1.991,5.3,5.3,0,0,0,.28-2.519,4.588,4.588,0,0,0-1.394-2.712c-.8-.781-1.731-1.38-2.47-2.065a15.577,15.577,0,0,1-1.822-1.94,13.114,13.114,0,0,1-1.015-1.476,1.969,1.969,0,0,1-.287-.592c.054-.034.537.765,1.51,1.9a17.949,17.949,0,0,0,1.846,1.849c.732.653,1.66,1.234,2.506,2.058a4.837,4.837,0,0,1,1.474,2.939,5.333,5.333,0,0,1-.379,2.663,4.32,4.32,0,0,1-1.013,1.5,1.615,1.615,0,0,1-.531.394" transform="translate(-62.665 -86.14)" fill="#eb996e"/>
            <path id="Trazado_907376" data-name="Trazado 907376" d="M237.609,334.967c.019.056-.324.193-.8.52a4.566,4.566,0,0,0-2.033,3.774,5.659,5.659,0,0,1,.005.954c-.043.014-.215-.331-.275-.944a4.144,4.144,0,0,1,2.163-4.016c.545-.287.928-.332.94-.289" transform="translate(-62.397 -89.13)" fill="#eb996e"/>
            <path id="Trazado_907377" data-name="Trazado 907377" d="M137.228,26.586c-6.365,12.26-7.086,26.633-6.585,40.437s2.081,27.728-.175,41.357c-.888,5.363-2.37,10.782-1.524,16.152.5,3.155,1.782,6.135,2.431,9.261s.568,6.652-1.39,9.175a9.017,9.017,0,0,1-8.709,2.914,15.689,15.689,0,0,1-8.179-4.844c-4.87-5.068-7.424-12.007-8.386-18.97s-.458-14.037.048-21.048q1.974-27.351,3.948-54.7c.569-7.886,1.182-15.952,4.371-23.186A40.3,40.3,0,0,1,129.524,5.162C138.015.114,149.007-2.078,157.759,2.5c2.919,1.529,5.732,4.461,5.039,7.683-.548,2.547-3.032,4.125-5.3,5.413L135.1,28.352" transform="translate(-27.719 0)" fill="#263238"/>
            <path id="Trazado_907378" data-name="Trazado 907378" d="M133.8,133.886c-.241-.124.225-1.54,1.179-4.02s2.384-6.033,3.856-10.484a70.424,70.424,0,0,0,3.41-15.906c.557-6.048-.236-12.765-1.507-19.838S138,69.72,137.567,63.262A49.927,49.927,0,0,1,139.1,46.188a28,28,0,0,1,5.291-10.317q.695-.766,1.243-1.332a12.181,12.181,0,0,1,1.016-.864c.572-.44.912-.621,1.005-.528s-.064.456-.437,1.048l-.708,1.067c-.258.435-.562.928-.909,1.473a33.36,33.36,0,0,0-3.882,10.115,53.321,53.321,0,0,0-.647,16.123c.588,6.1,2.128,12.8,3.424,20s2.048,14.354,1.249,20.85a62.724,62.724,0,0,1-4.378,16.5,79.669,79.669,0,0,1-5.054,10.2c-1.377,2.3-2.29,3.488-2.517,3.37" transform="translate(-35.587 -8.814)" fill="#263238"/>
            <path id="Trazado_907379" data-name="Trazado 907379" d="M103.1,35.774a3.843,3.843,0,0,1,.588-.217L105.393,35c.743-.231,1.651-.52,2.7-.885s2.245-.743,3.547-1.236c2.622-.934,5.707-2.148,9.089-3.6,3.371-1.474,7.032-3.195,10.792-5.167,3.752-1.99,7.241-4.041,10.36-5.992,3.105-1.973,5.849-3.834,8.1-5.471,1.141-.8,2.135-1.571,3.023-2.23s1.641-1.242,2.252-1.725l1.419-1.1a3.814,3.814,0,0,1,.512-.363,3.8,3.8,0,0,1-.463.422l-1.375,1.154c-.6.5-1.335,1.106-2.215,1.778s-1.86,1.467-2.994,2.279c-2.235,1.668-4.969,3.556-8.071,5.551-3.116,1.972-6.609,4.037-10.37,6.033-3.769,1.977-7.445,3.694-10.832,5.153-3.4,1.433-6.5,2.624-9.137,3.527-1.31.477-2.518.843-3.571,1.185s-1.967.614-2.718.823l-1.728.484a3.9,3.9,0,0,1-.61.144" transform="translate(-27.434 -1.927)" fill="#455a64"/>
            <path id="Trazado_907380" data-name="Trazado 907380" d="M102.89,40a4.165,4.165,0,0,1,.628-.12l1.81-.269,1.309-.186,1.546-.281c1.107-.212,2.377-.406,3.755-.747l2.172-.493c.754-.175,1.526-.408,2.332-.621,1.619-.407,3.309-.975,5.1-1.542A100.585,100.585,0,0,0,132.812,31.1a100.463,100.463,0,0,0,10.562-6.093c1.541-1.069,3.023-2.059,4.334-3.093.661-.508,1.317-.976,1.917-1.466l1.717-1.419c1.112-.883,2.041-1.769,2.886-2.517l1.167-1.052q.515-.5.946-.921l1.32-1.269a3.91,3.91,0,0,1,.479-.423,3.915,3.915,0,0,1-.423.477l-1.27,1.32-.925.948c-.345.338-.736.691-1.148,1.078-.834.763-1.753,1.666-2.856,2.566l-1.707,1.441c-.6.5-1.251.974-1.91,1.489-1.308,1.047-2.789,2.053-4.33,3.133a96.887,96.887,0,0,1-10.59,6.145,96.851,96.851,0,0,1-11.331,4.628c-1.8.56-3.5,1.118-5.125,1.513-.811.208-1.587.435-2.346.6l-2.184.471c-1.386.324-2.663.5-3.777.694-.558.09-1.075.183-1.554.25l-1.316.153-1.821.2a3.969,3.969,0,0,1-.637.043" transform="translate(-27.379 -3.419)" fill="#455a64"/>
            <path id="Trazado_907381" data-name="Trazado 907381" d="M117.2,145.335a1.228,1.228,0,0,1-.054-.25c-.03-.186-.068-.43-.117-.739-.1-.65-.252-1.608-.376-2.851a94.528,94.528,0,0,1-.559-10.564c-.018-4.469.259-9.789.811-15.667s1.33-12.322,2.1-19.089c1.581-13.524,3.012-25.764,4.051-34.65.536-4.414.968-7.994,1.273-10.5.155-1.22.277-2.176.365-2.851.043-.309.077-.554.1-.741a1.234,1.234,0,0,1,.048-.25,1.213,1.213,0,0,1-.01.255c-.017.188-.038.434-.067.745-.07.677-.167,1.637-.294,2.859-.274,2.506-.666,6.09-1.15,10.509-1.012,8.89-2.4,21.135-3.941,34.664-.771,6.767-1.568,13.207-2.129,19.078s-.876,11.176-.891,15.635a103.734,103.734,0,0,0,.435,10.548c.1,1.243.232,2.2.305,2.856.034.31.059.556.079.743a1.308,1.308,0,0,1,.015.255" transform="translate(-30.891 -12.556)" fill="#455a64"/>
            <path id="Trazado_907382" data-name="Trazado 907382" d="M130.4,103.348a3.73,3.73,0,0,1-.065-.615q-.042-.657-.113-1.769c-.093-1.537-.2-3.761-.3-6.511-.2-5.5-.341-13.1-.228-21.5s.468-16,.822-21.49c.175-2.746.34-4.968.476-6.5.068-.74.122-1.327.161-1.765a3.789,3.789,0,0,1,.083-.614,3.822,3.822,0,0,1-.006.619q-.033.658-.09,1.769c-.086,1.574-.206,3.786-.354,6.505-.284,5.493-.592,13.087-.71,21.481s-.017,15.99.115,21.488c.073,2.722.132,4.938.174,6.513q.026,1.113.042,1.772a3.718,3.718,0,0,1-.012.618" transform="translate(-34.502 -11.331)" fill="#455a64"/>
          </g>
        </g>
      </g>
    </g>
    <g id="Grupo_1114709" data-name="Grupo 1114709" transform="translate(467.484 3302.301)">
      <g id="Grupo_1114708" data-name="Grupo 1114708" transform="translate(0 0)" clip-path="url(#clip-path-8)">
        <path id="Trazado_907552" data-name="Trazado 907552" d="M0,83.731,9.339,67.273A44.095,44.095,0,1,1,19.9,79.021l.016.02Z" transform="translate(0 -0.016)" fill="#fff"/>
        <path id="Trazado_907553" data-name="Trazado 907553" d="M0,83.715,19.888,78.91l-.067.188-.016-.02-.553-.718.721.552A45.129,45.129,0,0,0,29,84.29a44.027,44.027,0,0,0,12,3.375,39.376,39.376,0,0,0,6.916.327c1.189-.072,2.4-.1,3.619-.209l3.686-.567A44.065,44.065,0,0,0,82.43,69.671a43.46,43.46,0,0,0,7.341-16.835,44.428,44.428,0,0,0-.527-19.369,42.979,42.979,0,0,0-9.334-17.9L78.132,13.61c-.585-.658-1.282-1.2-1.915-1.8-.663-.57-1.26-1.217-1.973-1.721L72.155,8.522A18.406,18.406,0,0,0,69.992,7.09L67.784,5.749,65.472,4.625a20.014,20.014,0,0,0-2.334-1.038A44.468,44.468,0,0,0,43.623.575,43.009,43.009,0,0,0,25.7,5.849,44.309,44.309,0,0,0,4.949,31.278a47.362,47.362,0,0,0-1.942,14.2A43.669,43.669,0,0,0,5.1,57.756,44.681,44.681,0,0,0,9.436,67.2l.035.059-.033.059L0,83.715,9.239,67.2l0,.117a44.613,44.613,0,0,1-4.411-9.474,43.793,43.793,0,0,1-2.153-12.36A47.594,47.594,0,0,1,4.591,31.168a44.66,44.66,0,0,1,20.893-25.7A43.414,43.414,0,0,1,43.59.116,44.907,44.907,0,0,1,63.316,3.147,20.523,20.523,0,0,1,65.675,4.2l2.337,1.135,2.233,1.355a18.734,18.734,0,0,1,2.187,1.447l2.112,1.579c.721.51,1.325,1.163,2,1.74.64.611,1.345,1.159,1.935,1.823l1.8,1.978a43.412,43.412,0,0,1,9.433,18.1,44.873,44.873,0,0,1,.521,19.576,43.881,43.881,0,0,1-7.437,17,44.394,44.394,0,0,1-27.5,17.658l-3.719.563c-1.23.1-2.45.133-3.649.2A39.569,39.569,0,0,1,40.951,88a44.158,44.158,0,0,1-12.07-3.443A45.11,45.11,0,0,1,19.827,79.1L20,78.934l.015.019.112.147-.18.041L0,83.715" transform="translate(0 0)" fill="#263238"/>
        <path id="Trazado_907554" data-name="Trazado 907554" d="M59.36,49c-4.452,0-7.551-3.273-7.551-8.538s3.1-8.536,7.551-8.536,7.594,3.317,7.594,8.536S63.812,49,59.36,49m0-3.628c1.877,0,3.186-1.635,3.186-4.91s-1.309-4.909-3.186-4.909c-1.921,0-3.187,1.593-3.187,4.909s1.266,4.91,3.187,4.91m2.662,17.871H56.829L35.967,32.276h5.194Zm-23.393.353c-4.451,0-7.595-3.317-7.595-8.536s3.144-8.537,7.595-8.537c4.408,0,7.55,3.318,7.55,8.537s-3.142,8.536-7.55,8.536m0-3.626c1.876,0,3.186-1.592,3.186-4.91s-1.31-4.91-3.186-4.91c-1.92,0-3.186,1.636-3.186,4.91s1.266,4.91,3.186,4.91" transform="translate(-2.542 -2.615)" fill="#263238"/>
      </g>
    </g>
  </g>
</svg>
