<svg xmlns="http://www.w3.org/2000/svg" xmlns:xlink="http://www.w3.org/1999/xlink" width="93.722" height="93.723" viewBox="0 0 93.722 93.723">
  <defs>
    <filter id="Trazado_874925" x="0" y="0" width="93.722" height="93.723" filterUnits="userSpaceOnUse">
      <feOffset dy="3" input="SourceAlpha"/>
      <feGaussianBlur stdDeviation="3" result="blur"/>
      <feFlood flood-opacity="0.161"/>
      <feComposite operator="in" in2="blur"/>
      <feComposite in="SourceGraphic"/>
    </filter>
  </defs>
  <g id="Grupo_1114730" data-name="Grupo 1114730" transform="translate(-726.051 -2226)">
    <g id="Grupo_1112905" data-name="Grupo 1112905" transform="translate(735.051 2232)">
      <g id="Grupo_1109835" data-name="Grupo 1109835" transform="translate(0 0)">
        <g id="Grupo_1107913" data-name="Grupo 1107913" transform="translate(0 0)">
          <g transform="matrix(1, 0, 0, 1, -9, -6)" filter="url(#Trazado_874925)">
            <g id="Trazado_874925-2" data-name="Trazado 874925" transform="translate(9 6)" fill="#fd9826" opacity="0.859">
              <path d="M 37.86101913452148 74.2225341796875 C 32.95165252685547 74.2225341796875 28.1899299621582 73.26136779785156 23.7081298828125 71.36572265625 C 19.37846374511719 69.534423828125 15.48970794677734 66.91244506835938 12.1498966217041 63.57263565063477 C 8.810074806213379 60.23281097412109 6.188107967376709 56.34405517578125 4.356808185577393 52.01438903808594 C 2.461163520812988 47.53257751464844 1.499996900558472 42.77085494995117 1.499996900558472 37.86148834228516 C 1.499996900558472 32.95167922973633 2.461163520812988 28.18995666503906 4.356808185577393 23.70814514160156 C 6.188107967376709 19.37847900390625 8.810074806213379 15.48972225189209 12.1498966217041 12.14990043640137 C 15.48970794677734 8.810089111328125 19.37846374511719 6.188111305236816 23.7081298828125 4.3568115234375 C 28.1899299621582 2.461167097091675 32.95165252685547 1.500000476837158 37.86101913452148 1.500000476837158 C 42.7703857421875 1.500000476837158 47.53210830688477 2.461167097091675 52.01390838623047 4.3568115234375 C 56.34357452392578 6.188111305236816 60.23233032226562 8.810089111328125 63.57213973999023 12.14990043640137 C 66.91196441650391 15.48972225189209 69.53392791748047 19.37847900390625 71.36522674560547 23.70814514160156 C 73.26087188720703 28.18995666503906 74.22203826904297 32.95167922973633 74.22203826904297 37.86104583740234 C 74.22203826904297 42.77085494995117 73.26087188720703 47.53257751464844 71.36522674560547 52.01438903808594 C 69.53392791748047 56.34405517578125 66.91196441650391 60.23281097412109 63.57213973999023 63.57263565063477 C 60.23233032226562 66.91244506835938 56.34357452392578 69.534423828125 52.01390838623047 71.36572265625 C 47.53210830688477 73.26136779785156 42.7703857421875 74.2225341796875 37.86101913452148 74.2225341796875 Z" stroke="none"/>
              <path d="M 37.86101913452148 3.000007629394531 C 33.15349578857422 3.000007629394531 28.5883674621582 3.921302795410156 24.29245758056641 5.738327026367188 C 20.14159393310547 7.493995666503906 16.41309356689453 10.00801849365234 13.21055603027344 13.21056747436523 C 10.00800323486328 16.41310501098633 7.493980407714844 20.14160537719727 5.738319396972656 24.29246520996094 C 3.921295166015625 28.58837890625 2.999992370605469 33.15350341796875 2.999992370605469 37.86148071289062 C 2.999992370605469 42.56901550292969 3.921295166015625 47.13414001464844 5.738319396972656 51.4300537109375 C 7.493980407714844 55.58092880249023 10.00800323486328 59.30941772460938 13.21055603027344 62.51196670532227 C 16.41309356689453 65.71451568603516 20.14159393310547 68.22854614257812 24.29245758056641 69.98420715332031 C 28.5883674621582 71.80123138427734 33.15349578857422 72.72252655029297 37.86101913452148 72.72252655029297 C 42.56854248046875 72.72252655029297 47.1336669921875 71.80123138427734 51.42958068847656 69.98420715332031 C 55.5804443359375 68.22854614257812 59.30892944335938 65.71451568603516 62.51148223876953 62.51196670532227 C 65.71401977539062 59.30941772460938 68.22804260253906 55.58092880249023 69.98370361328125 51.4300537109375 C 71.80073547363281 47.13414001464844 72.72203063964844 42.56901550292969 72.72203063964844 37.86104202270508 C 72.72203063964844 33.15350341796875 71.80073547363281 28.58837890625 69.98370361328125 24.29246520996094 C 68.22804260253906 20.14160537719727 65.71401977539062 16.41310501098633 62.51148223876953 13.21056747436523 C 59.30892944335938 10.00801849365234 55.5804443359375 7.493995666503906 51.42958068847656 5.738327026367188 C 47.1336669921875 3.921302795410156 42.56854248046875 3.000007629394531 37.86101913452148 3.000007629394531 M 37.86101913452148 7.62939453125e-06 C 58.77108001708984 7.62939453125e-06 75.72203063964844 16.95096588134766 75.72203063964844 37.86104202270508 L 75.72203063964844 37.86148071289062 C 75.72203063964844 58.77156829833984 58.77108001708984 75.72252655029297 37.86101913452148 75.72252655029297 C 16.95095825195312 75.72252655029297 -7.62939453125e-06 58.77156829833984 -7.62939453125e-06 37.86148071289062 L -7.62939453125e-06 37.86104202270508 C -7.62939453125e-06 16.95096588134766 16.95095825195312 7.62939453125e-06 37.86101913452148 7.62939453125e-06 Z" stroke="none" fill="#fff"/>
            </g>
          </g>
          <g id="Trazado_874923" data-name="Trazado 874923" transform="translate(0 0)" fill="none">
            <path d="M37.861,0A37.861,37.861,0,0,1,75.722,37.861h0A37.861,37.861,0,1,1,0,37.861H0A37.861,37.861,0,0,1,37.861,0Z" stroke="none"/>
            <path d="M 37.86101913452148 3.000007629394531 C 33.15349578857422 3.000007629394531 28.5883674621582 3.921302795410156 24.29245758056641 5.738327026367188 C 20.14159393310547 7.493995666503906 16.41309356689453 10.00801849365234 13.21055603027344 13.21056747436523 C 10.00800323486328 16.41310501098633 7.493980407714844 20.14160537719727 5.738319396972656 24.29246520996094 C 3.921295166015625 28.58837890625 2.999992370605469 33.15350341796875 2.999992370605469 37.86148071289062 C 2.999992370605469 42.56901550292969 3.921295166015625 47.13414001464844 5.738319396972656 51.4300537109375 C 7.493980407714844 55.58092880249023 10.00800323486328 59.30941772460938 13.21055603027344 62.51196670532227 C 16.41309356689453 65.71451568603516 20.14159393310547 68.22854614257812 24.29245758056641 69.98420715332031 C 28.5883674621582 71.80123138427734 33.15349578857422 72.72252655029297 37.86101913452148 72.72252655029297 C 42.56854248046875 72.72252655029297 47.1336669921875 71.80123138427734 51.42958068847656 69.98420715332031 C 55.5804443359375 68.22854614257812 59.30892944335938 65.71451568603516 62.51148223876953 62.51196670532227 C 65.71401977539062 59.30941772460938 68.22804260253906 55.58092880249023 69.98370361328125 51.4300537109375 C 71.80073547363281 47.13414001464844 72.72203063964844 42.56901550292969 72.72203063964844 37.86104202270508 C 72.72203063964844 33.15350341796875 71.80073547363281 28.58837890625 69.98370361328125 24.29246520996094 C 68.22804260253906 20.14160537719727 65.71401977539062 16.41310501098633 62.51148223876953 13.21056747436523 C 59.30892944335938 10.00801849365234 55.5804443359375 7.493995666503906 51.42958068847656 5.738327026367188 C 47.1336669921875 3.921302795410156 42.56854248046875 3.000007629394531 37.86101913452148 3.000007629394531 M 37.86101913452148 7.62939453125e-06 C 58.77108001708984 7.62939453125e-06 75.72203063964844 16.95096588134766 75.72203063964844 37.86104202270508 L 75.72203063964844 37.86148071289062 C 75.72203063964844 58.77156829833984 58.77108001708984 75.72252655029297 37.86101913452148 75.72252655029297 C 16.95095825195312 75.72252655029297 -7.62939453125e-06 58.77156829833984 -7.62939453125e-06 37.86148071289062 L -7.62939453125e-06 37.86104202270508 C -7.62939453125e-06 16.95096588134766 16.95095825195312 7.62939453125e-06 37.86101913452148 7.62939453125e-06 Z" stroke="none" fill="#fff"/>
          </g>
        </g>
      </g>
    </g>
    <g id="Grupo_1114729" data-name="Grupo 1114729" transform="translate(749.051 2246)">
      <path id="Trazado_907593" data-name="Trazado 907593" d="M2,2H31.388V40.2H2Z" transform="translate(-0.265 -0.265)" fill="#c7e2fb"/>
      <path id="Trazado_907594" data-name="Trazado 907594" d="M2,32.847c.123,0,.244.01.367.01A25.532,25.532,0,0,0,27.714,7.143,26.227,26.227,0,0,0,27.206,2H2Z" transform="translate(-0.265 -0.265)" fill="#ebf7fe"/>
      <path id="Trazado_907595" data-name="Trazado 907595" d="M36,28H50.694V39.755H36Z" transform="translate(-9.286 -7.163)" fill="#c18e5c"/>
      <path id="Trazado_907596" data-name="Trazado 907596" d="M36,28v9.465a13.467,13.467,0,0,0,1.469.086A13.221,13.221,0,0,0,50.166,28Z" transform="translate(-9.286 -7.163)" fill="#cda57d"/>
      <path id="Trazado_907597" data-name="Trazado 907597" d="M40,44H56.163V57.224H40Z" transform="translate(-10.347 -11.408)" fill="#c18e5c"/>
      <path id="Trazado_907598" data-name="Trazado 907598" d="M40,54.978A17.37,17.37,0,0,0,54.631,44H40Z" transform="translate(-10.347 -11.408)" fill="#cda57d"/>
      <g id="Grupo_1114727" data-name="Grupo 1114727" transform="translate(4.673 4.673)">
        <path id="Trazado_907599" data-name="Trazado 907599" d="M6,6h5.878v5.878H6Z" transform="translate(-6 -6)" fill="#4472b0"/>
        <path id="Trazado_907600" data-name="Trazado 907600" d="M6,18h5.878v5.878H6Z" transform="translate(-6 -9.184)" fill="#4472b0"/>
        <path id="Trazado_907601" data-name="Trazado 907601" d="M6,30h5.878v5.878H6Z" transform="translate(-6 -12.367)" fill="#4472b0"/>
        <path id="Trazado_907602" data-name="Trazado 907602" d="M6,42h5.878v5.878H6Z" transform="translate(-6 -15.551)" fill="#4472b0"/>
      </g>
      <path id="Trazado_907603" data-name="Trazado 907603" d="M48,44h4.408v4.408H48Z" transform="translate(-12.47 -11.408)" fill="#fff"/>
      <path id="Trazado_907604" data-name="Trazado 907604" d="M18,44H34.163V57.224H18Z" transform="translate(-4.51 -11.408)" fill="#c18e5c"/>
      <path id="Trazado_907605" data-name="Trazado 907605" d="M18,54.978A17.37,17.37,0,0,0,32.631,44H18Z" transform="translate(-4.51 -11.408)" fill="#cda57d"/>
      <path id="Trazado_907606" data-name="Trazado 907606" d="M26,44h4.408v4.408H26Z" transform="translate(-6.633 -11.408)" fill="#fff"/>
      <path id="Trazado_907607" data-name="Trazado 907607" d="M44,28h2.939v4.408H44Z" transform="translate(-11.408 -7.163)" fill="#fff"/>
      <g id="Grupo_1114728" data-name="Grupo 1114728" transform="translate(1 1)">
        <path id="Trazado_907608" data-name="Trazado 907608" d="M5.735,24.347h5.878a.735.735,0,0,0,.735-.735V17.735A.735.735,0,0,0,11.612,17H5.735A.735.735,0,0,0,5,17.735v5.878A.735.735,0,0,0,5.735,24.347Zm.735-5.878h4.408v4.408H6.469Z" transform="translate(-2.061 -5.245)"/>
        <path id="Trazado_907609" data-name="Trazado 907609" d="M11.612,41H5.735A.734.734,0,0,0,5,41.735v5.878a.734.734,0,0,0,.735.735h5.878a.734.734,0,0,0,.735-.735V41.735A.734.734,0,0,0,11.612,41Zm-.735,5.878H6.469V42.469h4.408Z" transform="translate(-2.061 -11.612)"/>
        <path id="Trazado_907610" data-name="Trazado 907610" d="M17,7H33.163V8.469H17Z" transform="translate(-5.245 -2.592)"/>
        <path id="Trazado_907611" data-name="Trazado 907611" d="M17,11H33.163v1.469H17Z" transform="translate(-5.245 -3.653)"/>
        <path id="Trazado_907612" data-name="Trazado 907612" d="M17,19H33.163v1.469H17Z" transform="translate(-5.245 -5.776)"/>
        <path id="Trazado_907613" data-name="Trazado 907613" d="M17,23H33.163v1.469H17Z" transform="translate(-5.245 -6.837)"/>
        <path id="Trazado_907614" data-name="Trazado 907614" d="M11.308,4.547H5.735A.735.735,0,0,0,5,5.282v5.878a.735.735,0,0,0,.735.735h5.878a.735.735,0,0,0,.735-.735V5.586L13.6,4.332,12.562,3.293ZM9.839,6.016,6.469,9.386V6.016Zm1.039,4.408H7.508l3.369-3.369Z" transform="translate(-2.061 -1.608)"/>
        <path id="Trazado_907615" data-name="Trazado 907615" d="M12.562,27.293l-1.254,1.254H5.735A.735.735,0,0,0,5,29.282v5.878a.734.734,0,0,0,.735.735h5.878a.734.734,0,0,0,.735-.735V29.586L13.6,28.332ZM9.839,30.016,6.469,33.386V30.016Zm1.039,4.408H7.508l3.369-3.369Z" transform="translate(-2.061 -7.976)"/>
        <path id="Trazado_907616" data-name="Trazado 907616" d="M45.816,46.551a.734.734,0,0,0,.735-.735V32.592a.734.734,0,0,0-.735-.735H42.143V20.837a.735.735,0,0,0-.735-.735H31.857V1.735A.735.735,0,0,0,31.122,1H1.735A.735.735,0,0,0,1,1.735v38.2a.734.734,0,0,0,.735.735h11.02v5.143a.734.734,0,0,0,.735.735ZM36.265,33.326H39.2v2.939H36.265Zm-8.816-1.469V21.571h4.408v3.673a.734.734,0,0,0,.735.735H35.53a.734.734,0,0,0,.735-.735V21.571h4.408V31.857Zm5.878-10.286H34.8V24.51H33.326ZM12.755,32.592V39.2H2.469V2.469H30.388V20.1H26.714a.735.735,0,0,0-.735.735v2.2H12.755V24.51H25.979v1.469H12.755v1.469H25.979v4.408H13.49A.734.734,0,0,0,12.755,32.592Zm7.347.735h2.939v2.939H20.1Zm-5.878,0h4.408V37a.734.734,0,0,0,.735.735h4.408A.734.734,0,0,0,24.51,37V33.326h4.408V45.081H14.224ZM45.081,45.081H30.388V33.326H34.8V37a.734.734,0,0,0,.735.735h4.408A.734.734,0,0,0,40.673,37V33.326h4.408Z" transform="translate(-1 -1)"/>
        <path id="Trazado_907617" data-name="Trazado 907617" d="M55,57h2.939v1.469H55Z" transform="translate(-15.327 -15.857)"/>
        <path id="Trazado_907618" data-name="Trazado 907618" d="M49,39h2.939v1.469H49Z" transform="translate(-13.735 -11.082)"/>
        <path id="Trazado_907619" data-name="Trazado 907619" d="M55,53h2.939v1.469H55Z" transform="translate(-15.327 -14.796)"/>
        <path id="Trazado_907620" data-name="Trazado 907620" d="M33,57h2.939v1.469H33Z" transform="translate(-9.49 -15.857)"/>
        <path id="Trazado_907621" data-name="Trazado 907621" d="M33,53h2.939v1.469H33Z" transform="translate(-9.49 -14.796)"/>
      </g>
    </g>
  </g>
</svg>
