<svg xmlns="http://www.w3.org/2000/svg" xmlns:xlink="http://www.w3.org/1999/xlink" width="93.722" height="93.723" viewBox="0 0 93.722 93.723">
  <defs>
    <filter id="Trazado_874925" x="0" y="0" width="93.722" height="93.723" filterUnits="userSpaceOnUse">
      <feOffset dy="3" input="SourceAlpha"/>
      <feGaussianBlur stdDeviation="3" result="blur"/>
      <feFlood flood-opacity="0.161"/>
      <feComposite operator="in" in2="blur"/>
      <feComposite in="SourceGraphic"/>
    </filter>
  </defs>
  <g id="Grupo_1114830" data-name="Grupo 1114830" transform="translate(-306.051 -2482)">
    <g id="Grupo_1112990" data-name="Grupo 1112990" transform="translate(315.051 2488)">
      <g id="Grupo_1109835" data-name="Grupo 1109835" transform="translate(0 0)">
        <g id="Grupo_1107913" data-name="Grupo 1107913" transform="translate(0 0)">
          <g transform="matrix(1, 0, 0, 1, -9, -6)" filter="url(#Trazado_874925)">
            <g id="Trazado_874925-2" data-name="Trazado 874925" transform="translate(9 6)" fill="#5ab4f9" opacity="0.859">
              <path d="M 37.86101913452148 74.2225341796875 C 32.95165252685547 74.2225341796875 28.1899299621582 73.26136779785156 23.7081298828125 71.36572265625 C 19.37846374511719 69.534423828125 15.48970794677734 66.91244506835938 12.1498966217041 63.57263565063477 C 8.810074806213379 60.23281097412109 6.188107967376709 56.34405517578125 4.356808185577393 52.01438903808594 C 2.461163520812988 47.53257751464844 1.499996900558472 42.77085494995117 1.499996900558472 37.86148834228516 C 1.499996900558472 32.95167922973633 2.461163520812988 28.18995666503906 4.356808185577393 23.70814514160156 C 6.188107967376709 19.37847900390625 8.810074806213379 15.48972225189209 12.1498966217041 12.14990043640137 C 15.48970794677734 8.810089111328125 19.37846374511719 6.188111305236816 23.7081298828125 4.3568115234375 C 28.1899299621582 2.461167097091675 32.95165252685547 1.500000476837158 37.86101913452148 1.500000476837158 C 42.7703857421875 1.500000476837158 47.53210830688477 2.461167097091675 52.01390838623047 4.3568115234375 C 56.34357452392578 6.188111305236816 60.23233032226562 8.810089111328125 63.57213973999023 12.14990043640137 C 66.91196441650391 15.48972225189209 69.53392791748047 19.37847900390625 71.36522674560547 23.70814514160156 C 73.26087188720703 28.18995666503906 74.22203826904297 32.95167922973633 74.22203826904297 37.86104583740234 C 74.22203826904297 42.77085494995117 73.26087188720703 47.53257751464844 71.36522674560547 52.01438903808594 C 69.53392791748047 56.34405517578125 66.91196441650391 60.23281097412109 63.57213973999023 63.57263565063477 C 60.23233032226562 66.91244506835938 56.34357452392578 69.534423828125 52.01390838623047 71.36572265625 C 47.53210830688477 73.26136779785156 42.7703857421875 74.2225341796875 37.86101913452148 74.2225341796875 Z" stroke="none"/>
              <path d="M 37.86101913452148 3.000007629394531 C 33.15349578857422 3.000007629394531 28.5883674621582 3.921302795410156 24.29245758056641 5.738327026367188 C 20.14159393310547 7.493995666503906 16.41309356689453 10.00801849365234 13.21055603027344 13.21056747436523 C 10.00800323486328 16.41310501098633 7.493980407714844 20.14160537719727 5.738319396972656 24.29246520996094 C 3.921295166015625 28.58837890625 2.999992370605469 33.15350341796875 2.999992370605469 37.86148071289062 C 2.999992370605469 42.56901550292969 3.921295166015625 47.13414001464844 5.738319396972656 51.4300537109375 C 7.493980407714844 55.58092880249023 10.00800323486328 59.30941772460938 13.21055603027344 62.51196670532227 C 16.41309356689453 65.71451568603516 20.14159393310547 68.22854614257812 24.29245758056641 69.98420715332031 C 28.5883674621582 71.80123138427734 33.15349578857422 72.72252655029297 37.86101913452148 72.72252655029297 C 42.56854248046875 72.72252655029297 47.1336669921875 71.80123138427734 51.42958068847656 69.98420715332031 C 55.5804443359375 68.22854614257812 59.30892944335938 65.71451568603516 62.51148223876953 62.51196670532227 C 65.71401977539062 59.30941772460938 68.22804260253906 55.58092880249023 69.98370361328125 51.4300537109375 C 71.80073547363281 47.13414001464844 72.72203063964844 42.56901550292969 72.72203063964844 37.86104202270508 C 72.72203063964844 33.15350341796875 71.80073547363281 28.58837890625 69.98370361328125 24.29246520996094 C 68.22804260253906 20.14160537719727 65.71401977539062 16.41310501098633 62.51148223876953 13.21056747436523 C 59.30892944335938 10.00801849365234 55.5804443359375 7.493995666503906 51.42958068847656 5.738327026367188 C 47.1336669921875 3.921302795410156 42.56854248046875 3.000007629394531 37.86101913452148 3.000007629394531 M 37.86101913452148 7.62939453125e-06 C 58.77108001708984 7.62939453125e-06 75.72203063964844 16.95096588134766 75.72203063964844 37.86104202270508 L 75.72203063964844 37.86148071289062 C 75.72203063964844 58.77156829833984 58.77108001708984 75.72252655029297 37.86101913452148 75.72252655029297 C 16.95095825195312 75.72252655029297 -7.62939453125e-06 58.77156829833984 -7.62939453125e-06 37.86148071289062 L -7.62939453125e-06 37.86104202270508 C -7.62939453125e-06 16.95096588134766 16.95095825195312 7.62939453125e-06 37.86101913452148 7.62939453125e-06 Z" stroke="none" fill="#fff"/>
            </g>
          </g>
          <g id="Trazado_874923" data-name="Trazado 874923" transform="translate(0 0)" fill="none">
            <path d="M37.861,0A37.861,37.861,0,0,1,75.722,37.861h0A37.861,37.861,0,1,1,0,37.861H0A37.861,37.861,0,0,1,37.861,0Z" stroke="none"/>
            <path d="M 37.86101913452148 3.000007629394531 C 33.15349578857422 3.000007629394531 28.5883674621582 3.921302795410156 24.29245758056641 5.738327026367188 C 20.14159393310547 7.493995666503906 16.41309356689453 10.00801849365234 13.21055603027344 13.21056747436523 C 10.00800323486328 16.41310501098633 7.493980407714844 20.14160537719727 5.738319396972656 24.29246520996094 C 3.921295166015625 28.58837890625 2.999992370605469 33.15350341796875 2.999992370605469 37.86148071289062 C 2.999992370605469 42.56901550292969 3.921295166015625 47.13414001464844 5.738319396972656 51.4300537109375 C 7.493980407714844 55.58092880249023 10.00800323486328 59.30941772460938 13.21055603027344 62.51196670532227 C 16.41309356689453 65.71451568603516 20.14159393310547 68.22854614257812 24.29245758056641 69.98420715332031 C 28.5883674621582 71.80123138427734 33.15349578857422 72.72252655029297 37.86101913452148 72.72252655029297 C 42.56854248046875 72.72252655029297 47.1336669921875 71.80123138427734 51.42958068847656 69.98420715332031 C 55.5804443359375 68.22854614257812 59.30892944335938 65.71451568603516 62.51148223876953 62.51196670532227 C 65.71401977539062 59.30941772460938 68.22804260253906 55.58092880249023 69.98370361328125 51.4300537109375 C 71.80073547363281 47.13414001464844 72.72203063964844 42.56901550292969 72.72203063964844 37.86104202270508 C 72.72203063964844 33.15350341796875 71.80073547363281 28.58837890625 69.98370361328125 24.29246520996094 C 68.22804260253906 20.14160537719727 65.71401977539062 16.41310501098633 62.51148223876953 13.21056747436523 C 59.30892944335938 10.00801849365234 55.5804443359375 7.493995666503906 51.42958068847656 5.738327026367188 C 47.1336669921875 3.921302795410156 42.56854248046875 3.000007629394531 37.86101913452148 3.000007629394531 M 37.86101913452148 7.62939453125e-06 C 58.77108001708984 7.62939453125e-06 75.72203063964844 16.95096588134766 75.72203063964844 37.86104202270508 L 75.72203063964844 37.86148071289062 C 75.72203063964844 58.77156829833984 58.77108001708984 75.72252655029297 37.86101913452148 75.72252655029297 C 16.95095825195312 75.72252655029297 -7.62939453125e-06 58.77156829833984 -7.62939453125e-06 37.86148071289062 L -7.62939453125e-06 37.86104202270508 C -7.62939453125e-06 16.95096588134766 16.95095825195312 7.62939453125e-06 37.86101913452148 7.62939453125e-06 Z" stroke="none" fill="#fff"/>
          </g>
        </g>
      </g>
    </g>
    <g id="Grupo_1114829" data-name="Grupo 1114829" transform="translate(329.051 2484.385)">
      <path id="Trazado_908038" data-name="Trazado 908038" d="M172.988,31.721l0-1.512a1.517,1.517,0,0,1,1.509-1.515l12.1-.023a1.517,1.517,0,0,1,1.515,1.509l0,1.512.014,7.561.055,29.486a1.517,1.517,0,0,1-1.509,1.515l-12.1.023a1.517,1.517,0,0,1-1.515-1.509L173,39.282Z" transform="translate(-157.155 -7.319)" fill="#ffd782"/>
      <path id="Trazado_908039" data-name="Trazado 908039" d="M22.94,69.05a1.517,1.517,0,0,1-1.509,1.515l-12.1.023a1.517,1.517,0,0,1-1.515-1.509L7.746,30.52A1.517,1.517,0,0,1,9.255,29l12.1-.023a1.517,1.517,0,0,1,1.515,1.509" transform="translate(-7.037 -7.601)" fill="#ff6464"/>
      <path id="Trazado_908040" data-name="Trazado 908040" d="M338.223,29.9a1.517,1.517,0,0,1,1.509-1.515l12.1-.023a1.517,1.517,0,0,1,1.515,1.509l.072,38.559a1.517,1.517,0,0,1-1.509,1.515l-12.1.023a1.517,1.517,0,0,1-1.515-1.509" transform="translate(-307.272 -7.036)" fill="#c3e678"/>
      <g id="Grupo_1114826" data-name="Grupo 1114826" transform="translate(3.743 27.377)">
        <path id="Trazado_908041" data-name="Trazado 908041" d="M215.242,110.69a.758.758,0,0,1-.755.757l-7.561.014a.758.758,0,0,1-.757-.755l-.028-15.121a.758.758,0,0,1,.755-.757l7.561-.014a.758.758,0,0,1,.757.755Z" transform="translate(-191.02 -94.786)" fill="#eff2fa"/>
        <path id="Trazado_908042" data-name="Trazado 908042" d="M50,111a.758.758,0,0,1-.755.757l-7.561.014a.758.758,0,0,1-.757-.755L40.9,95.9a.758.758,0,0,1,.755-.757l7.561-.014a.758.758,0,0,1,.757.755Z" transform="translate(-40.902 -95.068)" fill="#eff2fa"/>
        <path id="Trazado_908043" data-name="Trazado 908043" d="M380.481,110.379a.758.758,0,0,1-.755.757l-7.561.014a.758.758,0,0,1-.757-.755l-.028-15.121a.758.758,0,0,1,.755-.757L379.7,94.5a.758.758,0,0,1,.757.755Z" transform="translate(-341.138 -94.503)" fill="#eff2fa"/>
      </g>
      <g id="Grupo_1114827" data-name="Grupo 1114827" transform="translate(3.757 27.326)">
        <rect id="Rectángulo_406657" data-name="Rectángulo 406657" width="9.073" height="2.268" transform="translate(30.242 14.46)" fill="#c7cfe2"/>
        <rect id="Rectángulo_406658" data-name="Rectángulo 406658" width="9.073" height="2.268" transform="translate(15.121 14.46)" fill="#c7cfe2"/>
        <rect id="Rectángulo_406659" data-name="Rectángulo 406659" width="9.073" height="2.268" transform="translate(0 14.46)" fill="#c7cfe2"/>
        <rect id="Rectángulo_406660" data-name="Rectángulo 406660" width="9.073" height="5.387" transform="translate(30.242 0)" fill="#c7cfe2"/>
        <rect id="Rectángulo_406661" data-name="Rectángulo 406661" width="9.073" height="5.387" transform="translate(15.121 0)" fill="#c7cfe2"/>
        <rect id="Rectángulo_406662" data-name="Rectángulo 406662" width="9.073" height="5.387" transform="translate(0 0)" fill="#c7cfe2"/>
      </g>
      <g id="Grupo_1114828" data-name="Grupo 1114828" transform="translate(5.215 52.323)">
        <path id="Trazado_908044" data-name="Trazado 908044" d="M62.56,368.289a3.144,3.144,0,0,1-4.388,4.388,1.909,1.909,0,0,1-.613-.613,3.143,3.143,0,0,1,4.388-4.388A1.911,1.911,0,0,1,62.56,368.289Z" transform="translate(-56.988 -367.105)" fill="#464655"/>
        <path id="Trazado_908045" data-name="Trazado 908045" d="M228.315,368.289a3.143,3.143,0,0,1-4.388,4.388,1.909,1.909,0,0,1-.613-.613,3.143,3.143,0,0,1,4.388-4.388A1.909,1.909,0,0,1,228.315,368.289Z" transform="translate(-207.575 -367.105)" fill="#464655"/>
        <path id="Trazado_908046" data-name="Trazado 908046" d="M394.587,368.289a3.143,3.143,0,0,1-4.388,4.388,1.909,1.909,0,0,1-.613-.613,3.143,3.143,0,0,1,4.388-4.388A1.909,1.909,0,0,1,394.587,368.289Z" transform="translate(-358.631 -367.105)" fill="#464655"/>
      </g>
      <path id="Trazado_908047" data-name="Trazado 908047" d="M166.041,87.3h0a.709.709,0,0,0-.707.71l0,1.512a.709.709,0,0,0,.709.707h0a.709.709,0,0,0,.707-.71l0-1.512A.709.709,0,0,0,166.041,87.3Z" transform="translate(-150.202 -60.581)"/>
      <path id="Trazado_908048" data-name="Trazado 908048" d="M331.279,86.988h0a.709.709,0,0,0-.707.71l0,1.512a.709.709,0,0,0,.709.707h0a.709.709,0,0,0,.707-.71l0-1.512A.709.709,0,0,0,331.279,86.988Z" transform="translate(-300.319 -60.299)"/>
      <path id="Trazado_908049" data-name="Trazado 908049" d="M46.781,22.832a2.223,2.223,0,0,0-2.221-2.217h0l-12.1.023a2.2,2.2,0,0,0-1.512.6,2.219,2.219,0,0,0-1.512-.6l-12.1.023a2.2,2.2,0,0,0-1.511.6,2.2,2.2,0,0,0-1.509-.595h0l-12.1.023A2.226,2.226,0,0,0,0,22.92L.072,61.479A2.223,2.223,0,0,0,2.293,63.7h0l12.1-.023a2.2,2.2,0,0,0,1.511-.6,2.2,2.2,0,0,0,1.509.595h0l12.1-.023a2.2,2.2,0,0,0,1.51-.6,2.212,2.212,0,0,0,1.51.594h0l12.1-.023a2.223,2.223,0,0,0,2.217-2.225ZM44.634,62.2l-12.1.023h0a.8.8,0,0,1-.8-.8l-.055-29.486a.709.709,0,0,0-.709-.707h0a.709.709,0,0,0-.707.71l.055,29.486a.808.808,0,0,1-.8.8l-12.1.023h0a.808.808,0,0,1-.8-.8l-.055-29.486a.709.709,0,0,0-.709-.707h0a.709.709,0,0,0-.707.71l.055,29.486a.808.808,0,0,1-.8.8l-12.1.023h0a.8.8,0,0,1-.8-.8L1.418,22.917a.808.808,0,0,1,.8-.8l12.1-.023h0a.8.8,0,0,1,.8.8l0,1.512a.709.709,0,0,0,.709.707h0a.709.709,0,0,0,.707-.71l0-1.512a.808.808,0,0,1,.8-.8l12.1-.023h0a.808.808,0,0,1,.8.8l0,1.512a.709.709,0,0,0,.709.707h0a.709.709,0,0,0,.707-.71l0-1.512a.808.808,0,0,1,.8-.8l12.1-.023h0a.8.8,0,0,1,.8.8l.072,38.559A.8.8,0,0,1,44.634,62.2Z" transform="translate(0 0)"/>
      <path id="Trazado_908050" data-name="Trazado 908050" d="M221.96,362.074a.709.709,0,0,0-.508.864,2.316,2.316,0,0,1-2.237,2.9h0a2.315,2.315,0,0,1,0-4.631,2.349,2.349,0,0,1,.581.072.709.709,0,1,0,.352-1.373,3.733,3.733,0,1,0-.929,7.35h.007a3.733,3.733,0,0,0,3.726-3.74,3.746,3.746,0,0,0-.12-.933A.709.709,0,0,0,221.96,362.074Z" transform="translate(-195.759 -308.136)"/>
      <path id="Trazado_908051" data-name="Trazado 908051" d="M56.72,362.383a.709.709,0,0,0-.508.864,2.324,2.324,0,0,1,.074.58,2.315,2.315,0,0,1-2.311,2.32h0a2.315,2.315,0,0,1,0-4.631,2.459,2.459,0,0,1,.581.072.709.709,0,1,0,.352-1.373,3.939,3.939,0,0,0-.935-.117,3.733,3.733,0,0,0,.007,7.466h.007a3.736,3.736,0,0,0,3.606-4.673A.709.709,0,0,0,56.72,362.383Z" transform="translate(-45.641 -308.417)"/>
      <path id="Trazado_908052" data-name="Trazado 908052" d="M387.2,361.764a.709.709,0,0,0-.508.864,2.318,2.318,0,0,1-2.237,2.9h0a2.315,2.315,0,1,1,.577-4.559.709.709,0,1,0,.352-1.373,3.733,3.733,0,1,0-.928,7.35h.007a3.736,3.736,0,0,0,3.606-4.673A.709.709,0,0,0,387.2,361.764Z" transform="translate(-345.877 -307.855)"/>
      <path id="Trazado_908053" data-name="Trazado 908053" d="M207.418,87.068l-7.561.014a1.467,1.467,0,0,0-1.462,1.468l.028,15.121a1.467,1.467,0,0,0,1.465,1.462h0l7.561-.014a1.467,1.467,0,0,0,1.462-1.468l-.028-15.121A1.467,1.467,0,0,0,207.418,87.068Zm.064,16.619a.045.045,0,0,1-.033.015l-7.561.014v0a.05.05,0,0,1-.047-.047l-.028-15.121a.05.05,0,0,1,.047-.047l7.561-.014a.05.05,0,0,1,.047.047l.028,15.121A.046.046,0,0,1,207.482,103.687Z" transform="translate(-180.24 -60.372)"/>
      <path id="Trazado_908054" data-name="Trazado 908054" d="M232.213,129.847h0l3.024-.006a.709.709,0,0,0,0-1.418h0l-3.024.006a.709.709,0,0,0,0,1.418Z" transform="translate(-210.319 -97.943)"/>
      <path id="Trazado_908055" data-name="Trazado 908055" d="M232.275,162.9h0l3.024-.006a.709.709,0,0,0,0-1.418h0l-3.024.006a.709.709,0,0,0,0,1.418Z" transform="translate(-210.375 -127.967)"/>
      <path id="Trazado_908056" data-name="Trazado 908056" d="M232.337,195.943h0l3.024-.006a.709.709,0,0,0,0-1.418h0l-3.024.006a.709.709,0,0,0,0,1.418Z" transform="translate(-210.432 -157.991)"/>
      <path id="Trazado_908057" data-name="Trazado 908057" d="M235.424,227.568h0l-3.024.006a.709.709,0,0,0,0,1.418h0l3.024-.006a.709.709,0,0,0,0-1.418Z" transform="translate(-210.489 -188.015)"/>
      <path id="Trazado_908058" data-name="Trazado 908058" d="M42.179,87.379l-7.561.014a1.467,1.467,0,0,0-1.462,1.468l.028,15.121a1.467,1.467,0,0,0,1.465,1.462h0l7.561-.014a1.467,1.467,0,0,0,1.462-1.468l-.028-15.121A1.467,1.467,0,0,0,42.179,87.379ZM42.243,104a.045.045,0,0,1-.033.015l-7.561.014v0a.05.05,0,0,1-.047-.047l-.028-15.121a.05.05,0,0,1,.047-.047l7.561-.014a.05.05,0,0,1,.047.047l.028,15.121A.045.045,0,0,1,42.243,104Z" transform="translate(-30.122 -60.654)"/>
      <path id="Trazado_908059" data-name="Trazado 908059" d="M66.975,130.158h0L70,130.153a.709.709,0,0,0,0-1.418h0l-3.024.006a.709.709,0,0,0,0,1.418Z" transform="translate(-60.202 -98.226)"/>
      <path id="Trazado_908060" data-name="Trazado 908060" d="M67.037,163.206h0l3.024-.006a.709.709,0,0,0,0-1.418h0l-3.024.006a.709.709,0,0,0,0,1.418Z" transform="translate(-60.258 -128.25)"/>
      <path id="Trazado_908061" data-name="Trazado 908061" d="M70.124,194.831h0l-3.024.006a.709.709,0,0,0,0,1.418h0l3.024-.006a.709.709,0,0,0,0-1.418Z" transform="translate(-60.316 -158.273)"/>
      <path id="Trazado_908062" data-name="Trazado 908062" d="M372.656,86.757l-7.561.014a1.467,1.467,0,0,0-1.462,1.468l.029,15.121a1.467,1.467,0,0,0,1.465,1.462h0l7.561-.014a1.467,1.467,0,0,0,1.462-1.468l-.028-15.121A1.468,1.468,0,0,0,372.656,86.757Zm.064,16.619a.045.045,0,0,1-.033.015l-7.561.014v0a.05.05,0,0,1-.047-.047l-.028-15.121a.05.05,0,0,1,.047-.047l7.561-.014a.05.05,0,0,1,.047.047l.028,15.121A.045.045,0,0,1,372.72,103.376Z" transform="translate(-330.357 -60.089)"/>
      <path id="Trazado_908063" data-name="Trazado 908063" d="M397.452,129.536h0l3.024-.006a.709.709,0,0,0,0-1.418h0l-3.024.006a.709.709,0,0,0,0,1.418Z" transform="translate(-360.437 -97.661)"/>
      <path id="Trazado_908064" data-name="Trazado 908064" d="M400.538,161.161h0l-3.024.006a.709.709,0,0,0,0,1.418h0l3.024-.006a.709.709,0,0,0,0-1.418Z" transform="translate(-360.493 -127.685)"/>
    </g>
  </g>
</svg>
