<svg xmlns="http://www.w3.org/2000/svg" xmlns:xlink="http://www.w3.org/1999/xlink" width="93.722" height="93.723" viewBox="0 0 93.722 93.723">
  <defs>
    <filter id="Trazado_874925" x="0" y="0" width="93.722" height="93.723" filterUnits="userSpaceOnUse">
      <feOffset dy="3" input="SourceAlpha"/>
      <feGaussianBlur stdDeviation="3" result="blur"/>
      <feFlood flood-opacity="0.161"/>
      <feComposite operator="in" in2="blur"/>
      <feComposite in="SourceGraphic"/>
    </filter>
  </defs>
  <g id="Grupo_1114739" data-name="Grupo 1114739" transform="translate(-358.051 -2537)">
    <g id="Grupo_1112900" data-name="Grupo 1112900" transform="translate(367.051 2543)">
      <g id="Grupo_1109835" data-name="Grupo 1109835" transform="translate(0 0)">
        <g id="Grupo_1107913" data-name="Grupo 1107913" transform="translate(0 0)">
          <g transform="matrix(1, 0, 0, 1, -9, -6)" filter="url(#Trazado_874925)">
            <g id="Trazado_874925-2" data-name="Trazado 874925" transform="translate(9 6)" fill="#e2dacc" opacity="0.859">
              <path d="M 37.86101913452148 74.2225341796875 C 32.95165252685547 74.2225341796875 28.1899299621582 73.26136779785156 23.7081298828125 71.36572265625 C 19.37846374511719 69.534423828125 15.48970794677734 66.91244506835938 12.1498966217041 63.57263565063477 C 8.810074806213379 60.23281097412109 6.188107967376709 56.34405517578125 4.356808185577393 52.01438903808594 C 2.461163520812988 47.53257751464844 1.499996900558472 42.77085494995117 1.499996900558472 37.86148834228516 C 1.499996900558472 32.95167922973633 2.461163520812988 28.18995666503906 4.356808185577393 23.70814514160156 C 6.188107967376709 19.37847900390625 8.810074806213379 15.48972225189209 12.1498966217041 12.14990043640137 C 15.48970794677734 8.810089111328125 19.37846374511719 6.188111305236816 23.7081298828125 4.3568115234375 C 28.1899299621582 2.461167097091675 32.95165252685547 1.500000476837158 37.86101913452148 1.500000476837158 C 42.7703857421875 1.500000476837158 47.53210830688477 2.461167097091675 52.01390838623047 4.3568115234375 C 56.34357452392578 6.188111305236816 60.23233032226562 8.810089111328125 63.57213973999023 12.14990043640137 C 66.91196441650391 15.48972225189209 69.53392791748047 19.37847900390625 71.36522674560547 23.70814514160156 C 73.26087188720703 28.18995666503906 74.22203826904297 32.95167922973633 74.22203826904297 37.86104583740234 C 74.22203826904297 42.77085494995117 73.26087188720703 47.53257751464844 71.36522674560547 52.01438903808594 C 69.53392791748047 56.34405517578125 66.91196441650391 60.23281097412109 63.57213973999023 63.57263565063477 C 60.23233032226562 66.91244506835938 56.34357452392578 69.534423828125 52.01390838623047 71.36572265625 C 47.53210830688477 73.26136779785156 42.7703857421875 74.2225341796875 37.86101913452148 74.2225341796875 Z" stroke="none"/>
              <path d="M 37.86101913452148 3.000007629394531 C 33.15349578857422 3.000007629394531 28.5883674621582 3.921302795410156 24.29245758056641 5.738327026367188 C 20.14159393310547 7.493995666503906 16.41309356689453 10.00801849365234 13.21055603027344 13.21056747436523 C 10.00800323486328 16.41310501098633 7.493980407714844 20.14160537719727 5.738319396972656 24.29246520996094 C 3.921295166015625 28.58837890625 2.999992370605469 33.15350341796875 2.999992370605469 37.86148071289062 C 2.999992370605469 42.56901550292969 3.921295166015625 47.13414001464844 5.738319396972656 51.4300537109375 C 7.493980407714844 55.58092880249023 10.00800323486328 59.30941772460938 13.21055603027344 62.51196670532227 C 16.41309356689453 65.71451568603516 20.14159393310547 68.22854614257812 24.29245758056641 69.98420715332031 C 28.5883674621582 71.80123138427734 33.15349578857422 72.72252655029297 37.86101913452148 72.72252655029297 C 42.56854248046875 72.72252655029297 47.1336669921875 71.80123138427734 51.42958068847656 69.98420715332031 C 55.5804443359375 68.22854614257812 59.30892944335938 65.71451568603516 62.51148223876953 62.51196670532227 C 65.71401977539062 59.30941772460938 68.22804260253906 55.58092880249023 69.98370361328125 51.4300537109375 C 71.80073547363281 47.13414001464844 72.72203063964844 42.56901550292969 72.72203063964844 37.86104202270508 C 72.72203063964844 33.15350341796875 71.80073547363281 28.58837890625 69.98370361328125 24.29246520996094 C 68.22804260253906 20.14160537719727 65.71401977539062 16.41310501098633 62.51148223876953 13.21056747436523 C 59.30892944335938 10.00801849365234 55.5804443359375 7.493995666503906 51.42958068847656 5.738327026367188 C 47.1336669921875 3.921302795410156 42.56854248046875 3.000007629394531 37.86101913452148 3.000007629394531 M 37.86101913452148 7.62939453125e-06 C 58.77108001708984 7.62939453125e-06 75.72203063964844 16.95096588134766 75.72203063964844 37.86104202270508 L 75.72203063964844 37.86148071289062 C 75.72203063964844 58.77156829833984 58.77108001708984 75.72252655029297 37.86101913452148 75.72252655029297 C 16.95095825195312 75.72252655029297 -7.62939453125e-06 58.77156829833984 -7.62939453125e-06 37.86148071289062 L -7.62939453125e-06 37.86104202270508 C -7.62939453125e-06 16.95096588134766 16.95095825195312 7.62939453125e-06 37.86101913452148 7.62939453125e-06 Z" stroke="none" fill="#fff"/>
            </g>
          </g>
          <g id="Trazado_874923" data-name="Trazado 874923" transform="translate(0 0)" fill="none">
            <path d="M37.861,0A37.861,37.861,0,0,1,75.722,37.861h0A37.861,37.861,0,1,1,0,37.861H0A37.861,37.861,0,0,1,37.861,0Z" stroke="none"/>
            <path d="M 37.86101913452148 3.000007629394531 C 33.15349578857422 3.000007629394531 28.5883674621582 3.921302795410156 24.29245758056641 5.738327026367188 C 20.14159393310547 7.493995666503906 16.41309356689453 10.00801849365234 13.21055603027344 13.21056747436523 C 10.00800323486328 16.41310501098633 7.493980407714844 20.14160537719727 5.738319396972656 24.29246520996094 C 3.921295166015625 28.58837890625 2.999992370605469 33.15350341796875 2.999992370605469 37.86148071289062 C 2.999992370605469 42.56901550292969 3.921295166015625 47.13414001464844 5.738319396972656 51.4300537109375 C 7.493980407714844 55.58092880249023 10.00800323486328 59.30941772460938 13.21055603027344 62.51196670532227 C 16.41309356689453 65.71451568603516 20.14159393310547 68.22854614257812 24.29245758056641 69.98420715332031 C 28.5883674621582 71.80123138427734 33.15349578857422 72.72252655029297 37.86101913452148 72.72252655029297 C 42.56854248046875 72.72252655029297 47.1336669921875 71.80123138427734 51.42958068847656 69.98420715332031 C 55.5804443359375 68.22854614257812 59.30892944335938 65.71451568603516 62.51148223876953 62.51196670532227 C 65.71401977539062 59.30941772460938 68.22804260253906 55.58092880249023 69.98370361328125 51.4300537109375 C 71.80073547363281 47.13414001464844 72.72203063964844 42.56901550292969 72.72203063964844 37.86104202270508 C 72.72203063964844 33.15350341796875 71.80073547363281 28.58837890625 69.98370361328125 24.29246520996094 C 68.22804260253906 20.14160537719727 65.71401977539062 16.41310501098633 62.51148223876953 13.21056747436523 C 59.30892944335938 10.00801849365234 55.5804443359375 7.493995666503906 51.42958068847656 5.738327026367188 C 47.1336669921875 3.921302795410156 42.56854248046875 3.000007629394531 37.86101913452148 3.000007629394531 M 37.86101913452148 7.62939453125e-06 C 58.77108001708984 7.62939453125e-06 75.72203063964844 16.95096588134766 75.72203063964844 37.86104202270508 L 75.72203063964844 37.86148071289062 C 75.72203063964844 58.77156829833984 58.77108001708984 75.72252655029297 37.86101913452148 75.72252655029297 C 16.95095825195312 75.72252655029297 -7.62939453125e-06 58.77156829833984 -7.62939453125e-06 37.86148071289062 L -7.62939453125e-06 37.86104202270508 C -7.62939453125e-06 16.95096588134766 16.95095825195312 7.62939453125e-06 37.86101913452148 7.62939453125e-06 Z" stroke="none" fill="#fff"/>
          </g>
        </g>
      </g>
    </g>
    <g id="Grupo_1114738" data-name="Grupo 1114738" transform="translate(364.051 2504.465)">
      <path id="Trazado_907675" data-name="Trazado 907675" d="M16,85.39V59.235a3.7,3.7,0,0,1,7.357-.564h40a1.924,1.924,0,0,1,1.912,1.921V84.033a1.924,1.924,0,0,1-1.912,1.921H62.13v1.224a1.916,1.916,0,0,1-1.912,1.912H19.7a3.709,3.709,0,0,1-3.7-3.7Zm41.944,5.091a2.977,2.977,0,0,1,2.2.9,3.123,3.123,0,0,1,0,4.41,2.978,2.978,0,0,1-2.2.9L29.5,95.975a.564.564,0,0,1-.6-.563v-.169h-.8l-2.154.869a.559.559,0,0,1-.418,0L20.56,94.105a.563.563,0,0,1,0-1.045l4.972-2.006a.56.56,0,0,1,.418,0l2.154.869h.8l0-.169a.562.562,0,0,1,.549-.562Z" transform="translate(0 0)" fill-rule="evenodd"/>
      <g id="Grupo_1114737" data-name="Grupo 1114737" transform="translate(17.128 56.661)">
        <path id="Trazado_907676" data-name="Trazado 907676" d="M89.7,121.632a.564.564,0,0,1,1.128,0v.455h37.222a.788.788,0,0,0,.784-.793V97.854a.789.789,0,0,0-.784-.793H90.83v.455a.564.564,0,0,1-1.128,0v-.455H88.1v25.026h1.6Zm24.217-1.835a.564.564,0,0,1,0-1.128h1.074l1.453-1.395a1.041,1.041,0,0,1,1.63.24l.531.943,1.52-.894a1.03,1.03,0,0,1,1.294.195l.692.755.987-.6a1.031,1.031,0,0,1,1.167.058l.838.634.459-.284a.562.562,0,0,1,.591.956l-.7.433c-.366.227-.615.107-.923-.126l-.9-.681-1,.6a1.033,1.033,0,0,1-1.3-.186l-.694-.757-1.536.9a1.039,1.039,0,0,1-1.435-.387l-.519-.922-1.4,1.344a1.006,1.006,0,0,1-.721.292h-1.106Zm-6.56,0a.564.564,0,0,1,0-1.128h4.092a.564.564,0,0,1,0,1.128Zm-7.151,0a.564.564,0,0,1,0-1.128H104.3a.564.564,0,0,1,0,1.128Zm-7.151,0a.564.564,0,0,1,0-1.128H97.15a.564.564,0,0,1,0,1.128ZM89.7,117.273a.564.564,0,0,1,1.128,0v2.038a.564.564,0,0,1-1.128,0Zm21.75-.476a.564.564,0,1,1-.564.564.564.564,0,0,1,.564-.564Zm-2.046,0a.564.564,0,1,1-.564.564A.564.564,0,0,1,109.4,116.8Zm-2.046,0a.564.564,0,1,1-.564.564A.564.564,0,0,1,107.359,116.8Zm-3.058,0a.564.564,0,1,1-.564.564.564.564,0,0,1,.564-.564Zm-2.046,0a.564.564,0,1,1-.564.564A.564.564,0,0,1,102.254,116.8Zm-2.046,0a.564.564,0,1,1-.564.564A.564.564,0,0,1,100.208,116.8Zm-3.058,0a.564.564,0,1,1-.564.564A.564.564,0,0,1,97.15,116.8Zm-2.046,0a.564.564,0,1,1-.564.564A.564.564,0,0,1,95.1,116.8Zm-2.046,0a.564.564,0,1,1-.564.564A.564.564,0,0,1,93.058,116.8Zm21.109-7.145h12.26a.564.564,0,0,1,.564.564v3.149a.564.564,0,0,1-.564.564h-12.26a.564.564,0,0,1-.564-.564v-3.149A.564.564,0,0,1,114.167,109.653Zm9.225-10.638a.562.562,0,0,1,1.124.013v.022a2.049,2.049,0,0,1,1.461,1.992.562.562,0,0,1-1.124-.013.927.927,0,1,0-.948.91,2.052,2.052,0,0,1,.513,4.033v.019a.562.562,0,0,1-1.124-.013v-.022a2.049,2.049,0,0,1-1.46-1.992.562.562,0,0,1,1.124.013.927.927,0,1,0,.948-.91,2.052,2.052,0,0,1-.513-4.033v-.019Zm-20.1,1.272a.564.564,0,0,1,0-1.128h16.016a.564.564,0,0,1,0,1.128Zm0,2.781a.564.564,0,0,1,0-1.128h13.855a.564.564,0,0,1,0,1.128Zm0,2.781a.564.564,0,0,1,0-1.128h12.25a.564.564,0,0,1,0,1.128Zm-10.234,8.082a.564.564,0,0,1,0-1.128h18.393a.564.564,0,0,1,0,1.128Zm0-3.149a.564.564,0,0,1,0-1.128h18.393a.564.564,0,0,1,0,1.128ZM89.7,99.837a.564.564,0,0,1,1.128,0v2.038a.564.564,0,0,1-1.128,0Zm0,4.359a.564.564,0,0,1,1.128,0v2.038a.564.564,0,0,1-1.128,0V104.2Zm0,4.359a.564.564,0,0,1,1.128,0v2.038a.564.564,0,0,1-1.128,0v-2.038Zm0,4.359a.564.564,0,0,1,1.128,0v2.038a.564.564,0,0,1-1.128,0ZM96.51,98.586l1.041.2a.566.566,0,0,1,.136.045l.935.446a.562.562,0,0,1,.192.15l.677.722a.562.562,0,0,1,.094.134l.493.883a.56.56,0,0,1,.069.223l.136,1.044a.565.565,0,0,1,0,.155l-.136,1.05a.558.558,0,0,1-.066.2l-.5.9a.564.564,0,0,1-.082.112l-.7.749a.56.56,0,0,1-.168.123l-.934.447a.564.564,0,0,1-.165.05l-1.025.2a.561.561,0,0,1-.224,0l-1.041-.2a.566.566,0,0,1-.136-.045l-.935-.446a.562.562,0,0,1-.192-.15l-.677-.722a.562.562,0,0,1-.094-.134l-.493-.883a.56.56,0,0,1-.069-.223l-.136-1.044a.564.564,0,0,1,0-.155l.136-1.05a.558.558,0,0,1,.066-.2l.5-.9a.565.565,0,0,1,.082-.112l.7-.749a.56.56,0,0,1,.168-.123l.934-.447a.563.563,0,0,1,.165-.05l1.025-.2a.561.561,0,0,1,.224,0Z" transform="translate(-81.825 -93.925)" fill="#fff" fill-rule="evenodd"/>
        <g id="Grupo_1114736" data-name="Grupo 1114736" transform="translate(0)">
          <path id="Trazado_907677" data-name="Trazado 907677" d="M32.136,92.581v-23.5a2.572,2.572,0,0,0-5.144,0v23.5a3.686,3.686,0,0,1,5.144,0Z" transform="translate(-26.992 -66.509)" fill="#3d7dbd" fill-rule="evenodd"/>
          <path id="Trazado_907678" data-name="Trazado 907678" d="M70.866,324.466H32.7a.564.564,0,0,1-.564-.564,2.572,2.572,0,1,0-2.572,2.572H70.082a.787.787,0,0,0,.784-.784v-1.224Z" transform="translate(-26.992 -295.176)" fill="#3d7dbd" fill-rule="evenodd"/>
          <path id="Trazado_907679" data-name="Trazado 907679" d="M145.59,123.036l-.874-.169-.874.169-.779.372-.582.62-.418.749-.115.884.115.884.418.749.582.62.779.372.874.169.874-.169.779-.372.582-.62.418-.749.115-.884-.115-.884-.418-.749-.582-.62-.779-.372Zm-.755.942.341.066a.569.569,0,0,1,.136.045l.315.15a.562.562,0,0,1,.192.15l.211.225a.564.564,0,0,1,.094.134l.158.282a.56.56,0,0,1,.069.223l.044.338a.565.565,0,0,1,0,.155l-.045.344a.557.557,0,0,1-.066.2l-.17.3a.562.562,0,0,1-.082.112l-.236.252a.558.558,0,0,1-.168.123l-.314.151a.567.567,0,0,1-.165.05l-.326.063a.562.562,0,0,1-.224,0l-.341-.066a.566.566,0,0,1-.136-.045l-.315-.15a.562.562,0,0,1-.192-.15l-.211-.225a.564.564,0,0,1-.094-.134l-.158-.282a.56.56,0,0,1-.069-.223l-.044-.338a.566.566,0,0,1,0-.155l.045-.344a.558.558,0,0,1,.066-.2l.17-.3a.563.563,0,0,1,.082-.112l.236-.252a.56.56,0,0,1,.168-.123l.314-.151a.568.568,0,0,1,.165-.05l.326-.063A.561.561,0,0,1,144.835,123.978Z" transform="translate(-130.151 -117.082)" fill="#3d7dbd" fill-rule="evenodd"/>
          <path id="Trazado_907680" data-name="Trazado 907680" d="M164.234,144.674l-.174-.034-.174.034-.158.076-.116.123-.083.149-.023.177.023.177.083.149.116.123.158.076.174.034.174-.034.158-.076.116-.123.083-.149.023-.177-.023-.177-.083-.148-.116-.123Z" transform="translate(-149.494 -136.621)" fill="#3d7dbd" fill-rule="evenodd"/>
          <path id="Trazado_907681" data-name="Trazado 907681" d="M347.59,230.732h11.132v2.02H347.59Z" transform="translate(-314.684 -213.876)" fill="#3d7dbd"/>
          <path id="Trazado_907682" data-name="Trazado 907682" d="M82.591,414.568a.562.562,0,0,1,.249-.058h.9v-1.062h-.9a.563.563,0,0,1-.249-.058l-2.007-.81-3.467,1.4,3.467,1.4Z" transform="translate(-71.971 -377.06)" fill="#3d7dbd" fill-rule="evenodd"/>
          <path id="Trazado_907683" data-name="Trazado 907683" d="M328.715,421.844a.564.564,0,0,1,0-1.128H337.2a.564.564,0,0,1,0,1.128Z" transform="translate(-297.247 -384.361)" fill="#3d7dbd" fill-rule="evenodd"/>
        </g>
        <path id="Trazado_907684" data-name="Trazado 907684" d="M155.044,415.842v-2.678l-2.348.059v2.561Z" transform="translate(-139.794 -377.584)" fill="#fff" fill-rule="evenodd"/>
        <path id="Trazado_907685" data-name="Trazado 907685" d="M187.345,415.474V412.7l-.78.02v2.735Z" transform="translate(-170.187 -377.167)" fill="#fff" fill-rule="evenodd"/>
        <path id="Trazado_907686" data-name="Trazado 907686" d="M205.155,407.5v2.83l22.556.563a1.9,1.9,0,0,0,1.381-.567,2,2,0,0,0,0-2.823,1.9,1.9,0,0,0-1.381-.567Z" transform="translate(-186.869 -371.993)" fill="#3d7dbd" fill-rule="evenodd"/>
      </g>
    </g>
  </g>
</svg>
