<svg xmlns="http://www.w3.org/2000/svg" xmlns:xlink="http://www.w3.org/1999/xlink" width="295" height="320.993" viewBox="0 0 295 320.993">
  <defs>
    <clipPath id="clip-path">
      <rect id="Rectángulo_406617" data-name="Rectángulo 406617" width="59.949" height="111.967" fill="none"/>
    </clipPath>
    <clipPath id="clip-path-3">
      <rect id="Rectángulo_406615" data-name="Rectángulo 406615" width="59.949" height="73.104" fill="none"/>
    </clipPath>
    <clipPath id="clip-path-4">
      <rect id="Rectángulo_406614" data-name="Rectángulo 406614" width="225.615" height="308.402" fill="none"/>
    </clipPath>
    <clipPath id="clip-path-6">
      <rect id="Rectángulo_406605" data-name="Rectángulo 406605" width="4.774" height="12.34" fill="none"/>
    </clipPath>
    <clipPath id="clip-path-8">
      <rect id="Rectángulo_406607" data-name="Rectángulo 406607" width="4.034" height="3.104" fill="none"/>
    </clipPath>
    <clipPath id="clip-path-9">
      <rect id="Rectángulo_406608" data-name="Rectángulo 406608" width="18.582" height="1.995" fill="none"/>
    </clipPath>
    <clipPath id="clip-path-10">
      <rect id="Rectángulo_406609" data-name="Rectángulo 406609" width="3.527" height="4.972" fill="none"/>
    </clipPath>
    <clipPath id="clip-path-11">
      <rect id="Rectángulo_406610" data-name="Rectángulo 406610" width="14.421" height="12.019" fill="none"/>
    </clipPath>
    <clipPath id="clip-path-12">
      <rect id="Rectángulo_406611" data-name="Rectángulo 406611" width="11.925" height="24.102" fill="none"/>
    </clipPath>
    <clipPath id="clip-path-13">
      <rect id="Rectángulo_406612" data-name="Rectángulo 406612" width="52.866" height="60.454" fill="none"/>
    </clipPath>
  </defs>
  <g id="Grupo_1114689" data-name="Grupo 1114689" transform="translate(-285.051 -3631)">
    <rect id="Rectángulo_405790" data-name="Rectángulo 405790" width="295" height="320.993" rx="8" transform="translate(285.051 3631)" fill="#fed6a8"/>
    <g id="Grupo_1114688" data-name="Grupo 1114688" transform="translate(323.742 3643)">
      <g id="Grupo_1114687" data-name="Grupo 1114687" clip-path="url(#clip-path)">
        <g id="Grupo_1114686" data-name="Grupo 1114686" transform="translate(0)">
          <g id="Grupo_1114685" data-name="Grupo 1114685" clip-path="url(#clip-path)">
            <path id="Trazado_907298" data-name="Trazado 907298" d="M5.387.228A2.253,2.253,0,0,1,5.8.1,2.875,2.875,0,0,1,7.069.119a4.58,4.58,0,0,1,1.843.946,9.778,9.778,0,0,1,1.87,2.179,39.17,39.17,0,0,1,3.238,7.327,107.425,107.425,0,0,1,3.3,10.3l0,.013,0,.008a2.99,2.99,0,0,0,.681.843,1.343,1.343,0,0,0,1.062.34,1.971,1.971,0,0,0,.978-.565c.273-.253.529-.522.787-.794a18.009,18.009,0,0,1,1.62-1.58A2.985,2.985,0,0,1,24.5,18.3a2.771,2.771,0,0,1,1.878,1.251,4.712,4.712,0,0,1,.647,2.321,23.413,23.413,0,0,1-.677,5.109l-1,5.369q-.255,1.374-.517,2.778-.131.7-.262,1.411a1.831,1.831,0,0,0,.167,1.5.736.736,0,0,0,.78.265,1.963,1.963,0,0,0,.691-.359l1.186-.888a26.563,26.563,0,0,1,2.476-1.667,9.43,9.43,0,0,1,2.769-1.153,3.261,3.261,0,0,1,1.474.01,2.176,2.176,0,0,1,1.2.806,4.958,4.958,0,0,1,.787,2.92,16.388,16.388,0,0,1-.306,3.168,40.484,40.484,0,0,1-1.781,6.3,8.3,8.3,0,0,0-.511,1.625,1.182,1.182,0,0,0,.216.9,1.057,1.057,0,0,0,.169.17.568.568,0,0,0,.227.134.7.7,0,0,0,.509-.112,8.746,8.746,0,0,0,1.352-1.076l1.252-1.161a18.5,18.5,0,0,1,2.658-2.14,5.544,5.544,0,0,1,1.533-.7,1.9,1.9,0,0,1,1.562.193,2.265,2.265,0,0,1,.884,1.354,6.881,6.881,0,0,1,.209,1.709,14.457,14.457,0,0,1-.44,3.49,30.384,30.384,0,0,1-2.537,6.717,50.927,50.927,0,0,1-3.782,6.284,36.04,36.04,0,0,1-2.278,2.939l-2.372,2.907-.027.033.14-.054-3.715-.541a34.111,34.111,0,0,1-3.665-.632,50.8,50.8,0,0,1-7.028-2.108,30.345,30.345,0,0,1-6.4-3.265A14.414,14.414,0,0,1,9.294,61.82a6.9,6.9,0,0,1-1-1.406,2.272,2.272,0,0,1-.258-1.6,1.9,1.9,0,0,1,1.026-1.2,5.536,5.536,0,0,1,1.6-.515,18.5,18.5,0,0,1,3.407-.2l1.708.018a8.721,8.721,0,0,0,1.724-.113.7.7,0,0,0,.452-.26.568.568,0,0,0,.078-.252,1.087,1.087,0,0,0,.011-.24,1.184,1.184,0,0,0-.447-.812,8.4,8.4,0,0,0-1.471-.86,40.435,40.435,0,0,1-5.555-3.465A16.393,16.393,0,0,1,8.22,48.781a4.949,4.949,0,0,1-1.379-2.692,2.188,2.188,0,0,1,.349-1.4,3.259,3.259,0,0,1,1.086-1A9.42,9.42,0,0,1,11.1,42.68a26.557,26.557,0,0,1,2.954-.431l1.476-.14a1.946,1.946,0,0,0,.753-.2.737.737,0,0,0,.393-.724,1.841,1.841,0,0,0-.886-1.217L14.65,39.1,12.4,37.392l-4.349-3.3a23.337,23.337,0,0,1-3.935-3.326,4.706,4.706,0,0,1-1.081-2.153,2.769,2.769,0,0,1,.551-2.187,2.016,2.016,0,0,1,.957-.571,4.633,4.633,0,0,1,1.123-.185,18.15,18.15,0,0,1,2.26.081c.373.028.744.055,1.116.059a1.971,1.971,0,0,0,1.1-.241A1.347,1.347,0,0,0,10.7,24.6a3.016,3.016,0,0,0-.063-1.082l0-.009L10.63,23.5a107.077,107.077,0,0,1-4.48-9.825A40.29,40.29,0,0,1,3.61,6.09,9.888,9.888,0,0,1,3.5,3.226a4.638,4.638,0,0,1,.68-1.953A2.78,2.78,0,0,1,5.08.39,2.09,2.09,0,0,1,5.469.2a1.528,1.528,0,0,0-.4.167,2.743,2.743,0,0,0-.934.876A4.655,4.655,0,0,0,3.42,3.216a9.868,9.868,0,0,0,.093,2.891,39.843,39.843,0,0,0,2.5,7.621,106.046,106.046,0,0,0,4.452,9.86l-.008-.021a2.832,2.832,0,0,1,.055,1.007,1.156,1.156,0,0,1-.477.834,1.79,1.79,0,0,1-1,.206c-.362-.005-.73-.033-1.1-.062a18.3,18.3,0,0,0-2.287-.087,4.847,4.847,0,0,0-1.173.191,2.213,2.213,0,0,0-1.05.627,2.969,2.969,0,0,0-.61,2.363A4.917,4.917,0,0,0,3.943,30.9a23.464,23.464,0,0,0,3.969,3.375l4.34,3.307L14.5,39.3l1.141.87a2.646,2.646,0,0,1,.519.457,1.169,1.169,0,0,1,.269.584.475.475,0,0,1-.266.479,1.712,1.712,0,0,1-.657.168l-1.47.137a26.845,26.845,0,0,0-2.984.431,9.69,9.69,0,0,0-2.91,1.036,3.527,3.527,0,0,0-1.175,1.081,2.452,2.452,0,0,0-.394,1.57,5.194,5.194,0,0,0,1.443,2.854,16.57,16.57,0,0,0,2.394,2.18A40.621,40.621,0,0,0,16,54.638a8.3,8.3,0,0,1,1.414.822.9.9,0,0,1,.35.616.786.786,0,0,1-.008.181c-.007.046-.024.157-.041.147a.5.5,0,0,1-.272.126,8.622,8.622,0,0,1-1.655.1l-1.706-.019a18.8,18.8,0,0,0-3.462.205,5.842,5.842,0,0,0-1.692.545,2.2,2.2,0,0,0-1.172,1.384,2.562,2.562,0,0,0,.279,1.8,7.162,7.162,0,0,0,1.04,1.471A14.721,14.721,0,0,0,11.8,64.355a30.65,30.65,0,0,0,6.46,3.3,51.062,51.062,0,0,0,7.073,2.124,34.416,34.416,0,0,0,3.679.635l3.721.541.085.012.054-.067.027-.033,2.375-2.912a36.11,36.11,0,0,0,2.285-2.949,51.078,51.078,0,0,0,3.8-6.325,30.637,30.637,0,0,0,2.56-6.785,14.7,14.7,0,0,0,.446-3.562,7.151,7.151,0,0,0-.22-1.787,2.558,2.558,0,0,0-1.005-1.519,2.2,2.2,0,0,0-1.8-.234,5.85,5.85,0,0,0-1.618.735,18.8,18.8,0,0,0-2.7,2.176l-1.25,1.161A8.6,8.6,0,0,1,34.485,49.9a.508.508,0,0,1-.286.091c-.006.018-.092-.051-.129-.081a.8.8,0,0,1-.127-.127.9.9,0,0,1-.156-.691,8.318,8.318,0,0,1,.494-1.559,40.663,40.663,0,0,0,1.788-6.346,16.64,16.64,0,0,0,.307-3.222,5.2,5.2,0,0,0-.849-3.083,2.454,2.454,0,0,0-1.345-.9,3.523,3.523,0,0,0-1.6-.012,9.677,9.677,0,0,0-2.85,1.188,26.761,26.761,0,0,0-2.5,1.687l-1.181.887a1.736,1.736,0,0,1-.6.32.475.475,0,0,1-.52-.172,1.156,1.156,0,0,1-.2-.612,2.616,2.616,0,0,1,.076-.687q.131-.708.26-1.41.259-1.4.511-2.776.507-2.745.989-5.366a23.549,23.549,0,0,0,.67-5.168,4.924,4.924,0,0,0-.687-2.427,2.973,2.973,0,0,0-2.039-1.343,2.22,2.22,0,0,0-1.2.241,4.833,4.833,0,0,0-1,.647,18.145,18.145,0,0,0-1.634,1.6c-.256.271-.51.539-.774.786a1.789,1.789,0,0,1-.876.519,1.155,1.155,0,0,1-.915-.3,2.851,2.851,0,0,1-.637-.783l.008.022a105.964,105.964,0,0,0-3.341-10.311,38.76,38.76,0,0,0-3.29-7.332A9.782,9.782,0,0,0,8.958,1.007,4.6,4.6,0,0,0,7.079.07,2.833,2.833,0,0,0,5.8.076a1.623,1.623,0,0,0-.408.152" transform="translate(13.953 0)" fill="#263238"/>
            <path id="Trazado_907299" data-name="Trazado 907299" d="M16.728,13.994a1,1,0,0,0,.059.191l.2.549.8,2.1,2.973,7.717,9.706,25.5C34.246,60.02,37.7,69.029,40.26,75.527c1.279,3.249,2.325,5.874,3.064,7.682l.855,2.08.229.538a.977.977,0,0,0,.088.179,1,1,0,0,0-.059-.191l-.2-.549-.8-2.1-2.973-7.717-9.707-25.5c-3.776-9.964-7.23-18.972-9.79-25.47-1.279-3.25-2.325-5.875-3.064-7.683l-.855-2.08-.23-.538a1.006,1.006,0,0,0-.088-.179" transform="translate(5.677 -5.816)" fill="#263238"/>
            <path id="Trazado_907300" data-name="Trazado 907300" d="M47.3,48.5a10.313,10.313,0,0,0,1.462.868l3.579,1.991c1.4.778,2.674,1.471,3.613,1.942a7.811,7.811,0,0,0,1.561.68,11.937,11.937,0,0,0-1.46-.87l-3.566-2.018c-1.4-.778-2.683-1.455-3.628-1.916A8.655,8.655,0,0,0,47.3,48.5" transform="translate(-25.213 -20.156)" fill="#263238"/>
            <path id="Trazado_907301" data-name="Trazado 907301" d="M36.336,48.757c.075.037,1.465-2.614,3.1-5.923s2.906-6.021,2.831-6.058-1.464,2.614-3.1,5.923-2.906,6.02-2.831,6.058" transform="translate(-3.556 -15.285)" fill="#263238"/>
            <path id="Trazado_907302" data-name="Trazado 907302" d="M24.677,77.491a8.991,8.991,0,0,0,1.285-1.171c.757-.76,1.776-1.838,2.832-3.09s1.958-2.432,2.579-3.306a8.817,8.817,0,0,0,.941-1.461A11.156,11.156,0,0,0,31.2,69.8c-.664.839-1.584,1.994-2.639,3.239s-2.041,2.343-2.756,3.139a10.885,10.885,0,0,0-1.129,1.319" transform="translate(13.213 -28.455)" fill="#263238"/>
            <path id="Trazado_907303" data-name="Trazado 907303" d="M37.768,79.61a8.4,8.4,0,0,0,1.54.451c.961.241,2.292.553,3.766.879s2.814.605,3.786.792a8.365,8.365,0,0,0,1.587.241,8.385,8.385,0,0,0-1.54-.451c-.96-.241-2.291-.553-3.766-.879s-2.813-.605-3.785-.792a8.432,8.432,0,0,0-1.587-.241" transform="translate(-10.568 -33.084)" fill="#263238"/>
            <path id="Trazado_907304" data-name="Trazado 907304" d="M27.839,104.106a13.738,13.738,0,0,0,1.986.53c1.235.289,2.946.669,4.84,1.069s3.612.746,4.859.982a13.812,13.812,0,0,0,2.031.319,13.74,13.74,0,0,0-1.986-.53c-1.235-.289-2.946-.669-4.84-1.069s-3.611-.746-4.858-.981a13.775,13.775,0,0,0-2.031-.32" transform="translate(2.126 -43.266)" fill="#263238"/>
            <path id="Trazado_907305" data-name="Trazado 907305" d="M12.317,100.463a2.222,2.222,0,0,0,.439-.4c.269-.269.646-.67,1.106-1.172.916-1,2.152-2.422,3.448-4.044S19.724,91.713,20.5,90.6c.39-.557.7-1.014.9-1.335a2.226,2.226,0,0,0,.292-.515,2.24,2.24,0,0,0-.389.447l-.978,1.277c-.821,1.082-1.959,2.572-3.255,4.188s-2.5,3.053-3.372,4.092a17.445,17.445,0,0,0-1.383,1.712" transform="translate(31.055 -36.885)" fill="#263238"/>
            <path id="Trazado_907306" data-name="Trazado 907306" d="M49.217,125.327c10.147-8.178,11.617-22.165,10.343-34.56-.213-2.069-.135-4.271-1.246-6.023s-3.5-2.837-5.3-1.836c-1.491.83-2.039,2.668-2.8,4.209A12.16,12.16,0,0,1,45.675,92.1a4.633,4.633,0,0,1-4.232.677c-1.857-.864-2.237-3.321-2.366-5.385q-.359-5.77-.719-11.537a19.283,19.283,0,0,0-1.043-6.084A6.412,6.412,0,0,0,33,65.717c-2-.415-4.349.883-4.625,2.93a19.2,19.2,0,0,0,.117,2.572,2.174,2.174,0,0,1-1.129,2.129,2.5,2.5,0,0,1-2.33-.791,27.5,27.5,0,0,1-5.434-7.1,38.173,38.173,0,0,0-5.119-7.356,11.181,11.181,0,0,0-7.848-3.72C3.665,54.421.643,56.46.1,59.411s1.35,5.793,3.357,8.021a46.154,46.154,0,0,0,10.213,8.48,3.8,3.8,0,0,1,1.722,1.614c.542,1.345-.667,2.8-1.994,3.345-1.5.618-3.181.572-4.777.872s-3.289,1.128-3.793,2.69c-.7,2.166,1.215,4.255,3.049,5.583a39.524,39.524,0,0,0,12.135,5.938,13.33,13.33,0,0,1,4.482,1.81c1.3.983,2.163,2.786,1.523,4.289s-2.505,2.1-4.115,1.914a27.53,27.53,0,0,1-4.645-1.418c-2.908-.875-6.555-.429-8.2,2.145a6.545,6.545,0,0,0-.3,5.82,15.086,15.086,0,0,0,3.477,4.883,39.749,39.749,0,0,0,17.751,10.74c6.731,1.829,12.867,2.028,19.238-.81" transform="translate(0 -22.604)" fill="#fd9826"/>
            <g id="Grupo_1114684" data-name="Grupo 1114684" transform="translate(0 31.781)" opacity="0.1">
              <g id="Grupo_1114683" data-name="Grupo 1114683">
                <g id="Grupo_1114682" data-name="Grupo 1114682" clip-path="url(#clip-path-3)">
                  <path id="Trazado_907307" data-name="Trazado 907307" d="M49.217,125.327c10.147-8.178,11.617-22.165,10.343-34.56-.213-2.069-.135-4.271-1.246-6.023s-3.5-2.837-5.3-1.836c-1.491.83-2.039,2.668-2.8,4.209A12.16,12.16,0,0,1,45.675,92.1a4.633,4.633,0,0,1-4.232.677c-1.857-.864-2.237-3.321-2.366-5.385q-.359-5.77-.719-11.537a19.283,19.283,0,0,0-1.043-6.084A6.412,6.412,0,0,0,33,65.717c-2-.415-4.349.883-4.625,2.93a19.2,19.2,0,0,0,.117,2.572,2.174,2.174,0,0,1-1.129,2.129,2.5,2.5,0,0,1-2.33-.791,27.5,27.5,0,0,1-5.434-7.1,38.173,38.173,0,0,0-5.119-7.356,11.181,11.181,0,0,0-7.848-3.72C3.665,54.421.643,56.46.1,59.411s1.35,5.793,3.357,8.021a46.154,46.154,0,0,0,10.213,8.48,3.8,3.8,0,0,1,1.722,1.614c.542,1.345-.667,2.8-1.994,3.345-1.5.618-3.181.572-4.777.872s-3.289,1.128-3.793,2.69c-.7,2.166,1.215,4.255,3.049,5.583a39.524,39.524,0,0,0,12.135,5.938,13.33,13.33,0,0,1,4.482,1.81c1.3.983,2.163,2.786,1.523,4.289s-2.505,2.1-4.115,1.914a27.53,27.53,0,0,1-4.645-1.418c-2.908-.875-6.555-.429-8.2,2.145a6.545,6.545,0,0,0-.3,5.82,15.086,15.086,0,0,0,3.477,4.883,39.749,39.749,0,0,0,17.751,10.74c6.731,1.829,12.867,2.028,19.238-.81" transform="translate(0 -54.385)"/>
                </g>
              </g>
            </g>
            <path id="Trazado_907308" data-name="Trazado 907308" d="M64.135,135.944A90.752,90.752,0,0,0,59.6,119.175a185.279,185.279,0,0,0-8.7-19.4l-2.542-4.967c-.838-1.628-1.669-3.243-2.579-4.772a92.508,92.508,0,0,0-5.735-8.487c-1.955-2.612-3.9-5.018-5.745-7.255s-3.6-4.284-5.287-6.084a73.4,73.4,0,0,0-8.567-7.894c-1.081-.85-1.94-1.481-2.529-1.9l-.672-.474a1.537,1.537,0,0,0-.237-.15,1.483,1.483,0,0,0,.214.182l.65.5c.573.44,1.418,1.09,2.483,1.956A77.652,77.652,0,0,1,28.813,68.4c1.666,1.807,3.409,3.862,5.241,6.1s3.766,4.655,5.709,7.265a93.594,93.594,0,0,1,5.694,8.466c.9,1.522,1.726,3.123,2.564,4.756s1.682,3.289,2.54,4.965A189.888,189.888,0,0,1,59.271,119.3a92.315,92.315,0,0,1,4.6,16.689" transform="translate(-14.123 -24.021)" fill="#263238"/>
            <path id="Trazado_907309" data-name="Trazado 907309" d="M46.121,96.676a4.185,4.185,0,0,0,.141-.894c.069-.578.141-1.416.216-2.453.151-2.074.262-4.945.371-8.11s.261-6.028.443-8.094c.088-1.033.167-1.869.23-2.445a4.182,4.182,0,0,0,.054-.9,4.1,4.1,0,0,0-.2.882c-.108.572-.228,1.4-.351,2.437-.251,2.066-.446,4.937-.555,8.107-.1,3.125-.191,5.951-.26,8.11-.037.975-.07,1.8-.1,2.457a4.157,4.157,0,0,0,.006.905" transform="translate(-14.578 -30.664)" fill="#263238"/>
            <path id="Trazado_907310" data-name="Trazado 907310" d="M48.609,107.5a5.743,5.743,0,0,0,1.066.054c.685.014,1.675.029,2.9.086,2.447.1,5.822.346,9.534.785s7.055.993,9.46,1.458c1.206.224,2.176.431,2.847.571a5.7,5.7,0,0,0,1.052.183,5.663,5.663,0,0,0-1.019-.329c-.662-.184-1.626-.432-2.828-.692-2.4-.535-5.747-1.126-9.47-1.573a93.709,93.709,0,0,0-9.57-.674c-1.228-.023-2.222,0-2.908.036a5.642,5.642,0,0,0-1.064.1" transform="translate(-43.925 -44.62)" fill="#263238"/>
            <path id="Trazado_907311" data-name="Trazado 907311" d="M6.508,137.294a1.377,1.377,0,0,0,.16-.336l.388-.991c.333-.861.782-2.121,1.316-3.684,1.071-3.126,2.415-7.49,3.832-12.326s2.72-9.209,3.724-12.353c.493-1.528.9-2.785,1.2-3.72.129-.406.234-.739.321-1.014a1.37,1.37,0,0,0,.088-.362,1.407,1.407,0,0,0-.16.337l-.388.989c-.333.862-.782,2.121-1.316,3.684-1.071,3.126-2.415,7.49-3.833,12.328S9.121,129.054,8.117,132.2c-.494,1.528-.9,2.786-1.2,3.719L6.6,136.931a1.387,1.387,0,0,0-.088.363" transform="translate(38.609 -42.605)" fill="#263238"/>
            <path id="Trazado_907312" data-name="Trazado 907312" d="M25.382,146.733a1.456,1.456,0,0,0,.359.12l1.047.272,3.857.964c3.257.815,7.743,1.992,12.7,3.3s9.458,2.445,12.732,3.192c1.637.374,2.965.663,3.887.844l1.062.2a1.366,1.366,0,0,0,.376.044,1.443,1.443,0,0,0-.359-.12l-1.047-.272-3.857-.964c-3.257-.814-7.743-1.992-12.7-3.3s-9.455-2.444-12.73-3.191c-1.637-.375-2.965-.664-3.887-.845l-1.062-.2a1.4,1.4,0,0,0-.376-.044" transform="translate(-16.284 -60.984)" fill="#263238"/>
          </g>
        </g>
      </g>
    </g>
    <g id="Grupo_1114681" data-name="Grupo 1114681" transform="translate(320.051 3643)">
      <g id="Grupo_1114680" data-name="Grupo 1114680" clip-path="url(#clip-path-4)">
        <rect id="Rectángulo_406604" data-name="Rectángulo 406604" width="185.876" height="254.702" transform="translate(39.739 20.214)" fill="#455a64"/>
        <path id="Trazado_907198" data-name="Trazado 907198" d="M235.092,269.063H72.04V39.8H235.092v229.26Z" transform="translate(-16.823 -9.295)" fill="#e0e0e0"/>
        <path id="Trazado_907199" data-name="Trazado 907199" d="M232.179,263.886H70.6V35.848H232.179V263.886Z" transform="translate(-16.486 -8.371)" fill="#ebebeb"/>
        <path id="Trazado_907200" data-name="Trazado 907200" d="M213.9,246.316,195.286,261.47H66.66V36.6H229.712V233.5Z" transform="translate(-15.567 -8.548)" fill="#fafafa"/>
        <g id="Grupo_1114659" data-name="Grupo 1114659">
          <g id="Grupo_1114658" data-name="Grupo 1114658" clip-path="url(#clip-path-4)">
            <path id="Trazado_907201" data-name="Trazado 907201" d="M213.836,246.255s.33-.281.994-.827l2.981-2.437,11.8-9.605-.024.049c-.019-32.342-.062-104.208-.117-196.892l.181.18-161.628.019H66.6l.2-.2c-.015,84.538-.029,162.527-.04,224.867l-.16-.159,128.625.091-.043.015,13.976-11.338,3.5-2.829c.78-.628,1.176-.934,1.176-.934s-.381.325-1.153.962l-3.481,2.857-13.935,11.388-.018.015h-.025L66.6,261.569h-.159v-.16c-.011-62.34-.025-140.329-.04-224.867v-.2h1.623l161.628.019h.18v.181c-.054,92.684-.1,164.55-.117,196.892v.031l-.024.019-11.839,9.557-3,2.413c-.671.537-1.015.8-1.015.8" transform="translate(-15.506 -8.487)" fill="#263238"/>
            <path id="Trazado_907202" data-name="Trazado 907202" d="M196.3,38.976H129.569V27.411A11.311,11.311,0,0,1,140.88,16.1h44.573A10.849,10.849,0,0,1,196.3,26.948Z" transform="translate(-30.258 -3.76)" fill="#fd9826"/>
            <path id="Trazado_907203" data-name="Trazado 907203" d="M150.15,12.34,147.71,0h38.423L184,12.34Z" transform="translate(-34.494 0)" fill="#fd9826"/>
            <path id="Trazado_907204" data-name="Trazado 907204" d="M116.381,110.813H88.911V83.343h27.47Zm-26.7-.766h25.937V84.109H89.677Z" transform="translate(-20.763 -19.463)" fill="#fd9826"/>
            <path id="Trazado_907205" data-name="Trazado 907205" d="M225.37,91.937c0,.11-19.121.2-42.7.2s-42.706-.089-42.706-.2,19.117-.2,42.706-.2,42.7.089,42.7.2" transform="translate(-32.685 -21.423)" fill="#263238"/>
            <path id="Trazado_907206" data-name="Trazado 907206" d="M225.37,99.384c0,.11-19.121.2-42.7.2s-42.706-.089-42.706-.2,19.117-.2,42.706-.2,42.7.089,42.7.2" transform="translate(-32.685 -23.162)" fill="#263238"/>
            <path id="Trazado_907207" data-name="Trazado 907207" d="M225.37,106.831c0,.11-19.121.2-42.7.2s-42.706-.089-42.706-.2,19.117-.2,42.706-.2,42.7.089,42.7.2" transform="translate(-32.685 -24.901)" fill="#263238"/>
            <path id="Trazado_907208" data-name="Trazado 907208" d="M225.37,114.279c0,.11-19.121.2-42.7.2s-42.706-.089-42.706-.2,19.117-.2,42.706-.2,42.7.089,42.7.2" transform="translate(-32.685 -26.64)" fill="#263238"/>
            <path id="Trazado_907209" data-name="Trazado 907209" d="M116.381,166.046H88.911V138.577h27.47Zm-26.7-.766h25.937V139.343H89.677Z" transform="translate(-20.763 -32.361)" fill="#fd9826"/>
            <path id="Trazado_907210" data-name="Trazado 907210" d="M96.038,153.407l3.647-3.917,6.077,4.862,13.912-13.506,3.333,3.928L105.492,162.05Z" transform="translate(-22.427 -32.891)" fill="#fd9826"/>
            <path id="Trazado_907211" data-name="Trazado 907211" d="M225.37,147.17c0,.11-19.121.2-42.7.2s-42.706-.089-42.706-.2,19.117-.2,42.706-.2,42.7.089,42.7.2" transform="translate(-32.685 -34.321)" fill="#263238"/>
            <path id="Trazado_907212" data-name="Trazado 907212" d="M225.37,154.617c0,.11-19.121.2-42.7.2s-42.706-.089-42.706-.2,19.117-.2,42.706-.2,42.7.089,42.7.2" transform="translate(-32.685 -36.06)" fill="#263238"/>
            <path id="Trazado_907213" data-name="Trazado 907213" d="M225.37,162.065c0,.11-19.121.2-42.7.2s-42.706-.089-42.706-.2,19.117-.2,42.706-.2,42.7.089,42.7.2" transform="translate(-32.685 -37.8)" fill="#263238"/>
            <path id="Trazado_907214" data-name="Trazado 907214" d="M225.37,169.512c0,.11-19.121.2-42.7.2s-42.706-.089-42.706-.2,19.117-.2,42.706-.2,42.7.089,42.7.2" transform="translate(-32.685 -39.539)" fill="#263238"/>
            <path id="Trazado_907215" data-name="Trazado 907215" d="M116.381,219.494H88.911v-27.47h27.47Zm-26.7-.766h25.937V192.79H89.677Z" transform="translate(-20.763 -44.842)" fill="#fd9826"/>
            <path id="Trazado_907216" data-name="Trazado 907216" d="M96.038,206.855l3.647-3.917,6.077,4.863,13.912-13.507,3.333,3.928L105.492,215.5Z" transform="translate(-22.427 -45.372)" fill="#fd9826"/>
            <path id="Trazado_907217" data-name="Trazado 907217" d="M225.37,200.618c0,.11-19.121.2-42.7.2s-42.706-.089-42.706-.2,19.117-.2,42.706-.2,42.7.089,42.7.2" transform="translate(-32.685 -46.803)" fill="#263238"/>
            <path id="Trazado_907218" data-name="Trazado 907218" d="M225.37,208.066c0,.11-19.121.2-42.7.2s-42.706-.089-42.706-.2,19.117-.2,42.706-.2,42.7.089,42.7.2" transform="translate(-32.685 -48.542)" fill="#263238"/>
            <path id="Trazado_907219" data-name="Trazado 907219" d="M225.37,215.513c0,.11-19.121.2-42.7.2s-42.706-.089-42.706-.2,19.117-.2,42.706-.2,42.7.089,42.7.2" transform="translate(-32.685 -50.281)" fill="#263238"/>
            <path id="Trazado_907220" data-name="Trazado 907220" d="M225.37,222.96c0,.11-19.121.2-42.7.2s-42.706-.089-42.706-.2,19.117-.2,42.706-.2,42.7.089,42.7.2" transform="translate(-32.685 -52.02)" fill="#263238"/>
            <path id="Trazado_907221" data-name="Trazado 907221" d="M116.381,271.1H88.911V243.63h27.47Zm-26.7-.766h25.937V244.4H89.677Z" transform="translate(-20.763 -56.894)" fill="#fd9826"/>
            <path id="Trazado_907222" data-name="Trazado 907222" d="M96.038,258.46l3.647-3.917,6.077,4.863L119.673,245.9l3.333,3.928L105.492,267.1Z" transform="translate(-22.427 -57.424)" fill="#fd9826"/>
            <path id="Trazado_907223" data-name="Trazado 907223" d="M225.37,252.224c0,.11-19.121.2-42.7.2s-42.706-.089-42.706-.2,19.117-.2,42.706-.2,42.7.089,42.7.2" transform="translate(-32.685 -58.854)" fill="#263238"/>
            <path id="Trazado_907224" data-name="Trazado 907224" d="M225.37,259.671c0,.11-19.121.2-42.7.2s-42.706-.089-42.706-.2,19.117-.2,42.706-.2,42.7.089,42.7.2" transform="translate(-32.685 -60.593)" fill="#263238"/>
            <path id="Trazado_907225" data-name="Trazado 907225" d="M225.37,267.118c0,.11-19.121.2-42.7.2s-42.706-.089-42.706-.2,19.117-.2,42.706-.2,42.7.089,42.7.2" transform="translate(-32.685 -62.332)" fill="#263238"/>
            <path id="Trazado_907226" data-name="Trazado 907226" d="M225.37,274.566c0,.11-19.121.2-42.7.2s-42.706-.089-42.706-.2,19.117-.2,42.706-.2,42.7.089,42.7.2" transform="translate(-32.685 -64.071)" fill="#263238"/>
            <path id="Trazado_907227" data-name="Trazado 907227" d="M235.7,281.408,217.823,318.43h12.763Z" transform="translate(-50.867 -65.716)" fill="#e0e0e0"/>
            <path id="Trazado_907228" data-name="Trazado 907228" d="M234.475,318.7l5.113-37.022,29.313,9.047Z" transform="translate(-54.756 -65.779)" fill="#fafafa"/>
            <path id="Trazado_907229" data-name="Trazado 907229" d="M234.475,318.627l9.857-8.114L268.777,290.5l.066.338-11.318-3.488-17.992-5.565.241-.154c-1.532,10.754-2.845,19.965-3.778,26.513-.923,6.366-1.4,9.652-1.521,10.482a1.435,1.435,0,0,1,.016-.164c.017-.133.038-.3.064-.513q.094-.72.264-2.016c.237-1.8.579-4.383,1.007-7.631.883-6.6,2.125-15.885,3.575-26.723l.029-.219.212.065,18,5.543,11.315,3.5.35.108-.285.229-24.741,19.957-7.226,5.806-1.927,1.545-.493.392c-.11.086-.166.128-.162.123" transform="translate(-54.755 -65.705)" fill="#263238"/>
            <g id="Grupo_1114657" data-name="Grupo 1114657" transform="translate(146.866)" opacity="0.3">
              <g id="Grupo_1114656" data-name="Grupo 1114656">
                <g id="Grupo_1114655" data-name="Grupo 1114655" clip-path="url(#clip-path-6)">
                  <path id="Trazado_907230" data-name="Trazado 907230" d="M193.731,0l-2.119,12.34h2.638L196.385,0h-3.36" transform="translate(-191.612 0)"/>
                </g>
              </g>
            </g>
          </g>
        </g>
        <g id="Grupo_1114679" data-name="Grupo 1114679">
          <g id="Grupo_1114678" data-name="Grupo 1114678" clip-path="url(#clip-path-4)">
            <path id="Trazado_907231" data-name="Trazado 907231" d="M45.772,157.3h0a6.9,6.9,0,0,0,7.417-6.611c.144-3.753.27-7.547.27-7.547s5.687-.533,6.1-6.162.224-18.623.224-18.623a19.614,19.614,0,0,0-19.822,1.275l.351,19.81V150.1c.038,3.574,1.9,6.927,5.46,7.2" transform="translate(-9.332 -27.15)" fill="#ffbe9d"/>
            <path id="Trazado_907232" data-name="Trazado 907232" d="M53.058,128.671a2.885,2.885,0,0,0-3.846-.84,3.271,3.271,0,0,0-1.09,4.091,4.31,4.31,0,0,0,2.762,2.088,2.162,2.162,0,0,1,1.692,2.328,7.212,7.212,0,0,1-1.977,3.92,10.387,10.387,0,0,1-6.515,3.087c-2.4.284-5.143-.216-6.538-2.187-1.015-1.433-1.088-3.307-1.124-5.063l-.258-12.451a17.769,17.769,0,0,1,.284-4.467,6,6,0,0,1,2.356-3.694c1.369-.9,3.1-.977,4.662-1.482,1.95-.631,3.606-1.924,5.429-2.857s4.06-1.491,5.891-.572c1.315.66,2.2,1.971,3.474,2.7,1.82,1.035,4.3.8,5.181,3.476a4.536,4.536,0,0,1-.03,2.862c-1.234,3.642-5.744,5.11-8.992,3.536-.064.617.543,1.99-.106,3.938-.208.622-.281,1.572-1.255,1.59" transform="translate(-8.441 -25.712)" fill="#263238"/>
            <path id="Trazado_907233" data-name="Trazado 907233" d="M35.034,115.424a19.137,19.137,0,0,0,1.808-5.654,6.477,6.477,0,0,0-1.774-5.464,5.332,5.332,0,0,0-3.711-1.312,6.272,6.272,0,0,0-5.656,4.482,6.757,6.757,0,0,0,2.274,6.924,7.328,7.328,0,0,0,7.293.951" transform="translate(-5.949 -24.051)" fill="#263238"/>
            <path id="Trazado_907234" data-name="Trazado 907234" d="M38.576,116.534a2.772,2.772,0,0,1-2.668,2.605c-.027-.114.825-.34,1.558-1.072.75-.717,1-1.563,1.11-1.533" transform="translate(-8.385 -27.213)" fill="#fd9826"/>
            <path id="Trazado_907235" data-name="Trazado 907235" d="M35.021,116.769a5.312,5.312,0,0,1-1.528,1.118,4.418,4.418,0,0,1-2.014.571,2.8,2.8,0,0,1-2.349-1.054,3.132,3.132,0,0,1-.417-2.545A4.949,4.949,0,0,1,29.658,113a5.886,5.886,0,0,1,1.332-1.344,17.66,17.66,0,0,1-1.1,1.509,5.059,5.059,0,0,0-.816,1.777,2.839,2.839,0,0,0,.379,2.23,2.491,2.491,0,0,0,2.027.922,4.431,4.431,0,0,0,1.889-.456c1.025-.5,1.616-.924,1.654-.865" transform="translate(-6.682 -26.073)" fill="#263238"/>
            <path id="Trazado_907236" data-name="Trazado 907236" d="M24.488,124.887a2.459,2.459,0,0,1,.274.624,6.435,6.435,0,0,0,.829,1.6,2.325,2.325,0,0,0,2.2,1.014,3.025,3.025,0,0,0,2.122-2.136,21.926,21.926,0,0,0,.576-3.27,5.054,5.054,0,0,1,1.075-2.579,2.779,2.779,0,0,1,1.639-.934,1.083,1.083,0,0,1,.688.059c0,.038-.248-.011-.659.094a2.786,2.786,0,0,0-1.454.965,4.973,4.973,0,0,0-.926,2.454,19.537,19.537,0,0,1-.561,3.34,3.352,3.352,0,0,1-2.434,2.368,2.243,2.243,0,0,1-1.526-.3,3.2,3.2,0,0,1-.97-.913,5.528,5.528,0,0,1-.75-1.723,2.106,2.106,0,0,1-.126-.672" transform="translate(-5.717 -27.834)" fill="#263238"/>
            <path id="Trazado_907237" data-name="Trazado 907237" d="M20.494,188.316s-2.869,21.017,0,23.681,5.631,1.78,5.631,1.78l5.463-4.568,1.075-20.893Z" transform="translate(-4.488 -43.976)" fill="#ffbe9d"/>
            <path id="Trazado_907238" data-name="Trazado 907238" d="M98.338,107.514l3.647-3.917,6.077,4.862,13.912-13.506,3.333,3.928-17.514,17.276Z" transform="translate(-22.964 -22.174)" fill="#fd9826"/>
            <path id="Trazado_907239" data-name="Trazado 907239" d="M111.223,112.733l-5.289,3.394c-.239-2.09-1.835-4.162-1.752-3.112s.009,6.5.009,6.5L94.76,139.358a9.4,9.4,0,0,1-5.819,5.587l-8.8,2.618L83.578,159.2l12.236-4.057a10.555,10.555,0,0,0,6.706-6.726l8.435-25.7a39.913,39.913,0,0,0,1.363-5.063c.361-2.142-1.1-4.928-1.1-4.928" transform="translate(-18.714 -26.326)" fill="#ffbe9d"/>
            <path id="Trazado_907240" data-name="Trazado 907240" d="M60.761,394.114l-.132-5.885-11.024.176.1,8.611.684.033c3.044.12,15.49.4,17.514-.251,2.257-.724-7.144-2.684-7.144-2.684" transform="translate(-11.584 -90.661)" fill="#fd9826"/>
            <g id="Grupo_1114662" data-name="Grupo 1114662" transform="translate(38.085 303.101)" opacity="0.5">
              <g id="Grupo_1114661" data-name="Grupo 1114661">
                <g id="Grupo_1114660" data-name="Grupo 1114660" clip-path="url(#clip-path-8)">
                  <path id="Trazado_907241" data-name="Trazado 907241" d="M53.722,398.552a3.825,3.825,0,0,0-1.444-2.328,3.717,3.717,0,0,0-2.59-.76l.047,3.081Z" transform="translate(-49.688 -395.448)" fill="#fff"/>
                </g>
              </g>
            </g>
            <g id="Grupo_1114665" data-name="Grupo 1114665" transform="translate(38.123 304.574)" opacity="0.4">
              <g id="Grupo_1114664" data-name="Grupo 1114664">
                <g id="Grupo_1114663" data-name="Grupo 1114663" clip-path="url(#clip-path-9)">
                  <path id="Trazado_907242" data-name="Trazado 907242" d="M65.389,397.369s3.3.894,2.9,1.442-12.988.741-18.548.34l.014-.247,14.684-.1s.311-1.4.953-1.435" transform="translate(-49.738 -397.369)" fill="#fff"/>
                </g>
              </g>
            </g>
            <path id="Trazado_907243" data-name="Trazado 907243" d="M49.53,399.282a1,1,0,0,0,.19.018l.544.025,2.005.055c1.694.035,4.034.052,6.618.015s4.924-.123,6.615-.208l2-.114.544-.041a1.048,1.048,0,0,0,.189-.023,1.072,1.072,0,0,0-.191,0l-.545.015-2,.072c-1.692.06-4.03.13-6.613.169s-4.922.035-6.615.025l-2.005-.013H49.72a1.013,1.013,0,0,0-.19.009" transform="translate(-11.566 -93.177)" fill="#263238"/>
            <path id="Trazado_907244" data-name="Trazado 907244" d="M68.907,398.934a2.914,2.914,0,0,1,1.031-1.74,1.782,1.782,0,0,0-1.031,1.74" transform="translate(-16.086 -92.754)" fill="#263238"/>
            <path id="Trazado_907245" data-name="Trazado 907245" d="M64.634,397.094c.031.019.184-.172.341-.428s.259-.479.227-.5-.184.172-.341.428-.258.479-.227.5" transform="translate(-15.092 -92.515)" fill="#263238"/>
            <path id="Trazado_907246" data-name="Trazado 907246" d="M63.461,396.586c.025.027.2-.092.385-.265s.319-.336.294-.363-.2.091-.385.265-.319.336-.294.363" transform="translate(-14.819 -92.465)" fill="#263238"/>
            <path id="Trazado_907247" data-name="Trazado 907247" d="M62.705,395.412a2.521,2.521,0,1,0,.576-.069,1.3,1.3,0,0,0-.576.069" transform="translate(-14.643 -92.322)" fill="#263238"/>
            <path id="Trazado_907248" data-name="Trazado 907248" d="M62.437,394.475a1.617,1.617,0,0,0,1.306.078,3.575,3.575,0,0,0-.653-.034,3.586,3.586,0,0,0-.653-.044" transform="translate(-14.58 -92.117)" fill="#263238"/>
            <path id="Trazado_907249" data-name="Trazado 907249" d="M65.105,395.806a2.042,2.042,0,0,0,.708-.015,4.172,4.172,0,0,0,.752-.178,2.072,2.072,0,0,0,.429-.185.384.384,0,0,0,.172-.223.279.279,0,0,0-.112-.281,1.3,1.3,0,0,0-1.6.4,1.27,1.27,0,0,0-.224.477c-.027.121-.024.19-.015.192a1.966,1.966,0,0,1,.313-.609,1.283,1.283,0,0,1,.6-.4,1.1,1.1,0,0,1,.845.045c.113.081.072.214-.052.29a2.106,2.106,0,0,1-.4.176,4.833,4.833,0,0,1-.727.2c-.423.082-.694.087-.693.109" transform="translate(-15.204 -92.194)" fill="#263238"/>
            <path id="Trazado_907250" data-name="Trazado 907250" d="M65.058,395.742a.7.7,0,0,0,.074-.493,1.172,1.172,0,0,0-.2-.515.711.711,0,0,0-.6-.352.282.282,0,0,0-.213.33.773.773,0,0,0,.125.315,2.176,2.176,0,0,0,.341.423,1.016,1.016,0,0,0,.41.281c.012-.018-.143-.125-.342-.346a2.492,2.492,0,0,1-.3-.421c-.1-.149-.17-.416.007-.451.177-.02.36.154.471.294a1.156,1.156,0,0,1,.208.458,2.559,2.559,0,0,1,.019.478" transform="translate(-14.973 -92.098)" fill="#263238"/>
            <path id="Trazado_907251" data-name="Trazado 907251" d="M49.763,395.4c0,.025.315-.035.815.016a3.454,3.454,0,0,1,2.923,2.257c.176.47.2.787.222.784a.633.633,0,0,0,0-.222,2.894,2.894,0,0,0-.13-.593,3.351,3.351,0,0,0-3-2.32,2.9,2.9,0,0,0-.606.025.643.643,0,0,0-.216.053" transform="translate(-11.621 -92.317)" fill="#263238"/>
            <path id="Trazado_907252" data-name="Trazado 907252" d="M51.142,389.419a38.525,38.525,0,0,0,.012,4.531,38.525,38.525,0,0,0-.012-4.531" transform="translate(-11.929 -90.939)" fill="#263238"/>
            <path id="Trazado_907253" data-name="Trazado 907253" d="M56.739,398.058a9.056,9.056,0,0,0,3.222-.019c0-.038-.724.017-1.611.021s-1.607-.04-1.611,0" transform="translate(-13.25 -92.949)" fill="#263238"/>
            <path id="Trazado_907254" data-name="Trazado 907254" d="M53.918,398.106c-.027.028.061.152.137.316s.119.31.156.307.054-.175-.035-.363-.235-.286-.258-.259" transform="translate(-12.59 -92.966)" fill="#263238"/>
            <path id="Trazado_907255" data-name="Trazado 907255" d="M52.836,396.8c-.026.026.047.14.162.254s.231.185.257.159-.047-.14-.162-.254-.231-.185-.257-.159" transform="translate(-12.337 -92.661)" fill="#263238"/>
            <path id="Trazado_907256" data-name="Trazado 907256" d="M51.308,396.2c.008.038.155.034.317.088s.281.139.31.113-.066-.176-.268-.241-.37.005-.359.039" transform="translate(-11.982 -92.507)" fill="#263238"/>
            <path id="Trazado_907257" data-name="Trazado 907257" d="M50.221,395.944c-.013.035.051.09.143.124s.177.034.19,0-.051-.09-.143-.124-.177-.034-.19,0" transform="translate(-11.728 -92.457)" fill="#263238"/>
            <path id="Trazado_907258" data-name="Trazado 907258" d="M10.273,389.916l3.738-4.547-8.473-7.056L0,384.907l.5.471c2.23,2.077,11.484,10.4,13.441,11.232,2.184.923-3.665-6.694-3.665-6.694" transform="translate(0 -88.345)" fill="#fd9826"/>
            <g id="Grupo_1114668" data-name="Grupo 1114668" transform="translate(0.109 294.081)" opacity="0.5">
              <g id="Grupo_1114667" data-name="Grupo 1114667">
                <g id="Grupo_1114666" data-name="Grupo 1114666" clip-path="url(#clip-path-10)">
                  <path id="Trazado_907259" data-name="Trazado 907259" d="M3.161,388.652a3.826,3.826,0,0,0,.424-2.707,3.718,3.718,0,0,0-1.468-2.265L.143,386.046Z" transform="translate(-0.143 -383.68)" fill="#fff"/>
                </g>
              </g>
            </g>
            <g id="Grupo_1114671" data-name="Grupo 1114671" transform="translate(0 296.383)" opacity="0.4">
              <g id="Grupo_1114670" data-name="Grupo 1114670">
                <g id="Grupo_1114669" data-name="Grupo 1114669" clip-path="url(#clip-path-11)">
                  <path id="Trazado_907260" data-name="Trazado 907260" d="M13.026,395.718s1.917,2.829,1.256,2.982S3.953,390.792,0,386.862l.171-.178,11.2,9.5s1.147-.857,1.658-.467" transform="translate(0 -386.684)" fill="#fff"/>
                </g>
              </g>
            </g>
            <path id="Trazado_907261" data-name="Trazado 907261" d="M.056,386.532a1.015,1.015,0,0,0,.133.137l.4.374,1.484,1.35c1.261,1.131,3.024,2.67,5.007,4.327s3.813,3.117,5.151,4.157l1.592,1.219.439.324a1.052,1.052,0,0,0,.158.106.969.969,0,0,0-.142-.127l-.423-.344L12.285,396.8c-1.321-1.058-3.139-2.529-5.123-4.185s-3.753-3.183-5.03-4.3L.62,387l-.414-.355a1.05,1.05,0,0,0-.15-.117" transform="translate(-0.013 -90.265)" fill="#263238"/>
            <path id="Trazado_907262" data-name="Trazado 907262" d="M14.685,399.027a4.512,4.512,0,0,1,.9-.5,4.553,4.553,0,0,1,1.016-.152,1.485,1.485,0,0,0-1.059.025,1.484,1.484,0,0,0-.857.622" transform="translate(-3.429 -93.013)" fill="#263238"/>
            <path id="Trazado_907263" data-name="Trazado 907263" d="M12.8,394.77a1.165,1.165,0,0,0,.538-.1c.286-.092.508-.195.5-.23a1.158,1.158,0,0,0-.537.1c-.286.091-.509.194-.5.229" transform="translate(-2.99 -92.108)" fill="#263238"/>
            <path id="Trazado_907264" data-name="Trazado 907264" d="M12.3,393.63c0,.037.209.059.464.05s.461-.047.46-.084-.209-.06-.464-.05-.461.047-.46.084" transform="translate(-2.874 -91.902)" fill="#263238"/>
            <path id="Trazado_907265" data-name="Trazado 907265" d="M12.608,392.141c-.024.028.153.218.395.425s.458.351.482.323-.153-.218-.4-.425-.458-.351-.481-.323" transform="translate(-2.944 -91.574)" fill="#263238"/>
            <path id="Trazado_907266" data-name="Trazado 907266" d="M13.027,391.245a1.113,1.113,0,0,0,.373.554,1.124,1.124,0,0,0,.566.357c.02-.034-.218-.2-.472-.453s-.434-.479-.467-.458" transform="translate(-3.041 -91.365)" fill="#263238"/>
            <path id="Trazado_907267" data-name="Trazado 907267" d="M13.971,394.173a2.037,2.037,0,0,0,.547.45,4.094,4.094,0,0,0,.685.356,2.089,2.089,0,0,0,.446.14.384.384,0,0,0,.275-.057.279.279,0,0,0,.1-.287,1.3,1.3,0,0,0-1.477-.737,1.273,1.273,0,0,0-.481.215c-.1.075-.142.13-.136.135a2.027,2.027,0,0,1,.635-.258,1.283,1.283,0,0,1,.717.086,1.1,1.1,0,0,1,.612.585c.034.136-.085.21-.229.187a2.13,2.13,0,0,1-.415-.124,4.862,4.862,0,0,1-.682-.322c-.374-.214-.582-.386-.6-.369" transform="translate(-3.253 -92.01)" fill="#263238"/>
            <path id="Trazado_907268" data-name="Trazado 907268" d="M14.084,393.944c0,.012.2-.06.378-.326a1.168,1.168,0,0,0,.183-.521.712.712,0,0,0-.222-.655.282.282,0,0,0-.377.112.77.77,0,0,0-.11.32,2.181,2.181,0,0,0-.018.543,1.029,1.029,0,0,0,.128.48c.021-.005-.027-.189-.034-.486a2.529,2.529,0,0,1,.044-.516c.021-.178.143-.427.3-.338a.633.633,0,0,1,.166.53,1.159,1.159,0,0,1-.141.482,2.54,2.54,0,0,1-.3.374" transform="translate(-3.248 -91.637)" fill="#263238"/>
            <path id="Trazado_907269" data-name="Trazado 907269" d="M2.8,383.7c-.014.021.261.179.607.543a3.561,3.561,0,0,1,.9,1.7,3.56,3.56,0,0,1-.152,1.917c-.173.471-.364.725-.343.738s.061-.053.143-.17a2.9,2.9,0,0,0,.289-.534,3.353,3.353,0,0,0-.764-3.718A2.969,2.969,0,0,0,3,383.8a.644.644,0,0,0-.2-.1" transform="translate(-0.654 -89.602)" fill="#263238"/>
            <path id="Trazado_907270" data-name="Trazado 907270" d="M6.883,380.055a19.225,19.225,0,0,0-1.524,1.678A19.385,19.385,0,0,0,3.937,383.5a19.308,19.308,0,0,0,1.525-1.678,19.452,19.452,0,0,0,1.422-1.765" transform="translate(-0.919 -88.752)" fill="#263238"/>
            <path id="Trazado_907271" data-name="Trazado 907271" d="M6.369,390.249A6.226,6.226,0,0,0,7.5,391.4a6.283,6.283,0,0,0,1.321.934c.023-.032-.559-.459-1.234-1.035s-1.193-1.078-1.22-1.052" transform="translate(-1.487 -91.132)" fill="#263238"/>
            <path id="Trazado_907272" data-name="Trazado 907272" d="M4.148,388.44c-.038,0-.052.155-.1.329s-.112.312-.081.335.155-.1.21-.3.008-.37-.027-.365" transform="translate(-0.924 -90.71)" fill="#263238"/>
            <path id="Trazado_907273" data-name="Trazado 907273" d="M4.223,386.744c-.037,0-.056.137-.042.3s.054.29.091.287.056-.137.042-.3-.054-.29-.091-.287" transform="translate(-0.975 -90.314)" fill="#263238"/>
            <path id="Trazado_907274" data-name="Trazado 907274" d="M3.455,385.3c-.018.034.1.126.183.274s.122.289.16.288.065-.176-.046-.357-.284-.238-.3-.2" transform="translate(-0.806 -89.976)" fill="#263238"/>
            <path id="Trazado_907275" data-name="Trazado 907275" d="M2.8,384.393c-.032.018-.02.1.028.188s.113.141.145.123.02-.1-.028-.188-.113-.141-.145-.123" transform="translate(-0.65 -89.764)" fill="#263238"/>
            <path id="Trazado_907276" data-name="Trazado 907276" d="M33.5,232.559s-3.671,15.531-2.632,18.6,7.763,4.849,7.763,4.849L38.4,298.541,1.211,344.514,14.945,355.75s40.263-46.059,43.812-54.4-2.262-69.48-2.262-69.48Z" transform="translate(-0.283 -54.148)" fill="#263238"/>
            <path id="Trazado_907277" data-name="Trazado 907277" d="M58.654,224.508l1.82,129.171-18.92.1-9.5-105.2c-2.007-1.915-4.831-5.2-4.442-12.514l.461-8.5Z" transform="translate(-6.441 -52.428)" fill="#263238"/>
            <path id="Trazado_907278" data-name="Trazado 907278" d="M42.092,311.977a.748.748,0,0,1,.11-.192l.359-.53,1.406-1.99L49.1,302.16l-.031.1c-.412-4.483-.912-9.92-1.45-15.782-.687-7.682-1.243-14.643-1.571-19.688-.167-2.522-.277-4.564-.337-5.976-.024-.675-.042-1.216-.056-1.627a3.023,3.023,0,0,1,.008-.569,3.054,3.054,0,0,1,.073.564c.033.41.076.949.13,1.622.113,1.453.271,3.48.464,5.965.4,5.036,1,11.991,1.687,19.673.515,5.883,1.041,11.311,1.38,15.817l0,.05-.036.048-5.246,7.023-1.479,1.937-.4.5c-.093.112-.143.167-.15.162" transform="translate(-9.829 -60.393)" fill="#455a64"/>
            <path id="Trazado_907279" data-name="Trazado 907279" d="M46.655,257.977a25.8,25.8,0,0,1-5.01-.746,25.807,25.807,0,0,1-4.887-1.333,42.879,42.879,0,0,1,4.969.943,42.722,42.722,0,0,1,4.928,1.136" transform="translate(-8.584 -59.755)" fill="#455a64"/>
            <path id="Trazado_907280" data-name="Trazado 907280" d="M63.42,315.615a19.253,19.253,0,0,0-5.109-1.331,19.275,19.275,0,0,0-5.256.51,4.322,4.322,0,0,1,1.475-.578,11.622,11.622,0,0,1,7.526.6,4.3,4.3,0,0,1,1.365.8" transform="translate(-12.389 -73.292)" fill="#455a64"/>
            <path id="Trazado_907281" data-name="Trazado 907281" d="M67.944,323.963c.087.067-5.234,7.21-11.886,15.953S43.941,355.7,43.853,355.63s5.233-7.209,11.887-15.955,12.116-15.779,12.2-15.712" transform="translate(-10.24 -75.653)" fill="#455a64"/>
            <path id="Trazado_907282" data-name="Trazado 907282" d="M69.037,236.721a3.172,3.172,0,0,1-1.065,1.4,5.27,5.27,0,0,1-7.712-.813,3.164,3.164,0,0,1-.748-1.6,16.564,16.564,0,0,0,.967,1.419,5.257,5.257,0,0,0,7.315.772,16.523,16.523,0,0,0,1.242-1.186" transform="translate(-13.896 -55.045)" fill="#455a64"/>
            <path id="Trazado_907283" data-name="Trazado 907283" d="M36.647,143.306a16.5,16.5,0,0,1-.9-23.013" transform="translate(-7.358 -28.091)" fill="#263238"/>
            <path id="Trazado_907284" data-name="Trazado 907284" d="M22.836,166.037s-4.111,4.643-4.962,22.4c0,0,11.706,2.221,11.92,1.582s-6.958-23.986-6.958-23.986" transform="translate(-4.174 -38.774)" fill="#fd9826"/>
            <g id="Grupo_1114674" data-name="Grupo 1114674" transform="translate(13.7 127.263)" opacity="0.3">
              <g id="Grupo_1114673" data-name="Grupo 1114673">
                <g id="Grupo_1114672" data-name="Grupo 1114672" clip-path="url(#clip-path-12)">
                  <path id="Trazado_907285" data-name="Trazado 907285" d="M22.836,166.037s-4.111,4.643-4.962,22.4c0,0,11.706,2.221,11.92,1.582s-6.958-23.986-6.958-23.986" transform="translate(-17.874 -166.037)"/>
                </g>
              </g>
            </g>
            <path id="Trazado_907286" data-name="Trazado 907286" d="M25.853,215.1H61.791l-.58-5.614s-4.107-21.359-4.077-21.64l.648-1.361a13.549,13.549,0,0,0,.157-11.3l17.6-6.018-4.308-14.521C63.243,156,51.172,157.5,51.172,157.5l-1.8.151s-12.46.65-12.726.682c-5.212.63-11.276,1.03-13.494,6.609-1.185,2.982-.059,7.46,1.876,12.076L29.638,191.2c1.84,7.793-1.1,7.422-2.707,15.265-.244,1.187-1.1,7.553-1.078,8.641" transform="translate(-5.294 -36.114)" fill="#fd9826"/>
            <g id="Grupo_1114677" data-name="Grupo 1114677" transform="translate(17.376 118.534)" opacity="0.3">
              <g id="Grupo_1114676" data-name="Grupo 1114676">
                <g id="Grupo_1114675" data-name="Grupo 1114675" clip-path="url(#clip-path-13)">
                  <path id="Trazado_907287" data-name="Trazado 907287" d="M25.853,215.1H61.791l-.58-5.614s-4.107-21.359-4.077-21.64l.648-1.361a13.549,13.549,0,0,0,.157-11.3l17.6-6.018-4.308-14.521C63.243,156,51.172,157.5,51.172,157.5l-1.8.151s-12.46.65-12.726.682c-5.212.63-11.276,1.03-13.494,6.609-1.185,2.982-.059,7.46,1.876,12.076L29.638,191.2c1.84,7.793-1.1,7.422-2.707,15.265-.244,1.187-1.1,7.553-1.078,8.641" transform="translate(-22.67 -154.648)"/>
                </g>
              </g>
            </g>
            <path id="Trazado_907288" data-name="Trazado 907288" d="M85.272,173.9a3.479,3.479,0,0,1-.781.328c-.51.187-1.253.444-2.174.754-1.84.622-4.4,1.445-7.216,2.347s-5.343,1.8-7.134,2.539c-.9.363-1.613.686-2.112.9a3.46,3.46,0,0,1-.787.31,3.477,3.477,0,0,1,.719-.449c.48-.257,1.18-.621,2.069-1.019a67.921,67.921,0,0,1,7.123-2.66c2.824-.9,5.391-1.683,7.253-2.236.931-.276,1.687-.492,2.212-.633a3.468,3.468,0,0,1,.828-.18" transform="translate(-15.195 -40.608)" fill="#263238"/>
            <path id="Trazado_907289" data-name="Trazado 907289" d="M74.243,163.752c0,.11-10.626.2-23.73.2s-23.732-.089-23.732-.2,10.623-.2,23.732-.2,23.73.089,23.73.2" transform="translate(-6.254 -38.194)" fill="#fafafa"/>
            <path id="Trazado_907290" data-name="Trazado 907290" d="M74.04,172.961c0,.11-11.824.2-26.407.2s-26.41-.089-26.41-.2,11.822-.2,26.41-.2,26.407.089,26.407.2" transform="translate(-4.956 -40.344)" fill="#fafafa"/>
            <path id="Trazado_907291" data-name="Trazado 907291" d="M23.719,183.44a6.242,6.242,0,0,1-2.2.2,6.238,6.238,0,0,1-2.2-.2,6.238,6.238,0,0,1,2.2-.2,6.241,6.241,0,0,1,2.2.2" transform="translate(-4.511 -42.791)" fill="#fafafa"/>
            <path id="Trazado_907292" data-name="Trazado 907292" d="M59.6,183.758c0,.11-7.733.2-17.27.2s-17.272-.089-17.272-.2,7.731-.2,17.272-.2,17.27.089,17.27.2" transform="translate(-5.852 -42.866)" fill="#fafafa"/>
            <path id="Trazado_907293" data-name="Trazado 907293" d="M59.687,194.555c0,.11-6.94.2-15.5.2s-15.5-.089-15.5-.2,6.938-.2,15.5-.2,15.5.089,15.5.2" transform="translate(-6.699 -45.387)" fill="#fafafa"/>
            <path id="Trazado_907294" data-name="Trazado 907294" d="M60.278,204.557c0,.11-6.291.2-14.049.2s-14.051-.089-14.051-.2,6.29-.2,14.051-.2,14.049.089,14.049.2" transform="translate(-7.514 -47.723)" fill="#fafafa"/>
            <path id="Trazado_907295" data-name="Trazado 907295" d="M61.285,212.655c0,.11-6.73.2-15.029.2s-15.03-.089-15.03-.2,6.727-.2,15.03-.2,15.029.089,15.029.2" transform="translate(-7.292 -49.614)" fill="#fafafa"/>
            <path id="Trazado_907296" data-name="Trazado 907296" d="M62.565,222.975c0,.11-7.656.2-17.1.2s-17.1-.089-17.1-.2,7.654-.2,17.1-.2,17.1.089,17.1.2" transform="translate(-6.625 -52.024)" fill="#fafafa"/>
            <path id="Trazado_907297" data-name="Trazado 907297" d="M29.544,195.81a2.933,2.933,0,0,1-.318-.707q-.315-.82-.755-1.961c-.632-1.658-1.523-3.943-2.449-6.491s-1.694-4.884-2.177-6.6c-.241-.856-.421-1.553-.524-2.04a2.881,2.881,0,0,1-.126-.765,28.144,28.144,0,0,1,.919,2.723c.55,1.685,1.353,4,2.283,6.543s1.773,4.846,2.339,6.531c.284.842.5,1.528.637,2.007a2.925,2.925,0,0,1,.171.757" transform="translate(-5.415 -41.392)" fill="#263238"/>
          </g>
        </g>
      </g>
    </g>
  </g>
</svg>
