<svg xmlns="http://www.w3.org/2000/svg" xmlns:xlink="http://www.w3.org/1999/xlink" width="93.722" height="93.723" viewBox="0 0 93.722 93.723">
  <defs>
    <filter id="Trazado_874925" x="0" y="0" width="93.722" height="93.723" filterUnits="userSpaceOnUse">
      <feOffset dy="3" input="SourceAlpha"/>
      <feGaussianBlur stdDeviation="3" result="blur"/>
      <feFlood flood-opacity="0.161"/>
      <feComposite operator="in" in2="blur"/>
      <feComposite in="SourceGraphic"/>
    </filter>
  </defs>
  <g id="Grupo_1114733" data-name="Grupo 1114733" transform="translate(-673.051 -2537)">
    <g id="Grupo_1112901" data-name="Grupo 1112901" transform="translate(682.051 2543)">
      <g id="Grupo_1109835" data-name="Grupo 1109835" transform="translate(0 0)">
        <g id="Grupo_1107913" data-name="Grupo 1107913" transform="translate(0 0)">
          <g transform="matrix(1, 0, 0, 1, -9, -6)" filter="url(#Trazado_874925)">
            <g id="Trazado_874925-2" data-name="Trazado 874925" transform="translate(9 6)" fill="#e2dacc" opacity="0.859">
              <path d="M 37.86101913452148 74.2225341796875 C 32.95165252685547 74.2225341796875 28.1899299621582 73.26136779785156 23.7081298828125 71.36572265625 C 19.37846374511719 69.534423828125 15.48970794677734 66.91244506835938 12.1498966217041 63.57263565063477 C 8.810074806213379 60.23281097412109 6.188107967376709 56.34405517578125 4.356808185577393 52.01438903808594 C 2.461163520812988 47.53257751464844 1.499996900558472 42.77085494995117 1.499996900558472 37.86148834228516 C 1.499996900558472 32.95167922973633 2.461163520812988 28.18995666503906 4.356808185577393 23.70814514160156 C 6.188107967376709 19.37847900390625 8.810074806213379 15.48972225189209 12.1498966217041 12.14990043640137 C 15.48970794677734 8.810089111328125 19.37846374511719 6.188111305236816 23.7081298828125 4.3568115234375 C 28.1899299621582 2.461167097091675 32.95165252685547 1.500000476837158 37.86101913452148 1.500000476837158 C 42.7703857421875 1.500000476837158 47.53210830688477 2.461167097091675 52.01390838623047 4.3568115234375 C 56.34357452392578 6.188111305236816 60.23233032226562 8.810089111328125 63.57213973999023 12.14990043640137 C 66.91196441650391 15.48972225189209 69.53392791748047 19.37847900390625 71.36522674560547 23.70814514160156 C 73.26087188720703 28.18995666503906 74.22203826904297 32.95167922973633 74.22203826904297 37.86104583740234 C 74.22203826904297 42.77085494995117 73.26087188720703 47.53257751464844 71.36522674560547 52.01438903808594 C 69.53392791748047 56.34405517578125 66.91196441650391 60.23281097412109 63.57213973999023 63.57263565063477 C 60.23233032226562 66.91244506835938 56.34357452392578 69.534423828125 52.01390838623047 71.36572265625 C 47.53210830688477 73.26136779785156 42.7703857421875 74.2225341796875 37.86101913452148 74.2225341796875 Z" stroke="none"/>
              <path d="M 37.86101913452148 3.000007629394531 C 33.15349578857422 3.000007629394531 28.5883674621582 3.921302795410156 24.29245758056641 5.738327026367188 C 20.14159393310547 7.493995666503906 16.41309356689453 10.00801849365234 13.21055603027344 13.21056747436523 C 10.00800323486328 16.41310501098633 7.493980407714844 20.14160537719727 5.738319396972656 24.29246520996094 C 3.921295166015625 28.58837890625 2.999992370605469 33.15350341796875 2.999992370605469 37.86148071289062 C 2.999992370605469 42.56901550292969 3.921295166015625 47.13414001464844 5.738319396972656 51.4300537109375 C 7.493980407714844 55.58092880249023 10.00800323486328 59.30941772460938 13.21055603027344 62.51196670532227 C 16.41309356689453 65.71451568603516 20.14159393310547 68.22854614257812 24.29245758056641 69.98420715332031 C 28.5883674621582 71.80123138427734 33.15349578857422 72.72252655029297 37.86101913452148 72.72252655029297 C 42.56854248046875 72.72252655029297 47.1336669921875 71.80123138427734 51.42958068847656 69.98420715332031 C 55.5804443359375 68.22854614257812 59.30892944335938 65.71451568603516 62.51148223876953 62.51196670532227 C 65.71401977539062 59.30941772460938 68.22804260253906 55.58092880249023 69.98370361328125 51.4300537109375 C 71.80073547363281 47.13414001464844 72.72203063964844 42.56901550292969 72.72203063964844 37.86104202270508 C 72.72203063964844 33.15350341796875 71.80073547363281 28.58837890625 69.98370361328125 24.29246520996094 C 68.22804260253906 20.14160537719727 65.71401977539062 16.41310501098633 62.51148223876953 13.21056747436523 C 59.30892944335938 10.00801849365234 55.5804443359375 7.493995666503906 51.42958068847656 5.738327026367188 C 47.1336669921875 3.921302795410156 42.56854248046875 3.000007629394531 37.86101913452148 3.000007629394531 M 37.86101913452148 7.62939453125e-06 C 58.77108001708984 7.62939453125e-06 75.72203063964844 16.95096588134766 75.72203063964844 37.86104202270508 L 75.72203063964844 37.86148071289062 C 75.72203063964844 58.77156829833984 58.77108001708984 75.72252655029297 37.86101913452148 75.72252655029297 C 16.95095825195312 75.72252655029297 -7.62939453125e-06 58.77156829833984 -7.62939453125e-06 37.86148071289062 L -7.62939453125e-06 37.86104202270508 C -7.62939453125e-06 16.95096588134766 16.95095825195312 7.62939453125e-06 37.86101913452148 7.62939453125e-06 Z" stroke="none" fill="#fff"/>
            </g>
          </g>
          <g id="Trazado_874923" data-name="Trazado 874923" transform="translate(0 0)" fill="none">
            <path d="M37.861,0A37.861,37.861,0,0,1,75.722,37.861h0A37.861,37.861,0,1,1,0,37.861H0A37.861,37.861,0,0,1,37.861,0Z" stroke="none"/>
            <path d="M 37.86101913452148 3.000007629394531 C 33.15349578857422 3.000007629394531 28.5883674621582 3.921302795410156 24.29245758056641 5.738327026367188 C 20.14159393310547 7.493995666503906 16.41309356689453 10.00801849365234 13.21055603027344 13.21056747436523 C 10.00800323486328 16.41310501098633 7.493980407714844 20.14160537719727 5.738319396972656 24.29246520996094 C 3.921295166015625 28.58837890625 2.999992370605469 33.15350341796875 2.999992370605469 37.86148071289062 C 2.999992370605469 42.56901550292969 3.921295166015625 47.13414001464844 5.738319396972656 51.4300537109375 C 7.493980407714844 55.58092880249023 10.00800323486328 59.30941772460938 13.21055603027344 62.51196670532227 C 16.41309356689453 65.71451568603516 20.14159393310547 68.22854614257812 24.29245758056641 69.98420715332031 C 28.5883674621582 71.80123138427734 33.15349578857422 72.72252655029297 37.86101913452148 72.72252655029297 C 42.56854248046875 72.72252655029297 47.1336669921875 71.80123138427734 51.42958068847656 69.98420715332031 C 55.5804443359375 68.22854614257812 59.30892944335938 65.71451568603516 62.51148223876953 62.51196670532227 C 65.71401977539062 59.30941772460938 68.22804260253906 55.58092880249023 69.98370361328125 51.4300537109375 C 71.80073547363281 47.13414001464844 72.72203063964844 42.56901550292969 72.72203063964844 37.86104202270508 C 72.72203063964844 33.15350341796875 71.80073547363281 28.58837890625 69.98370361328125 24.29246520996094 C 68.22804260253906 20.14160537719727 65.71401977539062 16.41310501098633 62.51148223876953 13.21056747436523 C 59.30892944335938 10.00801849365234 55.5804443359375 7.493995666503906 51.42958068847656 5.738327026367188 C 47.1336669921875 3.921302795410156 42.56854248046875 3.000007629394531 37.86101913452148 3.000007629394531 M 37.86101913452148 7.62939453125e-06 C 58.77108001708984 7.62939453125e-06 75.72203063964844 16.95096588134766 75.72203063964844 37.86104202270508 L 75.72203063964844 37.86148071289062 C 75.72203063964844 58.77156829833984 58.77108001708984 75.72252655029297 37.86101913452148 75.72252655029297 C 16.95095825195312 75.72252655029297 -7.62939453125e-06 58.77156829833984 -7.62939453125e-06 37.86148071289062 L -7.62939453125e-06 37.86104202270508 C -7.62939453125e-06 16.95096588134766 16.95095825195312 7.62939453125e-06 37.86101913452148 7.62939453125e-06 Z" stroke="none" fill="#fff"/>
          </g>
        </g>
      </g>
    </g>
    <g id="Grupo_1114732" data-name="Grupo 1114732" transform="translate(693.691 2549.98)">
      <path id="Trazado_907622" data-name="Trazado 907622" d="M50.474,64H11.146A1.346,1.346,0,0,0,9.8,62.65H7.754a1.894,1.894,0,1,0,0,3.789H48.067a1.2,1.2,0,0,1,1.2,1.2v19.2a1.2,1.2,0,1,0,2.408,0V65.2a1.2,1.2,0,0,0-1.2-1.2Z" transform="translate(-2.031 -44.384)" fill="#afafaf"/>
      <g id="Grupo_1114731" data-name="Grupo 1114731" transform="translate(12.118 8.482)">
        <path id="Trazado_907623" data-name="Trazado 907623" d="M227.469,28.967c-.691-.228-1.4-.428-1.8-2.153-.369,1.589-.96,1.874-1.8,2.153a2.4,2.4,0,0,1,1.8,2.153C226.042,29.494,226.666,29.232,227.469,28.967Z" transform="translate(-191.26 -23.752)" fill="#f0c020"/>
        <path id="Trazado_907624" data-name="Trazado 907624" d="M53.664,224.7c-.691-.228-1.4-.428-1.8-2.153-.369,1.589-.96,1.874-1.8,2.153a2.4,2.4,0,0,1,1.8,2.153C52.237,225.223,52.861,224.963,53.664,224.7Z" transform="translate(-50.054 -182.77)" fill="#f0c020"/>
        <path id="Trazado_907625" data-name="Trazado 907625" d="M190.321,12.642c-.691-.228-1.4-.428-1.8-2.153-.369,1.589-.96,1.874-1.8,2.153a2.4,2.4,0,0,1,1.8,2.153C188.893,13.168,189.518,12.907,190.321,12.642Z" transform="translate(-161.079 -10.489)" fill="#f0c020"/>
      </g>
      <path id="Trazado_907626" data-name="Trazado 907626" d="M49.27,75.847V97.09a1.2,1.2,0,0,1-1.2,1.2H7.743A1.886,1.886,0,0,1,5.86,96.4V72.75a1.894,1.894,0,0,0,1.894,1.894H48.067a1.2,1.2,0,0,1,1.2,1.2Z" transform="translate(-2.031 -52.59)" fill="#f2e1d6"/>
      <path id="Trazado_907627" data-name="Trazado 907627" d="M57.358,47.623V50.81H22.978a1.344,1.344,0,0,0-1.347-1.347H20.425l35.628-3.04a1.2,1.2,0,0,1,1.305,1.2Z" transform="translate(-13.864 -31.198)" fill="#fc5d3d"/>
      <path id="Trazado_907628" data-name="Trazado 907628" d="M40.053,56.746a.469.469,0,0,1-.039-.936L58.3,54.25a.469.469,0,1,1,.08.934C58.35,55.187,40.084,56.746,40.053,56.746ZM60.21,55.027a.469.469,0,0,1-.039-.936l11.026-.94a.469.469,0,1,1,.08.934l-11.026.94Z" transform="translate(-29.43 -36.665)" fill="#ffcbc2"/>
      <path id="Trazado_907629" data-name="Trazado 907629" d="M52.361,115.375H51.242a.469.469,0,1,1,0-.938h1.119a.469.469,0,1,1,0,.938Zm-2.994,0H13.785a.469.469,0,0,1-.469-.469V96.469a.469.469,0,1,1,.938,0v17.969H49.367a.469.469,0,1,1,0,.938Z" transform="translate(-8.089 -71.479)" fill="#fff"/>
      <path id="Trazado_907630" data-name="Trazado 907630" d="M221.7,27.4c1.166.385,1.3.955,1.5,1.818a.464.464,0,0,0,.9,0c.332-1.432.821-1.594,1.5-1.818a.464.464,0,0,0,0-.882c-.65-.214-1.159-.353-1.5-1.818a.464.464,0,0,0-.9,0c-.333,1.433-.8,1.586-1.5,1.818a.464.464,0,0,0,0,.882Zm1.952-1.239a2.368,2.368,0,0,0,.694.8,2.3,2.3,0,0,0-.686.774,2.4,2.4,0,0,0-.726-.768,2.3,2.3,0,0,0,.719-.809Z" transform="translate(-177.132 -13.263)"/>
      <path id="Trazado_907631" data-name="Trazado 907631" d="M51.8,222.253c-.65-.214-1.159-.353-1.5-1.818a.464.464,0,0,0-.9,0c-.333,1.432-.8,1.586-1.5,1.818a.464.464,0,0,0,0,.882c1.166.385,1.3.955,1.5,1.818a.464.464,0,0,0,.9,0c.332-1.432.821-1.594,1.5-1.818a.464.464,0,0,0,0-.882Zm-1.941,1.219a2.408,2.408,0,0,0-.726-.768,2.3,2.3,0,0,0,.719-.809,2.37,2.37,0,0,0,.694.8A2.3,2.3,0,0,0,49.861,223.472Z" transform="translate(-35.928 -172.285)"/>
      <path id="Trazado_907632" data-name="Trazado 907632" d="M184.556,11.076c1.166.385,1.3.955,1.5,1.818a.464.464,0,0,0,.9,0c.332-1.432.821-1.594,1.5-1.818a.464.464,0,0,0,0-.882c-.65-.214-1.159-.353-1.5-1.818a.464.464,0,0,0-.9,0c-.333,1.433-.8,1.586-1.5,1.818a.464.464,0,0,0,0,.882Zm1.952-1.238a2.366,2.366,0,0,0,.694.8,2.3,2.3,0,0,0-.686.774,2.407,2.407,0,0,0-.726-.768,2.3,2.3,0,0,0,.719-.81Z" transform="translate(-146.952)"/>
      <path id="Trazado_907633" data-name="Trazado 907633" d="M23.009,100.188H32a.469.469,0,1,0,0-.938H23.009a.469.469,0,1,0,0,.938Z" transform="translate(-15.583 -74.12)"/>
      <path id="Trazado_907634" data-name="Trazado 907634" d="M42.651,125.11H23.009a.469.469,0,0,0,0,.938H42.651a.469.469,0,1,0,0-.938Z" transform="translate(-15.583 -95.129)"/>
      <path id="Trazado_907635" data-name="Trazado 907635" d="M42.651,138.9H23.009a.469.469,0,0,0,0,.938H42.651a.469.469,0,1,0,0-.938Z" transform="translate(-15.583 -106.333)"/>
      <path id="Trazado_907636" data-name="Trazado 907636" d="M174.691,126.137l.167-.083v1.934a.469.469,0,1,0,.936,0v-2.693a.469.469,0,0,0-.679-.42l-.844.424a.469.469,0,0,0-.208.63A.475.475,0,0,0,174.691,126.137Z" transform="translate(-138.644 -94.898)"/>
      <path id="Trazado_907637" data-name="Trazado 907637" d="M188.16,126.191v.9a1.366,1.366,0,1,0,2.733,0v-.9a1.366,1.366,0,0,0-2.733,0Zm.938,0a.43.43,0,1,1,.859,0v.9a.43.43,0,1,1-.859,0Z" transform="translate(-150.138 -94.898)"/>
      <path id="Trazado_907638" data-name="Trazado 907638" d="M207.767,128.457a1.369,1.369,0,0,0,1.365-1.367v-.9a1.366,1.366,0,1,0-2.733,0v.9A1.369,1.369,0,0,0,207.767,128.457Zm-.43-2.266a.429.429,0,0,1,.857,0v.9a.429.429,0,1,1-.857,0Z" transform="translate(-164.957 -94.898)"/>
      <path id="Trazado_907639" data-name="Trazado 907639" d="M182.558,148.96h-8.519a.469.469,0,0,0,0,.938h8.519a.469.469,0,0,0,0-.938Z" transform="translate(-138.285 -114.506)"/>
      <path id="Trazado_907640" data-name="Trazado 907640" d="M40.647,152.35l-3.668,4.317a.469.469,0,0,0,.715.607l2.841-3.345V156a.469.469,0,0,0,.8.332l1.707-1.707v1.189a.469.469,0,0,0,.469.469H46.39a.469.469,0,0,0,0-.938H43.981v-1.853a.469.469,0,0,0-.8-.331l-1.707,1.707v-2.21a.469.469,0,0,0-.826-.3Z" transform="translate(-27.223 -117.126)"/>
      <path id="Trazado_907641" data-name="Trazado 907641" d="M178.509,100.188h2.268a.469.469,0,0,0,0-.938h-2.268a.469.469,0,1,0,0,.938Z" transform="translate(-141.916 -74.12)"/>
      <path id="Trazado_907642" data-name="Trazado 907642" d="M211.527,99.25h-2.268a.469.469,0,0,0,0,.938h2.268a.469.469,0,0,0,0-.938Z" transform="translate(-166.899 -74.12)"/>
      <path id="Trazado_907643" data-name="Trazado 907643" d="M199.273,94.889a.469.469,0,0,0,.595-.293l.415-1.219a.469.469,0,0,0-.293-.6.476.476,0,0,0-.595.294l-.415,1.219a.468.468,0,0,0,.293.595Z" transform="translate(-158.909 -68.845)"/>
      <path id="Trazado_907644" data-name="Trazado 907644" d="M164.584,184.3H151.916a.469.469,0,0,0,0,.938h12.668a.469.469,0,1,0,0-.938Z" transform="translate(-120.311 -143.217)"/>
      <path id="Trazado_907645" data-name="Trazado 907645" d="M15.518,69.7H13.789a.469.469,0,0,0,0,.938h1.729a.469.469,0,0,0,0-.938Z" transform="translate(-8.092 -50.112)"/>
      <path id="Trazado_907646" data-name="Trazado 907646" d="M38.424,184.311H24.588a.469.469,0,0,0,0,.938H38.424a.469.469,0,1,0,0-.938Z" transform="translate(-16.865 -143.226)"/>
      <path id="Trazado_907647" data-name="Trazado 907647" d="M168.1,163.753l-2.892,1.617a.469.469,0,0,0-.182.638.481.481,0,0,0,.64.18l2.194-1.227v.818a.469.469,0,0,0,.718.4l1.838-1.161v.765a.47.47,0,0,0,.722.4l1.8-1.155v.76a.469.469,0,0,0,.938,0v-1.617a.469.469,0,0,0-.722-.394l-1.8,1.154v-.76a.47.47,0,0,0-.72-.4l-1.836,1.161v-.765a.471.471,0,0,0-.7-.409Z" transform="translate(-131.293 -126.476)"/>
      <path id="Trazado_907648" data-name="Trazado 907648" d="M145.959,50.2a.469.469,0,1,0-.506-.428A.469.469,0,0,0,145.959,50.2Z" transform="translate(-115.44 -33.513)"/>
      <path id="Trazado_907649" data-name="Trazado 907649" d="M48.443,48.31H43.962V45.59a1.673,1.673,0,0,0-1.814-1.666l-9.84.84a.469.469,0,0,0-.428.506.474.474,0,0,0,.508.428h0l9.838-.84a.735.735,0,0,1,.8.731v2.72H9.522a1.862,1.862,0,0,0-.314-.634l19.443-1.658a.469.469,0,0,0,.428-.506.475.475,0,0,0-.508-.428L6.542,46.963H5.723A2.366,2.366,0,0,0,3.36,49.326v23.65a2.36,2.36,0,0,0,2.352,2.363H46.036a1.674,1.674,0,0,0,1.671-1.673v-.538a1.67,1.67,0,0,0,2.408-1.5V49.981a1.674,1.674,0,0,0-1.673-1.671ZM46.77,73.666a.735.735,0,0,1-.733.735H5.712A1.422,1.422,0,0,1,4.3,72.976V51.21a2.393,2.393,0,0,0,1.425.479H46.036a.734.734,0,0,1,.733.733Zm2.408-2.039a.735.735,0,1,1-1.47,0v-19.2a1.673,1.673,0,0,0-1.671-1.671H5.723a1.425,1.425,0,1,1,0-2.851H7.766a.884.884,0,0,1,.878.878.472.472,0,0,0,.469.469h39.33a.735.735,0,0,1,.735.733Z" transform="translate(0 -29.166)"/>
      <path id="Trazado_907650" data-name="Trazado 907650" d="M149.238,122.968h-.94a.375.375,0,1,1,0-.75h.9a.585.585,0,0,1,.48.272.469.469,0,1,0,.79-.505,1.512,1.512,0,0,0-1.236-.7v-.353a.469.469,0,1,0-.938,0v.35h0a1.313,1.313,0,1,0,0,2.626h.94a.375.375,0,1,1-.006.75h-.981a.585.585,0,0,1-.437-.214.469.469,0,0,0-.721.6,1.515,1.515,0,0,0,1.154.552h.052v.351a.469.469,0,1,0,.938,0v-.35h0a1.313,1.313,0,1,0,0-2.626Z" transform="translate(-116.686 -91.351)"/>
    </g>
  </g>
</svg>
